G75*
%MOIN*%
%OFA0B0*%
%FSLAX25Y25*%
%IPPOS*%
%LPD*%
%AMOC8*
5,1,8,0,0,1.08239X$1,22.5*
%
%ADD10R,0.01378X0.03150*%
%ADD11C,0.05937*%
%ADD12C,0.01959*%
%ADD13C,0.01956*%
%ADD14C,0.01575*%
%ADD15R,0.06496X0.06496*%
%ADD16C,0.06496*%
%ADD17R,0.04921X0.04331*%
%ADD18R,0.07400X0.07400*%
%ADD19OC8,0.07400*%
%ADD20C,0.07400*%
%ADD21C,0.01811*%
%ADD22R,0.08756X0.02201*%
%ADD23R,0.02201X0.08756*%
%ADD24R,0.00906X0.06299*%
%ADD25R,0.06299X0.00906*%
%ADD26R,0.06150X0.01102*%
%ADD27R,0.01102X0.06150*%
%ADD28R,0.07480X0.04331*%
%ADD29R,0.10000X0.04000*%
%ADD30R,0.07874X0.07874*%
%ADD31C,0.00600*%
%ADD32C,0.04500*%
%ADD33C,0.05362*%
%ADD34C,0.01600*%
%ADD35C,0.01800*%
D10*
X0213786Y0210533D03*
X0216345Y0210533D03*
X0218904Y0210533D03*
X0218904Y0216833D03*
X0216345Y0216833D03*
X0213786Y0216833D03*
D11*
X0291845Y0385965D02*
X0291845Y0391902D01*
X0301845Y0391902D02*
X0301845Y0385965D01*
D12*
X0293498Y0470237D02*
X0286126Y0470237D01*
X0293498Y0470237D02*
X0293498Y0462629D01*
X0286126Y0462629D01*
X0286126Y0470237D01*
X0286126Y0464587D02*
X0293498Y0464587D01*
X0293498Y0466545D02*
X0286126Y0466545D01*
X0286126Y0468503D02*
X0293498Y0468503D01*
X0310693Y0462629D02*
X0318065Y0462629D01*
X0310693Y0462629D02*
X0310693Y0470237D01*
X0318065Y0470237D01*
X0318065Y0462629D01*
X0318065Y0464587D02*
X0310693Y0464587D01*
X0310693Y0466545D02*
X0318065Y0466545D01*
X0318065Y0468503D02*
X0310693Y0468503D01*
X0445649Y0339903D02*
X0445649Y0332531D01*
X0438041Y0332531D01*
X0438041Y0339903D01*
X0445649Y0339903D01*
X0445649Y0334489D02*
X0438041Y0334489D01*
X0438041Y0336447D02*
X0445649Y0336447D01*
X0445649Y0338405D02*
X0438041Y0338405D01*
X0438041Y0315336D02*
X0438041Y0307964D01*
X0438041Y0315336D02*
X0445649Y0315336D01*
X0445649Y0307964D01*
X0438041Y0307964D01*
X0438041Y0309922D02*
X0445649Y0309922D01*
X0445649Y0311880D02*
X0438041Y0311880D01*
X0438041Y0313838D02*
X0445649Y0313838D01*
X0316565Y0183879D02*
X0309193Y0183879D01*
X0309193Y0191487D01*
X0316565Y0191487D01*
X0316565Y0183879D01*
X0316565Y0185837D02*
X0309193Y0185837D01*
X0309193Y0187795D02*
X0316565Y0187795D01*
X0316565Y0189753D02*
X0309193Y0189753D01*
X0291998Y0191487D02*
X0284626Y0191487D01*
X0291998Y0191487D02*
X0291998Y0183879D01*
X0284626Y0183879D01*
X0284626Y0191487D01*
X0284626Y0185837D02*
X0291998Y0185837D01*
X0291998Y0187795D02*
X0284626Y0187795D01*
X0284626Y0189753D02*
X0291998Y0189753D01*
X0158041Y0311714D02*
X0158041Y0319086D01*
X0165649Y0319086D01*
X0165649Y0311714D01*
X0158041Y0311714D01*
X0158041Y0313672D02*
X0165649Y0313672D01*
X0165649Y0315630D02*
X0158041Y0315630D01*
X0158041Y0317588D02*
X0165649Y0317588D01*
X0165649Y0336281D02*
X0165649Y0343653D01*
X0165649Y0336281D02*
X0158041Y0336281D01*
X0158041Y0343653D01*
X0165649Y0343653D01*
X0165649Y0338239D02*
X0158041Y0338239D01*
X0158041Y0340197D02*
X0165649Y0340197D01*
X0165649Y0342155D02*
X0158041Y0342155D01*
D13*
X0128662Y0341105D02*
X0128662Y0338809D01*
X0125028Y0338809D01*
X0125028Y0341105D01*
X0128662Y0341105D01*
X0128662Y0340764D02*
X0125028Y0340764D01*
X0125028Y0334057D02*
X0125028Y0331761D01*
X0125028Y0334057D02*
X0128662Y0334057D01*
X0128662Y0331761D01*
X0125028Y0331761D01*
X0125028Y0333716D02*
X0128662Y0333716D01*
X0213662Y0205105D02*
X0213662Y0202809D01*
X0210028Y0202809D01*
X0210028Y0205105D01*
X0213662Y0205105D01*
X0213662Y0204764D02*
X0210028Y0204764D01*
X0210028Y0198057D02*
X0210028Y0195761D01*
X0210028Y0198057D02*
X0213662Y0198057D01*
X0213662Y0195761D01*
X0210028Y0195761D01*
X0210028Y0197716D02*
X0213662Y0197716D01*
X0218028Y0198057D02*
X0218028Y0195761D01*
X0218028Y0198057D02*
X0221662Y0198057D01*
X0221662Y0195761D01*
X0218028Y0195761D01*
X0218028Y0197716D02*
X0221662Y0197716D01*
X0221662Y0202809D02*
X0221662Y0205105D01*
X0221662Y0202809D02*
X0218028Y0202809D01*
X0218028Y0205105D01*
X0221662Y0205105D01*
X0221662Y0204764D02*
X0218028Y0204764D01*
X0271174Y0205500D02*
X0273470Y0205500D01*
X0273470Y0201866D01*
X0271174Y0201866D01*
X0271174Y0205500D01*
X0271174Y0203821D02*
X0273470Y0203821D01*
X0278221Y0201866D02*
X0280517Y0201866D01*
X0278221Y0201866D02*
X0278221Y0205500D01*
X0280517Y0205500D01*
X0280517Y0201866D01*
X0280517Y0203821D02*
X0278221Y0203821D01*
X0288424Y0158250D02*
X0290720Y0158250D01*
X0290720Y0154616D01*
X0288424Y0154616D01*
X0288424Y0158250D01*
X0288424Y0156571D02*
X0290720Y0156571D01*
X0295471Y0154616D02*
X0297767Y0154616D01*
X0295471Y0154616D02*
X0295471Y0158250D01*
X0297767Y0158250D01*
X0297767Y0154616D01*
X0297767Y0156571D02*
X0295471Y0156571D01*
X0281267Y0260866D02*
X0278971Y0260866D01*
X0278971Y0264500D01*
X0281267Y0264500D01*
X0281267Y0260866D01*
X0281267Y0262821D02*
X0278971Y0262821D01*
X0274220Y0264500D02*
X0271924Y0264500D01*
X0274220Y0264500D02*
X0274220Y0260866D01*
X0271924Y0260866D01*
X0271924Y0264500D01*
X0271924Y0262821D02*
X0274220Y0262821D01*
X0279924Y0294000D02*
X0282220Y0294000D01*
X0282220Y0290366D01*
X0279924Y0290366D01*
X0279924Y0294000D01*
X0279924Y0292321D02*
X0282220Y0292321D01*
X0286971Y0290366D02*
X0289267Y0290366D01*
X0286971Y0290366D02*
X0286971Y0294000D01*
X0289267Y0294000D01*
X0289267Y0290366D01*
X0289267Y0292321D02*
X0286971Y0292321D01*
X0294924Y0294250D02*
X0297220Y0294250D01*
X0297220Y0290616D01*
X0294924Y0290616D01*
X0294924Y0294250D01*
X0294924Y0292571D02*
X0297220Y0292571D01*
X0301971Y0290616D02*
X0304267Y0290616D01*
X0301971Y0290616D02*
X0301971Y0294250D01*
X0304267Y0294250D01*
X0304267Y0290616D01*
X0304267Y0292571D02*
X0301971Y0292571D01*
X0302971Y0305866D02*
X0305267Y0305866D01*
X0302971Y0305866D02*
X0302971Y0309500D01*
X0305267Y0309500D01*
X0305267Y0305866D01*
X0305267Y0307821D02*
X0302971Y0307821D01*
X0298220Y0309500D02*
X0295924Y0309500D01*
X0298220Y0309500D02*
X0298220Y0305866D01*
X0295924Y0305866D01*
X0295924Y0309500D01*
X0295924Y0307821D02*
X0298220Y0307821D01*
X0293778Y0346761D02*
X0293778Y0349057D01*
X0297412Y0349057D01*
X0297412Y0346761D01*
X0293778Y0346761D01*
X0293778Y0348716D02*
X0297412Y0348716D01*
X0302028Y0349057D02*
X0302028Y0346761D01*
X0302028Y0349057D02*
X0305662Y0349057D01*
X0305662Y0346761D01*
X0302028Y0346761D01*
X0302028Y0348716D02*
X0305662Y0348716D01*
X0305662Y0353809D02*
X0305662Y0356105D01*
X0305662Y0353809D02*
X0302028Y0353809D01*
X0302028Y0356105D01*
X0305662Y0356105D01*
X0305662Y0355764D02*
X0302028Y0355764D01*
X0297412Y0356105D02*
X0297412Y0353809D01*
X0293778Y0353809D01*
X0293778Y0356105D01*
X0297412Y0356105D01*
X0297412Y0355764D02*
X0293778Y0355764D01*
X0289162Y0356105D02*
X0289162Y0353809D01*
X0285528Y0353809D01*
X0285528Y0356105D01*
X0289162Y0356105D01*
X0289162Y0355764D02*
X0285528Y0355764D01*
X0280912Y0356105D02*
X0280912Y0353809D01*
X0277278Y0353809D01*
X0277278Y0356105D01*
X0280912Y0356105D01*
X0280912Y0355764D02*
X0277278Y0355764D01*
X0277278Y0349057D02*
X0277278Y0346761D01*
X0277278Y0349057D02*
X0280912Y0349057D01*
X0280912Y0346761D01*
X0277278Y0346761D01*
X0277278Y0348716D02*
X0280912Y0348716D01*
X0285528Y0349057D02*
X0285528Y0346761D01*
X0285528Y0349057D02*
X0289162Y0349057D01*
X0289162Y0346761D01*
X0285528Y0346761D01*
X0285528Y0348716D02*
X0289162Y0348716D01*
X0380028Y0418511D02*
X0380028Y0420807D01*
X0383662Y0420807D01*
X0383662Y0418511D01*
X0380028Y0418511D01*
X0380028Y0420466D02*
X0383662Y0420466D01*
X0383662Y0425559D02*
X0383662Y0427855D01*
X0383662Y0425559D02*
X0380028Y0425559D01*
X0380028Y0427855D01*
X0383662Y0427855D01*
X0383662Y0427514D02*
X0380028Y0427514D01*
X0391912Y0427855D02*
X0391912Y0425559D01*
X0388278Y0425559D01*
X0388278Y0427855D01*
X0391912Y0427855D01*
X0391912Y0427514D02*
X0388278Y0427514D01*
X0388278Y0420807D02*
X0388278Y0418511D01*
X0388278Y0420807D02*
X0391912Y0420807D01*
X0391912Y0418511D01*
X0388278Y0418511D01*
X0388278Y0420466D02*
X0391912Y0420466D01*
X0440674Y0411000D02*
X0442970Y0411000D01*
X0442970Y0407366D01*
X0440674Y0407366D01*
X0440674Y0411000D01*
X0440674Y0409321D02*
X0442970Y0409321D01*
X0447721Y0407366D02*
X0450017Y0407366D01*
X0447721Y0407366D02*
X0447721Y0411000D01*
X0450017Y0411000D01*
X0450017Y0407366D01*
X0450017Y0409321D02*
X0447721Y0409321D01*
X0472412Y0321105D02*
X0472412Y0318809D01*
X0468778Y0318809D01*
X0468778Y0321105D01*
X0472412Y0321105D01*
X0472412Y0320764D02*
X0468778Y0320764D01*
X0468778Y0314057D02*
X0468778Y0311761D01*
X0468778Y0314057D02*
X0472412Y0314057D01*
X0472412Y0311761D01*
X0468778Y0311761D01*
X0468778Y0313716D02*
X0472412Y0313716D01*
X0315267Y0494616D02*
X0312971Y0494616D01*
X0312971Y0498250D01*
X0315267Y0498250D01*
X0315267Y0494616D01*
X0315267Y0496571D02*
X0312971Y0496571D01*
X0308220Y0498250D02*
X0305924Y0498250D01*
X0308220Y0498250D02*
X0308220Y0494616D01*
X0305924Y0494616D01*
X0305924Y0498250D01*
X0305924Y0496571D02*
X0308220Y0496571D01*
D14*
X0292307Y0514455D02*
X0292307Y0517801D01*
X0293883Y0517801D01*
X0293883Y0514455D01*
X0292307Y0514455D01*
X0292307Y0516029D02*
X0293883Y0516029D01*
X0293883Y0517603D02*
X0292307Y0517603D01*
X0293883Y0527565D02*
X0293883Y0530911D01*
X0293883Y0527565D02*
X0292307Y0527565D01*
X0292307Y0530911D01*
X0293883Y0530911D01*
X0293883Y0529139D02*
X0292307Y0529139D01*
X0292307Y0530713D02*
X0293883Y0530713D01*
X0103883Y0327161D02*
X0103883Y0323815D01*
X0102307Y0323815D01*
X0102307Y0327161D01*
X0103883Y0327161D01*
X0103883Y0325389D02*
X0102307Y0325389D01*
X0102307Y0326963D02*
X0103883Y0326963D01*
X0102307Y0314051D02*
X0102307Y0310705D01*
X0102307Y0314051D02*
X0103883Y0314051D01*
X0103883Y0310705D01*
X0102307Y0310705D01*
X0102307Y0312279D02*
X0103883Y0312279D01*
X0103883Y0313853D02*
X0102307Y0313853D01*
X0311383Y0138411D02*
X0311383Y0135065D01*
X0309807Y0135065D01*
X0309807Y0138411D01*
X0311383Y0138411D01*
X0311383Y0136639D02*
X0309807Y0136639D01*
X0309807Y0138213D02*
X0311383Y0138213D01*
X0309807Y0125301D02*
X0309807Y0121955D01*
X0309807Y0125301D02*
X0311383Y0125301D01*
X0311383Y0121955D01*
X0309807Y0121955D01*
X0309807Y0123529D02*
X0311383Y0123529D01*
X0311383Y0125103D02*
X0309807Y0125103D01*
X0488617Y0330971D02*
X0491963Y0330971D01*
X0491963Y0329395D01*
X0488617Y0329395D01*
X0488617Y0330971D01*
X0488617Y0330969D02*
X0491963Y0330969D01*
X0501727Y0329395D02*
X0505073Y0329395D01*
X0501727Y0329395D02*
X0501727Y0330971D01*
X0505073Y0330971D01*
X0505073Y0329395D01*
X0505073Y0330969D02*
X0501727Y0330969D01*
D15*
X0364095Y0448183D03*
X0166845Y0371433D03*
D16*
X0166845Y0381433D03*
X0166845Y0391433D03*
X0166845Y0401433D03*
X0166845Y0411433D03*
X0166845Y0421433D03*
X0166845Y0431433D03*
X0166845Y0441433D03*
X0166845Y0451433D03*
X0166845Y0461433D03*
X0354095Y0448183D03*
D17*
X0356093Y0466183D03*
X0365345Y0466183D03*
X0227347Y0465183D03*
X0218095Y0465183D03*
D18*
X0431845Y0257683D03*
D19*
X0431845Y0247683D03*
X0431845Y0237683D03*
X0441845Y0237683D03*
X0441845Y0247683D03*
X0441845Y0257683D03*
D20*
X0411845Y0186433D03*
X0401845Y0186433D03*
X0391845Y0186433D03*
X0381845Y0186433D03*
X0371845Y0186433D03*
X0361845Y0186433D03*
X0445595Y0420183D03*
X0445595Y0430183D03*
X0445595Y0440183D03*
X0445595Y0450183D03*
X0445595Y0460183D03*
X0445595Y0470183D03*
D21*
X0447949Y0399372D02*
X0449761Y0399372D01*
X0447949Y0399372D02*
X0447949Y0402994D01*
X0449761Y0402994D01*
X0449761Y0399372D01*
X0449761Y0401182D02*
X0447949Y0401182D01*
X0447949Y0402992D02*
X0449761Y0402992D01*
X0442241Y0402994D02*
X0440429Y0402994D01*
X0442241Y0402994D02*
X0442241Y0399372D01*
X0440429Y0399372D01*
X0440429Y0402994D01*
X0440429Y0401182D02*
X0442241Y0401182D01*
X0442241Y0402992D02*
X0440429Y0402992D01*
X0472179Y0329494D02*
X0473991Y0329494D01*
X0473991Y0325872D01*
X0472179Y0325872D01*
X0472179Y0329494D01*
X0472179Y0327682D02*
X0473991Y0327682D01*
X0473991Y0329492D02*
X0472179Y0329492D01*
X0479699Y0325872D02*
X0481511Y0325872D01*
X0479699Y0325872D02*
X0479699Y0329494D01*
X0481511Y0329494D01*
X0481511Y0325872D01*
X0481511Y0327682D02*
X0479699Y0327682D01*
X0479699Y0329492D02*
X0481511Y0329492D01*
X0481156Y0321099D02*
X0481156Y0319287D01*
X0477534Y0319287D01*
X0477534Y0321099D01*
X0481156Y0321099D01*
X0481156Y0321097D02*
X0477534Y0321097D01*
X0477534Y0313579D02*
X0477534Y0311767D01*
X0477534Y0313579D02*
X0481156Y0313579D01*
X0481156Y0311767D01*
X0477534Y0311767D01*
X0477534Y0313577D02*
X0481156Y0313577D01*
X0365511Y0471622D02*
X0363699Y0471622D01*
X0363699Y0475244D01*
X0365511Y0475244D01*
X0365511Y0471622D01*
X0365511Y0473432D02*
X0363699Y0473432D01*
X0363699Y0475242D02*
X0365511Y0475242D01*
X0357991Y0475244D02*
X0356179Y0475244D01*
X0357991Y0475244D02*
X0357991Y0471622D01*
X0356179Y0471622D01*
X0356179Y0475244D01*
X0356179Y0473432D02*
X0357991Y0473432D01*
X0357991Y0475242D02*
X0356179Y0475242D01*
X0315261Y0503372D02*
X0313449Y0503372D01*
X0313449Y0506994D01*
X0315261Y0506994D01*
X0315261Y0503372D01*
X0315261Y0505182D02*
X0313449Y0505182D01*
X0313449Y0506992D02*
X0315261Y0506992D01*
X0307741Y0506994D02*
X0305929Y0506994D01*
X0307741Y0506994D02*
X0307741Y0503372D01*
X0305929Y0503372D01*
X0305929Y0506994D01*
X0305929Y0505182D02*
X0307741Y0505182D01*
X0307741Y0506992D02*
X0305929Y0506992D01*
X0294906Y0504849D02*
X0294906Y0503037D01*
X0291284Y0503037D01*
X0291284Y0504849D01*
X0294906Y0504849D01*
X0294906Y0504847D02*
X0291284Y0504847D01*
X0291284Y0497329D02*
X0291284Y0495517D01*
X0291284Y0497329D02*
X0294906Y0497329D01*
X0294906Y0495517D01*
X0291284Y0495517D01*
X0291284Y0497327D02*
X0294906Y0497327D01*
X0228261Y0471122D02*
X0226449Y0471122D01*
X0226449Y0474744D01*
X0228261Y0474744D01*
X0228261Y0471122D01*
X0228261Y0472932D02*
X0226449Y0472932D01*
X0226449Y0474742D02*
X0228261Y0474742D01*
X0220741Y0474744D02*
X0218929Y0474744D01*
X0220741Y0474744D02*
X0220741Y0471122D01*
X0218929Y0471122D01*
X0218929Y0474744D01*
X0218929Y0472932D02*
X0220741Y0472932D01*
X0220741Y0474742D02*
X0218929Y0474742D01*
X0281156Y0342349D02*
X0281156Y0340537D01*
X0277534Y0340537D01*
X0277534Y0342349D01*
X0281156Y0342349D01*
X0281156Y0342347D02*
X0277534Y0342347D01*
X0277534Y0334829D02*
X0277534Y0333017D01*
X0277534Y0334829D02*
X0281156Y0334829D01*
X0281156Y0333017D01*
X0277534Y0333017D01*
X0277534Y0334827D02*
X0281156Y0334827D01*
X0281156Y0328849D02*
X0281156Y0327037D01*
X0277534Y0327037D01*
X0277534Y0328849D01*
X0281156Y0328849D01*
X0281156Y0328847D02*
X0277534Y0328847D01*
X0277534Y0321329D02*
X0277534Y0319517D01*
X0277534Y0321329D02*
X0281156Y0321329D01*
X0281156Y0319517D01*
X0277534Y0319517D01*
X0277534Y0321327D02*
X0281156Y0321327D01*
X0133784Y0331767D02*
X0133784Y0333579D01*
X0137406Y0333579D01*
X0137406Y0331767D01*
X0133784Y0331767D01*
X0133784Y0333577D02*
X0137406Y0333577D01*
X0137406Y0339287D02*
X0137406Y0341099D01*
X0137406Y0339287D02*
X0133784Y0339287D01*
X0133784Y0341099D01*
X0137406Y0341099D01*
X0137406Y0341097D02*
X0133784Y0341097D01*
X0133449Y0319622D02*
X0135261Y0319622D01*
X0133449Y0319622D02*
X0133449Y0323244D01*
X0135261Y0323244D01*
X0135261Y0319622D01*
X0135261Y0321432D02*
X0133449Y0321432D01*
X0133449Y0323242D02*
X0135261Y0323242D01*
X0127741Y0323244D02*
X0125929Y0323244D01*
X0127741Y0323244D02*
X0127741Y0319622D01*
X0125929Y0319622D01*
X0125929Y0323244D01*
X0125929Y0321432D02*
X0127741Y0321432D01*
X0127741Y0323242D02*
X0125929Y0323242D01*
X0288429Y0149494D02*
X0290241Y0149494D01*
X0290241Y0145872D01*
X0288429Y0145872D01*
X0288429Y0149494D01*
X0288429Y0147682D02*
X0290241Y0147682D01*
X0290241Y0149492D02*
X0288429Y0149492D01*
X0295949Y0145872D02*
X0297761Y0145872D01*
X0295949Y0145872D02*
X0295949Y0149494D01*
X0297761Y0149494D01*
X0297761Y0145872D01*
X0297761Y0147682D02*
X0295949Y0147682D01*
X0295949Y0149492D02*
X0297761Y0149492D01*
X0308784Y0149829D02*
X0308784Y0148017D01*
X0308784Y0149829D02*
X0312406Y0149829D01*
X0312406Y0148017D01*
X0308784Y0148017D01*
X0308784Y0149827D02*
X0312406Y0149827D01*
X0312406Y0155537D02*
X0312406Y0157349D01*
X0312406Y0155537D02*
X0308784Y0155537D01*
X0308784Y0157349D01*
X0312406Y0157349D01*
X0312406Y0157347D02*
X0308784Y0157347D01*
D22*
X0490018Y0312368D03*
X0490018Y0320498D03*
X0503672Y0316433D03*
X0116172Y0332368D03*
X0116172Y0340498D03*
X0102518Y0336433D03*
D23*
X0289030Y0137010D03*
X0297160Y0137010D03*
X0293095Y0123356D03*
X0306530Y0514606D03*
X0314660Y0514606D03*
X0310595Y0528260D03*
D24*
X0307770Y0333717D03*
X0306077Y0333717D03*
X0304385Y0333717D03*
X0302692Y0333717D03*
X0300999Y0333717D03*
X0299306Y0333717D03*
X0297613Y0333717D03*
X0295920Y0333717D03*
X0295920Y0319150D03*
X0297613Y0319150D03*
X0299306Y0319150D03*
X0300999Y0319150D03*
X0302692Y0319150D03*
X0304385Y0319150D03*
X0306077Y0319150D03*
X0307770Y0319150D03*
D25*
X0310113Y0323894D03*
X0310113Y0325587D03*
X0310113Y0327280D03*
X0310113Y0328972D03*
X0293577Y0328972D03*
X0293577Y0327280D03*
X0293577Y0325587D03*
X0293577Y0323894D03*
D26*
X0309562Y0247947D03*
X0309562Y0245978D03*
X0309562Y0244010D03*
X0309562Y0242041D03*
X0309562Y0240073D03*
X0309562Y0238104D03*
X0309562Y0236136D03*
X0309562Y0234167D03*
X0309562Y0232199D03*
X0309562Y0230230D03*
X0309562Y0228262D03*
X0309562Y0226293D03*
X0309562Y0224325D03*
X0309562Y0222356D03*
X0309562Y0220388D03*
X0309562Y0218419D03*
X0271129Y0218419D03*
X0271129Y0220388D03*
X0271129Y0222356D03*
X0271129Y0224325D03*
X0271129Y0226293D03*
X0271129Y0228262D03*
X0271129Y0230230D03*
X0271129Y0232199D03*
X0271129Y0234167D03*
X0271129Y0236136D03*
X0271129Y0238104D03*
X0271129Y0240073D03*
X0271129Y0242041D03*
X0271129Y0244010D03*
X0271129Y0245978D03*
X0271129Y0247947D03*
D27*
X0275581Y0252400D03*
X0277550Y0252400D03*
X0279518Y0252400D03*
X0281487Y0252400D03*
X0283455Y0252400D03*
X0285424Y0252400D03*
X0287392Y0252400D03*
X0289361Y0252400D03*
X0291329Y0252400D03*
X0293298Y0252400D03*
X0295266Y0252400D03*
X0297235Y0252400D03*
X0299203Y0252400D03*
X0301172Y0252400D03*
X0303140Y0252400D03*
X0305109Y0252400D03*
X0305109Y0213967D03*
X0303140Y0213967D03*
X0301172Y0213967D03*
X0299203Y0213967D03*
X0297235Y0213967D03*
X0295266Y0213967D03*
X0293298Y0213967D03*
X0291329Y0213967D03*
X0289361Y0213967D03*
X0287392Y0213967D03*
X0285424Y0213967D03*
X0283455Y0213967D03*
X0281487Y0213967D03*
X0279518Y0213967D03*
X0277550Y0213967D03*
X0275581Y0213967D03*
D28*
X0285062Y0274656D03*
X0285062Y0283711D03*
X0299629Y0283711D03*
X0299629Y0274656D03*
D29*
X0196595Y0203183D03*
X0196595Y0177183D03*
D30*
X0295221Y0106433D03*
X0307032Y0106433D03*
X0521845Y0321059D03*
X0521845Y0332870D03*
X0307219Y0547683D03*
X0295408Y0547683D03*
X0086845Y0333057D03*
X0086845Y0321246D03*
D31*
X0151845Y0228933D02*
X0151845Y0174033D01*
X0188845Y0174033D01*
X0188845Y0208183D01*
X0210095Y0208183D01*
X0210095Y0221183D01*
X0221773Y0221183D01*
X0229523Y0228933D01*
X0151845Y0228933D01*
X0151845Y0228876D02*
X0229466Y0228876D01*
X0228867Y0228277D02*
X0151845Y0228277D01*
X0151845Y0227679D02*
X0228269Y0227679D01*
X0227670Y0227080D02*
X0151845Y0227080D01*
X0151845Y0226482D02*
X0227072Y0226482D01*
X0226473Y0225883D02*
X0151845Y0225883D01*
X0151845Y0225285D02*
X0225875Y0225285D01*
X0225276Y0224686D02*
X0151845Y0224686D01*
X0151845Y0224088D02*
X0224678Y0224088D01*
X0224079Y0223489D02*
X0151845Y0223489D01*
X0151845Y0222891D02*
X0223481Y0222891D01*
X0222882Y0222292D02*
X0151845Y0222292D01*
X0151845Y0221694D02*
X0222284Y0221694D01*
X0219345Y0217058D02*
X0218904Y0216833D01*
X0219045Y0216933D01*
X0219345Y0217058D02*
X0236220Y0233933D01*
X0268095Y0233933D01*
X0271129Y0234167D01*
X0270945Y0234033D01*
X0267945Y0234033D01*
X0267470Y0232058D02*
X0267645Y0231933D01*
X0270945Y0231933D01*
X0271129Y0232199D01*
X0271129Y0230230D02*
X0271545Y0230133D01*
X0274245Y0230133D01*
X0274695Y0230583D01*
X0283245Y0222033D01*
X0283245Y0217941D01*
X0281853Y0217941D01*
X0281595Y0217683D01*
X0281595Y0214075D01*
X0281487Y0213967D01*
X0280970Y0213449D01*
X0280970Y0210519D01*
X0280442Y0209992D01*
X0276380Y0209992D01*
X0272322Y0203683D01*
X0279369Y0203683D02*
X0283677Y0209242D01*
X0283661Y0209242D01*
X0283455Y0211036D01*
X0283455Y0213967D01*
X0285424Y0213967D01*
X0287145Y0213933D02*
X0287145Y0207933D01*
X0291045Y0207333D02*
X0286308Y0202596D01*
X0286220Y0202683D01*
X0291045Y0207333D02*
X0291045Y0213933D01*
X0291329Y0213967D01*
X0289361Y0213967D02*
X0289361Y0217417D01*
X0288845Y0217933D01*
X0288945Y0218133D01*
X0294045Y0223983D01*
X0296445Y0223983D01*
X0301245Y0218433D01*
X0309345Y0218433D01*
X0309562Y0218419D01*
X0309645Y0218433D01*
X0312645Y0218433D01*
X0313395Y0219183D01*
X0313545Y0219033D01*
X0375945Y0219033D01*
X0408345Y0186633D01*
X0411645Y0186633D01*
X0411845Y0186433D01*
X0412095Y0175683D01*
X0451845Y0175933D01*
X0452345Y0237433D01*
X0441845Y0237683D01*
X0441845Y0247683D02*
X0441645Y0247833D01*
X0437145Y0252333D01*
X0429945Y0252333D01*
X0405945Y0228333D01*
X0309645Y0228333D01*
X0309562Y0228262D01*
X0309645Y0226533D02*
X0309562Y0226293D01*
X0309645Y0226533D02*
X0410745Y0226533D01*
X0431745Y0247533D01*
X0431845Y0247683D01*
X0431745Y0257433D02*
X0431845Y0257683D01*
X0431745Y0257433D02*
X0404745Y0230433D01*
X0309645Y0230433D01*
X0309562Y0230230D01*
X0309345Y0234033D02*
X0309562Y0234167D01*
X0309345Y0234033D02*
X0306345Y0234033D01*
X0301845Y0229533D01*
X0309562Y0222356D02*
X0309645Y0222333D01*
X0312645Y0222333D01*
X0313545Y0221433D01*
X0313545Y0219333D01*
X0313395Y0219183D01*
X0309562Y0220388D02*
X0309345Y0220533D01*
X0306045Y0220533D01*
X0286995Y0239583D01*
X0279345Y0231933D01*
X0275145Y0231033D02*
X0275145Y0236733D01*
X0274995Y0236883D01*
X0281445Y0243333D01*
X0281445Y0246333D01*
X0285495Y0243083D01*
X0286995Y0239583D02*
X0290595Y0243183D01*
X0285645Y0248133D01*
X0285645Y0252333D01*
X0285424Y0252400D01*
X0285345Y0252633D01*
X0285345Y0265233D01*
X0277845Y0272733D01*
X0277845Y0315683D01*
X0289334Y0315683D01*
X0293592Y0319940D01*
X0293577Y0323894D01*
X0293577Y0325587D02*
X0282528Y0325856D01*
X0281904Y0325232D01*
X0279345Y0325232D01*
X0279345Y0320423D01*
X0279345Y0320133D01*
X0270645Y0320133D01*
X0267645Y0317133D01*
X0267645Y0314133D01*
X0271845Y0309933D01*
X0271345Y0315683D02*
X0277845Y0315683D01*
X0279345Y0327943D02*
X0279105Y0328183D01*
X0271345Y0328183D01*
X0279345Y0327943D02*
X0293577Y0327280D01*
X0293577Y0328972D02*
X0282962Y0329316D01*
X0282962Y0329596D01*
X0281904Y0330654D01*
X0279345Y0330654D01*
X0279345Y0333923D01*
X0279345Y0333933D01*
X0218095Y0333933D01*
X0218095Y0293308D01*
X0218095Y0333933D02*
X0170145Y0333933D01*
X0170145Y0368133D01*
X0166845Y0371433D01*
X0166845Y0411433D02*
X0166845Y0411633D01*
X0215745Y0411633D01*
X0292845Y0488733D01*
X0292845Y0496233D01*
X0293095Y0496423D01*
X0354095Y0448183D02*
X0354045Y0447933D01*
X0301845Y0395733D01*
X0301845Y0388933D01*
X0283545Y0359433D02*
X0283545Y0354957D01*
X0287345Y0354957D01*
X0295595Y0354957D01*
X0303845Y0354957D01*
X0303947Y0350935D01*
X0306440Y0350935D01*
X0307540Y0349835D01*
X0307545Y0350133D01*
X0374745Y0417333D01*
X0378045Y0417333D01*
X0378195Y0417483D01*
X0379245Y0416433D01*
X0392745Y0416433D01*
X0393945Y0417633D01*
X0393945Y0421533D01*
X0390345Y0425133D01*
X0390345Y0426633D01*
X0390095Y0426707D01*
X0387645Y0429933D02*
X0392745Y0429933D01*
X0421095Y0401583D01*
X0420945Y0401433D01*
X0420945Y0390633D01*
X0304545Y0274233D01*
X0304545Y0270633D01*
X0295545Y0261633D01*
X0295545Y0252633D01*
X0295266Y0252400D01*
X0295245Y0252333D01*
X0295245Y0245133D01*
X0293595Y0243483D01*
X0297045Y0240033D01*
X0309345Y0240033D01*
X0309562Y0240073D01*
X0309562Y0242041D02*
X0309345Y0242133D01*
X0299445Y0242133D01*
X0298245Y0243333D01*
X0293595Y0243483D02*
X0293145Y0243033D01*
X0290745Y0243033D01*
X0290595Y0243183D01*
X0291945Y0246333D02*
X0291945Y0248133D01*
X0288645Y0248133D01*
X0287445Y0249333D01*
X0287445Y0252333D01*
X0287392Y0252400D01*
X0287145Y0252633D01*
X0287145Y0265233D01*
X0280245Y0272133D01*
X0280245Y0291333D01*
X0280845Y0291933D01*
X0281072Y0292183D01*
X0281072Y0295659D01*
X0281095Y0295683D01*
X0285998Y0295683D01*
X0286443Y0296128D01*
X0296040Y0296128D01*
X0296845Y0296933D01*
X0296845Y0307457D01*
X0297072Y0307683D01*
X0298498Y0307683D01*
X0302193Y0303988D01*
X0306045Y0303988D01*
X0307145Y0305088D01*
X0307145Y0309304D01*
X0309095Y0312183D01*
X0318845Y0312183D01*
X0318845Y0328927D01*
X0318854Y0328935D01*
X0310113Y0328972D01*
X0310113Y0327280D01*
X0310113Y0325587D01*
X0310113Y0323894D01*
X0307770Y0319150D02*
X0307845Y0313183D01*
X0304119Y0307683D01*
X0299345Y0312433D01*
X0299306Y0319150D01*
X0297613Y0319150D01*
X0295920Y0319150D01*
X0293595Y0318933D01*
X0293592Y0319940D01*
X0295920Y0333717D02*
X0295850Y0340983D01*
X0295098Y0340983D01*
X0294395Y0341686D01*
X0294395Y0342433D01*
X0291845Y0342433D01*
X0291900Y0346683D01*
X0291900Y0349835D01*
X0293000Y0350935D01*
X0298190Y0350935D01*
X0299290Y0349835D01*
X0299290Y0343238D01*
X0299595Y0342933D01*
X0299345Y0340433D01*
X0299306Y0333717D01*
X0300999Y0333717D01*
X0302692Y0333717D02*
X0302595Y0344933D01*
X0303845Y0347909D01*
X0304102Y0344824D02*
X0304385Y0333717D01*
X0306077Y0333717D01*
X0307770Y0333717D01*
X0307845Y0341183D01*
X0319345Y0341183D01*
X0319345Y0328933D01*
X0318854Y0328935D01*
X0306440Y0344883D02*
X0304102Y0344824D01*
X0306440Y0344883D02*
X0307540Y0345984D01*
X0307540Y0349835D01*
X0295595Y0347909D02*
X0295595Y0342183D01*
X0297595Y0342183D01*
X0297613Y0333717D01*
X0291845Y0342433D02*
X0284095Y0342433D01*
X0279345Y0341443D01*
X0272105Y0341443D01*
X0272095Y0341433D01*
X0279345Y0341443D02*
X0279095Y0347909D01*
X0287345Y0347909D01*
X0283545Y0354957D02*
X0279095Y0354957D01*
X0244845Y0341433D02*
X0242145Y0344133D01*
X0242145Y0350733D01*
X0296845Y0296933D02*
X0298970Y0296808D01*
X0299098Y0294681D01*
X0299098Y0292433D01*
X0303119Y0292433D01*
X0296072Y0292433D02*
X0296072Y0292409D01*
X0291595Y0287933D01*
X0291595Y0283683D01*
X0291595Y0252665D01*
X0291329Y0252400D01*
X0293145Y0252333D02*
X0293145Y0249033D01*
X0292245Y0248133D01*
X0291945Y0248133D01*
X0293145Y0252333D02*
X0293298Y0252400D01*
X0289361Y0252400D02*
X0289345Y0252415D01*
X0289345Y0257683D01*
X0290095Y0258433D01*
X0290095Y0274683D01*
X0285089Y0274683D01*
X0285062Y0274656D01*
X0290095Y0274683D02*
X0290095Y0287933D01*
X0288119Y0289909D01*
X0288119Y0292183D01*
X0291595Y0283683D02*
X0299601Y0283683D01*
X0299629Y0283711D01*
X0303645Y0265233D02*
X0300945Y0262533D01*
X0300945Y0252633D01*
X0301172Y0252400D01*
X0303140Y0252400D02*
X0303345Y0252633D01*
X0303345Y0255633D01*
X0305145Y0257433D01*
X0304245Y0258333D01*
X0305145Y0257433D02*
X0375345Y0327633D01*
X0400845Y0327633D02*
X0472845Y0327633D01*
X0473085Y0327683D01*
X0448845Y0342333D02*
X0448845Y0401133D01*
X0448855Y0401183D01*
X0448845Y0401433D01*
X0448845Y0408933D01*
X0448869Y0409183D01*
X0445545Y0413433D02*
X0450345Y0418233D01*
X0450345Y0435633D01*
X0445845Y0440133D01*
X0445595Y0440183D01*
X0445595Y0430183D02*
X0445545Y0429933D01*
X0438645Y0423033D01*
X0438645Y0406533D01*
X0439845Y0405333D01*
X0442545Y0405333D01*
X0444345Y0403533D01*
X0444345Y0377733D01*
X0312645Y0246033D01*
X0309645Y0246033D01*
X0309562Y0245978D01*
X0309645Y0244233D02*
X0309562Y0244010D01*
X0309645Y0244233D02*
X0312945Y0244233D01*
X0445545Y0376833D01*
X0445545Y0413433D01*
X0441945Y0416433D02*
X0445545Y0420033D01*
X0445595Y0420183D01*
X0441945Y0416433D02*
X0441945Y0409233D01*
X0441822Y0409183D01*
X0441045Y0401433D02*
X0441335Y0401183D01*
X0441045Y0401433D02*
X0421245Y0401433D01*
X0421095Y0401583D01*
X0390095Y0419659D02*
X0390045Y0419733D01*
X0386295Y0423483D01*
X0382545Y0419733D01*
X0381945Y0419733D01*
X0381845Y0419659D01*
X0378195Y0417483D02*
X0378045Y0417633D01*
X0378045Y0423033D01*
X0381645Y0426633D01*
X0381845Y0426707D01*
X0381645Y0426933D01*
X0381645Y0456033D01*
X0381495Y0456183D01*
X0395445Y0470133D01*
X0445545Y0470133D01*
X0445595Y0470183D01*
X0387645Y0429933D02*
X0386145Y0428433D01*
X0386145Y0423633D01*
X0386295Y0423483D01*
X0381495Y0456183D02*
X0364845Y0472833D01*
X0364845Y0473433D01*
X0364605Y0473433D01*
X0357085Y0473433D02*
X0357045Y0473433D01*
X0356145Y0472533D01*
X0356145Y0466233D01*
X0356093Y0466183D01*
X0227445Y0465333D02*
X0227347Y0465183D01*
X0227445Y0465333D02*
X0227445Y0472833D01*
X0227355Y0472933D01*
X0219835Y0472933D02*
X0219645Y0472833D01*
X0178245Y0472833D01*
X0166845Y0461433D01*
X0134445Y0327933D02*
X0134445Y0321633D01*
X0134355Y0321433D01*
X0216220Y0221433D02*
X0216220Y0217683D01*
X0216345Y0216833D01*
X0216345Y0217833D01*
X0210095Y0218103D02*
X0151845Y0218103D01*
X0151845Y0218701D02*
X0210095Y0218701D01*
X0210095Y0219300D02*
X0151845Y0219300D01*
X0151845Y0219898D02*
X0210095Y0219898D01*
X0210095Y0220497D02*
X0151845Y0220497D01*
X0151845Y0221095D02*
X0210095Y0221095D01*
X0210095Y0217504D02*
X0151845Y0217504D01*
X0151845Y0216905D02*
X0210095Y0216905D01*
X0210095Y0216307D02*
X0151845Y0216307D01*
X0151845Y0215708D02*
X0210095Y0215708D01*
X0210095Y0215110D02*
X0151845Y0215110D01*
X0151845Y0214511D02*
X0210095Y0214511D01*
X0210095Y0213913D02*
X0151845Y0213913D01*
X0151845Y0213314D02*
X0210095Y0213314D01*
X0210095Y0212716D02*
X0151845Y0212716D01*
X0151845Y0212117D02*
X0210095Y0212117D01*
X0210095Y0211519D02*
X0151845Y0211519D01*
X0151845Y0210920D02*
X0210095Y0210920D01*
X0210095Y0210322D02*
X0151845Y0210322D01*
X0151845Y0209723D02*
X0210095Y0209723D01*
X0210095Y0209125D02*
X0151845Y0209125D01*
X0151845Y0208526D02*
X0210095Y0208526D01*
X0216345Y0207333D02*
X0216345Y0210533D01*
X0218904Y0210533D02*
X0219345Y0210808D01*
X0240595Y0232058D01*
X0267470Y0232058D01*
X0271129Y0230230D02*
X0271245Y0230133D01*
X0271245Y0228333D01*
X0271129Y0228262D01*
X0271129Y0226293D02*
X0271245Y0226233D01*
X0274245Y0226233D01*
X0279945Y0220533D01*
X0283245Y0217941D02*
X0288316Y0217941D01*
X0288325Y0217933D01*
X0288845Y0217933D01*
X0287392Y0213967D02*
X0287145Y0213933D01*
X0293298Y0213967D02*
X0293445Y0214233D01*
X0293445Y0218133D01*
X0295245Y0220433D01*
X0295266Y0213967D02*
X0295266Y0176512D01*
X0295345Y0176433D01*
X0373095Y0176433D01*
X0373095Y0185183D01*
X0371845Y0186433D01*
X0376445Y0185083D02*
X0376595Y0184933D01*
X0381845Y0186433D01*
X0376445Y0185083D02*
X0376445Y0188338D01*
X0373751Y0191033D01*
X0369940Y0191033D01*
X0367245Y0188338D01*
X0367245Y0178033D01*
X0366845Y0177633D01*
X0296466Y0177633D01*
X0296466Y0181980D01*
X0297235Y0213967D01*
X0275145Y0231033D02*
X0274695Y0230583D01*
X0274545Y0236433D02*
X0271245Y0236433D01*
X0271129Y0236136D01*
X0274545Y0236433D02*
X0274995Y0236883D01*
X0281445Y0246333D02*
X0281445Y0252333D01*
X0281487Y0252400D01*
X0280970Y0252917D01*
X0280970Y0255847D01*
X0280442Y0256374D01*
X0277880Y0256374D01*
X0273072Y0262683D01*
X0280119Y0262683D02*
X0283455Y0257846D01*
X0283455Y0252400D01*
X0305109Y0252400D02*
X0305145Y0252333D01*
X0306045Y0251433D01*
X0310995Y0253433D01*
X0310545Y0173133D02*
X0310545Y0156633D01*
X0310595Y0156443D01*
X0234845Y0174033D02*
X0204595Y0174033D01*
X0204595Y0193183D01*
X0224345Y0193183D01*
X0224345Y0207683D01*
X0222595Y0207683D01*
X0222595Y0212361D01*
X0234417Y0224183D01*
X0234845Y0224183D01*
X0234845Y0174033D01*
X0234845Y0174411D02*
X0204595Y0174411D01*
X0204595Y0175010D02*
X0234845Y0175010D01*
X0234845Y0175608D02*
X0204595Y0175608D01*
X0204595Y0176207D02*
X0234845Y0176207D01*
X0234845Y0176805D02*
X0204595Y0176805D01*
X0204595Y0177404D02*
X0234845Y0177404D01*
X0234845Y0178002D02*
X0204595Y0178002D01*
X0204595Y0178601D02*
X0234845Y0178601D01*
X0234845Y0179199D02*
X0204595Y0179199D01*
X0204595Y0179798D02*
X0234845Y0179798D01*
X0234845Y0180396D02*
X0204595Y0180396D01*
X0204595Y0180995D02*
X0234845Y0180995D01*
X0234845Y0181593D02*
X0204595Y0181593D01*
X0204595Y0182192D02*
X0234845Y0182192D01*
X0234845Y0182790D02*
X0204595Y0182790D01*
X0204595Y0183389D02*
X0234845Y0183389D01*
X0234845Y0183987D02*
X0204595Y0183987D01*
X0204595Y0184586D02*
X0234845Y0184586D01*
X0234845Y0185184D02*
X0204595Y0185184D01*
X0204595Y0185783D02*
X0234845Y0185783D01*
X0234845Y0186381D02*
X0204595Y0186381D01*
X0204595Y0186980D02*
X0234845Y0186980D01*
X0234845Y0187578D02*
X0204595Y0187578D01*
X0204595Y0188177D02*
X0234845Y0188177D01*
X0234845Y0188775D02*
X0204595Y0188775D01*
X0204595Y0189374D02*
X0234845Y0189374D01*
X0234845Y0189972D02*
X0204595Y0189972D01*
X0204595Y0190571D02*
X0234845Y0190571D01*
X0234845Y0191170D02*
X0204595Y0191170D01*
X0204595Y0191768D02*
X0234845Y0191768D01*
X0234845Y0192367D02*
X0204595Y0192367D01*
X0204595Y0192965D02*
X0234845Y0192965D01*
X0234845Y0193564D02*
X0224345Y0193564D01*
X0224345Y0194162D02*
X0234845Y0194162D01*
X0234845Y0194761D02*
X0224345Y0194761D01*
X0224345Y0195359D02*
X0234845Y0195359D01*
X0234845Y0195958D02*
X0224345Y0195958D01*
X0224345Y0196556D02*
X0234845Y0196556D01*
X0234845Y0197155D02*
X0224345Y0197155D01*
X0224345Y0197753D02*
X0234845Y0197753D01*
X0234845Y0198352D02*
X0224345Y0198352D01*
X0224345Y0198950D02*
X0234845Y0198950D01*
X0234845Y0199549D02*
X0224345Y0199549D01*
X0224345Y0200147D02*
X0234845Y0200147D01*
X0234845Y0200746D02*
X0224345Y0200746D01*
X0224345Y0201344D02*
X0234845Y0201344D01*
X0234845Y0201943D02*
X0224345Y0201943D01*
X0224345Y0202541D02*
X0234845Y0202541D01*
X0234845Y0203140D02*
X0224345Y0203140D01*
X0224345Y0203738D02*
X0234845Y0203738D01*
X0234845Y0204337D02*
X0224345Y0204337D01*
X0224345Y0204935D02*
X0234845Y0204935D01*
X0234845Y0205534D02*
X0224345Y0205534D01*
X0224345Y0206132D02*
X0234845Y0206132D01*
X0234845Y0206731D02*
X0224345Y0206731D01*
X0224345Y0207329D02*
X0234845Y0207329D01*
X0234845Y0207928D02*
X0222595Y0207928D01*
X0222595Y0208526D02*
X0234845Y0208526D01*
X0234845Y0209125D02*
X0222595Y0209125D01*
X0222595Y0209723D02*
X0234845Y0209723D01*
X0234845Y0210322D02*
X0222595Y0210322D01*
X0222595Y0210920D02*
X0234845Y0210920D01*
X0234845Y0211519D02*
X0222595Y0211519D01*
X0222595Y0212117D02*
X0234845Y0212117D01*
X0234845Y0212716D02*
X0222950Y0212716D01*
X0223549Y0213314D02*
X0234845Y0213314D01*
X0234845Y0213913D02*
X0224147Y0213913D01*
X0224746Y0214511D02*
X0234845Y0214511D01*
X0234845Y0215110D02*
X0225344Y0215110D01*
X0225943Y0215708D02*
X0234845Y0215708D01*
X0234845Y0216307D02*
X0226541Y0216307D01*
X0227140Y0216905D02*
X0234845Y0216905D01*
X0234845Y0217504D02*
X0227738Y0217504D01*
X0228337Y0218103D02*
X0234845Y0218103D01*
X0234845Y0218701D02*
X0228935Y0218701D01*
X0229534Y0219300D02*
X0234845Y0219300D01*
X0234845Y0219898D02*
X0230132Y0219898D01*
X0230731Y0220497D02*
X0234845Y0220497D01*
X0234845Y0221095D02*
X0231329Y0221095D01*
X0231928Y0221694D02*
X0234845Y0221694D01*
X0234845Y0222292D02*
X0232526Y0222292D01*
X0233125Y0222891D02*
X0234845Y0222891D01*
X0234845Y0223489D02*
X0233723Y0223489D01*
X0234322Y0224088D02*
X0234845Y0224088D01*
X0219045Y0210633D02*
X0218904Y0210533D01*
X0216345Y0207333D02*
X0219645Y0204033D01*
X0219845Y0203957D01*
X0219945Y0197133D02*
X0219845Y0196909D01*
X0219645Y0196833D01*
X0211845Y0196833D01*
X0211845Y0196909D01*
X0211845Y0193183D01*
X0188845Y0192965D02*
X0151845Y0192965D01*
X0151845Y0192367D02*
X0188845Y0192367D01*
X0188845Y0191768D02*
X0151845Y0191768D01*
X0151845Y0191170D02*
X0188845Y0191170D01*
X0188845Y0190571D02*
X0151845Y0190571D01*
X0151845Y0189972D02*
X0188845Y0189972D01*
X0188845Y0189374D02*
X0151845Y0189374D01*
X0151845Y0188775D02*
X0188845Y0188775D01*
X0188845Y0188177D02*
X0151845Y0188177D01*
X0151845Y0187578D02*
X0188845Y0187578D01*
X0188845Y0186980D02*
X0151845Y0186980D01*
X0151845Y0186381D02*
X0188845Y0186381D01*
X0188845Y0185783D02*
X0151845Y0185783D01*
X0151845Y0185184D02*
X0188845Y0185184D01*
X0188845Y0184586D02*
X0151845Y0184586D01*
X0151845Y0183987D02*
X0188845Y0183987D01*
X0188845Y0183389D02*
X0151845Y0183389D01*
X0151845Y0182790D02*
X0188845Y0182790D01*
X0188845Y0182192D02*
X0151845Y0182192D01*
X0151845Y0181593D02*
X0188845Y0181593D01*
X0188845Y0180995D02*
X0151845Y0180995D01*
X0151845Y0180396D02*
X0188845Y0180396D01*
X0188845Y0179798D02*
X0151845Y0179798D01*
X0151845Y0179199D02*
X0188845Y0179199D01*
X0188845Y0178601D02*
X0151845Y0178601D01*
X0151845Y0178002D02*
X0188845Y0178002D01*
X0188845Y0177404D02*
X0151845Y0177404D01*
X0151845Y0176805D02*
X0188845Y0176805D01*
X0188845Y0176207D02*
X0151845Y0176207D01*
X0151845Y0175608D02*
X0188845Y0175608D01*
X0188845Y0175010D02*
X0151845Y0175010D01*
X0151845Y0174411D02*
X0188845Y0174411D01*
X0188845Y0193564D02*
X0151845Y0193564D01*
X0151845Y0194162D02*
X0188845Y0194162D01*
X0188845Y0194761D02*
X0151845Y0194761D01*
X0151845Y0195359D02*
X0188845Y0195359D01*
X0188845Y0195958D02*
X0151845Y0195958D01*
X0151845Y0196556D02*
X0188845Y0196556D01*
X0188845Y0197155D02*
X0151845Y0197155D01*
X0151845Y0197753D02*
X0188845Y0197753D01*
X0188845Y0198352D02*
X0151845Y0198352D01*
X0151845Y0198950D02*
X0188845Y0198950D01*
X0188845Y0199549D02*
X0151845Y0199549D01*
X0151845Y0200147D02*
X0188845Y0200147D01*
X0188845Y0200746D02*
X0151845Y0200746D01*
X0151845Y0201344D02*
X0188845Y0201344D01*
X0188845Y0201943D02*
X0151845Y0201943D01*
X0151845Y0202541D02*
X0188845Y0202541D01*
X0188845Y0203140D02*
X0151845Y0203140D01*
X0151845Y0203738D02*
X0188845Y0203738D01*
X0188845Y0204337D02*
X0151845Y0204337D01*
X0151845Y0204935D02*
X0188845Y0204935D01*
X0188845Y0205534D02*
X0151845Y0205534D01*
X0151845Y0206132D02*
X0188845Y0206132D01*
X0188845Y0206731D02*
X0151845Y0206731D01*
X0151845Y0207329D02*
X0188845Y0207329D01*
X0188845Y0207928D02*
X0151845Y0207928D01*
D32*
X0218095Y0293308D03*
X0271845Y0309933D03*
X0242145Y0350733D03*
X0283545Y0359433D03*
X0300945Y0380133D03*
X0244545Y0419433D03*
X0289545Y0446433D03*
X0375345Y0327633D03*
X0385245Y0312033D03*
X0400845Y0327633D03*
X0441345Y0360933D03*
X0448845Y0342333D03*
X0310995Y0253433D03*
X0304245Y0258333D03*
X0303645Y0265233D03*
X0291945Y0246333D03*
X0298245Y0243333D03*
X0285495Y0243083D03*
X0279345Y0231933D03*
X0279945Y0220533D03*
X0287145Y0207933D03*
X0286220Y0202683D03*
X0295245Y0220433D03*
X0301845Y0229533D03*
X0319545Y0180933D03*
X0310545Y0173133D03*
X0316945Y0137233D03*
X0153945Y0312633D03*
X0146145Y0312633D03*
X0134445Y0327933D03*
D33*
X0144345Y0331183D03*
X0214345Y0234433D03*
X0218345Y0225183D03*
X0209845Y0225183D03*
X0205345Y0219433D03*
X0206595Y0211933D03*
X0199095Y0212183D03*
X0191845Y0212183D03*
X0183845Y0212183D03*
X0184845Y0204183D03*
X0184845Y0196433D03*
X0185095Y0189433D03*
X0185095Y0182933D03*
X0181345Y0176933D03*
X0173345Y0177183D03*
X0165095Y0176933D03*
X0156845Y0176933D03*
X0156095Y0185433D03*
X0156095Y0193683D03*
X0156095Y0201433D03*
X0156095Y0208933D03*
X0156095Y0216933D03*
X0156095Y0225183D03*
X0164845Y0225183D03*
X0173595Y0225183D03*
X0182845Y0225183D03*
X0191845Y0225183D03*
X0200345Y0225183D03*
X0227345Y0210933D03*
X0231345Y0216183D03*
X0230595Y0203183D03*
X0228345Y0195933D03*
X0223095Y0189183D03*
X0215095Y0189183D03*
X0207845Y0189183D03*
X0207845Y0182433D03*
X0212595Y0176433D03*
X0220095Y0176683D03*
X0227845Y0176683D03*
X0230845Y0183183D03*
X0292845Y0165683D03*
X0271345Y0315683D03*
X0271345Y0328183D03*
X0272095Y0341433D03*
X0244845Y0341433D03*
X0298345Y0481933D03*
X0308095Y0481933D03*
X0461845Y0336183D03*
X0459595Y0317433D03*
D34*
X0218345Y0225183D02*
X0214345Y0229183D01*
X0214345Y0234433D01*
D35*
X0213786Y0210533D02*
X0213645Y0210333D01*
X0213645Y0205833D01*
X0211845Y0204033D01*
X0211845Y0203957D01*
X0211245Y0203433D01*
X0196845Y0203433D01*
X0196595Y0203183D01*
X0287445Y0187833D02*
X0288312Y0187683D01*
X0288345Y0187533D01*
X0288345Y0165683D01*
X0288345Y0165433D01*
X0288345Y0158133D01*
X0289245Y0157233D01*
X0289572Y0156433D01*
X0289545Y0156333D01*
X0289545Y0147933D01*
X0289335Y0147683D01*
X0289245Y0147033D01*
X0289245Y0137133D01*
X0289030Y0137010D01*
X0297160Y0137010D02*
X0297345Y0137133D01*
X0297345Y0147033D01*
X0296855Y0147683D01*
X0297345Y0148833D01*
X0310545Y0148833D01*
X0310595Y0148923D01*
X0311145Y0137433D02*
X0310595Y0136738D01*
X0310845Y0136533D01*
X0310845Y0129333D01*
X0313845Y0126333D01*
X0313845Y0113133D01*
X0307245Y0106533D01*
X0307032Y0106433D01*
X0295245Y0106533D02*
X0295221Y0106433D01*
X0295245Y0106533D02*
X0295245Y0123633D01*
X0310545Y0123633D01*
X0310595Y0123628D01*
X0311145Y0137433D02*
X0316945Y0137233D01*
X0296855Y0147683D02*
X0296745Y0147933D01*
X0296745Y0156333D01*
X0296619Y0156433D01*
X0292845Y0165683D02*
X0288345Y0165683D01*
X0312945Y0187533D02*
X0312879Y0187683D01*
X0312945Y0187533D02*
X0319545Y0180933D01*
X0295245Y0123633D02*
X0293145Y0123633D01*
X0293095Y0123356D01*
X0385245Y0312033D02*
X0441045Y0312033D01*
X0441845Y0311650D01*
X0441945Y0311733D01*
X0459595Y0311733D01*
X0459595Y0317433D01*
X0459595Y0311733D02*
X0469845Y0311733D01*
X0470145Y0312033D01*
X0470595Y0312909D01*
X0470745Y0312633D01*
X0479145Y0312633D01*
X0479345Y0312673D01*
X0480045Y0312633D01*
X0489945Y0312633D01*
X0490018Y0312368D01*
X0489945Y0320433D02*
X0490018Y0320498D01*
X0489945Y0320433D02*
X0480345Y0320433D01*
X0479345Y0320193D01*
X0478545Y0319833D01*
X0470745Y0319833D01*
X0470595Y0319957D01*
X0479345Y0320193D02*
X0479445Y0320433D01*
X0479445Y0326733D01*
X0480345Y0327633D01*
X0480605Y0327683D01*
X0490290Y0330183D02*
X0490545Y0330033D01*
X0490545Y0329433D01*
X0503445Y0316533D01*
X0503672Y0316433D01*
X0504345Y0316833D01*
X0508545Y0321033D01*
X0521745Y0321033D01*
X0521845Y0321059D01*
X0519345Y0330333D02*
X0521745Y0332733D01*
X0521845Y0332870D01*
X0519345Y0330333D02*
X0503445Y0330333D01*
X0503400Y0330183D01*
X0502845Y0330933D01*
X0497595Y0336183D01*
X0461845Y0336183D01*
X0461812Y0336217D01*
X0441845Y0336217D01*
X0441345Y0336933D01*
X0441345Y0360933D01*
X0441845Y0336217D02*
X0441945Y0336033D01*
X0364245Y0448233D02*
X0364095Y0448183D01*
X0364245Y0448233D02*
X0365145Y0449133D01*
X0365145Y0465933D01*
X0365345Y0466183D01*
X0314445Y0466533D02*
X0314379Y0466433D01*
X0314145Y0465633D01*
X0291945Y0443433D01*
X0291945Y0389133D01*
X0291845Y0388933D01*
X0292545Y0388533D01*
X0300945Y0380133D01*
X0244545Y0419433D02*
X0270945Y0445833D01*
X0288945Y0445833D01*
X0289545Y0446433D01*
X0289545Y0465633D01*
X0289812Y0466433D01*
X0289845Y0466533D01*
X0289845Y0483033D01*
X0297345Y0490533D01*
X0298345Y0489533D01*
X0298345Y0481933D01*
X0297345Y0490533D02*
X0297345Y0498333D01*
X0295245Y0500433D01*
X0290445Y0500433D01*
X0288645Y0502233D01*
X0288645Y0524733D01*
X0292545Y0528633D01*
X0293095Y0529238D01*
X0293145Y0529533D01*
X0293145Y0545433D01*
X0295245Y0547533D01*
X0295408Y0547683D01*
X0307219Y0547683D02*
X0307245Y0547533D01*
X0307245Y0531933D01*
X0310245Y0528933D01*
X0310595Y0528260D01*
X0310545Y0528033D01*
X0298845Y0516333D01*
X0293145Y0516333D01*
X0293095Y0516128D01*
X0293145Y0504033D02*
X0293095Y0503943D01*
X0293145Y0504033D02*
X0305745Y0504033D01*
X0306645Y0504933D01*
X0306835Y0505183D01*
X0306645Y0505833D01*
X0306645Y0514533D01*
X0306530Y0514606D01*
X0314445Y0514533D02*
X0314660Y0514606D01*
X0314445Y0514533D02*
X0314445Y0505833D01*
X0314355Y0505183D01*
X0314145Y0504933D01*
X0314145Y0496533D01*
X0314119Y0496433D01*
X0314445Y0495633D01*
X0314445Y0482683D01*
X0313695Y0481933D01*
X0308095Y0481933D01*
X0314445Y0482683D02*
X0314445Y0466533D01*
X0307072Y0496433D02*
X0306945Y0496533D01*
X0306945Y0502833D01*
X0306345Y0503433D01*
X0306835Y0505183D01*
X0218095Y0465183D02*
X0217845Y0465033D01*
X0190245Y0465033D01*
X0166845Y0441633D01*
X0166845Y0441433D01*
X0166545Y0440733D01*
X0162045Y0436233D01*
X0162045Y0367533D01*
X0168345Y0361233D01*
X0168345Y0335433D01*
X0162045Y0329133D01*
X0162045Y0315633D01*
X0161845Y0315400D01*
X0161145Y0315033D01*
X0158745Y0312633D01*
X0153945Y0312633D01*
X0146145Y0312633D02*
X0103845Y0312633D01*
X0103095Y0312378D01*
X0102945Y0312633D01*
X0095445Y0312633D01*
X0087045Y0321033D01*
X0086845Y0321246D01*
X0087045Y0333033D02*
X0086845Y0333057D01*
X0087045Y0333033D02*
X0102945Y0333033D01*
X0102945Y0325533D01*
X0103095Y0325488D01*
X0102945Y0333033D02*
X0102945Y0336033D01*
X0102645Y0336333D01*
X0102518Y0336433D01*
X0116172Y0332368D02*
X0116445Y0332433D01*
X0126345Y0332433D01*
X0126845Y0332909D01*
X0127845Y0332733D01*
X0135345Y0332733D01*
X0135595Y0332673D01*
X0135595Y0340193D02*
X0136245Y0340233D01*
X0150045Y0340233D01*
X0144345Y0334533D01*
X0144345Y0331183D01*
X0150045Y0340233D02*
X0161745Y0340233D01*
X0161845Y0339967D01*
X0159645Y0340833D01*
X0159645Y0441033D01*
X0166845Y0448233D01*
X0166845Y0451433D01*
X0135595Y0340193D02*
X0135345Y0340233D01*
X0126945Y0340233D01*
X0126845Y0339957D01*
X0126045Y0340233D01*
X0116445Y0340233D01*
X0116172Y0340498D01*
X0126845Y0332909D02*
X0126945Y0332733D01*
X0126945Y0321633D01*
X0126835Y0321433D01*
M02*
