G75*
%MOIN*%
%OFA0B0*%
%FSLAX25Y25*%
%IPPOS*%
%LPD*%
%AMOC8*
5,1,8,0,0,1.08239X$1,22.5*
%
%ADD10C,0.06312*%
%ADD11C,0.06737*%
%ADD12C,0.00039*%
%ADD13R,0.08200X0.08200*%
%ADD14OC8,0.08200*%
%ADD15C,0.08200*%
%ADD16R,0.03300X0.05800*%
%ADD17R,0.02965X0.05524*%
%ADD18C,0.05300*%
%ADD19C,0.06162*%
D10*
X0262908Y0283992D03*
X0320782Y0283992D03*
X0320782Y0378874D03*
X0262908Y0378874D03*
D11*
X0291845Y0385965D02*
X0291845Y0391902D01*
X0301845Y0391902D02*
X0301845Y0385965D01*
D12*
X0270839Y0418826D02*
X0270707Y0418745D01*
X0270565Y0418686D01*
X0270414Y0418650D01*
X0270260Y0418638D01*
X0267823Y0418650D01*
X0267673Y0418686D01*
X0267530Y0418745D01*
X0267399Y0418826D01*
X0267281Y0418926D01*
X0267181Y0419044D01*
X0267100Y0419175D01*
X0267041Y0419318D01*
X0267005Y0419468D01*
X0266993Y0419622D01*
X0266993Y0423244D01*
X0267005Y0423398D01*
X0267041Y0423548D01*
X0267100Y0423691D01*
X0267181Y0423822D01*
X0267281Y0423940D01*
X0267399Y0424041D01*
X0267530Y0424121D01*
X0267673Y0424180D01*
X0267823Y0424216D01*
X0267977Y0424228D01*
X0270414Y0424216D01*
X0270565Y0424180D01*
X0270707Y0424121D01*
X0270839Y0424041D01*
X0270957Y0423940D01*
X0267281Y0423940D01*
X0267248Y0423902D02*
X0270989Y0423902D01*
X0271021Y0423864D02*
X0267216Y0423864D01*
X0267184Y0423826D02*
X0271054Y0423826D01*
X0271057Y0423822D02*
X0270957Y0423940D01*
X0270913Y0423978D02*
X0267325Y0423978D01*
X0267369Y0424016D02*
X0270868Y0424016D01*
X0270818Y0424053D02*
X0267420Y0424053D01*
X0267481Y0424091D02*
X0270756Y0424091D01*
X0270688Y0424129D02*
X0267549Y0424129D01*
X0267641Y0424167D02*
X0270597Y0424167D01*
X0270461Y0424205D02*
X0267776Y0424205D01*
X0267160Y0423788D02*
X0271078Y0423788D01*
X0271057Y0423822D02*
X0271138Y0423691D01*
X0271197Y0423548D01*
X0271233Y0423398D01*
X0271245Y0423244D01*
X0271245Y0421433D01*
X0271245Y0419622D01*
X0271233Y0419468D01*
X0271197Y0419318D01*
X0267041Y0419318D01*
X0267032Y0419356D02*
X0271206Y0419356D01*
X0271215Y0419394D02*
X0267023Y0419394D01*
X0267014Y0419432D02*
X0271224Y0419432D01*
X0271233Y0419470D02*
X0267005Y0419470D01*
X0267002Y0419508D02*
X0271236Y0419508D01*
X0271239Y0419546D02*
X0266999Y0419546D01*
X0266996Y0419583D02*
X0271242Y0419583D01*
X0271245Y0419621D02*
X0266993Y0419621D01*
X0266993Y0419659D02*
X0271245Y0419659D01*
X0271245Y0419697D02*
X0266993Y0419697D01*
X0266993Y0419735D02*
X0271245Y0419735D01*
X0271245Y0419773D02*
X0266993Y0419773D01*
X0266993Y0419811D02*
X0271245Y0419811D01*
X0271245Y0419849D02*
X0266993Y0419849D01*
X0266993Y0419886D02*
X0271245Y0419886D01*
X0271245Y0419924D02*
X0266993Y0419924D01*
X0266993Y0419962D02*
X0271245Y0419962D01*
X0271245Y0420000D02*
X0266993Y0420000D01*
X0266993Y0420038D02*
X0271245Y0420038D01*
X0271245Y0420076D02*
X0266993Y0420076D01*
X0266993Y0420114D02*
X0271245Y0420114D01*
X0271245Y0420152D02*
X0266993Y0420152D01*
X0266993Y0420190D02*
X0271245Y0420190D01*
X0271245Y0420227D02*
X0266993Y0420227D01*
X0266993Y0420265D02*
X0271245Y0420265D01*
X0271245Y0420303D02*
X0266993Y0420303D01*
X0266993Y0420341D02*
X0271245Y0420341D01*
X0271245Y0420379D02*
X0266993Y0420379D01*
X0266993Y0420417D02*
X0271245Y0420417D01*
X0271245Y0420455D02*
X0266993Y0420455D01*
X0266993Y0420493D02*
X0271245Y0420493D01*
X0271245Y0420530D02*
X0266993Y0420530D01*
X0266993Y0420568D02*
X0271245Y0420568D01*
X0271245Y0420606D02*
X0266993Y0420606D01*
X0266993Y0420644D02*
X0271245Y0420644D01*
X0271245Y0420682D02*
X0266993Y0420682D01*
X0266993Y0420720D02*
X0271245Y0420720D01*
X0271245Y0420758D02*
X0266993Y0420758D01*
X0266993Y0420796D02*
X0271245Y0420796D01*
X0271245Y0420834D02*
X0266993Y0420834D01*
X0266993Y0420871D02*
X0271245Y0420871D01*
X0271245Y0420909D02*
X0266993Y0420909D01*
X0266993Y0420947D02*
X0271245Y0420947D01*
X0271245Y0420985D02*
X0266993Y0420985D01*
X0266993Y0421023D02*
X0271245Y0421023D01*
X0271245Y0421061D02*
X0266993Y0421061D01*
X0266993Y0421099D02*
X0271245Y0421099D01*
X0271245Y0421137D02*
X0266993Y0421137D01*
X0266993Y0421174D02*
X0271245Y0421174D01*
X0271245Y0421212D02*
X0266993Y0421212D01*
X0266993Y0421250D02*
X0271245Y0421250D01*
X0271245Y0421288D02*
X0266993Y0421288D01*
X0266993Y0421326D02*
X0271245Y0421326D01*
X0271245Y0421364D02*
X0266993Y0421364D01*
X0266993Y0421402D02*
X0271245Y0421402D01*
X0271245Y0421440D02*
X0266993Y0421440D01*
X0266993Y0421477D02*
X0271245Y0421477D01*
X0271245Y0421515D02*
X0266993Y0421515D01*
X0266993Y0421553D02*
X0271245Y0421553D01*
X0271245Y0421591D02*
X0266993Y0421591D01*
X0266993Y0421629D02*
X0271245Y0421629D01*
X0271245Y0421667D02*
X0266993Y0421667D01*
X0266993Y0421705D02*
X0271245Y0421705D01*
X0271245Y0421743D02*
X0266993Y0421743D01*
X0266993Y0421781D02*
X0271245Y0421781D01*
X0271245Y0421818D02*
X0266993Y0421818D01*
X0266993Y0421856D02*
X0271245Y0421856D01*
X0271245Y0421894D02*
X0266993Y0421894D01*
X0266993Y0421932D02*
X0271245Y0421932D01*
X0271245Y0421970D02*
X0266993Y0421970D01*
X0266993Y0422008D02*
X0271245Y0422008D01*
X0271245Y0422046D02*
X0266993Y0422046D01*
X0266993Y0422084D02*
X0271245Y0422084D01*
X0271245Y0422121D02*
X0266993Y0422121D01*
X0266993Y0422159D02*
X0271245Y0422159D01*
X0271245Y0422197D02*
X0266993Y0422197D01*
X0266993Y0422235D02*
X0271245Y0422235D01*
X0271245Y0422273D02*
X0266993Y0422273D01*
X0266993Y0422311D02*
X0271245Y0422311D01*
X0271245Y0422349D02*
X0266993Y0422349D01*
X0266993Y0422387D02*
X0271245Y0422387D01*
X0271245Y0422425D02*
X0266993Y0422425D01*
X0266993Y0422462D02*
X0271245Y0422462D01*
X0271245Y0422500D02*
X0266993Y0422500D01*
X0266993Y0422538D02*
X0271245Y0422538D01*
X0271245Y0422576D02*
X0266993Y0422576D01*
X0266993Y0422614D02*
X0271245Y0422614D01*
X0271245Y0422652D02*
X0266993Y0422652D01*
X0266993Y0422690D02*
X0271245Y0422690D01*
X0271245Y0422728D02*
X0266993Y0422728D01*
X0266993Y0422765D02*
X0271245Y0422765D01*
X0271245Y0422803D02*
X0266993Y0422803D01*
X0266993Y0422841D02*
X0271245Y0422841D01*
X0271245Y0422879D02*
X0266993Y0422879D01*
X0266993Y0422917D02*
X0271245Y0422917D01*
X0271245Y0422955D02*
X0266993Y0422955D01*
X0266993Y0422993D02*
X0271245Y0422993D01*
X0271245Y0423031D02*
X0266993Y0423031D01*
X0266993Y0423069D02*
X0271245Y0423069D01*
X0271245Y0423106D02*
X0266993Y0423106D01*
X0266993Y0423144D02*
X0271245Y0423144D01*
X0271245Y0423182D02*
X0266993Y0423182D01*
X0266993Y0423220D02*
X0271245Y0423220D01*
X0271244Y0423258D02*
X0266994Y0423258D01*
X0266997Y0423296D02*
X0271241Y0423296D01*
X0271238Y0423334D02*
X0267000Y0423334D01*
X0267003Y0423372D02*
X0271235Y0423372D01*
X0271230Y0423409D02*
X0267008Y0423409D01*
X0267017Y0423447D02*
X0271221Y0423447D01*
X0271212Y0423485D02*
X0267026Y0423485D01*
X0267035Y0423523D02*
X0271203Y0423523D01*
X0271192Y0423561D02*
X0267046Y0423561D01*
X0267062Y0423599D02*
X0271176Y0423599D01*
X0271160Y0423637D02*
X0267077Y0423637D01*
X0267093Y0423675D02*
X0271144Y0423675D01*
X0271124Y0423712D02*
X0267113Y0423712D01*
X0267136Y0423750D02*
X0271101Y0423750D01*
X0271197Y0419318D02*
X0271138Y0419175D01*
X0271057Y0419044D01*
X0270957Y0418926D01*
X0270839Y0418826D01*
X0267398Y0418826D01*
X0267354Y0418864D02*
X0270884Y0418864D01*
X0270928Y0418902D02*
X0267310Y0418902D01*
X0267269Y0418939D02*
X0270968Y0418939D01*
X0271000Y0418977D02*
X0267237Y0418977D01*
X0267205Y0419015D02*
X0271033Y0419015D01*
X0271063Y0419053D02*
X0267175Y0419053D01*
X0267152Y0419091D02*
X0271086Y0419091D01*
X0271109Y0419129D02*
X0267128Y0419129D01*
X0267105Y0419167D02*
X0271132Y0419167D01*
X0271150Y0419205D02*
X0267088Y0419205D01*
X0267072Y0419242D02*
X0271166Y0419242D01*
X0271181Y0419280D02*
X0267056Y0419280D01*
X0267460Y0418788D02*
X0270777Y0418788D01*
X0270716Y0418750D02*
X0267522Y0418750D01*
X0267609Y0418712D02*
X0270628Y0418712D01*
X0270516Y0418674D02*
X0267721Y0418674D01*
X0264185Y0419468D02*
X0264198Y0419622D01*
X0264198Y0423244D01*
X0264185Y0423398D01*
X0264149Y0423548D01*
X0264090Y0423691D01*
X0264010Y0423822D01*
X0263909Y0423940D01*
X0263792Y0424041D01*
X0263660Y0424121D01*
X0263518Y0424180D01*
X0263367Y0424216D01*
X0260930Y0424228D01*
X0260776Y0424216D01*
X0260625Y0424180D01*
X0260483Y0424121D01*
X0260351Y0424041D01*
X0260234Y0423940D01*
X0260133Y0423822D01*
X0260053Y0423691D01*
X0259994Y0423548D01*
X0259958Y0423398D01*
X0259946Y0423244D01*
X0259946Y0421433D01*
X0259946Y0419622D01*
X0259958Y0419468D01*
X0259994Y0419318D01*
X0260053Y0419175D01*
X0260133Y0419044D01*
X0260234Y0418926D01*
X0260351Y0418826D01*
X0263792Y0418826D01*
X0263909Y0418926D01*
X0264010Y0419044D01*
X0264090Y0419175D01*
X0264149Y0419318D01*
X0264185Y0419468D01*
X0264185Y0419470D02*
X0259958Y0419470D01*
X0259955Y0419508D02*
X0264188Y0419508D01*
X0264191Y0419546D02*
X0259952Y0419546D01*
X0259949Y0419583D02*
X0264194Y0419583D01*
X0264197Y0419621D02*
X0259946Y0419621D01*
X0259946Y0419659D02*
X0264198Y0419659D01*
X0264198Y0419697D02*
X0259946Y0419697D01*
X0259946Y0419735D02*
X0264198Y0419735D01*
X0264198Y0419773D02*
X0259946Y0419773D01*
X0259946Y0419811D02*
X0264198Y0419811D01*
X0264198Y0419849D02*
X0259946Y0419849D01*
X0259946Y0419886D02*
X0264198Y0419886D01*
X0264198Y0419924D02*
X0259946Y0419924D01*
X0259946Y0419962D02*
X0264198Y0419962D01*
X0264198Y0420000D02*
X0259946Y0420000D01*
X0259946Y0420038D02*
X0264198Y0420038D01*
X0264198Y0420076D02*
X0259946Y0420076D01*
X0259946Y0420114D02*
X0264198Y0420114D01*
X0264198Y0420152D02*
X0259946Y0420152D01*
X0259946Y0420190D02*
X0264198Y0420190D01*
X0264198Y0420227D02*
X0259946Y0420227D01*
X0259946Y0420265D02*
X0264198Y0420265D01*
X0264198Y0420303D02*
X0259946Y0420303D01*
X0259946Y0420341D02*
X0264198Y0420341D01*
X0264198Y0420379D02*
X0259946Y0420379D01*
X0259946Y0420417D02*
X0264198Y0420417D01*
X0264198Y0420455D02*
X0259946Y0420455D01*
X0259946Y0420493D02*
X0264198Y0420493D01*
X0264198Y0420530D02*
X0259946Y0420530D01*
X0259946Y0420568D02*
X0264198Y0420568D01*
X0264198Y0420606D02*
X0259946Y0420606D01*
X0259946Y0420644D02*
X0264198Y0420644D01*
X0264198Y0420682D02*
X0259946Y0420682D01*
X0259946Y0420720D02*
X0264198Y0420720D01*
X0264198Y0420758D02*
X0259946Y0420758D01*
X0259946Y0420796D02*
X0264198Y0420796D01*
X0264198Y0420834D02*
X0259946Y0420834D01*
X0259946Y0420871D02*
X0264198Y0420871D01*
X0264198Y0420909D02*
X0259946Y0420909D01*
X0259946Y0420947D02*
X0264198Y0420947D01*
X0264198Y0420985D02*
X0259946Y0420985D01*
X0259946Y0421023D02*
X0264198Y0421023D01*
X0264198Y0421061D02*
X0259946Y0421061D01*
X0259946Y0421099D02*
X0264198Y0421099D01*
X0264198Y0421137D02*
X0259946Y0421137D01*
X0259946Y0421174D02*
X0264198Y0421174D01*
X0264198Y0421212D02*
X0259946Y0421212D01*
X0259946Y0421250D02*
X0264198Y0421250D01*
X0264198Y0421288D02*
X0259946Y0421288D01*
X0259946Y0421326D02*
X0264198Y0421326D01*
X0264198Y0421364D02*
X0259946Y0421364D01*
X0259946Y0421402D02*
X0264198Y0421402D01*
X0264198Y0421440D02*
X0259946Y0421440D01*
X0259946Y0421477D02*
X0264198Y0421477D01*
X0264198Y0421515D02*
X0259946Y0421515D01*
X0259946Y0421553D02*
X0264198Y0421553D01*
X0264198Y0421591D02*
X0259946Y0421591D01*
X0259946Y0421629D02*
X0264198Y0421629D01*
X0264198Y0421667D02*
X0259946Y0421667D01*
X0259946Y0421705D02*
X0264198Y0421705D01*
X0264198Y0421743D02*
X0259946Y0421743D01*
X0259946Y0421781D02*
X0264198Y0421781D01*
X0264198Y0421818D02*
X0259946Y0421818D01*
X0259946Y0421856D02*
X0264198Y0421856D01*
X0264198Y0421894D02*
X0259946Y0421894D01*
X0259946Y0421932D02*
X0264198Y0421932D01*
X0264198Y0421970D02*
X0259946Y0421970D01*
X0259946Y0422008D02*
X0264198Y0422008D01*
X0264198Y0422046D02*
X0259946Y0422046D01*
X0259946Y0422084D02*
X0264198Y0422084D01*
X0264198Y0422121D02*
X0259946Y0422121D01*
X0259946Y0422159D02*
X0264198Y0422159D01*
X0264198Y0422197D02*
X0259946Y0422197D01*
X0259946Y0422235D02*
X0264198Y0422235D01*
X0264198Y0422273D02*
X0259946Y0422273D01*
X0259946Y0422311D02*
X0264198Y0422311D01*
X0264198Y0422349D02*
X0259946Y0422349D01*
X0259946Y0422387D02*
X0264198Y0422387D01*
X0264198Y0422425D02*
X0259946Y0422425D01*
X0259946Y0422462D02*
X0264198Y0422462D01*
X0264198Y0422500D02*
X0259946Y0422500D01*
X0259946Y0422538D02*
X0264198Y0422538D01*
X0264198Y0422576D02*
X0259946Y0422576D01*
X0259946Y0422614D02*
X0264198Y0422614D01*
X0264198Y0422652D02*
X0259946Y0422652D01*
X0259946Y0422690D02*
X0264198Y0422690D01*
X0264198Y0422728D02*
X0259946Y0422728D01*
X0259946Y0422765D02*
X0264198Y0422765D01*
X0264198Y0422803D02*
X0259946Y0422803D01*
X0259946Y0422841D02*
X0264198Y0422841D01*
X0264198Y0422879D02*
X0259946Y0422879D01*
X0259946Y0422917D02*
X0264198Y0422917D01*
X0264198Y0422955D02*
X0259946Y0422955D01*
X0259946Y0422993D02*
X0264198Y0422993D01*
X0264198Y0423031D02*
X0259946Y0423031D01*
X0259946Y0423069D02*
X0264198Y0423069D01*
X0264198Y0423106D02*
X0259946Y0423106D01*
X0259946Y0423144D02*
X0264198Y0423144D01*
X0264198Y0423182D02*
X0259946Y0423182D01*
X0259946Y0423220D02*
X0264198Y0423220D01*
X0264196Y0423258D02*
X0259947Y0423258D01*
X0259950Y0423296D02*
X0264193Y0423296D01*
X0264190Y0423334D02*
X0259953Y0423334D01*
X0259956Y0423372D02*
X0264187Y0423372D01*
X0264183Y0423409D02*
X0259960Y0423409D01*
X0259969Y0423447D02*
X0264174Y0423447D01*
X0264165Y0423485D02*
X0259979Y0423485D01*
X0259988Y0423523D02*
X0264156Y0423523D01*
X0264144Y0423561D02*
X0259999Y0423561D01*
X0260014Y0423599D02*
X0264129Y0423599D01*
X0264113Y0423637D02*
X0260030Y0423637D01*
X0260046Y0423675D02*
X0264097Y0423675D01*
X0264077Y0423712D02*
X0260066Y0423712D01*
X0260089Y0423750D02*
X0264054Y0423750D01*
X0264031Y0423788D02*
X0260112Y0423788D01*
X0260136Y0423826D02*
X0264007Y0423826D01*
X0263974Y0423864D02*
X0260169Y0423864D01*
X0260201Y0423902D02*
X0263942Y0423902D01*
X0263910Y0423940D02*
X0260233Y0423940D01*
X0260278Y0423978D02*
X0263865Y0423978D01*
X0263821Y0424016D02*
X0260322Y0424016D01*
X0260372Y0424053D02*
X0263771Y0424053D01*
X0263709Y0424091D02*
X0260434Y0424091D01*
X0260502Y0424129D02*
X0263641Y0424129D01*
X0263550Y0424167D02*
X0260594Y0424167D01*
X0260729Y0424205D02*
X0263414Y0424205D01*
X0264177Y0419432D02*
X0259966Y0419432D01*
X0259975Y0419394D02*
X0264168Y0419394D01*
X0264159Y0419356D02*
X0259984Y0419356D01*
X0259993Y0419318D02*
X0264150Y0419318D01*
X0264134Y0419280D02*
X0260009Y0419280D01*
X0260025Y0419242D02*
X0264118Y0419242D01*
X0264103Y0419205D02*
X0260040Y0419205D01*
X0260058Y0419167D02*
X0264085Y0419167D01*
X0264062Y0419129D02*
X0260081Y0419129D01*
X0260104Y0419091D02*
X0264039Y0419091D01*
X0264015Y0419053D02*
X0260128Y0419053D01*
X0260158Y0419015D02*
X0263985Y0419015D01*
X0263953Y0418977D02*
X0260190Y0418977D01*
X0260222Y0418939D02*
X0263921Y0418939D01*
X0263881Y0418902D02*
X0260262Y0418902D01*
X0260307Y0418864D02*
X0263836Y0418864D01*
X0263792Y0418826D02*
X0263660Y0418745D01*
X0263518Y0418686D01*
X0263367Y0418650D01*
X0263213Y0418638D01*
X0260776Y0418650D01*
X0260625Y0418686D01*
X0260483Y0418745D01*
X0260351Y0418826D01*
X0260413Y0418788D02*
X0263730Y0418788D01*
X0263668Y0418750D02*
X0260475Y0418750D01*
X0260562Y0418712D02*
X0263581Y0418712D01*
X0263469Y0418674D02*
X0260674Y0418674D01*
X0261156Y0414583D02*
X0259345Y0414583D01*
X0257534Y0414583D01*
X0257380Y0414570D01*
X0257230Y0414535D01*
X0257087Y0414476D01*
X0256956Y0414395D01*
X0256838Y0414294D01*
X0256738Y0414177D01*
X0256657Y0414045D01*
X0256598Y0413903D01*
X0256562Y0413752D01*
X0256550Y0411315D01*
X0256562Y0411161D01*
X0256598Y0411011D01*
X0256657Y0410868D01*
X0256738Y0410737D01*
X0256838Y0410619D01*
X0256956Y0410519D01*
X0257087Y0410438D01*
X0257230Y0410379D01*
X0257380Y0410343D01*
X0257534Y0410331D01*
X0261156Y0410331D01*
X0261310Y0410343D01*
X0261460Y0410379D01*
X0261603Y0410438D01*
X0261735Y0410519D01*
X0261852Y0410619D01*
X0261953Y0410737D01*
X0262033Y0410868D01*
X0262092Y0411011D01*
X0262128Y0411161D01*
X0262140Y0413598D01*
X0256561Y0413598D01*
X0256561Y0413560D02*
X0262140Y0413560D01*
X0262140Y0413522D02*
X0256561Y0413522D01*
X0256561Y0413485D02*
X0262140Y0413485D01*
X0262140Y0413447D02*
X0256561Y0413447D01*
X0256560Y0413409D02*
X0262139Y0413409D01*
X0262139Y0413371D02*
X0256560Y0413371D01*
X0256560Y0413333D02*
X0262139Y0413333D01*
X0262139Y0413295D02*
X0256560Y0413295D01*
X0256560Y0413257D02*
X0262139Y0413257D01*
X0262139Y0413219D02*
X0256559Y0413219D01*
X0256559Y0413181D02*
X0262138Y0413181D01*
X0262138Y0413144D02*
X0256559Y0413144D01*
X0256559Y0413106D02*
X0262138Y0413106D01*
X0262138Y0413068D02*
X0256559Y0413068D01*
X0256558Y0413030D02*
X0262138Y0413030D01*
X0262137Y0412992D02*
X0256558Y0412992D01*
X0256558Y0412954D02*
X0262137Y0412954D01*
X0262137Y0412916D02*
X0256558Y0412916D01*
X0256558Y0412878D02*
X0262137Y0412878D01*
X0262137Y0412841D02*
X0256558Y0412841D01*
X0256557Y0412803D02*
X0262136Y0412803D01*
X0262136Y0412765D02*
X0256557Y0412765D01*
X0256557Y0412727D02*
X0262136Y0412727D01*
X0262136Y0412689D02*
X0256557Y0412689D01*
X0256557Y0412651D02*
X0262136Y0412651D01*
X0262135Y0412613D02*
X0256556Y0412613D01*
X0256556Y0412575D02*
X0262135Y0412575D01*
X0262135Y0412537D02*
X0256556Y0412537D01*
X0256556Y0412500D02*
X0262135Y0412500D01*
X0262135Y0412462D02*
X0256556Y0412462D01*
X0256555Y0412424D02*
X0262135Y0412424D01*
X0262134Y0412386D02*
X0256555Y0412386D01*
X0256555Y0412348D02*
X0262134Y0412348D01*
X0262134Y0412310D02*
X0256555Y0412310D01*
X0256555Y0412272D02*
X0262134Y0412272D01*
X0262134Y0412234D02*
X0256554Y0412234D01*
X0256554Y0412197D02*
X0262133Y0412197D01*
X0262133Y0412159D02*
X0256554Y0412159D01*
X0256554Y0412121D02*
X0262133Y0412121D01*
X0262133Y0412083D02*
X0256554Y0412083D01*
X0256554Y0412045D02*
X0262133Y0412045D01*
X0262132Y0412007D02*
X0256553Y0412007D01*
X0256553Y0411969D02*
X0262132Y0411969D01*
X0262132Y0411931D02*
X0256553Y0411931D01*
X0256553Y0411894D02*
X0262132Y0411894D01*
X0262132Y0411856D02*
X0256553Y0411856D01*
X0256552Y0411818D02*
X0262131Y0411818D01*
X0262131Y0411780D02*
X0256552Y0411780D01*
X0256552Y0411742D02*
X0262131Y0411742D01*
X0262131Y0411704D02*
X0256552Y0411704D01*
X0256552Y0411666D02*
X0262131Y0411666D01*
X0262131Y0411628D02*
X0256551Y0411628D01*
X0256551Y0411590D02*
X0262130Y0411590D01*
X0262130Y0411553D02*
X0256551Y0411553D01*
X0256551Y0411515D02*
X0262130Y0411515D01*
X0262130Y0411477D02*
X0256551Y0411477D01*
X0256550Y0411439D02*
X0262130Y0411439D01*
X0262129Y0411401D02*
X0256550Y0411401D01*
X0256550Y0411363D02*
X0262129Y0411363D01*
X0262129Y0411325D02*
X0256550Y0411325D01*
X0256552Y0411287D02*
X0262129Y0411287D01*
X0262129Y0411250D02*
X0256555Y0411250D01*
X0256558Y0411212D02*
X0262128Y0411212D01*
X0262128Y0411174D02*
X0256561Y0411174D01*
X0256568Y0411136D02*
X0262122Y0411136D01*
X0262113Y0411098D02*
X0256577Y0411098D01*
X0256586Y0411060D02*
X0262104Y0411060D01*
X0262095Y0411022D02*
X0256595Y0411022D01*
X0256609Y0410984D02*
X0262081Y0410984D01*
X0262066Y0410946D02*
X0256624Y0410946D01*
X0256640Y0410909D02*
X0262050Y0410909D01*
X0262034Y0410871D02*
X0256656Y0410871D01*
X0256679Y0410833D02*
X0262012Y0410833D01*
X0261988Y0410795D02*
X0256702Y0410795D01*
X0256725Y0410757D02*
X0261965Y0410757D01*
X0261938Y0410719D02*
X0256753Y0410719D01*
X0256785Y0410681D02*
X0261905Y0410681D01*
X0261873Y0410643D02*
X0256817Y0410643D01*
X0256854Y0410606D02*
X0261837Y0410606D01*
X0261792Y0410568D02*
X0256898Y0410568D01*
X0256943Y0410530D02*
X0261748Y0410530D01*
X0261691Y0410492D02*
X0256999Y0410492D01*
X0257061Y0410454D02*
X0261629Y0410454D01*
X0261551Y0410416D02*
X0257140Y0410416D01*
X0257232Y0410378D02*
X0261458Y0410378D01*
X0261278Y0410340D02*
X0257412Y0410340D01*
X0257534Y0407535D02*
X0257380Y0407523D01*
X0257230Y0407487D01*
X0257087Y0407428D01*
X0256956Y0407348D01*
X0261734Y0407348D01*
X0261735Y0407348D02*
X0261603Y0407428D01*
X0261460Y0407487D01*
X0261310Y0407523D01*
X0261156Y0407535D01*
X0257534Y0407535D01*
X0257280Y0407499D02*
X0261411Y0407499D01*
X0261523Y0407461D02*
X0257167Y0407461D01*
X0257079Y0407423D02*
X0261611Y0407423D01*
X0261673Y0407386D02*
X0257018Y0407386D01*
X0256956Y0407348D02*
X0256838Y0407247D01*
X0256738Y0407130D01*
X0256657Y0406998D01*
X0256598Y0406856D01*
X0256562Y0406705D01*
X0256550Y0404268D01*
X0256562Y0404114D01*
X0256598Y0403963D01*
X0256657Y0403821D01*
X0256738Y0403689D01*
X0256838Y0403572D01*
X0256956Y0403471D01*
X0257087Y0403391D01*
X0257230Y0403331D01*
X0257380Y0403296D01*
X0257534Y0403283D01*
X0259345Y0403283D01*
X0261156Y0403283D01*
X0261310Y0403296D01*
X0261460Y0403331D01*
X0261603Y0403391D01*
X0261735Y0403471D01*
X0261852Y0403572D01*
X0261953Y0403689D01*
X0262033Y0403821D01*
X0262092Y0403963D01*
X0262128Y0404114D01*
X0262140Y0406551D01*
X0262128Y0406705D01*
X0262092Y0406856D01*
X0262033Y0406998D01*
X0261953Y0407130D01*
X0261852Y0407247D01*
X0261735Y0407348D01*
X0261779Y0407310D02*
X0256911Y0407310D01*
X0256867Y0407272D02*
X0261823Y0407272D01*
X0261863Y0407234D02*
X0256827Y0407234D01*
X0256795Y0407196D02*
X0261896Y0407196D01*
X0261928Y0407158D02*
X0256762Y0407158D01*
X0256732Y0407120D02*
X0261958Y0407120D01*
X0261981Y0407083D02*
X0256709Y0407083D01*
X0256686Y0407045D02*
X0262005Y0407045D01*
X0262028Y0407007D02*
X0256662Y0407007D01*
X0256645Y0406969D02*
X0262045Y0406969D01*
X0262061Y0406931D02*
X0256629Y0406931D01*
X0256613Y0406893D02*
X0262077Y0406893D01*
X0262092Y0406855D02*
X0256598Y0406855D01*
X0256589Y0406817D02*
X0262101Y0406817D01*
X0262110Y0406780D02*
X0256580Y0406780D01*
X0256571Y0406742D02*
X0262120Y0406742D01*
X0262128Y0406704D02*
X0256562Y0406704D01*
X0256562Y0406666D02*
X0262131Y0406666D01*
X0262134Y0406628D02*
X0256562Y0406628D01*
X0256562Y0406590D02*
X0262137Y0406590D01*
X0262140Y0406552D02*
X0256561Y0406552D01*
X0256561Y0406514D02*
X0262140Y0406514D01*
X0262140Y0406476D02*
X0256561Y0406476D01*
X0256561Y0406439D02*
X0262140Y0406439D01*
X0262140Y0406401D02*
X0256561Y0406401D01*
X0256560Y0406363D02*
X0262139Y0406363D01*
X0262139Y0406325D02*
X0256560Y0406325D01*
X0256560Y0406287D02*
X0262139Y0406287D01*
X0262139Y0406249D02*
X0256560Y0406249D01*
X0256560Y0406211D02*
X0262139Y0406211D01*
X0262139Y0406173D02*
X0256559Y0406173D01*
X0256559Y0406136D02*
X0262138Y0406136D01*
X0262138Y0406098D02*
X0256559Y0406098D01*
X0256559Y0406060D02*
X0262138Y0406060D01*
X0262138Y0406022D02*
X0256559Y0406022D01*
X0256558Y0405984D02*
X0262138Y0405984D01*
X0262137Y0405946D02*
X0256558Y0405946D01*
X0256558Y0405908D02*
X0262137Y0405908D01*
X0262137Y0405870D02*
X0256558Y0405870D01*
X0256558Y0405832D02*
X0262137Y0405832D01*
X0262137Y0405795D02*
X0256558Y0405795D01*
X0256557Y0405757D02*
X0262136Y0405757D01*
X0262136Y0405719D02*
X0256557Y0405719D01*
X0256557Y0405681D02*
X0262136Y0405681D01*
X0262136Y0405643D02*
X0256557Y0405643D01*
X0256557Y0405605D02*
X0262136Y0405605D01*
X0262135Y0405567D02*
X0256556Y0405567D01*
X0256556Y0405529D02*
X0262135Y0405529D01*
X0262135Y0405492D02*
X0256556Y0405492D01*
X0256556Y0405454D02*
X0262135Y0405454D01*
X0262135Y0405416D02*
X0256556Y0405416D01*
X0256555Y0405378D02*
X0262135Y0405378D01*
X0262134Y0405340D02*
X0256555Y0405340D01*
X0256555Y0405302D02*
X0262134Y0405302D01*
X0262134Y0405264D02*
X0256555Y0405264D01*
X0256555Y0405226D02*
X0262134Y0405226D01*
X0262134Y0405188D02*
X0256554Y0405188D01*
X0256554Y0405151D02*
X0262133Y0405151D01*
X0262133Y0405113D02*
X0256554Y0405113D01*
X0256554Y0405075D02*
X0262133Y0405075D01*
X0262133Y0405037D02*
X0256554Y0405037D01*
X0256554Y0404999D02*
X0262133Y0404999D01*
X0262132Y0404961D02*
X0256553Y0404961D01*
X0256553Y0404923D02*
X0262132Y0404923D01*
X0262132Y0404885D02*
X0256553Y0404885D01*
X0256553Y0404848D02*
X0262132Y0404848D01*
X0262132Y0404810D02*
X0256553Y0404810D01*
X0256552Y0404772D02*
X0262131Y0404772D01*
X0262131Y0404734D02*
X0256552Y0404734D01*
X0256552Y0404696D02*
X0262131Y0404696D01*
X0262131Y0404658D02*
X0256552Y0404658D01*
X0256552Y0404620D02*
X0262131Y0404620D01*
X0262131Y0404582D02*
X0256551Y0404582D01*
X0256551Y0404545D02*
X0262130Y0404545D01*
X0262130Y0404507D02*
X0256551Y0404507D01*
X0256551Y0404469D02*
X0262130Y0404469D01*
X0262130Y0404431D02*
X0256551Y0404431D01*
X0256550Y0404393D02*
X0262130Y0404393D01*
X0262129Y0404355D02*
X0256550Y0404355D01*
X0256550Y0404317D02*
X0262129Y0404317D01*
X0262129Y0404279D02*
X0256550Y0404279D01*
X0256552Y0404241D02*
X0262129Y0404241D01*
X0262129Y0404204D02*
X0256555Y0404204D01*
X0256558Y0404166D02*
X0262128Y0404166D01*
X0262128Y0404128D02*
X0256561Y0404128D01*
X0256568Y0404090D02*
X0262123Y0404090D01*
X0262113Y0404052D02*
X0256577Y0404052D01*
X0256586Y0404014D02*
X0262104Y0404014D01*
X0262095Y0403976D02*
X0256595Y0403976D01*
X0256608Y0403938D02*
X0262082Y0403938D01*
X0262066Y0403901D02*
X0256624Y0403901D01*
X0256640Y0403863D02*
X0262051Y0403863D01*
X0262035Y0403825D02*
X0256655Y0403825D01*
X0256678Y0403787D02*
X0262012Y0403787D01*
X0261989Y0403749D02*
X0256701Y0403749D01*
X0256724Y0403711D02*
X0261966Y0403711D01*
X0261939Y0403673D02*
X0256751Y0403673D01*
X0256784Y0403635D02*
X0261907Y0403635D01*
X0261874Y0403597D02*
X0256816Y0403597D01*
X0256852Y0403560D02*
X0261838Y0403560D01*
X0261794Y0403522D02*
X0256897Y0403522D01*
X0256941Y0403484D02*
X0261749Y0403484D01*
X0261693Y0403446D02*
X0256997Y0403446D01*
X0257059Y0403408D02*
X0261632Y0403408D01*
X0261554Y0403370D02*
X0257136Y0403370D01*
X0257228Y0403332D02*
X0261462Y0403332D01*
X0261294Y0403294D02*
X0257396Y0403294D01*
X0256664Y0396716D02*
X0254227Y0396728D01*
X0254073Y0396716D01*
X0253923Y0396680D01*
X0253780Y0396621D01*
X0253649Y0396541D01*
X0253531Y0396440D01*
X0253431Y0396322D01*
X0253350Y0396191D01*
X0253291Y0396048D01*
X0253255Y0395898D01*
X0253243Y0395744D01*
X0253243Y0392122D01*
X0253255Y0391968D01*
X0257482Y0391968D01*
X0257483Y0391968D02*
X0257495Y0392122D01*
X0257495Y0393933D01*
X0257495Y0395744D01*
X0257483Y0395898D01*
X0257447Y0396048D01*
X0257388Y0396191D01*
X0257307Y0396322D01*
X0257207Y0396440D01*
X0257089Y0396541D01*
X0256957Y0396621D01*
X0256815Y0396680D01*
X0256664Y0396716D01*
X0256719Y0396703D02*
X0254018Y0396703D01*
X0253886Y0396665D02*
X0256851Y0396665D01*
X0256943Y0396627D02*
X0253795Y0396627D01*
X0253728Y0396589D02*
X0257009Y0396589D01*
X0257071Y0396552D02*
X0253667Y0396552D01*
X0253617Y0396514D02*
X0257120Y0396514D01*
X0257165Y0396476D02*
X0253573Y0396476D01*
X0253529Y0396438D02*
X0257208Y0396438D01*
X0257241Y0396400D02*
X0253497Y0396400D01*
X0253464Y0396362D02*
X0257273Y0396362D01*
X0257305Y0396324D02*
X0253432Y0396324D01*
X0253408Y0396286D02*
X0257329Y0396286D01*
X0257352Y0396248D02*
X0253385Y0396248D01*
X0253362Y0396211D02*
X0257376Y0396211D01*
X0257395Y0396173D02*
X0253342Y0396173D01*
X0253327Y0396135D02*
X0257411Y0396135D01*
X0257427Y0396097D02*
X0253311Y0396097D01*
X0253295Y0396059D02*
X0257442Y0396059D01*
X0257453Y0396021D02*
X0253284Y0396021D01*
X0253275Y0395983D02*
X0257462Y0395983D01*
X0257471Y0395945D02*
X0253266Y0395945D01*
X0253257Y0395908D02*
X0257480Y0395908D01*
X0257485Y0395870D02*
X0253253Y0395870D01*
X0253250Y0395832D02*
X0257488Y0395832D01*
X0257491Y0395794D02*
X0253247Y0395794D01*
X0253244Y0395756D02*
X0257494Y0395756D01*
X0257495Y0395718D02*
X0253243Y0395718D01*
X0253243Y0395680D02*
X0257495Y0395680D01*
X0257495Y0395642D02*
X0253243Y0395642D01*
X0253243Y0395605D02*
X0257495Y0395605D01*
X0257495Y0395567D02*
X0253243Y0395567D01*
X0253243Y0395529D02*
X0257495Y0395529D01*
X0257495Y0395491D02*
X0253243Y0395491D01*
X0253243Y0395453D02*
X0257495Y0395453D01*
X0257495Y0395415D02*
X0253243Y0395415D01*
X0253243Y0395377D02*
X0257495Y0395377D01*
X0257495Y0395339D02*
X0253243Y0395339D01*
X0253243Y0395301D02*
X0257495Y0395301D01*
X0257495Y0395264D02*
X0253243Y0395264D01*
X0253243Y0395226D02*
X0257495Y0395226D01*
X0257495Y0395188D02*
X0253243Y0395188D01*
X0253243Y0395150D02*
X0257495Y0395150D01*
X0257495Y0395112D02*
X0253243Y0395112D01*
X0253243Y0395074D02*
X0257495Y0395074D01*
X0257495Y0395036D02*
X0253243Y0395036D01*
X0253243Y0394998D02*
X0257495Y0394998D01*
X0257495Y0394961D02*
X0253243Y0394961D01*
X0253243Y0394923D02*
X0257495Y0394923D01*
X0257495Y0394885D02*
X0253243Y0394885D01*
X0253243Y0394847D02*
X0257495Y0394847D01*
X0257495Y0394809D02*
X0253243Y0394809D01*
X0253243Y0394771D02*
X0257495Y0394771D01*
X0257495Y0394733D02*
X0253243Y0394733D01*
X0253243Y0394695D02*
X0257495Y0394695D01*
X0257495Y0394657D02*
X0253243Y0394657D01*
X0253243Y0394620D02*
X0257495Y0394620D01*
X0257495Y0394582D02*
X0253243Y0394582D01*
X0253243Y0394544D02*
X0257495Y0394544D01*
X0257495Y0394506D02*
X0253243Y0394506D01*
X0253243Y0394468D02*
X0257495Y0394468D01*
X0257495Y0394430D02*
X0253243Y0394430D01*
X0253243Y0394392D02*
X0257495Y0394392D01*
X0257495Y0394354D02*
X0253243Y0394354D01*
X0253243Y0394317D02*
X0257495Y0394317D01*
X0257495Y0394279D02*
X0253243Y0394279D01*
X0253243Y0394241D02*
X0257495Y0394241D01*
X0257495Y0394203D02*
X0253243Y0394203D01*
X0253243Y0394165D02*
X0257495Y0394165D01*
X0257495Y0394127D02*
X0253243Y0394127D01*
X0253243Y0394089D02*
X0257495Y0394089D01*
X0257495Y0394051D02*
X0253243Y0394051D01*
X0253243Y0394013D02*
X0257495Y0394013D01*
X0257495Y0393976D02*
X0253243Y0393976D01*
X0253243Y0393938D02*
X0257495Y0393938D01*
X0257495Y0393900D02*
X0253243Y0393900D01*
X0253243Y0393862D02*
X0257495Y0393862D01*
X0257495Y0393824D02*
X0253243Y0393824D01*
X0253243Y0393786D02*
X0257495Y0393786D01*
X0257495Y0393748D02*
X0253243Y0393748D01*
X0253243Y0393710D02*
X0257495Y0393710D01*
X0257495Y0393673D02*
X0253243Y0393673D01*
X0253243Y0393635D02*
X0257495Y0393635D01*
X0257495Y0393597D02*
X0253243Y0393597D01*
X0253243Y0393559D02*
X0257495Y0393559D01*
X0257495Y0393521D02*
X0253243Y0393521D01*
X0253243Y0393483D02*
X0257495Y0393483D01*
X0257495Y0393445D02*
X0253243Y0393445D01*
X0253243Y0393407D02*
X0257495Y0393407D01*
X0257495Y0393370D02*
X0253243Y0393370D01*
X0253243Y0393332D02*
X0257495Y0393332D01*
X0257495Y0393294D02*
X0253243Y0393294D01*
X0253243Y0393256D02*
X0257495Y0393256D01*
X0257495Y0393218D02*
X0253243Y0393218D01*
X0253243Y0393180D02*
X0257495Y0393180D01*
X0257495Y0393142D02*
X0253243Y0393142D01*
X0253243Y0393104D02*
X0257495Y0393104D01*
X0257495Y0393066D02*
X0253243Y0393066D01*
X0253243Y0393029D02*
X0257495Y0393029D01*
X0257495Y0392991D02*
X0253243Y0392991D01*
X0253243Y0392953D02*
X0257495Y0392953D01*
X0257495Y0392915D02*
X0253243Y0392915D01*
X0253243Y0392877D02*
X0257495Y0392877D01*
X0257495Y0392839D02*
X0253243Y0392839D01*
X0253243Y0392801D02*
X0257495Y0392801D01*
X0257495Y0392763D02*
X0253243Y0392763D01*
X0253243Y0392726D02*
X0257495Y0392726D01*
X0257495Y0392688D02*
X0253243Y0392688D01*
X0253243Y0392650D02*
X0257495Y0392650D01*
X0257495Y0392612D02*
X0253243Y0392612D01*
X0253243Y0392574D02*
X0257495Y0392574D01*
X0257495Y0392536D02*
X0253243Y0392536D01*
X0253243Y0392498D02*
X0257495Y0392498D01*
X0257495Y0392460D02*
X0253243Y0392460D01*
X0253243Y0392422D02*
X0257495Y0392422D01*
X0257495Y0392385D02*
X0253243Y0392385D01*
X0253243Y0392347D02*
X0257495Y0392347D01*
X0257495Y0392309D02*
X0253243Y0392309D01*
X0253243Y0392271D02*
X0257495Y0392271D01*
X0257495Y0392233D02*
X0253243Y0392233D01*
X0253243Y0392195D02*
X0257495Y0392195D01*
X0257495Y0392157D02*
X0253243Y0392157D01*
X0253243Y0392119D02*
X0257495Y0392119D01*
X0257492Y0392082D02*
X0253246Y0392082D01*
X0253249Y0392044D02*
X0257489Y0392044D01*
X0257486Y0392006D02*
X0253252Y0392006D01*
X0253255Y0391968D02*
X0253291Y0391818D01*
X0253350Y0391675D01*
X0253431Y0391544D01*
X0253531Y0391426D01*
X0253649Y0391326D01*
X0253780Y0391245D01*
X0253923Y0391186D01*
X0254073Y0391150D01*
X0256510Y0391138D01*
X0256664Y0391150D01*
X0256815Y0391186D01*
X0256957Y0391245D01*
X0257089Y0391326D01*
X0257207Y0391426D01*
X0257307Y0391544D01*
X0257388Y0391675D01*
X0257447Y0391818D01*
X0257483Y0391968D01*
X0257473Y0391930D02*
X0253264Y0391930D01*
X0253273Y0391892D02*
X0257464Y0391892D01*
X0257455Y0391854D02*
X0253282Y0391854D01*
X0253291Y0391816D02*
X0257446Y0391816D01*
X0257430Y0391778D02*
X0253307Y0391778D01*
X0253323Y0391741D02*
X0257415Y0391741D01*
X0257399Y0391703D02*
X0253338Y0391703D01*
X0253356Y0391665D02*
X0257381Y0391665D01*
X0257358Y0391627D02*
X0253379Y0391627D01*
X0253403Y0391589D02*
X0257335Y0391589D01*
X0257312Y0391551D02*
X0253426Y0391551D01*
X0253456Y0391513D02*
X0257281Y0391513D01*
X0257249Y0391475D02*
X0253489Y0391475D01*
X0253521Y0391438D02*
X0257216Y0391438D01*
X0257176Y0391400D02*
X0253562Y0391400D01*
X0253606Y0391362D02*
X0257131Y0391362D01*
X0257086Y0391324D02*
X0253651Y0391324D01*
X0253713Y0391286D02*
X0257024Y0391286D01*
X0256963Y0391248D02*
X0253775Y0391248D01*
X0253864Y0391210D02*
X0256874Y0391210D01*
X0256758Y0391172D02*
X0253979Y0391172D01*
X0250435Y0391968D02*
X0246208Y0391968D01*
X0246244Y0391818D01*
X0246303Y0391675D01*
X0246383Y0391544D01*
X0246484Y0391426D01*
X0246601Y0391326D01*
X0246733Y0391245D01*
X0246875Y0391186D01*
X0247026Y0391150D01*
X0249463Y0391138D01*
X0249617Y0391150D01*
X0249768Y0391186D01*
X0249910Y0391245D01*
X0250042Y0391326D01*
X0250159Y0391426D01*
X0250260Y0391544D01*
X0250340Y0391675D01*
X0250399Y0391818D01*
X0250435Y0391968D01*
X0250448Y0392122D01*
X0250448Y0395744D01*
X0250435Y0395898D01*
X0250399Y0396048D01*
X0250340Y0396191D01*
X0250260Y0396322D01*
X0250159Y0396440D01*
X0250042Y0396541D01*
X0249910Y0396621D01*
X0249768Y0396680D01*
X0249617Y0396716D01*
X0247180Y0396728D01*
X0247026Y0396716D01*
X0246875Y0396680D01*
X0246733Y0396621D01*
X0246601Y0396541D01*
X0246484Y0396440D01*
X0246383Y0396322D01*
X0246303Y0396191D01*
X0246244Y0396048D01*
X0246208Y0395898D01*
X0246196Y0395744D01*
X0246196Y0393933D01*
X0246196Y0392122D01*
X0246208Y0391968D01*
X0246205Y0392006D02*
X0250438Y0392006D01*
X0250441Y0392044D02*
X0246202Y0392044D01*
X0246199Y0392082D02*
X0250444Y0392082D01*
X0250447Y0392119D02*
X0246196Y0392119D01*
X0246196Y0392157D02*
X0250448Y0392157D01*
X0250448Y0392195D02*
X0246196Y0392195D01*
X0246196Y0392233D02*
X0250448Y0392233D01*
X0250448Y0392271D02*
X0246196Y0392271D01*
X0246196Y0392309D02*
X0250448Y0392309D01*
X0250448Y0392347D02*
X0246196Y0392347D01*
X0246196Y0392385D02*
X0250448Y0392385D01*
X0250448Y0392422D02*
X0246196Y0392422D01*
X0246196Y0392460D02*
X0250448Y0392460D01*
X0250448Y0392498D02*
X0246196Y0392498D01*
X0246196Y0392536D02*
X0250448Y0392536D01*
X0250448Y0392574D02*
X0246196Y0392574D01*
X0246196Y0392612D02*
X0250448Y0392612D01*
X0250448Y0392650D02*
X0246196Y0392650D01*
X0246196Y0392688D02*
X0250448Y0392688D01*
X0250448Y0392726D02*
X0246196Y0392726D01*
X0246196Y0392763D02*
X0250448Y0392763D01*
X0250448Y0392801D02*
X0246196Y0392801D01*
X0246196Y0392839D02*
X0250448Y0392839D01*
X0250448Y0392877D02*
X0246196Y0392877D01*
X0246196Y0392915D02*
X0250448Y0392915D01*
X0250448Y0392953D02*
X0246196Y0392953D01*
X0246196Y0392991D02*
X0250448Y0392991D01*
X0250448Y0393029D02*
X0246196Y0393029D01*
X0246196Y0393066D02*
X0250448Y0393066D01*
X0250448Y0393104D02*
X0246196Y0393104D01*
X0246196Y0393142D02*
X0250448Y0393142D01*
X0250448Y0393180D02*
X0246196Y0393180D01*
X0246196Y0393218D02*
X0250448Y0393218D01*
X0250448Y0393256D02*
X0246196Y0393256D01*
X0246196Y0393294D02*
X0250448Y0393294D01*
X0250448Y0393332D02*
X0246196Y0393332D01*
X0246196Y0393370D02*
X0250448Y0393370D01*
X0250448Y0393407D02*
X0246196Y0393407D01*
X0246196Y0393445D02*
X0250448Y0393445D01*
X0250448Y0393483D02*
X0246196Y0393483D01*
X0246196Y0393521D02*
X0250448Y0393521D01*
X0250448Y0393559D02*
X0246196Y0393559D01*
X0246196Y0393597D02*
X0250448Y0393597D01*
X0250448Y0393635D02*
X0246196Y0393635D01*
X0246196Y0393673D02*
X0250448Y0393673D01*
X0250448Y0393710D02*
X0246196Y0393710D01*
X0246196Y0393748D02*
X0250448Y0393748D01*
X0250448Y0393786D02*
X0246196Y0393786D01*
X0246196Y0393824D02*
X0250448Y0393824D01*
X0250448Y0393862D02*
X0246196Y0393862D01*
X0246196Y0393900D02*
X0250448Y0393900D01*
X0250448Y0393938D02*
X0246196Y0393938D01*
X0246196Y0393976D02*
X0250448Y0393976D01*
X0250448Y0394013D02*
X0246196Y0394013D01*
X0246196Y0394051D02*
X0250448Y0394051D01*
X0250448Y0394089D02*
X0246196Y0394089D01*
X0246196Y0394127D02*
X0250448Y0394127D01*
X0250448Y0394165D02*
X0246196Y0394165D01*
X0246196Y0394203D02*
X0250448Y0394203D01*
X0250448Y0394241D02*
X0246196Y0394241D01*
X0246196Y0394279D02*
X0250448Y0394279D01*
X0250448Y0394317D02*
X0246196Y0394317D01*
X0246196Y0394354D02*
X0250448Y0394354D01*
X0250448Y0394392D02*
X0246196Y0394392D01*
X0246196Y0394430D02*
X0250448Y0394430D01*
X0250448Y0394468D02*
X0246196Y0394468D01*
X0246196Y0394506D02*
X0250448Y0394506D01*
X0250448Y0394544D02*
X0246196Y0394544D01*
X0246196Y0394582D02*
X0250448Y0394582D01*
X0250448Y0394620D02*
X0246196Y0394620D01*
X0246196Y0394657D02*
X0250448Y0394657D01*
X0250448Y0394695D02*
X0246196Y0394695D01*
X0246196Y0394733D02*
X0250448Y0394733D01*
X0250448Y0394771D02*
X0246196Y0394771D01*
X0246196Y0394809D02*
X0250448Y0394809D01*
X0250448Y0394847D02*
X0246196Y0394847D01*
X0246196Y0394885D02*
X0250448Y0394885D01*
X0250448Y0394923D02*
X0246196Y0394923D01*
X0246196Y0394961D02*
X0250448Y0394961D01*
X0250448Y0394998D02*
X0246196Y0394998D01*
X0246196Y0395036D02*
X0250448Y0395036D01*
X0250448Y0395074D02*
X0246196Y0395074D01*
X0246196Y0395112D02*
X0250448Y0395112D01*
X0250448Y0395150D02*
X0246196Y0395150D01*
X0246196Y0395188D02*
X0250448Y0395188D01*
X0250448Y0395226D02*
X0246196Y0395226D01*
X0246196Y0395264D02*
X0250448Y0395264D01*
X0250448Y0395301D02*
X0246196Y0395301D01*
X0246196Y0395339D02*
X0250448Y0395339D01*
X0250448Y0395377D02*
X0246196Y0395377D01*
X0246196Y0395415D02*
X0250448Y0395415D01*
X0250448Y0395453D02*
X0246196Y0395453D01*
X0246196Y0395491D02*
X0250448Y0395491D01*
X0250448Y0395529D02*
X0246196Y0395529D01*
X0246196Y0395567D02*
X0250448Y0395567D01*
X0250448Y0395605D02*
X0246196Y0395605D01*
X0246196Y0395642D02*
X0250448Y0395642D01*
X0250448Y0395680D02*
X0246196Y0395680D01*
X0246196Y0395718D02*
X0250448Y0395718D01*
X0250447Y0395756D02*
X0246196Y0395756D01*
X0246199Y0395794D02*
X0250444Y0395794D01*
X0250441Y0395832D02*
X0246202Y0395832D01*
X0246205Y0395870D02*
X0250438Y0395870D01*
X0250433Y0395908D02*
X0246210Y0395908D01*
X0246219Y0395945D02*
X0250424Y0395945D01*
X0250415Y0395983D02*
X0246228Y0395983D01*
X0246237Y0396021D02*
X0250406Y0396021D01*
X0250395Y0396059D02*
X0246248Y0396059D01*
X0246264Y0396097D02*
X0250379Y0396097D01*
X0250364Y0396135D02*
X0246279Y0396135D01*
X0246295Y0396173D02*
X0250348Y0396173D01*
X0250328Y0396211D02*
X0246315Y0396211D01*
X0246338Y0396248D02*
X0250305Y0396248D01*
X0250282Y0396286D02*
X0246361Y0396286D01*
X0246385Y0396324D02*
X0250258Y0396324D01*
X0250226Y0396362D02*
X0246417Y0396362D01*
X0246449Y0396400D02*
X0250194Y0396400D01*
X0250161Y0396438D02*
X0246482Y0396438D01*
X0246525Y0396476D02*
X0250118Y0396476D01*
X0250073Y0396514D02*
X0246570Y0396514D01*
X0246619Y0396552D02*
X0250024Y0396552D01*
X0249962Y0396589D02*
X0246681Y0396589D01*
X0246748Y0396627D02*
X0249896Y0396627D01*
X0249804Y0396665D02*
X0246839Y0396665D01*
X0246971Y0396703D02*
X0249672Y0396703D01*
X0250426Y0391930D02*
X0246217Y0391930D01*
X0246226Y0391892D02*
X0250417Y0391892D01*
X0250408Y0391854D02*
X0246235Y0391854D01*
X0246244Y0391816D02*
X0250399Y0391816D01*
X0250383Y0391778D02*
X0246260Y0391778D01*
X0246276Y0391741D02*
X0250368Y0391741D01*
X0250352Y0391703D02*
X0246291Y0391703D01*
X0246309Y0391665D02*
X0250334Y0391665D01*
X0250311Y0391627D02*
X0246332Y0391627D01*
X0246355Y0391589D02*
X0250288Y0391589D01*
X0250264Y0391551D02*
X0246379Y0391551D01*
X0246409Y0391513D02*
X0250234Y0391513D01*
X0250201Y0391475D02*
X0246442Y0391475D01*
X0246474Y0391438D02*
X0250169Y0391438D01*
X0250128Y0391400D02*
X0246515Y0391400D01*
X0246559Y0391362D02*
X0250084Y0391362D01*
X0250039Y0391324D02*
X0246604Y0391324D01*
X0246666Y0391286D02*
X0249977Y0391286D01*
X0249915Y0391248D02*
X0246728Y0391248D01*
X0246816Y0391210D02*
X0249827Y0391210D01*
X0249711Y0391172D02*
X0246932Y0391172D01*
X0256561Y0413636D02*
X0262137Y0413636D01*
X0262140Y0413598D02*
X0262128Y0413752D01*
X0262092Y0413903D01*
X0262033Y0414045D01*
X0261953Y0414177D01*
X0261852Y0414294D01*
X0261735Y0414395D01*
X0261603Y0414476D01*
X0261460Y0414535D01*
X0261310Y0414570D01*
X0261156Y0414583D01*
X0261416Y0414545D02*
X0257274Y0414545D01*
X0257164Y0414507D02*
X0261526Y0414507D01*
X0261613Y0414469D02*
X0257077Y0414469D01*
X0257016Y0414432D02*
X0261675Y0414432D01*
X0261736Y0414394D02*
X0256954Y0414394D01*
X0256910Y0414356D02*
X0261780Y0414356D01*
X0261825Y0414318D02*
X0256866Y0414318D01*
X0256826Y0414280D02*
X0261865Y0414280D01*
X0261897Y0414242D02*
X0256793Y0414242D01*
X0256761Y0414204D02*
X0261929Y0414204D01*
X0261959Y0414166D02*
X0256731Y0414166D01*
X0256708Y0414129D02*
X0261982Y0414129D01*
X0262005Y0414091D02*
X0256685Y0414091D01*
X0256662Y0414053D02*
X0262029Y0414053D01*
X0262046Y0414015D02*
X0256644Y0414015D01*
X0256629Y0413977D02*
X0262062Y0413977D01*
X0262077Y0413939D02*
X0256613Y0413939D01*
X0256598Y0413901D02*
X0262093Y0413901D01*
X0262102Y0413863D02*
X0256589Y0413863D01*
X0256579Y0413825D02*
X0262111Y0413825D01*
X0262120Y0413788D02*
X0256570Y0413788D01*
X0256562Y0413750D02*
X0262128Y0413750D01*
X0262131Y0413712D02*
X0256562Y0413712D01*
X0256562Y0413674D02*
X0262134Y0413674D01*
X0170073Y0411433D02*
X0170024Y0411994D01*
X0169879Y0412537D01*
X0169641Y0413047D01*
X0169318Y0413508D01*
X0168920Y0413906D01*
X0168459Y0414229D01*
X0167949Y0414467D01*
X0167406Y0414612D01*
X0166845Y0414661D01*
X0166285Y0414612D01*
X0165741Y0414467D01*
X0165231Y0414229D01*
X0164770Y0413906D01*
X0164372Y0413508D01*
X0164049Y0413047D01*
X0163812Y0412537D01*
X0163666Y0411994D01*
X0163617Y0411433D01*
X0163666Y0410872D01*
X0163812Y0410329D01*
X0164049Y0409819D01*
X0164372Y0409358D01*
X0164770Y0408960D01*
X0165231Y0408637D01*
X0165741Y0408400D01*
X0166285Y0408254D01*
X0166845Y0408205D01*
X0167406Y0408254D01*
X0167949Y0408400D01*
X0168459Y0408637D01*
X0168920Y0408960D01*
X0169318Y0409358D01*
X0169641Y0409819D01*
X0169879Y0410329D01*
X0170024Y0410872D01*
X0170073Y0411433D01*
X0170073Y0411439D02*
X0163617Y0411439D01*
X0163621Y0411477D02*
X0170070Y0411477D01*
X0170066Y0411515D02*
X0163624Y0411515D01*
X0163627Y0411553D02*
X0170063Y0411553D01*
X0170060Y0411590D02*
X0163631Y0411590D01*
X0163634Y0411628D02*
X0170056Y0411628D01*
X0170053Y0411666D02*
X0163637Y0411666D01*
X0163641Y0411704D02*
X0170050Y0411704D01*
X0170046Y0411742D02*
X0163644Y0411742D01*
X0163647Y0411780D02*
X0170043Y0411780D01*
X0170040Y0411818D02*
X0163651Y0411818D01*
X0163654Y0411856D02*
X0170036Y0411856D01*
X0170033Y0411894D02*
X0163657Y0411894D01*
X0163661Y0411931D02*
X0170030Y0411931D01*
X0170026Y0411969D02*
X0163664Y0411969D01*
X0163670Y0412007D02*
X0170021Y0412007D01*
X0170011Y0412045D02*
X0163680Y0412045D01*
X0163690Y0412083D02*
X0170000Y0412083D01*
X0169990Y0412121D02*
X0163700Y0412121D01*
X0163710Y0412159D02*
X0169980Y0412159D01*
X0169970Y0412197D02*
X0163720Y0412197D01*
X0163731Y0412234D02*
X0169960Y0412234D01*
X0169950Y0412272D02*
X0163741Y0412272D01*
X0163751Y0412310D02*
X0169939Y0412310D01*
X0169929Y0412348D02*
X0163761Y0412348D01*
X0163771Y0412386D02*
X0169919Y0412386D01*
X0169909Y0412424D02*
X0163781Y0412424D01*
X0163791Y0412462D02*
X0169899Y0412462D01*
X0169889Y0412500D02*
X0163802Y0412500D01*
X0163812Y0412537D02*
X0169879Y0412537D01*
X0169861Y0412575D02*
X0163829Y0412575D01*
X0163847Y0412613D02*
X0169843Y0412613D01*
X0169826Y0412651D02*
X0163865Y0412651D01*
X0163882Y0412689D02*
X0169808Y0412689D01*
X0169790Y0412727D02*
X0163900Y0412727D01*
X0163918Y0412765D02*
X0169773Y0412765D01*
X0169755Y0412803D02*
X0163935Y0412803D01*
X0163953Y0412841D02*
X0169737Y0412841D01*
X0169720Y0412878D02*
X0163971Y0412878D01*
X0163988Y0412916D02*
X0169702Y0412916D01*
X0169684Y0412954D02*
X0164006Y0412954D01*
X0164024Y0412992D02*
X0169667Y0412992D01*
X0169649Y0413030D02*
X0164041Y0413030D01*
X0164064Y0413068D02*
X0169626Y0413068D01*
X0169600Y0413106D02*
X0164090Y0413106D01*
X0164117Y0413144D02*
X0169573Y0413144D01*
X0169547Y0413181D02*
X0164143Y0413181D01*
X0164170Y0413219D02*
X0169520Y0413219D01*
X0169494Y0413257D02*
X0164196Y0413257D01*
X0164223Y0413295D02*
X0169467Y0413295D01*
X0169441Y0413333D02*
X0164249Y0413333D01*
X0164276Y0413371D02*
X0169414Y0413371D01*
X0169388Y0413409D02*
X0164302Y0413409D01*
X0164329Y0413447D02*
X0169361Y0413447D01*
X0169335Y0413485D02*
X0164355Y0413485D01*
X0164386Y0413522D02*
X0169304Y0413522D01*
X0169266Y0413560D02*
X0164424Y0413560D01*
X0164462Y0413598D02*
X0169228Y0413598D01*
X0169191Y0413636D02*
X0164500Y0413636D01*
X0164538Y0413674D02*
X0169153Y0413674D01*
X0169115Y0413712D02*
X0164575Y0413712D01*
X0164613Y0413750D02*
X0169077Y0413750D01*
X0169039Y0413788D02*
X0164651Y0413788D01*
X0164689Y0413825D02*
X0169001Y0413825D01*
X0168963Y0413863D02*
X0164727Y0413863D01*
X0164765Y0413901D02*
X0168925Y0413901D01*
X0168873Y0413939D02*
X0164817Y0413939D01*
X0164871Y0413977D02*
X0168819Y0413977D01*
X0168765Y0414015D02*
X0164925Y0414015D01*
X0164979Y0414053D02*
X0168711Y0414053D01*
X0168657Y0414091D02*
X0165034Y0414091D01*
X0165088Y0414129D02*
X0168603Y0414129D01*
X0168548Y0414166D02*
X0165142Y0414166D01*
X0165196Y0414204D02*
X0168494Y0414204D01*
X0168431Y0414242D02*
X0165260Y0414242D01*
X0165341Y0414280D02*
X0168349Y0414280D01*
X0168268Y0414318D02*
X0165422Y0414318D01*
X0165503Y0414356D02*
X0168187Y0414356D01*
X0168106Y0414394D02*
X0165585Y0414394D01*
X0165666Y0414432D02*
X0168024Y0414432D01*
X0167939Y0414469D02*
X0165752Y0414469D01*
X0165893Y0414507D02*
X0167797Y0414507D01*
X0167656Y0414545D02*
X0166034Y0414545D01*
X0166176Y0414583D02*
X0167514Y0414583D01*
X0167306Y0414621D02*
X0166384Y0414621D01*
X0166816Y0414659D02*
X0166874Y0414659D01*
X0166845Y0418205D02*
X0167406Y0418254D01*
X0167949Y0418400D01*
X0168459Y0418637D01*
X0168920Y0418960D01*
X0169318Y0419358D01*
X0169641Y0419819D01*
X0169879Y0420329D01*
X0170024Y0420872D01*
X0170073Y0421433D01*
X0170024Y0421994D01*
X0169879Y0422537D01*
X0169641Y0423047D01*
X0169318Y0423508D01*
X0168920Y0423906D01*
X0168459Y0424229D01*
X0167949Y0424467D01*
X0167406Y0424612D01*
X0166845Y0424661D01*
X0166285Y0424612D01*
X0165741Y0424467D01*
X0165231Y0424229D01*
X0164770Y0423906D01*
X0164372Y0423508D01*
X0164049Y0423047D01*
X0163812Y0422537D01*
X0163666Y0421994D01*
X0163617Y0421433D01*
X0163666Y0420872D01*
X0163812Y0420329D01*
X0164049Y0419819D01*
X0164372Y0419358D01*
X0164770Y0418960D01*
X0165231Y0418637D01*
X0165741Y0418400D01*
X0166285Y0418254D01*
X0166845Y0418205D01*
X0166675Y0418220D02*
X0167016Y0418220D01*
X0167419Y0418258D02*
X0166271Y0418258D01*
X0166130Y0418295D02*
X0167561Y0418295D01*
X0167702Y0418333D02*
X0165988Y0418333D01*
X0165847Y0418371D02*
X0167844Y0418371D01*
X0167970Y0418409D02*
X0165720Y0418409D01*
X0165639Y0418447D02*
X0168051Y0418447D01*
X0168132Y0418485D02*
X0165558Y0418485D01*
X0165477Y0418523D02*
X0168213Y0418523D01*
X0168295Y0418561D02*
X0165396Y0418561D01*
X0165314Y0418599D02*
X0168376Y0418599D01*
X0168457Y0418636D02*
X0165233Y0418636D01*
X0165178Y0418674D02*
X0168512Y0418674D01*
X0168566Y0418712D02*
X0165124Y0418712D01*
X0165070Y0418750D02*
X0168620Y0418750D01*
X0168675Y0418788D02*
X0165016Y0418788D01*
X0164962Y0418826D02*
X0168729Y0418826D01*
X0168783Y0418864D02*
X0164907Y0418864D01*
X0164853Y0418902D02*
X0168837Y0418902D01*
X0168891Y0418939D02*
X0164799Y0418939D01*
X0164752Y0418977D02*
X0168938Y0418977D01*
X0168976Y0419015D02*
X0164715Y0419015D01*
X0164677Y0419053D02*
X0169014Y0419053D01*
X0169051Y0419091D02*
X0164639Y0419091D01*
X0164601Y0419129D02*
X0169089Y0419129D01*
X0169127Y0419167D02*
X0164563Y0419167D01*
X0164525Y0419205D02*
X0169165Y0419205D01*
X0169203Y0419242D02*
X0164487Y0419242D01*
X0164449Y0419280D02*
X0169241Y0419280D01*
X0169279Y0419318D02*
X0164412Y0419318D01*
X0164374Y0419356D02*
X0169317Y0419356D01*
X0169344Y0419394D02*
X0164347Y0419394D01*
X0164320Y0419432D02*
X0169370Y0419432D01*
X0169397Y0419470D02*
X0164294Y0419470D01*
X0164267Y0419508D02*
X0169423Y0419508D01*
X0169450Y0419546D02*
X0164241Y0419546D01*
X0164214Y0419583D02*
X0169476Y0419583D01*
X0169503Y0419621D02*
X0164188Y0419621D01*
X0164161Y0419659D02*
X0169529Y0419659D01*
X0169556Y0419697D02*
X0164135Y0419697D01*
X0164108Y0419735D02*
X0169582Y0419735D01*
X0169609Y0419773D02*
X0164082Y0419773D01*
X0164055Y0419811D02*
X0169635Y0419811D01*
X0169655Y0419849D02*
X0164036Y0419849D01*
X0164018Y0419886D02*
X0169672Y0419886D01*
X0169690Y0419924D02*
X0164000Y0419924D01*
X0163983Y0419962D02*
X0169708Y0419962D01*
X0169725Y0420000D02*
X0163965Y0420000D01*
X0163947Y0420038D02*
X0169743Y0420038D01*
X0169761Y0420076D02*
X0163930Y0420076D01*
X0163912Y0420114D02*
X0169778Y0420114D01*
X0169796Y0420152D02*
X0163894Y0420152D01*
X0163877Y0420190D02*
X0169814Y0420190D01*
X0169831Y0420227D02*
X0163859Y0420227D01*
X0163841Y0420265D02*
X0169849Y0420265D01*
X0169867Y0420303D02*
X0163824Y0420303D01*
X0163808Y0420341D02*
X0169882Y0420341D01*
X0169892Y0420379D02*
X0163798Y0420379D01*
X0163788Y0420417D02*
X0169902Y0420417D01*
X0169912Y0420455D02*
X0163778Y0420455D01*
X0163768Y0420493D02*
X0169922Y0420493D01*
X0169933Y0420530D02*
X0163758Y0420530D01*
X0163747Y0420568D02*
X0169943Y0420568D01*
X0169953Y0420606D02*
X0163737Y0420606D01*
X0163727Y0420644D02*
X0169963Y0420644D01*
X0169973Y0420682D02*
X0163717Y0420682D01*
X0163707Y0420720D02*
X0169983Y0420720D01*
X0169994Y0420758D02*
X0163697Y0420758D01*
X0163687Y0420796D02*
X0170004Y0420796D01*
X0170014Y0420834D02*
X0163676Y0420834D01*
X0163666Y0420871D02*
X0170024Y0420871D01*
X0170027Y0420909D02*
X0163663Y0420909D01*
X0163659Y0420947D02*
X0170031Y0420947D01*
X0170034Y0420985D02*
X0163656Y0420985D01*
X0163653Y0421023D02*
X0170037Y0421023D01*
X0170041Y0421061D02*
X0163649Y0421061D01*
X0163646Y0421099D02*
X0170044Y0421099D01*
X0170047Y0421137D02*
X0163643Y0421137D01*
X0163639Y0421174D02*
X0170051Y0421174D01*
X0170054Y0421212D02*
X0163636Y0421212D01*
X0163633Y0421250D02*
X0170057Y0421250D01*
X0170061Y0421288D02*
X0163630Y0421288D01*
X0163626Y0421326D02*
X0170064Y0421326D01*
X0170067Y0421364D02*
X0163623Y0421364D01*
X0163620Y0421402D02*
X0170071Y0421402D01*
X0170073Y0421440D02*
X0163617Y0421440D01*
X0163621Y0421477D02*
X0170070Y0421477D01*
X0170066Y0421515D02*
X0163624Y0421515D01*
X0163627Y0421553D02*
X0170063Y0421553D01*
X0170060Y0421591D02*
X0163631Y0421591D01*
X0163634Y0421629D02*
X0170056Y0421629D01*
X0170053Y0421667D02*
X0163637Y0421667D01*
X0163641Y0421705D02*
X0170050Y0421705D01*
X0170046Y0421743D02*
X0163644Y0421743D01*
X0163647Y0421781D02*
X0170043Y0421781D01*
X0170040Y0421818D02*
X0163651Y0421818D01*
X0163654Y0421856D02*
X0170036Y0421856D01*
X0170033Y0421894D02*
X0163657Y0421894D01*
X0163661Y0421932D02*
X0170030Y0421932D01*
X0170026Y0421970D02*
X0163664Y0421970D01*
X0163670Y0422008D02*
X0170020Y0422008D01*
X0170010Y0422046D02*
X0163680Y0422046D01*
X0163690Y0422084D02*
X0170000Y0422084D01*
X0169990Y0422121D02*
X0163700Y0422121D01*
X0163710Y0422159D02*
X0169980Y0422159D01*
X0169970Y0422197D02*
X0163721Y0422197D01*
X0163731Y0422235D02*
X0169960Y0422235D01*
X0169949Y0422273D02*
X0163741Y0422273D01*
X0163751Y0422311D02*
X0169939Y0422311D01*
X0169929Y0422349D02*
X0163761Y0422349D01*
X0163771Y0422387D02*
X0169919Y0422387D01*
X0169909Y0422425D02*
X0163781Y0422425D01*
X0163792Y0422462D02*
X0169899Y0422462D01*
X0169889Y0422500D02*
X0163802Y0422500D01*
X0163812Y0422538D02*
X0169878Y0422538D01*
X0169861Y0422576D02*
X0163830Y0422576D01*
X0163847Y0422614D02*
X0169843Y0422614D01*
X0169825Y0422652D02*
X0163865Y0422652D01*
X0163883Y0422690D02*
X0169808Y0422690D01*
X0169790Y0422728D02*
X0163900Y0422728D01*
X0163918Y0422765D02*
X0169772Y0422765D01*
X0169755Y0422803D02*
X0163936Y0422803D01*
X0163953Y0422841D02*
X0169737Y0422841D01*
X0169719Y0422879D02*
X0163971Y0422879D01*
X0163989Y0422917D02*
X0169702Y0422917D01*
X0169684Y0422955D02*
X0164006Y0422955D01*
X0164024Y0422993D02*
X0169666Y0422993D01*
X0169649Y0423031D02*
X0164042Y0423031D01*
X0164064Y0423069D02*
X0169626Y0423069D01*
X0169599Y0423106D02*
X0164091Y0423106D01*
X0164117Y0423144D02*
X0169573Y0423144D01*
X0169546Y0423182D02*
X0164144Y0423182D01*
X0164170Y0423220D02*
X0169520Y0423220D01*
X0169493Y0423258D02*
X0164197Y0423258D01*
X0164223Y0423296D02*
X0169467Y0423296D01*
X0169440Y0423334D02*
X0164250Y0423334D01*
X0164276Y0423372D02*
X0169414Y0423372D01*
X0169387Y0423409D02*
X0164303Y0423409D01*
X0164329Y0423447D02*
X0169361Y0423447D01*
X0169334Y0423485D02*
X0164356Y0423485D01*
X0164387Y0423523D02*
X0169304Y0423523D01*
X0169266Y0423561D02*
X0164425Y0423561D01*
X0164463Y0423599D02*
X0169228Y0423599D01*
X0169190Y0423637D02*
X0164500Y0423637D01*
X0164538Y0423675D02*
X0169152Y0423675D01*
X0169114Y0423712D02*
X0164576Y0423712D01*
X0164614Y0423750D02*
X0169076Y0423750D01*
X0169038Y0423788D02*
X0164652Y0423788D01*
X0164690Y0423826D02*
X0169000Y0423826D01*
X0168963Y0423864D02*
X0164728Y0423864D01*
X0164766Y0423902D02*
X0168925Y0423902D01*
X0168872Y0423940D02*
X0164818Y0423940D01*
X0164872Y0423978D02*
X0168818Y0423978D01*
X0168764Y0424016D02*
X0164926Y0424016D01*
X0164980Y0424053D02*
X0168710Y0424053D01*
X0168656Y0424091D02*
X0165034Y0424091D01*
X0165089Y0424129D02*
X0168602Y0424129D01*
X0168547Y0424167D02*
X0165143Y0424167D01*
X0165197Y0424205D02*
X0168493Y0424205D01*
X0168429Y0424243D02*
X0165261Y0424243D01*
X0165342Y0424281D02*
X0168348Y0424281D01*
X0168267Y0424319D02*
X0165424Y0424319D01*
X0165505Y0424356D02*
X0168185Y0424356D01*
X0168104Y0424394D02*
X0165586Y0424394D01*
X0165667Y0424432D02*
X0168023Y0424432D01*
X0167936Y0424470D02*
X0165754Y0424470D01*
X0165896Y0424508D02*
X0167795Y0424508D01*
X0167653Y0424546D02*
X0166037Y0424546D01*
X0166178Y0424584D02*
X0167512Y0424584D01*
X0167298Y0424622D02*
X0166392Y0424622D01*
X0166824Y0424660D02*
X0166867Y0424660D01*
X0166845Y0428205D02*
X0166285Y0428254D01*
X0165741Y0428400D01*
X0165231Y0428637D01*
X0164770Y0428960D01*
X0164372Y0429358D01*
X0164049Y0429819D01*
X0163812Y0430329D01*
X0163666Y0430872D01*
X0170024Y0430872D01*
X0170073Y0431433D01*
X0170024Y0431994D01*
X0169879Y0432537D01*
X0169641Y0433047D01*
X0169318Y0433508D01*
X0168920Y0433906D01*
X0168459Y0434229D01*
X0167949Y0434467D01*
X0167406Y0434612D01*
X0166845Y0434661D01*
X0166285Y0434612D01*
X0165741Y0434467D01*
X0165231Y0434229D01*
X0164770Y0433906D01*
X0164372Y0433508D01*
X0164049Y0433047D01*
X0163812Y0432537D01*
X0163666Y0431994D01*
X0163617Y0431433D01*
X0163666Y0430872D01*
X0163663Y0430910D02*
X0170028Y0430910D01*
X0170024Y0430872D02*
X0169879Y0430329D01*
X0169641Y0429819D01*
X0169318Y0429358D01*
X0168920Y0428960D01*
X0168459Y0428637D01*
X0165232Y0428637D01*
X0165177Y0428675D02*
X0168513Y0428675D01*
X0168459Y0428637D02*
X0167949Y0428400D01*
X0167406Y0428254D01*
X0166845Y0428205D01*
X0166667Y0428220D02*
X0167024Y0428220D01*
X0167422Y0428258D02*
X0166268Y0428258D01*
X0166127Y0428296D02*
X0167563Y0428296D01*
X0167705Y0428334D02*
X0165986Y0428334D01*
X0165844Y0428372D02*
X0167846Y0428372D01*
X0167971Y0428410D02*
X0165719Y0428410D01*
X0165638Y0428448D02*
X0168053Y0428448D01*
X0168134Y0428486D02*
X0165557Y0428486D01*
X0165475Y0428523D02*
X0168215Y0428523D01*
X0168296Y0428561D02*
X0165394Y0428561D01*
X0165313Y0428599D02*
X0168377Y0428599D01*
X0168567Y0428713D02*
X0165123Y0428713D01*
X0165069Y0428751D02*
X0168621Y0428751D01*
X0168676Y0428789D02*
X0165015Y0428789D01*
X0164961Y0428826D02*
X0168730Y0428826D01*
X0168784Y0428864D02*
X0164906Y0428864D01*
X0164852Y0428902D02*
X0168838Y0428902D01*
X0168892Y0428940D02*
X0164798Y0428940D01*
X0164752Y0428978D02*
X0168939Y0428978D01*
X0168976Y0429016D02*
X0164714Y0429016D01*
X0164676Y0429054D02*
X0169014Y0429054D01*
X0169052Y0429092D02*
X0164638Y0429092D01*
X0164600Y0429130D02*
X0169090Y0429130D01*
X0169128Y0429167D02*
X0164562Y0429167D01*
X0164524Y0429205D02*
X0169166Y0429205D01*
X0169204Y0429243D02*
X0164487Y0429243D01*
X0164449Y0429281D02*
X0169242Y0429281D01*
X0169279Y0429319D02*
X0164411Y0429319D01*
X0164373Y0429357D02*
X0169317Y0429357D01*
X0169344Y0429395D02*
X0164346Y0429395D01*
X0164320Y0429433D02*
X0169371Y0429433D01*
X0169397Y0429470D02*
X0164293Y0429470D01*
X0164267Y0429508D02*
X0169424Y0429508D01*
X0169450Y0429546D02*
X0164240Y0429546D01*
X0164214Y0429584D02*
X0169477Y0429584D01*
X0169503Y0429622D02*
X0164187Y0429622D01*
X0164161Y0429660D02*
X0169530Y0429660D01*
X0169556Y0429698D02*
X0164134Y0429698D01*
X0164108Y0429736D02*
X0169583Y0429736D01*
X0169609Y0429774D02*
X0164081Y0429774D01*
X0164055Y0429811D02*
X0169636Y0429811D01*
X0169655Y0429849D02*
X0164035Y0429849D01*
X0164018Y0429887D02*
X0169673Y0429887D01*
X0169690Y0429925D02*
X0164000Y0429925D01*
X0163982Y0429963D02*
X0169708Y0429963D01*
X0169726Y0430001D02*
X0163965Y0430001D01*
X0163947Y0430039D02*
X0169743Y0430039D01*
X0169761Y0430077D02*
X0163929Y0430077D01*
X0163912Y0430114D02*
X0169779Y0430114D01*
X0169796Y0430152D02*
X0163894Y0430152D01*
X0163876Y0430190D02*
X0169814Y0430190D01*
X0169832Y0430228D02*
X0163859Y0430228D01*
X0163841Y0430266D02*
X0169849Y0430266D01*
X0169867Y0430304D02*
X0163823Y0430304D01*
X0163808Y0430342D02*
X0169882Y0430342D01*
X0169892Y0430380D02*
X0163798Y0430380D01*
X0163788Y0430418D02*
X0169902Y0430418D01*
X0169913Y0430455D02*
X0163778Y0430455D01*
X0163768Y0430493D02*
X0169923Y0430493D01*
X0169933Y0430531D02*
X0163757Y0430531D01*
X0163747Y0430569D02*
X0169943Y0430569D01*
X0169953Y0430607D02*
X0163737Y0430607D01*
X0163727Y0430645D02*
X0169963Y0430645D01*
X0169973Y0430683D02*
X0163717Y0430683D01*
X0163707Y0430721D02*
X0169984Y0430721D01*
X0169994Y0430758D02*
X0163697Y0430758D01*
X0163686Y0430796D02*
X0170004Y0430796D01*
X0170014Y0430834D02*
X0163676Y0430834D01*
X0163659Y0430948D02*
X0170031Y0430948D01*
X0170034Y0430986D02*
X0163656Y0430986D01*
X0163653Y0431024D02*
X0170038Y0431024D01*
X0170041Y0431061D02*
X0163649Y0431061D01*
X0163646Y0431099D02*
X0170044Y0431099D01*
X0170048Y0431137D02*
X0163643Y0431137D01*
X0163639Y0431175D02*
X0170051Y0431175D01*
X0170054Y0431213D02*
X0163636Y0431213D01*
X0163633Y0431251D02*
X0170057Y0431251D01*
X0170061Y0431289D02*
X0163629Y0431289D01*
X0163626Y0431327D02*
X0170064Y0431327D01*
X0170067Y0431365D02*
X0163623Y0431365D01*
X0163619Y0431402D02*
X0170071Y0431402D01*
X0170073Y0431440D02*
X0163617Y0431440D01*
X0163621Y0431478D02*
X0170070Y0431478D01*
X0170066Y0431516D02*
X0163624Y0431516D01*
X0163627Y0431554D02*
X0170063Y0431554D01*
X0170060Y0431592D02*
X0163631Y0431592D01*
X0163634Y0431630D02*
X0170056Y0431630D01*
X0170053Y0431668D02*
X0163637Y0431668D01*
X0163641Y0431705D02*
X0170050Y0431705D01*
X0170046Y0431743D02*
X0163644Y0431743D01*
X0163647Y0431781D02*
X0170043Y0431781D01*
X0170040Y0431819D02*
X0163651Y0431819D01*
X0163654Y0431857D02*
X0170036Y0431857D01*
X0170033Y0431895D02*
X0163657Y0431895D01*
X0163661Y0431933D02*
X0170030Y0431933D01*
X0170026Y0431971D02*
X0163664Y0431971D01*
X0163670Y0432009D02*
X0170020Y0432009D01*
X0170010Y0432046D02*
X0163680Y0432046D01*
X0163690Y0432084D02*
X0170000Y0432084D01*
X0169990Y0432122D02*
X0163700Y0432122D01*
X0163711Y0432160D02*
X0169980Y0432160D01*
X0169970Y0432198D02*
X0163721Y0432198D01*
X0163731Y0432236D02*
X0169959Y0432236D01*
X0169949Y0432274D02*
X0163741Y0432274D01*
X0163751Y0432312D02*
X0169939Y0432312D01*
X0169929Y0432349D02*
X0163761Y0432349D01*
X0163771Y0432387D02*
X0169919Y0432387D01*
X0169909Y0432425D02*
X0163782Y0432425D01*
X0163792Y0432463D02*
X0169899Y0432463D01*
X0169888Y0432501D02*
X0163802Y0432501D01*
X0163812Y0432539D02*
X0169878Y0432539D01*
X0169860Y0432577D02*
X0163830Y0432577D01*
X0163848Y0432615D02*
X0169843Y0432615D01*
X0169825Y0432653D02*
X0163865Y0432653D01*
X0163883Y0432690D02*
X0169807Y0432690D01*
X0169790Y0432728D02*
X0163901Y0432728D01*
X0163918Y0432766D02*
X0169772Y0432766D01*
X0169754Y0432804D02*
X0163936Y0432804D01*
X0163954Y0432842D02*
X0169737Y0432842D01*
X0169719Y0432880D02*
X0163971Y0432880D01*
X0163989Y0432918D02*
X0169701Y0432918D01*
X0169684Y0432956D02*
X0164007Y0432956D01*
X0164024Y0432993D02*
X0169666Y0432993D01*
X0169648Y0433031D02*
X0164042Y0433031D01*
X0164065Y0433069D02*
X0169625Y0433069D01*
X0169599Y0433107D02*
X0164091Y0433107D01*
X0164118Y0433145D02*
X0169572Y0433145D01*
X0169546Y0433183D02*
X0164144Y0433183D01*
X0164171Y0433221D02*
X0169519Y0433221D01*
X0169493Y0433259D02*
X0164197Y0433259D01*
X0164224Y0433296D02*
X0169466Y0433296D01*
X0169440Y0433334D02*
X0164250Y0433334D01*
X0164277Y0433372D02*
X0169413Y0433372D01*
X0169387Y0433410D02*
X0164303Y0433410D01*
X0164330Y0433448D02*
X0169361Y0433448D01*
X0169334Y0433486D02*
X0164356Y0433486D01*
X0164387Y0433524D02*
X0169303Y0433524D01*
X0169265Y0433562D02*
X0164425Y0433562D01*
X0164463Y0433600D02*
X0169227Y0433600D01*
X0169189Y0433637D02*
X0164501Y0433637D01*
X0164539Y0433675D02*
X0169151Y0433675D01*
X0169113Y0433713D02*
X0164577Y0433713D01*
X0164615Y0433751D02*
X0169076Y0433751D01*
X0169038Y0433789D02*
X0164653Y0433789D01*
X0164690Y0433827D02*
X0169000Y0433827D01*
X0168962Y0433865D02*
X0164728Y0433865D01*
X0164766Y0433903D02*
X0168924Y0433903D01*
X0168871Y0433940D02*
X0164819Y0433940D01*
X0164873Y0433978D02*
X0168817Y0433978D01*
X0168763Y0434016D02*
X0164927Y0434016D01*
X0164981Y0434054D02*
X0168709Y0434054D01*
X0168655Y0434092D02*
X0165035Y0434092D01*
X0165090Y0434130D02*
X0168601Y0434130D01*
X0168547Y0434168D02*
X0165144Y0434168D01*
X0165198Y0434206D02*
X0168492Y0434206D01*
X0168428Y0434244D02*
X0165263Y0434244D01*
X0165344Y0434281D02*
X0168346Y0434281D01*
X0168265Y0434319D02*
X0165425Y0434319D01*
X0165506Y0434357D02*
X0168184Y0434357D01*
X0168103Y0434395D02*
X0165588Y0434395D01*
X0165669Y0434433D02*
X0168022Y0434433D01*
X0167934Y0434471D02*
X0165757Y0434471D01*
X0165898Y0434509D02*
X0167792Y0434509D01*
X0167651Y0434547D02*
X0166040Y0434547D01*
X0166181Y0434584D02*
X0167509Y0434584D01*
X0167290Y0434622D02*
X0166400Y0434622D01*
X0166832Y0434660D02*
X0166859Y0434660D01*
X0166845Y0438205D02*
X0166285Y0438254D01*
X0165741Y0438400D01*
X0165231Y0438637D01*
X0164770Y0438960D01*
X0164372Y0439358D01*
X0164049Y0439819D01*
X0163812Y0440329D01*
X0163666Y0440872D01*
X0163617Y0441433D01*
X0163666Y0441994D01*
X0163812Y0442537D01*
X0164049Y0443047D01*
X0164372Y0443508D01*
X0164770Y0443906D01*
X0165231Y0444229D01*
X0165741Y0444467D01*
X0166285Y0444612D01*
X0166845Y0444661D01*
X0167406Y0444612D01*
X0167949Y0444467D01*
X0168459Y0444229D01*
X0168920Y0443906D01*
X0169318Y0443508D01*
X0169641Y0443047D01*
X0169879Y0442537D01*
X0170024Y0441994D01*
X0170073Y0441433D01*
X0170024Y0440872D01*
X0169879Y0440329D01*
X0169641Y0439819D01*
X0169318Y0439358D01*
X0168920Y0438960D01*
X0168459Y0438637D01*
X0167949Y0438400D01*
X0167406Y0438254D01*
X0166845Y0438205D01*
X0166659Y0438221D02*
X0167031Y0438221D01*
X0167424Y0438259D02*
X0166266Y0438259D01*
X0166124Y0438297D02*
X0167566Y0438297D01*
X0167707Y0438335D02*
X0165983Y0438335D01*
X0165842Y0438373D02*
X0167849Y0438373D01*
X0167973Y0438410D02*
X0165717Y0438410D01*
X0165636Y0438448D02*
X0168054Y0438448D01*
X0168135Y0438486D02*
X0165555Y0438486D01*
X0165474Y0438524D02*
X0168216Y0438524D01*
X0168298Y0438562D02*
X0165393Y0438562D01*
X0165311Y0438600D02*
X0168379Y0438600D01*
X0168460Y0438638D02*
X0165230Y0438638D01*
X0165176Y0438676D02*
X0168514Y0438676D01*
X0168568Y0438714D02*
X0165122Y0438714D01*
X0165068Y0438751D02*
X0168622Y0438751D01*
X0168676Y0438789D02*
X0165014Y0438789D01*
X0164960Y0438827D02*
X0168731Y0438827D01*
X0168785Y0438865D02*
X0164905Y0438865D01*
X0164851Y0438903D02*
X0168839Y0438903D01*
X0168893Y0438941D02*
X0164797Y0438941D01*
X0164751Y0438979D02*
X0168939Y0438979D01*
X0168977Y0439017D02*
X0164713Y0439017D01*
X0164675Y0439054D02*
X0169015Y0439054D01*
X0169053Y0439092D02*
X0164637Y0439092D01*
X0164600Y0439130D02*
X0169091Y0439130D01*
X0169129Y0439168D02*
X0164562Y0439168D01*
X0164524Y0439206D02*
X0169166Y0439206D01*
X0169204Y0439244D02*
X0164486Y0439244D01*
X0164448Y0439282D02*
X0169242Y0439282D01*
X0169280Y0439320D02*
X0164410Y0439320D01*
X0164372Y0439358D02*
X0169318Y0439358D01*
X0169345Y0439395D02*
X0164346Y0439395D01*
X0164319Y0439433D02*
X0169371Y0439433D01*
X0169398Y0439471D02*
X0164293Y0439471D01*
X0164266Y0439509D02*
X0169424Y0439509D01*
X0169451Y0439547D02*
X0164240Y0439547D01*
X0164213Y0439585D02*
X0169477Y0439585D01*
X0169504Y0439623D02*
X0164187Y0439623D01*
X0164160Y0439661D02*
X0169530Y0439661D01*
X0169557Y0439698D02*
X0164134Y0439698D01*
X0164107Y0439736D02*
X0169583Y0439736D01*
X0169610Y0439774D02*
X0164081Y0439774D01*
X0164054Y0439812D02*
X0169636Y0439812D01*
X0169655Y0439850D02*
X0164035Y0439850D01*
X0164017Y0439888D02*
X0169673Y0439888D01*
X0169691Y0439926D02*
X0164000Y0439926D01*
X0163982Y0439964D02*
X0169708Y0439964D01*
X0169726Y0440002D02*
X0163964Y0440002D01*
X0163947Y0440039D02*
X0169744Y0440039D01*
X0169761Y0440077D02*
X0163929Y0440077D01*
X0163911Y0440115D02*
X0169779Y0440115D01*
X0169797Y0440153D02*
X0163894Y0440153D01*
X0163876Y0440191D02*
X0169814Y0440191D01*
X0169832Y0440229D02*
X0163858Y0440229D01*
X0163841Y0440267D02*
X0169850Y0440267D01*
X0169867Y0440305D02*
X0163823Y0440305D01*
X0163808Y0440342D02*
X0169882Y0440342D01*
X0169892Y0440380D02*
X0163798Y0440380D01*
X0163788Y0440418D02*
X0169903Y0440418D01*
X0169913Y0440456D02*
X0163778Y0440456D01*
X0163767Y0440494D02*
X0169923Y0440494D01*
X0169933Y0440532D02*
X0163757Y0440532D01*
X0163747Y0440570D02*
X0169943Y0440570D01*
X0169953Y0440608D02*
X0163737Y0440608D01*
X0163727Y0440645D02*
X0169963Y0440645D01*
X0169974Y0440683D02*
X0163717Y0440683D01*
X0163707Y0440721D02*
X0169984Y0440721D01*
X0169994Y0440759D02*
X0163696Y0440759D01*
X0163686Y0440797D02*
X0170004Y0440797D01*
X0170014Y0440835D02*
X0163676Y0440835D01*
X0163666Y0440873D02*
X0170024Y0440873D01*
X0170028Y0440911D02*
X0163663Y0440911D01*
X0163659Y0440949D02*
X0170031Y0440949D01*
X0170034Y0440986D02*
X0163656Y0440986D01*
X0163653Y0441024D02*
X0170038Y0441024D01*
X0170041Y0441062D02*
X0163649Y0441062D01*
X0163646Y0441100D02*
X0170044Y0441100D01*
X0170048Y0441138D02*
X0163643Y0441138D01*
X0163639Y0441176D02*
X0170051Y0441176D01*
X0170054Y0441214D02*
X0163636Y0441214D01*
X0163633Y0441252D02*
X0170058Y0441252D01*
X0170061Y0441289D02*
X0163629Y0441289D01*
X0163626Y0441327D02*
X0170064Y0441327D01*
X0170068Y0441365D02*
X0163623Y0441365D01*
X0163619Y0441403D02*
X0170071Y0441403D01*
X0170073Y0441441D02*
X0163617Y0441441D01*
X0163621Y0441479D02*
X0170069Y0441479D01*
X0170066Y0441517D02*
X0163624Y0441517D01*
X0163627Y0441555D02*
X0170063Y0441555D01*
X0170059Y0441593D02*
X0163631Y0441593D01*
X0163634Y0441630D02*
X0170056Y0441630D01*
X0170053Y0441668D02*
X0163637Y0441668D01*
X0163641Y0441706D02*
X0170050Y0441706D01*
X0170046Y0441744D02*
X0163644Y0441744D01*
X0163647Y0441782D02*
X0170043Y0441782D01*
X0170040Y0441820D02*
X0163651Y0441820D01*
X0163654Y0441858D02*
X0170036Y0441858D01*
X0170033Y0441896D02*
X0163657Y0441896D01*
X0163661Y0441933D02*
X0170030Y0441933D01*
X0170026Y0441971D02*
X0163664Y0441971D01*
X0163670Y0442009D02*
X0170020Y0442009D01*
X0170010Y0442047D02*
X0163680Y0442047D01*
X0163690Y0442085D02*
X0170000Y0442085D01*
X0169990Y0442123D02*
X0163701Y0442123D01*
X0163711Y0442161D02*
X0169980Y0442161D01*
X0169969Y0442199D02*
X0163721Y0442199D01*
X0163731Y0442237D02*
X0169959Y0442237D01*
X0169949Y0442274D02*
X0163741Y0442274D01*
X0163751Y0442312D02*
X0169939Y0442312D01*
X0169929Y0442350D02*
X0163762Y0442350D01*
X0163772Y0442388D02*
X0169919Y0442388D01*
X0169908Y0442426D02*
X0163782Y0442426D01*
X0163792Y0442464D02*
X0169898Y0442464D01*
X0169888Y0442502D02*
X0163802Y0442502D01*
X0163813Y0442540D02*
X0169878Y0442540D01*
X0169860Y0442577D02*
X0163830Y0442577D01*
X0163848Y0442615D02*
X0169842Y0442615D01*
X0169825Y0442653D02*
X0163866Y0442653D01*
X0163883Y0442691D02*
X0169807Y0442691D01*
X0169789Y0442729D02*
X0163901Y0442729D01*
X0163919Y0442767D02*
X0169772Y0442767D01*
X0169754Y0442805D02*
X0163936Y0442805D01*
X0163954Y0442843D02*
X0169736Y0442843D01*
X0169719Y0442880D02*
X0163972Y0442880D01*
X0163989Y0442918D02*
X0169701Y0442918D01*
X0169683Y0442956D02*
X0164007Y0442956D01*
X0164025Y0442994D02*
X0169666Y0442994D01*
X0169648Y0443032D02*
X0164042Y0443032D01*
X0164065Y0443070D02*
X0169625Y0443070D01*
X0169598Y0443108D02*
X0164092Y0443108D01*
X0164118Y0443146D02*
X0169572Y0443146D01*
X0169545Y0443184D02*
X0164145Y0443184D01*
X0164171Y0443221D02*
X0169519Y0443221D01*
X0169493Y0443259D02*
X0164198Y0443259D01*
X0164224Y0443297D02*
X0169466Y0443297D01*
X0169440Y0443335D02*
X0164251Y0443335D01*
X0164277Y0443373D02*
X0169413Y0443373D01*
X0169387Y0443411D02*
X0164304Y0443411D01*
X0164330Y0443449D02*
X0169360Y0443449D01*
X0169334Y0443487D02*
X0164357Y0443487D01*
X0164388Y0443524D02*
X0169302Y0443524D01*
X0169264Y0443562D02*
X0164426Y0443562D01*
X0164464Y0443600D02*
X0169226Y0443600D01*
X0169189Y0443638D02*
X0164502Y0443638D01*
X0164540Y0443676D02*
X0169151Y0443676D01*
X0169113Y0443714D02*
X0164578Y0443714D01*
X0164615Y0443752D02*
X0169075Y0443752D01*
X0169037Y0443790D02*
X0164653Y0443790D01*
X0164691Y0443828D02*
X0168999Y0443828D01*
X0168961Y0443865D02*
X0164729Y0443865D01*
X0164767Y0443903D02*
X0168923Y0443903D01*
X0168870Y0443941D02*
X0164820Y0443941D01*
X0164874Y0443979D02*
X0168816Y0443979D01*
X0168762Y0444017D02*
X0164928Y0444017D01*
X0164982Y0444055D02*
X0168708Y0444055D01*
X0168654Y0444093D02*
X0165036Y0444093D01*
X0165091Y0444131D02*
X0168600Y0444131D01*
X0168546Y0444168D02*
X0165145Y0444168D01*
X0165199Y0444206D02*
X0168491Y0444206D01*
X0168426Y0444244D02*
X0165264Y0444244D01*
X0165345Y0444282D02*
X0168345Y0444282D01*
X0168264Y0444320D02*
X0165427Y0444320D01*
X0165508Y0444358D02*
X0168182Y0444358D01*
X0168101Y0444396D02*
X0165589Y0444396D01*
X0165670Y0444434D02*
X0168020Y0444434D01*
X0167931Y0444472D02*
X0165759Y0444472D01*
X0165901Y0444509D02*
X0167790Y0444509D01*
X0167648Y0444547D02*
X0166042Y0444547D01*
X0166184Y0444585D02*
X0167507Y0444585D01*
X0167282Y0444623D02*
X0166408Y0444623D01*
X0166839Y0444661D02*
X0166851Y0444661D01*
X0166845Y0448205D02*
X0167406Y0448254D01*
X0167949Y0448400D01*
X0168459Y0448637D01*
X0168920Y0448960D01*
X0169318Y0449358D01*
X0169641Y0449819D01*
X0169879Y0450329D01*
X0170024Y0450872D01*
X0170073Y0451433D01*
X0170024Y0451994D01*
X0169879Y0452537D01*
X0169641Y0453047D01*
X0169318Y0453508D01*
X0168920Y0453906D01*
X0168459Y0454229D01*
X0167949Y0454467D01*
X0167406Y0454612D01*
X0166845Y0454661D01*
X0166285Y0454612D01*
X0165741Y0454467D01*
X0165231Y0454229D01*
X0164770Y0453906D01*
X0164372Y0453508D01*
X0164049Y0453047D01*
X0163812Y0452537D01*
X0163666Y0451994D01*
X0163617Y0451433D01*
X0163666Y0450872D01*
X0163812Y0450329D01*
X0164049Y0449819D01*
X0164372Y0449358D01*
X0164770Y0448960D01*
X0165231Y0448637D01*
X0165741Y0448400D01*
X0166285Y0448254D01*
X0166845Y0448205D01*
X0166651Y0448222D02*
X0167039Y0448222D01*
X0167427Y0448260D02*
X0166263Y0448260D01*
X0166122Y0448298D02*
X0167568Y0448298D01*
X0167710Y0448335D02*
X0165980Y0448335D01*
X0165839Y0448373D02*
X0167851Y0448373D01*
X0167974Y0448411D02*
X0165716Y0448411D01*
X0165635Y0448449D02*
X0168055Y0448449D01*
X0168137Y0448487D02*
X0165554Y0448487D01*
X0165472Y0448525D02*
X0168218Y0448525D01*
X0168299Y0448563D02*
X0165391Y0448563D01*
X0165310Y0448601D02*
X0168380Y0448601D01*
X0168461Y0448638D02*
X0165229Y0448638D01*
X0165175Y0448676D02*
X0168515Y0448676D01*
X0168569Y0448714D02*
X0165121Y0448714D01*
X0165067Y0448752D02*
X0168623Y0448752D01*
X0168677Y0448790D02*
X0165013Y0448790D01*
X0164959Y0448828D02*
X0168732Y0448828D01*
X0168786Y0448866D02*
X0164904Y0448866D01*
X0164850Y0448904D02*
X0168840Y0448904D01*
X0168894Y0448942D02*
X0164796Y0448942D01*
X0164750Y0448979D02*
X0168940Y0448979D01*
X0168978Y0449017D02*
X0164713Y0449017D01*
X0164675Y0449055D02*
X0169016Y0449055D01*
X0169054Y0449093D02*
X0164637Y0449093D01*
X0164599Y0449131D02*
X0169091Y0449131D01*
X0169129Y0449169D02*
X0164561Y0449169D01*
X0164523Y0449207D02*
X0169167Y0449207D01*
X0169205Y0449245D02*
X0164485Y0449245D01*
X0164447Y0449282D02*
X0169243Y0449282D01*
X0169281Y0449320D02*
X0164409Y0449320D01*
X0164372Y0449358D02*
X0169319Y0449358D01*
X0169345Y0449396D02*
X0164345Y0449396D01*
X0164319Y0449434D02*
X0169372Y0449434D01*
X0169398Y0449472D02*
X0164292Y0449472D01*
X0164266Y0449510D02*
X0169425Y0449510D01*
X0169451Y0449548D02*
X0164239Y0449548D01*
X0164213Y0449585D02*
X0169478Y0449585D01*
X0169504Y0449623D02*
X0164186Y0449623D01*
X0164160Y0449661D02*
X0169531Y0449661D01*
X0169557Y0449699D02*
X0164133Y0449699D01*
X0164107Y0449737D02*
X0169584Y0449737D01*
X0169610Y0449775D02*
X0164080Y0449775D01*
X0164054Y0449813D02*
X0169637Y0449813D01*
X0169656Y0449851D02*
X0164035Y0449851D01*
X0164017Y0449889D02*
X0169673Y0449889D01*
X0169691Y0449926D02*
X0163999Y0449926D01*
X0163982Y0449964D02*
X0169709Y0449964D01*
X0169726Y0450002D02*
X0163964Y0450002D01*
X0163946Y0450040D02*
X0169744Y0450040D01*
X0169762Y0450078D02*
X0163929Y0450078D01*
X0163911Y0450116D02*
X0169779Y0450116D01*
X0169797Y0450154D02*
X0163893Y0450154D01*
X0163876Y0450192D02*
X0169815Y0450192D01*
X0169832Y0450229D02*
X0163858Y0450229D01*
X0163840Y0450267D02*
X0169850Y0450267D01*
X0169868Y0450305D02*
X0163823Y0450305D01*
X0163808Y0450343D02*
X0169882Y0450343D01*
X0169893Y0450381D02*
X0163798Y0450381D01*
X0163788Y0450419D02*
X0169903Y0450419D01*
X0169913Y0450457D02*
X0163777Y0450457D01*
X0163767Y0450495D02*
X0169923Y0450495D01*
X0169933Y0450533D02*
X0163757Y0450533D01*
X0163747Y0450570D02*
X0169943Y0450570D01*
X0169953Y0450608D02*
X0163737Y0450608D01*
X0163727Y0450646D02*
X0169964Y0450646D01*
X0169974Y0450684D02*
X0163716Y0450684D01*
X0163706Y0450722D02*
X0169984Y0450722D01*
X0169994Y0450760D02*
X0163696Y0450760D01*
X0163686Y0450798D02*
X0170004Y0450798D01*
X0170014Y0450836D02*
X0163676Y0450836D01*
X0163666Y0450873D02*
X0170024Y0450873D01*
X0170028Y0450911D02*
X0163663Y0450911D01*
X0163659Y0450949D02*
X0170031Y0450949D01*
X0170034Y0450987D02*
X0163656Y0450987D01*
X0163653Y0451025D02*
X0170038Y0451025D01*
X0170041Y0451063D02*
X0163649Y0451063D01*
X0163646Y0451101D02*
X0170044Y0451101D01*
X0170048Y0451139D02*
X0163643Y0451139D01*
X0163639Y0451177D02*
X0170051Y0451177D01*
X0170054Y0451214D02*
X0163636Y0451214D01*
X0163633Y0451252D02*
X0170058Y0451252D01*
X0170061Y0451290D02*
X0163629Y0451290D01*
X0163626Y0451328D02*
X0170064Y0451328D01*
X0170068Y0451366D02*
X0163623Y0451366D01*
X0163619Y0451404D02*
X0170071Y0451404D01*
X0170073Y0451442D02*
X0163618Y0451442D01*
X0163621Y0451480D02*
X0170069Y0451480D01*
X0170066Y0451517D02*
X0163624Y0451517D01*
X0163628Y0451555D02*
X0170063Y0451555D01*
X0170059Y0451593D02*
X0163631Y0451593D01*
X0163634Y0451631D02*
X0170056Y0451631D01*
X0170053Y0451669D02*
X0163638Y0451669D01*
X0163641Y0451707D02*
X0170049Y0451707D01*
X0170046Y0451745D02*
X0163644Y0451745D01*
X0163647Y0451783D02*
X0170043Y0451783D01*
X0170039Y0451820D02*
X0163651Y0451820D01*
X0163654Y0451858D02*
X0170036Y0451858D01*
X0170033Y0451896D02*
X0163657Y0451896D01*
X0163661Y0451934D02*
X0170030Y0451934D01*
X0170026Y0451972D02*
X0163664Y0451972D01*
X0163670Y0452010D02*
X0170020Y0452010D01*
X0170010Y0452048D02*
X0163680Y0452048D01*
X0163691Y0452086D02*
X0170000Y0452086D01*
X0169989Y0452124D02*
X0163701Y0452124D01*
X0163711Y0452161D02*
X0169979Y0452161D01*
X0169969Y0452199D02*
X0163721Y0452199D01*
X0163731Y0452237D02*
X0169959Y0452237D01*
X0169949Y0452275D02*
X0163741Y0452275D01*
X0163752Y0452313D02*
X0169939Y0452313D01*
X0169929Y0452351D02*
X0163762Y0452351D01*
X0163772Y0452389D02*
X0169918Y0452389D01*
X0169908Y0452427D02*
X0163782Y0452427D01*
X0163792Y0452464D02*
X0169898Y0452464D01*
X0169888Y0452502D02*
X0163802Y0452502D01*
X0163813Y0452540D02*
X0169877Y0452540D01*
X0169860Y0452578D02*
X0163831Y0452578D01*
X0163848Y0452616D02*
X0169842Y0452616D01*
X0169824Y0452654D02*
X0163866Y0452654D01*
X0163884Y0452692D02*
X0169807Y0452692D01*
X0169789Y0452730D02*
X0163901Y0452730D01*
X0163919Y0452768D02*
X0169771Y0452768D01*
X0169754Y0452805D02*
X0163937Y0452805D01*
X0163954Y0452843D02*
X0169736Y0452843D01*
X0169718Y0452881D02*
X0163972Y0452881D01*
X0163990Y0452919D02*
X0169701Y0452919D01*
X0169683Y0452957D02*
X0164007Y0452957D01*
X0164025Y0452995D02*
X0169665Y0452995D01*
X0169648Y0453033D02*
X0164043Y0453033D01*
X0164066Y0453071D02*
X0169624Y0453071D01*
X0169598Y0453108D02*
X0164092Y0453108D01*
X0164119Y0453146D02*
X0169572Y0453146D01*
X0169545Y0453184D02*
X0164145Y0453184D01*
X0164172Y0453222D02*
X0169519Y0453222D01*
X0169492Y0453260D02*
X0164198Y0453260D01*
X0164225Y0453298D02*
X0169466Y0453298D01*
X0169439Y0453336D02*
X0164251Y0453336D01*
X0164278Y0453374D02*
X0169413Y0453374D01*
X0169386Y0453412D02*
X0164304Y0453412D01*
X0164331Y0453449D02*
X0169360Y0453449D01*
X0169333Y0453487D02*
X0164357Y0453487D01*
X0164389Y0453525D02*
X0169301Y0453525D01*
X0169264Y0453563D02*
X0164427Y0453563D01*
X0164465Y0453601D02*
X0169226Y0453601D01*
X0169188Y0453639D02*
X0164502Y0453639D01*
X0164540Y0453677D02*
X0169150Y0453677D01*
X0169112Y0453715D02*
X0164578Y0453715D01*
X0164616Y0453752D02*
X0169074Y0453752D01*
X0169036Y0453790D02*
X0164654Y0453790D01*
X0164692Y0453828D02*
X0168998Y0453828D01*
X0168961Y0453866D02*
X0164730Y0453866D01*
X0164768Y0453904D02*
X0168923Y0453904D01*
X0168870Y0453942D02*
X0164821Y0453942D01*
X0164875Y0453980D02*
X0168815Y0453980D01*
X0168761Y0454018D02*
X0164929Y0454018D01*
X0164983Y0454055D02*
X0168707Y0454055D01*
X0168653Y0454093D02*
X0165037Y0454093D01*
X0165092Y0454131D02*
X0168599Y0454131D01*
X0168545Y0454169D02*
X0165146Y0454169D01*
X0165200Y0454207D02*
X0168490Y0454207D01*
X0168425Y0454245D02*
X0165266Y0454245D01*
X0165347Y0454283D02*
X0168343Y0454283D01*
X0168262Y0454321D02*
X0165428Y0454321D01*
X0165509Y0454359D02*
X0168181Y0454359D01*
X0168100Y0454396D02*
X0165591Y0454396D01*
X0165672Y0454434D02*
X0168019Y0454434D01*
X0167928Y0454472D02*
X0165762Y0454472D01*
X0165903Y0454510D02*
X0167787Y0454510D01*
X0167646Y0454548D02*
X0166045Y0454548D01*
X0166186Y0454586D02*
X0167504Y0454586D01*
X0167275Y0454624D02*
X0166416Y0454624D01*
X0166643Y0458222D02*
X0167047Y0458222D01*
X0166845Y0458205D02*
X0167406Y0458254D01*
X0167949Y0458400D01*
X0168459Y0458637D01*
X0168920Y0458960D01*
X0169318Y0459358D01*
X0169641Y0459819D01*
X0169879Y0460329D01*
X0170024Y0460872D01*
X0170073Y0461433D01*
X0170024Y0461994D01*
X0169879Y0462537D01*
X0169641Y0463047D01*
X0169318Y0463508D01*
X0168920Y0463906D01*
X0168459Y0464229D01*
X0167949Y0464467D01*
X0167406Y0464612D01*
X0166845Y0464661D01*
X0166285Y0464612D01*
X0165741Y0464467D01*
X0165231Y0464229D01*
X0164770Y0463906D01*
X0164372Y0463508D01*
X0164049Y0463047D01*
X0163812Y0462537D01*
X0163666Y0461994D01*
X0163617Y0461433D01*
X0163666Y0460872D01*
X0163812Y0460329D01*
X0164049Y0459819D01*
X0164372Y0459358D01*
X0164770Y0458960D01*
X0165231Y0458637D01*
X0165741Y0458400D01*
X0166285Y0458254D01*
X0166845Y0458205D01*
X0166261Y0458260D02*
X0167430Y0458260D01*
X0167571Y0458298D02*
X0166119Y0458298D01*
X0165978Y0458336D02*
X0167712Y0458336D01*
X0167854Y0458374D02*
X0165836Y0458374D01*
X0165715Y0458412D02*
X0167976Y0458412D01*
X0168057Y0458450D02*
X0165633Y0458450D01*
X0165552Y0458488D02*
X0168138Y0458488D01*
X0168219Y0458526D02*
X0165471Y0458526D01*
X0165390Y0458563D02*
X0168301Y0458563D01*
X0168382Y0458601D02*
X0165308Y0458601D01*
X0165228Y0458639D02*
X0168462Y0458639D01*
X0168516Y0458677D02*
X0165174Y0458677D01*
X0165120Y0458715D02*
X0168570Y0458715D01*
X0168624Y0458753D02*
X0165066Y0458753D01*
X0165012Y0458791D02*
X0168678Y0458791D01*
X0168733Y0458829D02*
X0164958Y0458829D01*
X0164903Y0458866D02*
X0168787Y0458866D01*
X0168841Y0458904D02*
X0164849Y0458904D01*
X0164795Y0458942D02*
X0168895Y0458942D01*
X0168941Y0458980D02*
X0164750Y0458980D01*
X0164712Y0459018D02*
X0168978Y0459018D01*
X0169016Y0459056D02*
X0164674Y0459056D01*
X0164636Y0459094D02*
X0169054Y0459094D01*
X0169092Y0459132D02*
X0164598Y0459132D01*
X0164560Y0459169D02*
X0169130Y0459169D01*
X0169168Y0459207D02*
X0164522Y0459207D01*
X0164485Y0459245D02*
X0169206Y0459245D01*
X0169244Y0459283D02*
X0164447Y0459283D01*
X0164409Y0459321D02*
X0169282Y0459321D01*
X0169319Y0459359D02*
X0164371Y0459359D01*
X0164345Y0459397D02*
X0169346Y0459397D01*
X0169372Y0459435D02*
X0164318Y0459435D01*
X0164292Y0459473D02*
X0169399Y0459473D01*
X0169425Y0459510D02*
X0164265Y0459510D01*
X0164239Y0459548D02*
X0169452Y0459548D01*
X0169478Y0459586D02*
X0164212Y0459586D01*
X0164186Y0459624D02*
X0169505Y0459624D01*
X0169531Y0459662D02*
X0164159Y0459662D01*
X0164133Y0459700D02*
X0169558Y0459700D01*
X0169584Y0459738D02*
X0164106Y0459738D01*
X0164080Y0459776D02*
X0169611Y0459776D01*
X0169637Y0459813D02*
X0164053Y0459813D01*
X0164034Y0459851D02*
X0169656Y0459851D01*
X0169674Y0459889D02*
X0164017Y0459889D01*
X0163999Y0459927D02*
X0169691Y0459927D01*
X0169709Y0459965D02*
X0163981Y0459965D01*
X0163964Y0460003D02*
X0169727Y0460003D01*
X0169744Y0460041D02*
X0163946Y0460041D01*
X0163928Y0460079D02*
X0169762Y0460079D01*
X0169780Y0460117D02*
X0163911Y0460117D01*
X0163893Y0460154D02*
X0169797Y0460154D01*
X0169815Y0460192D02*
X0163875Y0460192D01*
X0163858Y0460230D02*
X0169833Y0460230D01*
X0169850Y0460268D02*
X0163840Y0460268D01*
X0163822Y0460306D02*
X0169868Y0460306D01*
X0169883Y0460344D02*
X0163808Y0460344D01*
X0163797Y0460382D02*
X0169893Y0460382D01*
X0169903Y0460420D02*
X0163787Y0460420D01*
X0163777Y0460457D02*
X0169913Y0460457D01*
X0169923Y0460495D02*
X0163767Y0460495D01*
X0163757Y0460533D02*
X0169933Y0460533D01*
X0169944Y0460571D02*
X0163747Y0460571D01*
X0163737Y0460609D02*
X0169954Y0460609D01*
X0169964Y0460647D02*
X0163726Y0460647D01*
X0163716Y0460685D02*
X0169974Y0460685D01*
X0169984Y0460723D02*
X0163706Y0460723D01*
X0163696Y0460761D02*
X0169994Y0460761D01*
X0170004Y0460798D02*
X0163686Y0460798D01*
X0163676Y0460836D02*
X0170015Y0460836D01*
X0170024Y0460874D02*
X0163666Y0460874D01*
X0163663Y0460912D02*
X0170028Y0460912D01*
X0170031Y0460950D02*
X0163659Y0460950D01*
X0163656Y0460988D02*
X0170034Y0460988D01*
X0170038Y0461026D02*
X0163653Y0461026D01*
X0163649Y0461064D02*
X0170041Y0461064D01*
X0170044Y0461101D02*
X0163646Y0461101D01*
X0163643Y0461139D02*
X0170048Y0461139D01*
X0170051Y0461177D02*
X0163639Y0461177D01*
X0163636Y0461215D02*
X0170054Y0461215D01*
X0170058Y0461253D02*
X0163633Y0461253D01*
X0163629Y0461291D02*
X0170061Y0461291D01*
X0170064Y0461329D02*
X0163626Y0461329D01*
X0163623Y0461367D02*
X0170068Y0461367D01*
X0170071Y0461404D02*
X0163619Y0461404D01*
X0163618Y0461442D02*
X0170073Y0461442D01*
X0170069Y0461480D02*
X0163621Y0461480D01*
X0163624Y0461518D02*
X0170066Y0461518D01*
X0170063Y0461556D02*
X0163628Y0461556D01*
X0163631Y0461594D02*
X0170059Y0461594D01*
X0170056Y0461632D02*
X0163634Y0461632D01*
X0163638Y0461670D02*
X0170053Y0461670D01*
X0170049Y0461708D02*
X0163641Y0461708D01*
X0163644Y0461745D02*
X0170046Y0461745D01*
X0170043Y0461783D02*
X0163648Y0461783D01*
X0163651Y0461821D02*
X0170039Y0461821D01*
X0170036Y0461859D02*
X0163654Y0461859D01*
X0163658Y0461897D02*
X0170033Y0461897D01*
X0170029Y0461935D02*
X0163661Y0461935D01*
X0163664Y0461973D02*
X0170026Y0461973D01*
X0170020Y0462011D02*
X0163671Y0462011D01*
X0163681Y0462048D02*
X0170010Y0462048D01*
X0169999Y0462086D02*
X0163691Y0462086D01*
X0163701Y0462124D02*
X0169989Y0462124D01*
X0169979Y0462162D02*
X0163711Y0462162D01*
X0163721Y0462200D02*
X0169969Y0462200D01*
X0169959Y0462238D02*
X0163731Y0462238D01*
X0163742Y0462276D02*
X0169949Y0462276D01*
X0169939Y0462314D02*
X0163752Y0462314D01*
X0163762Y0462352D02*
X0169928Y0462352D01*
X0169918Y0462389D02*
X0163772Y0462389D01*
X0163782Y0462427D02*
X0169908Y0462427D01*
X0169898Y0462465D02*
X0163792Y0462465D01*
X0163802Y0462503D02*
X0169888Y0462503D01*
X0169877Y0462541D02*
X0163813Y0462541D01*
X0163831Y0462579D02*
X0169859Y0462579D01*
X0169842Y0462617D02*
X0163849Y0462617D01*
X0163866Y0462655D02*
X0169824Y0462655D01*
X0169806Y0462692D02*
X0163884Y0462692D01*
X0163902Y0462730D02*
X0169789Y0462730D01*
X0169771Y0462768D02*
X0163919Y0462768D01*
X0163937Y0462806D02*
X0169753Y0462806D01*
X0169736Y0462844D02*
X0163955Y0462844D01*
X0163972Y0462882D02*
X0169718Y0462882D01*
X0169700Y0462920D02*
X0163990Y0462920D01*
X0164008Y0462958D02*
X0169683Y0462958D01*
X0169665Y0462996D02*
X0164025Y0462996D01*
X0164043Y0463033D02*
X0169647Y0463033D01*
X0169624Y0463071D02*
X0164066Y0463071D01*
X0164093Y0463109D02*
X0169598Y0463109D01*
X0169571Y0463147D02*
X0164119Y0463147D01*
X0164146Y0463185D02*
X0169545Y0463185D01*
X0169518Y0463223D02*
X0164172Y0463223D01*
X0164199Y0463261D02*
X0169492Y0463261D01*
X0169465Y0463299D02*
X0164225Y0463299D01*
X0164252Y0463336D02*
X0169439Y0463336D01*
X0169412Y0463374D02*
X0164278Y0463374D01*
X0164305Y0463412D02*
X0169386Y0463412D01*
X0169359Y0463450D02*
X0164331Y0463450D01*
X0164358Y0463488D02*
X0169333Y0463488D01*
X0169301Y0463526D02*
X0164389Y0463526D01*
X0164427Y0463564D02*
X0169263Y0463564D01*
X0169225Y0463602D02*
X0164465Y0463602D01*
X0164503Y0463639D02*
X0169187Y0463639D01*
X0169149Y0463677D02*
X0164541Y0463677D01*
X0164579Y0463715D02*
X0169111Y0463715D01*
X0169073Y0463753D02*
X0164617Y0463753D01*
X0164655Y0463791D02*
X0169036Y0463791D01*
X0168998Y0463829D02*
X0164693Y0463829D01*
X0164730Y0463867D02*
X0168960Y0463867D01*
X0168922Y0463905D02*
X0164768Y0463905D01*
X0164822Y0463943D02*
X0168869Y0463943D01*
X0168814Y0463980D02*
X0164876Y0463980D01*
X0164930Y0464018D02*
X0168760Y0464018D01*
X0168706Y0464056D02*
X0164984Y0464056D01*
X0165038Y0464094D02*
X0168652Y0464094D01*
X0168598Y0464132D02*
X0165093Y0464132D01*
X0165147Y0464170D02*
X0168544Y0464170D01*
X0168489Y0464208D02*
X0165201Y0464208D01*
X0165267Y0464246D02*
X0168423Y0464246D01*
X0168342Y0464283D02*
X0165348Y0464283D01*
X0165430Y0464321D02*
X0168261Y0464321D01*
X0168180Y0464359D02*
X0165511Y0464359D01*
X0165592Y0464397D02*
X0168098Y0464397D01*
X0168017Y0464435D02*
X0165673Y0464435D01*
X0165765Y0464473D02*
X0167926Y0464473D01*
X0167784Y0464511D02*
X0165906Y0464511D01*
X0166047Y0464549D02*
X0167643Y0464549D01*
X0167502Y0464587D02*
X0166189Y0464587D01*
X0166424Y0464624D02*
X0167267Y0464624D01*
X0170071Y0411401D02*
X0163620Y0411401D01*
X0163623Y0411363D02*
X0170067Y0411363D01*
X0170064Y0411325D02*
X0163626Y0411325D01*
X0163630Y0411287D02*
X0170061Y0411287D01*
X0170057Y0411250D02*
X0163633Y0411250D01*
X0163636Y0411212D02*
X0170054Y0411212D01*
X0170051Y0411174D02*
X0163640Y0411174D01*
X0163643Y0411136D02*
X0170047Y0411136D01*
X0170044Y0411098D02*
X0163646Y0411098D01*
X0163650Y0411060D02*
X0170041Y0411060D01*
X0170037Y0411022D02*
X0163653Y0411022D01*
X0163656Y0410984D02*
X0170034Y0410984D01*
X0170031Y0410946D02*
X0163659Y0410946D01*
X0163663Y0410909D02*
X0170027Y0410909D01*
X0170024Y0410871D02*
X0163666Y0410871D01*
X0163677Y0410833D02*
X0170014Y0410833D01*
X0170004Y0410795D02*
X0163687Y0410795D01*
X0163697Y0410757D02*
X0169993Y0410757D01*
X0169983Y0410719D02*
X0163707Y0410719D01*
X0163717Y0410681D02*
X0169973Y0410681D01*
X0169963Y0410643D02*
X0163727Y0410643D01*
X0163738Y0410606D02*
X0169953Y0410606D01*
X0169943Y0410568D02*
X0163748Y0410568D01*
X0163758Y0410530D02*
X0169932Y0410530D01*
X0169922Y0410492D02*
X0163768Y0410492D01*
X0163778Y0410454D02*
X0169912Y0410454D01*
X0169902Y0410416D02*
X0163788Y0410416D01*
X0163798Y0410378D02*
X0169892Y0410378D01*
X0169882Y0410340D02*
X0163809Y0410340D01*
X0163824Y0410302D02*
X0169866Y0410302D01*
X0169849Y0410265D02*
X0163842Y0410265D01*
X0163859Y0410227D02*
X0169831Y0410227D01*
X0169813Y0410189D02*
X0163877Y0410189D01*
X0163895Y0410151D02*
X0169796Y0410151D01*
X0169778Y0410113D02*
X0163912Y0410113D01*
X0163930Y0410075D02*
X0169760Y0410075D01*
X0169743Y0410037D02*
X0163948Y0410037D01*
X0163965Y0409999D02*
X0169725Y0409999D01*
X0169707Y0409962D02*
X0163983Y0409962D01*
X0164001Y0409924D02*
X0169690Y0409924D01*
X0169672Y0409886D02*
X0164018Y0409886D01*
X0164036Y0409848D02*
X0169654Y0409848D01*
X0169635Y0409810D02*
X0164056Y0409810D01*
X0164082Y0409772D02*
X0169608Y0409772D01*
X0169582Y0409734D02*
X0164109Y0409734D01*
X0164135Y0409696D02*
X0169555Y0409696D01*
X0169529Y0409659D02*
X0164162Y0409659D01*
X0164188Y0409621D02*
X0169502Y0409621D01*
X0169476Y0409583D02*
X0164215Y0409583D01*
X0164241Y0409545D02*
X0169449Y0409545D01*
X0169423Y0409507D02*
X0164268Y0409507D01*
X0164294Y0409469D02*
X0169396Y0409469D01*
X0169370Y0409431D02*
X0164321Y0409431D01*
X0164347Y0409393D02*
X0169343Y0409393D01*
X0169316Y0409355D02*
X0164374Y0409355D01*
X0164412Y0409318D02*
X0169278Y0409318D01*
X0169240Y0409280D02*
X0164450Y0409280D01*
X0164488Y0409242D02*
X0169202Y0409242D01*
X0169164Y0409204D02*
X0164526Y0409204D01*
X0164564Y0409166D02*
X0169127Y0409166D01*
X0169089Y0409128D02*
X0164602Y0409128D01*
X0164640Y0409090D02*
X0169051Y0409090D01*
X0169013Y0409052D02*
X0164677Y0409052D01*
X0164715Y0409015D02*
X0168975Y0409015D01*
X0168937Y0408977D02*
X0164753Y0408977D01*
X0164800Y0408939D02*
X0168890Y0408939D01*
X0168836Y0408901D02*
X0164854Y0408901D01*
X0164908Y0408863D02*
X0168782Y0408863D01*
X0168728Y0408825D02*
X0164963Y0408825D01*
X0165017Y0408787D02*
X0168674Y0408787D01*
X0168619Y0408749D02*
X0165071Y0408749D01*
X0165125Y0408711D02*
X0168565Y0408711D01*
X0168511Y0408674D02*
X0165179Y0408674D01*
X0165235Y0408636D02*
X0168456Y0408636D01*
X0168374Y0408598D02*
X0165316Y0408598D01*
X0165397Y0408560D02*
X0168293Y0408560D01*
X0168212Y0408522D02*
X0165478Y0408522D01*
X0165559Y0408484D02*
X0168131Y0408484D01*
X0168050Y0408446D02*
X0165641Y0408446D01*
X0165722Y0408408D02*
X0167968Y0408408D01*
X0167841Y0408371D02*
X0165849Y0408371D01*
X0165991Y0408333D02*
X0167700Y0408333D01*
X0167558Y0408295D02*
X0166132Y0408295D01*
X0166273Y0408257D02*
X0167417Y0408257D01*
X0167008Y0408219D02*
X0166682Y0408219D01*
X0166845Y0404661D02*
X0166285Y0404612D01*
X0165741Y0404467D01*
X0165231Y0404229D01*
X0164770Y0403906D01*
X0164372Y0403508D01*
X0164049Y0403047D01*
X0163812Y0402537D01*
X0169879Y0402537D01*
X0169641Y0403047D01*
X0169318Y0403508D01*
X0168920Y0403906D01*
X0168459Y0404229D01*
X0167949Y0404467D01*
X0167406Y0404612D01*
X0166845Y0404661D01*
X0166808Y0404658D02*
X0166882Y0404658D01*
X0167314Y0404620D02*
X0166376Y0404620D01*
X0166173Y0404582D02*
X0167517Y0404582D01*
X0167658Y0404545D02*
X0166032Y0404545D01*
X0165890Y0404507D02*
X0167800Y0404507D01*
X0167941Y0404469D02*
X0165749Y0404469D01*
X0165664Y0404431D02*
X0168026Y0404431D01*
X0168107Y0404393D02*
X0165583Y0404393D01*
X0165502Y0404355D02*
X0168188Y0404355D01*
X0168270Y0404317D02*
X0165421Y0404317D01*
X0165339Y0404279D02*
X0168351Y0404279D01*
X0168432Y0404241D02*
X0165258Y0404241D01*
X0165195Y0404204D02*
X0168495Y0404204D01*
X0168549Y0404166D02*
X0165141Y0404166D01*
X0165087Y0404128D02*
X0168604Y0404128D01*
X0168658Y0404090D02*
X0165033Y0404090D01*
X0164978Y0404052D02*
X0168712Y0404052D01*
X0168766Y0404014D02*
X0164924Y0404014D01*
X0164870Y0403976D02*
X0168820Y0403976D01*
X0168874Y0403938D02*
X0164816Y0403938D01*
X0164764Y0403901D02*
X0168926Y0403901D01*
X0168964Y0403863D02*
X0164726Y0403863D01*
X0164688Y0403825D02*
X0169002Y0403825D01*
X0169040Y0403787D02*
X0164651Y0403787D01*
X0164613Y0403749D02*
X0169078Y0403749D01*
X0169116Y0403711D02*
X0164575Y0403711D01*
X0164537Y0403673D02*
X0169153Y0403673D01*
X0169191Y0403635D02*
X0164499Y0403635D01*
X0164461Y0403597D02*
X0169229Y0403597D01*
X0169267Y0403560D02*
X0164423Y0403560D01*
X0164385Y0403522D02*
X0169305Y0403522D01*
X0169335Y0403484D02*
X0164355Y0403484D01*
X0164328Y0403446D02*
X0169362Y0403446D01*
X0169388Y0403408D02*
X0164302Y0403408D01*
X0164275Y0403370D02*
X0169415Y0403370D01*
X0169441Y0403332D02*
X0164249Y0403332D01*
X0164222Y0403294D02*
X0169468Y0403294D01*
X0169494Y0403257D02*
X0164196Y0403257D01*
X0164169Y0403219D02*
X0169521Y0403219D01*
X0169547Y0403181D02*
X0164143Y0403181D01*
X0164116Y0403143D02*
X0169574Y0403143D01*
X0169600Y0403105D02*
X0164090Y0403105D01*
X0164063Y0403067D02*
X0169627Y0403067D01*
X0169649Y0403029D02*
X0164041Y0403029D01*
X0164023Y0402991D02*
X0169667Y0402991D01*
X0169685Y0402953D02*
X0164006Y0402953D01*
X0163988Y0402916D02*
X0169702Y0402916D01*
X0169720Y0402878D02*
X0163970Y0402878D01*
X0163953Y0402840D02*
X0169738Y0402840D01*
X0169755Y0402802D02*
X0163935Y0402802D01*
X0163917Y0402764D02*
X0169773Y0402764D01*
X0169791Y0402726D02*
X0163900Y0402726D01*
X0163882Y0402688D02*
X0169808Y0402688D01*
X0169826Y0402650D02*
X0163864Y0402650D01*
X0163847Y0402613D02*
X0169844Y0402613D01*
X0169861Y0402575D02*
X0163829Y0402575D01*
X0163812Y0402537D02*
X0163666Y0401994D01*
X0163617Y0401433D01*
X0163666Y0400872D01*
X0163812Y0400329D01*
X0164049Y0399819D01*
X0164372Y0399358D01*
X0164770Y0398960D01*
X0165231Y0398637D01*
X0165741Y0398400D01*
X0166285Y0398254D01*
X0166845Y0398205D01*
X0167406Y0398254D01*
X0167949Y0398400D01*
X0168459Y0398637D01*
X0168920Y0398960D01*
X0169318Y0399358D01*
X0169641Y0399819D01*
X0169879Y0400329D01*
X0170024Y0400872D01*
X0170073Y0401433D01*
X0170024Y0401994D01*
X0169879Y0402537D01*
X0169889Y0402499D02*
X0163801Y0402499D01*
X0163791Y0402461D02*
X0169899Y0402461D01*
X0169909Y0402423D02*
X0163781Y0402423D01*
X0163771Y0402385D02*
X0169919Y0402385D01*
X0169930Y0402347D02*
X0163761Y0402347D01*
X0163751Y0402310D02*
X0169940Y0402310D01*
X0169950Y0402272D02*
X0163740Y0402272D01*
X0163730Y0402234D02*
X0169960Y0402234D01*
X0169970Y0402196D02*
X0163720Y0402196D01*
X0163710Y0402158D02*
X0169980Y0402158D01*
X0169990Y0402120D02*
X0163700Y0402120D01*
X0163690Y0402082D02*
X0170001Y0402082D01*
X0170011Y0402044D02*
X0163680Y0402044D01*
X0163669Y0402006D02*
X0170021Y0402006D01*
X0170026Y0401969D02*
X0163664Y0401969D01*
X0163660Y0401931D02*
X0170030Y0401931D01*
X0170033Y0401893D02*
X0163657Y0401893D01*
X0163654Y0401855D02*
X0170036Y0401855D01*
X0170040Y0401817D02*
X0163651Y0401817D01*
X0163647Y0401779D02*
X0170043Y0401779D01*
X0170046Y0401741D02*
X0163644Y0401741D01*
X0163641Y0401703D02*
X0170050Y0401703D01*
X0170053Y0401666D02*
X0163637Y0401666D01*
X0163634Y0401628D02*
X0170056Y0401628D01*
X0170060Y0401590D02*
X0163631Y0401590D01*
X0163627Y0401552D02*
X0170063Y0401552D01*
X0170066Y0401514D02*
X0163624Y0401514D01*
X0163621Y0401476D02*
X0170070Y0401476D01*
X0170073Y0401438D02*
X0163617Y0401438D01*
X0163620Y0401400D02*
X0170071Y0401400D01*
X0170067Y0401362D02*
X0163623Y0401362D01*
X0163626Y0401325D02*
X0170064Y0401325D01*
X0170061Y0401287D02*
X0163630Y0401287D01*
X0163633Y0401249D02*
X0170057Y0401249D01*
X0170054Y0401211D02*
X0163636Y0401211D01*
X0163640Y0401173D02*
X0170051Y0401173D01*
X0170047Y0401135D02*
X0163643Y0401135D01*
X0163646Y0401097D02*
X0170044Y0401097D01*
X0170041Y0401059D02*
X0163650Y0401059D01*
X0163653Y0401022D02*
X0170037Y0401022D01*
X0170034Y0400984D02*
X0163656Y0400984D01*
X0163660Y0400946D02*
X0170031Y0400946D01*
X0170027Y0400908D02*
X0163663Y0400908D01*
X0163667Y0400870D02*
X0170024Y0400870D01*
X0170013Y0400832D02*
X0163677Y0400832D01*
X0163687Y0400794D02*
X0170003Y0400794D01*
X0169993Y0400756D02*
X0163697Y0400756D01*
X0163707Y0400718D02*
X0169983Y0400718D01*
X0169973Y0400681D02*
X0163717Y0400681D01*
X0163728Y0400643D02*
X0169963Y0400643D01*
X0169953Y0400605D02*
X0163738Y0400605D01*
X0163748Y0400567D02*
X0169942Y0400567D01*
X0169932Y0400529D02*
X0163758Y0400529D01*
X0163768Y0400491D02*
X0169922Y0400491D01*
X0169912Y0400453D02*
X0163778Y0400453D01*
X0163788Y0400415D02*
X0169902Y0400415D01*
X0169892Y0400378D02*
X0163799Y0400378D01*
X0163809Y0400340D02*
X0169882Y0400340D01*
X0169866Y0400302D02*
X0163824Y0400302D01*
X0163842Y0400264D02*
X0169848Y0400264D01*
X0169831Y0400226D02*
X0163860Y0400226D01*
X0163877Y0400188D02*
X0169813Y0400188D01*
X0169795Y0400150D02*
X0163895Y0400150D01*
X0163913Y0400112D02*
X0169778Y0400112D01*
X0169760Y0400075D02*
X0163930Y0400075D01*
X0163948Y0400037D02*
X0169742Y0400037D01*
X0169725Y0399999D02*
X0163966Y0399999D01*
X0163983Y0399961D02*
X0169707Y0399961D01*
X0169689Y0399923D02*
X0164001Y0399923D01*
X0164019Y0399885D02*
X0169672Y0399885D01*
X0169654Y0399847D02*
X0164036Y0399847D01*
X0164056Y0399809D02*
X0169634Y0399809D01*
X0169608Y0399771D02*
X0164083Y0399771D01*
X0164109Y0399734D02*
X0169581Y0399734D01*
X0169555Y0399696D02*
X0164136Y0399696D01*
X0164162Y0399658D02*
X0169528Y0399658D01*
X0169502Y0399620D02*
X0164189Y0399620D01*
X0164215Y0399582D02*
X0169475Y0399582D01*
X0169449Y0399544D02*
X0164242Y0399544D01*
X0164268Y0399506D02*
X0169422Y0399506D01*
X0169396Y0399468D02*
X0164295Y0399468D01*
X0164321Y0399431D02*
X0169369Y0399431D01*
X0169343Y0399393D02*
X0164348Y0399393D01*
X0164375Y0399355D02*
X0169315Y0399355D01*
X0169277Y0399317D02*
X0164413Y0399317D01*
X0164451Y0399279D02*
X0169239Y0399279D01*
X0169202Y0399241D02*
X0164489Y0399241D01*
X0164527Y0399203D02*
X0169164Y0399203D01*
X0169126Y0399165D02*
X0164564Y0399165D01*
X0164602Y0399127D02*
X0169088Y0399127D01*
X0169050Y0399090D02*
X0164640Y0399090D01*
X0164678Y0399052D02*
X0169012Y0399052D01*
X0168974Y0399014D02*
X0164716Y0399014D01*
X0164754Y0398976D02*
X0168936Y0398976D01*
X0168889Y0398938D02*
X0164801Y0398938D01*
X0164855Y0398900D02*
X0168835Y0398900D01*
X0168781Y0398862D02*
X0164909Y0398862D01*
X0164964Y0398824D02*
X0168727Y0398824D01*
X0168673Y0398787D02*
X0165018Y0398787D01*
X0165072Y0398749D02*
X0168618Y0398749D01*
X0168564Y0398711D02*
X0165126Y0398711D01*
X0165180Y0398673D02*
X0168510Y0398673D01*
X0168454Y0398635D02*
X0165236Y0398635D01*
X0165317Y0398597D02*
X0168373Y0398597D01*
X0168292Y0398559D02*
X0165399Y0398559D01*
X0165480Y0398521D02*
X0168211Y0398521D01*
X0168129Y0398483D02*
X0165561Y0398483D01*
X0165642Y0398446D02*
X0168048Y0398446D01*
X0167967Y0398408D02*
X0165723Y0398408D01*
X0165852Y0398370D02*
X0167838Y0398370D01*
X0167697Y0398332D02*
X0165993Y0398332D01*
X0166135Y0398294D02*
X0167556Y0398294D01*
X0167414Y0398256D02*
X0166276Y0398256D01*
X0166690Y0398218D02*
X0167000Y0398218D01*
X0166845Y0394661D02*
X0166285Y0394612D01*
X0165741Y0394467D01*
X0165231Y0394229D01*
X0164770Y0393906D01*
X0164372Y0393508D01*
X0164049Y0393047D01*
X0163812Y0392537D01*
X0163666Y0391994D01*
X0163617Y0391433D01*
X0163666Y0390872D01*
X0163812Y0390329D01*
X0164049Y0389819D01*
X0164372Y0389358D01*
X0164770Y0388960D01*
X0165231Y0388637D01*
X0165741Y0388400D01*
X0166285Y0388254D01*
X0166845Y0388205D01*
X0167406Y0388254D01*
X0167949Y0388400D01*
X0168459Y0388637D01*
X0168920Y0388960D01*
X0169318Y0389358D01*
X0169641Y0389819D01*
X0169879Y0390329D01*
X0170024Y0390872D01*
X0170073Y0391433D01*
X0170024Y0391994D01*
X0169879Y0392537D01*
X0169641Y0393047D01*
X0169318Y0393508D01*
X0168920Y0393906D01*
X0168459Y0394229D01*
X0167949Y0394467D01*
X0167406Y0394612D01*
X0166845Y0394661D01*
X0166800Y0394657D02*
X0166890Y0394657D01*
X0167322Y0394620D02*
X0166369Y0394620D01*
X0166171Y0394582D02*
X0167520Y0394582D01*
X0167661Y0394544D02*
X0166029Y0394544D01*
X0165888Y0394506D02*
X0167802Y0394506D01*
X0167944Y0394468D02*
X0165747Y0394468D01*
X0165663Y0394430D02*
X0168027Y0394430D01*
X0168109Y0394392D02*
X0165582Y0394392D01*
X0165500Y0394354D02*
X0168190Y0394354D01*
X0168271Y0394317D02*
X0165419Y0394317D01*
X0165338Y0394279D02*
X0168352Y0394279D01*
X0168434Y0394241D02*
X0165257Y0394241D01*
X0165194Y0394203D02*
X0168496Y0394203D01*
X0168550Y0394165D02*
X0165140Y0394165D01*
X0165086Y0394127D02*
X0168605Y0394127D01*
X0168659Y0394089D02*
X0165032Y0394089D01*
X0164977Y0394051D02*
X0168713Y0394051D01*
X0168767Y0394013D02*
X0164923Y0394013D01*
X0164869Y0393976D02*
X0168821Y0393976D01*
X0168875Y0393938D02*
X0164815Y0393938D01*
X0164763Y0393900D02*
X0168927Y0393900D01*
X0168965Y0393862D02*
X0164726Y0393862D01*
X0164688Y0393824D02*
X0169003Y0393824D01*
X0169040Y0393786D02*
X0164650Y0393786D01*
X0164612Y0393748D02*
X0169078Y0393748D01*
X0169116Y0393710D02*
X0164574Y0393710D01*
X0164536Y0393673D02*
X0169154Y0393673D01*
X0169192Y0393635D02*
X0164498Y0393635D01*
X0164460Y0393597D02*
X0169230Y0393597D01*
X0169268Y0393559D02*
X0164423Y0393559D01*
X0164385Y0393521D02*
X0169306Y0393521D01*
X0169336Y0393483D02*
X0164354Y0393483D01*
X0164328Y0393445D02*
X0169362Y0393445D01*
X0169389Y0393407D02*
X0164301Y0393407D01*
X0164275Y0393370D02*
X0169415Y0393370D01*
X0169442Y0393332D02*
X0164248Y0393332D01*
X0164222Y0393294D02*
X0169468Y0393294D01*
X0169495Y0393256D02*
X0164195Y0393256D01*
X0164169Y0393218D02*
X0169521Y0393218D01*
X0169548Y0393180D02*
X0164142Y0393180D01*
X0164116Y0393142D02*
X0169574Y0393142D01*
X0169601Y0393104D02*
X0164089Y0393104D01*
X0164063Y0393066D02*
X0169627Y0393066D01*
X0169650Y0393029D02*
X0164041Y0393029D01*
X0164023Y0392991D02*
X0169667Y0392991D01*
X0169685Y0392953D02*
X0164005Y0392953D01*
X0163988Y0392915D02*
X0169703Y0392915D01*
X0169720Y0392877D02*
X0163970Y0392877D01*
X0163952Y0392839D02*
X0169738Y0392839D01*
X0169756Y0392801D02*
X0163935Y0392801D01*
X0163917Y0392763D02*
X0169773Y0392763D01*
X0169791Y0392726D02*
X0163899Y0392726D01*
X0163882Y0392688D02*
X0169809Y0392688D01*
X0169826Y0392650D02*
X0163864Y0392650D01*
X0163846Y0392612D02*
X0169844Y0392612D01*
X0169862Y0392574D02*
X0163829Y0392574D01*
X0163811Y0392536D02*
X0169879Y0392536D01*
X0169889Y0392498D02*
X0163801Y0392498D01*
X0163791Y0392460D02*
X0169899Y0392460D01*
X0169909Y0392422D02*
X0163781Y0392422D01*
X0163771Y0392385D02*
X0169920Y0392385D01*
X0169930Y0392347D02*
X0163761Y0392347D01*
X0163750Y0392309D02*
X0169940Y0392309D01*
X0169950Y0392271D02*
X0163740Y0392271D01*
X0163730Y0392233D02*
X0169960Y0392233D01*
X0169970Y0392195D02*
X0163720Y0392195D01*
X0163710Y0392157D02*
X0169980Y0392157D01*
X0169991Y0392119D02*
X0163700Y0392119D01*
X0163690Y0392082D02*
X0170001Y0392082D01*
X0170011Y0392044D02*
X0163679Y0392044D01*
X0163669Y0392006D02*
X0170021Y0392006D01*
X0170027Y0391968D02*
X0163664Y0391968D01*
X0163660Y0391930D02*
X0170030Y0391930D01*
X0170033Y0391892D02*
X0163657Y0391892D01*
X0163654Y0391854D02*
X0170037Y0391854D01*
X0170040Y0391816D02*
X0163650Y0391816D01*
X0163647Y0391778D02*
X0170043Y0391778D01*
X0170046Y0391741D02*
X0163644Y0391741D01*
X0163640Y0391703D02*
X0170050Y0391703D01*
X0170053Y0391665D02*
X0163637Y0391665D01*
X0163634Y0391627D02*
X0170056Y0391627D01*
X0170060Y0391589D02*
X0163630Y0391589D01*
X0163627Y0391551D02*
X0170063Y0391551D01*
X0170066Y0391513D02*
X0163624Y0391513D01*
X0163621Y0391475D02*
X0170070Y0391475D01*
X0170073Y0391438D02*
X0163617Y0391438D01*
X0163620Y0391400D02*
X0170071Y0391400D01*
X0170067Y0391362D02*
X0163623Y0391362D01*
X0163626Y0391324D02*
X0170064Y0391324D01*
X0170061Y0391286D02*
X0163630Y0391286D01*
X0163633Y0391248D02*
X0170057Y0391248D01*
X0170054Y0391210D02*
X0163636Y0391210D01*
X0163640Y0391172D02*
X0170051Y0391172D01*
X0170047Y0391134D02*
X0163643Y0391134D01*
X0163646Y0391097D02*
X0170044Y0391097D01*
X0170041Y0391059D02*
X0163650Y0391059D01*
X0163653Y0391021D02*
X0170037Y0391021D01*
X0170034Y0390983D02*
X0163656Y0390983D01*
X0163660Y0390945D02*
X0170031Y0390945D01*
X0170027Y0390907D02*
X0163663Y0390907D01*
X0163667Y0390869D02*
X0170023Y0390869D01*
X0170013Y0390831D02*
X0163677Y0390831D01*
X0163687Y0390794D02*
X0170003Y0390794D01*
X0169993Y0390756D02*
X0163697Y0390756D01*
X0163707Y0390718D02*
X0169983Y0390718D01*
X0169973Y0390680D02*
X0163718Y0390680D01*
X0163728Y0390642D02*
X0169963Y0390642D01*
X0169952Y0390604D02*
X0163738Y0390604D01*
X0163748Y0390566D02*
X0169942Y0390566D01*
X0169932Y0390528D02*
X0163758Y0390528D01*
X0163768Y0390491D02*
X0169922Y0390491D01*
X0169912Y0390453D02*
X0163778Y0390453D01*
X0163789Y0390415D02*
X0169902Y0390415D01*
X0169891Y0390377D02*
X0163799Y0390377D01*
X0163809Y0390339D02*
X0169881Y0390339D01*
X0169866Y0390301D02*
X0163825Y0390301D01*
X0163842Y0390263D02*
X0169848Y0390263D01*
X0169830Y0390225D02*
X0163860Y0390225D01*
X0163878Y0390187D02*
X0169813Y0390187D01*
X0169795Y0390150D02*
X0163895Y0390150D01*
X0163913Y0390112D02*
X0169777Y0390112D01*
X0169760Y0390074D02*
X0163931Y0390074D01*
X0163948Y0390036D02*
X0169742Y0390036D01*
X0169724Y0389998D02*
X0163966Y0389998D01*
X0163984Y0389960D02*
X0169707Y0389960D01*
X0169689Y0389922D02*
X0164001Y0389922D01*
X0164019Y0389884D02*
X0169671Y0389884D01*
X0169654Y0389847D02*
X0164037Y0389847D01*
X0164057Y0389809D02*
X0169634Y0389809D01*
X0169607Y0389771D02*
X0164083Y0389771D01*
X0164110Y0389733D02*
X0169581Y0389733D01*
X0169554Y0389695D02*
X0164136Y0389695D01*
X0164163Y0389657D02*
X0169528Y0389657D01*
X0169501Y0389619D02*
X0164189Y0389619D01*
X0164216Y0389581D02*
X0169475Y0389581D01*
X0169448Y0389543D02*
X0164242Y0389543D01*
X0164269Y0389506D02*
X0169422Y0389506D01*
X0169395Y0389468D02*
X0164295Y0389468D01*
X0164322Y0389430D02*
X0169369Y0389430D01*
X0169342Y0389392D02*
X0164348Y0389392D01*
X0164376Y0389354D02*
X0169315Y0389354D01*
X0169277Y0389316D02*
X0164414Y0389316D01*
X0164451Y0389278D02*
X0169239Y0389278D01*
X0169201Y0389240D02*
X0164489Y0389240D01*
X0164527Y0389203D02*
X0169163Y0389203D01*
X0169125Y0389165D02*
X0164565Y0389165D01*
X0164603Y0389127D02*
X0169087Y0389127D01*
X0169049Y0389089D02*
X0164641Y0389089D01*
X0164679Y0389051D02*
X0169012Y0389051D01*
X0168974Y0389013D02*
X0164717Y0389013D01*
X0164755Y0388975D02*
X0168936Y0388975D01*
X0168888Y0388937D02*
X0164802Y0388937D01*
X0164856Y0388899D02*
X0168834Y0388899D01*
X0168780Y0388862D02*
X0164910Y0388862D01*
X0164965Y0388824D02*
X0168726Y0388824D01*
X0168672Y0388786D02*
X0165019Y0388786D01*
X0165073Y0388748D02*
X0168617Y0388748D01*
X0168563Y0388710D02*
X0165127Y0388710D01*
X0165181Y0388672D02*
X0168509Y0388672D01*
X0168453Y0388634D02*
X0165238Y0388634D01*
X0165319Y0388596D02*
X0168371Y0388596D01*
X0168290Y0388559D02*
X0165400Y0388559D01*
X0165481Y0388521D02*
X0168209Y0388521D01*
X0168128Y0388483D02*
X0165562Y0388483D01*
X0165644Y0388445D02*
X0168047Y0388445D01*
X0167965Y0388407D02*
X0165725Y0388407D01*
X0165854Y0388369D02*
X0167836Y0388369D01*
X0167694Y0388331D02*
X0165996Y0388331D01*
X0166137Y0388293D02*
X0167553Y0388293D01*
X0167412Y0388256D02*
X0166279Y0388256D01*
X0166698Y0388218D02*
X0166992Y0388218D01*
X0166845Y0384661D02*
X0167406Y0384612D01*
X0167949Y0384467D01*
X0168459Y0384229D01*
X0168920Y0383906D01*
X0169318Y0383508D01*
X0169641Y0383047D01*
X0169879Y0382537D01*
X0170024Y0381994D01*
X0170073Y0381433D01*
X0170024Y0380872D01*
X0169879Y0380329D01*
X0169641Y0379819D01*
X0169318Y0379358D01*
X0168920Y0378960D01*
X0168459Y0378637D01*
X0167949Y0378400D01*
X0167406Y0378254D01*
X0166845Y0378205D01*
X0166285Y0378254D01*
X0165741Y0378400D01*
X0165231Y0378637D01*
X0164770Y0378960D01*
X0164372Y0379358D01*
X0164049Y0379819D01*
X0163812Y0380329D01*
X0163666Y0380872D01*
X0163617Y0381433D01*
X0163666Y0381994D01*
X0163812Y0382537D01*
X0164049Y0383047D01*
X0164372Y0383508D01*
X0164770Y0383906D01*
X0165231Y0384229D01*
X0165741Y0384467D01*
X0166285Y0384612D01*
X0166845Y0384661D01*
X0166792Y0384657D02*
X0166898Y0384657D01*
X0167330Y0384619D02*
X0166361Y0384619D01*
X0166168Y0384581D02*
X0167522Y0384581D01*
X0167664Y0384543D02*
X0166027Y0384543D01*
X0165885Y0384505D02*
X0167805Y0384505D01*
X0167946Y0384467D02*
X0165744Y0384467D01*
X0165661Y0384429D02*
X0168029Y0384429D01*
X0168110Y0384392D02*
X0165580Y0384392D01*
X0165499Y0384354D02*
X0168191Y0384354D01*
X0168273Y0384316D02*
X0165418Y0384316D01*
X0165337Y0384278D02*
X0168354Y0384278D01*
X0168435Y0384240D02*
X0165255Y0384240D01*
X0165193Y0384202D02*
X0168497Y0384202D01*
X0168551Y0384164D02*
X0165139Y0384164D01*
X0165085Y0384126D02*
X0168606Y0384126D01*
X0168660Y0384089D02*
X0165031Y0384089D01*
X0164976Y0384051D02*
X0168714Y0384051D01*
X0168768Y0384013D02*
X0164922Y0384013D01*
X0164868Y0383975D02*
X0168822Y0383975D01*
X0168876Y0383937D02*
X0164814Y0383937D01*
X0164763Y0383899D02*
X0168927Y0383899D01*
X0168965Y0383861D02*
X0164725Y0383861D01*
X0164687Y0383823D02*
X0169003Y0383823D01*
X0169041Y0383786D02*
X0164649Y0383786D01*
X0164611Y0383748D02*
X0169079Y0383748D01*
X0169117Y0383710D02*
X0164573Y0383710D01*
X0164536Y0383672D02*
X0169155Y0383672D01*
X0169193Y0383634D02*
X0164498Y0383634D01*
X0164460Y0383596D02*
X0169231Y0383596D01*
X0169268Y0383558D02*
X0164422Y0383558D01*
X0164384Y0383520D02*
X0169306Y0383520D01*
X0169336Y0383482D02*
X0164354Y0383482D01*
X0164327Y0383445D02*
X0169363Y0383445D01*
X0169389Y0383407D02*
X0164301Y0383407D01*
X0164274Y0383369D02*
X0169416Y0383369D01*
X0169442Y0383331D02*
X0164248Y0383331D01*
X0164221Y0383293D02*
X0169469Y0383293D01*
X0169495Y0383255D02*
X0164195Y0383255D01*
X0164168Y0383217D02*
X0169522Y0383217D01*
X0169548Y0383179D02*
X0164142Y0383179D01*
X0164115Y0383142D02*
X0169575Y0383142D01*
X0169601Y0383104D02*
X0164089Y0383104D01*
X0164062Y0383066D02*
X0169628Y0383066D01*
X0169650Y0383028D02*
X0164040Y0383028D01*
X0164023Y0382990D02*
X0169668Y0382990D01*
X0169685Y0382952D02*
X0164005Y0382952D01*
X0163987Y0382914D02*
X0169703Y0382914D01*
X0169721Y0382876D02*
X0163970Y0382876D01*
X0163952Y0382838D02*
X0169738Y0382838D01*
X0169756Y0382801D02*
X0163934Y0382801D01*
X0163917Y0382763D02*
X0169774Y0382763D01*
X0169791Y0382725D02*
X0163899Y0382725D01*
X0163881Y0382687D02*
X0169809Y0382687D01*
X0169827Y0382649D02*
X0163864Y0382649D01*
X0163846Y0382611D02*
X0169844Y0382611D01*
X0169862Y0382573D02*
X0163828Y0382573D01*
X0163811Y0382535D02*
X0169879Y0382535D01*
X0169889Y0382498D02*
X0163801Y0382498D01*
X0163791Y0382460D02*
X0169899Y0382460D01*
X0169910Y0382422D02*
X0163781Y0382422D01*
X0163771Y0382384D02*
X0169920Y0382384D01*
X0169930Y0382346D02*
X0163760Y0382346D01*
X0163750Y0382308D02*
X0169940Y0382308D01*
X0169950Y0382270D02*
X0163740Y0382270D01*
X0163730Y0382232D02*
X0169960Y0382232D01*
X0169970Y0382194D02*
X0163720Y0382194D01*
X0163710Y0382157D02*
X0169981Y0382157D01*
X0169991Y0382119D02*
X0163700Y0382119D01*
X0163689Y0382081D02*
X0170001Y0382081D01*
X0170011Y0382043D02*
X0163679Y0382043D01*
X0163669Y0382005D02*
X0170021Y0382005D01*
X0170027Y0381967D02*
X0163664Y0381967D01*
X0163660Y0381929D02*
X0170030Y0381929D01*
X0170033Y0381891D02*
X0163657Y0381891D01*
X0163654Y0381854D02*
X0170037Y0381854D01*
X0170040Y0381816D02*
X0163650Y0381816D01*
X0163647Y0381778D02*
X0170043Y0381778D01*
X0170047Y0381740D02*
X0163644Y0381740D01*
X0163640Y0381702D02*
X0170050Y0381702D01*
X0170053Y0381664D02*
X0163637Y0381664D01*
X0163634Y0381626D02*
X0170057Y0381626D01*
X0170060Y0381588D02*
X0163630Y0381588D01*
X0163627Y0381551D02*
X0170063Y0381551D01*
X0170067Y0381513D02*
X0163624Y0381513D01*
X0163620Y0381475D02*
X0170070Y0381475D01*
X0170073Y0381437D02*
X0163617Y0381437D01*
X0163620Y0381399D02*
X0170070Y0381399D01*
X0170067Y0381361D02*
X0163623Y0381361D01*
X0163626Y0381323D02*
X0170064Y0381323D01*
X0170061Y0381285D02*
X0163630Y0381285D01*
X0163633Y0381247D02*
X0170057Y0381247D01*
X0170054Y0381210D02*
X0163636Y0381210D01*
X0163640Y0381172D02*
X0170051Y0381172D01*
X0170047Y0381134D02*
X0163643Y0381134D01*
X0163646Y0381096D02*
X0170044Y0381096D01*
X0170041Y0381058D02*
X0163650Y0381058D01*
X0163653Y0381020D02*
X0170037Y0381020D01*
X0170034Y0380982D02*
X0163656Y0380982D01*
X0163660Y0380944D02*
X0170031Y0380944D01*
X0170027Y0380907D02*
X0163663Y0380907D01*
X0163667Y0380869D02*
X0170023Y0380869D01*
X0170013Y0380831D02*
X0163677Y0380831D01*
X0163687Y0380793D02*
X0170003Y0380793D01*
X0169993Y0380755D02*
X0163697Y0380755D01*
X0163708Y0380717D02*
X0169983Y0380717D01*
X0169973Y0380679D02*
X0163718Y0380679D01*
X0163728Y0380641D02*
X0169962Y0380641D01*
X0169952Y0380603D02*
X0163738Y0380603D01*
X0163748Y0380566D02*
X0169942Y0380566D01*
X0169932Y0380528D02*
X0163758Y0380528D01*
X0163769Y0380490D02*
X0169922Y0380490D01*
X0169912Y0380452D02*
X0163779Y0380452D01*
X0163789Y0380414D02*
X0169901Y0380414D01*
X0169891Y0380376D02*
X0163799Y0380376D01*
X0163809Y0380338D02*
X0169881Y0380338D01*
X0169865Y0380300D02*
X0163825Y0380300D01*
X0163843Y0380263D02*
X0169848Y0380263D01*
X0169830Y0380225D02*
X0163860Y0380225D01*
X0163878Y0380187D02*
X0169812Y0380187D01*
X0169795Y0380149D02*
X0163896Y0380149D01*
X0163913Y0380111D02*
X0169777Y0380111D01*
X0169759Y0380073D02*
X0163931Y0380073D01*
X0163949Y0380035D02*
X0169742Y0380035D01*
X0169724Y0379997D02*
X0163966Y0379997D01*
X0163984Y0379959D02*
X0169706Y0379959D01*
X0169689Y0379922D02*
X0164002Y0379922D01*
X0164019Y0379884D02*
X0169671Y0379884D01*
X0169653Y0379846D02*
X0164037Y0379846D01*
X0164057Y0379808D02*
X0169633Y0379808D01*
X0169607Y0379770D02*
X0164084Y0379770D01*
X0164110Y0379732D02*
X0169580Y0379732D01*
X0169554Y0379694D02*
X0164137Y0379694D01*
X0164163Y0379656D02*
X0169527Y0379656D01*
X0169501Y0379619D02*
X0164190Y0379619D01*
X0164216Y0379581D02*
X0169474Y0379581D01*
X0169448Y0379543D02*
X0164243Y0379543D01*
X0164269Y0379505D02*
X0169421Y0379505D01*
X0169395Y0379467D02*
X0164296Y0379467D01*
X0164322Y0379429D02*
X0169368Y0379429D01*
X0169342Y0379391D02*
X0164349Y0379391D01*
X0164376Y0379353D02*
X0169314Y0379353D01*
X0169276Y0379316D02*
X0164414Y0379316D01*
X0164452Y0379278D02*
X0169238Y0379278D01*
X0169200Y0379240D02*
X0164490Y0379240D01*
X0164528Y0379202D02*
X0169162Y0379202D01*
X0169124Y0379164D02*
X0164566Y0379164D01*
X0164604Y0379126D02*
X0169087Y0379126D01*
X0169049Y0379088D02*
X0164642Y0379088D01*
X0164679Y0379050D02*
X0169011Y0379050D01*
X0168973Y0379012D02*
X0164717Y0379012D01*
X0164755Y0378975D02*
X0168935Y0378975D01*
X0168887Y0378937D02*
X0164803Y0378937D01*
X0164857Y0378899D02*
X0168833Y0378899D01*
X0168779Y0378861D02*
X0164911Y0378861D01*
X0164966Y0378823D02*
X0168725Y0378823D01*
X0168671Y0378785D02*
X0165020Y0378785D01*
X0165074Y0378747D02*
X0168616Y0378747D01*
X0168562Y0378709D02*
X0165128Y0378709D01*
X0165182Y0378672D02*
X0168508Y0378672D01*
X0168451Y0378634D02*
X0165239Y0378634D01*
X0165320Y0378596D02*
X0168370Y0378596D01*
X0168289Y0378558D02*
X0165401Y0378558D01*
X0165483Y0378520D02*
X0168208Y0378520D01*
X0168126Y0378482D02*
X0165564Y0378482D01*
X0165645Y0378444D02*
X0168045Y0378444D01*
X0167964Y0378406D02*
X0165726Y0378406D01*
X0165857Y0378368D02*
X0167833Y0378368D01*
X0167692Y0378331D02*
X0165998Y0378331D01*
X0166140Y0378293D02*
X0167550Y0378293D01*
X0167409Y0378255D02*
X0166281Y0378255D01*
X0166706Y0378217D02*
X0166984Y0378217D01*
X0170093Y0374681D02*
X0163597Y0374681D01*
X0163597Y0368185D01*
X0170093Y0368185D01*
X0170093Y0374681D01*
X0170093Y0374656D02*
X0163597Y0374656D01*
X0163597Y0374618D02*
X0170093Y0374618D01*
X0170093Y0374580D02*
X0163597Y0374580D01*
X0163597Y0374542D02*
X0170093Y0374542D01*
X0170093Y0374505D02*
X0163597Y0374505D01*
X0163597Y0374467D02*
X0170093Y0374467D01*
X0170093Y0374429D02*
X0163597Y0374429D01*
X0163597Y0374391D02*
X0170093Y0374391D01*
X0170093Y0374353D02*
X0163597Y0374353D01*
X0163597Y0374315D02*
X0170093Y0374315D01*
X0170093Y0374277D02*
X0163597Y0374277D01*
X0163597Y0374239D02*
X0170093Y0374239D01*
X0170093Y0374202D02*
X0163597Y0374202D01*
X0163597Y0374164D02*
X0170093Y0374164D01*
X0170093Y0374126D02*
X0163597Y0374126D01*
X0163597Y0374088D02*
X0170093Y0374088D01*
X0170093Y0374050D02*
X0163597Y0374050D01*
X0163597Y0374012D02*
X0170093Y0374012D01*
X0170093Y0373974D02*
X0163597Y0373974D01*
X0163597Y0373936D02*
X0170093Y0373936D01*
X0170093Y0373898D02*
X0163597Y0373898D01*
X0163597Y0373861D02*
X0170093Y0373861D01*
X0170093Y0373823D02*
X0163597Y0373823D01*
X0163597Y0373785D02*
X0170093Y0373785D01*
X0170093Y0373747D02*
X0163597Y0373747D01*
X0163597Y0373709D02*
X0170093Y0373709D01*
X0170093Y0373671D02*
X0163597Y0373671D01*
X0163597Y0373633D02*
X0170093Y0373633D01*
X0170093Y0373595D02*
X0163597Y0373595D01*
X0163597Y0373558D02*
X0170093Y0373558D01*
X0170093Y0373520D02*
X0163597Y0373520D01*
X0163597Y0373482D02*
X0170093Y0373482D01*
X0170093Y0373444D02*
X0163597Y0373444D01*
X0163597Y0373406D02*
X0170093Y0373406D01*
X0170093Y0373368D02*
X0163597Y0373368D01*
X0163597Y0373330D02*
X0170093Y0373330D01*
X0170093Y0373292D02*
X0163597Y0373292D01*
X0163597Y0373254D02*
X0170093Y0373254D01*
X0170093Y0373217D02*
X0163597Y0373217D01*
X0163597Y0373179D02*
X0170093Y0373179D01*
X0170093Y0373141D02*
X0163597Y0373141D01*
X0163597Y0373103D02*
X0170093Y0373103D01*
X0170093Y0373065D02*
X0163597Y0373065D01*
X0163597Y0373027D02*
X0170093Y0373027D01*
X0170093Y0372989D02*
X0163597Y0372989D01*
X0163597Y0372951D02*
X0170093Y0372951D01*
X0170093Y0372914D02*
X0163597Y0372914D01*
X0163597Y0372876D02*
X0170093Y0372876D01*
X0170093Y0372838D02*
X0163597Y0372838D01*
X0163597Y0372800D02*
X0170093Y0372800D01*
X0170093Y0372762D02*
X0163597Y0372762D01*
X0163597Y0372724D02*
X0170093Y0372724D01*
X0170093Y0372686D02*
X0163597Y0372686D01*
X0163597Y0372648D02*
X0170093Y0372648D01*
X0170093Y0372610D02*
X0163597Y0372610D01*
X0163597Y0372573D02*
X0170093Y0372573D01*
X0170093Y0372535D02*
X0163597Y0372535D01*
X0163597Y0372497D02*
X0170093Y0372497D01*
X0170093Y0372459D02*
X0163597Y0372459D01*
X0163597Y0372421D02*
X0170093Y0372421D01*
X0170093Y0372383D02*
X0163597Y0372383D01*
X0163597Y0372345D02*
X0170093Y0372345D01*
X0170093Y0372307D02*
X0163597Y0372307D01*
X0163597Y0372270D02*
X0170093Y0372270D01*
X0170093Y0372232D02*
X0163597Y0372232D01*
X0163597Y0372194D02*
X0170093Y0372194D01*
X0170093Y0372156D02*
X0163597Y0372156D01*
X0163597Y0372118D02*
X0170093Y0372118D01*
X0170093Y0372080D02*
X0163597Y0372080D01*
X0163597Y0372042D02*
X0170093Y0372042D01*
X0170093Y0372004D02*
X0163597Y0372004D01*
X0163597Y0371967D02*
X0170093Y0371967D01*
X0170093Y0371929D02*
X0163597Y0371929D01*
X0163597Y0371891D02*
X0170093Y0371891D01*
X0170093Y0371853D02*
X0163597Y0371853D01*
X0163597Y0371815D02*
X0170093Y0371815D01*
X0170093Y0371777D02*
X0163597Y0371777D01*
X0163597Y0371739D02*
X0170093Y0371739D01*
X0170093Y0371701D02*
X0163597Y0371701D01*
X0163597Y0371663D02*
X0170093Y0371663D01*
X0170093Y0371626D02*
X0163597Y0371626D01*
X0163597Y0371588D02*
X0170093Y0371588D01*
X0170093Y0371550D02*
X0163597Y0371550D01*
X0163597Y0371512D02*
X0170093Y0371512D01*
X0170093Y0371474D02*
X0163597Y0371474D01*
X0163597Y0371436D02*
X0170093Y0371436D01*
X0170093Y0371398D02*
X0163597Y0371398D01*
X0163597Y0371360D02*
X0170093Y0371360D01*
X0170093Y0371323D02*
X0163597Y0371323D01*
X0163597Y0371285D02*
X0170093Y0371285D01*
X0170093Y0371247D02*
X0163597Y0371247D01*
X0163597Y0371209D02*
X0170093Y0371209D01*
X0170093Y0371171D02*
X0163597Y0371171D01*
X0163597Y0371133D02*
X0170093Y0371133D01*
X0170093Y0371095D02*
X0163597Y0371095D01*
X0163597Y0371057D02*
X0170093Y0371057D01*
X0170093Y0371019D02*
X0163597Y0371019D01*
X0163597Y0370982D02*
X0170093Y0370982D01*
X0170093Y0370944D02*
X0163597Y0370944D01*
X0163597Y0370906D02*
X0170093Y0370906D01*
X0170093Y0370868D02*
X0163597Y0370868D01*
X0163597Y0370830D02*
X0170093Y0370830D01*
X0170093Y0370792D02*
X0163597Y0370792D01*
X0163597Y0370754D02*
X0170093Y0370754D01*
X0170093Y0370716D02*
X0163597Y0370716D01*
X0163597Y0370679D02*
X0170093Y0370679D01*
X0170093Y0370641D02*
X0163597Y0370641D01*
X0163597Y0370603D02*
X0170093Y0370603D01*
X0170093Y0370565D02*
X0163597Y0370565D01*
X0163597Y0370527D02*
X0170093Y0370527D01*
X0170093Y0370489D02*
X0163597Y0370489D01*
X0163597Y0370451D02*
X0170093Y0370451D01*
X0170093Y0370413D02*
X0163597Y0370413D01*
X0163597Y0370375D02*
X0170093Y0370375D01*
X0170093Y0370338D02*
X0163597Y0370338D01*
X0163597Y0370300D02*
X0170093Y0370300D01*
X0170093Y0370262D02*
X0163597Y0370262D01*
X0163597Y0370224D02*
X0170093Y0370224D01*
X0170093Y0370186D02*
X0163597Y0370186D01*
X0163597Y0370148D02*
X0170093Y0370148D01*
X0170093Y0370110D02*
X0163597Y0370110D01*
X0163597Y0370072D02*
X0170093Y0370072D01*
X0170093Y0370035D02*
X0163597Y0370035D01*
X0163597Y0369997D02*
X0170093Y0369997D01*
X0170093Y0369959D02*
X0163597Y0369959D01*
X0163597Y0369921D02*
X0170093Y0369921D01*
X0170093Y0369883D02*
X0163597Y0369883D01*
X0163597Y0369845D02*
X0170093Y0369845D01*
X0170093Y0369807D02*
X0163597Y0369807D01*
X0163597Y0369769D02*
X0170093Y0369769D01*
X0170093Y0369732D02*
X0163597Y0369732D01*
X0163597Y0369694D02*
X0170093Y0369694D01*
X0170093Y0369656D02*
X0163597Y0369656D01*
X0163597Y0369618D02*
X0170093Y0369618D01*
X0170093Y0369580D02*
X0163597Y0369580D01*
X0163597Y0369542D02*
X0170093Y0369542D01*
X0170093Y0369504D02*
X0163597Y0369504D01*
X0163597Y0369466D02*
X0170093Y0369466D01*
X0170093Y0369428D02*
X0163597Y0369428D01*
X0163597Y0369391D02*
X0170093Y0369391D01*
X0170093Y0369353D02*
X0163597Y0369353D01*
X0163597Y0369315D02*
X0170093Y0369315D01*
X0170093Y0369277D02*
X0163597Y0369277D01*
X0163597Y0369239D02*
X0170093Y0369239D01*
X0170093Y0369201D02*
X0163597Y0369201D01*
X0163597Y0369163D02*
X0170093Y0369163D01*
X0170093Y0369125D02*
X0163597Y0369125D01*
X0163597Y0369088D02*
X0170093Y0369088D01*
X0170093Y0369050D02*
X0163597Y0369050D01*
X0163597Y0369012D02*
X0170093Y0369012D01*
X0170093Y0368974D02*
X0163597Y0368974D01*
X0163597Y0368936D02*
X0170093Y0368936D01*
X0170093Y0368898D02*
X0163597Y0368898D01*
X0163597Y0368860D02*
X0170093Y0368860D01*
X0170093Y0368822D02*
X0163597Y0368822D01*
X0163597Y0368784D02*
X0170093Y0368784D01*
X0170093Y0368747D02*
X0163597Y0368747D01*
X0163597Y0368709D02*
X0170093Y0368709D01*
X0170093Y0368671D02*
X0163597Y0368671D01*
X0163597Y0368633D02*
X0170093Y0368633D01*
X0170093Y0368595D02*
X0163597Y0368595D01*
X0163597Y0368557D02*
X0170093Y0368557D01*
X0170093Y0368519D02*
X0163597Y0368519D01*
X0163597Y0368481D02*
X0170093Y0368481D01*
X0170093Y0368444D02*
X0163597Y0368444D01*
X0163597Y0368406D02*
X0170093Y0368406D01*
X0170093Y0368368D02*
X0163597Y0368368D01*
X0163597Y0368330D02*
X0170093Y0368330D01*
X0170093Y0368292D02*
X0163597Y0368292D01*
X0163597Y0368254D02*
X0170093Y0368254D01*
X0170093Y0368216D02*
X0163597Y0368216D01*
X0351062Y0447079D02*
X0351299Y0446569D01*
X0351622Y0446108D01*
X0352020Y0445710D01*
X0352481Y0445387D01*
X0352991Y0445150D01*
X0353535Y0445004D01*
X0354095Y0444955D01*
X0354656Y0445004D01*
X0355199Y0445150D01*
X0355709Y0445387D01*
X0356170Y0445710D01*
X0356568Y0446108D01*
X0356891Y0446569D01*
X0357129Y0447079D01*
X0357274Y0447622D01*
X0357323Y0448183D01*
X0357274Y0448744D01*
X0357129Y0449287D01*
X0356891Y0449797D01*
X0356568Y0450258D01*
X0356170Y0450656D01*
X0355709Y0450979D01*
X0355199Y0451217D01*
X0354656Y0451362D01*
X0354095Y0451411D01*
X0353535Y0451362D01*
X0352991Y0451217D01*
X0352481Y0450979D01*
X0352020Y0450656D01*
X0351622Y0450258D01*
X0351299Y0449797D01*
X0351062Y0449287D01*
X0350916Y0448744D01*
X0350867Y0448183D01*
X0350916Y0447622D01*
X0351062Y0447079D01*
X0351060Y0447085D02*
X0357130Y0447085D01*
X0357141Y0447123D02*
X0351050Y0447123D01*
X0351040Y0447161D02*
X0357151Y0447161D01*
X0357161Y0447199D02*
X0351029Y0447199D01*
X0351019Y0447237D02*
X0357171Y0447237D01*
X0357181Y0447275D02*
X0351009Y0447275D01*
X0350999Y0447313D02*
X0357191Y0447313D01*
X0357201Y0447350D02*
X0350989Y0447350D01*
X0350979Y0447388D02*
X0357212Y0447388D01*
X0357222Y0447426D02*
X0350969Y0447426D01*
X0350958Y0447464D02*
X0357232Y0447464D01*
X0357242Y0447502D02*
X0350948Y0447502D01*
X0350938Y0447540D02*
X0357252Y0447540D01*
X0357262Y0447578D02*
X0350928Y0447578D01*
X0350918Y0447616D02*
X0357272Y0447616D01*
X0357277Y0447654D02*
X0350913Y0447654D01*
X0350910Y0447691D02*
X0357280Y0447691D01*
X0357284Y0447729D02*
X0350907Y0447729D01*
X0350903Y0447767D02*
X0357287Y0447767D01*
X0357290Y0447805D02*
X0350900Y0447805D01*
X0350897Y0447843D02*
X0357294Y0447843D01*
X0357297Y0447881D02*
X0350893Y0447881D01*
X0350890Y0447919D02*
X0357300Y0447919D01*
X0357304Y0447957D02*
X0350887Y0447957D01*
X0350883Y0447994D02*
X0357307Y0447994D01*
X0357310Y0448032D02*
X0350880Y0448032D01*
X0350877Y0448070D02*
X0357314Y0448070D01*
X0357317Y0448108D02*
X0350873Y0448108D01*
X0350870Y0448146D02*
X0357320Y0448146D01*
X0357323Y0448184D02*
X0350867Y0448184D01*
X0350870Y0448222D02*
X0357320Y0448222D01*
X0357317Y0448260D02*
X0350874Y0448260D01*
X0350877Y0448298D02*
X0357313Y0448298D01*
X0357310Y0448335D02*
X0350880Y0448335D01*
X0350884Y0448373D02*
X0357307Y0448373D01*
X0357303Y0448411D02*
X0350887Y0448411D01*
X0350890Y0448449D02*
X0357300Y0448449D01*
X0357297Y0448487D02*
X0350893Y0448487D01*
X0350897Y0448525D02*
X0357293Y0448525D01*
X0357290Y0448563D02*
X0350900Y0448563D01*
X0350903Y0448601D02*
X0357287Y0448601D01*
X0357284Y0448638D02*
X0350907Y0448638D01*
X0350910Y0448676D02*
X0357280Y0448676D01*
X0357277Y0448714D02*
X0350913Y0448714D01*
X0350918Y0448752D02*
X0357272Y0448752D01*
X0357262Y0448790D02*
X0350928Y0448790D01*
X0350939Y0448828D02*
X0357252Y0448828D01*
X0357242Y0448866D02*
X0350949Y0448866D01*
X0350959Y0448904D02*
X0357231Y0448904D01*
X0357221Y0448942D02*
X0350969Y0448942D01*
X0350979Y0448979D02*
X0357211Y0448979D01*
X0357201Y0449017D02*
X0350989Y0449017D01*
X0350999Y0449055D02*
X0357191Y0449055D01*
X0357181Y0449093D02*
X0351010Y0449093D01*
X0351020Y0449131D02*
X0357171Y0449131D01*
X0357160Y0449169D02*
X0351030Y0449169D01*
X0351040Y0449207D02*
X0357150Y0449207D01*
X0357140Y0449245D02*
X0351050Y0449245D01*
X0351060Y0449282D02*
X0357130Y0449282D01*
X0357113Y0449320D02*
X0351077Y0449320D01*
X0351095Y0449358D02*
X0357096Y0449358D01*
X0357078Y0449396D02*
X0351112Y0449396D01*
X0351130Y0449434D02*
X0357060Y0449434D01*
X0357043Y0449472D02*
X0351148Y0449472D01*
X0351165Y0449510D02*
X0357025Y0449510D01*
X0357007Y0449548D02*
X0351183Y0449548D01*
X0351201Y0449585D02*
X0356990Y0449585D01*
X0356972Y0449623D02*
X0351218Y0449623D01*
X0351236Y0449661D02*
X0356954Y0449661D01*
X0356937Y0449699D02*
X0351254Y0449699D01*
X0351271Y0449737D02*
X0356919Y0449737D01*
X0356901Y0449775D02*
X0351289Y0449775D01*
X0351310Y0449813D02*
X0356880Y0449813D01*
X0356853Y0449851D02*
X0351337Y0449851D01*
X0351363Y0449889D02*
X0356827Y0449889D01*
X0356800Y0449926D02*
X0351390Y0449926D01*
X0351416Y0449964D02*
X0356774Y0449964D01*
X0356747Y0450002D02*
X0351443Y0450002D01*
X0351469Y0450040D02*
X0356721Y0450040D01*
X0356694Y0450078D02*
X0351496Y0450078D01*
X0351522Y0450116D02*
X0356668Y0450116D01*
X0356641Y0450154D02*
X0351549Y0450154D01*
X0351575Y0450192D02*
X0356615Y0450192D01*
X0356589Y0450229D02*
X0351602Y0450229D01*
X0351631Y0450267D02*
X0356559Y0450267D01*
X0356521Y0450305D02*
X0351669Y0450305D01*
X0351707Y0450343D02*
X0356484Y0450343D01*
X0356446Y0450381D02*
X0351745Y0450381D01*
X0351783Y0450419D02*
X0356408Y0450419D01*
X0356370Y0450457D02*
X0351820Y0450457D01*
X0351858Y0450495D02*
X0356332Y0450495D01*
X0356294Y0450533D02*
X0351896Y0450533D01*
X0351934Y0450570D02*
X0356256Y0450570D01*
X0356218Y0450608D02*
X0351972Y0450608D01*
X0352010Y0450646D02*
X0356180Y0450646D01*
X0356131Y0450684D02*
X0352060Y0450684D01*
X0352114Y0450722D02*
X0356077Y0450722D01*
X0356022Y0450760D02*
X0352168Y0450760D01*
X0352222Y0450798D02*
X0355968Y0450798D01*
X0355914Y0450836D02*
X0352276Y0450836D01*
X0352330Y0450873D02*
X0355860Y0450873D01*
X0355806Y0450911D02*
X0352385Y0450911D01*
X0352439Y0450949D02*
X0355752Y0450949D01*
X0355691Y0450987D02*
X0352499Y0450987D01*
X0352580Y0451025D02*
X0355610Y0451025D01*
X0355529Y0451063D02*
X0352661Y0451063D01*
X0352743Y0451101D02*
X0355448Y0451101D01*
X0355367Y0451139D02*
X0352824Y0451139D01*
X0352905Y0451177D02*
X0355285Y0451177D01*
X0355204Y0451214D02*
X0352986Y0451214D01*
X0353124Y0451252D02*
X0355066Y0451252D01*
X0354925Y0451290D02*
X0353266Y0451290D01*
X0353407Y0451328D02*
X0354783Y0451328D01*
X0354613Y0451366D02*
X0353577Y0451366D01*
X0354008Y0451404D02*
X0354182Y0451404D01*
X0357114Y0447047D02*
X0351076Y0447047D01*
X0351094Y0447010D02*
X0357096Y0447010D01*
X0357079Y0446972D02*
X0351112Y0446972D01*
X0351129Y0446934D02*
X0357061Y0446934D01*
X0357043Y0446896D02*
X0351147Y0446896D01*
X0351165Y0446858D02*
X0357026Y0446858D01*
X0357008Y0446820D02*
X0351182Y0446820D01*
X0351200Y0446782D02*
X0356990Y0446782D01*
X0356973Y0446744D02*
X0351218Y0446744D01*
X0351235Y0446707D02*
X0356955Y0446707D01*
X0356937Y0446669D02*
X0351253Y0446669D01*
X0351271Y0446631D02*
X0356920Y0446631D01*
X0356902Y0446593D02*
X0351288Y0446593D01*
X0351309Y0446555D02*
X0356881Y0446555D01*
X0356855Y0446517D02*
X0351336Y0446517D01*
X0351362Y0446479D02*
X0356828Y0446479D01*
X0356802Y0446441D02*
X0351389Y0446441D01*
X0351415Y0446403D02*
X0356775Y0446403D01*
X0356749Y0446366D02*
X0351442Y0446366D01*
X0351468Y0446328D02*
X0356722Y0446328D01*
X0356696Y0446290D02*
X0351495Y0446290D01*
X0351521Y0446252D02*
X0356669Y0446252D01*
X0356643Y0446214D02*
X0351548Y0446214D01*
X0351574Y0446176D02*
X0356616Y0446176D01*
X0356590Y0446138D02*
X0351601Y0446138D01*
X0351629Y0446100D02*
X0356561Y0446100D01*
X0356523Y0446063D02*
X0351667Y0446063D01*
X0351705Y0446025D02*
X0356485Y0446025D01*
X0356447Y0445987D02*
X0351743Y0445987D01*
X0351781Y0445949D02*
X0356409Y0445949D01*
X0356371Y0445911D02*
X0351819Y0445911D01*
X0351857Y0445873D02*
X0356334Y0445873D01*
X0356296Y0445835D02*
X0351895Y0445835D01*
X0351932Y0445797D02*
X0356258Y0445797D01*
X0356220Y0445759D02*
X0351970Y0445759D01*
X0352008Y0445722D02*
X0356182Y0445722D01*
X0356133Y0445684D02*
X0352057Y0445684D01*
X0352111Y0445646D02*
X0356079Y0445646D01*
X0356025Y0445608D02*
X0352166Y0445608D01*
X0352220Y0445570D02*
X0355970Y0445570D01*
X0355916Y0445532D02*
X0352274Y0445532D01*
X0352328Y0445494D02*
X0355862Y0445494D01*
X0355808Y0445456D02*
X0352382Y0445456D01*
X0352436Y0445419D02*
X0355754Y0445419D01*
X0355695Y0445381D02*
X0352495Y0445381D01*
X0352577Y0445343D02*
X0355614Y0445343D01*
X0355532Y0445305D02*
X0352658Y0445305D01*
X0352739Y0445267D02*
X0355451Y0445267D01*
X0355370Y0445229D02*
X0352820Y0445229D01*
X0352902Y0445191D02*
X0355289Y0445191D01*
X0355208Y0445153D02*
X0352983Y0445153D01*
X0353118Y0445115D02*
X0355072Y0445115D01*
X0354931Y0445078D02*
X0353260Y0445078D01*
X0353401Y0445040D02*
X0354789Y0445040D01*
X0354632Y0445002D02*
X0353558Y0445002D01*
X0353990Y0444964D02*
X0354200Y0444964D01*
X0360847Y0444964D02*
X0367343Y0444964D01*
X0367343Y0444935D02*
X0360847Y0444935D01*
X0360847Y0451431D01*
X0367343Y0451431D01*
X0367343Y0444935D01*
X0367343Y0445002D02*
X0360847Y0445002D01*
X0360847Y0445040D02*
X0367343Y0445040D01*
X0367343Y0445078D02*
X0360847Y0445078D01*
X0360847Y0445115D02*
X0367343Y0445115D01*
X0367343Y0445153D02*
X0360847Y0445153D01*
X0360847Y0445191D02*
X0367343Y0445191D01*
X0367343Y0445229D02*
X0360847Y0445229D01*
X0360847Y0445267D02*
X0367343Y0445267D01*
X0367343Y0445305D02*
X0360847Y0445305D01*
X0360847Y0445343D02*
X0367343Y0445343D01*
X0367343Y0445381D02*
X0360847Y0445381D01*
X0360847Y0445419D02*
X0367343Y0445419D01*
X0367343Y0445456D02*
X0360847Y0445456D01*
X0360847Y0445494D02*
X0367343Y0445494D01*
X0367343Y0445532D02*
X0360847Y0445532D01*
X0360847Y0445570D02*
X0367343Y0445570D01*
X0367343Y0445608D02*
X0360847Y0445608D01*
X0360847Y0445646D02*
X0367343Y0445646D01*
X0367343Y0445684D02*
X0360847Y0445684D01*
X0360847Y0445722D02*
X0367343Y0445722D01*
X0367343Y0445759D02*
X0360847Y0445759D01*
X0360847Y0445797D02*
X0367343Y0445797D01*
X0367343Y0445835D02*
X0360847Y0445835D01*
X0360847Y0445873D02*
X0367343Y0445873D01*
X0367343Y0445911D02*
X0360847Y0445911D01*
X0360847Y0445949D02*
X0367343Y0445949D01*
X0367343Y0445987D02*
X0360847Y0445987D01*
X0360847Y0446025D02*
X0367343Y0446025D01*
X0367343Y0446063D02*
X0360847Y0446063D01*
X0360847Y0446100D02*
X0367343Y0446100D01*
X0367343Y0446138D02*
X0360847Y0446138D01*
X0360847Y0446176D02*
X0367343Y0446176D01*
X0367343Y0446214D02*
X0360847Y0446214D01*
X0360847Y0446252D02*
X0367343Y0446252D01*
X0367343Y0446290D02*
X0360847Y0446290D01*
X0360847Y0446328D02*
X0367343Y0446328D01*
X0367343Y0446366D02*
X0360847Y0446366D01*
X0360847Y0446403D02*
X0367343Y0446403D01*
X0367343Y0446441D02*
X0360847Y0446441D01*
X0360847Y0446479D02*
X0367343Y0446479D01*
X0367343Y0446517D02*
X0360847Y0446517D01*
X0360847Y0446555D02*
X0367343Y0446555D01*
X0367343Y0446593D02*
X0360847Y0446593D01*
X0360847Y0446631D02*
X0367343Y0446631D01*
X0367343Y0446669D02*
X0360847Y0446669D01*
X0360847Y0446707D02*
X0367343Y0446707D01*
X0367343Y0446744D02*
X0360847Y0446744D01*
X0360847Y0446782D02*
X0367343Y0446782D01*
X0367343Y0446820D02*
X0360847Y0446820D01*
X0360847Y0446858D02*
X0367343Y0446858D01*
X0367343Y0446896D02*
X0360847Y0446896D01*
X0360847Y0446934D02*
X0367343Y0446934D01*
X0367343Y0446972D02*
X0360847Y0446972D01*
X0360847Y0447010D02*
X0367343Y0447010D01*
X0367343Y0447047D02*
X0360847Y0447047D01*
X0360847Y0447085D02*
X0367343Y0447085D01*
X0367343Y0447123D02*
X0360847Y0447123D01*
X0360847Y0447161D02*
X0367343Y0447161D01*
X0367343Y0447199D02*
X0360847Y0447199D01*
X0360847Y0447237D02*
X0367343Y0447237D01*
X0367343Y0447275D02*
X0360847Y0447275D01*
X0360847Y0447313D02*
X0367343Y0447313D01*
X0367343Y0447350D02*
X0360847Y0447350D01*
X0360847Y0447388D02*
X0367343Y0447388D01*
X0367343Y0447426D02*
X0360847Y0447426D01*
X0360847Y0447464D02*
X0367343Y0447464D01*
X0367343Y0447502D02*
X0360847Y0447502D01*
X0360847Y0447540D02*
X0367343Y0447540D01*
X0367343Y0447578D02*
X0360847Y0447578D01*
X0360847Y0447616D02*
X0367343Y0447616D01*
X0367343Y0447654D02*
X0360847Y0447654D01*
X0360847Y0447691D02*
X0367343Y0447691D01*
X0367343Y0447729D02*
X0360847Y0447729D01*
X0360847Y0447767D02*
X0367343Y0447767D01*
X0367343Y0447805D02*
X0360847Y0447805D01*
X0360847Y0447843D02*
X0367343Y0447843D01*
X0367343Y0447881D02*
X0360847Y0447881D01*
X0360847Y0447919D02*
X0367343Y0447919D01*
X0367343Y0447957D02*
X0360847Y0447957D01*
X0360847Y0447994D02*
X0367343Y0447994D01*
X0367343Y0448032D02*
X0360847Y0448032D01*
X0360847Y0448070D02*
X0367343Y0448070D01*
X0367343Y0448108D02*
X0360847Y0448108D01*
X0360847Y0448146D02*
X0367343Y0448146D01*
X0367343Y0448184D02*
X0360847Y0448184D01*
X0360847Y0448222D02*
X0367343Y0448222D01*
X0367343Y0448260D02*
X0360847Y0448260D01*
X0360847Y0448298D02*
X0367343Y0448298D01*
X0367343Y0448335D02*
X0360847Y0448335D01*
X0360847Y0448373D02*
X0367343Y0448373D01*
X0367343Y0448411D02*
X0360847Y0448411D01*
X0360847Y0448449D02*
X0367343Y0448449D01*
X0367343Y0448487D02*
X0360847Y0448487D01*
X0360847Y0448525D02*
X0367343Y0448525D01*
X0367343Y0448563D02*
X0360847Y0448563D01*
X0360847Y0448601D02*
X0367343Y0448601D01*
X0367343Y0448638D02*
X0360847Y0448638D01*
X0360847Y0448676D02*
X0367343Y0448676D01*
X0367343Y0448714D02*
X0360847Y0448714D01*
X0360847Y0448752D02*
X0367343Y0448752D01*
X0367343Y0448790D02*
X0360847Y0448790D01*
X0360847Y0448828D02*
X0367343Y0448828D01*
X0367343Y0448866D02*
X0360847Y0448866D01*
X0360847Y0448904D02*
X0367343Y0448904D01*
X0367343Y0448942D02*
X0360847Y0448942D01*
X0360847Y0448979D02*
X0367343Y0448979D01*
X0367343Y0449017D02*
X0360847Y0449017D01*
X0360847Y0449055D02*
X0367343Y0449055D01*
X0367343Y0449093D02*
X0360847Y0449093D01*
X0360847Y0449131D02*
X0367343Y0449131D01*
X0367343Y0449169D02*
X0360847Y0449169D01*
X0360847Y0449207D02*
X0367343Y0449207D01*
X0367343Y0449245D02*
X0360847Y0449245D01*
X0360847Y0449282D02*
X0367343Y0449282D01*
X0367343Y0449320D02*
X0360847Y0449320D01*
X0360847Y0449358D02*
X0367343Y0449358D01*
X0367343Y0449396D02*
X0360847Y0449396D01*
X0360847Y0449434D02*
X0367343Y0449434D01*
X0367343Y0449472D02*
X0360847Y0449472D01*
X0360847Y0449510D02*
X0367343Y0449510D01*
X0367343Y0449548D02*
X0360847Y0449548D01*
X0360847Y0449585D02*
X0367343Y0449585D01*
X0367343Y0449623D02*
X0360847Y0449623D01*
X0360847Y0449661D02*
X0367343Y0449661D01*
X0367343Y0449699D02*
X0360847Y0449699D01*
X0360847Y0449737D02*
X0367343Y0449737D01*
X0367343Y0449775D02*
X0360847Y0449775D01*
X0360847Y0449813D02*
X0367343Y0449813D01*
X0367343Y0449851D02*
X0360847Y0449851D01*
X0360847Y0449889D02*
X0367343Y0449889D01*
X0367343Y0449926D02*
X0360847Y0449926D01*
X0360847Y0449964D02*
X0367343Y0449964D01*
X0367343Y0450002D02*
X0360847Y0450002D01*
X0360847Y0450040D02*
X0367343Y0450040D01*
X0367343Y0450078D02*
X0360847Y0450078D01*
X0360847Y0450116D02*
X0367343Y0450116D01*
X0367343Y0450154D02*
X0360847Y0450154D01*
X0360847Y0450192D02*
X0367343Y0450192D01*
X0367343Y0450229D02*
X0360847Y0450229D01*
X0360847Y0450267D02*
X0367343Y0450267D01*
X0367343Y0450305D02*
X0360847Y0450305D01*
X0360847Y0450343D02*
X0367343Y0450343D01*
X0367343Y0450381D02*
X0360847Y0450381D01*
X0360847Y0450419D02*
X0367343Y0450419D01*
X0367343Y0450457D02*
X0360847Y0450457D01*
X0360847Y0450495D02*
X0367343Y0450495D01*
X0367343Y0450533D02*
X0360847Y0450533D01*
X0360847Y0450570D02*
X0367343Y0450570D01*
X0367343Y0450608D02*
X0360847Y0450608D01*
X0360847Y0450646D02*
X0367343Y0450646D01*
X0367343Y0450684D02*
X0360847Y0450684D01*
X0360847Y0450722D02*
X0367343Y0450722D01*
X0367343Y0450760D02*
X0360847Y0450760D01*
X0360847Y0450798D02*
X0367343Y0450798D01*
X0367343Y0450836D02*
X0360847Y0450836D01*
X0360847Y0450873D02*
X0367343Y0450873D01*
X0367343Y0450911D02*
X0360847Y0450911D01*
X0360847Y0450949D02*
X0367343Y0450949D01*
X0367343Y0450987D02*
X0360847Y0450987D01*
X0360847Y0451025D02*
X0367343Y0451025D01*
X0367343Y0451063D02*
X0360847Y0451063D01*
X0360847Y0451101D02*
X0367343Y0451101D01*
X0367343Y0451139D02*
X0360847Y0451139D01*
X0360847Y0451177D02*
X0367343Y0451177D01*
X0367343Y0451214D02*
X0360847Y0451214D01*
X0360847Y0451252D02*
X0367343Y0451252D01*
X0367343Y0451290D02*
X0360847Y0451290D01*
X0360847Y0451328D02*
X0367343Y0451328D01*
X0367343Y0451366D02*
X0360847Y0451366D01*
X0360847Y0451404D02*
X0367343Y0451404D01*
D13*
X0431845Y0257683D03*
D14*
X0431845Y0247683D03*
X0431845Y0237683D03*
X0441845Y0237683D03*
X0441845Y0247683D03*
X0441845Y0257683D03*
D15*
X0411845Y0186433D03*
X0401845Y0186433D03*
X0391845Y0186433D03*
X0381845Y0186433D03*
X0371845Y0186433D03*
X0361845Y0186433D03*
X0445595Y0420183D03*
X0445595Y0430183D03*
X0445595Y0440183D03*
X0445595Y0450183D03*
X0445595Y0460183D03*
X0445595Y0470183D03*
D16*
X0274345Y0389976D03*
X0274345Y0386433D03*
D17*
X0246835Y0403815D03*
X0239355Y0403815D03*
X0239355Y0414051D03*
X0243095Y0414051D03*
X0246835Y0414051D03*
D18*
X0244545Y0419433D03*
X0289545Y0446433D03*
X0300945Y0380133D03*
X0283545Y0359433D03*
X0242145Y0350733D03*
X0271845Y0309933D03*
X0303645Y0265233D03*
X0304245Y0258333D03*
X0310995Y0253433D03*
X0298245Y0243333D03*
X0291945Y0246333D03*
X0285495Y0243083D03*
X0279345Y0231933D03*
X0279945Y0220533D03*
X0287145Y0207933D03*
X0286220Y0202683D03*
X0295245Y0220433D03*
X0301845Y0229533D03*
X0319545Y0180933D03*
X0310545Y0173133D03*
X0316945Y0137233D03*
X0218095Y0293308D03*
X0153945Y0312633D03*
X0146145Y0312633D03*
X0134445Y0327933D03*
X0375345Y0327633D03*
X0385245Y0312033D03*
X0400845Y0327633D03*
X0441345Y0360933D03*
X0448845Y0342333D03*
D19*
X0156845Y0176933D03*
X0165095Y0176933D03*
X0156095Y0185433D03*
X0156095Y0193683D03*
X0156095Y0201433D03*
X0156095Y0208933D03*
X0156095Y0216933D03*
X0156095Y0225183D03*
X0164845Y0225183D03*
X0173595Y0225183D03*
X0182845Y0225183D03*
X0191845Y0225183D03*
X0200345Y0225183D03*
X0205345Y0219433D03*
X0209845Y0225183D03*
X0218345Y0225183D03*
X0214345Y0234433D03*
X0231345Y0216183D03*
X0227345Y0210933D03*
X0230595Y0203183D03*
X0228345Y0195933D03*
X0223095Y0189183D03*
X0215095Y0189183D03*
X0207845Y0189183D03*
X0207845Y0182433D03*
X0212595Y0176433D03*
X0220095Y0176683D03*
X0227845Y0176683D03*
X0230845Y0183183D03*
X0206595Y0211933D03*
X0199095Y0212183D03*
X0191845Y0212183D03*
X0183845Y0212183D03*
X0184845Y0204183D03*
X0184845Y0196433D03*
X0185095Y0189433D03*
X0185095Y0182933D03*
X0181345Y0176933D03*
X0173345Y0177183D03*
X0292845Y0165683D03*
X0271345Y0315683D03*
X0271345Y0328183D03*
X0272095Y0341433D03*
X0244845Y0341433D03*
X0144345Y0331183D03*
X0298345Y0481933D03*
X0308095Y0481933D03*
X0461845Y0336183D03*
X0459595Y0317433D03*
M02*
