G75*
%MOIN*%
%OFA0B0*%
%FSLAX25Y25*%
%IPPOS*%
%LPD*%
%AMOC8*
5,1,8,0,0,1.08239X$1,22.5*
%
%ADD10C,0.05937*%
%ADD11C,0.01956*%
%ADD12R,0.06496X0.06496*%
%ADD13C,0.06496*%
%ADD14R,0.07400X0.07400*%
%ADD15OC8,0.07400*%
%ADD16C,0.07400*%
%ADD17R,0.02500X0.05000*%
%ADD18R,0.02165X0.04724*%
%ADD19C,0.00600*%
%ADD20C,0.04500*%
%ADD21C,0.05362*%
%ADD22C,0.01800*%
D10*
X0291845Y0385965D02*
X0291845Y0391902D01*
X0301845Y0391902D02*
X0301845Y0385965D01*
D11*
X0270267Y0419616D02*
X0267971Y0419616D01*
X0267971Y0423250D01*
X0270267Y0423250D01*
X0270267Y0419616D01*
X0270267Y0421571D02*
X0267971Y0421571D01*
X0263220Y0423250D02*
X0260924Y0423250D01*
X0263220Y0423250D02*
X0263220Y0419616D01*
X0260924Y0419616D01*
X0260924Y0423250D01*
X0260924Y0421571D02*
X0263220Y0421571D01*
X0261162Y0413605D02*
X0261162Y0411309D01*
X0257528Y0411309D01*
X0257528Y0413605D01*
X0261162Y0413605D01*
X0261162Y0413264D02*
X0257528Y0413264D01*
X0257528Y0406557D02*
X0257528Y0404261D01*
X0257528Y0406557D02*
X0261162Y0406557D01*
X0261162Y0404261D01*
X0257528Y0404261D01*
X0257528Y0406216D02*
X0261162Y0406216D01*
X0256517Y0392116D02*
X0254221Y0392116D01*
X0254221Y0395750D01*
X0256517Y0395750D01*
X0256517Y0392116D01*
X0256517Y0394071D02*
X0254221Y0394071D01*
X0249470Y0395750D02*
X0247174Y0395750D01*
X0249470Y0395750D02*
X0249470Y0392116D01*
X0247174Y0392116D01*
X0247174Y0395750D01*
X0247174Y0394071D02*
X0249470Y0394071D01*
D12*
X0166845Y0371433D03*
X0364095Y0448183D03*
D13*
X0354095Y0448183D03*
X0166845Y0451433D03*
X0166845Y0441433D03*
X0166845Y0431433D03*
X0166845Y0421433D03*
X0166845Y0411433D03*
X0166845Y0401433D03*
X0166845Y0391433D03*
X0166845Y0381433D03*
X0166845Y0461433D03*
D14*
X0431845Y0257683D03*
D15*
X0431845Y0247683D03*
X0431845Y0237683D03*
X0441845Y0237683D03*
X0441845Y0247683D03*
X0441845Y0257683D03*
D16*
X0411845Y0186433D03*
X0401845Y0186433D03*
X0391845Y0186433D03*
X0381845Y0186433D03*
X0371845Y0186433D03*
X0361845Y0186433D03*
X0445595Y0420183D03*
X0445595Y0430183D03*
X0445595Y0440183D03*
X0445595Y0450183D03*
X0445595Y0460183D03*
X0445595Y0470183D03*
D17*
X0274345Y0389976D03*
X0274345Y0386433D03*
D18*
X0246835Y0403815D03*
X0239355Y0403815D03*
X0239355Y0414051D03*
X0243095Y0414051D03*
X0246835Y0414051D03*
D19*
X0243345Y0414033D02*
X0243345Y0412533D01*
X0245145Y0410733D01*
X0257745Y0410733D01*
X0259245Y0412233D01*
X0259345Y0412457D01*
X0258945Y0411633D01*
X0263145Y0407433D01*
X0263145Y0401133D01*
X0255945Y0393933D01*
X0255369Y0393933D01*
X0255645Y0393933D01*
X0263145Y0386433D01*
X0274345Y0386433D01*
X0274545Y0386433D01*
X0279045Y0381933D01*
X0283545Y0381933D01*
X0283545Y0359433D01*
X0274845Y0347433D02*
X0239145Y0347433D01*
X0175245Y0411333D01*
X0166845Y0411333D01*
X0166845Y0411433D01*
X0162645Y0417033D02*
X0166845Y0421233D01*
X0166845Y0421433D01*
X0162645Y0417033D02*
X0162645Y0358533D01*
X0160095Y0355983D01*
X0282645Y0233433D01*
X0282645Y0228033D01*
X0294045Y0216633D01*
X0296445Y0216633D01*
X0301845Y0222033D01*
X0301845Y0229533D01*
X0295245Y0228333D02*
X0271845Y0251733D01*
X0271845Y0309333D01*
X0271845Y0309933D01*
X0271845Y0309333D02*
X0199845Y0381333D01*
X0166845Y0381333D01*
X0166845Y0381433D01*
X0166845Y0391233D02*
X0166845Y0391433D01*
X0166845Y0391233D02*
X0191745Y0391233D01*
X0237945Y0345033D01*
X0273645Y0345033D01*
X0275745Y0342933D01*
X0275745Y0286833D01*
X0304245Y0258333D01*
X0305445Y0261633D02*
X0308745Y0258333D01*
X0310995Y0253433D01*
X0310545Y0249633D01*
X0310545Y0173133D01*
X0309345Y0169833D02*
X0307245Y0171933D01*
X0307245Y0192333D01*
X0279945Y0219633D01*
X0279945Y0220533D01*
X0276645Y0219333D02*
X0276645Y0229233D01*
X0279345Y0231933D01*
X0285495Y0243083D02*
X0291945Y0246333D01*
X0294945Y0243333D01*
X0298245Y0243333D01*
X0295245Y0228333D02*
X0295245Y0220433D01*
X0287145Y0208833D02*
X0276645Y0219333D01*
X0287145Y0208833D02*
X0287145Y0207933D01*
X0286220Y0202683D02*
X0218095Y0270808D01*
X0218095Y0293308D01*
X0244845Y0341433D02*
X0272095Y0341433D01*
X0272095Y0328933D01*
X0271345Y0328183D01*
X0271345Y0315683D01*
X0278145Y0321933D02*
X0278145Y0344133D01*
X0274845Y0347433D01*
X0274245Y0346233D02*
X0276945Y0343533D01*
X0276945Y0287433D01*
X0302745Y0261633D01*
X0305445Y0261633D01*
X0303645Y0265233D02*
X0303645Y0296433D01*
X0278145Y0321933D01*
X0274245Y0346233D02*
X0238545Y0346233D01*
X0183345Y0401433D01*
X0166845Y0401433D01*
X0194445Y0403833D02*
X0166845Y0431433D01*
X0166545Y0435633D02*
X0169845Y0435633D01*
X0194745Y0410733D01*
X0241845Y0410733D01*
X0243345Y0412233D01*
X0243095Y0414051D01*
X0243345Y0414033D01*
X0245145Y0407133D02*
X0257745Y0407133D01*
X0259245Y0405633D01*
X0259345Y0405409D01*
X0246945Y0403533D02*
X0246945Y0395133D01*
X0248145Y0393933D01*
X0248322Y0393933D01*
X0246945Y0403533D02*
X0246835Y0403815D01*
X0245145Y0407133D02*
X0241995Y0403983D01*
X0242145Y0403833D01*
X0242145Y0350733D01*
X0283545Y0381933D02*
X0293445Y0381933D01*
X0295845Y0384333D01*
X0295845Y0393633D01*
X0269145Y0420333D01*
X0269145Y0421233D01*
X0269119Y0421433D01*
X0241995Y0403983D02*
X0241845Y0403833D01*
X0239445Y0403833D01*
X0239355Y0403815D01*
X0239145Y0403833D01*
X0194445Y0403833D01*
X0166545Y0435633D02*
X0162645Y0439533D01*
X0162645Y0453333D01*
X0166845Y0457533D01*
X0166845Y0461433D01*
X0160095Y0355983D02*
X0134445Y0330333D01*
X0134445Y0327933D01*
X0309345Y0169833D02*
X0311745Y0169833D01*
X0316245Y0174333D01*
X0316245Y0182133D01*
X0371745Y0237633D01*
X0431745Y0237633D01*
X0431845Y0237683D01*
X0432045Y0237933D01*
X0436545Y0242433D01*
X0436545Y0258933D01*
X0448845Y0271233D01*
X0448845Y0342333D01*
X0400845Y0327633D02*
X0375345Y0327633D01*
D20*
X0375345Y0327633D03*
X0385245Y0312033D03*
X0400845Y0327633D03*
X0441345Y0360933D03*
X0448845Y0342333D03*
X0310995Y0253433D03*
X0304245Y0258333D03*
X0303645Y0265233D03*
X0291945Y0246333D03*
X0298245Y0243333D03*
X0285495Y0243083D03*
X0279345Y0231933D03*
X0279945Y0220533D03*
X0287145Y0207933D03*
X0286220Y0202683D03*
X0295245Y0220433D03*
X0301845Y0229533D03*
X0319545Y0180933D03*
X0310545Y0173133D03*
X0316945Y0137233D03*
X0218095Y0293308D03*
X0271845Y0309933D03*
X0242145Y0350733D03*
X0283545Y0359433D03*
X0300945Y0380133D03*
X0244545Y0419433D03*
X0289545Y0446433D03*
X0153945Y0312633D03*
X0146145Y0312633D03*
X0134445Y0327933D03*
D21*
X0156845Y0176933D03*
X0165095Y0176933D03*
X0156095Y0185433D03*
X0156095Y0193683D03*
X0156095Y0201433D03*
X0156095Y0208933D03*
X0156095Y0216933D03*
X0156095Y0225183D03*
X0164845Y0225183D03*
X0173595Y0225183D03*
X0182845Y0225183D03*
X0191845Y0225183D03*
X0200345Y0225183D03*
X0205345Y0219433D03*
X0209845Y0225183D03*
X0218345Y0225183D03*
X0214345Y0234433D03*
X0231345Y0216183D03*
X0227345Y0210933D03*
X0230595Y0203183D03*
X0228345Y0195933D03*
X0223095Y0189183D03*
X0215095Y0189183D03*
X0207845Y0189183D03*
X0207845Y0182433D03*
X0212595Y0176433D03*
X0220095Y0176683D03*
X0227845Y0176683D03*
X0230845Y0183183D03*
X0206595Y0211933D03*
X0199095Y0212183D03*
X0191845Y0212183D03*
X0183845Y0212183D03*
X0184845Y0204183D03*
X0184845Y0196433D03*
X0185095Y0189433D03*
X0185095Y0182933D03*
X0181345Y0176933D03*
X0173345Y0177183D03*
X0292845Y0165683D03*
X0271345Y0315683D03*
X0271345Y0328183D03*
X0272095Y0341433D03*
X0244845Y0341433D03*
X0144345Y0331183D03*
X0298345Y0481933D03*
X0308095Y0481933D03*
X0461845Y0336183D03*
X0459595Y0317433D03*
D22*
X0441345Y0360933D02*
X0359145Y0443133D01*
X0363945Y0447933D01*
X0364095Y0448183D01*
X0359145Y0443133D02*
X0289545Y0443133D01*
X0289545Y0446433D01*
X0289545Y0443133D02*
X0283845Y0443133D01*
X0262245Y0421533D01*
X0262072Y0421433D01*
X0261345Y0417033D02*
X0274345Y0404033D01*
X0274345Y0389976D01*
X0290802Y0389976D01*
X0291845Y0388933D01*
X0291645Y0389133D01*
X0300945Y0380133D02*
X0369045Y0312033D01*
X0385245Y0312033D01*
X0319545Y0180933D02*
X0319545Y0173733D01*
X0314445Y0168633D01*
X0313845Y0168033D01*
X0298545Y0168033D01*
X0153945Y0312633D01*
X0146145Y0312633D01*
X0191445Y0416733D02*
X0166845Y0441333D01*
X0166845Y0441433D01*
X0166845Y0451233D02*
X0166845Y0451433D01*
X0166845Y0451233D02*
X0218145Y0451233D01*
X0252345Y0417033D01*
X0261345Y0417033D01*
X0246835Y0414051D02*
X0246645Y0414333D01*
X0246645Y0416133D01*
X0244845Y0417933D01*
X0244545Y0417933D01*
X0244545Y0419433D01*
X0244545Y0417933D02*
X0241245Y0417933D01*
X0239445Y0416133D01*
X0238845Y0416733D01*
X0191445Y0416733D01*
X0239355Y0414051D02*
X0239445Y0414333D01*
X0239445Y0416133D01*
X0314445Y0168633D02*
X0316945Y0137233D01*
M02*
