%
M48
M72
T01C0.01500
T02C0.02362
T03C0.03937
T04C0.04000
T05C0.04331
T06C0.05512
%
T01
X279945Y220533
X279345Y231933
X285495Y243083
X291945Y246333
X298245Y243333
X301845Y229533
X295245Y220433
X287145Y207933
X286220Y202683
X310545Y173133
X319545Y180933
X316945Y137233
X310995Y253433
X304245Y258333
X303645Y265233
X271845Y309933
X242145Y350733
X283545Y359433
X300945Y380133
X244545Y419433
X289545Y446433
X375345Y327633
X385245Y312033
X400845Y327633
X441345Y360933
X448845Y342333
X218095Y293308
X153945Y312633
X146145Y312633
X134445Y327933
T02
X156845Y176933
X165095Y176933
X156095Y185433
X156095Y193683
X156095Y201433
X156095Y208933
X156095Y216933
X156095Y225183
X164845Y225183
X173595Y225183
X182845Y225183
X191845Y225183
X200345Y225183
X205345Y219433
X209845Y225183
X218345Y225183
X214345Y234433
X231345Y216183
X227345Y210933
X230595Y203183
X228345Y195933
X223095Y189183
X215095Y189183
X207845Y189183
X207845Y182433
X212595Y176433
X220095Y176683
X227845Y176683
X230845Y183183
X206595Y211933
X199095Y212183
X191845Y212183
X183845Y212183
X184845Y204183
X184845Y196433
X185095Y189433
X185095Y182933
X181345Y176933
X173345Y177183
X292845Y165683
X271345Y315683
X271345Y328183
X272095Y341433
X244845Y341433
X144345Y331183
X298345Y481933
X308095Y481933
X461845Y336183
X459595Y317433
T03
X301845Y388933
X291845Y388933
T04
X431845Y257683
X431845Y247683
X431845Y237683
X441845Y237683
X441845Y247683
X441845Y257683
X411845Y186433
X401845Y186433
X391845Y186433
X381845Y186433
X371845Y186433
X361845Y186433
X445595Y420183
X445595Y430183
X445595Y440183
X445595Y450183
X445595Y460183
X445595Y470183
T05
X364095Y448183
X354095Y448183
X166845Y451433
X166845Y441433
X166845Y431433
X166845Y421433
X166845Y411433
X166845Y401433
X166845Y391433
X166845Y381433
X166845Y371433
X166845Y461433
T06
X262908Y378874
X320782Y378874
X320782Y283992
X262908Y283992
M30
