G75*
%MOIN*%
%OFA0B0*%
%FSLAX25Y25*%
%IPPOS*%
%LPD*%
%AMOC8*
5,1,8,0,0,1.08239X$1,22.5*
%
%ADD10C,0.01600*%
%ADD11C,0.00400*%
%ADD12C,0.00600*%
%ADD13C,0.00500*%
%ADD14C,0.00000*%
%ADD15C,0.00472*%
%ADD16C,0.00787*%
%ADD17C,0.00300*%
%ADD18C,0.00800*%
%ADD19R,0.01200X0.00400*%
%ADD20R,0.00400X0.00400*%
%ADD21R,0.03200X0.00400*%
%ADD22R,0.00800X0.00400*%
%ADD23R,0.02800X0.00400*%
%ADD24R,0.02400X0.00400*%
%ADD25R,0.04400X0.00400*%
%ADD26R,0.01600X0.00400*%
%ADD27R,0.02000X0.00400*%
%ADD28R,0.07600X0.00400*%
%ADD29R,0.04800X0.00400*%
D10*
X0146845Y0171433D02*
X0146845Y0306433D01*
X0031845Y0306433D01*
X0031845Y0322683D01*
X0031845Y0330183D02*
X0031845Y0345183D01*
X0031845Y0346433D02*
X0146845Y0346433D01*
X0146845Y0481433D01*
X0281845Y0481433D01*
X0281845Y0596433D01*
X0298095Y0596433D01*
X0305595Y0596433D02*
X0321845Y0596433D01*
X0321845Y0481433D01*
X0456845Y0481433D01*
X0456845Y0346433D01*
X0571845Y0346433D01*
X0571845Y0330183D01*
X0571845Y0322683D02*
X0571845Y0306433D01*
X0456845Y0306433D01*
X0456845Y0171433D01*
X0321845Y0171433D01*
X0321845Y0056433D01*
X0305595Y0056433D01*
X0298095Y0056433D02*
X0281845Y0056433D01*
X0281845Y0171433D01*
X0146845Y0171433D01*
D11*
X0203862Y0189934D02*
X0207699Y0189934D01*
X0208466Y0190701D01*
X0208466Y0192236D01*
X0207699Y0193003D01*
X0203862Y0193003D01*
X0204629Y0194538D02*
X0203862Y0195305D01*
X0203862Y0196840D01*
X0204629Y0197607D01*
X0204629Y0199142D02*
X0205397Y0199142D01*
X0206164Y0199909D01*
X0206164Y0201444D01*
X0206931Y0202211D01*
X0207699Y0202211D01*
X0208466Y0201444D01*
X0208466Y0199909D01*
X0207699Y0199142D01*
X0206931Y0199142D01*
X0206164Y0199909D01*
X0206164Y0201444D02*
X0205397Y0202211D01*
X0204629Y0202211D01*
X0203862Y0201444D01*
X0203862Y0199909D01*
X0204629Y0199142D01*
X0206164Y0196840D02*
X0206164Y0195305D01*
X0205397Y0194538D01*
X0204629Y0194538D01*
X0203095Y0196072D02*
X0209233Y0196072D01*
X0208466Y0195305D02*
X0208466Y0196840D01*
X0207699Y0197607D01*
X0206931Y0197607D01*
X0206164Y0196840D01*
X0207699Y0194538D02*
X0208466Y0195305D01*
X0211941Y0220241D02*
X0214243Y0220241D01*
X0215010Y0221009D01*
X0215010Y0221776D01*
X0214243Y0222543D01*
X0211941Y0222543D01*
X0211941Y0220241D02*
X0211941Y0224845D01*
X0214243Y0224845D01*
X0215010Y0224078D01*
X0215010Y0223311D01*
X0214243Y0222543D01*
X0216545Y0224078D02*
X0217312Y0224845D01*
X0218847Y0224845D01*
X0219614Y0224078D01*
X0219614Y0223311D01*
X0216545Y0220241D01*
X0219614Y0220241D01*
X0289318Y0287926D02*
X0289318Y0290228D01*
X0290853Y0291763D01*
X0290853Y0292530D01*
X0292388Y0291763D02*
X0293155Y0292530D01*
X0294690Y0292530D01*
X0295457Y0291763D01*
X0295457Y0290996D01*
X0292388Y0287926D01*
X0295457Y0287926D01*
X0289318Y0290228D02*
X0287784Y0291763D01*
X0287784Y0292530D01*
X0315111Y0334802D02*
X0316045Y0334802D01*
X0316512Y0335269D01*
X0316512Y0337605D01*
X0317590Y0337138D02*
X0318057Y0337605D01*
X0318991Y0337605D01*
X0319458Y0337138D01*
X0318991Y0336204D02*
X0318057Y0336204D01*
X0317590Y0336671D01*
X0317590Y0337138D01*
X0318524Y0338072D02*
X0318524Y0334335D01*
X0318057Y0334802D02*
X0318991Y0334802D01*
X0319458Y0335269D01*
X0319458Y0335736D01*
X0318991Y0336204D01*
X0320537Y0336204D02*
X0321471Y0336671D01*
X0321938Y0336671D01*
X0322405Y0336204D01*
X0322405Y0335269D01*
X0321938Y0334802D01*
X0321004Y0334802D01*
X0320537Y0335269D01*
X0320537Y0336204D02*
X0320537Y0337605D01*
X0322405Y0337605D01*
X0318057Y0334802D02*
X0317590Y0335269D01*
X0315111Y0334802D02*
X0314644Y0335269D01*
X0314644Y0337605D01*
X0206971Y0449133D02*
X0204669Y0449133D01*
X0204669Y0453737D01*
X0206971Y0453737D01*
X0207738Y0452970D01*
X0207738Y0449900D01*
X0206971Y0449133D01*
X0203134Y0449133D02*
X0203134Y0453737D01*
X0200065Y0453737D02*
X0203134Y0449133D01*
X0200065Y0449133D02*
X0200065Y0453737D01*
X0198530Y0452970D02*
X0197763Y0453737D01*
X0196228Y0453737D01*
X0195461Y0452970D01*
X0195461Y0449900D01*
X0196228Y0449133D01*
X0197763Y0449133D01*
X0198530Y0449900D01*
X0198530Y0451435D01*
X0196995Y0451435D01*
X0193926Y0448366D02*
X0190857Y0448366D01*
X0187788Y0449133D02*
X0187788Y0453737D01*
X0189322Y0453737D02*
X0186253Y0453737D01*
X0184718Y0452202D02*
X0184718Y0449133D01*
X0184718Y0451435D02*
X0181649Y0451435D01*
X0181649Y0452202D02*
X0183184Y0453737D01*
X0184718Y0452202D01*
X0181649Y0452202D02*
X0181649Y0449133D01*
X0180114Y0449900D02*
X0179347Y0449133D01*
X0177045Y0449133D01*
X0177045Y0453737D01*
X0179347Y0453737D01*
X0180114Y0452970D01*
X0180114Y0452202D01*
X0179347Y0451435D01*
X0177045Y0451435D01*
X0179347Y0451435D02*
X0180114Y0450668D01*
X0180114Y0449900D01*
X0180114Y0443737D02*
X0180114Y0440668D01*
X0178580Y0439133D01*
X0177045Y0440668D01*
X0177045Y0443737D01*
X0181649Y0443737D02*
X0181649Y0439133D01*
X0183951Y0439133D01*
X0184718Y0439900D01*
X0184718Y0440668D01*
X0183951Y0441435D01*
X0181649Y0441435D01*
X0181649Y0443737D02*
X0183951Y0443737D01*
X0184718Y0442970D01*
X0184718Y0442202D01*
X0183951Y0441435D01*
X0186253Y0441435D02*
X0189322Y0441435D01*
X0189322Y0442202D02*
X0189322Y0439133D01*
X0186253Y0439133D02*
X0186253Y0442202D01*
X0187788Y0443737D01*
X0189322Y0442202D01*
X0190857Y0443737D02*
X0193926Y0443737D01*
X0192392Y0443737D02*
X0192392Y0439133D01*
X0191624Y0433737D02*
X0191624Y0430668D01*
X0190090Y0429133D01*
X0188555Y0430668D01*
X0188555Y0433737D01*
X0187020Y0432970D02*
X0183951Y0429900D01*
X0184718Y0429133D01*
X0186253Y0429133D01*
X0187020Y0429900D01*
X0187020Y0432970D01*
X0186253Y0433737D01*
X0184718Y0433737D01*
X0183951Y0432970D01*
X0183951Y0429900D01*
X0182416Y0429900D02*
X0182416Y0429133D01*
X0181649Y0429133D01*
X0181649Y0429900D01*
X0182416Y0429900D01*
X0180114Y0429900D02*
X0179347Y0429133D01*
X0177812Y0429133D01*
X0177045Y0429900D01*
X0178580Y0431435D02*
X0179347Y0431435D01*
X0180114Y0430668D01*
X0180114Y0429900D01*
X0179347Y0431435D02*
X0180114Y0432202D01*
X0180114Y0432970D01*
X0179347Y0433737D01*
X0177812Y0433737D01*
X0177045Y0432970D01*
X0177045Y0423737D02*
X0179347Y0423737D01*
X0180114Y0422970D01*
X0180114Y0421435D01*
X0179347Y0420668D01*
X0177045Y0420668D01*
X0177045Y0419133D02*
X0177045Y0423737D01*
X0181649Y0423737D02*
X0183951Y0423737D01*
X0184718Y0422970D01*
X0184718Y0422202D01*
X0183951Y0421435D01*
X0181649Y0421435D01*
X0181649Y0419133D02*
X0183951Y0419133D01*
X0184718Y0419900D01*
X0184718Y0420668D01*
X0183951Y0421435D01*
X0186253Y0421435D02*
X0187788Y0422202D01*
X0188555Y0422202D01*
X0189322Y0421435D01*
X0189322Y0419900D01*
X0188555Y0419133D01*
X0187020Y0419133D01*
X0186253Y0419900D01*
X0186253Y0421435D02*
X0186253Y0423737D01*
X0189322Y0423737D01*
X0189322Y0413737D02*
X0186253Y0413737D01*
X0186253Y0411435D01*
X0187788Y0412202D01*
X0188555Y0412202D01*
X0189322Y0411435D01*
X0189322Y0409900D01*
X0188555Y0409133D01*
X0187020Y0409133D01*
X0186253Y0409900D01*
X0184718Y0409133D02*
X0181649Y0409133D01*
X0181649Y0413737D01*
X0184718Y0413737D01*
X0183184Y0411435D02*
X0181649Y0411435D01*
X0180114Y0411435D02*
X0179347Y0410668D01*
X0177045Y0410668D01*
X0177045Y0409133D02*
X0177045Y0413737D01*
X0179347Y0413737D01*
X0180114Y0412970D01*
X0180114Y0411435D01*
X0179347Y0403737D02*
X0177045Y0403737D01*
X0177045Y0399133D01*
X0177045Y0400668D02*
X0179347Y0400668D01*
X0180114Y0401435D01*
X0180114Y0402970D01*
X0179347Y0403737D01*
X0181649Y0403737D02*
X0181649Y0399133D01*
X0184718Y0399133D01*
X0186253Y0399900D02*
X0187020Y0399133D01*
X0188555Y0399133D01*
X0189322Y0399900D01*
X0189322Y0400668D01*
X0188555Y0401435D01*
X0187788Y0401435D01*
X0188555Y0401435D02*
X0189322Y0402202D01*
X0189322Y0402970D01*
X0188555Y0403737D01*
X0187020Y0403737D01*
X0186253Y0402970D01*
X0184718Y0403737D02*
X0181649Y0403737D01*
X0181649Y0401435D02*
X0183184Y0401435D01*
X0184718Y0393737D02*
X0181649Y0393737D01*
X0181649Y0389133D01*
X0184718Y0389133D01*
X0183184Y0391435D02*
X0181649Y0391435D01*
X0180114Y0391435D02*
X0179347Y0390668D01*
X0177045Y0390668D01*
X0177045Y0389133D02*
X0177045Y0393737D01*
X0179347Y0393737D01*
X0180114Y0392970D01*
X0180114Y0391435D01*
X0186253Y0391435D02*
X0189322Y0391435D01*
X0188555Y0389133D02*
X0188555Y0393737D01*
X0186253Y0391435D01*
X0187788Y0383737D02*
X0189322Y0382202D01*
X0189322Y0379133D01*
X0189322Y0381435D02*
X0186253Y0381435D01*
X0186253Y0382202D02*
X0187788Y0383737D01*
X0186253Y0382202D02*
X0186253Y0379133D01*
X0184718Y0379900D02*
X0184718Y0382970D01*
X0183951Y0383737D01*
X0181649Y0383737D01*
X0181649Y0379133D01*
X0183951Y0379133D01*
X0184718Y0379900D01*
X0180114Y0379900D02*
X0179347Y0379133D01*
X0177812Y0379133D01*
X0177045Y0379900D01*
X0177812Y0381435D02*
X0179347Y0381435D01*
X0180114Y0380668D01*
X0180114Y0379900D01*
X0177812Y0381435D02*
X0177045Y0382202D01*
X0177045Y0382970D01*
X0177812Y0383737D01*
X0179347Y0383737D01*
X0180114Y0382970D01*
X0179347Y0373737D02*
X0177812Y0373737D01*
X0177045Y0372970D01*
X0177045Y0372202D01*
X0177812Y0371435D01*
X0179347Y0371435D01*
X0180114Y0370668D01*
X0180114Y0369900D01*
X0179347Y0369133D01*
X0177812Y0369133D01*
X0177045Y0369900D01*
X0180114Y0372970D02*
X0179347Y0373737D01*
X0181649Y0372970D02*
X0181649Y0369900D01*
X0182416Y0369133D01*
X0183951Y0369133D01*
X0184718Y0369900D01*
X0186253Y0369133D02*
X0189322Y0369133D01*
X0186253Y0369133D02*
X0186253Y0373737D01*
X0184718Y0372970D02*
X0183951Y0373737D01*
X0182416Y0373737D01*
X0181649Y0372970D01*
X0181649Y0419133D02*
X0181649Y0423737D01*
X0181649Y0459133D02*
X0181649Y0463737D01*
X0184718Y0459133D01*
X0184718Y0463737D01*
X0186253Y0463737D02*
X0188555Y0463737D01*
X0189322Y0462970D01*
X0189322Y0459900D01*
X0188555Y0459133D01*
X0186253Y0459133D01*
X0186253Y0463737D01*
X0180114Y0462970D02*
X0179347Y0463737D01*
X0177812Y0463737D01*
X0177045Y0462970D01*
X0177045Y0459900D01*
X0177812Y0459133D01*
X0179347Y0459133D01*
X0180114Y0459900D01*
X0180114Y0461435D01*
X0178580Y0461435D01*
X0293640Y0554122D02*
X0296709Y0554122D01*
X0295174Y0555657D02*
X0295174Y0552587D01*
X0295375Y0557194D02*
X0296910Y0557194D01*
X0297677Y0557961D01*
X0297677Y0561798D01*
X0299212Y0561031D02*
X0299979Y0561798D01*
X0301514Y0561798D01*
X0302281Y0561031D01*
X0303816Y0561031D02*
X0303816Y0560263D01*
X0304583Y0559496D01*
X0306885Y0559496D01*
X0306885Y0557961D02*
X0306885Y0561031D01*
X0306118Y0561798D01*
X0304583Y0561798D01*
X0303816Y0561031D01*
X0302281Y0558729D02*
X0301514Y0559496D01*
X0299979Y0559496D01*
X0299212Y0560263D01*
X0299212Y0561031D01*
X0300746Y0562565D02*
X0300746Y0556427D01*
X0299979Y0557194D02*
X0301514Y0557194D01*
X0302281Y0557961D01*
X0302281Y0558729D01*
X0303816Y0557961D02*
X0304583Y0557194D01*
X0306118Y0557194D01*
X0306885Y0557961D01*
X0305451Y0554122D02*
X0308520Y0554122D01*
X0299979Y0557194D02*
X0299212Y0557961D01*
X0295375Y0557194D02*
X0294608Y0557961D01*
X0294608Y0561798D01*
X0080406Y0334358D02*
X0080406Y0331289D01*
X0077334Y0330421D02*
X0077334Y0327352D01*
X0077334Y0328886D02*
X0072730Y0328886D01*
X0074265Y0327352D01*
X0073498Y0325817D02*
X0072730Y0325050D01*
X0072730Y0323515D01*
X0073498Y0322748D01*
X0074265Y0322748D01*
X0075032Y0323515D01*
X0075032Y0325050D01*
X0075799Y0325817D01*
X0076567Y0325817D01*
X0077334Y0325050D01*
X0077334Y0323515D01*
X0076567Y0322748D01*
X0076567Y0321213D02*
X0072730Y0321213D01*
X0072730Y0318144D02*
X0076567Y0318144D01*
X0077334Y0318911D01*
X0077334Y0320446D01*
X0076567Y0321213D01*
X0078872Y0321012D02*
X0081941Y0321012D01*
X0080406Y0319478D02*
X0080406Y0322547D01*
X0078101Y0324282D02*
X0071963Y0324282D01*
X0073498Y0331955D02*
X0072730Y0332723D01*
X0072730Y0334257D01*
X0073498Y0335025D01*
X0076567Y0331955D01*
X0077334Y0332723D01*
X0077334Y0334257D01*
X0076567Y0335025D01*
X0073498Y0335025D01*
X0073498Y0331955D02*
X0076567Y0331955D01*
X0292786Y0099998D02*
X0295855Y0099998D01*
X0295188Y0096926D02*
X0295188Y0093089D01*
X0294421Y0092322D01*
X0292886Y0092322D01*
X0292119Y0093089D01*
X0292119Y0096926D01*
X0296723Y0096159D02*
X0296723Y0095391D01*
X0297490Y0094624D01*
X0299025Y0094624D01*
X0299792Y0093857D01*
X0299792Y0093089D01*
X0299025Y0092322D01*
X0297490Y0092322D01*
X0296723Y0093089D01*
X0298257Y0091555D02*
X0298257Y0097693D01*
X0297490Y0096926D02*
X0299025Y0096926D01*
X0299792Y0096159D01*
X0301327Y0095391D02*
X0302861Y0096926D01*
X0302861Y0092322D01*
X0301327Y0092322D02*
X0304396Y0092322D01*
X0305931Y0092322D02*
X0309000Y0095391D01*
X0309000Y0096159D01*
X0308232Y0096926D01*
X0306698Y0096926D01*
X0305931Y0096159D01*
X0306131Y0098463D02*
X0306131Y0101533D01*
X0304597Y0099998D02*
X0307666Y0099998D01*
X0309000Y0092322D02*
X0305931Y0092322D01*
X0297490Y0096926D02*
X0296723Y0096159D01*
X0526746Y0331969D02*
X0529815Y0331969D01*
X0531352Y0333303D02*
X0535956Y0333303D01*
X0535956Y0331768D02*
X0535956Y0334838D01*
X0532887Y0331768D02*
X0531352Y0333303D01*
X0528280Y0333504D02*
X0528280Y0330435D01*
X0531352Y0328699D02*
X0535956Y0328699D01*
X0535956Y0327165D02*
X0535956Y0330234D01*
X0532887Y0327165D02*
X0531352Y0328699D01*
X0532120Y0325630D02*
X0531352Y0324863D01*
X0531352Y0323328D01*
X0532120Y0322561D01*
X0532887Y0322561D01*
X0533654Y0323328D01*
X0533654Y0324863D01*
X0534422Y0325630D01*
X0535189Y0325630D01*
X0535956Y0324863D01*
X0535956Y0323328D01*
X0535189Y0322561D01*
X0535189Y0321026D02*
X0531352Y0321026D01*
X0531352Y0317957D02*
X0535189Y0317957D01*
X0535956Y0318724D01*
X0535956Y0320259D01*
X0535189Y0321026D01*
X0536723Y0324095D02*
X0530585Y0324095D01*
X0528280Y0321693D02*
X0528280Y0318624D01*
D12*
X0571934Y0323283D02*
X0571852Y0322888D01*
X0571760Y0322494D01*
X0571659Y0322103D01*
X0571548Y0321714D01*
X0571428Y0321329D01*
X0571298Y0320946D01*
X0571159Y0320567D01*
X0571011Y0320191D01*
X0570854Y0319819D01*
X0570687Y0319450D01*
X0570512Y0319086D01*
X0570328Y0318727D01*
X0570135Y0318372D01*
X0569933Y0318022D01*
X0569723Y0317677D01*
X0569505Y0317337D01*
X0569278Y0317002D01*
X0569043Y0316673D01*
X0568800Y0316351D01*
X0568549Y0316034D01*
X0568291Y0315723D01*
X0568025Y0315419D01*
X0567752Y0315121D01*
X0567471Y0314830D01*
X0567184Y0314546D01*
X0566889Y0314270D01*
X0566588Y0314000D01*
X0566281Y0313738D01*
X0565967Y0313484D01*
X0565647Y0313237D01*
X0565321Y0312998D01*
X0564989Y0312767D01*
X0564652Y0312545D01*
X0564309Y0312331D01*
X0563962Y0312125D01*
X0563609Y0311928D01*
X0563252Y0311739D01*
X0562890Y0311560D01*
X0562524Y0311389D01*
X0562153Y0311227D01*
X0561779Y0311074D01*
X0561402Y0310931D01*
X0561020Y0310797D01*
X0560636Y0310672D01*
X0560249Y0310557D01*
X0559859Y0310451D01*
X0559467Y0310354D01*
X0559072Y0310268D01*
X0558675Y0310191D01*
X0558277Y0310124D01*
X0557877Y0310066D01*
X0557476Y0310019D01*
X0557073Y0309981D01*
X0556670Y0309953D01*
X0556267Y0309935D01*
X0555863Y0309927D01*
X0555459Y0309928D01*
X0555055Y0309940D01*
X0554651Y0309961D01*
X0554248Y0309993D01*
X0553847Y0310034D01*
X0553446Y0310085D01*
X0553046Y0310146D01*
X0552648Y0310216D01*
X0552252Y0310296D01*
X0551859Y0310386D01*
X0551467Y0310486D01*
X0551078Y0310595D01*
X0550692Y0310714D01*
X0550308Y0310842D01*
X0549928Y0310979D01*
X0549552Y0311126D01*
X0549179Y0311282D01*
X0548810Y0311446D01*
X0548445Y0311620D01*
X0548085Y0311803D01*
X0547729Y0311994D01*
X0547378Y0312195D01*
X0547032Y0312403D01*
X0546692Y0312620D01*
X0546356Y0312846D01*
X0546026Y0313079D01*
X0545703Y0313321D01*
X0545385Y0313570D01*
X0545073Y0313827D01*
X0544768Y0314092D01*
X0544469Y0314364D01*
X0544177Y0314643D01*
X0543892Y0314929D01*
X0543614Y0315223D01*
X0543343Y0315522D01*
X0543080Y0315829D01*
X0542824Y0316142D01*
X0542576Y0316461D01*
X0542336Y0316786D01*
X0542104Y0317116D01*
X0541880Y0317453D01*
X0541664Y0317794D01*
X0541457Y0318141D01*
X0541258Y0318493D01*
X0541068Y0318850D01*
X0540887Y0319211D01*
X0540714Y0319576D01*
X0540551Y0319946D01*
X0540397Y0320319D01*
X0540252Y0320696D01*
X0540116Y0321077D01*
X0539990Y0321461D01*
X0539873Y0321847D01*
X0539765Y0322237D01*
X0539667Y0322629D01*
X0539579Y0323023D01*
X0539500Y0323420D01*
X0539431Y0323818D01*
X0539372Y0324217D01*
X0539323Y0324618D01*
X0539284Y0325021D01*
X0539254Y0325423D01*
X0539234Y0325827D01*
X0539224Y0326231D01*
X0539224Y0326635D01*
X0539234Y0327039D01*
X0539254Y0327443D01*
X0539284Y0327845D01*
X0539323Y0328248D01*
X0539372Y0328649D01*
X0539431Y0329048D01*
X0539500Y0329446D01*
X0539579Y0329843D01*
X0539667Y0330237D01*
X0539765Y0330629D01*
X0539873Y0331019D01*
X0539990Y0331405D01*
X0540116Y0331789D01*
X0540252Y0332170D01*
X0540397Y0332547D01*
X0540551Y0332920D01*
X0540714Y0333290D01*
X0540887Y0333655D01*
X0541068Y0334016D01*
X0541258Y0334373D01*
X0541457Y0334725D01*
X0541664Y0335072D01*
X0541880Y0335413D01*
X0542104Y0335750D01*
X0542336Y0336080D01*
X0542576Y0336405D01*
X0542824Y0336724D01*
X0543080Y0337037D01*
X0543343Y0337344D01*
X0543614Y0337643D01*
X0543892Y0337937D01*
X0544177Y0338223D01*
X0544469Y0338502D01*
X0544768Y0338774D01*
X0545073Y0339039D01*
X0545385Y0339296D01*
X0545703Y0339545D01*
X0546026Y0339787D01*
X0546356Y0340020D01*
X0546692Y0340246D01*
X0547032Y0340463D01*
X0547378Y0340671D01*
X0547729Y0340872D01*
X0548085Y0341063D01*
X0548445Y0341246D01*
X0548810Y0341420D01*
X0549179Y0341584D01*
X0549552Y0341740D01*
X0549928Y0341887D01*
X0550308Y0342024D01*
X0550692Y0342152D01*
X0551078Y0342271D01*
X0551467Y0342380D01*
X0551859Y0342480D01*
X0552252Y0342570D01*
X0552648Y0342650D01*
X0553046Y0342720D01*
X0553446Y0342781D01*
X0553847Y0342832D01*
X0554248Y0342873D01*
X0554651Y0342905D01*
X0555055Y0342926D01*
X0555459Y0342938D01*
X0555863Y0342939D01*
X0556267Y0342931D01*
X0556670Y0342913D01*
X0557073Y0342885D01*
X0557476Y0342847D01*
X0557877Y0342800D01*
X0558277Y0342742D01*
X0558675Y0342675D01*
X0559072Y0342598D01*
X0559467Y0342512D01*
X0559859Y0342415D01*
X0560249Y0342309D01*
X0560636Y0342194D01*
X0561020Y0342069D01*
X0561402Y0341935D01*
X0561779Y0341792D01*
X0562153Y0341639D01*
X0562524Y0341477D01*
X0562890Y0341306D01*
X0563252Y0341127D01*
X0563609Y0340938D01*
X0563962Y0340741D01*
X0564309Y0340535D01*
X0564652Y0340321D01*
X0564989Y0340099D01*
X0565321Y0339868D01*
X0565647Y0339629D01*
X0565967Y0339382D01*
X0566281Y0339128D01*
X0566588Y0338866D01*
X0566889Y0338596D01*
X0567184Y0338320D01*
X0567471Y0338036D01*
X0567752Y0337745D01*
X0568025Y0337447D01*
X0568291Y0337143D01*
X0568549Y0336832D01*
X0568800Y0336515D01*
X0569043Y0336193D01*
X0569278Y0335864D01*
X0569505Y0335529D01*
X0569723Y0335189D01*
X0569933Y0334844D01*
X0570135Y0334494D01*
X0570328Y0334139D01*
X0570512Y0333780D01*
X0570687Y0333416D01*
X0570854Y0333047D01*
X0571011Y0332675D01*
X0571159Y0332299D01*
X0571298Y0331920D01*
X0571428Y0331537D01*
X0571548Y0331152D01*
X0571659Y0330763D01*
X0571760Y0330372D01*
X0571852Y0329978D01*
X0571934Y0329583D01*
X0304995Y0596522D02*
X0305390Y0596440D01*
X0305784Y0596348D01*
X0306175Y0596247D01*
X0306564Y0596136D01*
X0306949Y0596016D01*
X0307332Y0595886D01*
X0307711Y0595747D01*
X0308087Y0595599D01*
X0308459Y0595442D01*
X0308828Y0595275D01*
X0309192Y0595100D01*
X0309551Y0594916D01*
X0309906Y0594723D01*
X0310256Y0594521D01*
X0310601Y0594311D01*
X0310941Y0594093D01*
X0311276Y0593866D01*
X0311605Y0593631D01*
X0311927Y0593388D01*
X0312244Y0593137D01*
X0312555Y0592879D01*
X0312859Y0592613D01*
X0313157Y0592340D01*
X0313448Y0592059D01*
X0313732Y0591772D01*
X0314008Y0591477D01*
X0314278Y0591176D01*
X0314540Y0590869D01*
X0314794Y0590555D01*
X0315041Y0590235D01*
X0315280Y0589909D01*
X0315511Y0589577D01*
X0315733Y0589240D01*
X0315947Y0588897D01*
X0316153Y0588550D01*
X0316350Y0588197D01*
X0316539Y0587840D01*
X0316718Y0587478D01*
X0316889Y0587112D01*
X0317051Y0586741D01*
X0317204Y0586367D01*
X0317347Y0585990D01*
X0317481Y0585608D01*
X0317606Y0585224D01*
X0317721Y0584837D01*
X0317827Y0584447D01*
X0317924Y0584055D01*
X0318010Y0583660D01*
X0318087Y0583263D01*
X0318154Y0582865D01*
X0318212Y0582465D01*
X0318259Y0582064D01*
X0318297Y0581661D01*
X0318325Y0581258D01*
X0318343Y0580855D01*
X0318351Y0580451D01*
X0318350Y0580047D01*
X0318338Y0579643D01*
X0318317Y0579239D01*
X0318285Y0578836D01*
X0318244Y0578435D01*
X0318193Y0578034D01*
X0318132Y0577634D01*
X0318062Y0577236D01*
X0317982Y0576840D01*
X0317892Y0576447D01*
X0317792Y0576055D01*
X0317683Y0575666D01*
X0317564Y0575280D01*
X0317436Y0574896D01*
X0317299Y0574516D01*
X0317152Y0574140D01*
X0316996Y0573767D01*
X0316832Y0573398D01*
X0316658Y0573033D01*
X0316475Y0572673D01*
X0316284Y0572317D01*
X0316083Y0571966D01*
X0315875Y0571620D01*
X0315658Y0571280D01*
X0315432Y0570944D01*
X0315199Y0570614D01*
X0314957Y0570291D01*
X0314708Y0569973D01*
X0314451Y0569661D01*
X0314186Y0569356D01*
X0313914Y0569057D01*
X0313635Y0568765D01*
X0313349Y0568480D01*
X0313055Y0568202D01*
X0312756Y0567931D01*
X0312449Y0567668D01*
X0312136Y0567412D01*
X0311817Y0567164D01*
X0311492Y0566924D01*
X0311162Y0566692D01*
X0310825Y0566468D01*
X0310484Y0566252D01*
X0310137Y0566045D01*
X0309785Y0565846D01*
X0309428Y0565656D01*
X0309067Y0565475D01*
X0308702Y0565302D01*
X0308332Y0565139D01*
X0307959Y0564985D01*
X0307582Y0564840D01*
X0307201Y0564704D01*
X0306817Y0564578D01*
X0306431Y0564461D01*
X0306041Y0564353D01*
X0305649Y0564255D01*
X0305255Y0564167D01*
X0304858Y0564088D01*
X0304460Y0564019D01*
X0304061Y0563960D01*
X0303660Y0563911D01*
X0303257Y0563872D01*
X0302855Y0563842D01*
X0302451Y0563822D01*
X0302047Y0563812D01*
X0301643Y0563812D01*
X0301239Y0563822D01*
X0300835Y0563842D01*
X0300433Y0563872D01*
X0300030Y0563911D01*
X0299629Y0563960D01*
X0299230Y0564019D01*
X0298832Y0564088D01*
X0298435Y0564167D01*
X0298041Y0564255D01*
X0297649Y0564353D01*
X0297259Y0564461D01*
X0296873Y0564578D01*
X0296489Y0564704D01*
X0296108Y0564840D01*
X0295731Y0564985D01*
X0295358Y0565139D01*
X0294988Y0565302D01*
X0294623Y0565475D01*
X0294262Y0565656D01*
X0293905Y0565846D01*
X0293553Y0566045D01*
X0293206Y0566252D01*
X0292865Y0566468D01*
X0292528Y0566692D01*
X0292198Y0566924D01*
X0291873Y0567164D01*
X0291554Y0567412D01*
X0291241Y0567668D01*
X0290934Y0567931D01*
X0290635Y0568202D01*
X0290341Y0568480D01*
X0290055Y0568765D01*
X0289776Y0569057D01*
X0289504Y0569356D01*
X0289239Y0569661D01*
X0288982Y0569973D01*
X0288733Y0570291D01*
X0288491Y0570614D01*
X0288258Y0570944D01*
X0288032Y0571280D01*
X0287815Y0571620D01*
X0287607Y0571966D01*
X0287406Y0572317D01*
X0287215Y0572673D01*
X0287032Y0573033D01*
X0286858Y0573398D01*
X0286694Y0573767D01*
X0286538Y0574140D01*
X0286391Y0574516D01*
X0286254Y0574896D01*
X0286126Y0575280D01*
X0286007Y0575666D01*
X0285898Y0576055D01*
X0285798Y0576447D01*
X0285708Y0576840D01*
X0285628Y0577236D01*
X0285558Y0577634D01*
X0285497Y0578034D01*
X0285446Y0578435D01*
X0285405Y0578836D01*
X0285373Y0579239D01*
X0285352Y0579643D01*
X0285340Y0580047D01*
X0285339Y0580451D01*
X0285347Y0580855D01*
X0285365Y0581258D01*
X0285393Y0581661D01*
X0285431Y0582064D01*
X0285478Y0582465D01*
X0285536Y0582865D01*
X0285603Y0583263D01*
X0285680Y0583660D01*
X0285766Y0584055D01*
X0285863Y0584447D01*
X0285969Y0584837D01*
X0286084Y0585224D01*
X0286209Y0585608D01*
X0286343Y0585990D01*
X0286486Y0586367D01*
X0286639Y0586741D01*
X0286801Y0587112D01*
X0286972Y0587478D01*
X0287151Y0587840D01*
X0287340Y0588197D01*
X0287537Y0588550D01*
X0287743Y0588897D01*
X0287957Y0589240D01*
X0288179Y0589577D01*
X0288410Y0589909D01*
X0288649Y0590235D01*
X0288896Y0590555D01*
X0289150Y0590869D01*
X0289412Y0591176D01*
X0289682Y0591477D01*
X0289958Y0591772D01*
X0290242Y0592059D01*
X0290533Y0592340D01*
X0290831Y0592613D01*
X0291135Y0592879D01*
X0291446Y0593137D01*
X0291763Y0593388D01*
X0292085Y0593631D01*
X0292414Y0593866D01*
X0292749Y0594093D01*
X0293089Y0594311D01*
X0293434Y0594521D01*
X0293784Y0594723D01*
X0294139Y0594916D01*
X0294498Y0595100D01*
X0294862Y0595275D01*
X0295231Y0595442D01*
X0295603Y0595599D01*
X0295979Y0595747D01*
X0296358Y0595886D01*
X0296741Y0596016D01*
X0297126Y0596136D01*
X0297515Y0596247D01*
X0297906Y0596348D01*
X0298300Y0596440D01*
X0298695Y0596522D01*
X0031756Y0329583D02*
X0031838Y0329978D01*
X0031930Y0330372D01*
X0032031Y0330763D01*
X0032142Y0331152D01*
X0032262Y0331537D01*
X0032392Y0331920D01*
X0032531Y0332299D01*
X0032679Y0332675D01*
X0032836Y0333047D01*
X0033003Y0333416D01*
X0033178Y0333780D01*
X0033362Y0334139D01*
X0033555Y0334494D01*
X0033757Y0334844D01*
X0033967Y0335189D01*
X0034185Y0335529D01*
X0034412Y0335864D01*
X0034647Y0336193D01*
X0034890Y0336515D01*
X0035141Y0336832D01*
X0035399Y0337143D01*
X0035665Y0337447D01*
X0035938Y0337745D01*
X0036219Y0338036D01*
X0036506Y0338320D01*
X0036801Y0338596D01*
X0037102Y0338866D01*
X0037409Y0339128D01*
X0037723Y0339382D01*
X0038043Y0339629D01*
X0038369Y0339868D01*
X0038701Y0340099D01*
X0039038Y0340321D01*
X0039381Y0340535D01*
X0039728Y0340741D01*
X0040081Y0340938D01*
X0040438Y0341127D01*
X0040800Y0341306D01*
X0041166Y0341477D01*
X0041537Y0341639D01*
X0041911Y0341792D01*
X0042288Y0341935D01*
X0042670Y0342069D01*
X0043054Y0342194D01*
X0043441Y0342309D01*
X0043831Y0342415D01*
X0044223Y0342512D01*
X0044618Y0342598D01*
X0045015Y0342675D01*
X0045413Y0342742D01*
X0045813Y0342800D01*
X0046214Y0342847D01*
X0046617Y0342885D01*
X0047020Y0342913D01*
X0047423Y0342931D01*
X0047827Y0342939D01*
X0048231Y0342938D01*
X0048635Y0342926D01*
X0049039Y0342905D01*
X0049442Y0342873D01*
X0049843Y0342832D01*
X0050244Y0342781D01*
X0050644Y0342720D01*
X0051042Y0342650D01*
X0051438Y0342570D01*
X0051831Y0342480D01*
X0052223Y0342380D01*
X0052612Y0342271D01*
X0052998Y0342152D01*
X0053382Y0342024D01*
X0053762Y0341887D01*
X0054138Y0341740D01*
X0054511Y0341584D01*
X0054880Y0341420D01*
X0055245Y0341246D01*
X0055605Y0341063D01*
X0055961Y0340872D01*
X0056312Y0340671D01*
X0056658Y0340463D01*
X0056998Y0340246D01*
X0057334Y0340020D01*
X0057664Y0339787D01*
X0057987Y0339545D01*
X0058305Y0339296D01*
X0058617Y0339039D01*
X0058922Y0338774D01*
X0059221Y0338502D01*
X0059513Y0338223D01*
X0059798Y0337937D01*
X0060076Y0337643D01*
X0060347Y0337344D01*
X0060610Y0337037D01*
X0060866Y0336724D01*
X0061114Y0336405D01*
X0061354Y0336080D01*
X0061586Y0335750D01*
X0061810Y0335413D01*
X0062026Y0335072D01*
X0062233Y0334725D01*
X0062432Y0334373D01*
X0062622Y0334016D01*
X0062803Y0333655D01*
X0062976Y0333290D01*
X0063139Y0332920D01*
X0063293Y0332547D01*
X0063438Y0332170D01*
X0063574Y0331789D01*
X0063700Y0331405D01*
X0063817Y0331019D01*
X0063925Y0330629D01*
X0064023Y0330237D01*
X0064111Y0329843D01*
X0064190Y0329446D01*
X0064259Y0329048D01*
X0064318Y0328649D01*
X0064367Y0328248D01*
X0064406Y0327845D01*
X0064436Y0327443D01*
X0064456Y0327039D01*
X0064466Y0326635D01*
X0064466Y0326231D01*
X0064456Y0325827D01*
X0064436Y0325423D01*
X0064406Y0325021D01*
X0064367Y0324618D01*
X0064318Y0324217D01*
X0064259Y0323818D01*
X0064190Y0323420D01*
X0064111Y0323023D01*
X0064023Y0322629D01*
X0063925Y0322237D01*
X0063817Y0321847D01*
X0063700Y0321461D01*
X0063574Y0321077D01*
X0063438Y0320696D01*
X0063293Y0320319D01*
X0063139Y0319946D01*
X0062976Y0319576D01*
X0062803Y0319211D01*
X0062622Y0318850D01*
X0062432Y0318493D01*
X0062233Y0318141D01*
X0062026Y0317794D01*
X0061810Y0317453D01*
X0061586Y0317116D01*
X0061354Y0316786D01*
X0061114Y0316461D01*
X0060866Y0316142D01*
X0060610Y0315829D01*
X0060347Y0315522D01*
X0060076Y0315223D01*
X0059798Y0314929D01*
X0059513Y0314643D01*
X0059221Y0314364D01*
X0058922Y0314092D01*
X0058617Y0313827D01*
X0058305Y0313570D01*
X0057987Y0313321D01*
X0057664Y0313079D01*
X0057334Y0312846D01*
X0056998Y0312620D01*
X0056658Y0312403D01*
X0056312Y0312195D01*
X0055961Y0311994D01*
X0055605Y0311803D01*
X0055245Y0311620D01*
X0054880Y0311446D01*
X0054511Y0311282D01*
X0054138Y0311126D01*
X0053762Y0310979D01*
X0053382Y0310842D01*
X0052998Y0310714D01*
X0052612Y0310595D01*
X0052223Y0310486D01*
X0051831Y0310386D01*
X0051438Y0310296D01*
X0051042Y0310216D01*
X0050644Y0310146D01*
X0050244Y0310085D01*
X0049843Y0310034D01*
X0049442Y0309993D01*
X0049039Y0309961D01*
X0048635Y0309940D01*
X0048231Y0309928D01*
X0047827Y0309927D01*
X0047423Y0309935D01*
X0047020Y0309953D01*
X0046617Y0309981D01*
X0046214Y0310019D01*
X0045813Y0310066D01*
X0045413Y0310124D01*
X0045015Y0310191D01*
X0044618Y0310268D01*
X0044223Y0310354D01*
X0043831Y0310451D01*
X0043441Y0310557D01*
X0043054Y0310672D01*
X0042670Y0310797D01*
X0042288Y0310931D01*
X0041911Y0311074D01*
X0041537Y0311227D01*
X0041166Y0311389D01*
X0040800Y0311560D01*
X0040438Y0311739D01*
X0040081Y0311928D01*
X0039728Y0312125D01*
X0039381Y0312331D01*
X0039038Y0312545D01*
X0038701Y0312767D01*
X0038369Y0312998D01*
X0038043Y0313237D01*
X0037723Y0313484D01*
X0037409Y0313738D01*
X0037102Y0314000D01*
X0036801Y0314270D01*
X0036506Y0314546D01*
X0036219Y0314830D01*
X0035938Y0315121D01*
X0035665Y0315419D01*
X0035399Y0315723D01*
X0035141Y0316034D01*
X0034890Y0316351D01*
X0034647Y0316673D01*
X0034412Y0317002D01*
X0034185Y0317337D01*
X0033967Y0317677D01*
X0033757Y0318022D01*
X0033555Y0318372D01*
X0033362Y0318727D01*
X0033178Y0319086D01*
X0033003Y0319450D01*
X0032836Y0319819D01*
X0032679Y0320191D01*
X0032531Y0320567D01*
X0032392Y0320946D01*
X0032262Y0321329D01*
X0032142Y0321714D01*
X0032031Y0322103D01*
X0031930Y0322494D01*
X0031838Y0322888D01*
X0031756Y0323283D01*
X0259797Y0256222D02*
X0259797Y0252552D01*
X0260531Y0251819D01*
X0261999Y0251819D01*
X0262733Y0252552D01*
X0262733Y0256222D01*
X0264401Y0255488D02*
X0265135Y0256222D01*
X0266603Y0256222D01*
X0267337Y0255488D01*
X0267337Y0254754D01*
X0264401Y0251819D01*
X0267337Y0251819D01*
X0298695Y0056344D02*
X0298300Y0056426D01*
X0297906Y0056518D01*
X0297515Y0056619D01*
X0297126Y0056730D01*
X0296741Y0056850D01*
X0296358Y0056980D01*
X0295979Y0057119D01*
X0295603Y0057267D01*
X0295231Y0057424D01*
X0294862Y0057591D01*
X0294498Y0057766D01*
X0294139Y0057950D01*
X0293784Y0058143D01*
X0293434Y0058345D01*
X0293089Y0058555D01*
X0292749Y0058773D01*
X0292414Y0059000D01*
X0292085Y0059235D01*
X0291763Y0059478D01*
X0291446Y0059729D01*
X0291135Y0059987D01*
X0290831Y0060253D01*
X0290533Y0060526D01*
X0290242Y0060807D01*
X0289958Y0061094D01*
X0289682Y0061389D01*
X0289412Y0061690D01*
X0289150Y0061997D01*
X0288896Y0062311D01*
X0288649Y0062631D01*
X0288410Y0062957D01*
X0288179Y0063289D01*
X0287957Y0063626D01*
X0287743Y0063969D01*
X0287537Y0064316D01*
X0287340Y0064669D01*
X0287151Y0065026D01*
X0286972Y0065388D01*
X0286801Y0065754D01*
X0286639Y0066125D01*
X0286486Y0066499D01*
X0286343Y0066876D01*
X0286209Y0067258D01*
X0286084Y0067642D01*
X0285969Y0068029D01*
X0285863Y0068419D01*
X0285766Y0068811D01*
X0285680Y0069206D01*
X0285603Y0069603D01*
X0285536Y0070001D01*
X0285478Y0070401D01*
X0285431Y0070802D01*
X0285393Y0071205D01*
X0285365Y0071608D01*
X0285347Y0072011D01*
X0285339Y0072415D01*
X0285340Y0072819D01*
X0285352Y0073223D01*
X0285373Y0073627D01*
X0285405Y0074030D01*
X0285446Y0074431D01*
X0285497Y0074832D01*
X0285558Y0075232D01*
X0285628Y0075630D01*
X0285708Y0076026D01*
X0285798Y0076419D01*
X0285898Y0076811D01*
X0286007Y0077200D01*
X0286126Y0077586D01*
X0286254Y0077970D01*
X0286391Y0078350D01*
X0286538Y0078726D01*
X0286694Y0079099D01*
X0286858Y0079468D01*
X0287032Y0079833D01*
X0287215Y0080193D01*
X0287406Y0080549D01*
X0287607Y0080900D01*
X0287815Y0081246D01*
X0288032Y0081586D01*
X0288258Y0081922D01*
X0288491Y0082252D01*
X0288733Y0082575D01*
X0288982Y0082893D01*
X0289239Y0083205D01*
X0289504Y0083510D01*
X0289776Y0083809D01*
X0290055Y0084101D01*
X0290341Y0084386D01*
X0290635Y0084664D01*
X0290934Y0084935D01*
X0291241Y0085198D01*
X0291554Y0085454D01*
X0291873Y0085702D01*
X0292198Y0085942D01*
X0292528Y0086174D01*
X0292865Y0086398D01*
X0293206Y0086614D01*
X0293553Y0086821D01*
X0293905Y0087020D01*
X0294262Y0087210D01*
X0294623Y0087391D01*
X0294988Y0087564D01*
X0295358Y0087727D01*
X0295731Y0087881D01*
X0296108Y0088026D01*
X0296489Y0088162D01*
X0296873Y0088288D01*
X0297259Y0088405D01*
X0297649Y0088513D01*
X0298041Y0088611D01*
X0298435Y0088699D01*
X0298832Y0088778D01*
X0299230Y0088847D01*
X0299629Y0088906D01*
X0300030Y0088955D01*
X0300433Y0088994D01*
X0300835Y0089024D01*
X0301239Y0089044D01*
X0301643Y0089054D01*
X0302047Y0089054D01*
X0302451Y0089044D01*
X0302855Y0089024D01*
X0303257Y0088994D01*
X0303660Y0088955D01*
X0304061Y0088906D01*
X0304460Y0088847D01*
X0304858Y0088778D01*
X0305255Y0088699D01*
X0305649Y0088611D01*
X0306041Y0088513D01*
X0306431Y0088405D01*
X0306817Y0088288D01*
X0307201Y0088162D01*
X0307582Y0088026D01*
X0307959Y0087881D01*
X0308332Y0087727D01*
X0308702Y0087564D01*
X0309067Y0087391D01*
X0309428Y0087210D01*
X0309785Y0087020D01*
X0310137Y0086821D01*
X0310484Y0086614D01*
X0310825Y0086398D01*
X0311162Y0086174D01*
X0311492Y0085942D01*
X0311817Y0085702D01*
X0312136Y0085454D01*
X0312449Y0085198D01*
X0312756Y0084935D01*
X0313055Y0084664D01*
X0313349Y0084386D01*
X0313635Y0084101D01*
X0313914Y0083809D01*
X0314186Y0083510D01*
X0314451Y0083205D01*
X0314708Y0082893D01*
X0314957Y0082575D01*
X0315199Y0082252D01*
X0315432Y0081922D01*
X0315658Y0081586D01*
X0315875Y0081246D01*
X0316083Y0080900D01*
X0316284Y0080549D01*
X0316475Y0080193D01*
X0316658Y0079833D01*
X0316832Y0079468D01*
X0316996Y0079099D01*
X0317152Y0078726D01*
X0317299Y0078350D01*
X0317436Y0077970D01*
X0317564Y0077586D01*
X0317683Y0077200D01*
X0317792Y0076811D01*
X0317892Y0076419D01*
X0317982Y0076026D01*
X0318062Y0075630D01*
X0318132Y0075232D01*
X0318193Y0074832D01*
X0318244Y0074431D01*
X0318285Y0074030D01*
X0318317Y0073627D01*
X0318338Y0073223D01*
X0318350Y0072819D01*
X0318351Y0072415D01*
X0318343Y0072011D01*
X0318325Y0071608D01*
X0318297Y0071205D01*
X0318259Y0070802D01*
X0318212Y0070401D01*
X0318154Y0070001D01*
X0318087Y0069603D01*
X0318010Y0069206D01*
X0317924Y0068811D01*
X0317827Y0068419D01*
X0317721Y0068029D01*
X0317606Y0067642D01*
X0317481Y0067258D01*
X0317347Y0066876D01*
X0317204Y0066499D01*
X0317051Y0066125D01*
X0316889Y0065754D01*
X0316718Y0065388D01*
X0316539Y0065026D01*
X0316350Y0064669D01*
X0316153Y0064316D01*
X0315947Y0063969D01*
X0315733Y0063626D01*
X0315511Y0063289D01*
X0315280Y0062957D01*
X0315041Y0062631D01*
X0314794Y0062311D01*
X0314540Y0061997D01*
X0314278Y0061690D01*
X0314008Y0061389D01*
X0313732Y0061094D01*
X0313448Y0060807D01*
X0313157Y0060526D01*
X0312859Y0060253D01*
X0312555Y0059987D01*
X0312244Y0059729D01*
X0311927Y0059478D01*
X0311605Y0059235D01*
X0311276Y0059000D01*
X0310941Y0058773D01*
X0310601Y0058555D01*
X0310256Y0058345D01*
X0309906Y0058143D01*
X0309551Y0057950D01*
X0309192Y0057766D01*
X0308828Y0057591D01*
X0308459Y0057424D01*
X0308087Y0057267D01*
X0307711Y0057119D01*
X0307332Y0056980D01*
X0306949Y0056850D01*
X0306564Y0056730D01*
X0306175Y0056619D01*
X0305784Y0056518D01*
X0305390Y0056426D01*
X0304995Y0056344D01*
D13*
X0312938Y0097575D02*
X0289316Y0097575D01*
X0289316Y0113323D01*
X0312938Y0113323D01*
X0312938Y0097575D01*
X0310842Y0121733D02*
X0310842Y0123847D01*
X0311546Y0124551D01*
X0314365Y0124551D01*
X0315070Y0123847D01*
X0315070Y0121733D01*
X0310842Y0121733D01*
X0311546Y0126083D02*
X0310842Y0126788D01*
X0310842Y0128197D01*
X0311546Y0128902D01*
X0312251Y0128902D01*
X0312956Y0128197D01*
X0313660Y0128902D01*
X0314365Y0128902D01*
X0315070Y0128197D01*
X0315070Y0126788D01*
X0314365Y0126083D01*
X0312956Y0127492D02*
X0312956Y0128197D01*
X0313660Y0139883D02*
X0313660Y0141997D01*
X0312956Y0142701D01*
X0311546Y0142701D01*
X0310842Y0141997D01*
X0310842Y0139883D01*
X0315070Y0139883D01*
X0313660Y0141292D02*
X0315070Y0142701D01*
X0315070Y0144233D02*
X0315070Y0147051D01*
X0315070Y0145642D02*
X0310842Y0145642D01*
X0312251Y0144233D01*
X0312251Y0148583D02*
X0310842Y0149992D01*
X0315070Y0149992D01*
X0315070Y0148583D02*
X0315070Y0151402D01*
X0304864Y0151456D02*
X0304159Y0152161D01*
X0302750Y0152161D01*
X0302045Y0151456D01*
X0304864Y0151456D02*
X0304864Y0150752D01*
X0302045Y0147933D01*
X0304864Y0147933D01*
X0300514Y0147933D02*
X0297695Y0147933D01*
X0299105Y0147933D02*
X0299105Y0152161D01*
X0297695Y0150752D01*
X0296164Y0151456D02*
X0296164Y0150047D01*
X0295459Y0149342D01*
X0293345Y0149342D01*
X0293345Y0147933D02*
X0293345Y0152161D01*
X0295459Y0152161D01*
X0296164Y0151456D01*
X0294754Y0149342D02*
X0296164Y0147933D01*
X0291814Y0152663D02*
X0291109Y0151959D01*
X0289700Y0151959D01*
X0288995Y0152663D01*
X0291814Y0155482D01*
X0291814Y0152663D01*
X0291814Y0155482D02*
X0291109Y0156187D01*
X0289700Y0156187D01*
X0288995Y0155482D01*
X0288995Y0152663D01*
X0287463Y0151959D02*
X0284645Y0151959D01*
X0286054Y0151959D02*
X0286054Y0156187D01*
X0284645Y0154777D01*
X0283113Y0155482D02*
X0282409Y0156187D01*
X0280999Y0156187D01*
X0280295Y0155482D01*
X0280295Y0152663D01*
X0280999Y0151959D01*
X0282409Y0151959D01*
X0283113Y0152663D01*
X0287583Y0135695D02*
X0287583Y0134907D01*
X0287583Y0125459D02*
X0287583Y0124671D01*
X0288371Y0124671D01*
X0297820Y0124671D02*
X0298607Y0124671D01*
X0298607Y0125459D01*
X0298607Y0134907D02*
X0298607Y0135695D01*
X0297904Y0183209D02*
X0297904Y0187437D01*
X0296495Y0186027D01*
X0294963Y0186027D02*
X0294963Y0186732D01*
X0294259Y0187437D01*
X0292849Y0187437D01*
X0292145Y0186732D01*
X0290613Y0186732D02*
X0289909Y0187437D01*
X0288499Y0187437D01*
X0287795Y0186732D01*
X0287795Y0183913D01*
X0288499Y0183209D01*
X0289909Y0183209D01*
X0290613Y0183913D01*
X0292145Y0183209D02*
X0294963Y0186027D01*
X0294963Y0183209D02*
X0292145Y0183209D01*
X0296495Y0183209D02*
X0299314Y0183209D01*
X0274564Y0199913D02*
X0273859Y0199209D01*
X0272450Y0199209D01*
X0271745Y0199913D01*
X0271745Y0201323D02*
X0273154Y0202027D01*
X0273859Y0202027D01*
X0274564Y0201323D01*
X0274564Y0199913D01*
X0271745Y0201323D02*
X0271745Y0203437D01*
X0274564Y0203437D01*
X0268804Y0203437D02*
X0268804Y0199209D01*
X0267395Y0199209D02*
X0270213Y0199209D01*
X0267395Y0202027D02*
X0268804Y0203437D01*
X0265863Y0202732D02*
X0265159Y0203437D01*
X0263749Y0203437D01*
X0263045Y0202732D01*
X0263045Y0199913D01*
X0263749Y0199209D01*
X0265159Y0199209D01*
X0265863Y0199913D01*
X0219595Y0201388D02*
X0219595Y0202797D01*
X0218890Y0203502D01*
X0218890Y0205033D02*
X0219595Y0205738D01*
X0219595Y0207147D01*
X0218890Y0207852D01*
X0218186Y0207852D01*
X0217481Y0207147D01*
X0217481Y0205033D01*
X0218890Y0205033D01*
X0217481Y0205033D02*
X0216072Y0206443D01*
X0215367Y0207852D01*
X0216072Y0203502D02*
X0215367Y0202797D01*
X0215367Y0201388D01*
X0216072Y0200683D01*
X0218890Y0200683D01*
X0219595Y0201388D01*
X0216320Y0198447D02*
X0216320Y0197038D01*
X0215615Y0196333D01*
X0214206Y0196333D02*
X0213501Y0197742D01*
X0213501Y0198447D01*
X0214206Y0199152D01*
X0215615Y0199152D01*
X0216320Y0198447D01*
X0214206Y0196333D02*
X0212092Y0196333D01*
X0212092Y0199152D01*
X0212796Y0194801D02*
X0212092Y0194097D01*
X0212092Y0192687D01*
X0212796Y0191983D01*
X0215615Y0191983D01*
X0216320Y0192687D01*
X0216320Y0194097D01*
X0215615Y0194801D01*
X0212408Y0211222D02*
X0212408Y0216144D01*
X0213177Y0213171D02*
X0213179Y0213197D01*
X0213185Y0213223D01*
X0213194Y0213247D01*
X0213208Y0213270D01*
X0213224Y0213291D01*
X0213243Y0213309D01*
X0213265Y0213323D01*
X0213289Y0213335D01*
X0213314Y0213343D01*
X0213340Y0213347D01*
X0213366Y0213347D01*
X0213392Y0213343D01*
X0213417Y0213335D01*
X0213441Y0213323D01*
X0213463Y0213309D01*
X0213482Y0213291D01*
X0213498Y0213270D01*
X0213512Y0213247D01*
X0213521Y0213223D01*
X0213527Y0213197D01*
X0213529Y0213171D01*
X0213527Y0213145D01*
X0213521Y0213119D01*
X0213512Y0213095D01*
X0213498Y0213072D01*
X0213482Y0213051D01*
X0213463Y0213033D01*
X0213441Y0213019D01*
X0213417Y0213007D01*
X0213392Y0212999D01*
X0213366Y0212995D01*
X0213340Y0212995D01*
X0213314Y0212999D01*
X0213289Y0213007D01*
X0213265Y0213019D01*
X0213243Y0213033D01*
X0213224Y0213051D01*
X0213208Y0213072D01*
X0213194Y0213095D01*
X0213185Y0213119D01*
X0213179Y0213145D01*
X0213177Y0213171D01*
X0220282Y0211222D02*
X0220282Y0216144D01*
X0263795Y0258913D02*
X0264499Y0258209D01*
X0265909Y0258209D01*
X0266613Y0258913D01*
X0268145Y0258209D02*
X0270963Y0258209D01*
X0269554Y0258209D02*
X0269554Y0262437D01*
X0268145Y0261027D01*
X0266613Y0261732D02*
X0265909Y0262437D01*
X0264499Y0262437D01*
X0263795Y0261732D01*
X0263795Y0258913D01*
X0272495Y0260323D02*
X0275314Y0260323D01*
X0274609Y0262437D02*
X0272495Y0260323D01*
X0274609Y0258209D02*
X0274609Y0262437D01*
X0273909Y0287709D02*
X0274613Y0288413D01*
X0273909Y0287709D02*
X0272499Y0287709D01*
X0271795Y0288413D01*
X0271795Y0291232D01*
X0272499Y0291937D01*
X0273909Y0291937D01*
X0274613Y0291232D01*
X0276145Y0290527D02*
X0277554Y0291937D01*
X0277554Y0287709D01*
X0276145Y0287709D02*
X0278963Y0287709D01*
X0280495Y0288413D02*
X0281200Y0287709D01*
X0282609Y0287709D01*
X0283314Y0288413D01*
X0283314Y0289118D01*
X0282609Y0289823D01*
X0280495Y0289823D01*
X0280495Y0288413D01*
X0280495Y0289823D02*
X0281904Y0291232D01*
X0283314Y0291937D01*
X0288499Y0303209D02*
X0289909Y0303209D01*
X0290613Y0303913D01*
X0292145Y0303209D02*
X0294963Y0306027D01*
X0294963Y0306732D01*
X0294259Y0307437D01*
X0292849Y0307437D01*
X0292145Y0306732D01*
X0290613Y0306732D02*
X0289909Y0307437D01*
X0288499Y0307437D01*
X0287795Y0306732D01*
X0287795Y0303913D01*
X0288499Y0303209D01*
X0292145Y0303209D02*
X0294963Y0303209D01*
X0296495Y0303209D02*
X0296495Y0303913D01*
X0299314Y0306732D01*
X0299314Y0307437D01*
X0296495Y0307437D01*
X0300550Y0296911D02*
X0299845Y0296206D01*
X0299845Y0293388D01*
X0300550Y0292683D01*
X0301959Y0292683D01*
X0302664Y0293388D01*
X0304195Y0292683D02*
X0307014Y0292683D01*
X0305605Y0292683D02*
X0305605Y0296911D01*
X0304195Y0295502D01*
X0302664Y0296206D02*
X0301959Y0296911D01*
X0300550Y0296911D01*
X0308545Y0296206D02*
X0308545Y0295502D01*
X0309250Y0294797D01*
X0310659Y0294797D01*
X0311364Y0294092D01*
X0311364Y0293388D01*
X0310659Y0292683D01*
X0309250Y0292683D01*
X0308545Y0293388D01*
X0308545Y0294092D01*
X0309250Y0294797D01*
X0310659Y0294797D02*
X0311364Y0295502D01*
X0311364Y0296206D01*
X0310659Y0296911D01*
X0309250Y0296911D01*
X0308545Y0296206D01*
X0308735Y0320528D02*
X0308538Y0320528D01*
X0308735Y0320528D02*
X0308735Y0322102D01*
X0308735Y0330764D02*
X0308735Y0332339D01*
X0308538Y0332339D01*
X0295152Y0332339D02*
X0294955Y0332339D01*
X0294955Y0330764D01*
X0293380Y0332142D02*
X0293382Y0332169D01*
X0293388Y0332196D01*
X0293397Y0332222D01*
X0293410Y0332246D01*
X0293426Y0332269D01*
X0293445Y0332288D01*
X0293467Y0332305D01*
X0293491Y0332319D01*
X0293516Y0332329D01*
X0293543Y0332336D01*
X0293570Y0332339D01*
X0293598Y0332338D01*
X0293625Y0332333D01*
X0293651Y0332325D01*
X0293675Y0332313D01*
X0293698Y0332297D01*
X0293719Y0332279D01*
X0293736Y0332258D01*
X0293751Y0332234D01*
X0293762Y0332209D01*
X0293770Y0332183D01*
X0293774Y0332156D01*
X0293774Y0332128D01*
X0293770Y0332101D01*
X0293762Y0332075D01*
X0293751Y0332050D01*
X0293736Y0332026D01*
X0293719Y0332005D01*
X0293698Y0331987D01*
X0293676Y0331971D01*
X0293651Y0331959D01*
X0293625Y0331951D01*
X0293598Y0331946D01*
X0293570Y0331945D01*
X0293543Y0331948D01*
X0293516Y0331955D01*
X0293491Y0331965D01*
X0293467Y0331979D01*
X0293445Y0331996D01*
X0293426Y0332015D01*
X0293410Y0332038D01*
X0293397Y0332062D01*
X0293388Y0332088D01*
X0293382Y0332115D01*
X0293380Y0332142D01*
X0294955Y0322102D02*
X0294955Y0320528D01*
X0295152Y0320528D01*
X0283820Y0320788D02*
X0283115Y0320083D01*
X0283820Y0320788D02*
X0283820Y0322197D01*
X0283115Y0322902D01*
X0282410Y0322902D01*
X0281706Y0322197D01*
X0281706Y0321492D01*
X0281706Y0322197D02*
X0281001Y0322902D01*
X0280296Y0322902D01*
X0279592Y0322197D01*
X0279592Y0320788D01*
X0280296Y0320083D01*
X0280296Y0318551D02*
X0281706Y0318551D01*
X0282410Y0317847D01*
X0282410Y0315733D01*
X0282410Y0317142D02*
X0283820Y0318551D01*
X0283820Y0315733D02*
X0279592Y0315733D01*
X0279592Y0317847D01*
X0280296Y0318551D01*
X0279095Y0337933D02*
X0274867Y0337933D01*
X0274867Y0340047D01*
X0275572Y0340752D01*
X0276981Y0340752D01*
X0277686Y0340047D01*
X0277686Y0337933D01*
X0277686Y0339342D02*
X0279095Y0340752D01*
X0279095Y0342283D02*
X0276276Y0345102D01*
X0275572Y0345102D01*
X0274867Y0344397D01*
X0274867Y0342988D01*
X0275572Y0342283D01*
X0279095Y0342283D02*
X0279095Y0345102D01*
X0278140Y0351683D02*
X0275322Y0351683D01*
X0274617Y0352388D01*
X0274617Y0353797D01*
X0275322Y0354502D01*
X0275322Y0356033D02*
X0274617Y0356738D01*
X0274617Y0358147D01*
X0275322Y0358852D01*
X0276026Y0358852D01*
X0278845Y0356033D01*
X0278845Y0358852D01*
X0278140Y0360383D02*
X0277436Y0360383D01*
X0276731Y0361088D01*
X0276731Y0362497D01*
X0277436Y0363202D01*
X0278140Y0363202D01*
X0278845Y0362497D01*
X0278845Y0361088D01*
X0278140Y0360383D01*
X0276731Y0361088D02*
X0276026Y0360383D01*
X0275322Y0360383D01*
X0274617Y0361088D01*
X0274617Y0362497D01*
X0275322Y0363202D01*
X0276026Y0363202D01*
X0276731Y0362497D01*
X0282867Y0361793D02*
X0287095Y0361793D01*
X0287095Y0363202D02*
X0287095Y0360383D01*
X0286390Y0358852D02*
X0287095Y0358147D01*
X0287095Y0356738D01*
X0286390Y0356033D01*
X0286390Y0354502D02*
X0287095Y0353797D01*
X0287095Y0352388D01*
X0286390Y0351683D01*
X0283572Y0351683D01*
X0282867Y0352388D01*
X0282867Y0353797D01*
X0283572Y0354502D01*
X0283572Y0356033D02*
X0282867Y0356738D01*
X0282867Y0358147D01*
X0283572Y0358852D01*
X0284276Y0358852D01*
X0284981Y0358147D01*
X0285686Y0358852D01*
X0286390Y0358852D01*
X0284981Y0358147D02*
X0284981Y0357443D01*
X0284276Y0360383D02*
X0282867Y0361793D01*
X0291117Y0362497D02*
X0291117Y0361088D01*
X0291822Y0360383D01*
X0292526Y0360383D01*
X0293231Y0361088D01*
X0293231Y0363202D01*
X0294640Y0363202D02*
X0291822Y0363202D01*
X0291117Y0362497D01*
X0294640Y0363202D02*
X0295345Y0362497D01*
X0295345Y0361088D01*
X0294640Y0360383D01*
X0295345Y0358852D02*
X0295345Y0356033D01*
X0292526Y0358852D01*
X0291822Y0358852D01*
X0291117Y0358147D01*
X0291117Y0356738D01*
X0291822Y0356033D01*
X0291822Y0354502D02*
X0291117Y0353797D01*
X0291117Y0352388D01*
X0291822Y0351683D01*
X0294640Y0351683D01*
X0295345Y0352388D01*
X0295345Y0353797D01*
X0294640Y0354502D01*
X0299367Y0353797D02*
X0299367Y0352388D01*
X0300072Y0351683D01*
X0302890Y0351683D01*
X0303595Y0352388D01*
X0303595Y0353797D01*
X0302890Y0354502D01*
X0302890Y0356033D02*
X0303595Y0356738D01*
X0303595Y0358147D01*
X0302890Y0358852D01*
X0302186Y0358852D01*
X0301481Y0358147D01*
X0301481Y0357443D01*
X0301481Y0358147D02*
X0300776Y0358852D01*
X0300072Y0358852D01*
X0299367Y0358147D01*
X0299367Y0356738D01*
X0300072Y0356033D01*
X0300072Y0354502D02*
X0299367Y0353797D01*
X0300072Y0360383D02*
X0299367Y0361088D01*
X0299367Y0362497D01*
X0300072Y0363202D01*
X0302890Y0360383D01*
X0303595Y0361088D01*
X0303595Y0362497D01*
X0302890Y0363202D01*
X0300072Y0363202D01*
X0300072Y0360383D02*
X0302890Y0360383D01*
X0278845Y0353797D02*
X0278845Y0352388D01*
X0278140Y0351683D01*
X0278845Y0353797D02*
X0278140Y0354502D01*
X0318193Y0455709D02*
X0318193Y0459937D01*
X0320307Y0459937D01*
X0321012Y0459232D01*
X0321012Y0457823D01*
X0320307Y0457118D01*
X0318193Y0457118D01*
X0322543Y0456413D02*
X0323248Y0455709D01*
X0324657Y0455709D01*
X0325362Y0456413D01*
X0325362Y0459232D01*
X0324657Y0459937D01*
X0323248Y0459937D01*
X0322543Y0459232D01*
X0322543Y0456413D01*
X0326893Y0455709D02*
X0328303Y0457118D01*
X0329712Y0455709D01*
X0329712Y0459937D01*
X0331244Y0459937D02*
X0331244Y0455709D01*
X0334062Y0455709D01*
X0335594Y0455709D02*
X0335594Y0459937D01*
X0337708Y0459937D01*
X0338412Y0459232D01*
X0338412Y0457823D01*
X0337708Y0457118D01*
X0335594Y0457118D01*
X0337003Y0457118D02*
X0338412Y0455709D01*
X0339944Y0455004D02*
X0342763Y0455004D01*
X0344294Y0456413D02*
X0344999Y0455709D01*
X0346408Y0455709D01*
X0347113Y0456413D01*
X0347113Y0457118D01*
X0346408Y0457823D01*
X0344999Y0457823D01*
X0344294Y0458527D01*
X0344294Y0459232D01*
X0344999Y0459937D01*
X0346408Y0459937D01*
X0347113Y0459232D01*
X0348644Y0459937D02*
X0348644Y0455709D01*
X0350054Y0457118D01*
X0351463Y0455709D01*
X0351463Y0459937D01*
X0352994Y0459937D02*
X0354404Y0459937D01*
X0353699Y0459937D02*
X0353699Y0455709D01*
X0352994Y0455709D02*
X0354404Y0455709D01*
X0357304Y0455709D02*
X0357304Y0459937D01*
X0355895Y0459937D02*
X0358713Y0459937D01*
X0360245Y0459232D02*
X0360245Y0456413D01*
X0360949Y0455709D01*
X0362359Y0455709D01*
X0363063Y0456413D01*
X0364595Y0455709D02*
X0364595Y0459937D01*
X0363063Y0459232D02*
X0362359Y0459937D01*
X0360949Y0459937D01*
X0360245Y0459232D01*
X0364595Y0457823D02*
X0367414Y0457823D01*
X0367414Y0459937D02*
X0367414Y0455709D01*
X0367707Y0463132D02*
X0368790Y0463132D01*
X0368790Y0464215D01*
X0368790Y0468152D02*
X0368790Y0469234D01*
X0367707Y0469234D01*
X0367559Y0473683D02*
X0367559Y0477911D01*
X0365445Y0475797D01*
X0368264Y0475797D01*
X0363914Y0475797D02*
X0363209Y0475092D01*
X0361095Y0475092D01*
X0361095Y0473683D02*
X0361095Y0477911D01*
X0363209Y0477911D01*
X0363914Y0477206D01*
X0363914Y0475797D01*
X0362504Y0475092D02*
X0363914Y0473683D01*
X0353928Y0469234D02*
X0352845Y0469234D01*
X0352845Y0468152D01*
X0352845Y0464215D02*
X0352845Y0463132D01*
X0353928Y0463132D01*
X0334062Y0459937D02*
X0331244Y0459937D01*
X0331244Y0457823D02*
X0332653Y0457823D01*
X0326893Y0459937D02*
X0326893Y0455709D01*
X0313864Y0467388D02*
X0313864Y0470206D01*
X0313159Y0470911D01*
X0311750Y0470911D01*
X0311045Y0470206D01*
X0311045Y0469502D01*
X0311750Y0468797D01*
X0313864Y0468797D01*
X0313864Y0467388D02*
X0313159Y0466683D01*
X0311750Y0466683D01*
X0311045Y0467388D01*
X0309514Y0466683D02*
X0306695Y0466683D01*
X0308105Y0466683D02*
X0308105Y0470911D01*
X0306695Y0469502D01*
X0305164Y0470206D02*
X0304459Y0470911D01*
X0303050Y0470911D01*
X0302345Y0470206D01*
X0302345Y0467388D01*
X0303050Y0466683D01*
X0304459Y0466683D01*
X0305164Y0467388D01*
X0311550Y0496683D02*
X0312959Y0496683D01*
X0313664Y0497388D01*
X0315195Y0496683D02*
X0318014Y0496683D01*
X0316605Y0496683D02*
X0316605Y0500911D01*
X0315195Y0499502D01*
X0313664Y0500206D02*
X0312959Y0500911D01*
X0311550Y0500911D01*
X0310845Y0500206D01*
X0310845Y0497388D01*
X0311550Y0496683D01*
X0308609Y0500709D02*
X0307200Y0500709D01*
X0306495Y0501413D01*
X0309314Y0504232D01*
X0309314Y0501413D01*
X0308609Y0500709D01*
X0306495Y0501413D02*
X0306495Y0504232D01*
X0307200Y0504937D01*
X0308609Y0504937D01*
X0309314Y0504232D01*
X0304963Y0500709D02*
X0302145Y0500709D01*
X0303554Y0500709D02*
X0303554Y0504937D01*
X0302145Y0503527D01*
X0300613Y0502823D02*
X0299909Y0502118D01*
X0297795Y0502118D01*
X0299204Y0502118D02*
X0300613Y0500709D01*
X0300613Y0502823D02*
X0300613Y0504232D01*
X0299909Y0504937D01*
X0297795Y0504937D01*
X0297795Y0500709D01*
X0292845Y0500433D02*
X0288617Y0500433D01*
X0288617Y0502547D01*
X0289322Y0503252D01*
X0290731Y0503252D01*
X0291436Y0502547D01*
X0291436Y0500433D01*
X0291436Y0501842D02*
X0292845Y0503252D01*
X0292140Y0504783D02*
X0292845Y0505488D01*
X0292845Y0506897D01*
X0292140Y0507602D01*
X0289322Y0507602D01*
X0288617Y0506897D01*
X0288617Y0505488D01*
X0289322Y0504783D01*
X0290026Y0504783D01*
X0290731Y0505488D01*
X0290731Y0507602D01*
X0293342Y0514233D02*
X0293342Y0516347D01*
X0294046Y0517051D01*
X0296865Y0517051D01*
X0297570Y0516347D01*
X0297570Y0514233D01*
X0293342Y0514233D01*
X0294046Y0518583D02*
X0293342Y0519288D01*
X0293342Y0520697D01*
X0294046Y0521402D01*
X0294751Y0521402D01*
X0297570Y0518583D01*
X0297570Y0521402D01*
X0305083Y0516709D02*
X0305083Y0515921D01*
X0305083Y0526157D02*
X0305083Y0526945D01*
X0305871Y0526945D01*
X0315320Y0526945D02*
X0316107Y0526945D01*
X0316107Y0526157D01*
X0316107Y0516709D02*
X0316107Y0515921D01*
X0320250Y0500911D02*
X0319545Y0500206D01*
X0320250Y0500911D02*
X0321659Y0500911D01*
X0322364Y0500206D01*
X0322364Y0499502D01*
X0319545Y0496683D01*
X0322364Y0496683D01*
X0313125Y0540793D02*
X0289503Y0540793D01*
X0289503Y0556541D01*
X0313125Y0556541D01*
X0313125Y0540793D01*
X0230595Y0468234D02*
X0230595Y0467152D01*
X0230595Y0468234D02*
X0229512Y0468234D01*
X0230595Y0463215D02*
X0230595Y0462132D01*
X0229512Y0462132D01*
X0222314Y0469163D02*
X0221609Y0468459D01*
X0220200Y0468459D01*
X0219495Y0469163D01*
X0219495Y0470573D02*
X0220904Y0471277D01*
X0221609Y0471277D01*
X0222314Y0470573D01*
X0222314Y0469163D01*
X0219495Y0470573D02*
X0219495Y0472687D01*
X0222314Y0472687D01*
X0216554Y0472687D02*
X0216554Y0468459D01*
X0215733Y0468234D02*
X0214650Y0468234D01*
X0214650Y0467152D01*
X0215145Y0468459D02*
X0217963Y0468459D01*
X0215145Y0471277D02*
X0216554Y0472687D01*
X0213613Y0471982D02*
X0212909Y0472687D01*
X0210795Y0472687D01*
X0210795Y0468459D01*
X0210795Y0469868D02*
X0212909Y0469868D01*
X0213613Y0470573D01*
X0213613Y0471982D01*
X0212204Y0469868D02*
X0213613Y0468459D01*
X0214650Y0463215D02*
X0214650Y0462132D01*
X0215733Y0462132D01*
X0167300Y0457203D02*
X0167300Y0454385D01*
X0165890Y0452853D02*
X0166595Y0452148D01*
X0166595Y0450739D01*
X0165890Y0450034D01*
X0163072Y0450034D01*
X0162367Y0450739D01*
X0162367Y0452148D01*
X0163072Y0452853D01*
X0164481Y0452853D02*
X0164481Y0451444D01*
X0164481Y0452853D02*
X0165890Y0452853D01*
X0166595Y0448503D02*
X0162367Y0448503D01*
X0162367Y0445684D02*
X0166595Y0448503D01*
X0166595Y0445684D02*
X0162367Y0445684D01*
X0162367Y0444193D02*
X0162367Y0442784D01*
X0162367Y0443489D02*
X0166595Y0443489D01*
X0166595Y0444193D02*
X0166595Y0442784D01*
X0165890Y0441253D02*
X0164481Y0441253D01*
X0164481Y0439843D01*
X0163072Y0438434D02*
X0165890Y0438434D01*
X0166595Y0439139D01*
X0166595Y0440548D01*
X0165890Y0441253D01*
X0163072Y0441253D02*
X0162367Y0440548D01*
X0162367Y0439139D01*
X0163072Y0438434D01*
X0163072Y0436902D02*
X0162367Y0436198D01*
X0162367Y0434788D01*
X0163072Y0434084D01*
X0165890Y0434084D01*
X0166595Y0434788D01*
X0166595Y0436198D01*
X0165890Y0436902D01*
X0164481Y0436902D01*
X0164481Y0435493D01*
X0165890Y0432552D02*
X0162367Y0432552D01*
X0162367Y0429734D02*
X0165890Y0429734D01*
X0166595Y0430438D01*
X0166595Y0431848D01*
X0165890Y0432552D01*
X0165890Y0428202D02*
X0166595Y0427497D01*
X0166595Y0425383D01*
X0162367Y0425383D01*
X0162367Y0427497D01*
X0163072Y0428202D01*
X0163776Y0428202D01*
X0164481Y0427497D01*
X0164481Y0425383D01*
X0164481Y0427497D02*
X0165186Y0428202D01*
X0165890Y0428202D01*
X0166595Y0423852D02*
X0166595Y0421033D01*
X0162367Y0421033D01*
X0162367Y0423852D01*
X0164481Y0422443D02*
X0164481Y0421033D01*
X0163072Y0419502D02*
X0162367Y0418797D01*
X0162367Y0416683D01*
X0166595Y0416683D01*
X0166595Y0418797D01*
X0165890Y0419502D01*
X0163072Y0419502D01*
X0162367Y0458735D02*
X0166595Y0458735D01*
X0164481Y0458735D02*
X0164481Y0461553D01*
X0164481Y0463085D02*
X0164481Y0464494D01*
X0162367Y0463085D02*
X0166595Y0463085D01*
X0166595Y0465904D01*
X0166595Y0467435D02*
X0163776Y0467435D01*
X0162367Y0468844D01*
X0163776Y0470254D01*
X0166595Y0470254D01*
X0166595Y0471785D02*
X0166595Y0473899D01*
X0165890Y0474604D01*
X0163072Y0474604D01*
X0162367Y0473899D01*
X0162367Y0471785D01*
X0166595Y0471785D01*
X0164481Y0470254D02*
X0164481Y0467435D01*
X0162367Y0465904D02*
X0162367Y0463085D01*
X0162367Y0461553D02*
X0166595Y0461553D01*
X0166595Y0476135D02*
X0162367Y0476135D01*
X0162367Y0478954D01*
X0162367Y0480486D02*
X0162367Y0482600D01*
X0163072Y0483304D01*
X0164481Y0483304D01*
X0165186Y0482600D01*
X0165186Y0480486D01*
X0165186Y0481895D02*
X0166595Y0483304D01*
X0166595Y0480486D02*
X0162367Y0480486D01*
X0164481Y0477545D02*
X0164481Y0476135D01*
X0166595Y0476135D02*
X0166595Y0478954D01*
X0125890Y0343852D02*
X0123072Y0343852D01*
X0122367Y0343147D01*
X0122367Y0341738D01*
X0123072Y0341033D01*
X0123776Y0341033D01*
X0124481Y0341738D01*
X0124481Y0343852D01*
X0125890Y0343852D02*
X0126595Y0343147D01*
X0126595Y0341738D01*
X0125890Y0341033D01*
X0125890Y0339502D02*
X0126595Y0338797D01*
X0126595Y0337388D01*
X0125890Y0336683D01*
X0123072Y0336683D01*
X0122367Y0337388D01*
X0122367Y0338797D01*
X0123072Y0339502D01*
X0114857Y0341945D02*
X0114070Y0341945D01*
X0104621Y0341945D02*
X0103833Y0341945D01*
X0103833Y0341157D01*
X0103833Y0331709D02*
X0103833Y0330921D01*
X0104621Y0330921D01*
X0102845Y0325647D02*
X0098617Y0325647D01*
X0100731Y0323533D01*
X0100731Y0326352D01*
X0099322Y0322002D02*
X0098617Y0321297D01*
X0098617Y0319183D01*
X0102845Y0319183D01*
X0102845Y0321297D01*
X0102140Y0322002D01*
X0099322Y0322002D01*
X0093735Y0315341D02*
X0077987Y0315341D01*
X0077987Y0338963D01*
X0093735Y0338963D01*
X0093735Y0315341D01*
X0114070Y0330921D02*
X0114857Y0330921D01*
X0117795Y0321187D02*
X0119909Y0321187D01*
X0120613Y0320482D01*
X0120613Y0319073D01*
X0119909Y0318368D01*
X0117795Y0318368D01*
X0119204Y0318368D02*
X0120613Y0316959D01*
X0122145Y0316959D02*
X0124963Y0316959D01*
X0123554Y0316959D02*
X0123554Y0321187D01*
X0122145Y0319777D01*
X0126495Y0320482D02*
X0127200Y0321187D01*
X0128609Y0321187D01*
X0129314Y0320482D01*
X0129314Y0319777D01*
X0128609Y0319073D01*
X0129314Y0318368D01*
X0129314Y0317663D01*
X0128609Y0316959D01*
X0127200Y0316959D01*
X0126495Y0317663D01*
X0127904Y0319073D02*
X0128609Y0319073D01*
X0135842Y0323633D02*
X0135842Y0325747D01*
X0136546Y0326451D01*
X0137956Y0326451D01*
X0138660Y0325747D01*
X0138660Y0323633D01*
X0138660Y0325042D02*
X0140070Y0326451D01*
X0140070Y0327983D02*
X0140070Y0330801D01*
X0140070Y0329392D02*
X0135842Y0329392D01*
X0137251Y0327983D01*
X0137956Y0332333D02*
X0135842Y0334447D01*
X0140070Y0334447D01*
X0137956Y0335152D02*
X0137956Y0332333D01*
X0140070Y0323633D02*
X0135842Y0323633D01*
X0117795Y0321187D02*
X0117795Y0316959D01*
X0157367Y0328638D02*
X0158072Y0327933D01*
X0160890Y0327933D01*
X0161595Y0328638D01*
X0161595Y0330047D01*
X0160890Y0330752D01*
X0161595Y0332283D02*
X0158776Y0335102D01*
X0158072Y0335102D01*
X0157367Y0334397D01*
X0157367Y0332988D01*
X0158072Y0332283D01*
X0158072Y0330752D02*
X0157367Y0330047D01*
X0157367Y0328638D01*
X0161595Y0332283D02*
X0161595Y0335102D01*
X0160890Y0336633D02*
X0161595Y0337338D01*
X0161595Y0338747D01*
X0160890Y0339452D01*
X0160186Y0339452D01*
X0159481Y0338747D01*
X0159481Y0338043D01*
X0159481Y0338747D02*
X0158776Y0339452D01*
X0158072Y0339452D01*
X0157367Y0338747D01*
X0157367Y0337338D01*
X0158072Y0336633D01*
X0377367Y0424138D02*
X0378072Y0423433D01*
X0380890Y0423433D01*
X0381595Y0424138D01*
X0381595Y0425547D01*
X0380890Y0426252D01*
X0380890Y0427783D02*
X0381595Y0427783D01*
X0380890Y0427783D02*
X0378072Y0430602D01*
X0377367Y0430602D01*
X0377367Y0427783D01*
X0378072Y0426252D02*
X0377367Y0425547D01*
X0377367Y0424138D01*
X0385617Y0424138D02*
X0386322Y0423433D01*
X0389140Y0423433D01*
X0389845Y0424138D01*
X0389845Y0425547D01*
X0389140Y0426252D01*
X0389140Y0427783D02*
X0388436Y0427783D01*
X0387731Y0428488D01*
X0387731Y0429897D01*
X0388436Y0430602D01*
X0389140Y0430602D01*
X0389845Y0429897D01*
X0389845Y0428488D01*
X0389140Y0427783D01*
X0387731Y0428488D02*
X0387026Y0427783D01*
X0386322Y0427783D01*
X0385617Y0428488D01*
X0385617Y0429897D01*
X0386322Y0430602D01*
X0387026Y0430602D01*
X0387731Y0429897D01*
X0386322Y0426252D02*
X0385617Y0425547D01*
X0385617Y0424138D01*
X0434173Y0439807D02*
X0434173Y0441308D01*
X0434173Y0440558D02*
X0437926Y0440558D01*
X0438677Y0439807D01*
X0438677Y0439057D01*
X0437926Y0438306D01*
X0438677Y0442910D02*
X0434173Y0442910D01*
X0434173Y0445162D01*
X0434923Y0445912D01*
X0436425Y0445912D01*
X0437175Y0445162D01*
X0437175Y0442910D01*
X0438677Y0447514D02*
X0435674Y0450516D01*
X0434923Y0450516D01*
X0434173Y0449766D01*
X0434173Y0448264D01*
X0434923Y0447514D01*
X0438677Y0447514D02*
X0438677Y0450516D01*
X0446300Y0413661D02*
X0445595Y0412956D01*
X0445595Y0410138D01*
X0446300Y0409433D01*
X0447709Y0409433D01*
X0448414Y0410138D01*
X0449945Y0409433D02*
X0452764Y0409433D01*
X0451355Y0409433D02*
X0451355Y0413661D01*
X0449945Y0412252D01*
X0448414Y0412956D02*
X0447709Y0413661D01*
X0446300Y0413661D01*
X0454295Y0412956D02*
X0455000Y0413661D01*
X0456409Y0413661D01*
X0457114Y0412956D01*
X0457114Y0412252D01*
X0456409Y0411547D01*
X0457114Y0410842D01*
X0457114Y0410138D01*
X0456409Y0409433D01*
X0455000Y0409433D01*
X0454295Y0410138D01*
X0455705Y0411547D02*
X0456409Y0411547D01*
X0443814Y0400937D02*
X0442404Y0400232D01*
X0440995Y0398823D01*
X0443109Y0398823D01*
X0443814Y0398118D01*
X0443814Y0397413D01*
X0443109Y0396709D01*
X0441700Y0396709D01*
X0440995Y0397413D01*
X0440995Y0398823D01*
X0439463Y0396709D02*
X0436645Y0396709D01*
X0438054Y0396709D02*
X0438054Y0400937D01*
X0436645Y0399527D01*
X0435113Y0398823D02*
X0434409Y0398118D01*
X0432295Y0398118D01*
X0433704Y0398118D02*
X0435113Y0396709D01*
X0435113Y0398823D02*
X0435113Y0400232D01*
X0434409Y0400937D01*
X0432295Y0400937D01*
X0432295Y0396709D01*
X0477095Y0332161D02*
X0479209Y0332161D01*
X0479914Y0331456D01*
X0479914Y0330047D01*
X0479209Y0329342D01*
X0477095Y0329342D01*
X0477095Y0327933D02*
X0477095Y0332161D01*
X0478504Y0329342D02*
X0479914Y0327933D01*
X0481445Y0327933D02*
X0481445Y0328638D01*
X0484264Y0331456D01*
X0484264Y0332161D01*
X0481445Y0332161D01*
X0478390Y0323852D02*
X0479095Y0323147D01*
X0479095Y0321738D01*
X0478390Y0321033D01*
X0477686Y0321033D01*
X0476981Y0321738D01*
X0476981Y0323147D01*
X0477686Y0323852D01*
X0478390Y0323852D01*
X0476981Y0323147D02*
X0476276Y0323852D01*
X0475572Y0323852D01*
X0474867Y0323147D01*
X0474867Y0321738D01*
X0475572Y0321033D01*
X0476276Y0321033D01*
X0476981Y0321738D01*
X0476981Y0319502D02*
X0477686Y0318797D01*
X0477686Y0316683D01*
X0479095Y0316683D02*
X0474867Y0316683D01*
X0474867Y0318797D01*
X0475572Y0319502D01*
X0476981Y0319502D01*
X0477686Y0318092D02*
X0479095Y0319502D01*
X0475070Y0315152D02*
X0475070Y0312333D01*
X0475070Y0313742D02*
X0470842Y0313742D01*
X0472251Y0312333D01*
X0475070Y0310801D02*
X0475070Y0307983D01*
X0475070Y0309392D02*
X0470842Y0309392D01*
X0472251Y0307983D01*
X0471546Y0306451D02*
X0470842Y0305747D01*
X0470842Y0304337D01*
X0471546Y0303633D01*
X0474365Y0303633D01*
X0475070Y0304337D01*
X0475070Y0305747D01*
X0474365Y0306451D01*
X0491333Y0310921D02*
X0492121Y0310921D01*
X0501570Y0310921D02*
X0502357Y0310921D01*
X0502357Y0311709D01*
X0502357Y0321157D02*
X0502357Y0321945D01*
X0501570Y0321945D01*
X0495564Y0325709D02*
X0492745Y0325709D01*
X0494154Y0325709D02*
X0494154Y0329937D01*
X0492745Y0328527D01*
X0491213Y0329232D02*
X0491213Y0326413D01*
X0490509Y0325709D01*
X0488395Y0325709D01*
X0488395Y0329937D01*
X0490509Y0329937D01*
X0491213Y0329232D01*
X0491333Y0321945D02*
X0492121Y0321945D01*
X0514955Y0315154D02*
X0530703Y0315154D01*
X0530703Y0338776D01*
X0514955Y0338776D01*
X0514955Y0315154D01*
X0454095Y0260581D02*
X0449591Y0260581D01*
X0451843Y0258329D01*
X0451843Y0261332D01*
X0449591Y0256728D02*
X0449591Y0255226D01*
X0449591Y0255977D02*
X0453345Y0255977D01*
X0454095Y0255226D01*
X0454095Y0254476D01*
X0453345Y0253725D01*
X0445615Y0311133D02*
X0446320Y0311837D01*
X0446320Y0313247D01*
X0445615Y0313951D01*
X0446320Y0315483D02*
X0446320Y0318301D01*
X0446320Y0316892D02*
X0442092Y0316892D01*
X0443501Y0315483D01*
X0442796Y0313951D02*
X0442092Y0313247D01*
X0442092Y0311837D01*
X0442796Y0311133D01*
X0445615Y0311133D01*
X0445615Y0319833D02*
X0446320Y0319833D01*
X0445615Y0319833D02*
X0442796Y0322652D01*
X0442092Y0322652D01*
X0442092Y0319833D01*
X0391428Y0197855D02*
X0389926Y0197855D01*
X0389176Y0197105D01*
X0387574Y0197105D02*
X0387574Y0195603D01*
X0386824Y0194853D01*
X0384572Y0194853D01*
X0384572Y0193352D02*
X0384572Y0197855D01*
X0386824Y0197855D01*
X0387574Y0197105D01*
X0389176Y0194102D02*
X0389926Y0193352D01*
X0391428Y0193352D01*
X0392178Y0194102D01*
X0392178Y0194853D01*
X0391428Y0195603D01*
X0390677Y0195603D01*
X0391428Y0195603D02*
X0392178Y0196354D01*
X0392178Y0197105D01*
X0391428Y0197855D01*
X0382971Y0197855D02*
X0381469Y0197855D01*
X0382220Y0197855D02*
X0382220Y0194102D01*
X0381469Y0193352D01*
X0380719Y0193352D01*
X0379968Y0194102D01*
D14*
X0318026Y0283992D02*
X0318028Y0284097D01*
X0318034Y0284202D01*
X0318044Y0284306D01*
X0318058Y0284410D01*
X0318076Y0284514D01*
X0318098Y0284616D01*
X0318123Y0284718D01*
X0318153Y0284819D01*
X0318186Y0284918D01*
X0318223Y0285016D01*
X0318264Y0285113D01*
X0318309Y0285208D01*
X0318357Y0285301D01*
X0318408Y0285393D01*
X0318464Y0285482D01*
X0318522Y0285569D01*
X0318584Y0285654D01*
X0318648Y0285737D01*
X0318716Y0285817D01*
X0318787Y0285894D01*
X0318861Y0285968D01*
X0318938Y0286040D01*
X0319017Y0286109D01*
X0319099Y0286174D01*
X0319183Y0286237D01*
X0319270Y0286296D01*
X0319359Y0286352D01*
X0319450Y0286405D01*
X0319543Y0286454D01*
X0319637Y0286499D01*
X0319733Y0286541D01*
X0319831Y0286579D01*
X0319930Y0286613D01*
X0320031Y0286644D01*
X0320132Y0286670D01*
X0320235Y0286693D01*
X0320338Y0286712D01*
X0320442Y0286727D01*
X0320546Y0286738D01*
X0320651Y0286745D01*
X0320756Y0286748D01*
X0320861Y0286747D01*
X0320966Y0286742D01*
X0321070Y0286733D01*
X0321174Y0286720D01*
X0321278Y0286703D01*
X0321381Y0286682D01*
X0321483Y0286657D01*
X0321584Y0286629D01*
X0321683Y0286596D01*
X0321782Y0286560D01*
X0321879Y0286520D01*
X0321974Y0286477D01*
X0322068Y0286429D01*
X0322160Y0286379D01*
X0322250Y0286325D01*
X0322338Y0286267D01*
X0322423Y0286206D01*
X0322506Y0286142D01*
X0322587Y0286075D01*
X0322665Y0286005D01*
X0322740Y0285931D01*
X0322812Y0285856D01*
X0322882Y0285777D01*
X0322948Y0285696D01*
X0323012Y0285612D01*
X0323072Y0285526D01*
X0323128Y0285438D01*
X0323182Y0285347D01*
X0323232Y0285255D01*
X0323278Y0285161D01*
X0323321Y0285065D01*
X0323360Y0284967D01*
X0323395Y0284869D01*
X0323426Y0284768D01*
X0323454Y0284667D01*
X0323478Y0284565D01*
X0323498Y0284462D01*
X0323514Y0284358D01*
X0323526Y0284254D01*
X0323534Y0284149D01*
X0323538Y0284044D01*
X0323538Y0283940D01*
X0323534Y0283835D01*
X0323526Y0283730D01*
X0323514Y0283626D01*
X0323498Y0283522D01*
X0323478Y0283419D01*
X0323454Y0283317D01*
X0323426Y0283216D01*
X0323395Y0283115D01*
X0323360Y0283017D01*
X0323321Y0282919D01*
X0323278Y0282823D01*
X0323232Y0282729D01*
X0323182Y0282637D01*
X0323128Y0282546D01*
X0323072Y0282458D01*
X0323012Y0282372D01*
X0322948Y0282288D01*
X0322882Y0282207D01*
X0322812Y0282128D01*
X0322740Y0282053D01*
X0322665Y0281979D01*
X0322587Y0281909D01*
X0322506Y0281842D01*
X0322423Y0281778D01*
X0322338Y0281717D01*
X0322250Y0281659D01*
X0322160Y0281605D01*
X0322068Y0281555D01*
X0321974Y0281507D01*
X0321879Y0281464D01*
X0321782Y0281424D01*
X0321683Y0281388D01*
X0321584Y0281355D01*
X0321483Y0281327D01*
X0321381Y0281302D01*
X0321278Y0281281D01*
X0321174Y0281264D01*
X0321070Y0281251D01*
X0320966Y0281242D01*
X0320861Y0281237D01*
X0320756Y0281236D01*
X0320651Y0281239D01*
X0320546Y0281246D01*
X0320442Y0281257D01*
X0320338Y0281272D01*
X0320235Y0281291D01*
X0320132Y0281314D01*
X0320031Y0281340D01*
X0319930Y0281371D01*
X0319831Y0281405D01*
X0319733Y0281443D01*
X0319637Y0281485D01*
X0319543Y0281530D01*
X0319450Y0281579D01*
X0319359Y0281632D01*
X0319270Y0281688D01*
X0319183Y0281747D01*
X0319099Y0281810D01*
X0319017Y0281875D01*
X0318938Y0281944D01*
X0318861Y0282016D01*
X0318787Y0282090D01*
X0318716Y0282167D01*
X0318648Y0282247D01*
X0318584Y0282330D01*
X0318522Y0282415D01*
X0318464Y0282502D01*
X0318408Y0282591D01*
X0318357Y0282683D01*
X0318309Y0282776D01*
X0318264Y0282871D01*
X0318223Y0282968D01*
X0318186Y0283066D01*
X0318153Y0283165D01*
X0318123Y0283266D01*
X0318098Y0283368D01*
X0318076Y0283470D01*
X0318058Y0283574D01*
X0318044Y0283678D01*
X0318034Y0283782D01*
X0318028Y0283887D01*
X0318026Y0283992D01*
X0260152Y0283992D02*
X0260154Y0284097D01*
X0260160Y0284202D01*
X0260170Y0284306D01*
X0260184Y0284410D01*
X0260202Y0284514D01*
X0260224Y0284616D01*
X0260249Y0284718D01*
X0260279Y0284819D01*
X0260312Y0284918D01*
X0260349Y0285016D01*
X0260390Y0285113D01*
X0260435Y0285208D01*
X0260483Y0285301D01*
X0260534Y0285393D01*
X0260590Y0285482D01*
X0260648Y0285569D01*
X0260710Y0285654D01*
X0260774Y0285737D01*
X0260842Y0285817D01*
X0260913Y0285894D01*
X0260987Y0285968D01*
X0261064Y0286040D01*
X0261143Y0286109D01*
X0261225Y0286174D01*
X0261309Y0286237D01*
X0261396Y0286296D01*
X0261485Y0286352D01*
X0261576Y0286405D01*
X0261669Y0286454D01*
X0261763Y0286499D01*
X0261859Y0286541D01*
X0261957Y0286579D01*
X0262056Y0286613D01*
X0262157Y0286644D01*
X0262258Y0286670D01*
X0262361Y0286693D01*
X0262464Y0286712D01*
X0262568Y0286727D01*
X0262672Y0286738D01*
X0262777Y0286745D01*
X0262882Y0286748D01*
X0262987Y0286747D01*
X0263092Y0286742D01*
X0263196Y0286733D01*
X0263300Y0286720D01*
X0263404Y0286703D01*
X0263507Y0286682D01*
X0263609Y0286657D01*
X0263710Y0286629D01*
X0263809Y0286596D01*
X0263908Y0286560D01*
X0264005Y0286520D01*
X0264100Y0286477D01*
X0264194Y0286429D01*
X0264286Y0286379D01*
X0264376Y0286325D01*
X0264464Y0286267D01*
X0264549Y0286206D01*
X0264632Y0286142D01*
X0264713Y0286075D01*
X0264791Y0286005D01*
X0264866Y0285931D01*
X0264938Y0285856D01*
X0265008Y0285777D01*
X0265074Y0285696D01*
X0265138Y0285612D01*
X0265198Y0285526D01*
X0265254Y0285438D01*
X0265308Y0285347D01*
X0265358Y0285255D01*
X0265404Y0285161D01*
X0265447Y0285065D01*
X0265486Y0284967D01*
X0265521Y0284869D01*
X0265552Y0284768D01*
X0265580Y0284667D01*
X0265604Y0284565D01*
X0265624Y0284462D01*
X0265640Y0284358D01*
X0265652Y0284254D01*
X0265660Y0284149D01*
X0265664Y0284044D01*
X0265664Y0283940D01*
X0265660Y0283835D01*
X0265652Y0283730D01*
X0265640Y0283626D01*
X0265624Y0283522D01*
X0265604Y0283419D01*
X0265580Y0283317D01*
X0265552Y0283216D01*
X0265521Y0283115D01*
X0265486Y0283017D01*
X0265447Y0282919D01*
X0265404Y0282823D01*
X0265358Y0282729D01*
X0265308Y0282637D01*
X0265254Y0282546D01*
X0265198Y0282458D01*
X0265138Y0282372D01*
X0265074Y0282288D01*
X0265008Y0282207D01*
X0264938Y0282128D01*
X0264866Y0282053D01*
X0264791Y0281979D01*
X0264713Y0281909D01*
X0264632Y0281842D01*
X0264549Y0281778D01*
X0264464Y0281717D01*
X0264376Y0281659D01*
X0264286Y0281605D01*
X0264194Y0281555D01*
X0264100Y0281507D01*
X0264005Y0281464D01*
X0263908Y0281424D01*
X0263809Y0281388D01*
X0263710Y0281355D01*
X0263609Y0281327D01*
X0263507Y0281302D01*
X0263404Y0281281D01*
X0263300Y0281264D01*
X0263196Y0281251D01*
X0263092Y0281242D01*
X0262987Y0281237D01*
X0262882Y0281236D01*
X0262777Y0281239D01*
X0262672Y0281246D01*
X0262568Y0281257D01*
X0262464Y0281272D01*
X0262361Y0281291D01*
X0262258Y0281314D01*
X0262157Y0281340D01*
X0262056Y0281371D01*
X0261957Y0281405D01*
X0261859Y0281443D01*
X0261763Y0281485D01*
X0261669Y0281530D01*
X0261576Y0281579D01*
X0261485Y0281632D01*
X0261396Y0281688D01*
X0261309Y0281747D01*
X0261225Y0281810D01*
X0261143Y0281875D01*
X0261064Y0281944D01*
X0260987Y0282016D01*
X0260913Y0282090D01*
X0260842Y0282167D01*
X0260774Y0282247D01*
X0260710Y0282330D01*
X0260648Y0282415D01*
X0260590Y0282502D01*
X0260534Y0282591D01*
X0260483Y0282683D01*
X0260435Y0282776D01*
X0260390Y0282871D01*
X0260349Y0282968D01*
X0260312Y0283066D01*
X0260279Y0283165D01*
X0260249Y0283266D01*
X0260224Y0283368D01*
X0260202Y0283470D01*
X0260184Y0283574D01*
X0260170Y0283678D01*
X0260160Y0283782D01*
X0260154Y0283887D01*
X0260152Y0283992D01*
X0260152Y0378874D02*
X0260154Y0378979D01*
X0260160Y0379084D01*
X0260170Y0379188D01*
X0260184Y0379292D01*
X0260202Y0379396D01*
X0260224Y0379498D01*
X0260249Y0379600D01*
X0260279Y0379701D01*
X0260312Y0379800D01*
X0260349Y0379898D01*
X0260390Y0379995D01*
X0260435Y0380090D01*
X0260483Y0380183D01*
X0260534Y0380275D01*
X0260590Y0380364D01*
X0260648Y0380451D01*
X0260710Y0380536D01*
X0260774Y0380619D01*
X0260842Y0380699D01*
X0260913Y0380776D01*
X0260987Y0380850D01*
X0261064Y0380922D01*
X0261143Y0380991D01*
X0261225Y0381056D01*
X0261309Y0381119D01*
X0261396Y0381178D01*
X0261485Y0381234D01*
X0261576Y0381287D01*
X0261669Y0381336D01*
X0261763Y0381381D01*
X0261859Y0381423D01*
X0261957Y0381461D01*
X0262056Y0381495D01*
X0262157Y0381526D01*
X0262258Y0381552D01*
X0262361Y0381575D01*
X0262464Y0381594D01*
X0262568Y0381609D01*
X0262672Y0381620D01*
X0262777Y0381627D01*
X0262882Y0381630D01*
X0262987Y0381629D01*
X0263092Y0381624D01*
X0263196Y0381615D01*
X0263300Y0381602D01*
X0263404Y0381585D01*
X0263507Y0381564D01*
X0263609Y0381539D01*
X0263710Y0381511D01*
X0263809Y0381478D01*
X0263908Y0381442D01*
X0264005Y0381402D01*
X0264100Y0381359D01*
X0264194Y0381311D01*
X0264286Y0381261D01*
X0264376Y0381207D01*
X0264464Y0381149D01*
X0264549Y0381088D01*
X0264632Y0381024D01*
X0264713Y0380957D01*
X0264791Y0380887D01*
X0264866Y0380813D01*
X0264938Y0380738D01*
X0265008Y0380659D01*
X0265074Y0380578D01*
X0265138Y0380494D01*
X0265198Y0380408D01*
X0265254Y0380320D01*
X0265308Y0380229D01*
X0265358Y0380137D01*
X0265404Y0380043D01*
X0265447Y0379947D01*
X0265486Y0379849D01*
X0265521Y0379751D01*
X0265552Y0379650D01*
X0265580Y0379549D01*
X0265604Y0379447D01*
X0265624Y0379344D01*
X0265640Y0379240D01*
X0265652Y0379136D01*
X0265660Y0379031D01*
X0265664Y0378926D01*
X0265664Y0378822D01*
X0265660Y0378717D01*
X0265652Y0378612D01*
X0265640Y0378508D01*
X0265624Y0378404D01*
X0265604Y0378301D01*
X0265580Y0378199D01*
X0265552Y0378098D01*
X0265521Y0377997D01*
X0265486Y0377899D01*
X0265447Y0377801D01*
X0265404Y0377705D01*
X0265358Y0377611D01*
X0265308Y0377519D01*
X0265254Y0377428D01*
X0265198Y0377340D01*
X0265138Y0377254D01*
X0265074Y0377170D01*
X0265008Y0377089D01*
X0264938Y0377010D01*
X0264866Y0376935D01*
X0264791Y0376861D01*
X0264713Y0376791D01*
X0264632Y0376724D01*
X0264549Y0376660D01*
X0264464Y0376599D01*
X0264376Y0376541D01*
X0264286Y0376487D01*
X0264194Y0376437D01*
X0264100Y0376389D01*
X0264005Y0376346D01*
X0263908Y0376306D01*
X0263809Y0376270D01*
X0263710Y0376237D01*
X0263609Y0376209D01*
X0263507Y0376184D01*
X0263404Y0376163D01*
X0263300Y0376146D01*
X0263196Y0376133D01*
X0263092Y0376124D01*
X0262987Y0376119D01*
X0262882Y0376118D01*
X0262777Y0376121D01*
X0262672Y0376128D01*
X0262568Y0376139D01*
X0262464Y0376154D01*
X0262361Y0376173D01*
X0262258Y0376196D01*
X0262157Y0376222D01*
X0262056Y0376253D01*
X0261957Y0376287D01*
X0261859Y0376325D01*
X0261763Y0376367D01*
X0261669Y0376412D01*
X0261576Y0376461D01*
X0261485Y0376514D01*
X0261396Y0376570D01*
X0261309Y0376629D01*
X0261225Y0376692D01*
X0261143Y0376757D01*
X0261064Y0376826D01*
X0260987Y0376898D01*
X0260913Y0376972D01*
X0260842Y0377049D01*
X0260774Y0377129D01*
X0260710Y0377212D01*
X0260648Y0377297D01*
X0260590Y0377384D01*
X0260534Y0377473D01*
X0260483Y0377565D01*
X0260435Y0377658D01*
X0260390Y0377753D01*
X0260349Y0377850D01*
X0260312Y0377948D01*
X0260279Y0378047D01*
X0260249Y0378148D01*
X0260224Y0378250D01*
X0260202Y0378352D01*
X0260184Y0378456D01*
X0260170Y0378560D01*
X0260160Y0378664D01*
X0260154Y0378769D01*
X0260152Y0378874D01*
X0318026Y0378874D02*
X0318028Y0378979D01*
X0318034Y0379084D01*
X0318044Y0379188D01*
X0318058Y0379292D01*
X0318076Y0379396D01*
X0318098Y0379498D01*
X0318123Y0379600D01*
X0318153Y0379701D01*
X0318186Y0379800D01*
X0318223Y0379898D01*
X0318264Y0379995D01*
X0318309Y0380090D01*
X0318357Y0380183D01*
X0318408Y0380275D01*
X0318464Y0380364D01*
X0318522Y0380451D01*
X0318584Y0380536D01*
X0318648Y0380619D01*
X0318716Y0380699D01*
X0318787Y0380776D01*
X0318861Y0380850D01*
X0318938Y0380922D01*
X0319017Y0380991D01*
X0319099Y0381056D01*
X0319183Y0381119D01*
X0319270Y0381178D01*
X0319359Y0381234D01*
X0319450Y0381287D01*
X0319543Y0381336D01*
X0319637Y0381381D01*
X0319733Y0381423D01*
X0319831Y0381461D01*
X0319930Y0381495D01*
X0320031Y0381526D01*
X0320132Y0381552D01*
X0320235Y0381575D01*
X0320338Y0381594D01*
X0320442Y0381609D01*
X0320546Y0381620D01*
X0320651Y0381627D01*
X0320756Y0381630D01*
X0320861Y0381629D01*
X0320966Y0381624D01*
X0321070Y0381615D01*
X0321174Y0381602D01*
X0321278Y0381585D01*
X0321381Y0381564D01*
X0321483Y0381539D01*
X0321584Y0381511D01*
X0321683Y0381478D01*
X0321782Y0381442D01*
X0321879Y0381402D01*
X0321974Y0381359D01*
X0322068Y0381311D01*
X0322160Y0381261D01*
X0322250Y0381207D01*
X0322338Y0381149D01*
X0322423Y0381088D01*
X0322506Y0381024D01*
X0322587Y0380957D01*
X0322665Y0380887D01*
X0322740Y0380813D01*
X0322812Y0380738D01*
X0322882Y0380659D01*
X0322948Y0380578D01*
X0323012Y0380494D01*
X0323072Y0380408D01*
X0323128Y0380320D01*
X0323182Y0380229D01*
X0323232Y0380137D01*
X0323278Y0380043D01*
X0323321Y0379947D01*
X0323360Y0379849D01*
X0323395Y0379751D01*
X0323426Y0379650D01*
X0323454Y0379549D01*
X0323478Y0379447D01*
X0323498Y0379344D01*
X0323514Y0379240D01*
X0323526Y0379136D01*
X0323534Y0379031D01*
X0323538Y0378926D01*
X0323538Y0378822D01*
X0323534Y0378717D01*
X0323526Y0378612D01*
X0323514Y0378508D01*
X0323498Y0378404D01*
X0323478Y0378301D01*
X0323454Y0378199D01*
X0323426Y0378098D01*
X0323395Y0377997D01*
X0323360Y0377899D01*
X0323321Y0377801D01*
X0323278Y0377705D01*
X0323232Y0377611D01*
X0323182Y0377519D01*
X0323128Y0377428D01*
X0323072Y0377340D01*
X0323012Y0377254D01*
X0322948Y0377170D01*
X0322882Y0377089D01*
X0322812Y0377010D01*
X0322740Y0376935D01*
X0322665Y0376861D01*
X0322587Y0376791D01*
X0322506Y0376724D01*
X0322423Y0376660D01*
X0322338Y0376599D01*
X0322250Y0376541D01*
X0322160Y0376487D01*
X0322068Y0376437D01*
X0321974Y0376389D01*
X0321879Y0376346D01*
X0321782Y0376306D01*
X0321683Y0376270D01*
X0321584Y0376237D01*
X0321483Y0376209D01*
X0321381Y0376184D01*
X0321278Y0376163D01*
X0321174Y0376146D01*
X0321070Y0376133D01*
X0320966Y0376124D01*
X0320861Y0376119D01*
X0320756Y0376118D01*
X0320651Y0376121D01*
X0320546Y0376128D01*
X0320442Y0376139D01*
X0320338Y0376154D01*
X0320235Y0376173D01*
X0320132Y0376196D01*
X0320031Y0376222D01*
X0319930Y0376253D01*
X0319831Y0376287D01*
X0319733Y0376325D01*
X0319637Y0376367D01*
X0319543Y0376412D01*
X0319450Y0376461D01*
X0319359Y0376514D01*
X0319270Y0376570D01*
X0319183Y0376629D01*
X0319099Y0376692D01*
X0319017Y0376757D01*
X0318938Y0376826D01*
X0318861Y0376898D01*
X0318787Y0376972D01*
X0318716Y0377049D01*
X0318648Y0377129D01*
X0318584Y0377212D01*
X0318522Y0377297D01*
X0318464Y0377384D01*
X0318408Y0377473D01*
X0318357Y0377565D01*
X0318309Y0377658D01*
X0318264Y0377753D01*
X0318223Y0377850D01*
X0318186Y0377948D01*
X0318153Y0378047D01*
X0318123Y0378148D01*
X0318098Y0378250D01*
X0318076Y0378352D01*
X0318058Y0378456D01*
X0318044Y0378560D01*
X0318034Y0378664D01*
X0318028Y0378769D01*
X0318026Y0378874D01*
D15*
X0307349Y0355370D02*
X0307349Y0347496D01*
X0300341Y0347496D02*
X0300341Y0355370D01*
X0299099Y0355370D02*
X0299099Y0347496D01*
X0292091Y0347496D02*
X0292091Y0355370D01*
X0290849Y0355370D02*
X0290849Y0347496D01*
X0283841Y0347496D02*
X0283841Y0355370D01*
X0282599Y0355370D02*
X0282599Y0347496D01*
X0282770Y0341620D02*
X0282770Y0333746D01*
X0282770Y0328120D02*
X0282770Y0320246D01*
X0275920Y0320246D02*
X0275920Y0328120D01*
X0275920Y0333746D02*
X0275920Y0341620D01*
X0275591Y0347496D02*
X0275591Y0355370D01*
X0296658Y0311187D02*
X0304532Y0311187D01*
X0304532Y0304179D02*
X0296658Y0304179D01*
X0295658Y0295937D02*
X0303532Y0295937D01*
X0303532Y0288929D02*
X0295658Y0288929D01*
X0288532Y0288679D02*
X0280658Y0288679D01*
X0280658Y0295687D02*
X0288532Y0295687D01*
X0280532Y0266187D02*
X0272658Y0266187D01*
X0272658Y0259179D02*
X0280532Y0259179D01*
X0279782Y0207187D02*
X0271908Y0207187D01*
X0271908Y0200179D02*
X0279782Y0200179D01*
X0286225Y0196738D02*
X0318253Y0196738D01*
X0318253Y0178628D01*
X0286225Y0178628D01*
X0289158Y0159937D02*
X0297032Y0159937D01*
X0297032Y0152929D02*
X0289158Y0152929D01*
X0289158Y0151108D02*
X0297032Y0151108D01*
X0297032Y0144258D02*
X0289158Y0144258D01*
X0307052Y0139907D02*
X0314138Y0139907D01*
X0314138Y0124868D01*
X0307052Y0124868D02*
X0307052Y0139907D01*
X0307170Y0148746D02*
X0307170Y0156620D01*
X0314020Y0156620D02*
X0314020Y0148746D01*
X0223349Y0196496D02*
X0223349Y0204370D01*
X0216341Y0204370D02*
X0216341Y0196496D01*
X0215349Y0196496D02*
X0215349Y0204370D01*
X0208341Y0204370D02*
X0208341Y0196496D01*
X0170900Y0310026D02*
X0152790Y0310026D01*
X0152790Y0342053D01*
X0139020Y0340370D02*
X0139020Y0332496D01*
X0132170Y0332496D02*
X0132170Y0340370D01*
X0130349Y0340370D02*
X0130349Y0332496D01*
X0123341Y0332496D02*
X0123341Y0340370D01*
X0126658Y0324858D02*
X0134532Y0324858D01*
X0134532Y0318008D02*
X0126658Y0318008D01*
X0106638Y0324248D02*
X0106638Y0309209D01*
X0099552Y0309209D01*
X0099552Y0324248D01*
X0161845Y0369767D02*
X0161845Y0466433D01*
X0171845Y0466433D01*
X0171845Y0366433D01*
X0165179Y0366433D01*
X0170900Y0342053D02*
X0170900Y0310026D01*
X0284438Y0457378D02*
X0284438Y0475488D01*
X0316465Y0475488D01*
X0314532Y0492929D02*
X0306658Y0492929D01*
X0306658Y0499937D02*
X0314532Y0499937D01*
X0314532Y0501758D02*
X0306658Y0501758D01*
X0306658Y0508608D02*
X0314532Y0508608D01*
X0296520Y0504120D02*
X0296520Y0496246D01*
X0289670Y0496246D02*
X0289670Y0504120D01*
X0289552Y0517368D02*
X0289552Y0532407D01*
X0296638Y0532407D01*
X0296638Y0517368D01*
X0284438Y0457378D02*
X0316465Y0457378D01*
X0349095Y0453183D02*
X0349095Y0443183D01*
X0365762Y0443183D01*
X0369095Y0446517D02*
X0369095Y0453183D01*
X0349095Y0453183D01*
X0356908Y0470008D02*
X0364782Y0470008D01*
X0364782Y0476858D02*
X0356908Y0476858D01*
X0378341Y0427120D02*
X0378341Y0419246D01*
X0385349Y0419246D02*
X0385349Y0427120D01*
X0386591Y0427120D02*
X0386591Y0419246D01*
X0393599Y0419246D02*
X0393599Y0427120D01*
X0441408Y0412687D02*
X0449282Y0412687D01*
X0449282Y0405679D02*
X0441408Y0405679D01*
X0441158Y0404608D02*
X0449032Y0404608D01*
X0449032Y0397758D02*
X0441158Y0397758D01*
X0432790Y0341591D02*
X0450900Y0341591D01*
X0450900Y0309563D01*
X0467091Y0312496D02*
X0467091Y0320370D01*
X0472908Y0324258D02*
X0480782Y0324258D01*
X0482770Y0320370D02*
X0482770Y0312496D01*
X0475920Y0312496D02*
X0475920Y0320370D01*
X0474099Y0320370D02*
X0474099Y0312496D01*
X0472908Y0331108D02*
X0480782Y0331108D01*
X0491530Y0333726D02*
X0506570Y0333726D01*
X0506570Y0326640D01*
X0491530Y0326640D01*
X0432790Y0341591D02*
X0432790Y0309563D01*
X0227532Y0469508D02*
X0219658Y0469508D01*
X0219658Y0476358D02*
X0227532Y0476358D01*
D16*
X0212977Y0465577D02*
X0212979Y0465616D01*
X0212985Y0465655D01*
X0212995Y0465693D01*
X0213008Y0465730D01*
X0213025Y0465765D01*
X0213045Y0465799D01*
X0213069Y0465830D01*
X0213096Y0465859D01*
X0213125Y0465885D01*
X0213157Y0465908D01*
X0213191Y0465928D01*
X0213227Y0465944D01*
X0213264Y0465956D01*
X0213303Y0465965D01*
X0213342Y0465970D01*
X0213381Y0465971D01*
X0213420Y0465968D01*
X0213459Y0465961D01*
X0213496Y0465950D01*
X0213533Y0465936D01*
X0213568Y0465918D01*
X0213601Y0465897D01*
X0213632Y0465872D01*
X0213660Y0465845D01*
X0213685Y0465815D01*
X0213707Y0465782D01*
X0213726Y0465748D01*
X0213741Y0465712D01*
X0213753Y0465674D01*
X0213761Y0465636D01*
X0213765Y0465597D01*
X0213765Y0465557D01*
X0213761Y0465518D01*
X0213753Y0465480D01*
X0213741Y0465442D01*
X0213726Y0465406D01*
X0213707Y0465372D01*
X0213685Y0465339D01*
X0213660Y0465309D01*
X0213632Y0465282D01*
X0213601Y0465257D01*
X0213568Y0465236D01*
X0213533Y0465218D01*
X0213496Y0465204D01*
X0213459Y0465193D01*
X0213420Y0465186D01*
X0213381Y0465183D01*
X0213342Y0465184D01*
X0213303Y0465189D01*
X0213264Y0465198D01*
X0213227Y0465210D01*
X0213191Y0465226D01*
X0213157Y0465246D01*
X0213125Y0465269D01*
X0213096Y0465295D01*
X0213069Y0465324D01*
X0213045Y0465355D01*
X0213025Y0465389D01*
X0213008Y0465424D01*
X0212995Y0465461D01*
X0212985Y0465499D01*
X0212979Y0465538D01*
X0212977Y0465577D01*
X0282784Y0466433D02*
X0282786Y0466472D01*
X0282792Y0466511D01*
X0282802Y0466549D01*
X0282815Y0466586D01*
X0282832Y0466621D01*
X0282852Y0466655D01*
X0282876Y0466686D01*
X0282903Y0466715D01*
X0282932Y0466741D01*
X0282964Y0466764D01*
X0282998Y0466784D01*
X0283034Y0466800D01*
X0283071Y0466812D01*
X0283110Y0466821D01*
X0283149Y0466826D01*
X0283188Y0466827D01*
X0283227Y0466824D01*
X0283266Y0466817D01*
X0283303Y0466806D01*
X0283340Y0466792D01*
X0283375Y0466774D01*
X0283408Y0466753D01*
X0283439Y0466728D01*
X0283467Y0466701D01*
X0283492Y0466671D01*
X0283514Y0466638D01*
X0283533Y0466604D01*
X0283548Y0466568D01*
X0283560Y0466530D01*
X0283568Y0466492D01*
X0283572Y0466453D01*
X0283572Y0466413D01*
X0283568Y0466374D01*
X0283560Y0466336D01*
X0283548Y0466298D01*
X0283533Y0466262D01*
X0283514Y0466228D01*
X0283492Y0466195D01*
X0283467Y0466165D01*
X0283439Y0466138D01*
X0283408Y0466113D01*
X0283375Y0466092D01*
X0283340Y0466074D01*
X0283303Y0466060D01*
X0283266Y0466049D01*
X0283227Y0466042D01*
X0283188Y0466039D01*
X0283149Y0466040D01*
X0283110Y0466045D01*
X0283071Y0466054D01*
X0283034Y0466066D01*
X0282998Y0466082D01*
X0282964Y0466102D01*
X0282932Y0466125D01*
X0282903Y0466151D01*
X0282876Y0466180D01*
X0282852Y0466211D01*
X0282832Y0466245D01*
X0282815Y0466280D01*
X0282802Y0466317D01*
X0282792Y0466355D01*
X0282786Y0466394D01*
X0282784Y0466433D01*
X0292701Y0533667D02*
X0292703Y0533706D01*
X0292709Y0533745D01*
X0292719Y0533783D01*
X0292732Y0533820D01*
X0292749Y0533855D01*
X0292769Y0533889D01*
X0292793Y0533920D01*
X0292820Y0533949D01*
X0292849Y0533975D01*
X0292881Y0533998D01*
X0292915Y0534018D01*
X0292951Y0534034D01*
X0292988Y0534046D01*
X0293027Y0534055D01*
X0293066Y0534060D01*
X0293105Y0534061D01*
X0293144Y0534058D01*
X0293183Y0534051D01*
X0293220Y0534040D01*
X0293257Y0534026D01*
X0293292Y0534008D01*
X0293325Y0533987D01*
X0293356Y0533962D01*
X0293384Y0533935D01*
X0293409Y0533905D01*
X0293431Y0533872D01*
X0293450Y0533838D01*
X0293465Y0533802D01*
X0293477Y0533764D01*
X0293485Y0533726D01*
X0293489Y0533687D01*
X0293489Y0533647D01*
X0293485Y0533608D01*
X0293477Y0533570D01*
X0293465Y0533532D01*
X0293450Y0533496D01*
X0293431Y0533462D01*
X0293409Y0533429D01*
X0293384Y0533399D01*
X0293356Y0533372D01*
X0293325Y0533347D01*
X0293292Y0533326D01*
X0293257Y0533308D01*
X0293220Y0533294D01*
X0293183Y0533283D01*
X0293144Y0533276D01*
X0293105Y0533273D01*
X0293066Y0533274D01*
X0293027Y0533279D01*
X0292988Y0533288D01*
X0292951Y0533300D01*
X0292915Y0533316D01*
X0292881Y0533336D01*
X0292849Y0533359D01*
X0292820Y0533385D01*
X0292793Y0533414D01*
X0292769Y0533445D01*
X0292749Y0533479D01*
X0292732Y0533514D01*
X0292719Y0533551D01*
X0292709Y0533589D01*
X0292703Y0533628D01*
X0292701Y0533667D01*
X0369676Y0465789D02*
X0369678Y0465828D01*
X0369684Y0465867D01*
X0369694Y0465905D01*
X0369707Y0465942D01*
X0369724Y0465977D01*
X0369744Y0466011D01*
X0369768Y0466042D01*
X0369795Y0466071D01*
X0369824Y0466097D01*
X0369856Y0466120D01*
X0369890Y0466140D01*
X0369926Y0466156D01*
X0369963Y0466168D01*
X0370002Y0466177D01*
X0370041Y0466182D01*
X0370080Y0466183D01*
X0370119Y0466180D01*
X0370158Y0466173D01*
X0370195Y0466162D01*
X0370232Y0466148D01*
X0370267Y0466130D01*
X0370300Y0466109D01*
X0370331Y0466084D01*
X0370359Y0466057D01*
X0370384Y0466027D01*
X0370406Y0465994D01*
X0370425Y0465960D01*
X0370440Y0465924D01*
X0370452Y0465886D01*
X0370460Y0465848D01*
X0370464Y0465809D01*
X0370464Y0465769D01*
X0370460Y0465730D01*
X0370452Y0465692D01*
X0370440Y0465654D01*
X0370425Y0465618D01*
X0370406Y0465584D01*
X0370384Y0465551D01*
X0370359Y0465521D01*
X0370331Y0465494D01*
X0370300Y0465469D01*
X0370267Y0465448D01*
X0370232Y0465430D01*
X0370195Y0465416D01*
X0370158Y0465405D01*
X0370119Y0465398D01*
X0370080Y0465395D01*
X0370041Y0465396D01*
X0370002Y0465401D01*
X0369963Y0465410D01*
X0369926Y0465422D01*
X0369890Y0465438D01*
X0369856Y0465458D01*
X0369824Y0465481D01*
X0369795Y0465507D01*
X0369768Y0465536D01*
X0369744Y0465567D01*
X0369724Y0465601D01*
X0369707Y0465636D01*
X0369694Y0465673D01*
X0369684Y0465711D01*
X0369678Y0465750D01*
X0369676Y0465789D01*
X0441451Y0342850D02*
X0441453Y0342889D01*
X0441459Y0342928D01*
X0441469Y0342966D01*
X0441482Y0343003D01*
X0441499Y0343038D01*
X0441519Y0343072D01*
X0441543Y0343103D01*
X0441570Y0343132D01*
X0441599Y0343158D01*
X0441631Y0343181D01*
X0441665Y0343201D01*
X0441701Y0343217D01*
X0441738Y0343229D01*
X0441777Y0343238D01*
X0441816Y0343243D01*
X0441855Y0343244D01*
X0441894Y0343241D01*
X0441933Y0343234D01*
X0441970Y0343223D01*
X0442007Y0343209D01*
X0442042Y0343191D01*
X0442075Y0343170D01*
X0442106Y0343145D01*
X0442134Y0343118D01*
X0442159Y0343088D01*
X0442181Y0343055D01*
X0442200Y0343021D01*
X0442215Y0342985D01*
X0442227Y0342947D01*
X0442235Y0342909D01*
X0442239Y0342870D01*
X0442239Y0342830D01*
X0442235Y0342791D01*
X0442227Y0342753D01*
X0442215Y0342715D01*
X0442200Y0342679D01*
X0442181Y0342645D01*
X0442159Y0342612D01*
X0442134Y0342582D01*
X0442106Y0342555D01*
X0442075Y0342530D01*
X0442042Y0342509D01*
X0442007Y0342491D01*
X0441970Y0342477D01*
X0441933Y0342466D01*
X0441894Y0342459D01*
X0441855Y0342456D01*
X0441816Y0342457D01*
X0441777Y0342462D01*
X0441738Y0342471D01*
X0441701Y0342483D01*
X0441665Y0342499D01*
X0441631Y0342519D01*
X0441599Y0342542D01*
X0441570Y0342568D01*
X0441543Y0342597D01*
X0441519Y0342628D01*
X0441499Y0342662D01*
X0441482Y0342697D01*
X0441469Y0342734D01*
X0441459Y0342772D01*
X0441453Y0342811D01*
X0441451Y0342850D01*
X0507435Y0330183D02*
X0507437Y0330222D01*
X0507443Y0330261D01*
X0507453Y0330299D01*
X0507466Y0330336D01*
X0507483Y0330371D01*
X0507503Y0330405D01*
X0507527Y0330436D01*
X0507554Y0330465D01*
X0507583Y0330491D01*
X0507615Y0330514D01*
X0507649Y0330534D01*
X0507685Y0330550D01*
X0507722Y0330562D01*
X0507761Y0330571D01*
X0507800Y0330576D01*
X0507839Y0330577D01*
X0507878Y0330574D01*
X0507917Y0330567D01*
X0507954Y0330556D01*
X0507991Y0330542D01*
X0508026Y0330524D01*
X0508059Y0330503D01*
X0508090Y0330478D01*
X0508118Y0330451D01*
X0508143Y0330421D01*
X0508165Y0330388D01*
X0508184Y0330354D01*
X0508199Y0330318D01*
X0508211Y0330280D01*
X0508219Y0330242D01*
X0508223Y0330203D01*
X0508223Y0330163D01*
X0508219Y0330124D01*
X0508211Y0330086D01*
X0508199Y0330048D01*
X0508184Y0330012D01*
X0508165Y0329978D01*
X0508143Y0329945D01*
X0508118Y0329915D01*
X0508090Y0329888D01*
X0508059Y0329863D01*
X0508026Y0329842D01*
X0507991Y0329824D01*
X0507954Y0329810D01*
X0507917Y0329799D01*
X0507878Y0329792D01*
X0507839Y0329789D01*
X0507800Y0329790D01*
X0507761Y0329795D01*
X0507722Y0329804D01*
X0507685Y0329816D01*
X0507649Y0329832D01*
X0507615Y0329852D01*
X0507583Y0329875D01*
X0507554Y0329901D01*
X0507527Y0329930D01*
X0507503Y0329961D01*
X0507483Y0329995D01*
X0507466Y0330030D01*
X0507453Y0330067D01*
X0507443Y0330105D01*
X0507437Y0330144D01*
X0507435Y0330183D01*
X0319118Y0187683D02*
X0319120Y0187722D01*
X0319126Y0187761D01*
X0319136Y0187799D01*
X0319149Y0187836D01*
X0319166Y0187871D01*
X0319186Y0187905D01*
X0319210Y0187936D01*
X0319237Y0187965D01*
X0319266Y0187991D01*
X0319298Y0188014D01*
X0319332Y0188034D01*
X0319368Y0188050D01*
X0319405Y0188062D01*
X0319444Y0188071D01*
X0319483Y0188076D01*
X0319522Y0188077D01*
X0319561Y0188074D01*
X0319600Y0188067D01*
X0319637Y0188056D01*
X0319674Y0188042D01*
X0319709Y0188024D01*
X0319742Y0188003D01*
X0319773Y0187978D01*
X0319801Y0187951D01*
X0319826Y0187921D01*
X0319848Y0187888D01*
X0319867Y0187854D01*
X0319882Y0187818D01*
X0319894Y0187780D01*
X0319902Y0187742D01*
X0319906Y0187703D01*
X0319906Y0187663D01*
X0319902Y0187624D01*
X0319894Y0187586D01*
X0319882Y0187548D01*
X0319867Y0187512D01*
X0319848Y0187478D01*
X0319826Y0187445D01*
X0319801Y0187415D01*
X0319773Y0187388D01*
X0319742Y0187363D01*
X0319709Y0187342D01*
X0319674Y0187324D01*
X0319637Y0187310D01*
X0319600Y0187299D01*
X0319561Y0187292D01*
X0319522Y0187289D01*
X0319483Y0187290D01*
X0319444Y0187295D01*
X0319405Y0187304D01*
X0319368Y0187316D01*
X0319332Y0187332D01*
X0319298Y0187352D01*
X0319266Y0187375D01*
X0319237Y0187401D01*
X0319210Y0187430D01*
X0319186Y0187461D01*
X0319166Y0187495D01*
X0319149Y0187530D01*
X0319136Y0187567D01*
X0319126Y0187605D01*
X0319120Y0187644D01*
X0319118Y0187683D01*
X0310201Y0141167D02*
X0310203Y0141206D01*
X0310209Y0141245D01*
X0310219Y0141283D01*
X0310232Y0141320D01*
X0310249Y0141355D01*
X0310269Y0141389D01*
X0310293Y0141420D01*
X0310320Y0141449D01*
X0310349Y0141475D01*
X0310381Y0141498D01*
X0310415Y0141518D01*
X0310451Y0141534D01*
X0310488Y0141546D01*
X0310527Y0141555D01*
X0310566Y0141560D01*
X0310605Y0141561D01*
X0310644Y0141558D01*
X0310683Y0141551D01*
X0310720Y0141540D01*
X0310757Y0141526D01*
X0310792Y0141508D01*
X0310825Y0141487D01*
X0310856Y0141462D01*
X0310884Y0141435D01*
X0310909Y0141405D01*
X0310931Y0141372D01*
X0310950Y0141338D01*
X0310965Y0141302D01*
X0310977Y0141264D01*
X0310985Y0141226D01*
X0310989Y0141187D01*
X0310989Y0141147D01*
X0310985Y0141108D01*
X0310977Y0141070D01*
X0310965Y0141032D01*
X0310950Y0140996D01*
X0310931Y0140962D01*
X0310909Y0140929D01*
X0310884Y0140899D01*
X0310856Y0140872D01*
X0310825Y0140847D01*
X0310792Y0140826D01*
X0310757Y0140808D01*
X0310720Y0140794D01*
X0310683Y0140783D01*
X0310644Y0140776D01*
X0310605Y0140773D01*
X0310566Y0140774D01*
X0310527Y0140779D01*
X0310488Y0140788D01*
X0310451Y0140800D01*
X0310415Y0140816D01*
X0310381Y0140836D01*
X0310349Y0140859D01*
X0310320Y0140885D01*
X0310293Y0140914D01*
X0310269Y0140945D01*
X0310249Y0140979D01*
X0310232Y0141014D01*
X0310219Y0141051D01*
X0310209Y0141089D01*
X0310203Y0141128D01*
X0310201Y0141167D01*
X0161451Y0308766D02*
X0161453Y0308805D01*
X0161459Y0308844D01*
X0161469Y0308882D01*
X0161482Y0308919D01*
X0161499Y0308954D01*
X0161519Y0308988D01*
X0161543Y0309019D01*
X0161570Y0309048D01*
X0161599Y0309074D01*
X0161631Y0309097D01*
X0161665Y0309117D01*
X0161701Y0309133D01*
X0161738Y0309145D01*
X0161777Y0309154D01*
X0161816Y0309159D01*
X0161855Y0309160D01*
X0161894Y0309157D01*
X0161933Y0309150D01*
X0161970Y0309139D01*
X0162007Y0309125D01*
X0162042Y0309107D01*
X0162075Y0309086D01*
X0162106Y0309061D01*
X0162134Y0309034D01*
X0162159Y0309004D01*
X0162181Y0308971D01*
X0162200Y0308937D01*
X0162215Y0308901D01*
X0162227Y0308863D01*
X0162235Y0308825D01*
X0162239Y0308786D01*
X0162239Y0308746D01*
X0162235Y0308707D01*
X0162227Y0308669D01*
X0162215Y0308631D01*
X0162200Y0308595D01*
X0162181Y0308561D01*
X0162159Y0308528D01*
X0162134Y0308498D01*
X0162106Y0308471D01*
X0162075Y0308446D01*
X0162042Y0308425D01*
X0162007Y0308407D01*
X0161970Y0308393D01*
X0161933Y0308382D01*
X0161894Y0308375D01*
X0161855Y0308372D01*
X0161816Y0308373D01*
X0161777Y0308378D01*
X0161738Y0308387D01*
X0161701Y0308399D01*
X0161665Y0308415D01*
X0161631Y0308435D01*
X0161599Y0308458D01*
X0161570Y0308484D01*
X0161543Y0308513D01*
X0161519Y0308544D01*
X0161499Y0308578D01*
X0161482Y0308613D01*
X0161469Y0308650D01*
X0161459Y0308688D01*
X0161453Y0308727D01*
X0161451Y0308766D01*
X0102701Y0307949D02*
X0102703Y0307988D01*
X0102709Y0308027D01*
X0102719Y0308065D01*
X0102732Y0308102D01*
X0102749Y0308137D01*
X0102769Y0308171D01*
X0102793Y0308202D01*
X0102820Y0308231D01*
X0102849Y0308257D01*
X0102881Y0308280D01*
X0102915Y0308300D01*
X0102951Y0308316D01*
X0102988Y0308328D01*
X0103027Y0308337D01*
X0103066Y0308342D01*
X0103105Y0308343D01*
X0103144Y0308340D01*
X0103183Y0308333D01*
X0103220Y0308322D01*
X0103257Y0308308D01*
X0103292Y0308290D01*
X0103325Y0308269D01*
X0103356Y0308244D01*
X0103384Y0308217D01*
X0103409Y0308187D01*
X0103431Y0308154D01*
X0103450Y0308120D01*
X0103465Y0308084D01*
X0103477Y0308046D01*
X0103485Y0308008D01*
X0103489Y0307969D01*
X0103489Y0307929D01*
X0103485Y0307890D01*
X0103477Y0307852D01*
X0103465Y0307814D01*
X0103450Y0307778D01*
X0103431Y0307744D01*
X0103409Y0307711D01*
X0103384Y0307681D01*
X0103356Y0307654D01*
X0103325Y0307629D01*
X0103292Y0307608D01*
X0103257Y0307590D01*
X0103220Y0307576D01*
X0103183Y0307565D01*
X0103144Y0307558D01*
X0103105Y0307555D01*
X0103066Y0307556D01*
X0103027Y0307561D01*
X0102988Y0307570D01*
X0102951Y0307582D01*
X0102915Y0307598D01*
X0102881Y0307618D01*
X0102849Y0307641D01*
X0102820Y0307667D01*
X0102793Y0307696D01*
X0102769Y0307727D01*
X0102749Y0307761D01*
X0102732Y0307796D01*
X0102719Y0307833D01*
X0102709Y0307871D01*
X0102703Y0307910D01*
X0102701Y0307949D01*
D17*
X0105308Y0343670D02*
X0107727Y0343670D01*
X0108211Y0344153D01*
X0108211Y0345121D01*
X0107727Y0345605D01*
X0105308Y0345605D01*
X0105792Y0346616D02*
X0105308Y0347100D01*
X0105308Y0348067D01*
X0105792Y0348551D01*
X0106760Y0348067D02*
X0106760Y0347100D01*
X0106276Y0346616D01*
X0105792Y0346616D01*
X0104825Y0347584D02*
X0108695Y0347584D01*
X0108211Y0348067D02*
X0107727Y0348551D01*
X0107243Y0348551D01*
X0106760Y0348067D01*
X0108211Y0348067D02*
X0108211Y0347100D01*
X0107727Y0346616D01*
X0106760Y0349563D02*
X0106760Y0351498D01*
X0108211Y0351014D02*
X0105308Y0351014D01*
X0106760Y0349563D01*
X0215883Y0469664D02*
X0215883Y0472831D01*
X0217994Y0472831D01*
X0219073Y0472831D02*
X0220657Y0472831D01*
X0221185Y0472303D01*
X0221185Y0471247D01*
X0220657Y0470720D01*
X0219073Y0470720D01*
X0220129Y0470720D02*
X0221185Y0469664D01*
X0222263Y0470192D02*
X0222791Y0469664D01*
X0223847Y0469664D01*
X0224375Y0470192D01*
X0224375Y0472303D01*
X0223847Y0472831D01*
X0222791Y0472831D01*
X0222263Y0472303D01*
X0222263Y0470192D01*
X0219073Y0469664D02*
X0219073Y0472831D01*
X0216939Y0471247D02*
X0215883Y0471247D01*
X0225453Y0469664D02*
X0225453Y0472831D01*
X0227565Y0469664D01*
X0227565Y0472831D01*
X0228643Y0472831D02*
X0230755Y0472831D01*
X0229699Y0472831D02*
X0229699Y0469664D01*
X0231834Y0469136D02*
X0233945Y0469136D01*
X0235024Y0469664D02*
X0237135Y0469664D01*
X0238214Y0469664D02*
X0240325Y0469664D01*
X0241404Y0469664D02*
X0241404Y0472831D01*
X0242988Y0472831D01*
X0243515Y0472303D01*
X0243515Y0470192D01*
X0242988Y0469664D01*
X0241404Y0469664D01*
X0239270Y0471247D02*
X0238214Y0471247D01*
X0238214Y0469664D02*
X0238214Y0472831D01*
X0240325Y0472831D01*
X0235024Y0472831D02*
X0235024Y0469664D01*
X0244594Y0469136D02*
X0246706Y0469136D01*
X0247784Y0469664D02*
X0249896Y0471775D01*
X0249896Y0472303D01*
X0249368Y0472831D01*
X0248312Y0472831D01*
X0247784Y0472303D01*
X0247784Y0469664D02*
X0249896Y0469664D01*
X0317832Y0523051D02*
X0318315Y0522567D01*
X0319283Y0522567D01*
X0319767Y0523051D01*
X0319767Y0525470D01*
X0320778Y0524986D02*
X0321262Y0525470D01*
X0322230Y0525470D01*
X0322713Y0524986D01*
X0323725Y0524986D02*
X0324209Y0525470D01*
X0325176Y0525470D01*
X0325660Y0524986D01*
X0325660Y0524502D01*
X0323725Y0522567D01*
X0325660Y0522567D01*
X0322713Y0523051D02*
X0322713Y0523535D01*
X0322230Y0524019D01*
X0321262Y0524019D01*
X0320778Y0524502D01*
X0320778Y0524986D01*
X0321746Y0525954D02*
X0321746Y0522084D01*
X0322230Y0522567D02*
X0322713Y0523051D01*
X0322230Y0522567D02*
X0321262Y0522567D01*
X0320778Y0523051D01*
X0317832Y0523051D02*
X0317832Y0525470D01*
X0332766Y0461705D02*
X0334877Y0461705D01*
X0335956Y0461705D02*
X0337540Y0461705D01*
X0338068Y0461177D01*
X0338068Y0460121D01*
X0337540Y0459594D01*
X0335956Y0459594D01*
X0337012Y0459594D02*
X0338068Y0458538D01*
X0339146Y0459066D02*
X0339146Y0461177D01*
X0339674Y0461705D01*
X0340730Y0461705D01*
X0341258Y0461177D01*
X0341258Y0459066D01*
X0340730Y0458538D01*
X0339674Y0458538D01*
X0339146Y0459066D01*
X0335956Y0458538D02*
X0335956Y0461705D01*
X0333822Y0460121D02*
X0332766Y0460121D01*
X0332766Y0458538D02*
X0332766Y0461705D01*
X0342336Y0461705D02*
X0342336Y0458538D01*
X0344448Y0458538D02*
X0342336Y0461705D01*
X0344448Y0461705D02*
X0344448Y0458538D01*
X0346582Y0458538D02*
X0346582Y0461705D01*
X0345526Y0461705D02*
X0347638Y0461705D01*
X0348717Y0458010D02*
X0350828Y0458010D01*
X0351907Y0458538D02*
X0354018Y0458538D01*
X0355097Y0458538D02*
X0357208Y0458538D01*
X0358287Y0458538D02*
X0359871Y0458538D01*
X0360398Y0459066D01*
X0360398Y0461177D01*
X0359871Y0461705D01*
X0358287Y0461705D01*
X0358287Y0458538D01*
X0356153Y0460121D02*
X0355097Y0460121D01*
X0355097Y0458538D02*
X0355097Y0461705D01*
X0357208Y0461705D01*
X0351907Y0461705D02*
X0351907Y0458538D01*
X0361477Y0458010D02*
X0363589Y0458010D01*
X0364667Y0458538D02*
X0366779Y0458538D01*
X0365723Y0458538D02*
X0365723Y0461705D01*
X0364667Y0460649D01*
X0497977Y0307517D02*
X0500879Y0307517D01*
X0500879Y0306550D02*
X0500879Y0308485D01*
X0498944Y0306550D02*
X0497977Y0307517D01*
X0498461Y0305538D02*
X0497977Y0305055D01*
X0497977Y0304087D01*
X0498461Y0303603D01*
X0498944Y0303603D01*
X0499428Y0304087D01*
X0499428Y0305055D01*
X0499912Y0305538D01*
X0500396Y0305538D01*
X0500879Y0305055D01*
X0500879Y0304087D01*
X0500396Y0303603D01*
X0500396Y0302592D02*
X0497977Y0302592D01*
X0497977Y0300657D02*
X0500396Y0300657D01*
X0500879Y0301141D01*
X0500879Y0302108D01*
X0500396Y0302592D01*
X0501363Y0304571D02*
X0497493Y0304571D01*
X0285147Y0128568D02*
X0285147Y0128084D01*
X0284663Y0127600D01*
X0285147Y0127116D01*
X0285147Y0126633D01*
X0284663Y0126149D01*
X0283696Y0126149D01*
X0283212Y0126633D01*
X0282200Y0126633D02*
X0282200Y0127116D01*
X0281717Y0127600D01*
X0280749Y0127600D01*
X0280265Y0128084D01*
X0280265Y0128568D01*
X0280749Y0129051D01*
X0281717Y0129051D01*
X0282200Y0128568D01*
X0283212Y0128568D02*
X0283696Y0129051D01*
X0284663Y0129051D01*
X0285147Y0128568D01*
X0284663Y0127600D02*
X0284179Y0127600D01*
X0282200Y0126633D02*
X0281717Y0126149D01*
X0280749Y0126149D01*
X0280265Y0126633D01*
X0279254Y0126633D02*
X0279254Y0129051D01*
X0277319Y0129051D02*
X0277319Y0126633D01*
X0277803Y0126149D01*
X0278770Y0126149D01*
X0279254Y0126633D01*
X0281233Y0125665D02*
X0281233Y0129535D01*
D18*
X0356845Y0183933D02*
X0356845Y0188933D01*
X0359345Y0191433D01*
X0364345Y0191433D01*
X0366845Y0188933D01*
X0369345Y0191433D01*
X0374345Y0191433D01*
X0376845Y0188933D01*
X0379345Y0191433D01*
X0384345Y0191433D01*
X0386845Y0188933D01*
X0389345Y0191433D01*
X0394345Y0191433D01*
X0396845Y0188933D01*
X0399345Y0191433D01*
X0404345Y0191433D01*
X0406845Y0188933D01*
X0409345Y0191433D01*
X0414345Y0191433D01*
X0416845Y0188933D01*
X0416845Y0183933D01*
X0414345Y0181433D01*
X0409345Y0181433D01*
X0406845Y0183933D01*
X0404345Y0181433D01*
X0399345Y0181433D01*
X0396845Y0183933D01*
X0394345Y0181433D01*
X0389345Y0181433D01*
X0386845Y0183933D01*
X0384345Y0181433D01*
X0379345Y0181433D01*
X0376845Y0183933D01*
X0374345Y0181433D01*
X0369345Y0181433D01*
X0366845Y0183933D01*
X0364345Y0181433D01*
X0359345Y0181433D01*
X0356845Y0183933D01*
X0308062Y0215467D02*
X0308062Y0216648D01*
X0308062Y0215467D02*
X0306881Y0215467D01*
X0308062Y0249719D02*
X0308062Y0250900D01*
X0306881Y0250900D01*
X0294707Y0272884D02*
X0289983Y0272884D01*
X0282503Y0278002D02*
X0282503Y0280364D01*
X0289983Y0285482D02*
X0294707Y0285482D01*
X0302188Y0280364D02*
X0302188Y0278002D01*
X0273810Y0250900D02*
X0272629Y0249719D01*
X0272629Y0216648D02*
X0272629Y0215467D01*
X0273810Y0215467D01*
X0201095Y0199683D02*
X0201095Y0180683D01*
X0198095Y0183183D02*
X0196595Y0181683D01*
X0195095Y0183183D01*
X0196595Y0181683D02*
X0196595Y0185183D01*
X0192095Y0180683D02*
X0192095Y0199683D01*
X0426845Y0235183D02*
X0429345Y0232683D01*
X0444345Y0232683D01*
X0446845Y0235183D01*
X0446845Y0240183D01*
X0444345Y0242683D01*
X0429345Y0242683D01*
X0426845Y0240183D01*
X0426845Y0235183D01*
X0429345Y0242683D02*
X0426845Y0245183D01*
X0426845Y0250183D01*
X0429345Y0252683D01*
X0426845Y0255183D01*
X0426845Y0260183D01*
X0429345Y0262683D01*
X0444345Y0262683D01*
X0446845Y0260183D01*
X0446845Y0255183D01*
X0444345Y0252683D01*
X0429345Y0252683D01*
X0446845Y0250183D02*
X0446845Y0245183D01*
X0444345Y0242683D01*
X0443095Y0415183D02*
X0440595Y0417683D01*
X0440595Y0422683D01*
X0443095Y0425183D01*
X0440595Y0427683D01*
X0440595Y0432683D01*
X0443095Y0435183D01*
X0440595Y0437683D01*
X0440595Y0442683D01*
X0443095Y0445183D01*
X0440595Y0447683D01*
X0440595Y0452683D01*
X0443095Y0455183D01*
X0440595Y0457683D01*
X0440595Y0462683D01*
X0443095Y0465183D01*
X0440595Y0467683D01*
X0440595Y0472683D01*
X0443095Y0475183D01*
X0448095Y0475183D01*
X0450595Y0472683D01*
X0450595Y0467683D01*
X0448095Y0465183D01*
X0450595Y0462683D01*
X0450595Y0457683D01*
X0448095Y0455183D01*
X0450595Y0452683D01*
X0450595Y0447683D01*
X0448095Y0445183D01*
X0450595Y0442683D01*
X0450595Y0437683D01*
X0448095Y0435183D01*
X0450595Y0432683D01*
X0450595Y0427683D01*
X0448095Y0425183D01*
X0450595Y0422683D01*
X0450595Y0417683D01*
X0448095Y0415183D01*
X0443095Y0415183D01*
D19*
X0182495Y0242033D03*
X0180495Y0242033D03*
X0179695Y0243233D03*
X0168495Y0246033D03*
X0168495Y0246433D03*
X0166495Y0246433D03*
X0166495Y0246833D03*
X0165695Y0248833D03*
X0166895Y0250033D03*
X0166895Y0250433D03*
X0163695Y0246833D03*
X0159295Y0245233D03*
X0159295Y0244833D03*
X0159295Y0242433D03*
X0161695Y0238033D03*
X0168895Y0238433D03*
X0159695Y0250433D03*
D20*
X0164495Y0249633D03*
X0162895Y0245633D03*
X0165695Y0245233D03*
X0169295Y0248033D03*
X0169695Y0247633D03*
X0170095Y0246833D03*
X0170095Y0246433D03*
X0170895Y0244833D03*
X0171295Y0243633D03*
X0171295Y0243233D03*
X0171295Y0242833D03*
X0171295Y0241633D03*
X0171295Y0241233D03*
X0170895Y0240033D03*
X0170495Y0239633D03*
X0168495Y0238033D03*
X0174095Y0244433D03*
X0174095Y0244833D03*
X0174095Y0245233D03*
X0174095Y0246033D03*
X0174895Y0245233D03*
X0175695Y0245233D03*
X0175695Y0244833D03*
X0175695Y0244433D03*
X0176495Y0244833D03*
X0176495Y0245233D03*
X0176495Y0245633D03*
X0176495Y0246033D03*
X0175695Y0246033D03*
X0178095Y0246033D03*
X0178095Y0245633D03*
X0178095Y0245233D03*
X0178095Y0244833D03*
X0178895Y0244833D03*
X0178895Y0245233D03*
X0178895Y0245633D03*
X0181295Y0245633D03*
X0181295Y0246033D03*
X0181295Y0244833D03*
X0181295Y0244433D03*
X0182895Y0244433D03*
X0182895Y0244833D03*
X0182895Y0245633D03*
X0182895Y0246033D03*
X0159295Y0243233D03*
D21*
X0159495Y0239633D03*
X0159495Y0239233D03*
X0159895Y0238833D03*
X0160695Y0238433D03*
X0160295Y0249233D03*
X0173895Y0243233D03*
X0173895Y0242833D03*
X0177895Y0238833D03*
X0177895Y0238433D03*
D22*
X0176695Y0239233D03*
X0176695Y0239633D03*
X0176695Y0240033D03*
X0176695Y0240433D03*
X0176695Y0240833D03*
X0176695Y0241233D03*
X0176695Y0241633D03*
X0176695Y0242033D03*
X0176695Y0242433D03*
X0176695Y0242833D03*
X0176695Y0243233D03*
X0175495Y0245633D03*
X0174295Y0245633D03*
X0171095Y0244433D03*
X0171095Y0244033D03*
X0171495Y0242433D03*
X0171495Y0242033D03*
X0172695Y0242033D03*
X0172695Y0241633D03*
X0172695Y0242433D03*
X0172695Y0240433D03*
X0172695Y0240033D03*
X0172695Y0239633D03*
X0172695Y0239233D03*
X0172695Y0238833D03*
X0172695Y0238433D03*
X0170295Y0239233D03*
X0169495Y0238833D03*
X0171095Y0240433D03*
X0171095Y0240833D03*
X0165895Y0241233D03*
X0168695Y0245633D03*
X0169895Y0247233D03*
X0169095Y0248433D03*
X0167495Y0249233D03*
X0167095Y0250833D03*
X0167095Y0251233D03*
X0163495Y0249233D03*
X0162695Y0246033D03*
X0159095Y0244433D03*
X0159095Y0242833D03*
X0159495Y0250833D03*
X0179895Y0242833D03*
X0180295Y0242433D03*
X0180695Y0241633D03*
X0181495Y0240433D03*
X0181495Y0240033D03*
X0181495Y0239633D03*
X0181495Y0239233D03*
X0181495Y0238833D03*
X0181495Y0238433D03*
X0182295Y0241633D03*
X0182695Y0242433D03*
X0183095Y0242833D03*
X0183095Y0243233D03*
D23*
X0173695Y0241233D03*
X0173695Y0240833D03*
X0168895Y0241233D03*
X0168095Y0240433D03*
X0159295Y0240033D03*
X0160095Y0249633D03*
D24*
X0160295Y0247233D03*
X0160295Y0246833D03*
X0159095Y0240833D03*
X0159095Y0240433D03*
X0169095Y0242433D03*
X0169095Y0242833D03*
X0169095Y0243233D03*
X0169095Y0243633D03*
D25*
X0167695Y0240833D03*
D26*
X0168695Y0241633D03*
X0169095Y0244033D03*
X0164695Y0244833D03*
X0164295Y0245233D03*
X0164295Y0245633D03*
X0163095Y0246433D03*
X0163895Y0247233D03*
X0165895Y0247233D03*
X0165495Y0248433D03*
X0166695Y0249633D03*
X0159895Y0246433D03*
X0159495Y0246033D03*
X0159495Y0245633D03*
X0159095Y0242033D03*
X0159095Y0241233D03*
X0181495Y0241233D03*
X0181495Y0240833D03*
D27*
X0179695Y0244433D03*
X0179695Y0246033D03*
X0182095Y0245233D03*
X0177295Y0244433D03*
X0168895Y0242033D03*
X0158895Y0241633D03*
X0160095Y0250033D03*
D28*
X0162895Y0248033D03*
X0162895Y0247633D03*
D29*
X0161095Y0248433D03*
X0161095Y0248833D03*
M02*
