G75*
%MOIN*%
%OFA0B0*%
%FSLAX25Y25*%
%IPPOS*%
%LPD*%
%AMOC8*
5,1,8,0,0,1.08239X$1,22.5*
%
%ADD10R,0.01378X0.03150*%
%ADD11C,0.05937*%
%ADD12C,0.01959*%
%ADD13C,0.01956*%
%ADD14C,0.01575*%
%ADD15R,0.06496X0.06496*%
%ADD16C,0.06496*%
%ADD17R,0.04921X0.04331*%
%ADD18R,0.07400X0.07400*%
%ADD19OC8,0.07400*%
%ADD20C,0.07400*%
%ADD21C,0.01811*%
%ADD22R,0.09843X0.03937*%
%ADD23R,0.12008X0.11417*%
%ADD24R,0.03937X0.09843*%
%ADD25R,0.11417X0.12008*%
%ADD26R,0.00906X0.06299*%
%ADD27R,0.06299X0.00906*%
%ADD28R,0.02165X0.04724*%
%ADD29R,0.06150X0.01102*%
%ADD30R,0.01102X0.06150*%
%ADD31R,0.07480X0.04331*%
%ADD32R,0.04000X0.10000*%
%ADD33R,0.07874X0.07874*%
%ADD34R,0.05512X0.08268*%
%ADD35C,0.00600*%
%ADD36C,0.04575*%
%ADD37C,0.04500*%
%ADD38C,0.01800*%
D10*
X0190036Y0214783D03*
X0192595Y0214783D03*
X0195154Y0214783D03*
X0195154Y0221083D03*
X0192595Y0221083D03*
X0190036Y0221083D03*
D11*
X0291845Y0385965D02*
X0291845Y0391902D01*
X0301845Y0391902D02*
X0301845Y0385965D01*
D12*
X0293498Y0470237D02*
X0286126Y0470237D01*
X0293498Y0470237D02*
X0293498Y0462629D01*
X0286126Y0462629D01*
X0286126Y0470237D01*
X0286126Y0464587D02*
X0293498Y0464587D01*
X0293498Y0466545D02*
X0286126Y0466545D01*
X0286126Y0468503D02*
X0293498Y0468503D01*
X0310693Y0462629D02*
X0318065Y0462629D01*
X0310693Y0462629D02*
X0310693Y0470237D01*
X0318065Y0470237D01*
X0318065Y0462629D01*
X0318065Y0464587D02*
X0310693Y0464587D01*
X0310693Y0466545D02*
X0318065Y0466545D01*
X0318065Y0468503D02*
X0310693Y0468503D01*
X0445649Y0339903D02*
X0445649Y0332531D01*
X0438041Y0332531D01*
X0438041Y0339903D01*
X0445649Y0339903D01*
X0445649Y0334489D02*
X0438041Y0334489D01*
X0438041Y0336447D02*
X0445649Y0336447D01*
X0445649Y0338405D02*
X0438041Y0338405D01*
X0438041Y0315336D02*
X0438041Y0307964D01*
X0438041Y0315336D02*
X0445649Y0315336D01*
X0445649Y0307964D01*
X0438041Y0307964D01*
X0438041Y0309922D02*
X0445649Y0309922D01*
X0445649Y0311880D02*
X0438041Y0311880D01*
X0438041Y0313838D02*
X0445649Y0313838D01*
X0318065Y0175379D02*
X0310693Y0175379D01*
X0310693Y0182987D01*
X0318065Y0182987D01*
X0318065Y0175379D01*
X0318065Y0177337D02*
X0310693Y0177337D01*
X0310693Y0179295D02*
X0318065Y0179295D01*
X0318065Y0181253D02*
X0310693Y0181253D01*
X0293498Y0182987D02*
X0286126Y0182987D01*
X0293498Y0182987D02*
X0293498Y0175379D01*
X0286126Y0175379D01*
X0286126Y0182987D01*
X0286126Y0177337D02*
X0293498Y0177337D01*
X0293498Y0179295D02*
X0286126Y0179295D01*
X0286126Y0181253D02*
X0293498Y0181253D01*
X0158041Y0311714D02*
X0158041Y0319086D01*
X0165649Y0319086D01*
X0165649Y0311714D01*
X0158041Y0311714D01*
X0158041Y0313672D02*
X0165649Y0313672D01*
X0165649Y0315630D02*
X0158041Y0315630D01*
X0158041Y0317588D02*
X0165649Y0317588D01*
X0165649Y0336281D02*
X0165649Y0343653D01*
X0165649Y0336281D02*
X0158041Y0336281D01*
X0158041Y0343653D01*
X0165649Y0343653D01*
X0165649Y0338239D02*
X0158041Y0338239D01*
X0158041Y0340197D02*
X0165649Y0340197D01*
X0165649Y0342155D02*
X0158041Y0342155D01*
D13*
X0128662Y0341105D02*
X0128662Y0338809D01*
X0125028Y0338809D01*
X0125028Y0341105D01*
X0128662Y0341105D01*
X0128662Y0340764D02*
X0125028Y0340764D01*
X0125028Y0334057D02*
X0125028Y0331761D01*
X0125028Y0334057D02*
X0128662Y0334057D01*
X0128662Y0331761D01*
X0125028Y0331761D01*
X0125028Y0333716D02*
X0128662Y0333716D01*
X0220174Y0400250D02*
X0222470Y0400250D01*
X0222470Y0396616D01*
X0220174Y0396616D01*
X0220174Y0400250D01*
X0220174Y0398571D02*
X0222470Y0398571D01*
X0227221Y0396616D02*
X0229517Y0396616D01*
X0227221Y0396616D02*
X0227221Y0400250D01*
X0229517Y0400250D01*
X0229517Y0396616D01*
X0229517Y0398571D02*
X0227221Y0398571D01*
X0235528Y0398261D02*
X0235528Y0400557D01*
X0239162Y0400557D01*
X0239162Y0398261D01*
X0235528Y0398261D01*
X0235528Y0400216D02*
X0239162Y0400216D01*
X0239162Y0405309D02*
X0239162Y0407605D01*
X0239162Y0405309D02*
X0235528Y0405309D01*
X0235528Y0407605D01*
X0239162Y0407605D01*
X0239162Y0407264D02*
X0235528Y0407264D01*
X0229767Y0425366D02*
X0227471Y0425366D01*
X0227471Y0429000D01*
X0229767Y0429000D01*
X0229767Y0425366D01*
X0229767Y0427321D02*
X0227471Y0427321D01*
X0222720Y0429000D02*
X0220424Y0429000D01*
X0222720Y0429000D02*
X0222720Y0425366D01*
X0220424Y0425366D01*
X0220424Y0429000D01*
X0220424Y0427321D02*
X0222720Y0427321D01*
X0280174Y0353250D02*
X0282470Y0353250D01*
X0282470Y0349616D01*
X0280174Y0349616D01*
X0280174Y0353250D01*
X0280174Y0351571D02*
X0282470Y0351571D01*
X0287221Y0349616D02*
X0289517Y0349616D01*
X0287221Y0349616D02*
X0287221Y0353250D01*
X0289517Y0353250D01*
X0289517Y0349616D01*
X0289517Y0351571D02*
X0287221Y0351571D01*
X0293924Y0353250D02*
X0296220Y0353250D01*
X0296220Y0349616D01*
X0293924Y0349616D01*
X0293924Y0353250D01*
X0293924Y0351571D02*
X0296220Y0351571D01*
X0300971Y0349616D02*
X0303267Y0349616D01*
X0300971Y0349616D02*
X0300971Y0353250D01*
X0303267Y0353250D01*
X0303267Y0349616D01*
X0303267Y0351571D02*
X0300971Y0351571D01*
X0299017Y0341616D02*
X0296721Y0341616D01*
X0296721Y0345250D01*
X0299017Y0345250D01*
X0299017Y0341616D01*
X0299017Y0343571D02*
X0296721Y0343571D01*
X0291970Y0345250D02*
X0289674Y0345250D01*
X0291970Y0345250D02*
X0291970Y0341616D01*
X0289674Y0341616D01*
X0289674Y0345250D01*
X0289674Y0343571D02*
X0291970Y0343571D01*
X0287267Y0333616D02*
X0284971Y0333616D01*
X0284971Y0337250D01*
X0287267Y0337250D01*
X0287267Y0333616D01*
X0287267Y0335571D02*
X0284971Y0335571D01*
X0280220Y0337250D02*
X0277924Y0337250D01*
X0280220Y0337250D02*
X0280220Y0333616D01*
X0277924Y0333616D01*
X0277924Y0337250D01*
X0277924Y0335571D02*
X0280220Y0335571D01*
X0304674Y0344750D02*
X0306970Y0344750D01*
X0306970Y0341116D01*
X0304674Y0341116D01*
X0304674Y0344750D01*
X0304674Y0343071D02*
X0306970Y0343071D01*
X0311721Y0341116D02*
X0314017Y0341116D01*
X0311721Y0341116D02*
X0311721Y0344750D01*
X0314017Y0344750D01*
X0314017Y0341116D01*
X0314017Y0343071D02*
X0311721Y0343071D01*
X0255767Y0264366D02*
X0253471Y0264366D01*
X0253471Y0268000D01*
X0255767Y0268000D01*
X0255767Y0264366D01*
X0255767Y0266321D02*
X0253471Y0266321D01*
X0248720Y0268000D02*
X0246424Y0268000D01*
X0248720Y0268000D02*
X0248720Y0264366D01*
X0246424Y0264366D01*
X0246424Y0268000D01*
X0246424Y0266321D02*
X0248720Y0266321D01*
X0241267Y0264366D02*
X0238971Y0264366D01*
X0238971Y0268000D01*
X0241267Y0268000D01*
X0241267Y0264366D01*
X0241267Y0266321D02*
X0238971Y0266321D01*
X0234220Y0268000D02*
X0231924Y0268000D01*
X0234220Y0268000D02*
X0234220Y0264366D01*
X0231924Y0264366D01*
X0231924Y0268000D01*
X0231924Y0266321D02*
X0234220Y0266321D01*
X0229267Y0246616D02*
X0226971Y0246616D01*
X0226971Y0250250D01*
X0229267Y0250250D01*
X0229267Y0246616D01*
X0229267Y0248571D02*
X0226971Y0248571D01*
X0222220Y0250250D02*
X0219924Y0250250D01*
X0222220Y0250250D02*
X0222220Y0246616D01*
X0219924Y0246616D01*
X0219924Y0250250D01*
X0219924Y0248571D02*
X0222220Y0248571D01*
X0194912Y0209605D02*
X0194912Y0207309D01*
X0191278Y0207309D01*
X0191278Y0209605D01*
X0194912Y0209605D01*
X0194912Y0209264D02*
X0191278Y0209264D01*
X0186912Y0207605D02*
X0186912Y0205309D01*
X0183278Y0205309D01*
X0183278Y0207605D01*
X0186912Y0207605D01*
X0186912Y0207264D02*
X0183278Y0207264D01*
X0183278Y0200557D02*
X0183278Y0198261D01*
X0183278Y0200557D02*
X0186912Y0200557D01*
X0186912Y0198261D01*
X0183278Y0198261D01*
X0183278Y0200216D02*
X0186912Y0200216D01*
X0191278Y0200261D02*
X0191278Y0202557D01*
X0194912Y0202557D01*
X0194912Y0200261D01*
X0191278Y0200261D01*
X0191278Y0202216D02*
X0194912Y0202216D01*
X0229424Y0190500D02*
X0231720Y0190500D01*
X0231720Y0186866D01*
X0229424Y0186866D01*
X0229424Y0190500D01*
X0229424Y0188821D02*
X0231720Y0188821D01*
X0236471Y0186866D02*
X0238767Y0186866D01*
X0236471Y0186866D02*
X0236471Y0190500D01*
X0238767Y0190500D01*
X0238767Y0186866D01*
X0238767Y0188821D02*
X0236471Y0188821D01*
X0271528Y0197511D02*
X0271528Y0199807D01*
X0275162Y0199807D01*
X0275162Y0197511D01*
X0271528Y0197511D01*
X0271528Y0199466D02*
X0275162Y0199466D01*
X0275162Y0204559D02*
X0275162Y0206855D01*
X0275162Y0204559D02*
X0271528Y0204559D01*
X0271528Y0206855D01*
X0275162Y0206855D01*
X0275162Y0206514D02*
X0271528Y0206514D01*
X0271424Y0223750D02*
X0273720Y0223750D01*
X0273720Y0220116D01*
X0271424Y0220116D01*
X0271424Y0223750D01*
X0271424Y0222071D02*
X0273720Y0222071D01*
X0278471Y0220116D02*
X0280767Y0220116D01*
X0278471Y0220116D02*
X0278471Y0223750D01*
X0280767Y0223750D01*
X0280767Y0220116D01*
X0280767Y0222071D02*
X0278471Y0222071D01*
X0288424Y0158250D02*
X0290720Y0158250D01*
X0290720Y0154616D01*
X0288424Y0154616D01*
X0288424Y0158250D01*
X0288424Y0156571D02*
X0290720Y0156571D01*
X0295471Y0154616D02*
X0297767Y0154616D01*
X0295471Y0154616D02*
X0295471Y0158250D01*
X0297767Y0158250D01*
X0297767Y0154616D01*
X0297767Y0156571D02*
X0295471Y0156571D01*
X0468778Y0311761D02*
X0468778Y0314057D01*
X0472412Y0314057D01*
X0472412Y0311761D01*
X0468778Y0311761D01*
X0468778Y0313716D02*
X0472412Y0313716D01*
X0472412Y0318809D02*
X0472412Y0321105D01*
X0472412Y0318809D02*
X0468778Y0318809D01*
X0468778Y0321105D01*
X0472412Y0321105D01*
X0472412Y0320764D02*
X0468778Y0320764D01*
X0450017Y0407366D02*
X0447721Y0407366D01*
X0447721Y0411000D01*
X0450017Y0411000D01*
X0450017Y0407366D01*
X0450017Y0409321D02*
X0447721Y0409321D01*
X0442970Y0411000D02*
X0440674Y0411000D01*
X0442970Y0411000D02*
X0442970Y0407366D01*
X0440674Y0407366D01*
X0440674Y0411000D01*
X0440674Y0409321D02*
X0442970Y0409321D01*
X0315267Y0494616D02*
X0312971Y0494616D01*
X0312971Y0498250D01*
X0315267Y0498250D01*
X0315267Y0494616D01*
X0315267Y0496571D02*
X0312971Y0496571D01*
X0308220Y0498250D02*
X0305924Y0498250D01*
X0308220Y0498250D02*
X0308220Y0494616D01*
X0305924Y0494616D01*
X0305924Y0498250D01*
X0305924Y0496571D02*
X0308220Y0496571D01*
D14*
X0292307Y0514455D02*
X0292307Y0517801D01*
X0293883Y0517801D01*
X0293883Y0514455D01*
X0292307Y0514455D01*
X0292307Y0516029D02*
X0293883Y0516029D01*
X0293883Y0517603D02*
X0292307Y0517603D01*
X0293883Y0527565D02*
X0293883Y0530911D01*
X0293883Y0527565D02*
X0292307Y0527565D01*
X0292307Y0530911D01*
X0293883Y0530911D01*
X0293883Y0529139D02*
X0292307Y0529139D01*
X0292307Y0530713D02*
X0293883Y0530713D01*
X0103883Y0327161D02*
X0103883Y0323815D01*
X0102307Y0323815D01*
X0102307Y0327161D01*
X0103883Y0327161D01*
X0103883Y0325389D02*
X0102307Y0325389D01*
X0102307Y0326963D02*
X0103883Y0326963D01*
X0102307Y0314051D02*
X0102307Y0310705D01*
X0102307Y0314051D02*
X0103883Y0314051D01*
X0103883Y0310705D01*
X0102307Y0310705D01*
X0102307Y0312279D02*
X0103883Y0312279D01*
X0103883Y0313853D02*
X0102307Y0313853D01*
X0311383Y0138411D02*
X0311383Y0135065D01*
X0309807Y0135065D01*
X0309807Y0138411D01*
X0311383Y0138411D01*
X0311383Y0136639D02*
X0309807Y0136639D01*
X0309807Y0138213D02*
X0311383Y0138213D01*
X0309807Y0125301D02*
X0309807Y0121955D01*
X0309807Y0125301D02*
X0311383Y0125301D01*
X0311383Y0121955D01*
X0309807Y0121955D01*
X0309807Y0123529D02*
X0311383Y0123529D01*
X0311383Y0125103D02*
X0309807Y0125103D01*
X0488617Y0330971D02*
X0491963Y0330971D01*
X0491963Y0329395D01*
X0488617Y0329395D01*
X0488617Y0330971D01*
X0488617Y0330969D02*
X0491963Y0330969D01*
X0501727Y0329395D02*
X0505073Y0329395D01*
X0501727Y0329395D02*
X0501727Y0330971D01*
X0505073Y0330971D01*
X0505073Y0329395D01*
X0505073Y0330969D02*
X0501727Y0330969D01*
D15*
X0311845Y0410933D03*
X0166845Y0371433D03*
D16*
X0166845Y0381433D03*
X0166845Y0391433D03*
X0166845Y0401433D03*
X0166845Y0411433D03*
X0166845Y0421433D03*
X0166845Y0431433D03*
X0166845Y0441433D03*
X0166845Y0451433D03*
X0166845Y0461433D03*
X0301845Y0410933D03*
D17*
X0356093Y0466183D03*
X0365345Y0466183D03*
X0227347Y0465183D03*
X0218095Y0465183D03*
D18*
X0431845Y0257683D03*
D19*
X0431845Y0247683D03*
X0431845Y0237683D03*
X0441845Y0237683D03*
X0441845Y0247683D03*
X0441845Y0257683D03*
D20*
X0411845Y0186433D03*
X0401845Y0186433D03*
X0391845Y0186433D03*
X0381845Y0186433D03*
X0371845Y0186433D03*
X0361845Y0186433D03*
X0445595Y0420183D03*
X0445595Y0430183D03*
X0445595Y0440183D03*
X0445595Y0450183D03*
X0445595Y0460183D03*
X0445595Y0470183D03*
D21*
X0447949Y0399372D02*
X0449761Y0399372D01*
X0447949Y0399372D02*
X0447949Y0402994D01*
X0449761Y0402994D01*
X0449761Y0399372D01*
X0449761Y0401182D02*
X0447949Y0401182D01*
X0447949Y0402992D02*
X0449761Y0402992D01*
X0442241Y0402994D02*
X0440429Y0402994D01*
X0442241Y0402994D02*
X0442241Y0399372D01*
X0440429Y0399372D01*
X0440429Y0402994D01*
X0440429Y0401182D02*
X0442241Y0401182D01*
X0442241Y0402992D02*
X0440429Y0402992D01*
X0472179Y0329494D02*
X0473991Y0329494D01*
X0473991Y0325872D01*
X0472179Y0325872D01*
X0472179Y0329494D01*
X0472179Y0327682D02*
X0473991Y0327682D01*
X0473991Y0329492D02*
X0472179Y0329492D01*
X0479699Y0325872D02*
X0481511Y0325872D01*
X0479699Y0325872D02*
X0479699Y0329494D01*
X0481511Y0329494D01*
X0481511Y0325872D01*
X0481511Y0327682D02*
X0479699Y0327682D01*
X0479699Y0329492D02*
X0481511Y0329492D01*
X0481156Y0321099D02*
X0481156Y0319287D01*
X0477534Y0319287D01*
X0477534Y0321099D01*
X0481156Y0321099D01*
X0481156Y0321097D02*
X0477534Y0321097D01*
X0477534Y0313579D02*
X0477534Y0311767D01*
X0477534Y0313579D02*
X0481156Y0313579D01*
X0481156Y0311767D01*
X0477534Y0311767D01*
X0477534Y0313577D02*
X0481156Y0313577D01*
X0365511Y0471622D02*
X0363699Y0471622D01*
X0363699Y0475244D01*
X0365511Y0475244D01*
X0365511Y0471622D01*
X0365511Y0473432D02*
X0363699Y0473432D01*
X0363699Y0475242D02*
X0365511Y0475242D01*
X0357991Y0475244D02*
X0356179Y0475244D01*
X0357991Y0475244D02*
X0357991Y0471622D01*
X0356179Y0471622D01*
X0356179Y0475244D01*
X0356179Y0473432D02*
X0357991Y0473432D01*
X0357991Y0475242D02*
X0356179Y0475242D01*
X0315261Y0503372D02*
X0313449Y0503372D01*
X0313449Y0506994D01*
X0315261Y0506994D01*
X0315261Y0503372D01*
X0315261Y0505182D02*
X0313449Y0505182D01*
X0313449Y0506992D02*
X0315261Y0506992D01*
X0307741Y0506994D02*
X0305929Y0506994D01*
X0307741Y0506994D02*
X0307741Y0503372D01*
X0305929Y0503372D01*
X0305929Y0506994D01*
X0305929Y0505182D02*
X0307741Y0505182D01*
X0307741Y0506992D02*
X0305929Y0506992D01*
X0294906Y0504849D02*
X0294906Y0503037D01*
X0291284Y0503037D01*
X0291284Y0504849D01*
X0294906Y0504849D01*
X0294906Y0504847D02*
X0291284Y0504847D01*
X0291284Y0497329D02*
X0291284Y0495517D01*
X0291284Y0497329D02*
X0294906Y0497329D01*
X0294906Y0495517D01*
X0291284Y0495517D01*
X0291284Y0497327D02*
X0294906Y0497327D01*
X0228261Y0471122D02*
X0226449Y0471122D01*
X0226449Y0474744D01*
X0228261Y0474744D01*
X0228261Y0471122D01*
X0228261Y0472932D02*
X0226449Y0472932D01*
X0226449Y0474742D02*
X0228261Y0474742D01*
X0220741Y0474744D02*
X0218929Y0474744D01*
X0220741Y0474744D02*
X0220741Y0471122D01*
X0218929Y0471122D01*
X0218929Y0474744D01*
X0218929Y0472932D02*
X0220741Y0472932D01*
X0220741Y0474742D02*
X0218929Y0474742D01*
X0137406Y0341099D02*
X0137406Y0339287D01*
X0133784Y0339287D01*
X0133784Y0341099D01*
X0137406Y0341099D01*
X0137406Y0341097D02*
X0133784Y0341097D01*
X0133784Y0333579D02*
X0133784Y0331767D01*
X0133784Y0333579D02*
X0137406Y0333579D01*
X0137406Y0331767D01*
X0133784Y0331767D01*
X0133784Y0333577D02*
X0137406Y0333577D01*
X0135261Y0319622D02*
X0133449Y0319622D01*
X0133449Y0323244D01*
X0135261Y0323244D01*
X0135261Y0319622D01*
X0135261Y0321432D02*
X0133449Y0321432D01*
X0133449Y0323242D02*
X0135261Y0323242D01*
X0127741Y0323244D02*
X0125929Y0323244D01*
X0127741Y0323244D02*
X0127741Y0319622D01*
X0125929Y0319622D01*
X0125929Y0323244D01*
X0125929Y0321432D02*
X0127741Y0321432D01*
X0127741Y0323242D02*
X0125929Y0323242D01*
X0274929Y0329244D02*
X0276741Y0329244D01*
X0276741Y0325622D01*
X0274929Y0325622D01*
X0274929Y0329244D01*
X0274929Y0327432D02*
X0276741Y0327432D01*
X0276741Y0329242D02*
X0274929Y0329242D01*
X0282449Y0325622D02*
X0284261Y0325622D01*
X0282449Y0325622D02*
X0282449Y0329244D01*
X0284261Y0329244D01*
X0284261Y0325622D01*
X0284261Y0327432D02*
X0282449Y0327432D01*
X0282449Y0329242D02*
X0284261Y0329242D01*
X0285449Y0317622D02*
X0287261Y0317622D01*
X0285449Y0317622D02*
X0285449Y0321244D01*
X0287261Y0321244D01*
X0287261Y0317622D01*
X0287261Y0319432D02*
X0285449Y0319432D01*
X0285449Y0321242D02*
X0287261Y0321242D01*
X0279741Y0321244D02*
X0277929Y0321244D01*
X0279741Y0321244D02*
X0279741Y0317622D01*
X0277929Y0317622D01*
X0277929Y0321244D01*
X0277929Y0319432D02*
X0279741Y0319432D01*
X0279741Y0321242D02*
X0277929Y0321242D01*
X0312406Y0157349D02*
X0312406Y0155537D01*
X0308784Y0155537D01*
X0308784Y0157349D01*
X0312406Y0157349D01*
X0312406Y0157347D02*
X0308784Y0157347D01*
X0308784Y0149829D02*
X0308784Y0148017D01*
X0308784Y0149829D02*
X0312406Y0149829D01*
X0312406Y0148017D01*
X0308784Y0148017D01*
X0308784Y0149827D02*
X0312406Y0149827D01*
X0297761Y0145872D02*
X0295949Y0145872D01*
X0295949Y0149494D01*
X0297761Y0149494D01*
X0297761Y0145872D01*
X0297761Y0147682D02*
X0295949Y0147682D01*
X0295949Y0149492D02*
X0297761Y0149492D01*
X0290241Y0149494D02*
X0288429Y0149494D01*
X0290241Y0149494D02*
X0290241Y0145872D01*
X0288429Y0145872D01*
X0288429Y0149494D01*
X0288429Y0147682D02*
X0290241Y0147682D01*
X0290241Y0149492D02*
X0288429Y0149492D01*
D22*
X0115841Y0332693D03*
X0115841Y0340173D03*
X0490349Y0320173D03*
X0490349Y0312693D03*
D23*
X0502259Y0316433D03*
X0103932Y0336433D03*
D24*
X0289355Y0136679D03*
X0296835Y0136679D03*
X0306855Y0514937D03*
X0314335Y0514937D03*
D25*
X0310595Y0526846D03*
X0293095Y0124770D03*
D26*
X0295920Y0319150D03*
X0297613Y0319150D03*
X0299306Y0319150D03*
X0300999Y0319150D03*
X0302692Y0319150D03*
X0304385Y0319150D03*
X0306077Y0319150D03*
X0307770Y0319150D03*
X0307770Y0333717D03*
X0306077Y0333717D03*
X0304385Y0333717D03*
X0302692Y0333717D03*
X0300999Y0333717D03*
X0299306Y0333717D03*
X0297613Y0333717D03*
X0295920Y0333717D03*
D27*
X0293577Y0328972D03*
X0293577Y0327280D03*
X0293577Y0325587D03*
X0293577Y0323894D03*
X0310113Y0323894D03*
X0310113Y0325587D03*
X0310113Y0327280D03*
X0310113Y0328972D03*
D28*
X0228835Y0407815D03*
X0221355Y0407815D03*
X0221355Y0418051D03*
X0225095Y0418051D03*
X0228835Y0418051D03*
D29*
X0224129Y0232947D03*
X0224129Y0230978D03*
X0224129Y0229010D03*
X0224129Y0227041D03*
X0224129Y0225073D03*
X0224129Y0223104D03*
X0224129Y0221136D03*
X0224129Y0219167D03*
X0224129Y0217199D03*
X0224129Y0215230D03*
X0224129Y0213262D03*
X0224129Y0211293D03*
X0224129Y0209325D03*
X0224129Y0207356D03*
X0224129Y0205388D03*
X0224129Y0203419D03*
X0262562Y0203419D03*
X0262562Y0205388D03*
X0262562Y0207356D03*
X0262562Y0209325D03*
X0262562Y0211293D03*
X0262562Y0213262D03*
X0262562Y0215230D03*
X0262562Y0217199D03*
X0262562Y0219167D03*
X0262562Y0221136D03*
X0262562Y0223104D03*
X0262562Y0225073D03*
X0262562Y0227041D03*
X0262562Y0229010D03*
X0262562Y0230978D03*
X0262562Y0232947D03*
D30*
X0258109Y0237400D03*
X0256140Y0237400D03*
X0254172Y0237400D03*
X0252203Y0237400D03*
X0250235Y0237400D03*
X0248266Y0237400D03*
X0246298Y0237400D03*
X0244329Y0237400D03*
X0242361Y0237400D03*
X0240392Y0237400D03*
X0238424Y0237400D03*
X0236455Y0237400D03*
X0234487Y0237400D03*
X0232518Y0237400D03*
X0230550Y0237400D03*
X0228581Y0237400D03*
X0228581Y0198967D03*
X0230550Y0198967D03*
X0232518Y0198967D03*
X0234487Y0198967D03*
X0236455Y0198967D03*
X0238424Y0198967D03*
X0240392Y0198967D03*
X0242361Y0198967D03*
X0244329Y0198967D03*
X0246298Y0198967D03*
X0248266Y0198967D03*
X0250235Y0198967D03*
X0252203Y0198967D03*
X0254172Y0198967D03*
X0256140Y0198967D03*
X0258109Y0198967D03*
D31*
X0252129Y0248656D03*
X0252129Y0257711D03*
X0237562Y0257711D03*
X0237562Y0248656D03*
D32*
X0179095Y0216683D03*
X0153095Y0216683D03*
D33*
X0086845Y0321246D03*
X0086845Y0333057D03*
X0295408Y0547683D03*
X0307219Y0547683D03*
X0521845Y0332870D03*
X0521845Y0321059D03*
X0307032Y0106433D03*
X0295221Y0106433D03*
D34*
X0343987Y0332770D03*
X0361703Y0332770D03*
X0361703Y0368596D03*
X0343987Y0368596D03*
D35*
X0176845Y0210783D02*
X0176845Y0176433D01*
X0216845Y0176433D01*
X0216845Y0215999D01*
X0197681Y0215999D01*
X0196743Y0214840D01*
X0196743Y0212836D01*
X0196216Y0212309D01*
X0194092Y0212309D01*
X0193875Y0212526D01*
X0193795Y0212447D01*
X0193795Y0211483D01*
X0195690Y0211483D01*
X0196790Y0210383D01*
X0196790Y0206531D01*
X0195690Y0205431D01*
X0190500Y0205431D01*
X0189400Y0206531D01*
X0189400Y0210383D01*
X0190500Y0211483D01*
X0191395Y0211483D01*
X0191395Y0212447D01*
X0191316Y0212526D01*
X0191098Y0212309D01*
X0188974Y0212309D01*
X0188447Y0212836D01*
X0188447Y0213708D01*
X0188382Y0213755D01*
X0188288Y0214319D01*
X0187975Y0214633D01*
X0186770Y0214633D01*
X0186770Y0209483D01*
X0187690Y0209483D01*
X0188790Y0208383D01*
X0188790Y0204531D01*
X0187690Y0203431D01*
X0182500Y0203431D01*
X0181400Y0204531D01*
X0181400Y0208383D01*
X0182500Y0209483D01*
X0183170Y0209483D01*
X0183170Y0214633D01*
X0181995Y0214633D01*
X0181995Y0211310D01*
X0181468Y0210783D01*
X0176845Y0210783D01*
X0176845Y0210322D02*
X0183170Y0210322D01*
X0183170Y0210920D02*
X0181605Y0210920D01*
X0181995Y0211519D02*
X0183170Y0211519D01*
X0183170Y0212117D02*
X0181995Y0212117D01*
X0181995Y0212716D02*
X0183170Y0212716D01*
X0183170Y0213314D02*
X0181995Y0213314D01*
X0181995Y0213913D02*
X0183170Y0213913D01*
X0183170Y0214511D02*
X0181995Y0214511D01*
X0181995Y0218233D02*
X0181995Y0222056D01*
X0181468Y0222583D01*
X0176845Y0222583D01*
X0176845Y0249933D01*
X0198845Y0249933D01*
X0198845Y0228933D01*
X0216845Y0228933D01*
X0216845Y0220367D01*
X0197567Y0220367D01*
X0196743Y0221191D01*
X0196743Y0223030D01*
X0196216Y0223557D01*
X0194223Y0223557D01*
X0194082Y0223698D01*
X0193786Y0223869D01*
X0193455Y0223957D01*
X0192640Y0223957D01*
X0192640Y0221127D01*
X0192551Y0221127D01*
X0192551Y0223957D01*
X0191735Y0223957D01*
X0191404Y0223869D01*
X0191108Y0223698D01*
X0190968Y0223557D01*
X0188974Y0223557D01*
X0188447Y0223030D01*
X0188447Y0219135D01*
X0188974Y0218608D01*
X0190968Y0218608D01*
X0191108Y0218468D01*
X0191404Y0218296D01*
X0191735Y0218208D01*
X0192551Y0218208D01*
X0192551Y0221038D01*
X0192640Y0221038D01*
X0192640Y0218208D01*
X0193455Y0218208D01*
X0193786Y0218296D01*
X0194082Y0218468D01*
X0194223Y0218608D01*
X0195932Y0218608D01*
X0196359Y0218181D01*
X0196202Y0217987D01*
X0195895Y0217680D01*
X0195895Y0217608D01*
X0195613Y0217258D01*
X0194092Y0217258D01*
X0193875Y0217040D01*
X0193657Y0217258D01*
X0191533Y0217258D01*
X0191316Y0217040D01*
X0191098Y0217258D01*
X0190441Y0217258D01*
X0189466Y0218233D01*
X0181995Y0218233D01*
X0181995Y0218701D02*
X0188881Y0218701D01*
X0188447Y0219300D02*
X0181995Y0219300D01*
X0181995Y0219898D02*
X0188447Y0219898D01*
X0188447Y0220497D02*
X0181995Y0220497D01*
X0181995Y0221095D02*
X0188447Y0221095D01*
X0188447Y0221694D02*
X0181995Y0221694D01*
X0181759Y0222292D02*
X0188447Y0222292D01*
X0188447Y0222891D02*
X0176845Y0222891D01*
X0176845Y0223489D02*
X0188906Y0223489D01*
X0192551Y0223489D02*
X0192640Y0223489D01*
X0192640Y0222891D02*
X0192551Y0222891D01*
X0192551Y0222292D02*
X0192640Y0222292D01*
X0192640Y0221694D02*
X0192551Y0221694D01*
X0192551Y0220497D02*
X0192640Y0220497D01*
X0192640Y0219898D02*
X0192551Y0219898D01*
X0192551Y0219300D02*
X0192640Y0219300D01*
X0192640Y0218701D02*
X0192551Y0218701D01*
X0190195Y0217504D02*
X0195811Y0217504D01*
X0196295Y0218103D02*
X0189596Y0218103D01*
X0188096Y0214511D02*
X0186770Y0214511D01*
X0186770Y0213913D02*
X0188355Y0213913D01*
X0188447Y0213314D02*
X0186770Y0213314D01*
X0186770Y0212716D02*
X0188567Y0212716D01*
X0186770Y0212117D02*
X0191395Y0212117D01*
X0191395Y0211519D02*
X0186770Y0211519D01*
X0186770Y0210920D02*
X0189938Y0210920D01*
X0189400Y0210322D02*
X0186770Y0210322D01*
X0186770Y0209723D02*
X0189400Y0209723D01*
X0189400Y0209125D02*
X0188048Y0209125D01*
X0188647Y0208526D02*
X0189400Y0208526D01*
X0189400Y0207928D02*
X0188790Y0207928D01*
X0188790Y0207329D02*
X0189400Y0207329D01*
X0189400Y0206731D02*
X0188790Y0206731D01*
X0188790Y0206132D02*
X0189798Y0206132D01*
X0190397Y0205534D02*
X0188790Y0205534D01*
X0188790Y0204935D02*
X0216845Y0204935D01*
X0216845Y0204337D02*
X0196355Y0204337D01*
X0196311Y0204380D02*
X0195792Y0204680D01*
X0195212Y0204835D01*
X0193395Y0204835D01*
X0193395Y0201709D01*
X0197190Y0201709D01*
X0197190Y0202857D01*
X0197035Y0203437D01*
X0196735Y0203956D01*
X0196311Y0204380D01*
X0196861Y0203738D02*
X0216845Y0203738D01*
X0216845Y0203140D02*
X0197115Y0203140D01*
X0197190Y0202541D02*
X0216845Y0202541D01*
X0216845Y0201943D02*
X0197190Y0201943D01*
X0197190Y0201109D02*
X0197190Y0199962D01*
X0197035Y0199382D01*
X0196735Y0198863D01*
X0196311Y0198439D01*
X0195792Y0198139D01*
X0195212Y0197983D01*
X0193395Y0197983D01*
X0193395Y0201109D01*
X0192795Y0201109D01*
X0192795Y0197983D01*
X0190978Y0197983D01*
X0190399Y0198139D01*
X0189879Y0198439D01*
X0189455Y0198863D01*
X0189155Y0199382D01*
X0189067Y0199709D01*
X0185395Y0199709D01*
X0185395Y0199109D01*
X0185395Y0195983D01*
X0187212Y0195983D01*
X0187792Y0196139D01*
X0188311Y0196439D01*
X0188735Y0196863D01*
X0189035Y0197382D01*
X0189190Y0197962D01*
X0189190Y0199109D01*
X0185395Y0199109D01*
X0184795Y0199109D01*
X0184795Y0195983D01*
X0182978Y0195983D01*
X0182399Y0196139D01*
X0181879Y0196439D01*
X0181455Y0196863D01*
X0181155Y0197382D01*
X0181000Y0197962D01*
X0181000Y0199109D01*
X0184795Y0199109D01*
X0184795Y0199709D01*
X0181000Y0199709D01*
X0181000Y0200857D01*
X0181155Y0201437D01*
X0181455Y0201956D01*
X0181879Y0202380D01*
X0182399Y0202680D01*
X0182978Y0202835D01*
X0184795Y0202835D01*
X0184795Y0199709D01*
X0185395Y0199709D01*
X0185395Y0202835D01*
X0187212Y0202835D01*
X0187792Y0202680D01*
X0188311Y0202380D01*
X0188735Y0201956D01*
X0189035Y0201437D01*
X0189123Y0201109D01*
X0192795Y0201109D01*
X0192795Y0201709D01*
X0189000Y0201709D01*
X0189000Y0202857D01*
X0189155Y0203437D01*
X0189455Y0203956D01*
X0189879Y0204380D01*
X0190399Y0204680D01*
X0190978Y0204835D01*
X0192795Y0204835D01*
X0192795Y0201709D01*
X0193395Y0201709D01*
X0193395Y0201109D01*
X0197190Y0201109D01*
X0197190Y0200746D02*
X0216845Y0200746D01*
X0216845Y0201344D02*
X0193395Y0201344D01*
X0193395Y0200746D02*
X0192795Y0200746D01*
X0192795Y0201344D02*
X0189060Y0201344D01*
X0189000Y0201943D02*
X0188743Y0201943D01*
X0189000Y0202541D02*
X0188032Y0202541D01*
X0187998Y0203738D02*
X0189329Y0203738D01*
X0189076Y0203140D02*
X0176845Y0203140D01*
X0176845Y0203738D02*
X0182192Y0203738D01*
X0181594Y0204337D02*
X0176845Y0204337D01*
X0176845Y0204935D02*
X0181400Y0204935D01*
X0181400Y0205534D02*
X0176845Y0205534D01*
X0176845Y0206132D02*
X0181400Y0206132D01*
X0181400Y0206731D02*
X0176845Y0206731D01*
X0176845Y0207329D02*
X0181400Y0207329D01*
X0181400Y0207928D02*
X0176845Y0207928D01*
X0176845Y0208526D02*
X0181544Y0208526D01*
X0182142Y0209125D02*
X0176845Y0209125D01*
X0176845Y0209723D02*
X0183170Y0209723D01*
X0188596Y0204337D02*
X0189836Y0204337D01*
X0192795Y0204337D02*
X0193395Y0204337D01*
X0193395Y0203738D02*
X0192795Y0203738D01*
X0192795Y0203140D02*
X0193395Y0203140D01*
X0193395Y0202541D02*
X0192795Y0202541D01*
X0192795Y0201943D02*
X0193395Y0201943D01*
X0193395Y0200147D02*
X0192795Y0200147D01*
X0192795Y0199549D02*
X0193395Y0199549D01*
X0193395Y0198950D02*
X0192795Y0198950D01*
X0192795Y0198352D02*
X0193395Y0198352D01*
X0196161Y0198352D02*
X0216845Y0198352D01*
X0216845Y0198950D02*
X0196786Y0198950D01*
X0197080Y0199549D02*
X0216845Y0199549D01*
X0216845Y0200147D02*
X0197190Y0200147D01*
X0195793Y0205534D02*
X0216845Y0205534D01*
X0216845Y0206132D02*
X0196392Y0206132D01*
X0196790Y0206731D02*
X0216845Y0206731D01*
X0216845Y0207329D02*
X0196790Y0207329D01*
X0196790Y0207928D02*
X0216845Y0207928D01*
X0216845Y0208526D02*
X0196790Y0208526D01*
X0196790Y0209125D02*
X0216845Y0209125D01*
X0216845Y0209723D02*
X0196790Y0209723D01*
X0196790Y0210322D02*
X0216845Y0210322D01*
X0216845Y0210920D02*
X0196253Y0210920D01*
X0196623Y0212716D02*
X0216845Y0212716D01*
X0216845Y0213314D02*
X0196743Y0213314D01*
X0196743Y0213913D02*
X0216845Y0213913D01*
X0216845Y0214511D02*
X0196743Y0214511D01*
X0196962Y0215110D02*
X0216845Y0215110D01*
X0216845Y0215708D02*
X0197446Y0215708D01*
X0197095Y0217183D02*
X0195154Y0214783D01*
X0192595Y0214783D02*
X0192595Y0208457D01*
X0193095Y0208457D01*
X0193795Y0211519D02*
X0216845Y0211519D01*
X0216845Y0212117D02*
X0193795Y0212117D01*
X0197095Y0217183D02*
X0197111Y0217199D01*
X0224129Y0217199D01*
X0224129Y0219167D02*
X0197070Y0219167D01*
X0195154Y0221083D01*
X0196839Y0221095D02*
X0216845Y0221095D01*
X0216845Y0220497D02*
X0197437Y0220497D01*
X0196743Y0221694D02*
X0216845Y0221694D01*
X0216845Y0222292D02*
X0196743Y0222292D01*
X0196743Y0222891D02*
X0216845Y0222891D01*
X0216845Y0223489D02*
X0196284Y0223489D01*
X0198845Y0229474D02*
X0176845Y0229474D01*
X0176845Y0228876D02*
X0216845Y0228876D01*
X0216845Y0228277D02*
X0176845Y0228277D01*
X0176845Y0227679D02*
X0216845Y0227679D01*
X0216845Y0227080D02*
X0176845Y0227080D01*
X0176845Y0226482D02*
X0216845Y0226482D01*
X0216845Y0225883D02*
X0176845Y0225883D01*
X0176845Y0225285D02*
X0216845Y0225285D01*
X0216845Y0224686D02*
X0176845Y0224686D01*
X0176845Y0224088D02*
X0216845Y0224088D01*
X0224129Y0221136D02*
X0224345Y0220808D01*
X0227470Y0220808D01*
X0232470Y0225808D01*
X0258095Y0225808D01*
X0258095Y0208308D01*
X0258720Y0207683D01*
X0262470Y0207683D01*
X0262562Y0207356D01*
X0267124Y0207356D01*
X0268500Y0208733D01*
X0279690Y0208733D01*
X0279595Y0206578D01*
X0279595Y0201433D01*
X0279345Y0201433D01*
X0284970Y0195808D01*
X0402470Y0195808D01*
X0411845Y0186433D01*
X0412470Y0179683D02*
X0431845Y0199558D01*
X0431845Y0237683D01*
X0431845Y0247683D02*
X0395595Y0211433D01*
X0263095Y0211433D01*
X0262562Y0211293D01*
X0262562Y0213262D02*
X0263095Y0213308D01*
X0390595Y0213308D01*
X0429970Y0252683D01*
X0436845Y0252683D01*
X0441845Y0247683D01*
X0431845Y0257683D02*
X0389345Y0215183D01*
X0263095Y0215183D01*
X0262562Y0215230D01*
X0262562Y0219167D02*
X0265783Y0219167D01*
X0266946Y0217741D01*
X0267254Y0217432D01*
X0267529Y0217094D01*
X0267599Y0217087D01*
X0267649Y0217038D01*
X0268085Y0217038D01*
X0268518Y0216994D01*
X0268573Y0217038D01*
X0275260Y0217038D01*
X0275267Y0217031D01*
X0275755Y0217038D01*
X0276245Y0217038D01*
X0280403Y0217096D01*
X0283045Y0219738D01*
X0283045Y0243180D01*
X0282342Y0243883D01*
X0247450Y0243883D01*
X0247450Y0253358D01*
X0256717Y0253358D01*
X0258045Y0254686D01*
X0258045Y0268378D01*
X0249053Y0277370D01*
X0220283Y0277370D01*
X0164970Y0332683D01*
X0168095Y0335808D01*
X0168095Y0360183D01*
X0161220Y0367058D01*
X0161220Y0421433D01*
X0166845Y0421433D01*
X0159970Y0425808D02*
X0206845Y0425808D01*
X0218095Y0414558D01*
X0225595Y0414558D01*
X0225595Y0417683D01*
X0225095Y0418051D01*
X0225595Y0414558D02*
X0225595Y0398933D01*
X0228095Y0398933D01*
X0228369Y0398433D01*
X0237345Y0398433D01*
X0237345Y0399409D01*
X0238720Y0395808D02*
X0239970Y0395808D01*
X0241220Y0397058D01*
X0241220Y0406433D01*
X0241845Y0406433D01*
X0241845Y0442058D01*
X0229970Y0453933D01*
X0189345Y0453933D01*
X0166845Y0431433D01*
X0159970Y0425808D02*
X0159970Y0454558D01*
X0166845Y0461433D01*
X0221220Y0461433D01*
X0221845Y0462058D01*
X0228095Y0462058D01*
X0229970Y0460183D01*
X0359970Y0460183D01*
X0359970Y0467058D01*
X0365595Y0472683D01*
X0364605Y0473433D01*
X0364970Y0473308D01*
X0365595Y0472683D01*
X0368095Y0470183D01*
X0445595Y0470183D01*
X0445595Y0420183D02*
X0441845Y0420183D01*
X0441845Y0409558D01*
X0441822Y0409183D01*
X0448869Y0409183D02*
X0449345Y0408933D01*
X0449345Y0401433D01*
X0448855Y0401183D01*
X0448720Y0400808D01*
X0416845Y0368933D01*
X0361845Y0368933D01*
X0361703Y0368596D01*
X0361845Y0368308D01*
X0361845Y0333308D01*
X0361703Y0332770D01*
X0361845Y0332683D01*
X0361845Y0323933D01*
X0344345Y0333308D02*
X0343987Y0332770D01*
X0343720Y0332683D01*
X0314595Y0332683D01*
X0314345Y0332683D01*
X0314595Y0332683D02*
X0314595Y0338433D01*
X0312869Y0338433D01*
X0312869Y0342933D01*
X0312470Y0343308D01*
X0312470Y0358933D01*
X0282470Y0358933D01*
X0278720Y0360183D02*
X0278720Y0355183D01*
X0298095Y0355183D01*
X0301845Y0351433D01*
X0302119Y0351433D01*
X0301845Y0351433D02*
X0301845Y0347058D01*
X0299970Y0347058D01*
X0299918Y0347005D01*
X0299795Y0347128D01*
X0295943Y0347128D01*
X0294843Y0346028D01*
X0294843Y0340838D01*
X0294845Y0340836D01*
X0294845Y0338433D01*
X0286119Y0338433D01*
X0286119Y0335433D01*
X0280595Y0331433D02*
X0283095Y0328933D01*
X0283355Y0327433D01*
X0283355Y0328972D01*
X0293577Y0328972D01*
X0293577Y0327280D02*
X0286066Y0327280D01*
X0286066Y0324874D01*
X0285008Y0323817D01*
X0281702Y0323817D01*
X0278239Y0327280D01*
X0275989Y0327280D01*
X0275835Y0327433D01*
X0274345Y0331433D02*
X0280595Y0331433D01*
X0279072Y0335433D02*
X0278845Y0335433D01*
X0278845Y0343433D01*
X0278720Y0343308D01*
X0276220Y0345808D01*
X0239345Y0382683D01*
X0231220Y0382683D01*
X0228095Y0385808D01*
X0228095Y0386183D01*
X0228369Y0386183D01*
X0228369Y0398433D01*
X0221322Y0398433D02*
X0221220Y0398933D01*
X0221220Y0407683D01*
X0221355Y0407815D01*
X0228835Y0407815D02*
X0237345Y0407815D01*
X0237345Y0406457D01*
X0237470Y0406433D01*
X0241220Y0406433D01*
X0238720Y0395808D02*
X0238720Y0386433D01*
X0238345Y0386183D01*
X0238720Y0385808D01*
X0263095Y0385808D01*
X0283720Y0365183D01*
X0292470Y0373933D01*
X0414345Y0373933D01*
X0441220Y0400808D01*
X0441335Y0401183D01*
X0472470Y0327683D02*
X0473085Y0327683D01*
X0472470Y0327683D02*
X0464970Y0320183D01*
X0315595Y0320183D01*
X0308095Y0312683D01*
X0264970Y0312683D01*
X0217470Y0312683D01*
X0162470Y0367683D01*
X0162470Y0391433D01*
X0166845Y0391433D01*
X0166845Y0371433D02*
X0212470Y0325808D01*
X0268720Y0325808D01*
X0274345Y0331433D01*
X0277182Y0323050D02*
X0275565Y0321433D01*
X0213720Y0321433D01*
X0243845Y0274183D02*
X0239540Y0269878D01*
X0238193Y0269878D01*
X0234498Y0266183D01*
X0233072Y0266183D01*
X0232470Y0265808D01*
X0221845Y0265808D01*
X0221845Y0248433D01*
X0221072Y0248433D01*
X0221248Y0248433D01*
X0226826Y0242855D01*
X0234487Y0242855D01*
X0234487Y0237400D01*
X0234345Y0237058D01*
X0234345Y0227683D01*
X0232470Y0225808D01*
X0227470Y0220808D02*
X0228720Y0219558D01*
X0228720Y0215183D01*
X0234345Y0215183D01*
X0234345Y0199558D01*
X0234487Y0198967D01*
X0234487Y0194933D01*
X0230572Y0194933D01*
X0230572Y0188683D01*
X0232470Y0188683D01*
X0232470Y0184558D01*
X0241845Y0184558D01*
X0241845Y0198933D01*
X0242361Y0198967D01*
X0240595Y0199558D02*
X0240595Y0208933D01*
X0240595Y0222058D01*
X0240595Y0229558D02*
X0240595Y0232058D01*
X0238720Y0232058D01*
X0238720Y0237058D01*
X0238424Y0237400D01*
X0240392Y0237400D02*
X0240595Y0237058D01*
X0240595Y0233308D01*
X0245595Y0233308D01*
X0246220Y0233933D01*
X0246220Y0237058D01*
X0246298Y0237400D01*
X0246220Y0237683D01*
X0246220Y0254558D01*
X0256220Y0254558D01*
X0256845Y0255183D01*
X0256845Y0265808D01*
X0254970Y0265808D01*
X0254619Y0266183D01*
X0253193Y0266183D01*
X0249497Y0269878D01*
X0248150Y0269878D01*
X0243845Y0274183D01*
X0244329Y0266183D02*
X0244329Y0257711D01*
X0252129Y0257711D01*
X0244329Y0257711D02*
X0244329Y0237400D01*
X0242361Y0237400D02*
X0242361Y0249183D01*
X0237562Y0249183D01*
X0237562Y0248656D01*
X0242361Y0249183D02*
X0242361Y0266183D01*
X0240119Y0266183D01*
X0244329Y0266183D02*
X0247572Y0266183D01*
X0250595Y0242683D02*
X0248720Y0240808D01*
X0248720Y0237683D01*
X0248266Y0237400D01*
X0248095Y0237058D01*
X0248095Y0233933D01*
X0246220Y0232058D01*
X0240595Y0232058D01*
X0236455Y0237400D02*
X0236455Y0242584D01*
X0234984Y0244055D01*
X0232497Y0244055D01*
X0228119Y0248433D01*
X0250595Y0242683D02*
X0281845Y0242683D01*
X0281845Y0221933D01*
X0279619Y0221933D01*
X0275693Y0222183D01*
X0275747Y0218238D01*
X0268146Y0218238D01*
X0267046Y0219588D01*
X0267046Y0225073D01*
X0262562Y0225073D01*
X0263095Y0225183D01*
X0262562Y0227041D02*
X0269907Y0227041D01*
X0270072Y0226877D01*
X0272572Y0221933D01*
X0272470Y0228933D02*
X0263095Y0228933D01*
X0262562Y0229010D01*
X0262470Y0227058D02*
X0262562Y0227041D01*
X0262470Y0227058D02*
X0259345Y0227058D01*
X0258095Y0225808D01*
X0256220Y0231433D02*
X0262470Y0231433D01*
X0262562Y0230978D01*
X0259970Y0235183D02*
X0258095Y0237058D01*
X0258109Y0237400D01*
X0256220Y0237683D02*
X0256140Y0237400D01*
X0256220Y0237683D02*
X0256220Y0241433D01*
X0259345Y0241433D01*
X0261845Y0238933D01*
X0259970Y0235183D02*
X0273720Y0235183D01*
X0278095Y0230808D01*
X0253720Y0233933D02*
X0251220Y0231433D01*
X0250595Y0231433D01*
X0253720Y0233933D02*
X0253720Y0237058D01*
X0254172Y0237400D01*
X0255595Y0208933D02*
X0240595Y0208933D01*
X0246220Y0205183D02*
X0246220Y0199558D01*
X0246298Y0198967D01*
X0244345Y0198933D02*
X0244329Y0198967D01*
X0244345Y0198933D02*
X0244345Y0192683D01*
X0245595Y0192683D01*
X0248720Y0194558D02*
X0251845Y0191433D01*
X0366845Y0191433D01*
X0367095Y0191183D01*
X0367095Y0180883D01*
X0381845Y0180883D01*
X0381845Y0186433D01*
X0374845Y0189433D02*
X0374845Y0194558D01*
X0373345Y0194558D01*
X0250595Y0194558D01*
X0250595Y0198933D01*
X0250235Y0198967D01*
X0248720Y0198933D02*
X0248266Y0198967D01*
X0248720Y0198933D02*
X0248720Y0194558D01*
X0240392Y0198967D02*
X0240595Y0199558D01*
X0238424Y0198967D02*
X0236455Y0198967D01*
X0237619Y0198967D01*
X0237619Y0188683D01*
X0234487Y0194598D02*
X0234487Y0194933D01*
X0219970Y0183308D02*
X0283720Y0183308D01*
X0285595Y0185183D01*
X0356220Y0185183D01*
X0359720Y0179683D01*
X0412470Y0179683D01*
X0374845Y0189433D02*
X0371845Y0186433D01*
X0373345Y0194558D02*
X0373720Y0194558D01*
X0310595Y0171433D02*
X0310595Y0156443D01*
X0279595Y0201183D02*
X0273345Y0201183D01*
X0273345Y0198659D01*
X0266220Y0198659D01*
X0262845Y0198659D01*
X0262845Y0197933D01*
X0266220Y0198659D02*
X0266220Y0203933D01*
X0263095Y0203933D01*
X0262562Y0203419D01*
X0262562Y0205388D02*
X0271095Y0205388D01*
X0273345Y0205707D01*
X0279595Y0201433D02*
X0279595Y0201183D01*
X0263095Y0207058D02*
X0262562Y0207356D01*
X0262470Y0205808D02*
X0262562Y0205388D01*
X0262470Y0205808D02*
X0258720Y0205808D01*
X0255595Y0208933D01*
X0228720Y0215183D02*
X0224345Y0215183D01*
X0224129Y0215230D01*
X0224345Y0215183D02*
X0224345Y0213308D01*
X0224129Y0213262D01*
X0224129Y0211293D02*
X0223720Y0210808D01*
X0220595Y0210808D01*
X0219970Y0210183D01*
X0219970Y0183308D01*
X0216845Y0183389D02*
X0176845Y0183389D01*
X0176845Y0183987D02*
X0216845Y0183987D01*
X0216845Y0184586D02*
X0176845Y0184586D01*
X0176845Y0185184D02*
X0216845Y0185184D01*
X0216845Y0185783D02*
X0176845Y0185783D01*
X0176845Y0186381D02*
X0216845Y0186381D01*
X0216845Y0186980D02*
X0176845Y0186980D01*
X0176845Y0187578D02*
X0216845Y0187578D01*
X0216845Y0188177D02*
X0176845Y0188177D01*
X0176845Y0188775D02*
X0216845Y0188775D01*
X0216845Y0189374D02*
X0176845Y0189374D01*
X0176845Y0189972D02*
X0216845Y0189972D01*
X0216845Y0190571D02*
X0176845Y0190571D01*
X0176845Y0191170D02*
X0216845Y0191170D01*
X0216845Y0191768D02*
X0176845Y0191768D01*
X0176845Y0192367D02*
X0216845Y0192367D01*
X0216845Y0192965D02*
X0176845Y0192965D01*
X0176845Y0193564D02*
X0216845Y0193564D01*
X0216845Y0194162D02*
X0176845Y0194162D01*
X0176845Y0194761D02*
X0216845Y0194761D01*
X0216845Y0195359D02*
X0176845Y0195359D01*
X0176845Y0195958D02*
X0216845Y0195958D01*
X0216845Y0196556D02*
X0188429Y0196556D01*
X0188904Y0197155D02*
X0216845Y0197155D01*
X0216845Y0197753D02*
X0189135Y0197753D01*
X0189190Y0198352D02*
X0190030Y0198352D01*
X0189405Y0198950D02*
X0189190Y0198950D01*
X0189110Y0199549D02*
X0185395Y0199549D01*
X0185395Y0200147D02*
X0184795Y0200147D01*
X0184795Y0199549D02*
X0176845Y0199549D01*
X0176845Y0200147D02*
X0181000Y0200147D01*
X0181000Y0200746D02*
X0176845Y0200746D01*
X0176845Y0201344D02*
X0181130Y0201344D01*
X0181447Y0201943D02*
X0176845Y0201943D01*
X0176845Y0202541D02*
X0182158Y0202541D01*
X0184795Y0202541D02*
X0185395Y0202541D01*
X0185395Y0201943D02*
X0184795Y0201943D01*
X0184795Y0201344D02*
X0185395Y0201344D01*
X0185395Y0200746D02*
X0184795Y0200746D01*
X0184795Y0198950D02*
X0185395Y0198950D01*
X0185395Y0198352D02*
X0184795Y0198352D01*
X0184795Y0197753D02*
X0185395Y0197753D01*
X0185395Y0197155D02*
X0184795Y0197155D01*
X0184795Y0196556D02*
X0185395Y0196556D01*
X0181762Y0196556D02*
X0176845Y0196556D01*
X0176845Y0197155D02*
X0181286Y0197155D01*
X0181056Y0197753D02*
X0176845Y0197753D01*
X0176845Y0198352D02*
X0181000Y0198352D01*
X0181000Y0198950D02*
X0176845Y0198950D01*
X0176845Y0182790D02*
X0216845Y0182790D01*
X0216845Y0182192D02*
X0176845Y0182192D01*
X0176845Y0181593D02*
X0216845Y0181593D01*
X0216845Y0180995D02*
X0176845Y0180995D01*
X0176845Y0180396D02*
X0216845Y0180396D01*
X0216845Y0179798D02*
X0176845Y0179798D01*
X0176845Y0179199D02*
X0216845Y0179199D01*
X0216845Y0178601D02*
X0176845Y0178601D01*
X0176845Y0178002D02*
X0216845Y0178002D01*
X0216845Y0177404D02*
X0176845Y0177404D01*
X0176845Y0176805D02*
X0216845Y0176805D01*
X0198845Y0230073D02*
X0176845Y0230073D01*
X0176845Y0230671D02*
X0198845Y0230671D01*
X0198845Y0231270D02*
X0176845Y0231270D01*
X0176845Y0231868D02*
X0198845Y0231868D01*
X0198845Y0232467D02*
X0176845Y0232467D01*
X0176845Y0233065D02*
X0198845Y0233065D01*
X0198845Y0233664D02*
X0176845Y0233664D01*
X0176845Y0234262D02*
X0198845Y0234262D01*
X0198845Y0234861D02*
X0176845Y0234861D01*
X0176845Y0235459D02*
X0198845Y0235459D01*
X0198845Y0236058D02*
X0176845Y0236058D01*
X0176845Y0236656D02*
X0198845Y0236656D01*
X0198845Y0237255D02*
X0176845Y0237255D01*
X0176845Y0237853D02*
X0198845Y0237853D01*
X0198845Y0238452D02*
X0176845Y0238452D01*
X0176845Y0239050D02*
X0198845Y0239050D01*
X0198845Y0239649D02*
X0176845Y0239649D01*
X0176845Y0240247D02*
X0198845Y0240247D01*
X0198845Y0240846D02*
X0176845Y0240846D01*
X0176845Y0241444D02*
X0198845Y0241444D01*
X0198845Y0242043D02*
X0176845Y0242043D01*
X0176845Y0242641D02*
X0198845Y0242641D01*
X0198845Y0243240D02*
X0176845Y0243240D01*
X0176845Y0243839D02*
X0198845Y0243839D01*
X0198845Y0244437D02*
X0176845Y0244437D01*
X0176845Y0245036D02*
X0198845Y0245036D01*
X0198845Y0245634D02*
X0176845Y0245634D01*
X0176845Y0246233D02*
X0198845Y0246233D01*
X0198845Y0246831D02*
X0176845Y0246831D01*
X0176845Y0247430D02*
X0198845Y0247430D01*
X0198845Y0248028D02*
X0176845Y0248028D01*
X0176845Y0248627D02*
X0198845Y0248627D01*
X0198845Y0249225D02*
X0176845Y0249225D01*
X0176845Y0249824D02*
X0198845Y0249824D01*
X0134970Y0321433D02*
X0134355Y0321433D01*
X0134970Y0321433D02*
X0146220Y0332683D01*
X0164970Y0332683D01*
X0277182Y0323050D02*
X0280489Y0323050D01*
X0284105Y0319433D01*
X0286355Y0319433D01*
X0287595Y0319683D01*
X0287595Y0325683D01*
X0293577Y0325683D01*
X0293577Y0325587D01*
X0293720Y0327058D02*
X0293577Y0327280D01*
X0293720Y0327058D02*
X0296845Y0327058D01*
X0299345Y0327058D01*
X0299345Y0319558D01*
X0299306Y0319150D01*
X0299595Y0319150D01*
X0299595Y0314433D01*
X0288508Y0314433D01*
X0288008Y0314567D01*
X0289095Y0317153D01*
X0289095Y0323933D01*
X0293577Y0323933D01*
X0293577Y0323894D01*
X0296845Y0327058D02*
X0299345Y0329558D01*
X0299345Y0333308D01*
X0299306Y0333717D01*
X0299345Y0333933D01*
X0300595Y0333933D01*
X0300999Y0333717D01*
X0300895Y0333820D01*
X0300895Y0346028D01*
X0299918Y0347005D01*
X0297869Y0343433D02*
X0297613Y0343433D01*
X0297613Y0333717D01*
X0295920Y0333717D02*
X0295845Y0333717D01*
X0295845Y0338433D01*
X0294845Y0338433D01*
X0291595Y0343433D02*
X0291595Y0351433D01*
X0295072Y0351433D01*
X0291595Y0351433D02*
X0288369Y0351433D01*
X0281322Y0351433D02*
X0278720Y0351433D01*
X0278720Y0355183D01*
X0278720Y0360183D02*
X0283720Y0365183D01*
X0278845Y0343433D02*
X0290822Y0343433D01*
X0291595Y0343433D01*
X0302692Y0342933D02*
X0302692Y0333717D01*
X0304385Y0333717D02*
X0304385Y0338433D01*
X0306077Y0338433D01*
X0306077Y0333717D01*
X0307770Y0333717D02*
X0307770Y0338433D01*
X0306077Y0338433D01*
X0307770Y0338433D02*
X0312869Y0338433D01*
X0314595Y0332683D02*
X0314595Y0328972D01*
X0314595Y0328933D01*
X0314595Y0328972D02*
X0310113Y0328972D01*
X0310113Y0327280D01*
X0310113Y0325587D01*
X0310113Y0323894D01*
X0307770Y0319150D02*
X0307770Y0314433D01*
X0299595Y0314433D01*
X0299306Y0319150D02*
X0297613Y0319150D01*
X0295920Y0319150D01*
X0288008Y0314567D02*
X0284702Y0314567D01*
X0281085Y0319683D01*
X0278835Y0319433D01*
X0302692Y0342933D02*
X0305822Y0342933D01*
X0343987Y0368596D02*
X0344345Y0368308D01*
X0344345Y0333308D01*
X0356093Y0466183D02*
X0356220Y0466433D01*
X0356220Y0473308D01*
X0356845Y0473308D01*
X0357085Y0473433D01*
X0364345Y0473308D02*
X0364605Y0473433D01*
X0293095Y0485808D02*
X0293095Y0496423D01*
X0227470Y0472683D02*
X0227470Y0465183D01*
X0227347Y0465183D01*
X0221845Y0467683D02*
X0221845Y0462058D01*
X0221845Y0467683D02*
X0221220Y0468308D01*
X0219970Y0468308D01*
X0219970Y0472683D01*
X0219835Y0472933D01*
X0227355Y0472933D02*
X0227470Y0472683D01*
D36*
X0210345Y0470183D03*
X0213345Y0424183D03*
X0228095Y0386183D03*
X0238345Y0386183D03*
X0146845Y0336433D03*
X0142095Y0320433D03*
X0181595Y0227683D03*
X0189095Y0227683D03*
X0196345Y0227683D03*
X0201095Y0224433D03*
X0207595Y0224433D03*
X0214345Y0224433D03*
X0214345Y0213183D03*
X0207595Y0213183D03*
X0200845Y0213183D03*
X0200845Y0207433D03*
X0203595Y0202183D03*
X0200595Y0196933D03*
X0195845Y0192683D03*
X0188345Y0192683D03*
X0180845Y0192683D03*
X0243845Y0274183D03*
X0287095Y0165933D03*
X0316845Y0165683D03*
X0456845Y0316433D03*
X0458095Y0339183D03*
X0314845Y0484933D03*
X0288095Y0483433D03*
D37*
X0293095Y0485808D03*
X0238095Y0423308D03*
X0290095Y0408683D03*
X0282470Y0358933D03*
X0276220Y0345808D03*
X0268720Y0325808D03*
X0264970Y0312683D03*
X0213720Y0321433D03*
X0261845Y0238933D03*
X0256220Y0231433D03*
X0250595Y0231433D03*
X0240595Y0229558D03*
X0240595Y0222058D03*
X0246220Y0205183D03*
X0245595Y0192683D03*
X0262845Y0197933D03*
X0272470Y0228933D03*
X0278095Y0230808D03*
X0310595Y0171433D03*
X0361845Y0323933D03*
D38*
X0441845Y0312058D02*
X0441845Y0311650D01*
X0441845Y0312058D02*
X0446220Y0316433D01*
X0456845Y0316433D01*
X0457470Y0315808D01*
X0467470Y0315808D01*
X0469970Y0313308D01*
X0470595Y0312909D01*
X0470595Y0312683D01*
X0479345Y0312683D01*
X0479345Y0312673D01*
X0479970Y0312683D01*
X0489970Y0312683D01*
X0490349Y0312693D01*
X0490349Y0320173D02*
X0489970Y0320183D01*
X0479970Y0320183D01*
X0479345Y0320193D01*
X0478720Y0320183D01*
X0470595Y0320183D01*
X0470595Y0319957D01*
X0479345Y0320193D02*
X0479345Y0327683D01*
X0480605Y0327683D01*
X0490290Y0330183D02*
X0490595Y0330183D01*
X0501845Y0318933D01*
X0501845Y0316433D01*
X0502259Y0316433D01*
X0502470Y0319558D01*
X0520595Y0319558D01*
X0521845Y0320808D01*
X0521845Y0321059D01*
X0521845Y0332683D02*
X0506220Y0332683D01*
X0503720Y0330183D01*
X0503400Y0330183D01*
X0503095Y0330808D01*
X0495595Y0338308D01*
X0458720Y0338308D01*
X0458095Y0339183D01*
X0458095Y0338933D01*
X0444345Y0338933D01*
X0441845Y0336433D01*
X0441845Y0336217D01*
X0521845Y0332870D02*
X0521845Y0332683D01*
X0368095Y0411433D02*
X0311845Y0411433D01*
X0311845Y0410933D01*
X0314345Y0466433D02*
X0314379Y0466433D01*
X0314345Y0466433D02*
X0314345Y0484558D01*
X0314845Y0484933D01*
X0314970Y0485808D01*
X0314970Y0495808D01*
X0314119Y0496433D01*
X0314345Y0496433D01*
X0314345Y0505183D01*
X0314355Y0505183D01*
X0314345Y0505808D01*
X0314345Y0514558D01*
X0314335Y0514937D01*
X0306855Y0514937D02*
X0306845Y0514558D01*
X0306845Y0505808D01*
X0306835Y0505183D01*
X0306845Y0504558D01*
X0306845Y0496433D01*
X0307072Y0496433D01*
X0306835Y0505183D02*
X0293720Y0505183D01*
X0293095Y0504558D01*
X0293095Y0503943D01*
X0293095Y0516128D02*
X0293095Y0516433D01*
X0303095Y0526433D01*
X0310595Y0526433D01*
X0310595Y0526846D01*
X0307470Y0527058D01*
X0307470Y0547683D01*
X0307219Y0547683D01*
X0295408Y0547683D02*
X0293095Y0547683D01*
X0293095Y0529238D01*
X0292470Y0528933D01*
X0292470Y0520183D01*
X0291220Y0520183D01*
X0288720Y0517683D01*
X0288720Y0483933D01*
X0288095Y0483433D01*
X0288095Y0483308D01*
X0289345Y0483308D01*
X0289345Y0466433D01*
X0289812Y0466433D01*
X0238095Y0423308D02*
X0232470Y0423308D01*
X0228720Y0427058D01*
X0228619Y0427183D01*
X0228720Y0422058D02*
X0221220Y0422058D01*
X0221220Y0418308D01*
X0221355Y0418051D01*
X0221220Y0422058D02*
X0221220Y0423933D01*
X0213720Y0423933D01*
X0213345Y0424183D01*
X0221220Y0423933D02*
X0221220Y0427058D01*
X0221572Y0427183D01*
X0228720Y0422058D02*
X0228720Y0418308D01*
X0228835Y0418051D01*
X0218095Y0465183D02*
X0213095Y0470183D01*
X0210345Y0470183D01*
X0161845Y0339967D02*
X0161845Y0339558D01*
X0158720Y0336433D01*
X0146845Y0336433D01*
X0146220Y0337058D01*
X0138720Y0337058D01*
X0136220Y0339558D01*
X0135595Y0340193D01*
X0135595Y0340183D01*
X0126845Y0340183D01*
X0126845Y0339957D01*
X0126220Y0340183D01*
X0116220Y0340183D01*
X0115841Y0340173D01*
X0115841Y0332693D02*
X0116220Y0332683D01*
X0126220Y0332683D01*
X0126845Y0332909D01*
X0127470Y0332683D01*
X0135595Y0332683D01*
X0135595Y0332673D01*
X0126845Y0332909D02*
X0126845Y0321433D01*
X0126835Y0321433D01*
X0139345Y0317058D02*
X0141845Y0319558D01*
X0142095Y0320433D01*
X0142470Y0320183D01*
X0157470Y0320183D01*
X0161845Y0315808D01*
X0161845Y0315400D01*
X0139345Y0317058D02*
X0107470Y0317058D01*
X0103720Y0313308D01*
X0103095Y0312378D01*
X0103095Y0312683D01*
X0094970Y0320808D01*
X0086845Y0320808D01*
X0086845Y0321246D01*
X0086845Y0333057D02*
X0086845Y0333308D01*
X0102470Y0333308D01*
X0103932Y0336433D01*
X0103095Y0336433D01*
X0103095Y0325488D01*
X0179095Y0216683D02*
X0179345Y0216433D01*
X0184970Y0216433D01*
X0184970Y0207058D01*
X0185095Y0206457D01*
X0190036Y0214783D02*
X0189970Y0215183D01*
X0188720Y0216433D01*
X0184970Y0216433D01*
X0289345Y0178933D02*
X0289345Y0166433D01*
X0287095Y0165933D01*
X0287470Y0165808D01*
X0288720Y0165808D01*
X0288720Y0157058D01*
X0289572Y0156433D01*
X0289345Y0156433D01*
X0289345Y0147683D01*
X0289335Y0147683D01*
X0289345Y0147058D01*
X0289345Y0137058D01*
X0289355Y0136679D01*
X0296835Y0136679D02*
X0296845Y0137058D01*
X0296845Y0147058D01*
X0296855Y0147683D01*
X0297470Y0148933D01*
X0310595Y0148933D01*
X0310595Y0148923D01*
X0310595Y0145183D02*
X0313095Y0145183D01*
X0316845Y0148933D01*
X0316845Y0165683D01*
X0316845Y0166433D01*
X0314970Y0166433D01*
X0314970Y0178933D01*
X0314379Y0179183D01*
X0296845Y0156433D02*
X0296619Y0156433D01*
X0296845Y0156433D02*
X0296845Y0147683D01*
X0296855Y0147683D01*
X0310595Y0145183D02*
X0310595Y0136738D01*
X0311220Y0136433D01*
X0313720Y0136433D01*
X0313720Y0120808D01*
X0312470Y0119558D01*
X0307470Y0119558D01*
X0307470Y0106433D01*
X0307032Y0106433D01*
X0295595Y0106433D02*
X0295221Y0106433D01*
X0295595Y0106433D02*
X0295595Y0123933D01*
X0293095Y0124770D01*
X0293095Y0124558D01*
X0309970Y0124558D01*
X0310595Y0123933D01*
X0310595Y0123628D01*
X0289345Y0178933D02*
X0289812Y0179183D01*
X0368095Y0411433D02*
X0368095Y0463308D01*
X0365595Y0465808D01*
X0365345Y0466183D01*
M02*
