G75*
%MOIN*%
%OFA0B0*%
%FSLAX25Y25*%
%IPPOS*%
%LPD*%
%AMOC8*
5,1,8,0,0,1.08239X$1,22.5*
%
%ADD10C,0.06312*%
%ADD11C,0.06737*%
%ADD12C,0.00039*%
%ADD13R,0.08200X0.08200*%
%ADD14OC8,0.08200*%
%ADD15C,0.08200*%
%ADD16R,0.03300X0.05800*%
%ADD17R,0.02965X0.05524*%
%ADD18C,0.05300*%
%ADD19C,0.06162*%
D10*
X0262908Y0229359D03*
X0320782Y0229359D03*
X0320782Y0324241D03*
X0262908Y0324241D03*
D11*
X0291845Y0331331D02*
X0291845Y0337269D01*
X0301845Y0337269D02*
X0301845Y0331331D01*
D12*
X0270957Y0364293D02*
X0270839Y0364193D01*
X0267398Y0364193D01*
X0267399Y0364193D02*
X0267530Y0364112D01*
X0267673Y0364053D01*
X0267823Y0364017D01*
X0270260Y0364005D01*
X0270414Y0364017D01*
X0270565Y0364053D01*
X0270707Y0364112D01*
X0270839Y0364193D01*
X0270884Y0364231D02*
X0267354Y0364231D01*
X0267310Y0364268D02*
X0270928Y0364268D01*
X0270957Y0364293D02*
X0271057Y0364411D01*
X0271138Y0364542D01*
X0271197Y0364685D01*
X0267041Y0364685D01*
X0267100Y0364542D01*
X0267181Y0364411D01*
X0267281Y0364293D01*
X0267399Y0364193D01*
X0267460Y0364155D02*
X0270777Y0364155D01*
X0270716Y0364117D02*
X0267522Y0364117D01*
X0267609Y0364079D02*
X0270628Y0364079D01*
X0270516Y0364041D02*
X0267721Y0364041D01*
X0267269Y0364306D02*
X0270968Y0364306D01*
X0271000Y0364344D02*
X0267237Y0364344D01*
X0267205Y0364382D02*
X0271033Y0364382D01*
X0271063Y0364420D02*
X0267175Y0364420D01*
X0267152Y0364458D02*
X0271086Y0364458D01*
X0271109Y0364496D02*
X0267128Y0364496D01*
X0267105Y0364534D02*
X0271132Y0364534D01*
X0271150Y0364572D02*
X0267088Y0364572D01*
X0267072Y0364609D02*
X0271166Y0364609D01*
X0271181Y0364647D02*
X0267056Y0364647D01*
X0267041Y0364685D02*
X0267005Y0364835D01*
X0266993Y0364989D01*
X0266993Y0368611D01*
X0267005Y0368765D01*
X0267041Y0368915D01*
X0267100Y0369058D01*
X0267181Y0369189D01*
X0267281Y0369307D01*
X0267399Y0369407D01*
X0267530Y0369488D01*
X0267673Y0369547D01*
X0267823Y0369583D01*
X0267977Y0369595D01*
X0270414Y0369583D01*
X0270565Y0369547D01*
X0270707Y0369488D01*
X0270839Y0369407D01*
X0270957Y0369307D01*
X0267281Y0369307D01*
X0267248Y0369269D02*
X0270989Y0369269D01*
X0271021Y0369231D02*
X0267216Y0369231D01*
X0267184Y0369193D02*
X0271054Y0369193D01*
X0271057Y0369189D02*
X0270957Y0369307D01*
X0270913Y0369345D02*
X0267325Y0369345D01*
X0267369Y0369382D02*
X0270868Y0369382D01*
X0270818Y0369420D02*
X0267420Y0369420D01*
X0267481Y0369458D02*
X0270756Y0369458D01*
X0270688Y0369496D02*
X0267549Y0369496D01*
X0267641Y0369534D02*
X0270597Y0369534D01*
X0270461Y0369572D02*
X0267776Y0369572D01*
X0267160Y0369155D02*
X0271078Y0369155D01*
X0271057Y0369189D02*
X0271138Y0369058D01*
X0271197Y0368915D01*
X0271233Y0368765D01*
X0271245Y0368611D01*
X0271245Y0366800D01*
X0271245Y0364989D01*
X0271233Y0364835D01*
X0271197Y0364685D01*
X0271206Y0364723D02*
X0267032Y0364723D01*
X0267023Y0364761D02*
X0271215Y0364761D01*
X0271224Y0364799D02*
X0267014Y0364799D01*
X0267005Y0364837D02*
X0271233Y0364837D01*
X0271236Y0364875D02*
X0267002Y0364875D01*
X0266999Y0364912D02*
X0271239Y0364912D01*
X0271242Y0364950D02*
X0266996Y0364950D01*
X0266993Y0364988D02*
X0271245Y0364988D01*
X0271245Y0365026D02*
X0266993Y0365026D01*
X0266993Y0365064D02*
X0271245Y0365064D01*
X0271245Y0365102D02*
X0266993Y0365102D01*
X0266993Y0365140D02*
X0271245Y0365140D01*
X0271245Y0365178D02*
X0266993Y0365178D01*
X0266993Y0365216D02*
X0271245Y0365216D01*
X0271245Y0365253D02*
X0266993Y0365253D01*
X0266993Y0365291D02*
X0271245Y0365291D01*
X0271245Y0365329D02*
X0266993Y0365329D01*
X0266993Y0365367D02*
X0271245Y0365367D01*
X0271245Y0365405D02*
X0266993Y0365405D01*
X0266993Y0365443D02*
X0271245Y0365443D01*
X0271245Y0365481D02*
X0266993Y0365481D01*
X0266993Y0365519D02*
X0271245Y0365519D01*
X0271245Y0365556D02*
X0266993Y0365556D01*
X0266993Y0365594D02*
X0271245Y0365594D01*
X0271245Y0365632D02*
X0266993Y0365632D01*
X0266993Y0365670D02*
X0271245Y0365670D01*
X0271245Y0365708D02*
X0266993Y0365708D01*
X0266993Y0365746D02*
X0271245Y0365746D01*
X0271245Y0365784D02*
X0266993Y0365784D01*
X0266993Y0365822D02*
X0271245Y0365822D01*
X0271245Y0365860D02*
X0266993Y0365860D01*
X0266993Y0365897D02*
X0271245Y0365897D01*
X0271245Y0365935D02*
X0266993Y0365935D01*
X0266993Y0365973D02*
X0271245Y0365973D01*
X0271245Y0366011D02*
X0266993Y0366011D01*
X0266993Y0366049D02*
X0271245Y0366049D01*
X0271245Y0366087D02*
X0266993Y0366087D01*
X0266993Y0366125D02*
X0271245Y0366125D01*
X0271245Y0366163D02*
X0266993Y0366163D01*
X0266993Y0366200D02*
X0271245Y0366200D01*
X0271245Y0366238D02*
X0266993Y0366238D01*
X0266993Y0366276D02*
X0271245Y0366276D01*
X0271245Y0366314D02*
X0266993Y0366314D01*
X0266993Y0366352D02*
X0271245Y0366352D01*
X0271245Y0366390D02*
X0266993Y0366390D01*
X0266993Y0366428D02*
X0271245Y0366428D01*
X0271245Y0366466D02*
X0266993Y0366466D01*
X0266993Y0366503D02*
X0271245Y0366503D01*
X0271245Y0366541D02*
X0266993Y0366541D01*
X0266993Y0366579D02*
X0271245Y0366579D01*
X0271245Y0366617D02*
X0266993Y0366617D01*
X0266993Y0366655D02*
X0271245Y0366655D01*
X0271245Y0366693D02*
X0266993Y0366693D01*
X0266993Y0366731D02*
X0271245Y0366731D01*
X0271245Y0366769D02*
X0266993Y0366769D01*
X0266993Y0366807D02*
X0271245Y0366807D01*
X0271245Y0366844D02*
X0266993Y0366844D01*
X0266993Y0366882D02*
X0271245Y0366882D01*
X0271245Y0366920D02*
X0266993Y0366920D01*
X0266993Y0366958D02*
X0271245Y0366958D01*
X0271245Y0366996D02*
X0266993Y0366996D01*
X0266993Y0367034D02*
X0271245Y0367034D01*
X0271245Y0367072D02*
X0266993Y0367072D01*
X0266993Y0367110D02*
X0271245Y0367110D01*
X0271245Y0367147D02*
X0266993Y0367147D01*
X0266993Y0367185D02*
X0271245Y0367185D01*
X0271245Y0367223D02*
X0266993Y0367223D01*
X0266993Y0367261D02*
X0271245Y0367261D01*
X0271245Y0367299D02*
X0266993Y0367299D01*
X0266993Y0367337D02*
X0271245Y0367337D01*
X0271245Y0367375D02*
X0266993Y0367375D01*
X0266993Y0367413D02*
X0271245Y0367413D01*
X0271245Y0367451D02*
X0266993Y0367451D01*
X0266993Y0367488D02*
X0271245Y0367488D01*
X0271245Y0367526D02*
X0266993Y0367526D01*
X0266993Y0367564D02*
X0271245Y0367564D01*
X0271245Y0367602D02*
X0266993Y0367602D01*
X0266993Y0367640D02*
X0271245Y0367640D01*
X0271245Y0367678D02*
X0266993Y0367678D01*
X0266993Y0367716D02*
X0271245Y0367716D01*
X0271245Y0367754D02*
X0266993Y0367754D01*
X0266993Y0367791D02*
X0271245Y0367791D01*
X0271245Y0367829D02*
X0266993Y0367829D01*
X0266993Y0367867D02*
X0271245Y0367867D01*
X0271245Y0367905D02*
X0266993Y0367905D01*
X0266993Y0367943D02*
X0271245Y0367943D01*
X0271245Y0367981D02*
X0266993Y0367981D01*
X0266993Y0368019D02*
X0271245Y0368019D01*
X0271245Y0368057D02*
X0266993Y0368057D01*
X0266993Y0368095D02*
X0271245Y0368095D01*
X0271245Y0368132D02*
X0266993Y0368132D01*
X0266993Y0368170D02*
X0271245Y0368170D01*
X0271245Y0368208D02*
X0266993Y0368208D01*
X0266993Y0368246D02*
X0271245Y0368246D01*
X0271245Y0368284D02*
X0266993Y0368284D01*
X0266993Y0368322D02*
X0271245Y0368322D01*
X0271245Y0368360D02*
X0266993Y0368360D01*
X0266993Y0368398D02*
X0271245Y0368398D01*
X0271245Y0368435D02*
X0266993Y0368435D01*
X0266993Y0368473D02*
X0271245Y0368473D01*
X0271245Y0368511D02*
X0266993Y0368511D01*
X0266993Y0368549D02*
X0271245Y0368549D01*
X0271245Y0368587D02*
X0266993Y0368587D01*
X0266994Y0368625D02*
X0271244Y0368625D01*
X0271241Y0368663D02*
X0266997Y0368663D01*
X0267000Y0368701D02*
X0271238Y0368701D01*
X0271235Y0368738D02*
X0267003Y0368738D01*
X0267008Y0368776D02*
X0271230Y0368776D01*
X0271221Y0368814D02*
X0267017Y0368814D01*
X0267026Y0368852D02*
X0271212Y0368852D01*
X0271203Y0368890D02*
X0267035Y0368890D01*
X0267046Y0368928D02*
X0271192Y0368928D01*
X0271176Y0368966D02*
X0267062Y0368966D01*
X0267077Y0369004D02*
X0271160Y0369004D01*
X0271144Y0369042D02*
X0267093Y0369042D01*
X0267113Y0369079D02*
X0271124Y0369079D01*
X0271101Y0369117D02*
X0267136Y0369117D01*
X0264185Y0368765D02*
X0264149Y0368915D01*
X0264090Y0369058D01*
X0264010Y0369189D01*
X0263909Y0369307D01*
X0263792Y0369407D01*
X0263660Y0369488D01*
X0263518Y0369547D01*
X0263367Y0369583D01*
X0260930Y0369595D01*
X0260776Y0369583D01*
X0260625Y0369547D01*
X0260483Y0369488D01*
X0260351Y0369407D01*
X0260234Y0369307D01*
X0260133Y0369189D01*
X0260053Y0369058D01*
X0259994Y0368915D01*
X0259958Y0368765D01*
X0259946Y0368611D01*
X0259946Y0366800D01*
X0259946Y0364989D01*
X0259958Y0364835D01*
X0259994Y0364685D01*
X0260053Y0364542D01*
X0260133Y0364411D01*
X0260234Y0364293D01*
X0260351Y0364193D01*
X0263792Y0364193D01*
X0263909Y0364293D01*
X0264010Y0364411D01*
X0264090Y0364542D01*
X0264149Y0364685D01*
X0264185Y0364835D01*
X0264198Y0364989D01*
X0264198Y0368611D01*
X0264185Y0368765D01*
X0264183Y0368776D02*
X0259960Y0368776D01*
X0259956Y0368738D02*
X0264187Y0368738D01*
X0264190Y0368701D02*
X0259953Y0368701D01*
X0259950Y0368663D02*
X0264193Y0368663D01*
X0264196Y0368625D02*
X0259947Y0368625D01*
X0259946Y0368587D02*
X0264198Y0368587D01*
X0264198Y0368549D02*
X0259946Y0368549D01*
X0259946Y0368511D02*
X0264198Y0368511D01*
X0264198Y0368473D02*
X0259946Y0368473D01*
X0259946Y0368435D02*
X0264198Y0368435D01*
X0264198Y0368398D02*
X0259946Y0368398D01*
X0259946Y0368360D02*
X0264198Y0368360D01*
X0264198Y0368322D02*
X0259946Y0368322D01*
X0259946Y0368284D02*
X0264198Y0368284D01*
X0264198Y0368246D02*
X0259946Y0368246D01*
X0259946Y0368208D02*
X0264198Y0368208D01*
X0264198Y0368170D02*
X0259946Y0368170D01*
X0259946Y0368132D02*
X0264198Y0368132D01*
X0264198Y0368095D02*
X0259946Y0368095D01*
X0259946Y0368057D02*
X0264198Y0368057D01*
X0264198Y0368019D02*
X0259946Y0368019D01*
X0259946Y0367981D02*
X0264198Y0367981D01*
X0264198Y0367943D02*
X0259946Y0367943D01*
X0259946Y0367905D02*
X0264198Y0367905D01*
X0264198Y0367867D02*
X0259946Y0367867D01*
X0259946Y0367829D02*
X0264198Y0367829D01*
X0264198Y0367791D02*
X0259946Y0367791D01*
X0259946Y0367754D02*
X0264198Y0367754D01*
X0264198Y0367716D02*
X0259946Y0367716D01*
X0259946Y0367678D02*
X0264198Y0367678D01*
X0264198Y0367640D02*
X0259946Y0367640D01*
X0259946Y0367602D02*
X0264198Y0367602D01*
X0264198Y0367564D02*
X0259946Y0367564D01*
X0259946Y0367526D02*
X0264198Y0367526D01*
X0264198Y0367488D02*
X0259946Y0367488D01*
X0259946Y0367451D02*
X0264198Y0367451D01*
X0264198Y0367413D02*
X0259946Y0367413D01*
X0259946Y0367375D02*
X0264198Y0367375D01*
X0264198Y0367337D02*
X0259946Y0367337D01*
X0259946Y0367299D02*
X0264198Y0367299D01*
X0264198Y0367261D02*
X0259946Y0367261D01*
X0259946Y0367223D02*
X0264198Y0367223D01*
X0264198Y0367185D02*
X0259946Y0367185D01*
X0259946Y0367147D02*
X0264198Y0367147D01*
X0264198Y0367110D02*
X0259946Y0367110D01*
X0259946Y0367072D02*
X0264198Y0367072D01*
X0264198Y0367034D02*
X0259946Y0367034D01*
X0259946Y0366996D02*
X0264198Y0366996D01*
X0264198Y0366958D02*
X0259946Y0366958D01*
X0259946Y0366920D02*
X0264198Y0366920D01*
X0264198Y0366882D02*
X0259946Y0366882D01*
X0259946Y0366844D02*
X0264198Y0366844D01*
X0264198Y0366807D02*
X0259946Y0366807D01*
X0259946Y0366769D02*
X0264198Y0366769D01*
X0264198Y0366731D02*
X0259946Y0366731D01*
X0259946Y0366693D02*
X0264198Y0366693D01*
X0264198Y0366655D02*
X0259946Y0366655D01*
X0259946Y0366617D02*
X0264198Y0366617D01*
X0264198Y0366579D02*
X0259946Y0366579D01*
X0259946Y0366541D02*
X0264198Y0366541D01*
X0264198Y0366503D02*
X0259946Y0366503D01*
X0259946Y0366466D02*
X0264198Y0366466D01*
X0264198Y0366428D02*
X0259946Y0366428D01*
X0259946Y0366390D02*
X0264198Y0366390D01*
X0264198Y0366352D02*
X0259946Y0366352D01*
X0259946Y0366314D02*
X0264198Y0366314D01*
X0264198Y0366276D02*
X0259946Y0366276D01*
X0259946Y0366238D02*
X0264198Y0366238D01*
X0264198Y0366200D02*
X0259946Y0366200D01*
X0259946Y0366163D02*
X0264198Y0366163D01*
X0264198Y0366125D02*
X0259946Y0366125D01*
X0259946Y0366087D02*
X0264198Y0366087D01*
X0264198Y0366049D02*
X0259946Y0366049D01*
X0259946Y0366011D02*
X0264198Y0366011D01*
X0264198Y0365973D02*
X0259946Y0365973D01*
X0259946Y0365935D02*
X0264198Y0365935D01*
X0264198Y0365897D02*
X0259946Y0365897D01*
X0259946Y0365860D02*
X0264198Y0365860D01*
X0264198Y0365822D02*
X0259946Y0365822D01*
X0259946Y0365784D02*
X0264198Y0365784D01*
X0264198Y0365746D02*
X0259946Y0365746D01*
X0259946Y0365708D02*
X0264198Y0365708D01*
X0264198Y0365670D02*
X0259946Y0365670D01*
X0259946Y0365632D02*
X0264198Y0365632D01*
X0264198Y0365594D02*
X0259946Y0365594D01*
X0259946Y0365556D02*
X0264198Y0365556D01*
X0264198Y0365519D02*
X0259946Y0365519D01*
X0259946Y0365481D02*
X0264198Y0365481D01*
X0264198Y0365443D02*
X0259946Y0365443D01*
X0259946Y0365405D02*
X0264198Y0365405D01*
X0264198Y0365367D02*
X0259946Y0365367D01*
X0259946Y0365329D02*
X0264198Y0365329D01*
X0264198Y0365291D02*
X0259946Y0365291D01*
X0259946Y0365253D02*
X0264198Y0365253D01*
X0264198Y0365216D02*
X0259946Y0365216D01*
X0259946Y0365178D02*
X0264198Y0365178D01*
X0264198Y0365140D02*
X0259946Y0365140D01*
X0259946Y0365102D02*
X0264198Y0365102D01*
X0264198Y0365064D02*
X0259946Y0365064D01*
X0259946Y0365026D02*
X0264198Y0365026D01*
X0264197Y0364988D02*
X0259946Y0364988D01*
X0259949Y0364950D02*
X0264194Y0364950D01*
X0264191Y0364912D02*
X0259952Y0364912D01*
X0259955Y0364875D02*
X0264188Y0364875D01*
X0264185Y0364837D02*
X0259958Y0364837D01*
X0259966Y0364799D02*
X0264177Y0364799D01*
X0264168Y0364761D02*
X0259975Y0364761D01*
X0259984Y0364723D02*
X0264159Y0364723D01*
X0264150Y0364685D02*
X0259993Y0364685D01*
X0260009Y0364647D02*
X0264134Y0364647D01*
X0264118Y0364609D02*
X0260025Y0364609D01*
X0260040Y0364572D02*
X0264103Y0364572D01*
X0264085Y0364534D02*
X0260058Y0364534D01*
X0260081Y0364496D02*
X0264062Y0364496D01*
X0264039Y0364458D02*
X0260104Y0364458D01*
X0260128Y0364420D02*
X0264015Y0364420D01*
X0263985Y0364382D02*
X0260158Y0364382D01*
X0260190Y0364344D02*
X0263953Y0364344D01*
X0263921Y0364306D02*
X0260222Y0364306D01*
X0260262Y0364268D02*
X0263881Y0364268D01*
X0263836Y0364231D02*
X0260307Y0364231D01*
X0260351Y0364193D02*
X0260483Y0364112D01*
X0260625Y0364053D01*
X0260776Y0364017D01*
X0263213Y0364005D01*
X0263367Y0364017D01*
X0263518Y0364053D01*
X0263660Y0364112D01*
X0263792Y0364193D01*
X0263730Y0364155D02*
X0260413Y0364155D01*
X0260475Y0364117D02*
X0263668Y0364117D01*
X0263581Y0364079D02*
X0260562Y0364079D01*
X0260674Y0364041D02*
X0263469Y0364041D01*
X0261603Y0359843D02*
X0261460Y0359902D01*
X0261310Y0359937D01*
X0261156Y0359950D01*
X0259345Y0359950D01*
X0257534Y0359950D01*
X0257380Y0359937D01*
X0257230Y0359902D01*
X0257087Y0359843D01*
X0256956Y0359762D01*
X0256838Y0359661D01*
X0256738Y0359544D01*
X0256657Y0359412D01*
X0256598Y0359270D01*
X0256562Y0359119D01*
X0256550Y0356682D01*
X0256562Y0356528D01*
X0256598Y0356378D01*
X0256657Y0356235D01*
X0256738Y0356104D01*
X0256838Y0355986D01*
X0256956Y0355885D01*
X0257087Y0355805D01*
X0257230Y0355746D01*
X0257380Y0355710D01*
X0257534Y0355698D01*
X0261156Y0355698D01*
X0261310Y0355710D01*
X0261460Y0355746D01*
X0261603Y0355805D01*
X0261735Y0355885D01*
X0261852Y0355986D01*
X0261953Y0356104D01*
X0262033Y0356235D01*
X0262092Y0356378D01*
X0262128Y0356528D01*
X0262140Y0358965D01*
X0256561Y0358965D01*
X0256561Y0358927D02*
X0262140Y0358927D01*
X0262140Y0358889D02*
X0256561Y0358889D01*
X0256561Y0358851D02*
X0262140Y0358851D01*
X0262140Y0358814D02*
X0256561Y0358814D01*
X0256560Y0358776D02*
X0262139Y0358776D01*
X0262139Y0358738D02*
X0256560Y0358738D01*
X0256560Y0358700D02*
X0262139Y0358700D01*
X0262139Y0358662D02*
X0256560Y0358662D01*
X0256560Y0358624D02*
X0262139Y0358624D01*
X0262139Y0358586D02*
X0256559Y0358586D01*
X0256559Y0358548D02*
X0262138Y0358548D01*
X0262138Y0358511D02*
X0256559Y0358511D01*
X0256559Y0358473D02*
X0262138Y0358473D01*
X0262138Y0358435D02*
X0256559Y0358435D01*
X0256558Y0358397D02*
X0262138Y0358397D01*
X0262137Y0358359D02*
X0256558Y0358359D01*
X0256558Y0358321D02*
X0262137Y0358321D01*
X0262137Y0358283D02*
X0256558Y0358283D01*
X0256558Y0358245D02*
X0262137Y0358245D01*
X0262137Y0358207D02*
X0256558Y0358207D01*
X0256557Y0358170D02*
X0262136Y0358170D01*
X0262136Y0358132D02*
X0256557Y0358132D01*
X0256557Y0358094D02*
X0262136Y0358094D01*
X0262136Y0358056D02*
X0256557Y0358056D01*
X0256557Y0358018D02*
X0262136Y0358018D01*
X0262135Y0357980D02*
X0256556Y0357980D01*
X0256556Y0357942D02*
X0262135Y0357942D01*
X0262135Y0357904D02*
X0256556Y0357904D01*
X0256556Y0357867D02*
X0262135Y0357867D01*
X0262135Y0357829D02*
X0256556Y0357829D01*
X0256555Y0357791D02*
X0262135Y0357791D01*
X0262134Y0357753D02*
X0256555Y0357753D01*
X0256555Y0357715D02*
X0262134Y0357715D01*
X0262134Y0357677D02*
X0256555Y0357677D01*
X0256555Y0357639D02*
X0262134Y0357639D01*
X0262134Y0357601D02*
X0256554Y0357601D01*
X0256554Y0357563D02*
X0262133Y0357563D01*
X0262133Y0357526D02*
X0256554Y0357526D01*
X0256554Y0357488D02*
X0262133Y0357488D01*
X0262133Y0357450D02*
X0256554Y0357450D01*
X0256554Y0357412D02*
X0262133Y0357412D01*
X0262132Y0357374D02*
X0256553Y0357374D01*
X0256553Y0357336D02*
X0262132Y0357336D01*
X0262132Y0357298D02*
X0256553Y0357298D01*
X0256553Y0357260D02*
X0262132Y0357260D01*
X0262132Y0357223D02*
X0256553Y0357223D01*
X0256552Y0357185D02*
X0262131Y0357185D01*
X0262131Y0357147D02*
X0256552Y0357147D01*
X0256552Y0357109D02*
X0262131Y0357109D01*
X0262131Y0357071D02*
X0256552Y0357071D01*
X0256552Y0357033D02*
X0262131Y0357033D01*
X0262131Y0356995D02*
X0256551Y0356995D01*
X0256551Y0356957D02*
X0262130Y0356957D01*
X0262130Y0356920D02*
X0256551Y0356920D01*
X0256551Y0356882D02*
X0262130Y0356882D01*
X0262130Y0356844D02*
X0256551Y0356844D01*
X0256550Y0356806D02*
X0262130Y0356806D01*
X0262129Y0356768D02*
X0256550Y0356768D01*
X0256550Y0356730D02*
X0262129Y0356730D01*
X0262129Y0356692D02*
X0256550Y0356692D01*
X0256552Y0356654D02*
X0262129Y0356654D01*
X0262129Y0356616D02*
X0256555Y0356616D01*
X0256558Y0356579D02*
X0262128Y0356579D01*
X0262128Y0356541D02*
X0256561Y0356541D01*
X0256568Y0356503D02*
X0262122Y0356503D01*
X0262113Y0356465D02*
X0256577Y0356465D01*
X0256586Y0356427D02*
X0262104Y0356427D01*
X0262095Y0356389D02*
X0256595Y0356389D01*
X0256609Y0356351D02*
X0262081Y0356351D01*
X0262066Y0356313D02*
X0256624Y0356313D01*
X0256640Y0356276D02*
X0262050Y0356276D01*
X0262034Y0356238D02*
X0256656Y0356238D01*
X0256679Y0356200D02*
X0262012Y0356200D01*
X0261988Y0356162D02*
X0256702Y0356162D01*
X0256725Y0356124D02*
X0261965Y0356124D01*
X0261938Y0356086D02*
X0256753Y0356086D01*
X0256785Y0356048D02*
X0261905Y0356048D01*
X0261873Y0356010D02*
X0256817Y0356010D01*
X0256854Y0355972D02*
X0261837Y0355972D01*
X0261792Y0355935D02*
X0256898Y0355935D01*
X0256943Y0355897D02*
X0261748Y0355897D01*
X0261691Y0355859D02*
X0256999Y0355859D01*
X0257061Y0355821D02*
X0261629Y0355821D01*
X0261551Y0355783D02*
X0257140Y0355783D01*
X0257232Y0355745D02*
X0261458Y0355745D01*
X0261278Y0355707D02*
X0257412Y0355707D01*
X0257534Y0352902D02*
X0257380Y0352890D01*
X0257230Y0352854D01*
X0257087Y0352795D01*
X0256956Y0352715D01*
X0261734Y0352715D01*
X0261735Y0352715D02*
X0261603Y0352795D01*
X0261460Y0352854D01*
X0261310Y0352890D01*
X0261156Y0352902D01*
X0257534Y0352902D01*
X0257280Y0352866D02*
X0261411Y0352866D01*
X0261523Y0352828D02*
X0257167Y0352828D01*
X0257079Y0352790D02*
X0261611Y0352790D01*
X0261673Y0352753D02*
X0257018Y0352753D01*
X0256956Y0352715D02*
X0256838Y0352614D01*
X0256738Y0352496D01*
X0256657Y0352365D01*
X0256598Y0352222D01*
X0262092Y0352222D01*
X0262033Y0352365D01*
X0261953Y0352496D01*
X0261852Y0352614D01*
X0261735Y0352715D01*
X0261779Y0352677D02*
X0256911Y0352677D01*
X0256867Y0352639D02*
X0261823Y0352639D01*
X0261863Y0352601D02*
X0256827Y0352601D01*
X0256795Y0352563D02*
X0261896Y0352563D01*
X0261928Y0352525D02*
X0256762Y0352525D01*
X0256732Y0352487D02*
X0261958Y0352487D01*
X0261981Y0352449D02*
X0256709Y0352449D01*
X0256686Y0352412D02*
X0262005Y0352412D01*
X0262028Y0352374D02*
X0256662Y0352374D01*
X0256645Y0352336D02*
X0262045Y0352336D01*
X0262061Y0352298D02*
X0256629Y0352298D01*
X0256613Y0352260D02*
X0262077Y0352260D01*
X0262092Y0352222D02*
X0262128Y0352072D01*
X0262140Y0351918D01*
X0262128Y0349481D01*
X0262092Y0349330D01*
X0262033Y0349188D01*
X0261953Y0349056D01*
X0261852Y0348939D01*
X0261735Y0348838D01*
X0261603Y0348757D01*
X0261460Y0348698D01*
X0261310Y0348663D01*
X0261156Y0348650D01*
X0259345Y0348650D01*
X0257534Y0348650D01*
X0257380Y0348663D01*
X0257230Y0348698D01*
X0257087Y0348757D01*
X0256956Y0348838D01*
X0256838Y0348939D01*
X0256738Y0349056D01*
X0256657Y0349188D01*
X0256598Y0349330D01*
X0256562Y0349481D01*
X0256550Y0349635D01*
X0256562Y0352072D01*
X0256598Y0352222D01*
X0256589Y0352184D02*
X0262101Y0352184D01*
X0262110Y0352146D02*
X0256580Y0352146D01*
X0256571Y0352109D02*
X0262120Y0352109D01*
X0262128Y0352071D02*
X0256562Y0352071D01*
X0256562Y0352033D02*
X0262131Y0352033D01*
X0262134Y0351995D02*
X0256562Y0351995D01*
X0256562Y0351957D02*
X0262137Y0351957D01*
X0262140Y0351919D02*
X0256561Y0351919D01*
X0256561Y0351881D02*
X0262140Y0351881D01*
X0262140Y0351843D02*
X0256561Y0351843D01*
X0256561Y0351806D02*
X0262140Y0351806D01*
X0262140Y0351768D02*
X0256561Y0351768D01*
X0256560Y0351730D02*
X0262139Y0351730D01*
X0262139Y0351692D02*
X0256560Y0351692D01*
X0256560Y0351654D02*
X0262139Y0351654D01*
X0262139Y0351616D02*
X0256560Y0351616D01*
X0256560Y0351578D02*
X0262139Y0351578D01*
X0262139Y0351540D02*
X0256559Y0351540D01*
X0256559Y0351502D02*
X0262138Y0351502D01*
X0262138Y0351465D02*
X0256559Y0351465D01*
X0256559Y0351427D02*
X0262138Y0351427D01*
X0262138Y0351389D02*
X0256559Y0351389D01*
X0256558Y0351351D02*
X0262138Y0351351D01*
X0262137Y0351313D02*
X0256558Y0351313D01*
X0256558Y0351275D02*
X0262137Y0351275D01*
X0262137Y0351237D02*
X0256558Y0351237D01*
X0256558Y0351199D02*
X0262137Y0351199D01*
X0262137Y0351162D02*
X0256558Y0351162D01*
X0256557Y0351124D02*
X0262136Y0351124D01*
X0262136Y0351086D02*
X0256557Y0351086D01*
X0256557Y0351048D02*
X0262136Y0351048D01*
X0262136Y0351010D02*
X0256557Y0351010D01*
X0256557Y0350972D02*
X0262136Y0350972D01*
X0262135Y0350934D02*
X0256556Y0350934D01*
X0256556Y0350896D02*
X0262135Y0350896D01*
X0262135Y0350858D02*
X0256556Y0350858D01*
X0256556Y0350821D02*
X0262135Y0350821D01*
X0262135Y0350783D02*
X0256556Y0350783D01*
X0256555Y0350745D02*
X0262135Y0350745D01*
X0262134Y0350707D02*
X0256555Y0350707D01*
X0256555Y0350669D02*
X0262134Y0350669D01*
X0262134Y0350631D02*
X0256555Y0350631D01*
X0256555Y0350593D02*
X0262134Y0350593D01*
X0262134Y0350555D02*
X0256554Y0350555D01*
X0256554Y0350518D02*
X0262133Y0350518D01*
X0262133Y0350480D02*
X0256554Y0350480D01*
X0256554Y0350442D02*
X0262133Y0350442D01*
X0262133Y0350404D02*
X0256554Y0350404D01*
X0256554Y0350366D02*
X0262133Y0350366D01*
X0262132Y0350328D02*
X0256553Y0350328D01*
X0256553Y0350290D02*
X0262132Y0350290D01*
X0262132Y0350252D02*
X0256553Y0350252D01*
X0256553Y0350214D02*
X0262132Y0350214D01*
X0262132Y0350177D02*
X0256553Y0350177D01*
X0256552Y0350139D02*
X0262131Y0350139D01*
X0262131Y0350101D02*
X0256552Y0350101D01*
X0256552Y0350063D02*
X0262131Y0350063D01*
X0262131Y0350025D02*
X0256552Y0350025D01*
X0256552Y0349987D02*
X0262131Y0349987D01*
X0262131Y0349949D02*
X0256551Y0349949D01*
X0256551Y0349911D02*
X0262130Y0349911D01*
X0262130Y0349874D02*
X0256551Y0349874D01*
X0256551Y0349836D02*
X0262130Y0349836D01*
X0262130Y0349798D02*
X0256551Y0349798D01*
X0256550Y0349760D02*
X0262130Y0349760D01*
X0262129Y0349722D02*
X0256550Y0349722D01*
X0256550Y0349684D02*
X0262129Y0349684D01*
X0262129Y0349646D02*
X0256550Y0349646D01*
X0256552Y0349608D02*
X0262129Y0349608D01*
X0262129Y0349571D02*
X0256555Y0349571D01*
X0256558Y0349533D02*
X0262128Y0349533D01*
X0262128Y0349495D02*
X0256561Y0349495D01*
X0256568Y0349457D02*
X0262123Y0349457D01*
X0262113Y0349419D02*
X0256577Y0349419D01*
X0256586Y0349381D02*
X0262104Y0349381D01*
X0262095Y0349343D02*
X0256595Y0349343D01*
X0256608Y0349305D02*
X0262082Y0349305D01*
X0262066Y0349267D02*
X0256624Y0349267D01*
X0256640Y0349230D02*
X0262051Y0349230D01*
X0262035Y0349192D02*
X0256655Y0349192D01*
X0256678Y0349154D02*
X0262012Y0349154D01*
X0261989Y0349116D02*
X0256701Y0349116D01*
X0256724Y0349078D02*
X0261966Y0349078D01*
X0261939Y0349040D02*
X0256751Y0349040D01*
X0256784Y0349002D02*
X0261907Y0349002D01*
X0261874Y0348964D02*
X0256816Y0348964D01*
X0256852Y0348927D02*
X0261838Y0348927D01*
X0261794Y0348889D02*
X0256897Y0348889D01*
X0256941Y0348851D02*
X0261749Y0348851D01*
X0261693Y0348813D02*
X0256997Y0348813D01*
X0257059Y0348775D02*
X0261632Y0348775D01*
X0261554Y0348737D02*
X0257136Y0348737D01*
X0257228Y0348699D02*
X0261462Y0348699D01*
X0261294Y0348661D02*
X0257396Y0348661D01*
X0256664Y0342083D02*
X0254227Y0342095D01*
X0254073Y0342083D01*
X0253923Y0342047D01*
X0253780Y0341988D01*
X0253649Y0341907D01*
X0253531Y0341807D01*
X0253431Y0341689D01*
X0253350Y0341558D01*
X0253291Y0341415D01*
X0253255Y0341265D01*
X0253243Y0341111D01*
X0253243Y0337489D01*
X0253255Y0337335D01*
X0253291Y0337185D01*
X0253350Y0337042D01*
X0253431Y0336911D01*
X0253531Y0336793D01*
X0253649Y0336693D01*
X0253780Y0336612D01*
X0253923Y0336553D01*
X0254073Y0336517D01*
X0256510Y0336505D01*
X0256664Y0336517D01*
X0256815Y0336553D01*
X0256957Y0336612D01*
X0257089Y0336693D01*
X0257207Y0336793D01*
X0257307Y0336911D01*
X0257388Y0337042D01*
X0257447Y0337185D01*
X0257483Y0337335D01*
X0257495Y0337489D01*
X0257495Y0339300D01*
X0257495Y0341111D01*
X0257483Y0341265D01*
X0257447Y0341415D01*
X0257388Y0341558D01*
X0257307Y0341689D01*
X0257207Y0341807D01*
X0257089Y0341907D01*
X0256957Y0341988D01*
X0256815Y0342047D01*
X0256664Y0342083D01*
X0256719Y0342070D02*
X0254018Y0342070D01*
X0253886Y0342032D02*
X0256851Y0342032D01*
X0256943Y0341994D02*
X0253795Y0341994D01*
X0253728Y0341956D02*
X0257009Y0341956D01*
X0257071Y0341918D02*
X0253667Y0341918D01*
X0253617Y0341881D02*
X0257120Y0341881D01*
X0257165Y0341843D02*
X0253573Y0341843D01*
X0253529Y0341805D02*
X0257208Y0341805D01*
X0257241Y0341767D02*
X0253497Y0341767D01*
X0253464Y0341729D02*
X0257273Y0341729D01*
X0257305Y0341691D02*
X0253432Y0341691D01*
X0253408Y0341653D02*
X0257329Y0341653D01*
X0257352Y0341615D02*
X0253385Y0341615D01*
X0253362Y0341578D02*
X0257376Y0341578D01*
X0257395Y0341540D02*
X0253342Y0341540D01*
X0253327Y0341502D02*
X0257411Y0341502D01*
X0257427Y0341464D02*
X0253311Y0341464D01*
X0253295Y0341426D02*
X0257442Y0341426D01*
X0257453Y0341388D02*
X0253284Y0341388D01*
X0253275Y0341350D02*
X0257462Y0341350D01*
X0257471Y0341312D02*
X0253266Y0341312D01*
X0253257Y0341274D02*
X0257480Y0341274D01*
X0257485Y0341237D02*
X0253253Y0341237D01*
X0253250Y0341199D02*
X0257488Y0341199D01*
X0257491Y0341161D02*
X0253247Y0341161D01*
X0253244Y0341123D02*
X0257494Y0341123D01*
X0257495Y0341085D02*
X0253243Y0341085D01*
X0253243Y0341047D02*
X0257495Y0341047D01*
X0257495Y0341009D02*
X0253243Y0341009D01*
X0253243Y0340971D02*
X0257495Y0340971D01*
X0257495Y0340934D02*
X0253243Y0340934D01*
X0253243Y0340896D02*
X0257495Y0340896D01*
X0257495Y0340858D02*
X0253243Y0340858D01*
X0253243Y0340820D02*
X0257495Y0340820D01*
X0257495Y0340782D02*
X0253243Y0340782D01*
X0253243Y0340744D02*
X0257495Y0340744D01*
X0257495Y0340706D02*
X0253243Y0340706D01*
X0253243Y0340668D02*
X0257495Y0340668D01*
X0257495Y0340630D02*
X0253243Y0340630D01*
X0253243Y0340593D02*
X0257495Y0340593D01*
X0257495Y0340555D02*
X0253243Y0340555D01*
X0253243Y0340517D02*
X0257495Y0340517D01*
X0257495Y0340479D02*
X0253243Y0340479D01*
X0253243Y0340441D02*
X0257495Y0340441D01*
X0257495Y0340403D02*
X0253243Y0340403D01*
X0253243Y0340365D02*
X0257495Y0340365D01*
X0257495Y0340327D02*
X0253243Y0340327D01*
X0253243Y0340290D02*
X0257495Y0340290D01*
X0257495Y0340252D02*
X0253243Y0340252D01*
X0253243Y0340214D02*
X0257495Y0340214D01*
X0257495Y0340176D02*
X0253243Y0340176D01*
X0253243Y0340138D02*
X0257495Y0340138D01*
X0257495Y0340100D02*
X0253243Y0340100D01*
X0253243Y0340062D02*
X0257495Y0340062D01*
X0257495Y0340024D02*
X0253243Y0340024D01*
X0253243Y0339987D02*
X0257495Y0339987D01*
X0257495Y0339949D02*
X0253243Y0339949D01*
X0253243Y0339911D02*
X0257495Y0339911D01*
X0257495Y0339873D02*
X0253243Y0339873D01*
X0253243Y0339835D02*
X0257495Y0339835D01*
X0257495Y0339797D02*
X0253243Y0339797D01*
X0253243Y0339759D02*
X0257495Y0339759D01*
X0257495Y0339721D02*
X0253243Y0339721D01*
X0253243Y0339683D02*
X0257495Y0339683D01*
X0257495Y0339646D02*
X0253243Y0339646D01*
X0253243Y0339608D02*
X0257495Y0339608D01*
X0257495Y0339570D02*
X0253243Y0339570D01*
X0253243Y0339532D02*
X0257495Y0339532D01*
X0257495Y0339494D02*
X0253243Y0339494D01*
X0253243Y0339456D02*
X0257495Y0339456D01*
X0257495Y0339418D02*
X0253243Y0339418D01*
X0253243Y0339380D02*
X0257495Y0339380D01*
X0257495Y0339343D02*
X0253243Y0339343D01*
X0253243Y0339305D02*
X0257495Y0339305D01*
X0257495Y0339267D02*
X0253243Y0339267D01*
X0253243Y0339229D02*
X0257495Y0339229D01*
X0257495Y0339191D02*
X0253243Y0339191D01*
X0253243Y0339153D02*
X0257495Y0339153D01*
X0257495Y0339115D02*
X0253243Y0339115D01*
X0253243Y0339077D02*
X0257495Y0339077D01*
X0257495Y0339039D02*
X0253243Y0339039D01*
X0253243Y0339002D02*
X0257495Y0339002D01*
X0257495Y0338964D02*
X0253243Y0338964D01*
X0253243Y0338926D02*
X0257495Y0338926D01*
X0257495Y0338888D02*
X0253243Y0338888D01*
X0253243Y0338850D02*
X0257495Y0338850D01*
X0257495Y0338812D02*
X0253243Y0338812D01*
X0253243Y0338774D02*
X0257495Y0338774D01*
X0257495Y0338736D02*
X0253243Y0338736D01*
X0253243Y0338699D02*
X0257495Y0338699D01*
X0257495Y0338661D02*
X0253243Y0338661D01*
X0253243Y0338623D02*
X0257495Y0338623D01*
X0257495Y0338585D02*
X0253243Y0338585D01*
X0253243Y0338547D02*
X0257495Y0338547D01*
X0257495Y0338509D02*
X0253243Y0338509D01*
X0253243Y0338471D02*
X0257495Y0338471D01*
X0257495Y0338433D02*
X0253243Y0338433D01*
X0253243Y0338395D02*
X0257495Y0338395D01*
X0257495Y0338358D02*
X0253243Y0338358D01*
X0253243Y0338320D02*
X0257495Y0338320D01*
X0257495Y0338282D02*
X0253243Y0338282D01*
X0253243Y0338244D02*
X0257495Y0338244D01*
X0257495Y0338206D02*
X0253243Y0338206D01*
X0253243Y0338168D02*
X0257495Y0338168D01*
X0257495Y0338130D02*
X0253243Y0338130D01*
X0253243Y0338092D02*
X0257495Y0338092D01*
X0257495Y0338055D02*
X0253243Y0338055D01*
X0253243Y0338017D02*
X0257495Y0338017D01*
X0257495Y0337979D02*
X0253243Y0337979D01*
X0253243Y0337941D02*
X0257495Y0337941D01*
X0257495Y0337903D02*
X0253243Y0337903D01*
X0253243Y0337865D02*
X0257495Y0337865D01*
X0257495Y0337827D02*
X0253243Y0337827D01*
X0253243Y0337789D02*
X0257495Y0337789D01*
X0257495Y0337752D02*
X0253243Y0337752D01*
X0253243Y0337714D02*
X0257495Y0337714D01*
X0257495Y0337676D02*
X0253243Y0337676D01*
X0253243Y0337638D02*
X0257495Y0337638D01*
X0257495Y0337600D02*
X0253243Y0337600D01*
X0253243Y0337562D02*
X0257495Y0337562D01*
X0257495Y0337524D02*
X0253243Y0337524D01*
X0253243Y0337486D02*
X0257495Y0337486D01*
X0257492Y0337448D02*
X0253246Y0337448D01*
X0253249Y0337411D02*
X0257489Y0337411D01*
X0257486Y0337373D02*
X0253252Y0337373D01*
X0253255Y0337335D02*
X0257482Y0337335D01*
X0257473Y0337297D02*
X0253264Y0337297D01*
X0253273Y0337259D02*
X0257464Y0337259D01*
X0257455Y0337221D02*
X0253282Y0337221D01*
X0253291Y0337183D02*
X0257446Y0337183D01*
X0257430Y0337145D02*
X0253307Y0337145D01*
X0253323Y0337108D02*
X0257415Y0337108D01*
X0257399Y0337070D02*
X0253338Y0337070D01*
X0253356Y0337032D02*
X0257381Y0337032D01*
X0257358Y0336994D02*
X0253379Y0336994D01*
X0253403Y0336956D02*
X0257335Y0336956D01*
X0257312Y0336918D02*
X0253426Y0336918D01*
X0253456Y0336880D02*
X0257281Y0336880D01*
X0257249Y0336842D02*
X0253489Y0336842D01*
X0253521Y0336804D02*
X0257216Y0336804D01*
X0257176Y0336767D02*
X0253562Y0336767D01*
X0253606Y0336729D02*
X0257131Y0336729D01*
X0257086Y0336691D02*
X0253651Y0336691D01*
X0253713Y0336653D02*
X0257024Y0336653D01*
X0256963Y0336615D02*
X0253775Y0336615D01*
X0253864Y0336577D02*
X0256874Y0336577D01*
X0256758Y0336539D02*
X0253979Y0336539D01*
X0250435Y0337335D02*
X0250448Y0337489D01*
X0250448Y0341111D01*
X0250435Y0341265D01*
X0250399Y0341415D01*
X0250340Y0341558D01*
X0250260Y0341689D01*
X0250159Y0341807D01*
X0250042Y0341907D01*
X0249910Y0341988D01*
X0249768Y0342047D01*
X0249617Y0342083D01*
X0247180Y0342095D01*
X0247026Y0342083D01*
X0246875Y0342047D01*
X0246733Y0341988D01*
X0246601Y0341907D01*
X0246484Y0341807D01*
X0246383Y0341689D01*
X0246303Y0341558D01*
X0246244Y0341415D01*
X0246208Y0341265D01*
X0246196Y0341111D01*
X0246196Y0339300D01*
X0246196Y0337489D01*
X0246208Y0337335D01*
X0246244Y0337185D01*
X0246303Y0337042D01*
X0246383Y0336911D01*
X0246484Y0336793D01*
X0246601Y0336693D01*
X0246733Y0336612D01*
X0246875Y0336553D01*
X0247026Y0336517D01*
X0249463Y0336505D01*
X0249617Y0336517D01*
X0249768Y0336553D01*
X0249910Y0336612D01*
X0250042Y0336693D01*
X0250159Y0336793D01*
X0250260Y0336911D01*
X0250340Y0337042D01*
X0250399Y0337185D01*
X0250435Y0337335D01*
X0246208Y0337335D01*
X0246205Y0337373D02*
X0250438Y0337373D01*
X0250441Y0337411D02*
X0246202Y0337411D01*
X0246199Y0337448D02*
X0250444Y0337448D01*
X0250447Y0337486D02*
X0246196Y0337486D01*
X0246196Y0337524D02*
X0250448Y0337524D01*
X0250448Y0337562D02*
X0246196Y0337562D01*
X0246196Y0337600D02*
X0250448Y0337600D01*
X0250448Y0337638D02*
X0246196Y0337638D01*
X0246196Y0337676D02*
X0250448Y0337676D01*
X0250448Y0337714D02*
X0246196Y0337714D01*
X0246196Y0337752D02*
X0250448Y0337752D01*
X0250448Y0337789D02*
X0246196Y0337789D01*
X0246196Y0337827D02*
X0250448Y0337827D01*
X0250448Y0337865D02*
X0246196Y0337865D01*
X0246196Y0337903D02*
X0250448Y0337903D01*
X0250448Y0337941D02*
X0246196Y0337941D01*
X0246196Y0337979D02*
X0250448Y0337979D01*
X0250448Y0338017D02*
X0246196Y0338017D01*
X0246196Y0338055D02*
X0250448Y0338055D01*
X0250448Y0338092D02*
X0246196Y0338092D01*
X0246196Y0338130D02*
X0250448Y0338130D01*
X0250448Y0338168D02*
X0246196Y0338168D01*
X0246196Y0338206D02*
X0250448Y0338206D01*
X0250448Y0338244D02*
X0246196Y0338244D01*
X0246196Y0338282D02*
X0250448Y0338282D01*
X0250448Y0338320D02*
X0246196Y0338320D01*
X0246196Y0338358D02*
X0250448Y0338358D01*
X0250448Y0338395D02*
X0246196Y0338395D01*
X0246196Y0338433D02*
X0250448Y0338433D01*
X0250448Y0338471D02*
X0246196Y0338471D01*
X0246196Y0338509D02*
X0250448Y0338509D01*
X0250448Y0338547D02*
X0246196Y0338547D01*
X0246196Y0338585D02*
X0250448Y0338585D01*
X0250448Y0338623D02*
X0246196Y0338623D01*
X0246196Y0338661D02*
X0250448Y0338661D01*
X0250448Y0338699D02*
X0246196Y0338699D01*
X0246196Y0338736D02*
X0250448Y0338736D01*
X0250448Y0338774D02*
X0246196Y0338774D01*
X0246196Y0338812D02*
X0250448Y0338812D01*
X0250448Y0338850D02*
X0246196Y0338850D01*
X0246196Y0338888D02*
X0250448Y0338888D01*
X0250448Y0338926D02*
X0246196Y0338926D01*
X0246196Y0338964D02*
X0250448Y0338964D01*
X0250448Y0339002D02*
X0246196Y0339002D01*
X0246196Y0339039D02*
X0250448Y0339039D01*
X0250448Y0339077D02*
X0246196Y0339077D01*
X0246196Y0339115D02*
X0250448Y0339115D01*
X0250448Y0339153D02*
X0246196Y0339153D01*
X0246196Y0339191D02*
X0250448Y0339191D01*
X0250448Y0339229D02*
X0246196Y0339229D01*
X0246196Y0339267D02*
X0250448Y0339267D01*
X0250448Y0339305D02*
X0246196Y0339305D01*
X0246196Y0339343D02*
X0250448Y0339343D01*
X0250448Y0339380D02*
X0246196Y0339380D01*
X0246196Y0339418D02*
X0250448Y0339418D01*
X0250448Y0339456D02*
X0246196Y0339456D01*
X0246196Y0339494D02*
X0250448Y0339494D01*
X0250448Y0339532D02*
X0246196Y0339532D01*
X0246196Y0339570D02*
X0250448Y0339570D01*
X0250448Y0339608D02*
X0246196Y0339608D01*
X0246196Y0339646D02*
X0250448Y0339646D01*
X0250448Y0339683D02*
X0246196Y0339683D01*
X0246196Y0339721D02*
X0250448Y0339721D01*
X0250448Y0339759D02*
X0246196Y0339759D01*
X0246196Y0339797D02*
X0250448Y0339797D01*
X0250448Y0339835D02*
X0246196Y0339835D01*
X0246196Y0339873D02*
X0250448Y0339873D01*
X0250448Y0339911D02*
X0246196Y0339911D01*
X0246196Y0339949D02*
X0250448Y0339949D01*
X0250448Y0339987D02*
X0246196Y0339987D01*
X0246196Y0340024D02*
X0250448Y0340024D01*
X0250448Y0340062D02*
X0246196Y0340062D01*
X0246196Y0340100D02*
X0250448Y0340100D01*
X0250448Y0340138D02*
X0246196Y0340138D01*
X0246196Y0340176D02*
X0250448Y0340176D01*
X0250448Y0340214D02*
X0246196Y0340214D01*
X0246196Y0340252D02*
X0250448Y0340252D01*
X0250448Y0340290D02*
X0246196Y0340290D01*
X0246196Y0340327D02*
X0250448Y0340327D01*
X0250448Y0340365D02*
X0246196Y0340365D01*
X0246196Y0340403D02*
X0250448Y0340403D01*
X0250448Y0340441D02*
X0246196Y0340441D01*
X0246196Y0340479D02*
X0250448Y0340479D01*
X0250448Y0340517D02*
X0246196Y0340517D01*
X0246196Y0340555D02*
X0250448Y0340555D01*
X0250448Y0340593D02*
X0246196Y0340593D01*
X0246196Y0340630D02*
X0250448Y0340630D01*
X0250448Y0340668D02*
X0246196Y0340668D01*
X0246196Y0340706D02*
X0250448Y0340706D01*
X0250448Y0340744D02*
X0246196Y0340744D01*
X0246196Y0340782D02*
X0250448Y0340782D01*
X0250448Y0340820D02*
X0246196Y0340820D01*
X0246196Y0340858D02*
X0250448Y0340858D01*
X0250448Y0340896D02*
X0246196Y0340896D01*
X0246196Y0340934D02*
X0250448Y0340934D01*
X0250448Y0340971D02*
X0246196Y0340971D01*
X0246196Y0341009D02*
X0250448Y0341009D01*
X0250448Y0341047D02*
X0246196Y0341047D01*
X0246196Y0341085D02*
X0250448Y0341085D01*
X0250447Y0341123D02*
X0246196Y0341123D01*
X0246199Y0341161D02*
X0250444Y0341161D01*
X0250441Y0341199D02*
X0246202Y0341199D01*
X0246205Y0341237D02*
X0250438Y0341237D01*
X0250433Y0341274D02*
X0246210Y0341274D01*
X0246219Y0341312D02*
X0250424Y0341312D01*
X0250415Y0341350D02*
X0246228Y0341350D01*
X0246237Y0341388D02*
X0250406Y0341388D01*
X0250395Y0341426D02*
X0246248Y0341426D01*
X0246264Y0341464D02*
X0250379Y0341464D01*
X0250364Y0341502D02*
X0246279Y0341502D01*
X0246295Y0341540D02*
X0250348Y0341540D01*
X0250328Y0341578D02*
X0246315Y0341578D01*
X0246338Y0341615D02*
X0250305Y0341615D01*
X0250282Y0341653D02*
X0246361Y0341653D01*
X0246385Y0341691D02*
X0250258Y0341691D01*
X0250226Y0341729D02*
X0246417Y0341729D01*
X0246449Y0341767D02*
X0250194Y0341767D01*
X0250161Y0341805D02*
X0246482Y0341805D01*
X0246525Y0341843D02*
X0250118Y0341843D01*
X0250073Y0341881D02*
X0246570Y0341881D01*
X0246619Y0341918D02*
X0250024Y0341918D01*
X0249962Y0341956D02*
X0246681Y0341956D01*
X0246748Y0341994D02*
X0249896Y0341994D01*
X0249804Y0342032D02*
X0246839Y0342032D01*
X0246971Y0342070D02*
X0249672Y0342070D01*
X0250426Y0337297D02*
X0246217Y0337297D01*
X0246226Y0337259D02*
X0250417Y0337259D01*
X0250408Y0337221D02*
X0246235Y0337221D01*
X0246244Y0337183D02*
X0250399Y0337183D01*
X0250383Y0337145D02*
X0246260Y0337145D01*
X0246276Y0337108D02*
X0250368Y0337108D01*
X0250352Y0337070D02*
X0246291Y0337070D01*
X0246309Y0337032D02*
X0250334Y0337032D01*
X0250311Y0336994D02*
X0246332Y0336994D01*
X0246355Y0336956D02*
X0250288Y0336956D01*
X0250264Y0336918D02*
X0246379Y0336918D01*
X0246409Y0336880D02*
X0250234Y0336880D01*
X0250201Y0336842D02*
X0246442Y0336842D01*
X0246474Y0336804D02*
X0250169Y0336804D01*
X0250128Y0336767D02*
X0246515Y0336767D01*
X0246559Y0336729D02*
X0250084Y0336729D01*
X0250039Y0336691D02*
X0246604Y0336691D01*
X0246666Y0336653D02*
X0249977Y0336653D01*
X0249915Y0336615D02*
X0246728Y0336615D01*
X0246816Y0336577D02*
X0249827Y0336577D01*
X0249711Y0336539D02*
X0246932Y0336539D01*
X0256561Y0359003D02*
X0262137Y0359003D01*
X0262140Y0358965D02*
X0262128Y0359119D01*
X0262092Y0359270D01*
X0262033Y0359412D01*
X0261953Y0359544D01*
X0261852Y0359661D01*
X0261735Y0359762D01*
X0261603Y0359843D01*
X0261613Y0359836D02*
X0257077Y0359836D01*
X0257016Y0359798D02*
X0261675Y0359798D01*
X0261736Y0359761D02*
X0256954Y0359761D01*
X0256910Y0359723D02*
X0261780Y0359723D01*
X0261825Y0359685D02*
X0256866Y0359685D01*
X0256826Y0359647D02*
X0261865Y0359647D01*
X0261897Y0359609D02*
X0256793Y0359609D01*
X0256761Y0359571D02*
X0261929Y0359571D01*
X0261959Y0359533D02*
X0256731Y0359533D01*
X0256708Y0359495D02*
X0261982Y0359495D01*
X0262005Y0359458D02*
X0256685Y0359458D01*
X0256662Y0359420D02*
X0262029Y0359420D01*
X0262046Y0359382D02*
X0256644Y0359382D01*
X0256629Y0359344D02*
X0262062Y0359344D01*
X0262077Y0359306D02*
X0256613Y0359306D01*
X0256598Y0359268D02*
X0262093Y0359268D01*
X0262102Y0359230D02*
X0256589Y0359230D01*
X0256579Y0359192D02*
X0262111Y0359192D01*
X0262120Y0359155D02*
X0256570Y0359155D01*
X0256562Y0359117D02*
X0262128Y0359117D01*
X0262131Y0359079D02*
X0256562Y0359079D01*
X0256562Y0359041D02*
X0262134Y0359041D01*
X0261526Y0359874D02*
X0257164Y0359874D01*
X0257274Y0359912D02*
X0261416Y0359912D01*
X0259969Y0368814D02*
X0264174Y0368814D01*
X0264165Y0368852D02*
X0259979Y0368852D01*
X0259988Y0368890D02*
X0264156Y0368890D01*
X0264144Y0368928D02*
X0259999Y0368928D01*
X0260014Y0368966D02*
X0264129Y0368966D01*
X0264113Y0369004D02*
X0260030Y0369004D01*
X0260046Y0369042D02*
X0264097Y0369042D01*
X0264077Y0369079D02*
X0260066Y0369079D01*
X0260089Y0369117D02*
X0264054Y0369117D01*
X0264031Y0369155D02*
X0260112Y0369155D01*
X0260136Y0369193D02*
X0264007Y0369193D01*
X0263974Y0369231D02*
X0260169Y0369231D01*
X0260201Y0369269D02*
X0263942Y0369269D01*
X0263910Y0369307D02*
X0260233Y0369307D01*
X0260278Y0369345D02*
X0263865Y0369345D01*
X0263821Y0369382D02*
X0260322Y0369382D01*
X0260372Y0369420D02*
X0263771Y0369420D01*
X0263709Y0369458D02*
X0260434Y0369458D01*
X0260502Y0369496D02*
X0263641Y0369496D01*
X0263550Y0369534D02*
X0260594Y0369534D01*
X0260729Y0369572D02*
X0263414Y0369572D01*
X0350918Y0392983D02*
X0357272Y0392983D01*
X0357274Y0392989D02*
X0357323Y0393550D01*
X0357274Y0394111D01*
X0357129Y0394654D01*
X0356891Y0395164D01*
X0356568Y0395625D01*
X0356170Y0396023D01*
X0355709Y0396346D01*
X0355199Y0396583D01*
X0354656Y0396729D01*
X0354095Y0396778D01*
X0353535Y0396729D01*
X0352991Y0396583D01*
X0352481Y0396346D01*
X0352020Y0396023D01*
X0351622Y0395625D01*
X0351299Y0395164D01*
X0351062Y0394654D01*
X0350916Y0394111D01*
X0350867Y0393550D01*
X0350916Y0392989D01*
X0351062Y0392446D01*
X0351299Y0391936D01*
X0351622Y0391475D01*
X0352020Y0391077D01*
X0352481Y0390754D01*
X0352991Y0390517D01*
X0353535Y0390371D01*
X0354095Y0390322D01*
X0354656Y0390371D01*
X0355199Y0390517D01*
X0355709Y0390754D01*
X0356170Y0391077D01*
X0356568Y0391475D01*
X0356891Y0391936D01*
X0357129Y0392446D01*
X0357274Y0392989D01*
X0357277Y0393020D02*
X0350913Y0393020D01*
X0350910Y0393058D02*
X0357280Y0393058D01*
X0357284Y0393096D02*
X0350907Y0393096D01*
X0350903Y0393134D02*
X0357287Y0393134D01*
X0357290Y0393172D02*
X0350900Y0393172D01*
X0350897Y0393210D02*
X0357294Y0393210D01*
X0357297Y0393248D02*
X0350893Y0393248D01*
X0350890Y0393286D02*
X0357300Y0393286D01*
X0357304Y0393324D02*
X0350887Y0393324D01*
X0350883Y0393361D02*
X0357307Y0393361D01*
X0357310Y0393399D02*
X0350880Y0393399D01*
X0350877Y0393437D02*
X0357314Y0393437D01*
X0357317Y0393475D02*
X0350873Y0393475D01*
X0350870Y0393513D02*
X0357320Y0393513D01*
X0357323Y0393551D02*
X0350867Y0393551D01*
X0350870Y0393589D02*
X0357320Y0393589D01*
X0357317Y0393627D02*
X0350874Y0393627D01*
X0350877Y0393664D02*
X0357313Y0393664D01*
X0357310Y0393702D02*
X0350880Y0393702D01*
X0350884Y0393740D02*
X0357307Y0393740D01*
X0357303Y0393778D02*
X0350887Y0393778D01*
X0350890Y0393816D02*
X0357300Y0393816D01*
X0357297Y0393854D02*
X0350893Y0393854D01*
X0350897Y0393892D02*
X0357293Y0393892D01*
X0357290Y0393930D02*
X0350900Y0393930D01*
X0350903Y0393968D02*
X0357287Y0393968D01*
X0357284Y0394005D02*
X0350907Y0394005D01*
X0350910Y0394043D02*
X0357280Y0394043D01*
X0357277Y0394081D02*
X0350913Y0394081D01*
X0350918Y0394119D02*
X0357272Y0394119D01*
X0357262Y0394157D02*
X0350928Y0394157D01*
X0350939Y0394195D02*
X0357252Y0394195D01*
X0357242Y0394233D02*
X0350949Y0394233D01*
X0350959Y0394271D02*
X0357231Y0394271D01*
X0357221Y0394308D02*
X0350969Y0394308D01*
X0350979Y0394346D02*
X0357211Y0394346D01*
X0357201Y0394384D02*
X0350989Y0394384D01*
X0350999Y0394422D02*
X0357191Y0394422D01*
X0357181Y0394460D02*
X0351010Y0394460D01*
X0351020Y0394498D02*
X0357171Y0394498D01*
X0357160Y0394536D02*
X0351030Y0394536D01*
X0351040Y0394574D02*
X0357150Y0394574D01*
X0357140Y0394611D02*
X0351050Y0394611D01*
X0351060Y0394649D02*
X0357130Y0394649D01*
X0357113Y0394687D02*
X0351077Y0394687D01*
X0351095Y0394725D02*
X0357096Y0394725D01*
X0357078Y0394763D02*
X0351112Y0394763D01*
X0351130Y0394801D02*
X0357060Y0394801D01*
X0357043Y0394839D02*
X0351148Y0394839D01*
X0351165Y0394877D02*
X0357025Y0394877D01*
X0357007Y0394915D02*
X0351183Y0394915D01*
X0351201Y0394952D02*
X0356990Y0394952D01*
X0356972Y0394990D02*
X0351218Y0394990D01*
X0351236Y0395028D02*
X0356954Y0395028D01*
X0356937Y0395066D02*
X0351254Y0395066D01*
X0351271Y0395104D02*
X0356919Y0395104D01*
X0356901Y0395142D02*
X0351289Y0395142D01*
X0351310Y0395180D02*
X0356880Y0395180D01*
X0356853Y0395218D02*
X0351337Y0395218D01*
X0351363Y0395255D02*
X0356827Y0395255D01*
X0356800Y0395293D02*
X0351390Y0395293D01*
X0351416Y0395331D02*
X0356774Y0395331D01*
X0356747Y0395369D02*
X0351443Y0395369D01*
X0351469Y0395407D02*
X0356721Y0395407D01*
X0356694Y0395445D02*
X0351496Y0395445D01*
X0351522Y0395483D02*
X0356668Y0395483D01*
X0356641Y0395521D02*
X0351549Y0395521D01*
X0351575Y0395559D02*
X0356615Y0395559D01*
X0356589Y0395596D02*
X0351602Y0395596D01*
X0351631Y0395634D02*
X0356559Y0395634D01*
X0356521Y0395672D02*
X0351669Y0395672D01*
X0351707Y0395710D02*
X0356484Y0395710D01*
X0356446Y0395748D02*
X0351745Y0395748D01*
X0351783Y0395786D02*
X0356408Y0395786D01*
X0356370Y0395824D02*
X0351820Y0395824D01*
X0351858Y0395862D02*
X0356332Y0395862D01*
X0356294Y0395899D02*
X0351896Y0395899D01*
X0351934Y0395937D02*
X0356256Y0395937D01*
X0356218Y0395975D02*
X0351972Y0395975D01*
X0352010Y0396013D02*
X0356180Y0396013D01*
X0356131Y0396051D02*
X0352060Y0396051D01*
X0352114Y0396089D02*
X0356077Y0396089D01*
X0356022Y0396127D02*
X0352168Y0396127D01*
X0352222Y0396165D02*
X0355968Y0396165D01*
X0355914Y0396203D02*
X0352276Y0396203D01*
X0352330Y0396240D02*
X0355860Y0396240D01*
X0355806Y0396278D02*
X0352385Y0396278D01*
X0352439Y0396316D02*
X0355752Y0396316D01*
X0355691Y0396354D02*
X0352499Y0396354D01*
X0352580Y0396392D02*
X0355610Y0396392D01*
X0355529Y0396430D02*
X0352661Y0396430D01*
X0352743Y0396468D02*
X0355448Y0396468D01*
X0355367Y0396506D02*
X0352824Y0396506D01*
X0352905Y0396543D02*
X0355285Y0396543D01*
X0355204Y0396581D02*
X0352986Y0396581D01*
X0353124Y0396619D02*
X0355066Y0396619D01*
X0354925Y0396657D02*
X0353266Y0396657D01*
X0353407Y0396695D02*
X0354783Y0396695D01*
X0354613Y0396733D02*
X0353577Y0396733D01*
X0354008Y0396771D02*
X0354182Y0396771D01*
X0357262Y0392945D02*
X0350928Y0392945D01*
X0350938Y0392907D02*
X0357252Y0392907D01*
X0357242Y0392869D02*
X0350948Y0392869D01*
X0350958Y0392831D02*
X0357232Y0392831D01*
X0357222Y0392793D02*
X0350969Y0392793D01*
X0350979Y0392755D02*
X0357212Y0392755D01*
X0357201Y0392717D02*
X0350989Y0392717D01*
X0350999Y0392680D02*
X0357191Y0392680D01*
X0357181Y0392642D02*
X0351009Y0392642D01*
X0351019Y0392604D02*
X0357171Y0392604D01*
X0357161Y0392566D02*
X0351029Y0392566D01*
X0351040Y0392528D02*
X0357151Y0392528D01*
X0357141Y0392490D02*
X0351050Y0392490D01*
X0351060Y0392452D02*
X0357130Y0392452D01*
X0357114Y0392414D02*
X0351076Y0392414D01*
X0351094Y0392376D02*
X0357096Y0392376D01*
X0357079Y0392339D02*
X0351112Y0392339D01*
X0351129Y0392301D02*
X0357061Y0392301D01*
X0357043Y0392263D02*
X0351147Y0392263D01*
X0351165Y0392225D02*
X0357026Y0392225D01*
X0357008Y0392187D02*
X0351182Y0392187D01*
X0351200Y0392149D02*
X0356990Y0392149D01*
X0356973Y0392111D02*
X0351218Y0392111D01*
X0351235Y0392073D02*
X0356955Y0392073D01*
X0356937Y0392036D02*
X0351253Y0392036D01*
X0351271Y0391998D02*
X0356920Y0391998D01*
X0356902Y0391960D02*
X0351288Y0391960D01*
X0351309Y0391922D02*
X0356881Y0391922D01*
X0356855Y0391884D02*
X0351336Y0391884D01*
X0351362Y0391846D02*
X0356828Y0391846D01*
X0356802Y0391808D02*
X0351389Y0391808D01*
X0351415Y0391770D02*
X0356775Y0391770D01*
X0356749Y0391733D02*
X0351442Y0391733D01*
X0351468Y0391695D02*
X0356722Y0391695D01*
X0356696Y0391657D02*
X0351495Y0391657D01*
X0351521Y0391619D02*
X0356669Y0391619D01*
X0356643Y0391581D02*
X0351548Y0391581D01*
X0351574Y0391543D02*
X0356616Y0391543D01*
X0356590Y0391505D02*
X0351601Y0391505D01*
X0351629Y0391467D02*
X0356561Y0391467D01*
X0356523Y0391429D02*
X0351667Y0391429D01*
X0351705Y0391392D02*
X0356485Y0391392D01*
X0356447Y0391354D02*
X0351743Y0391354D01*
X0351781Y0391316D02*
X0356409Y0391316D01*
X0356371Y0391278D02*
X0351819Y0391278D01*
X0351857Y0391240D02*
X0356334Y0391240D01*
X0356296Y0391202D02*
X0351895Y0391202D01*
X0351932Y0391164D02*
X0356258Y0391164D01*
X0356220Y0391126D02*
X0351970Y0391126D01*
X0352008Y0391089D02*
X0356182Y0391089D01*
X0356133Y0391051D02*
X0352057Y0391051D01*
X0352111Y0391013D02*
X0356079Y0391013D01*
X0356025Y0390975D02*
X0352166Y0390975D01*
X0352220Y0390937D02*
X0355970Y0390937D01*
X0355916Y0390899D02*
X0352274Y0390899D01*
X0352328Y0390861D02*
X0355862Y0390861D01*
X0355808Y0390823D02*
X0352382Y0390823D01*
X0352436Y0390785D02*
X0355754Y0390785D01*
X0355695Y0390748D02*
X0352495Y0390748D01*
X0352577Y0390710D02*
X0355614Y0390710D01*
X0355532Y0390672D02*
X0352658Y0390672D01*
X0352739Y0390634D02*
X0355451Y0390634D01*
X0355370Y0390596D02*
X0352820Y0390596D01*
X0352902Y0390558D02*
X0355289Y0390558D01*
X0355208Y0390520D02*
X0352983Y0390520D01*
X0353118Y0390482D02*
X0355072Y0390482D01*
X0354931Y0390445D02*
X0353260Y0390445D01*
X0353401Y0390407D02*
X0354789Y0390407D01*
X0354632Y0390369D02*
X0353558Y0390369D01*
X0353990Y0390331D02*
X0354200Y0390331D01*
X0360847Y0390331D02*
X0367343Y0390331D01*
X0367343Y0390302D02*
X0360847Y0390302D01*
X0360847Y0396798D01*
X0367343Y0396798D01*
X0367343Y0390302D01*
X0367343Y0390369D02*
X0360847Y0390369D01*
X0360847Y0390407D02*
X0367343Y0390407D01*
X0367343Y0390445D02*
X0360847Y0390445D01*
X0360847Y0390482D02*
X0367343Y0390482D01*
X0367343Y0390520D02*
X0360847Y0390520D01*
X0360847Y0390558D02*
X0367343Y0390558D01*
X0367343Y0390596D02*
X0360847Y0390596D01*
X0360847Y0390634D02*
X0367343Y0390634D01*
X0367343Y0390672D02*
X0360847Y0390672D01*
X0360847Y0390710D02*
X0367343Y0390710D01*
X0367343Y0390748D02*
X0360847Y0390748D01*
X0360847Y0390785D02*
X0367343Y0390785D01*
X0367343Y0390823D02*
X0360847Y0390823D01*
X0360847Y0390861D02*
X0367343Y0390861D01*
X0367343Y0390899D02*
X0360847Y0390899D01*
X0360847Y0390937D02*
X0367343Y0390937D01*
X0367343Y0390975D02*
X0360847Y0390975D01*
X0360847Y0391013D02*
X0367343Y0391013D01*
X0367343Y0391051D02*
X0360847Y0391051D01*
X0360847Y0391089D02*
X0367343Y0391089D01*
X0367343Y0391126D02*
X0360847Y0391126D01*
X0360847Y0391164D02*
X0367343Y0391164D01*
X0367343Y0391202D02*
X0360847Y0391202D01*
X0360847Y0391240D02*
X0367343Y0391240D01*
X0367343Y0391278D02*
X0360847Y0391278D01*
X0360847Y0391316D02*
X0367343Y0391316D01*
X0367343Y0391354D02*
X0360847Y0391354D01*
X0360847Y0391392D02*
X0367343Y0391392D01*
X0367343Y0391429D02*
X0360847Y0391429D01*
X0360847Y0391467D02*
X0367343Y0391467D01*
X0367343Y0391505D02*
X0360847Y0391505D01*
X0360847Y0391543D02*
X0367343Y0391543D01*
X0367343Y0391581D02*
X0360847Y0391581D01*
X0360847Y0391619D02*
X0367343Y0391619D01*
X0367343Y0391657D02*
X0360847Y0391657D01*
X0360847Y0391695D02*
X0367343Y0391695D01*
X0367343Y0391733D02*
X0360847Y0391733D01*
X0360847Y0391770D02*
X0367343Y0391770D01*
X0367343Y0391808D02*
X0360847Y0391808D01*
X0360847Y0391846D02*
X0367343Y0391846D01*
X0367343Y0391884D02*
X0360847Y0391884D01*
X0360847Y0391922D02*
X0367343Y0391922D01*
X0367343Y0391960D02*
X0360847Y0391960D01*
X0360847Y0391998D02*
X0367343Y0391998D01*
X0367343Y0392036D02*
X0360847Y0392036D01*
X0360847Y0392073D02*
X0367343Y0392073D01*
X0367343Y0392111D02*
X0360847Y0392111D01*
X0360847Y0392149D02*
X0367343Y0392149D01*
X0367343Y0392187D02*
X0360847Y0392187D01*
X0360847Y0392225D02*
X0367343Y0392225D01*
X0367343Y0392263D02*
X0360847Y0392263D01*
X0360847Y0392301D02*
X0367343Y0392301D01*
X0367343Y0392339D02*
X0360847Y0392339D01*
X0360847Y0392376D02*
X0367343Y0392376D01*
X0367343Y0392414D02*
X0360847Y0392414D01*
X0360847Y0392452D02*
X0367343Y0392452D01*
X0367343Y0392490D02*
X0360847Y0392490D01*
X0360847Y0392528D02*
X0367343Y0392528D01*
X0367343Y0392566D02*
X0360847Y0392566D01*
X0360847Y0392604D02*
X0367343Y0392604D01*
X0367343Y0392642D02*
X0360847Y0392642D01*
X0360847Y0392680D02*
X0367343Y0392680D01*
X0367343Y0392717D02*
X0360847Y0392717D01*
X0360847Y0392755D02*
X0367343Y0392755D01*
X0367343Y0392793D02*
X0360847Y0392793D01*
X0360847Y0392831D02*
X0367343Y0392831D01*
X0367343Y0392869D02*
X0360847Y0392869D01*
X0360847Y0392907D02*
X0367343Y0392907D01*
X0367343Y0392945D02*
X0360847Y0392945D01*
X0360847Y0392983D02*
X0367343Y0392983D01*
X0367343Y0393020D02*
X0360847Y0393020D01*
X0360847Y0393058D02*
X0367343Y0393058D01*
X0367343Y0393096D02*
X0360847Y0393096D01*
X0360847Y0393134D02*
X0367343Y0393134D01*
X0367343Y0393172D02*
X0360847Y0393172D01*
X0360847Y0393210D02*
X0367343Y0393210D01*
X0367343Y0393248D02*
X0360847Y0393248D01*
X0360847Y0393286D02*
X0367343Y0393286D01*
X0367343Y0393324D02*
X0360847Y0393324D01*
X0360847Y0393361D02*
X0367343Y0393361D01*
X0367343Y0393399D02*
X0360847Y0393399D01*
X0360847Y0393437D02*
X0367343Y0393437D01*
X0367343Y0393475D02*
X0360847Y0393475D01*
X0360847Y0393513D02*
X0367343Y0393513D01*
X0367343Y0393551D02*
X0360847Y0393551D01*
X0360847Y0393589D02*
X0367343Y0393589D01*
X0367343Y0393627D02*
X0360847Y0393627D01*
X0360847Y0393664D02*
X0367343Y0393664D01*
X0367343Y0393702D02*
X0360847Y0393702D01*
X0360847Y0393740D02*
X0367343Y0393740D01*
X0367343Y0393778D02*
X0360847Y0393778D01*
X0360847Y0393816D02*
X0367343Y0393816D01*
X0367343Y0393854D02*
X0360847Y0393854D01*
X0360847Y0393892D02*
X0367343Y0393892D01*
X0367343Y0393930D02*
X0360847Y0393930D01*
X0360847Y0393968D02*
X0367343Y0393968D01*
X0367343Y0394005D02*
X0360847Y0394005D01*
X0360847Y0394043D02*
X0367343Y0394043D01*
X0367343Y0394081D02*
X0360847Y0394081D01*
X0360847Y0394119D02*
X0367343Y0394119D01*
X0367343Y0394157D02*
X0360847Y0394157D01*
X0360847Y0394195D02*
X0367343Y0394195D01*
X0367343Y0394233D02*
X0360847Y0394233D01*
X0360847Y0394271D02*
X0367343Y0394271D01*
X0367343Y0394308D02*
X0360847Y0394308D01*
X0360847Y0394346D02*
X0367343Y0394346D01*
X0367343Y0394384D02*
X0360847Y0394384D01*
X0360847Y0394422D02*
X0367343Y0394422D01*
X0367343Y0394460D02*
X0360847Y0394460D01*
X0360847Y0394498D02*
X0367343Y0394498D01*
X0367343Y0394536D02*
X0360847Y0394536D01*
X0360847Y0394574D02*
X0367343Y0394574D01*
X0367343Y0394611D02*
X0360847Y0394611D01*
X0360847Y0394649D02*
X0367343Y0394649D01*
X0367343Y0394687D02*
X0360847Y0394687D01*
X0360847Y0394725D02*
X0367343Y0394725D01*
X0367343Y0394763D02*
X0360847Y0394763D01*
X0360847Y0394801D02*
X0367343Y0394801D01*
X0367343Y0394839D02*
X0360847Y0394839D01*
X0360847Y0394877D02*
X0367343Y0394877D01*
X0367343Y0394915D02*
X0360847Y0394915D01*
X0360847Y0394952D02*
X0367343Y0394952D01*
X0367343Y0394990D02*
X0360847Y0394990D01*
X0360847Y0395028D02*
X0367343Y0395028D01*
X0367343Y0395066D02*
X0360847Y0395066D01*
X0360847Y0395104D02*
X0367343Y0395104D01*
X0367343Y0395142D02*
X0360847Y0395142D01*
X0360847Y0395180D02*
X0367343Y0395180D01*
X0367343Y0395218D02*
X0360847Y0395218D01*
X0360847Y0395255D02*
X0367343Y0395255D01*
X0367343Y0395293D02*
X0360847Y0395293D01*
X0360847Y0395331D02*
X0367343Y0395331D01*
X0367343Y0395369D02*
X0360847Y0395369D01*
X0360847Y0395407D02*
X0367343Y0395407D01*
X0367343Y0395445D02*
X0360847Y0395445D01*
X0360847Y0395483D02*
X0367343Y0395483D01*
X0367343Y0395521D02*
X0360847Y0395521D01*
X0360847Y0395559D02*
X0367343Y0395559D01*
X0367343Y0395596D02*
X0360847Y0395596D01*
X0360847Y0395634D02*
X0367343Y0395634D01*
X0367343Y0395672D02*
X0360847Y0395672D01*
X0360847Y0395710D02*
X0367343Y0395710D01*
X0367343Y0395748D02*
X0360847Y0395748D01*
X0360847Y0395786D02*
X0367343Y0395786D01*
X0367343Y0395824D02*
X0360847Y0395824D01*
X0360847Y0395862D02*
X0367343Y0395862D01*
X0367343Y0395899D02*
X0360847Y0395899D01*
X0360847Y0395937D02*
X0367343Y0395937D01*
X0367343Y0395975D02*
X0360847Y0395975D01*
X0360847Y0396013D02*
X0367343Y0396013D01*
X0367343Y0396051D02*
X0360847Y0396051D01*
X0360847Y0396089D02*
X0367343Y0396089D01*
X0367343Y0396127D02*
X0360847Y0396127D01*
X0360847Y0396165D02*
X0367343Y0396165D01*
X0367343Y0396203D02*
X0360847Y0396203D01*
X0360847Y0396240D02*
X0367343Y0396240D01*
X0367343Y0396278D02*
X0360847Y0396278D01*
X0360847Y0396316D02*
X0367343Y0396316D01*
X0367343Y0396354D02*
X0360847Y0396354D01*
X0360847Y0396392D02*
X0367343Y0396392D01*
X0367343Y0396430D02*
X0360847Y0396430D01*
X0360847Y0396468D02*
X0367343Y0396468D01*
X0367343Y0396506D02*
X0360847Y0396506D01*
X0360847Y0396543D02*
X0367343Y0396543D01*
X0367343Y0396581D02*
X0360847Y0396581D01*
X0360847Y0396619D02*
X0367343Y0396619D01*
X0367343Y0396657D02*
X0360847Y0396657D01*
X0360847Y0396695D02*
X0367343Y0396695D01*
X0367343Y0396733D02*
X0360847Y0396733D01*
X0360847Y0396771D02*
X0367343Y0396771D01*
X0170073Y0396800D02*
X0170024Y0397361D01*
X0169879Y0397904D01*
X0169641Y0398414D01*
X0169318Y0398875D01*
X0168920Y0399273D01*
X0168459Y0399596D01*
X0167949Y0399833D01*
X0167406Y0399979D01*
X0166845Y0400028D01*
X0166285Y0399979D01*
X0165741Y0399833D01*
X0165231Y0399596D01*
X0164770Y0399273D01*
X0164372Y0398875D01*
X0164049Y0398414D01*
X0163812Y0397904D01*
X0163666Y0397361D01*
X0163617Y0396800D01*
X0163666Y0396239D01*
X0163812Y0395696D01*
X0164049Y0395186D01*
X0164372Y0394725D01*
X0164770Y0394327D01*
X0165231Y0394004D01*
X0165741Y0393767D01*
X0166285Y0393621D01*
X0166845Y0393572D01*
X0167406Y0393621D01*
X0167949Y0393767D01*
X0168459Y0394004D01*
X0168920Y0394327D01*
X0169318Y0394725D01*
X0169641Y0395186D01*
X0169879Y0395696D01*
X0170024Y0396239D01*
X0170073Y0396800D01*
X0170073Y0396809D02*
X0163618Y0396809D01*
X0163621Y0396846D02*
X0170069Y0396846D01*
X0170066Y0396884D02*
X0163624Y0396884D01*
X0163628Y0396922D02*
X0170063Y0396922D01*
X0170059Y0396960D02*
X0163631Y0396960D01*
X0163634Y0396998D02*
X0170056Y0396998D01*
X0170053Y0397036D02*
X0163638Y0397036D01*
X0163641Y0397074D02*
X0170049Y0397074D01*
X0170046Y0397112D02*
X0163644Y0397112D01*
X0163647Y0397150D02*
X0170043Y0397150D01*
X0170039Y0397187D02*
X0163651Y0397187D01*
X0163654Y0397225D02*
X0170036Y0397225D01*
X0170033Y0397263D02*
X0163657Y0397263D01*
X0163661Y0397301D02*
X0170030Y0397301D01*
X0170026Y0397339D02*
X0163664Y0397339D01*
X0163670Y0397377D02*
X0170020Y0397377D01*
X0170010Y0397415D02*
X0163680Y0397415D01*
X0163691Y0397453D02*
X0170000Y0397453D01*
X0169989Y0397490D02*
X0163701Y0397490D01*
X0163711Y0397528D02*
X0169979Y0397528D01*
X0169969Y0397566D02*
X0163721Y0397566D01*
X0163731Y0397604D02*
X0169959Y0397604D01*
X0169949Y0397642D02*
X0163741Y0397642D01*
X0163752Y0397680D02*
X0169939Y0397680D01*
X0169929Y0397718D02*
X0163762Y0397718D01*
X0163772Y0397756D02*
X0169918Y0397756D01*
X0169908Y0397794D02*
X0163782Y0397794D01*
X0163792Y0397831D02*
X0169898Y0397831D01*
X0169888Y0397869D02*
X0163802Y0397869D01*
X0163813Y0397907D02*
X0169877Y0397907D01*
X0169860Y0397945D02*
X0163831Y0397945D01*
X0163848Y0397983D02*
X0169842Y0397983D01*
X0169824Y0398021D02*
X0163866Y0398021D01*
X0163884Y0398059D02*
X0169807Y0398059D01*
X0169789Y0398097D02*
X0163901Y0398097D01*
X0163919Y0398134D02*
X0169771Y0398134D01*
X0169754Y0398172D02*
X0163937Y0398172D01*
X0163954Y0398210D02*
X0169736Y0398210D01*
X0169718Y0398248D02*
X0163972Y0398248D01*
X0163990Y0398286D02*
X0169701Y0398286D01*
X0169683Y0398324D02*
X0164007Y0398324D01*
X0164025Y0398362D02*
X0169665Y0398362D01*
X0169648Y0398400D02*
X0164043Y0398400D01*
X0164066Y0398438D02*
X0169624Y0398438D01*
X0169598Y0398475D02*
X0164092Y0398475D01*
X0164119Y0398513D02*
X0169572Y0398513D01*
X0169545Y0398551D02*
X0164145Y0398551D01*
X0164172Y0398589D02*
X0169519Y0398589D01*
X0169492Y0398627D02*
X0164198Y0398627D01*
X0164225Y0398665D02*
X0169466Y0398665D01*
X0169439Y0398703D02*
X0164251Y0398703D01*
X0164278Y0398741D02*
X0169413Y0398741D01*
X0169386Y0398778D02*
X0164304Y0398778D01*
X0164331Y0398816D02*
X0169360Y0398816D01*
X0169333Y0398854D02*
X0164357Y0398854D01*
X0164389Y0398892D02*
X0169301Y0398892D01*
X0169264Y0398930D02*
X0164427Y0398930D01*
X0164465Y0398968D02*
X0169226Y0398968D01*
X0169188Y0399006D02*
X0164502Y0399006D01*
X0164540Y0399044D02*
X0169150Y0399044D01*
X0169112Y0399081D02*
X0164578Y0399081D01*
X0164616Y0399119D02*
X0169074Y0399119D01*
X0169036Y0399157D02*
X0164654Y0399157D01*
X0164692Y0399195D02*
X0168998Y0399195D01*
X0168961Y0399233D02*
X0164730Y0399233D01*
X0164768Y0399271D02*
X0168923Y0399271D01*
X0168870Y0399309D02*
X0164821Y0399309D01*
X0164875Y0399347D02*
X0168815Y0399347D01*
X0168761Y0399385D02*
X0164929Y0399385D01*
X0164983Y0399422D02*
X0168707Y0399422D01*
X0168653Y0399460D02*
X0165037Y0399460D01*
X0165092Y0399498D02*
X0168599Y0399498D01*
X0168545Y0399536D02*
X0165146Y0399536D01*
X0165200Y0399574D02*
X0168490Y0399574D01*
X0168425Y0399612D02*
X0165266Y0399612D01*
X0165347Y0399650D02*
X0168343Y0399650D01*
X0168262Y0399688D02*
X0165428Y0399688D01*
X0165509Y0399725D02*
X0168181Y0399725D01*
X0168100Y0399763D02*
X0165591Y0399763D01*
X0165672Y0399801D02*
X0168019Y0399801D01*
X0167928Y0399839D02*
X0165762Y0399839D01*
X0165903Y0399877D02*
X0167787Y0399877D01*
X0167646Y0399915D02*
X0166045Y0399915D01*
X0166186Y0399953D02*
X0167504Y0399953D01*
X0167275Y0399991D02*
X0166416Y0399991D01*
X0166643Y0403589D02*
X0167047Y0403589D01*
X0166845Y0403572D02*
X0167406Y0403621D01*
X0167949Y0403767D01*
X0168459Y0404004D01*
X0168920Y0404327D01*
X0169318Y0404725D01*
X0169641Y0405186D01*
X0169879Y0405696D01*
X0170024Y0406239D01*
X0170073Y0406800D01*
X0170024Y0407361D01*
X0169879Y0407904D01*
X0169641Y0408414D01*
X0169318Y0408875D01*
X0168920Y0409273D01*
X0168459Y0409596D01*
X0167949Y0409833D01*
X0167406Y0409979D01*
X0166845Y0410028D01*
X0166285Y0409979D01*
X0165741Y0409833D01*
X0165231Y0409596D01*
X0164770Y0409273D01*
X0164372Y0408875D01*
X0164049Y0408414D01*
X0163812Y0407904D01*
X0163666Y0407361D01*
X0163617Y0406800D01*
X0163666Y0406239D01*
X0163812Y0405696D01*
X0164049Y0405186D01*
X0164372Y0404725D01*
X0164770Y0404327D01*
X0165231Y0404004D01*
X0165741Y0403767D01*
X0166285Y0403621D01*
X0166845Y0403572D01*
X0166261Y0403627D02*
X0167430Y0403627D01*
X0167571Y0403665D02*
X0166119Y0403665D01*
X0165978Y0403703D02*
X0167712Y0403703D01*
X0167854Y0403741D02*
X0165836Y0403741D01*
X0165715Y0403779D02*
X0167976Y0403779D01*
X0168057Y0403817D02*
X0165633Y0403817D01*
X0165552Y0403855D02*
X0168138Y0403855D01*
X0168219Y0403892D02*
X0165471Y0403892D01*
X0165390Y0403930D02*
X0168301Y0403930D01*
X0168382Y0403968D02*
X0165308Y0403968D01*
X0165228Y0404006D02*
X0168462Y0404006D01*
X0168516Y0404044D02*
X0165174Y0404044D01*
X0165120Y0404082D02*
X0168570Y0404082D01*
X0168624Y0404120D02*
X0165066Y0404120D01*
X0165012Y0404158D02*
X0168678Y0404158D01*
X0168733Y0404195D02*
X0164958Y0404195D01*
X0164903Y0404233D02*
X0168787Y0404233D01*
X0168841Y0404271D02*
X0164849Y0404271D01*
X0164795Y0404309D02*
X0168895Y0404309D01*
X0168941Y0404347D02*
X0164750Y0404347D01*
X0164712Y0404385D02*
X0168978Y0404385D01*
X0169016Y0404423D02*
X0164674Y0404423D01*
X0164636Y0404461D02*
X0169054Y0404461D01*
X0169092Y0404499D02*
X0164598Y0404499D01*
X0164560Y0404536D02*
X0169130Y0404536D01*
X0169168Y0404574D02*
X0164522Y0404574D01*
X0164485Y0404612D02*
X0169206Y0404612D01*
X0169244Y0404650D02*
X0164447Y0404650D01*
X0164409Y0404688D02*
X0169282Y0404688D01*
X0169319Y0404726D02*
X0164371Y0404726D01*
X0164345Y0404764D02*
X0169346Y0404764D01*
X0169372Y0404802D02*
X0164318Y0404802D01*
X0164292Y0404839D02*
X0169399Y0404839D01*
X0169425Y0404877D02*
X0164265Y0404877D01*
X0164239Y0404915D02*
X0169452Y0404915D01*
X0169478Y0404953D02*
X0164212Y0404953D01*
X0164186Y0404991D02*
X0169505Y0404991D01*
X0169531Y0405029D02*
X0164159Y0405029D01*
X0164133Y0405067D02*
X0169558Y0405067D01*
X0169584Y0405105D02*
X0164106Y0405105D01*
X0164080Y0405143D02*
X0169611Y0405143D01*
X0169637Y0405180D02*
X0164053Y0405180D01*
X0164034Y0405218D02*
X0169656Y0405218D01*
X0169674Y0405256D02*
X0164017Y0405256D01*
X0163999Y0405294D02*
X0169691Y0405294D01*
X0169709Y0405332D02*
X0163981Y0405332D01*
X0163964Y0405370D02*
X0169727Y0405370D01*
X0169744Y0405408D02*
X0163946Y0405408D01*
X0163928Y0405446D02*
X0169762Y0405446D01*
X0169780Y0405483D02*
X0163911Y0405483D01*
X0163893Y0405521D02*
X0169797Y0405521D01*
X0169815Y0405559D02*
X0163875Y0405559D01*
X0163858Y0405597D02*
X0169833Y0405597D01*
X0169850Y0405635D02*
X0163840Y0405635D01*
X0163822Y0405673D02*
X0169868Y0405673D01*
X0169883Y0405711D02*
X0163808Y0405711D01*
X0163797Y0405749D02*
X0169893Y0405749D01*
X0169903Y0405787D02*
X0163787Y0405787D01*
X0163777Y0405824D02*
X0169913Y0405824D01*
X0169923Y0405862D02*
X0163767Y0405862D01*
X0163757Y0405900D02*
X0169933Y0405900D01*
X0169944Y0405938D02*
X0163747Y0405938D01*
X0163737Y0405976D02*
X0169954Y0405976D01*
X0169964Y0406014D02*
X0163726Y0406014D01*
X0163716Y0406052D02*
X0169974Y0406052D01*
X0169984Y0406090D02*
X0163706Y0406090D01*
X0163696Y0406127D02*
X0169994Y0406127D01*
X0170004Y0406165D02*
X0163686Y0406165D01*
X0163676Y0406203D02*
X0170015Y0406203D01*
X0170024Y0406241D02*
X0163666Y0406241D01*
X0163663Y0406279D02*
X0170028Y0406279D01*
X0170031Y0406317D02*
X0163659Y0406317D01*
X0163656Y0406355D02*
X0170034Y0406355D01*
X0170038Y0406393D02*
X0163653Y0406393D01*
X0163649Y0406430D02*
X0170041Y0406430D01*
X0170044Y0406468D02*
X0163646Y0406468D01*
X0163643Y0406506D02*
X0170048Y0406506D01*
X0170051Y0406544D02*
X0163639Y0406544D01*
X0163636Y0406582D02*
X0170054Y0406582D01*
X0170058Y0406620D02*
X0163633Y0406620D01*
X0163629Y0406658D02*
X0170061Y0406658D01*
X0170064Y0406696D02*
X0163626Y0406696D01*
X0163623Y0406734D02*
X0170068Y0406734D01*
X0170071Y0406771D02*
X0163619Y0406771D01*
X0163618Y0406809D02*
X0170073Y0406809D01*
X0170069Y0406847D02*
X0163621Y0406847D01*
X0163624Y0406885D02*
X0170066Y0406885D01*
X0170063Y0406923D02*
X0163628Y0406923D01*
X0163631Y0406961D02*
X0170059Y0406961D01*
X0170056Y0406999D02*
X0163634Y0406999D01*
X0163638Y0407037D02*
X0170053Y0407037D01*
X0170049Y0407074D02*
X0163641Y0407074D01*
X0163644Y0407112D02*
X0170046Y0407112D01*
X0170043Y0407150D02*
X0163648Y0407150D01*
X0163651Y0407188D02*
X0170039Y0407188D01*
X0170036Y0407226D02*
X0163654Y0407226D01*
X0163658Y0407264D02*
X0170033Y0407264D01*
X0170029Y0407302D02*
X0163661Y0407302D01*
X0163664Y0407340D02*
X0170026Y0407340D01*
X0170020Y0407378D02*
X0163671Y0407378D01*
X0163681Y0407415D02*
X0170010Y0407415D01*
X0169999Y0407453D02*
X0163691Y0407453D01*
X0163701Y0407491D02*
X0169989Y0407491D01*
X0169979Y0407529D02*
X0163711Y0407529D01*
X0163721Y0407567D02*
X0169969Y0407567D01*
X0169959Y0407605D02*
X0163731Y0407605D01*
X0163742Y0407643D02*
X0169949Y0407643D01*
X0169939Y0407681D02*
X0163752Y0407681D01*
X0163762Y0407718D02*
X0169928Y0407718D01*
X0169918Y0407756D02*
X0163772Y0407756D01*
X0163782Y0407794D02*
X0169908Y0407794D01*
X0169898Y0407832D02*
X0163792Y0407832D01*
X0163802Y0407870D02*
X0169888Y0407870D01*
X0169877Y0407908D02*
X0163813Y0407908D01*
X0163831Y0407946D02*
X0169859Y0407946D01*
X0169842Y0407984D02*
X0163849Y0407984D01*
X0163866Y0408022D02*
X0169824Y0408022D01*
X0169806Y0408059D02*
X0163884Y0408059D01*
X0163902Y0408097D02*
X0169789Y0408097D01*
X0169771Y0408135D02*
X0163919Y0408135D01*
X0163937Y0408173D02*
X0169753Y0408173D01*
X0169736Y0408211D02*
X0163955Y0408211D01*
X0163972Y0408249D02*
X0169718Y0408249D01*
X0169700Y0408287D02*
X0163990Y0408287D01*
X0164008Y0408325D02*
X0169683Y0408325D01*
X0169665Y0408362D02*
X0164025Y0408362D01*
X0164043Y0408400D02*
X0169647Y0408400D01*
X0169624Y0408438D02*
X0164066Y0408438D01*
X0164093Y0408476D02*
X0169598Y0408476D01*
X0169571Y0408514D02*
X0164119Y0408514D01*
X0164146Y0408552D02*
X0169545Y0408552D01*
X0169518Y0408590D02*
X0164172Y0408590D01*
X0164199Y0408628D02*
X0169492Y0408628D01*
X0169465Y0408665D02*
X0164225Y0408665D01*
X0164252Y0408703D02*
X0169439Y0408703D01*
X0169412Y0408741D02*
X0164278Y0408741D01*
X0164305Y0408779D02*
X0169386Y0408779D01*
X0169359Y0408817D02*
X0164331Y0408817D01*
X0164358Y0408855D02*
X0169333Y0408855D01*
X0169301Y0408893D02*
X0164389Y0408893D01*
X0164427Y0408931D02*
X0169263Y0408931D01*
X0169225Y0408969D02*
X0164465Y0408969D01*
X0164503Y0409006D02*
X0169187Y0409006D01*
X0169149Y0409044D02*
X0164541Y0409044D01*
X0164579Y0409082D02*
X0169111Y0409082D01*
X0169073Y0409120D02*
X0164617Y0409120D01*
X0164655Y0409158D02*
X0169036Y0409158D01*
X0168998Y0409196D02*
X0164693Y0409196D01*
X0164730Y0409234D02*
X0168960Y0409234D01*
X0168922Y0409272D02*
X0164768Y0409272D01*
X0164822Y0409309D02*
X0168869Y0409309D01*
X0168814Y0409347D02*
X0164876Y0409347D01*
X0164930Y0409385D02*
X0168760Y0409385D01*
X0168706Y0409423D02*
X0164984Y0409423D01*
X0165038Y0409461D02*
X0168652Y0409461D01*
X0168598Y0409499D02*
X0165093Y0409499D01*
X0165147Y0409537D02*
X0168544Y0409537D01*
X0168489Y0409575D02*
X0165201Y0409575D01*
X0165267Y0409613D02*
X0168423Y0409613D01*
X0168342Y0409650D02*
X0165348Y0409650D01*
X0165430Y0409688D02*
X0168261Y0409688D01*
X0168180Y0409726D02*
X0165511Y0409726D01*
X0165592Y0409764D02*
X0168098Y0409764D01*
X0168017Y0409802D02*
X0165673Y0409802D01*
X0165765Y0409840D02*
X0167926Y0409840D01*
X0167784Y0409878D02*
X0165906Y0409878D01*
X0166047Y0409916D02*
X0167643Y0409916D01*
X0167502Y0409953D02*
X0166189Y0409953D01*
X0166424Y0409991D02*
X0167267Y0409991D01*
X0170071Y0396771D02*
X0163619Y0396771D01*
X0163623Y0396733D02*
X0170068Y0396733D01*
X0170064Y0396695D02*
X0163626Y0396695D01*
X0163629Y0396657D02*
X0170061Y0396657D01*
X0170058Y0396619D02*
X0163633Y0396619D01*
X0163636Y0396581D02*
X0170054Y0396581D01*
X0170051Y0396543D02*
X0163639Y0396543D01*
X0163643Y0396506D02*
X0170048Y0396506D01*
X0170044Y0396468D02*
X0163646Y0396468D01*
X0163649Y0396430D02*
X0170041Y0396430D01*
X0170038Y0396392D02*
X0163653Y0396392D01*
X0163656Y0396354D02*
X0170034Y0396354D01*
X0170031Y0396316D02*
X0163659Y0396316D01*
X0163663Y0396278D02*
X0170028Y0396278D01*
X0170024Y0396240D02*
X0163666Y0396240D01*
X0163676Y0396203D02*
X0170014Y0396203D01*
X0170004Y0396165D02*
X0163686Y0396165D01*
X0163696Y0396127D02*
X0169994Y0396127D01*
X0169984Y0396089D02*
X0163706Y0396089D01*
X0163716Y0396051D02*
X0169974Y0396051D01*
X0169964Y0396013D02*
X0163727Y0396013D01*
X0163737Y0395975D02*
X0169953Y0395975D01*
X0169943Y0395937D02*
X0163747Y0395937D01*
X0163757Y0395899D02*
X0169933Y0395899D01*
X0169923Y0395862D02*
X0163767Y0395862D01*
X0163777Y0395824D02*
X0169913Y0395824D01*
X0169903Y0395786D02*
X0163788Y0395786D01*
X0163798Y0395748D02*
X0169893Y0395748D01*
X0169882Y0395710D02*
X0163808Y0395710D01*
X0163823Y0395672D02*
X0169868Y0395672D01*
X0169850Y0395634D02*
X0163840Y0395634D01*
X0163858Y0395596D02*
X0169832Y0395596D01*
X0169815Y0395559D02*
X0163876Y0395559D01*
X0163893Y0395521D02*
X0169797Y0395521D01*
X0169779Y0395483D02*
X0163911Y0395483D01*
X0163929Y0395445D02*
X0169762Y0395445D01*
X0169744Y0395407D02*
X0163946Y0395407D01*
X0163964Y0395369D02*
X0169726Y0395369D01*
X0169709Y0395331D02*
X0163982Y0395331D01*
X0163999Y0395293D02*
X0169691Y0395293D01*
X0169673Y0395255D02*
X0164017Y0395255D01*
X0164035Y0395218D02*
X0169656Y0395218D01*
X0169637Y0395180D02*
X0164054Y0395180D01*
X0164080Y0395142D02*
X0169610Y0395142D01*
X0169584Y0395104D02*
X0164107Y0395104D01*
X0164133Y0395066D02*
X0169557Y0395066D01*
X0169531Y0395028D02*
X0164160Y0395028D01*
X0164186Y0394990D02*
X0169504Y0394990D01*
X0169478Y0394952D02*
X0164213Y0394952D01*
X0164239Y0394915D02*
X0169451Y0394915D01*
X0169425Y0394877D02*
X0164266Y0394877D01*
X0164292Y0394839D02*
X0169398Y0394839D01*
X0169372Y0394801D02*
X0164319Y0394801D01*
X0164345Y0394763D02*
X0169345Y0394763D01*
X0169319Y0394725D02*
X0164372Y0394725D01*
X0164409Y0394687D02*
X0169281Y0394687D01*
X0169243Y0394649D02*
X0164447Y0394649D01*
X0164485Y0394611D02*
X0169205Y0394611D01*
X0169167Y0394574D02*
X0164523Y0394574D01*
X0164561Y0394536D02*
X0169129Y0394536D01*
X0169091Y0394498D02*
X0164599Y0394498D01*
X0164637Y0394460D02*
X0169054Y0394460D01*
X0169016Y0394422D02*
X0164675Y0394422D01*
X0164713Y0394384D02*
X0168978Y0394384D01*
X0168940Y0394346D02*
X0164750Y0394346D01*
X0164796Y0394308D02*
X0168894Y0394308D01*
X0168840Y0394271D02*
X0164850Y0394271D01*
X0164904Y0394233D02*
X0168786Y0394233D01*
X0168732Y0394195D02*
X0164959Y0394195D01*
X0165013Y0394157D02*
X0168677Y0394157D01*
X0168623Y0394119D02*
X0165067Y0394119D01*
X0165121Y0394081D02*
X0168569Y0394081D01*
X0168515Y0394043D02*
X0165175Y0394043D01*
X0165229Y0394005D02*
X0168461Y0394005D01*
X0168380Y0393968D02*
X0165310Y0393968D01*
X0165391Y0393930D02*
X0168299Y0393930D01*
X0168218Y0393892D02*
X0165472Y0393892D01*
X0165554Y0393854D02*
X0168137Y0393854D01*
X0168055Y0393816D02*
X0165635Y0393816D01*
X0165716Y0393778D02*
X0167974Y0393778D01*
X0167851Y0393740D02*
X0165839Y0393740D01*
X0165980Y0393702D02*
X0167710Y0393702D01*
X0167568Y0393664D02*
X0166122Y0393664D01*
X0166263Y0393627D02*
X0167427Y0393627D01*
X0167039Y0393589D02*
X0166651Y0393589D01*
X0166845Y0390028D02*
X0166285Y0389979D01*
X0165741Y0389833D01*
X0165231Y0389596D01*
X0164770Y0389273D01*
X0164372Y0388875D01*
X0164049Y0388414D01*
X0163812Y0387904D01*
X0163666Y0387361D01*
X0163617Y0386800D01*
X0163666Y0386239D01*
X0163812Y0385696D01*
X0164049Y0385186D01*
X0164372Y0384725D01*
X0164770Y0384327D01*
X0165231Y0384004D01*
X0165741Y0383767D01*
X0166285Y0383621D01*
X0166845Y0383572D01*
X0167406Y0383621D01*
X0167949Y0383767D01*
X0168459Y0384004D01*
X0168920Y0384327D01*
X0169318Y0384725D01*
X0169641Y0385186D01*
X0169879Y0385696D01*
X0170024Y0386239D01*
X0170073Y0386800D01*
X0170024Y0387361D01*
X0169879Y0387904D01*
X0169641Y0388414D01*
X0169318Y0388875D01*
X0168920Y0389273D01*
X0168459Y0389596D01*
X0167949Y0389833D01*
X0167406Y0389979D01*
X0166845Y0390028D01*
X0166839Y0390028D02*
X0166851Y0390028D01*
X0167282Y0389990D02*
X0166408Y0389990D01*
X0166184Y0389952D02*
X0167507Y0389952D01*
X0167648Y0389914D02*
X0166042Y0389914D01*
X0165901Y0389876D02*
X0167790Y0389876D01*
X0167931Y0389838D02*
X0165759Y0389838D01*
X0165670Y0389801D02*
X0168020Y0389801D01*
X0168101Y0389763D02*
X0165589Y0389763D01*
X0165508Y0389725D02*
X0168182Y0389725D01*
X0168264Y0389687D02*
X0165427Y0389687D01*
X0165345Y0389649D02*
X0168345Y0389649D01*
X0168426Y0389611D02*
X0165264Y0389611D01*
X0165199Y0389573D02*
X0168491Y0389573D01*
X0168546Y0389535D02*
X0165145Y0389535D01*
X0165091Y0389498D02*
X0168600Y0389498D01*
X0168654Y0389460D02*
X0165036Y0389460D01*
X0164982Y0389422D02*
X0168708Y0389422D01*
X0168762Y0389384D02*
X0164928Y0389384D01*
X0164874Y0389346D02*
X0168816Y0389346D01*
X0168870Y0389308D02*
X0164820Y0389308D01*
X0164767Y0389270D02*
X0168923Y0389270D01*
X0168961Y0389232D02*
X0164729Y0389232D01*
X0164691Y0389194D02*
X0168999Y0389194D01*
X0169037Y0389157D02*
X0164653Y0389157D01*
X0164615Y0389119D02*
X0169075Y0389119D01*
X0169113Y0389081D02*
X0164578Y0389081D01*
X0164540Y0389043D02*
X0169151Y0389043D01*
X0169189Y0389005D02*
X0164502Y0389005D01*
X0164464Y0388967D02*
X0169226Y0388967D01*
X0169264Y0388929D02*
X0164426Y0388929D01*
X0164388Y0388891D02*
X0169302Y0388891D01*
X0169334Y0388854D02*
X0164357Y0388854D01*
X0164330Y0388816D02*
X0169360Y0388816D01*
X0169387Y0388778D02*
X0164304Y0388778D01*
X0164277Y0388740D02*
X0169413Y0388740D01*
X0169440Y0388702D02*
X0164251Y0388702D01*
X0164224Y0388664D02*
X0169466Y0388664D01*
X0169493Y0388626D02*
X0164198Y0388626D01*
X0164171Y0388588D02*
X0169519Y0388588D01*
X0169545Y0388550D02*
X0164145Y0388550D01*
X0164118Y0388513D02*
X0169572Y0388513D01*
X0169598Y0388475D02*
X0164092Y0388475D01*
X0164065Y0388437D02*
X0169625Y0388437D01*
X0169648Y0388399D02*
X0164042Y0388399D01*
X0164025Y0388361D02*
X0169666Y0388361D01*
X0169683Y0388323D02*
X0164007Y0388323D01*
X0163989Y0388285D02*
X0169701Y0388285D01*
X0169719Y0388247D02*
X0163972Y0388247D01*
X0163954Y0388210D02*
X0169736Y0388210D01*
X0169754Y0388172D02*
X0163936Y0388172D01*
X0163919Y0388134D02*
X0169772Y0388134D01*
X0169789Y0388096D02*
X0163901Y0388096D01*
X0163883Y0388058D02*
X0169807Y0388058D01*
X0169825Y0388020D02*
X0163866Y0388020D01*
X0163848Y0387982D02*
X0169842Y0387982D01*
X0169860Y0387944D02*
X0163830Y0387944D01*
X0163813Y0387906D02*
X0169878Y0387906D01*
X0169888Y0387869D02*
X0163802Y0387869D01*
X0163792Y0387831D02*
X0169898Y0387831D01*
X0169908Y0387793D02*
X0163782Y0387793D01*
X0163772Y0387755D02*
X0169919Y0387755D01*
X0169929Y0387717D02*
X0163762Y0387717D01*
X0163751Y0387679D02*
X0169939Y0387679D01*
X0169949Y0387641D02*
X0163741Y0387641D01*
X0163731Y0387603D02*
X0169959Y0387603D01*
X0169969Y0387566D02*
X0163721Y0387566D01*
X0163711Y0387528D02*
X0169980Y0387528D01*
X0169990Y0387490D02*
X0163701Y0387490D01*
X0163690Y0387452D02*
X0170000Y0387452D01*
X0170010Y0387414D02*
X0163680Y0387414D01*
X0163670Y0387376D02*
X0170020Y0387376D01*
X0170026Y0387338D02*
X0163664Y0387338D01*
X0163661Y0387300D02*
X0170030Y0387300D01*
X0170033Y0387262D02*
X0163657Y0387262D01*
X0163654Y0387225D02*
X0170036Y0387225D01*
X0170040Y0387187D02*
X0163651Y0387187D01*
X0163647Y0387149D02*
X0170043Y0387149D01*
X0170046Y0387111D02*
X0163644Y0387111D01*
X0163641Y0387073D02*
X0170050Y0387073D01*
X0170053Y0387035D02*
X0163637Y0387035D01*
X0163634Y0386997D02*
X0170056Y0386997D01*
X0170059Y0386959D02*
X0163631Y0386959D01*
X0163627Y0386922D02*
X0170063Y0386922D01*
X0170066Y0386884D02*
X0163624Y0386884D01*
X0163621Y0386846D02*
X0170069Y0386846D01*
X0170073Y0386808D02*
X0163617Y0386808D01*
X0163619Y0386770D02*
X0170071Y0386770D01*
X0170068Y0386732D02*
X0163623Y0386732D01*
X0163626Y0386694D02*
X0170064Y0386694D01*
X0170061Y0386656D02*
X0163629Y0386656D01*
X0163633Y0386619D02*
X0170058Y0386619D01*
X0170054Y0386581D02*
X0163636Y0386581D01*
X0163639Y0386543D02*
X0170051Y0386543D01*
X0170048Y0386505D02*
X0163643Y0386505D01*
X0163646Y0386467D02*
X0170044Y0386467D01*
X0170041Y0386429D02*
X0163649Y0386429D01*
X0163653Y0386391D02*
X0170038Y0386391D01*
X0170034Y0386353D02*
X0163656Y0386353D01*
X0163659Y0386315D02*
X0170031Y0386315D01*
X0170028Y0386278D02*
X0163663Y0386278D01*
X0163666Y0386240D02*
X0170024Y0386240D01*
X0170014Y0386202D02*
X0163676Y0386202D01*
X0163686Y0386164D02*
X0170004Y0386164D01*
X0169994Y0386126D02*
X0163696Y0386126D01*
X0163707Y0386088D02*
X0169984Y0386088D01*
X0169974Y0386050D02*
X0163717Y0386050D01*
X0163727Y0386012D02*
X0169963Y0386012D01*
X0169953Y0385975D02*
X0163737Y0385975D01*
X0163747Y0385937D02*
X0169943Y0385937D01*
X0169933Y0385899D02*
X0163757Y0385899D01*
X0163767Y0385861D02*
X0169923Y0385861D01*
X0169913Y0385823D02*
X0163778Y0385823D01*
X0163788Y0385785D02*
X0169903Y0385785D01*
X0169892Y0385747D02*
X0163798Y0385747D01*
X0163808Y0385709D02*
X0169882Y0385709D01*
X0169867Y0385671D02*
X0163823Y0385671D01*
X0163841Y0385634D02*
X0169850Y0385634D01*
X0169832Y0385596D02*
X0163858Y0385596D01*
X0163876Y0385558D02*
X0169814Y0385558D01*
X0169797Y0385520D02*
X0163894Y0385520D01*
X0163911Y0385482D02*
X0169779Y0385482D01*
X0169761Y0385444D02*
X0163929Y0385444D01*
X0163947Y0385406D02*
X0169744Y0385406D01*
X0169726Y0385368D02*
X0163964Y0385368D01*
X0163982Y0385331D02*
X0169708Y0385331D01*
X0169691Y0385293D02*
X0164000Y0385293D01*
X0164017Y0385255D02*
X0169673Y0385255D01*
X0169655Y0385217D02*
X0164035Y0385217D01*
X0164054Y0385179D02*
X0169636Y0385179D01*
X0169610Y0385141D02*
X0164081Y0385141D01*
X0164107Y0385103D02*
X0169583Y0385103D01*
X0169557Y0385065D02*
X0164134Y0385065D01*
X0164160Y0385027D02*
X0169530Y0385027D01*
X0169504Y0384990D02*
X0164187Y0384990D01*
X0164213Y0384952D02*
X0169477Y0384952D01*
X0169451Y0384914D02*
X0164240Y0384914D01*
X0164266Y0384876D02*
X0169424Y0384876D01*
X0169398Y0384838D02*
X0164293Y0384838D01*
X0164319Y0384800D02*
X0169371Y0384800D01*
X0169345Y0384762D02*
X0164346Y0384762D01*
X0164372Y0384724D02*
X0169318Y0384724D01*
X0169280Y0384687D02*
X0164410Y0384687D01*
X0164448Y0384649D02*
X0169242Y0384649D01*
X0169204Y0384611D02*
X0164486Y0384611D01*
X0164524Y0384573D02*
X0169166Y0384573D01*
X0169129Y0384535D02*
X0164562Y0384535D01*
X0164600Y0384497D02*
X0169091Y0384497D01*
X0169053Y0384459D02*
X0164637Y0384459D01*
X0164675Y0384421D02*
X0169015Y0384421D01*
X0168977Y0384384D02*
X0164713Y0384384D01*
X0164751Y0384346D02*
X0168939Y0384346D01*
X0168893Y0384308D02*
X0164797Y0384308D01*
X0164851Y0384270D02*
X0168839Y0384270D01*
X0168785Y0384232D02*
X0164905Y0384232D01*
X0164960Y0384194D02*
X0168731Y0384194D01*
X0168676Y0384156D02*
X0165014Y0384156D01*
X0165068Y0384118D02*
X0168622Y0384118D01*
X0168568Y0384080D02*
X0165122Y0384080D01*
X0165176Y0384043D02*
X0168514Y0384043D01*
X0168460Y0384005D02*
X0165230Y0384005D01*
X0165311Y0383967D02*
X0168379Y0383967D01*
X0168298Y0383929D02*
X0165393Y0383929D01*
X0165474Y0383891D02*
X0168216Y0383891D01*
X0168135Y0383853D02*
X0165555Y0383853D01*
X0165636Y0383815D02*
X0168054Y0383815D01*
X0167973Y0383777D02*
X0165717Y0383777D01*
X0165842Y0383740D02*
X0167849Y0383740D01*
X0167707Y0383702D02*
X0165983Y0383702D01*
X0166124Y0383664D02*
X0167566Y0383664D01*
X0167424Y0383626D02*
X0166266Y0383626D01*
X0166659Y0383588D02*
X0167031Y0383588D01*
X0166845Y0380028D02*
X0166285Y0379979D01*
X0165741Y0379833D01*
X0165231Y0379596D01*
X0164770Y0379273D01*
X0164372Y0378875D01*
X0164049Y0378414D01*
X0163812Y0377904D01*
X0163666Y0377361D01*
X0163617Y0376800D01*
X0163666Y0376239D01*
X0170024Y0376239D01*
X0170073Y0376800D01*
X0170024Y0377361D01*
X0169879Y0377904D01*
X0169641Y0378414D01*
X0169318Y0378875D01*
X0168920Y0379273D01*
X0168459Y0379596D01*
X0167949Y0379833D01*
X0167406Y0379979D01*
X0166845Y0380028D01*
X0166832Y0380027D02*
X0166859Y0380027D01*
X0167290Y0379989D02*
X0166400Y0379989D01*
X0166181Y0379951D02*
X0167509Y0379951D01*
X0167651Y0379914D02*
X0166040Y0379914D01*
X0165898Y0379876D02*
X0167792Y0379876D01*
X0167934Y0379838D02*
X0165757Y0379838D01*
X0165669Y0379800D02*
X0168022Y0379800D01*
X0168103Y0379762D02*
X0165588Y0379762D01*
X0165506Y0379724D02*
X0168184Y0379724D01*
X0168265Y0379686D02*
X0165425Y0379686D01*
X0165344Y0379648D02*
X0168346Y0379648D01*
X0168428Y0379610D02*
X0165263Y0379610D01*
X0165198Y0379573D02*
X0168492Y0379573D01*
X0168547Y0379535D02*
X0165144Y0379535D01*
X0165090Y0379497D02*
X0168601Y0379497D01*
X0168655Y0379459D02*
X0165035Y0379459D01*
X0164981Y0379421D02*
X0168709Y0379421D01*
X0168763Y0379383D02*
X0164927Y0379383D01*
X0164873Y0379345D02*
X0168817Y0379345D01*
X0168871Y0379307D02*
X0164819Y0379307D01*
X0164766Y0379270D02*
X0168924Y0379270D01*
X0168962Y0379232D02*
X0164728Y0379232D01*
X0164690Y0379194D02*
X0169000Y0379194D01*
X0169038Y0379156D02*
X0164653Y0379156D01*
X0164615Y0379118D02*
X0169076Y0379118D01*
X0169113Y0379080D02*
X0164577Y0379080D01*
X0164539Y0379042D02*
X0169151Y0379042D01*
X0169189Y0379004D02*
X0164501Y0379004D01*
X0164463Y0378966D02*
X0169227Y0378966D01*
X0169265Y0378929D02*
X0164425Y0378929D01*
X0164387Y0378891D02*
X0169303Y0378891D01*
X0169334Y0378853D02*
X0164356Y0378853D01*
X0164330Y0378815D02*
X0169361Y0378815D01*
X0169387Y0378777D02*
X0164303Y0378777D01*
X0164277Y0378739D02*
X0169413Y0378739D01*
X0169440Y0378701D02*
X0164250Y0378701D01*
X0164224Y0378663D02*
X0169466Y0378663D01*
X0169493Y0378626D02*
X0164197Y0378626D01*
X0164171Y0378588D02*
X0169519Y0378588D01*
X0169546Y0378550D02*
X0164144Y0378550D01*
X0164118Y0378512D02*
X0169572Y0378512D01*
X0169599Y0378474D02*
X0164091Y0378474D01*
X0164065Y0378436D02*
X0169625Y0378436D01*
X0169648Y0378398D02*
X0164042Y0378398D01*
X0164024Y0378360D02*
X0169666Y0378360D01*
X0169684Y0378322D02*
X0164007Y0378322D01*
X0163989Y0378285D02*
X0169701Y0378285D01*
X0169719Y0378247D02*
X0163971Y0378247D01*
X0163954Y0378209D02*
X0169737Y0378209D01*
X0169754Y0378171D02*
X0163936Y0378171D01*
X0163918Y0378133D02*
X0169772Y0378133D01*
X0169790Y0378095D02*
X0163901Y0378095D01*
X0163883Y0378057D02*
X0169807Y0378057D01*
X0169825Y0378019D02*
X0163865Y0378019D01*
X0163848Y0377982D02*
X0169843Y0377982D01*
X0169860Y0377944D02*
X0163830Y0377944D01*
X0163812Y0377906D02*
X0169878Y0377906D01*
X0169888Y0377868D02*
X0163802Y0377868D01*
X0163792Y0377830D02*
X0169899Y0377830D01*
X0169909Y0377792D02*
X0163782Y0377792D01*
X0163771Y0377754D02*
X0169919Y0377754D01*
X0169929Y0377716D02*
X0163761Y0377716D01*
X0163751Y0377679D02*
X0169939Y0377679D01*
X0169949Y0377641D02*
X0163741Y0377641D01*
X0163731Y0377603D02*
X0169959Y0377603D01*
X0169970Y0377565D02*
X0163721Y0377565D01*
X0163711Y0377527D02*
X0169980Y0377527D01*
X0169990Y0377489D02*
X0163700Y0377489D01*
X0163690Y0377451D02*
X0170000Y0377451D01*
X0170010Y0377413D02*
X0163680Y0377413D01*
X0163670Y0377375D02*
X0170020Y0377375D01*
X0170026Y0377338D02*
X0163664Y0377338D01*
X0163661Y0377300D02*
X0170030Y0377300D01*
X0170033Y0377262D02*
X0163657Y0377262D01*
X0163654Y0377224D02*
X0170036Y0377224D01*
X0170040Y0377186D02*
X0163651Y0377186D01*
X0163647Y0377148D02*
X0170043Y0377148D01*
X0170046Y0377110D02*
X0163644Y0377110D01*
X0163641Y0377072D02*
X0170050Y0377072D01*
X0170053Y0377035D02*
X0163637Y0377035D01*
X0163634Y0376997D02*
X0170056Y0376997D01*
X0170060Y0376959D02*
X0163631Y0376959D01*
X0163627Y0376921D02*
X0170063Y0376921D01*
X0170066Y0376883D02*
X0163624Y0376883D01*
X0163621Y0376845D02*
X0170070Y0376845D01*
X0170073Y0376807D02*
X0163617Y0376807D01*
X0163619Y0376769D02*
X0170071Y0376769D01*
X0170067Y0376731D02*
X0163623Y0376731D01*
X0163626Y0376694D02*
X0170064Y0376694D01*
X0170061Y0376656D02*
X0163629Y0376656D01*
X0163633Y0376618D02*
X0170057Y0376618D01*
X0170054Y0376580D02*
X0163636Y0376580D01*
X0163639Y0376542D02*
X0170051Y0376542D01*
X0170048Y0376504D02*
X0163643Y0376504D01*
X0163646Y0376466D02*
X0170044Y0376466D01*
X0170041Y0376428D02*
X0163649Y0376428D01*
X0163653Y0376391D02*
X0170038Y0376391D01*
X0170034Y0376353D02*
X0163656Y0376353D01*
X0163659Y0376315D02*
X0170031Y0376315D01*
X0170028Y0376277D02*
X0163663Y0376277D01*
X0163666Y0376239D02*
X0163812Y0375696D01*
X0164049Y0375186D01*
X0164372Y0374725D01*
X0164770Y0374327D01*
X0165231Y0374004D01*
X0165741Y0373767D01*
X0166285Y0373621D01*
X0166845Y0373572D01*
X0167406Y0373621D01*
X0167949Y0373767D01*
X0168459Y0374004D01*
X0165232Y0374004D01*
X0165177Y0374042D02*
X0168513Y0374042D01*
X0168459Y0374004D02*
X0168920Y0374327D01*
X0169318Y0374725D01*
X0169641Y0375186D01*
X0169879Y0375696D01*
X0170024Y0376239D01*
X0170014Y0376201D02*
X0163676Y0376201D01*
X0163686Y0376163D02*
X0170004Y0376163D01*
X0169994Y0376125D02*
X0163697Y0376125D01*
X0163707Y0376087D02*
X0169984Y0376087D01*
X0169973Y0376050D02*
X0163717Y0376050D01*
X0163727Y0376012D02*
X0169963Y0376012D01*
X0169953Y0375974D02*
X0163737Y0375974D01*
X0163747Y0375936D02*
X0169943Y0375936D01*
X0169933Y0375898D02*
X0163757Y0375898D01*
X0163768Y0375860D02*
X0169923Y0375860D01*
X0169913Y0375822D02*
X0163778Y0375822D01*
X0163788Y0375784D02*
X0169902Y0375784D01*
X0169892Y0375747D02*
X0163798Y0375747D01*
X0163808Y0375709D02*
X0169882Y0375709D01*
X0169867Y0375671D02*
X0163823Y0375671D01*
X0163841Y0375633D02*
X0169849Y0375633D01*
X0169832Y0375595D02*
X0163859Y0375595D01*
X0163876Y0375557D02*
X0169814Y0375557D01*
X0169796Y0375519D02*
X0163894Y0375519D01*
X0163912Y0375481D02*
X0169779Y0375481D01*
X0169761Y0375444D02*
X0163929Y0375444D01*
X0163947Y0375406D02*
X0169743Y0375406D01*
X0169726Y0375368D02*
X0163965Y0375368D01*
X0163982Y0375330D02*
X0169708Y0375330D01*
X0169690Y0375292D02*
X0164000Y0375292D01*
X0164018Y0375254D02*
X0169673Y0375254D01*
X0169655Y0375216D02*
X0164035Y0375216D01*
X0164055Y0375178D02*
X0169636Y0375178D01*
X0169609Y0375140D02*
X0164081Y0375140D01*
X0164108Y0375103D02*
X0169583Y0375103D01*
X0169556Y0375065D02*
X0164134Y0375065D01*
X0164161Y0375027D02*
X0169530Y0375027D01*
X0169503Y0374989D02*
X0164187Y0374989D01*
X0164214Y0374951D02*
X0169477Y0374951D01*
X0169450Y0374913D02*
X0164240Y0374913D01*
X0164267Y0374875D02*
X0169424Y0374875D01*
X0169397Y0374837D02*
X0164293Y0374837D01*
X0164320Y0374800D02*
X0169371Y0374800D01*
X0169344Y0374762D02*
X0164346Y0374762D01*
X0164373Y0374724D02*
X0169317Y0374724D01*
X0169279Y0374686D02*
X0164411Y0374686D01*
X0164449Y0374648D02*
X0169242Y0374648D01*
X0169204Y0374610D02*
X0164487Y0374610D01*
X0164524Y0374572D02*
X0169166Y0374572D01*
X0169128Y0374534D02*
X0164562Y0374534D01*
X0164600Y0374496D02*
X0169090Y0374496D01*
X0169052Y0374459D02*
X0164638Y0374459D01*
X0164676Y0374421D02*
X0169014Y0374421D01*
X0168976Y0374383D02*
X0164714Y0374383D01*
X0164752Y0374345D02*
X0168939Y0374345D01*
X0168892Y0374307D02*
X0164798Y0374307D01*
X0164852Y0374269D02*
X0168838Y0374269D01*
X0168784Y0374231D02*
X0164906Y0374231D01*
X0164961Y0374193D02*
X0168730Y0374193D01*
X0168676Y0374156D02*
X0165015Y0374156D01*
X0165069Y0374118D02*
X0168621Y0374118D01*
X0168567Y0374080D02*
X0165123Y0374080D01*
X0165313Y0373966D02*
X0168377Y0373966D01*
X0168296Y0373928D02*
X0165394Y0373928D01*
X0165475Y0373890D02*
X0168215Y0373890D01*
X0168134Y0373852D02*
X0165557Y0373852D01*
X0165638Y0373815D02*
X0168053Y0373815D01*
X0167971Y0373777D02*
X0165719Y0373777D01*
X0165844Y0373739D02*
X0167846Y0373739D01*
X0167705Y0373701D02*
X0165986Y0373701D01*
X0166127Y0373663D02*
X0167563Y0373663D01*
X0167422Y0373625D02*
X0166268Y0373625D01*
X0166667Y0373587D02*
X0167024Y0373587D01*
X0166845Y0370028D02*
X0167406Y0369979D01*
X0167949Y0369833D01*
X0168459Y0369596D01*
X0168920Y0369273D01*
X0169318Y0368875D01*
X0169641Y0368414D01*
X0169879Y0367904D01*
X0170024Y0367361D01*
X0170073Y0366800D01*
X0170024Y0366239D01*
X0169879Y0365696D01*
X0169641Y0365186D01*
X0169318Y0364725D01*
X0168920Y0364327D01*
X0168459Y0364004D01*
X0167949Y0363767D01*
X0167406Y0363621D01*
X0166845Y0363572D01*
X0166285Y0363621D01*
X0165741Y0363767D01*
X0165231Y0364004D01*
X0164770Y0364327D01*
X0164372Y0364725D01*
X0164049Y0365186D01*
X0163812Y0365696D01*
X0163666Y0366239D01*
X0163617Y0366800D01*
X0163666Y0367361D01*
X0163812Y0367904D01*
X0164049Y0368414D01*
X0164372Y0368875D01*
X0164770Y0369273D01*
X0165231Y0369596D01*
X0165741Y0369833D01*
X0166285Y0369979D01*
X0166845Y0370028D01*
X0166824Y0370026D02*
X0166867Y0370026D01*
X0167298Y0369989D02*
X0166392Y0369989D01*
X0166178Y0369951D02*
X0167512Y0369951D01*
X0167653Y0369913D02*
X0166037Y0369913D01*
X0165896Y0369875D02*
X0167795Y0369875D01*
X0167936Y0369837D02*
X0165754Y0369837D01*
X0165667Y0369799D02*
X0168023Y0369799D01*
X0168104Y0369761D02*
X0165586Y0369761D01*
X0165505Y0369723D02*
X0168185Y0369723D01*
X0168267Y0369686D02*
X0165424Y0369686D01*
X0165342Y0369648D02*
X0168348Y0369648D01*
X0168429Y0369610D02*
X0165261Y0369610D01*
X0165197Y0369572D02*
X0168493Y0369572D01*
X0168547Y0369534D02*
X0165143Y0369534D01*
X0165089Y0369496D02*
X0168602Y0369496D01*
X0168656Y0369458D02*
X0165034Y0369458D01*
X0164980Y0369420D02*
X0168710Y0369420D01*
X0168764Y0369382D02*
X0164926Y0369382D01*
X0164872Y0369345D02*
X0168818Y0369345D01*
X0168872Y0369307D02*
X0164818Y0369307D01*
X0164766Y0369269D02*
X0168925Y0369269D01*
X0168963Y0369231D02*
X0164728Y0369231D01*
X0164690Y0369193D02*
X0169000Y0369193D01*
X0169038Y0369155D02*
X0164652Y0369155D01*
X0164614Y0369117D02*
X0169076Y0369117D01*
X0169114Y0369079D02*
X0164576Y0369079D01*
X0164538Y0369042D02*
X0169152Y0369042D01*
X0169190Y0369004D02*
X0164500Y0369004D01*
X0164463Y0368966D02*
X0169228Y0368966D01*
X0169266Y0368928D02*
X0164425Y0368928D01*
X0164387Y0368890D02*
X0169304Y0368890D01*
X0169334Y0368852D02*
X0164356Y0368852D01*
X0164329Y0368814D02*
X0169361Y0368814D01*
X0169387Y0368776D02*
X0164303Y0368776D01*
X0164276Y0368738D02*
X0169414Y0368738D01*
X0169440Y0368701D02*
X0164250Y0368701D01*
X0164223Y0368663D02*
X0169467Y0368663D01*
X0169493Y0368625D02*
X0164197Y0368625D01*
X0164170Y0368587D02*
X0169520Y0368587D01*
X0169546Y0368549D02*
X0164144Y0368549D01*
X0164117Y0368511D02*
X0169573Y0368511D01*
X0169599Y0368473D02*
X0164091Y0368473D01*
X0164064Y0368435D02*
X0169626Y0368435D01*
X0169649Y0368398D02*
X0164042Y0368398D01*
X0164024Y0368360D02*
X0169666Y0368360D01*
X0169684Y0368322D02*
X0164006Y0368322D01*
X0163989Y0368284D02*
X0169702Y0368284D01*
X0169719Y0368246D02*
X0163971Y0368246D01*
X0163953Y0368208D02*
X0169737Y0368208D01*
X0169755Y0368170D02*
X0163936Y0368170D01*
X0163918Y0368132D02*
X0169772Y0368132D01*
X0169790Y0368095D02*
X0163900Y0368095D01*
X0163883Y0368057D02*
X0169808Y0368057D01*
X0169825Y0368019D02*
X0163865Y0368019D01*
X0163847Y0367981D02*
X0169843Y0367981D01*
X0169861Y0367943D02*
X0163830Y0367943D01*
X0163812Y0367905D02*
X0169878Y0367905D01*
X0169889Y0367867D02*
X0163802Y0367867D01*
X0163792Y0367829D02*
X0169899Y0367829D01*
X0169909Y0367791D02*
X0163781Y0367791D01*
X0163771Y0367754D02*
X0169919Y0367754D01*
X0169929Y0367716D02*
X0163761Y0367716D01*
X0163751Y0367678D02*
X0169939Y0367678D01*
X0169949Y0367640D02*
X0163741Y0367640D01*
X0163731Y0367602D02*
X0169960Y0367602D01*
X0169970Y0367564D02*
X0163721Y0367564D01*
X0163710Y0367526D02*
X0169980Y0367526D01*
X0169990Y0367488D02*
X0163700Y0367488D01*
X0163690Y0367451D02*
X0170000Y0367451D01*
X0170010Y0367413D02*
X0163680Y0367413D01*
X0163670Y0367375D02*
X0170020Y0367375D01*
X0170026Y0367337D02*
X0163664Y0367337D01*
X0163661Y0367299D02*
X0170030Y0367299D01*
X0170033Y0367261D02*
X0163657Y0367261D01*
X0163654Y0367223D02*
X0170036Y0367223D01*
X0170040Y0367185D02*
X0163651Y0367185D01*
X0163647Y0367147D02*
X0170043Y0367147D01*
X0170046Y0367110D02*
X0163644Y0367110D01*
X0163641Y0367072D02*
X0170050Y0367072D01*
X0170053Y0367034D02*
X0163637Y0367034D01*
X0163634Y0366996D02*
X0170056Y0366996D01*
X0170060Y0366958D02*
X0163631Y0366958D01*
X0163627Y0366920D02*
X0170063Y0366920D01*
X0170066Y0366882D02*
X0163624Y0366882D01*
X0163621Y0366844D02*
X0170070Y0366844D01*
X0170073Y0366807D02*
X0163617Y0366807D01*
X0163620Y0366769D02*
X0170071Y0366769D01*
X0170067Y0366731D02*
X0163623Y0366731D01*
X0163626Y0366693D02*
X0170064Y0366693D01*
X0170061Y0366655D02*
X0163630Y0366655D01*
X0163633Y0366617D02*
X0170057Y0366617D01*
X0170054Y0366579D02*
X0163636Y0366579D01*
X0163639Y0366541D02*
X0170051Y0366541D01*
X0170047Y0366503D02*
X0163643Y0366503D01*
X0163646Y0366466D02*
X0170044Y0366466D01*
X0170041Y0366428D02*
X0163649Y0366428D01*
X0163653Y0366390D02*
X0170037Y0366390D01*
X0170034Y0366352D02*
X0163656Y0366352D01*
X0163659Y0366314D02*
X0170031Y0366314D01*
X0170027Y0366276D02*
X0163663Y0366276D01*
X0163666Y0366238D02*
X0170024Y0366238D01*
X0170014Y0366200D02*
X0163676Y0366200D01*
X0163687Y0366163D02*
X0170004Y0366163D01*
X0169994Y0366125D02*
X0163697Y0366125D01*
X0163707Y0366087D02*
X0169983Y0366087D01*
X0169973Y0366049D02*
X0163717Y0366049D01*
X0163727Y0366011D02*
X0169963Y0366011D01*
X0169953Y0365973D02*
X0163737Y0365973D01*
X0163747Y0365935D02*
X0169943Y0365935D01*
X0169933Y0365897D02*
X0163758Y0365897D01*
X0163768Y0365860D02*
X0169922Y0365860D01*
X0169912Y0365822D02*
X0163778Y0365822D01*
X0163788Y0365784D02*
X0169902Y0365784D01*
X0169892Y0365746D02*
X0163798Y0365746D01*
X0163808Y0365708D02*
X0169882Y0365708D01*
X0169867Y0365670D02*
X0163824Y0365670D01*
X0163841Y0365632D02*
X0169849Y0365632D01*
X0169831Y0365594D02*
X0163859Y0365594D01*
X0163877Y0365556D02*
X0169814Y0365556D01*
X0169796Y0365519D02*
X0163894Y0365519D01*
X0163912Y0365481D02*
X0169778Y0365481D01*
X0169761Y0365443D02*
X0163930Y0365443D01*
X0163947Y0365405D02*
X0169743Y0365405D01*
X0169725Y0365367D02*
X0163965Y0365367D01*
X0163983Y0365329D02*
X0169708Y0365329D01*
X0169690Y0365291D02*
X0164000Y0365291D01*
X0164018Y0365253D02*
X0169672Y0365253D01*
X0169655Y0365216D02*
X0164036Y0365216D01*
X0164055Y0365178D02*
X0169635Y0365178D01*
X0169609Y0365140D02*
X0164082Y0365140D01*
X0164108Y0365102D02*
X0169582Y0365102D01*
X0169556Y0365064D02*
X0164135Y0365064D01*
X0164161Y0365026D02*
X0169529Y0365026D01*
X0169503Y0364988D02*
X0164188Y0364988D01*
X0164214Y0364950D02*
X0169476Y0364950D01*
X0169450Y0364912D02*
X0164241Y0364912D01*
X0164267Y0364875D02*
X0169423Y0364875D01*
X0169397Y0364837D02*
X0164294Y0364837D01*
X0164320Y0364799D02*
X0169370Y0364799D01*
X0169344Y0364761D02*
X0164347Y0364761D01*
X0164374Y0364723D02*
X0169317Y0364723D01*
X0169279Y0364685D02*
X0164412Y0364685D01*
X0164449Y0364647D02*
X0169241Y0364647D01*
X0169203Y0364609D02*
X0164487Y0364609D01*
X0164525Y0364572D02*
X0169165Y0364572D01*
X0169127Y0364534D02*
X0164563Y0364534D01*
X0164601Y0364496D02*
X0169089Y0364496D01*
X0169051Y0364458D02*
X0164639Y0364458D01*
X0164677Y0364420D02*
X0169014Y0364420D01*
X0168976Y0364382D02*
X0164715Y0364382D01*
X0164752Y0364344D02*
X0168938Y0364344D01*
X0168891Y0364306D02*
X0164799Y0364306D01*
X0164853Y0364268D02*
X0168837Y0364268D01*
X0168783Y0364231D02*
X0164907Y0364231D01*
X0164962Y0364193D02*
X0168729Y0364193D01*
X0168675Y0364155D02*
X0165016Y0364155D01*
X0165070Y0364117D02*
X0168620Y0364117D01*
X0168566Y0364079D02*
X0165124Y0364079D01*
X0165178Y0364041D02*
X0168512Y0364041D01*
X0168457Y0364003D02*
X0165233Y0364003D01*
X0165314Y0363965D02*
X0168376Y0363965D01*
X0168295Y0363928D02*
X0165396Y0363928D01*
X0165477Y0363890D02*
X0168213Y0363890D01*
X0168132Y0363852D02*
X0165558Y0363852D01*
X0165639Y0363814D02*
X0168051Y0363814D01*
X0167970Y0363776D02*
X0165720Y0363776D01*
X0165847Y0363738D02*
X0167844Y0363738D01*
X0167702Y0363700D02*
X0165988Y0363700D01*
X0166130Y0363662D02*
X0167561Y0363662D01*
X0167419Y0363625D02*
X0166271Y0363625D01*
X0166675Y0363587D02*
X0167016Y0363587D01*
X0166845Y0360028D02*
X0167406Y0359979D01*
X0167949Y0359833D01*
X0168459Y0359596D01*
X0168920Y0359273D01*
X0169318Y0358875D01*
X0169641Y0358414D01*
X0169879Y0357904D01*
X0170024Y0357361D01*
X0170073Y0356800D01*
X0170024Y0356239D01*
X0169879Y0355696D01*
X0169641Y0355186D01*
X0169318Y0354725D01*
X0168920Y0354327D01*
X0168459Y0354004D01*
X0167949Y0353767D01*
X0167406Y0353621D01*
X0166845Y0353572D01*
X0166285Y0353621D01*
X0165741Y0353767D01*
X0165231Y0354004D01*
X0164770Y0354327D01*
X0164372Y0354725D01*
X0164049Y0355186D01*
X0163812Y0355696D01*
X0163666Y0356239D01*
X0163617Y0356800D01*
X0163666Y0357361D01*
X0163812Y0357904D01*
X0164049Y0358414D01*
X0164372Y0358875D01*
X0164770Y0359273D01*
X0165231Y0359596D01*
X0165741Y0359833D01*
X0166285Y0359979D01*
X0166845Y0360028D01*
X0166816Y0360026D02*
X0166874Y0360026D01*
X0167306Y0359988D02*
X0166384Y0359988D01*
X0166176Y0359950D02*
X0167514Y0359950D01*
X0167656Y0359912D02*
X0166034Y0359912D01*
X0165893Y0359874D02*
X0167797Y0359874D01*
X0167939Y0359836D02*
X0165752Y0359836D01*
X0165666Y0359798D02*
X0168024Y0359798D01*
X0168106Y0359761D02*
X0165585Y0359761D01*
X0165503Y0359723D02*
X0168187Y0359723D01*
X0168268Y0359685D02*
X0165422Y0359685D01*
X0165341Y0359647D02*
X0168349Y0359647D01*
X0168431Y0359609D02*
X0165260Y0359609D01*
X0165196Y0359571D02*
X0168494Y0359571D01*
X0168548Y0359533D02*
X0165142Y0359533D01*
X0165088Y0359495D02*
X0168603Y0359495D01*
X0168657Y0359458D02*
X0165034Y0359458D01*
X0164979Y0359420D02*
X0168711Y0359420D01*
X0168765Y0359382D02*
X0164925Y0359382D01*
X0164871Y0359344D02*
X0168819Y0359344D01*
X0168873Y0359306D02*
X0164817Y0359306D01*
X0164765Y0359268D02*
X0168925Y0359268D01*
X0168963Y0359230D02*
X0164727Y0359230D01*
X0164689Y0359192D02*
X0169001Y0359192D01*
X0169039Y0359155D02*
X0164651Y0359155D01*
X0164613Y0359117D02*
X0169077Y0359117D01*
X0169115Y0359079D02*
X0164575Y0359079D01*
X0164538Y0359041D02*
X0169153Y0359041D01*
X0169191Y0359003D02*
X0164500Y0359003D01*
X0164462Y0358965D02*
X0169228Y0358965D01*
X0169266Y0358927D02*
X0164424Y0358927D01*
X0164386Y0358889D02*
X0169304Y0358889D01*
X0169335Y0358851D02*
X0164355Y0358851D01*
X0164329Y0358814D02*
X0169361Y0358814D01*
X0169388Y0358776D02*
X0164302Y0358776D01*
X0164276Y0358738D02*
X0169414Y0358738D01*
X0169441Y0358700D02*
X0164249Y0358700D01*
X0164223Y0358662D02*
X0169467Y0358662D01*
X0169494Y0358624D02*
X0164196Y0358624D01*
X0164170Y0358586D02*
X0169520Y0358586D01*
X0169547Y0358548D02*
X0164143Y0358548D01*
X0164117Y0358511D02*
X0169573Y0358511D01*
X0169600Y0358473D02*
X0164090Y0358473D01*
X0164064Y0358435D02*
X0169626Y0358435D01*
X0169649Y0358397D02*
X0164041Y0358397D01*
X0164024Y0358359D02*
X0169667Y0358359D01*
X0169684Y0358321D02*
X0164006Y0358321D01*
X0163988Y0358283D02*
X0169702Y0358283D01*
X0169720Y0358245D02*
X0163971Y0358245D01*
X0163953Y0358207D02*
X0169737Y0358207D01*
X0169755Y0358170D02*
X0163935Y0358170D01*
X0163918Y0358132D02*
X0169773Y0358132D01*
X0169790Y0358094D02*
X0163900Y0358094D01*
X0163882Y0358056D02*
X0169808Y0358056D01*
X0169826Y0358018D02*
X0163865Y0358018D01*
X0163847Y0357980D02*
X0169843Y0357980D01*
X0169861Y0357942D02*
X0163829Y0357942D01*
X0163812Y0357904D02*
X0169879Y0357904D01*
X0169889Y0357867D02*
X0163802Y0357867D01*
X0163791Y0357829D02*
X0169899Y0357829D01*
X0169909Y0357791D02*
X0163781Y0357791D01*
X0163771Y0357753D02*
X0169919Y0357753D01*
X0169929Y0357715D02*
X0163761Y0357715D01*
X0163751Y0357677D02*
X0169939Y0357677D01*
X0169950Y0357639D02*
X0163741Y0357639D01*
X0163731Y0357601D02*
X0169960Y0357601D01*
X0169970Y0357563D02*
X0163720Y0357563D01*
X0163710Y0357526D02*
X0169980Y0357526D01*
X0169990Y0357488D02*
X0163700Y0357488D01*
X0163690Y0357450D02*
X0170000Y0357450D01*
X0170011Y0357412D02*
X0163680Y0357412D01*
X0163670Y0357374D02*
X0170021Y0357374D01*
X0170026Y0357336D02*
X0163664Y0357336D01*
X0163661Y0357298D02*
X0170030Y0357298D01*
X0170033Y0357260D02*
X0163657Y0357260D01*
X0163654Y0357223D02*
X0170036Y0357223D01*
X0170040Y0357185D02*
X0163651Y0357185D01*
X0163647Y0357147D02*
X0170043Y0357147D01*
X0170046Y0357109D02*
X0163644Y0357109D01*
X0163641Y0357071D02*
X0170050Y0357071D01*
X0170053Y0357033D02*
X0163637Y0357033D01*
X0163634Y0356995D02*
X0170056Y0356995D01*
X0170060Y0356957D02*
X0163631Y0356957D01*
X0163627Y0356920D02*
X0170063Y0356920D01*
X0170066Y0356882D02*
X0163624Y0356882D01*
X0163621Y0356844D02*
X0170070Y0356844D01*
X0170073Y0356806D02*
X0163617Y0356806D01*
X0163620Y0356768D02*
X0170071Y0356768D01*
X0170067Y0356730D02*
X0163623Y0356730D01*
X0163626Y0356692D02*
X0170064Y0356692D01*
X0170061Y0356654D02*
X0163630Y0356654D01*
X0163633Y0356616D02*
X0170057Y0356616D01*
X0170054Y0356579D02*
X0163636Y0356579D01*
X0163640Y0356541D02*
X0170051Y0356541D01*
X0170047Y0356503D02*
X0163643Y0356503D01*
X0163646Y0356465D02*
X0170044Y0356465D01*
X0170041Y0356427D02*
X0163650Y0356427D01*
X0163653Y0356389D02*
X0170037Y0356389D01*
X0170034Y0356351D02*
X0163656Y0356351D01*
X0163659Y0356313D02*
X0170031Y0356313D01*
X0170027Y0356276D02*
X0163663Y0356276D01*
X0163666Y0356238D02*
X0170024Y0356238D01*
X0170014Y0356200D02*
X0163677Y0356200D01*
X0163687Y0356162D02*
X0170004Y0356162D01*
X0169993Y0356124D02*
X0163697Y0356124D01*
X0163707Y0356086D02*
X0169983Y0356086D01*
X0169973Y0356048D02*
X0163717Y0356048D01*
X0163727Y0356010D02*
X0169963Y0356010D01*
X0169953Y0355972D02*
X0163738Y0355972D01*
X0163748Y0355935D02*
X0169943Y0355935D01*
X0169932Y0355897D02*
X0163758Y0355897D01*
X0163768Y0355859D02*
X0169922Y0355859D01*
X0169912Y0355821D02*
X0163778Y0355821D01*
X0163788Y0355783D02*
X0169902Y0355783D01*
X0169892Y0355745D02*
X0163798Y0355745D01*
X0163809Y0355707D02*
X0169882Y0355707D01*
X0169866Y0355669D02*
X0163824Y0355669D01*
X0163842Y0355632D02*
X0169849Y0355632D01*
X0169831Y0355594D02*
X0163859Y0355594D01*
X0163877Y0355556D02*
X0169813Y0355556D01*
X0169796Y0355518D02*
X0163895Y0355518D01*
X0163912Y0355480D02*
X0169778Y0355480D01*
X0169760Y0355442D02*
X0163930Y0355442D01*
X0163948Y0355404D02*
X0169743Y0355404D01*
X0169725Y0355366D02*
X0163965Y0355366D01*
X0163983Y0355328D02*
X0169707Y0355328D01*
X0169690Y0355291D02*
X0164001Y0355291D01*
X0164018Y0355253D02*
X0169672Y0355253D01*
X0169654Y0355215D02*
X0164036Y0355215D01*
X0164056Y0355177D02*
X0169635Y0355177D01*
X0169608Y0355139D02*
X0164082Y0355139D01*
X0164109Y0355101D02*
X0169582Y0355101D01*
X0169555Y0355063D02*
X0164135Y0355063D01*
X0164162Y0355025D02*
X0169529Y0355025D01*
X0169502Y0354988D02*
X0164188Y0354988D01*
X0164215Y0354950D02*
X0169476Y0354950D01*
X0169449Y0354912D02*
X0164241Y0354912D01*
X0164268Y0354874D02*
X0169423Y0354874D01*
X0169396Y0354836D02*
X0164294Y0354836D01*
X0164321Y0354798D02*
X0169370Y0354798D01*
X0169343Y0354760D02*
X0164347Y0354760D01*
X0164374Y0354722D02*
X0169316Y0354722D01*
X0169278Y0354684D02*
X0164412Y0354684D01*
X0164450Y0354647D02*
X0169240Y0354647D01*
X0169202Y0354609D02*
X0164488Y0354609D01*
X0164526Y0354571D02*
X0169164Y0354571D01*
X0169127Y0354533D02*
X0164564Y0354533D01*
X0164602Y0354495D02*
X0169089Y0354495D01*
X0169051Y0354457D02*
X0164640Y0354457D01*
X0164677Y0354419D02*
X0169013Y0354419D01*
X0168975Y0354381D02*
X0164715Y0354381D01*
X0164753Y0354344D02*
X0168937Y0354344D01*
X0168890Y0354306D02*
X0164800Y0354306D01*
X0164854Y0354268D02*
X0168836Y0354268D01*
X0168782Y0354230D02*
X0164908Y0354230D01*
X0164963Y0354192D02*
X0168728Y0354192D01*
X0168674Y0354154D02*
X0165017Y0354154D01*
X0165071Y0354116D02*
X0168619Y0354116D01*
X0168565Y0354078D02*
X0165125Y0354078D01*
X0165179Y0354041D02*
X0168511Y0354041D01*
X0168456Y0354003D02*
X0165235Y0354003D01*
X0165316Y0353965D02*
X0168374Y0353965D01*
X0168293Y0353927D02*
X0165397Y0353927D01*
X0165478Y0353889D02*
X0168212Y0353889D01*
X0168131Y0353851D02*
X0165559Y0353851D01*
X0165641Y0353813D02*
X0168050Y0353813D01*
X0167968Y0353775D02*
X0165722Y0353775D01*
X0165849Y0353737D02*
X0167841Y0353737D01*
X0167700Y0353700D02*
X0165991Y0353700D01*
X0166132Y0353662D02*
X0167558Y0353662D01*
X0167417Y0353624D02*
X0166273Y0353624D01*
X0166682Y0353586D02*
X0167008Y0353586D01*
X0166845Y0350028D02*
X0166285Y0349979D01*
X0165741Y0349833D01*
X0165231Y0349596D01*
X0164770Y0349273D01*
X0164372Y0348875D01*
X0164049Y0348414D01*
X0163812Y0347904D01*
X0163666Y0347361D01*
X0163617Y0346800D01*
X0163666Y0346239D01*
X0163812Y0345696D01*
X0164049Y0345186D01*
X0164372Y0344725D01*
X0164770Y0344327D01*
X0165231Y0344004D01*
X0165741Y0343767D01*
X0166285Y0343621D01*
X0166845Y0343572D01*
X0167406Y0343621D01*
X0167949Y0343767D01*
X0168459Y0344004D01*
X0168920Y0344327D01*
X0169318Y0344725D01*
X0169641Y0345186D01*
X0169879Y0345696D01*
X0170024Y0346239D01*
X0170073Y0346800D01*
X0170024Y0347361D01*
X0169879Y0347904D01*
X0163812Y0347904D01*
X0163801Y0347866D02*
X0169889Y0347866D01*
X0169899Y0347828D02*
X0163791Y0347828D01*
X0163781Y0347790D02*
X0169909Y0347790D01*
X0169919Y0347752D02*
X0163771Y0347752D01*
X0163761Y0347714D02*
X0169930Y0347714D01*
X0169940Y0347676D02*
X0163751Y0347676D01*
X0163740Y0347639D02*
X0169950Y0347639D01*
X0169960Y0347601D02*
X0163730Y0347601D01*
X0163720Y0347563D02*
X0169970Y0347563D01*
X0169980Y0347525D02*
X0163710Y0347525D01*
X0163700Y0347487D02*
X0169990Y0347487D01*
X0170001Y0347449D02*
X0163690Y0347449D01*
X0163680Y0347411D02*
X0170011Y0347411D01*
X0170021Y0347373D02*
X0163669Y0347373D01*
X0163664Y0347336D02*
X0170026Y0347336D01*
X0170030Y0347298D02*
X0163660Y0347298D01*
X0163657Y0347260D02*
X0170033Y0347260D01*
X0170036Y0347222D02*
X0163654Y0347222D01*
X0163651Y0347184D02*
X0170040Y0347184D01*
X0170043Y0347146D02*
X0163647Y0347146D01*
X0163644Y0347108D02*
X0170046Y0347108D01*
X0170050Y0347070D02*
X0163641Y0347070D01*
X0163637Y0347032D02*
X0170053Y0347032D01*
X0170056Y0346995D02*
X0163634Y0346995D01*
X0163631Y0346957D02*
X0170060Y0346957D01*
X0170063Y0346919D02*
X0163627Y0346919D01*
X0163624Y0346881D02*
X0170066Y0346881D01*
X0170070Y0346843D02*
X0163621Y0346843D01*
X0163617Y0346805D02*
X0170073Y0346805D01*
X0170071Y0346767D02*
X0163620Y0346767D01*
X0163623Y0346729D02*
X0170067Y0346729D01*
X0170064Y0346692D02*
X0163626Y0346692D01*
X0163630Y0346654D02*
X0170061Y0346654D01*
X0170057Y0346616D02*
X0163633Y0346616D01*
X0163636Y0346578D02*
X0170054Y0346578D01*
X0170051Y0346540D02*
X0163640Y0346540D01*
X0163643Y0346502D02*
X0170047Y0346502D01*
X0170044Y0346464D02*
X0163646Y0346464D01*
X0163650Y0346426D02*
X0170041Y0346426D01*
X0170037Y0346388D02*
X0163653Y0346388D01*
X0163656Y0346351D02*
X0170034Y0346351D01*
X0170031Y0346313D02*
X0163660Y0346313D01*
X0163663Y0346275D02*
X0170027Y0346275D01*
X0170024Y0346237D02*
X0163667Y0346237D01*
X0163677Y0346199D02*
X0170013Y0346199D01*
X0170003Y0346161D02*
X0163687Y0346161D01*
X0163697Y0346123D02*
X0169993Y0346123D01*
X0169983Y0346085D02*
X0163707Y0346085D01*
X0163717Y0346048D02*
X0169973Y0346048D01*
X0169963Y0346010D02*
X0163728Y0346010D01*
X0163738Y0345972D02*
X0169953Y0345972D01*
X0169942Y0345934D02*
X0163748Y0345934D01*
X0163758Y0345896D02*
X0169932Y0345896D01*
X0169922Y0345858D02*
X0163768Y0345858D01*
X0163778Y0345820D02*
X0169912Y0345820D01*
X0169902Y0345782D02*
X0163788Y0345782D01*
X0163799Y0345744D02*
X0169892Y0345744D01*
X0169882Y0345707D02*
X0163809Y0345707D01*
X0163824Y0345669D02*
X0169866Y0345669D01*
X0169848Y0345631D02*
X0163842Y0345631D01*
X0163860Y0345593D02*
X0169831Y0345593D01*
X0169813Y0345555D02*
X0163877Y0345555D01*
X0163895Y0345517D02*
X0169795Y0345517D01*
X0169778Y0345479D02*
X0163913Y0345479D01*
X0163930Y0345441D02*
X0169760Y0345441D01*
X0169742Y0345404D02*
X0163948Y0345404D01*
X0163966Y0345366D02*
X0169725Y0345366D01*
X0169707Y0345328D02*
X0163983Y0345328D01*
X0164001Y0345290D02*
X0169689Y0345290D01*
X0169672Y0345252D02*
X0164019Y0345252D01*
X0164036Y0345214D02*
X0169654Y0345214D01*
X0169634Y0345176D02*
X0164056Y0345176D01*
X0164083Y0345138D02*
X0169608Y0345138D01*
X0169581Y0345101D02*
X0164109Y0345101D01*
X0164136Y0345063D02*
X0169555Y0345063D01*
X0169528Y0345025D02*
X0164162Y0345025D01*
X0164189Y0344987D02*
X0169502Y0344987D01*
X0169475Y0344949D02*
X0164215Y0344949D01*
X0164242Y0344911D02*
X0169449Y0344911D01*
X0169422Y0344873D02*
X0164268Y0344873D01*
X0164295Y0344835D02*
X0169396Y0344835D01*
X0169369Y0344797D02*
X0164321Y0344797D01*
X0164348Y0344760D02*
X0169343Y0344760D01*
X0169315Y0344722D02*
X0164375Y0344722D01*
X0164413Y0344684D02*
X0169277Y0344684D01*
X0169239Y0344646D02*
X0164451Y0344646D01*
X0164489Y0344608D02*
X0169202Y0344608D01*
X0169164Y0344570D02*
X0164527Y0344570D01*
X0164564Y0344532D02*
X0169126Y0344532D01*
X0169088Y0344494D02*
X0164602Y0344494D01*
X0164640Y0344457D02*
X0169050Y0344457D01*
X0169012Y0344419D02*
X0164678Y0344419D01*
X0164716Y0344381D02*
X0168974Y0344381D01*
X0168936Y0344343D02*
X0164754Y0344343D01*
X0164801Y0344305D02*
X0168889Y0344305D01*
X0168835Y0344267D02*
X0164855Y0344267D01*
X0164909Y0344229D02*
X0168781Y0344229D01*
X0168727Y0344191D02*
X0164964Y0344191D01*
X0165018Y0344153D02*
X0168673Y0344153D01*
X0168618Y0344116D02*
X0165072Y0344116D01*
X0165126Y0344078D02*
X0168564Y0344078D01*
X0168510Y0344040D02*
X0165180Y0344040D01*
X0165236Y0344002D02*
X0168454Y0344002D01*
X0168373Y0343964D02*
X0165317Y0343964D01*
X0165399Y0343926D02*
X0168292Y0343926D01*
X0168211Y0343888D02*
X0165480Y0343888D01*
X0165561Y0343850D02*
X0168129Y0343850D01*
X0168048Y0343813D02*
X0165642Y0343813D01*
X0165723Y0343775D02*
X0167967Y0343775D01*
X0167838Y0343737D02*
X0165852Y0343737D01*
X0165993Y0343699D02*
X0167697Y0343699D01*
X0167556Y0343661D02*
X0166135Y0343661D01*
X0166276Y0343623D02*
X0167414Y0343623D01*
X0167000Y0343585D02*
X0166690Y0343585D01*
X0166845Y0340028D02*
X0166285Y0339979D01*
X0165741Y0339833D01*
X0165231Y0339596D01*
X0164770Y0339273D01*
X0164372Y0338875D01*
X0164049Y0338414D01*
X0163812Y0337904D01*
X0163666Y0337361D01*
X0163617Y0336800D01*
X0163666Y0336239D01*
X0163812Y0335696D01*
X0164049Y0335186D01*
X0164372Y0334725D01*
X0164770Y0334327D01*
X0165231Y0334004D01*
X0165741Y0333767D01*
X0166285Y0333621D01*
X0166845Y0333572D01*
X0167406Y0333621D01*
X0167949Y0333767D01*
X0168459Y0334004D01*
X0168920Y0334327D01*
X0169318Y0334725D01*
X0169641Y0335186D01*
X0169879Y0335696D01*
X0170024Y0336239D01*
X0170073Y0336800D01*
X0170024Y0337361D01*
X0169879Y0337904D01*
X0169641Y0338414D01*
X0169318Y0338875D01*
X0168920Y0339273D01*
X0168459Y0339596D01*
X0167949Y0339833D01*
X0167406Y0339979D01*
X0166845Y0340028D01*
X0166800Y0340024D02*
X0166890Y0340024D01*
X0167322Y0339987D02*
X0166369Y0339987D01*
X0166171Y0339949D02*
X0167520Y0339949D01*
X0167661Y0339911D02*
X0166029Y0339911D01*
X0165888Y0339873D02*
X0167802Y0339873D01*
X0167944Y0339835D02*
X0165747Y0339835D01*
X0165663Y0339797D02*
X0168027Y0339797D01*
X0168109Y0339759D02*
X0165582Y0339759D01*
X0165500Y0339721D02*
X0168190Y0339721D01*
X0168271Y0339683D02*
X0165419Y0339683D01*
X0165338Y0339646D02*
X0168352Y0339646D01*
X0168434Y0339608D02*
X0165257Y0339608D01*
X0165194Y0339570D02*
X0168496Y0339570D01*
X0168550Y0339532D02*
X0165140Y0339532D01*
X0165086Y0339494D02*
X0168605Y0339494D01*
X0168659Y0339456D02*
X0165032Y0339456D01*
X0164977Y0339418D02*
X0168713Y0339418D01*
X0168767Y0339380D02*
X0164923Y0339380D01*
X0164869Y0339343D02*
X0168821Y0339343D01*
X0168875Y0339305D02*
X0164815Y0339305D01*
X0164763Y0339267D02*
X0168927Y0339267D01*
X0168965Y0339229D02*
X0164726Y0339229D01*
X0164688Y0339191D02*
X0169003Y0339191D01*
X0169040Y0339153D02*
X0164650Y0339153D01*
X0164612Y0339115D02*
X0169078Y0339115D01*
X0169116Y0339077D02*
X0164574Y0339077D01*
X0164536Y0339039D02*
X0169154Y0339039D01*
X0169192Y0339002D02*
X0164498Y0339002D01*
X0164460Y0338964D02*
X0169230Y0338964D01*
X0169268Y0338926D02*
X0164423Y0338926D01*
X0164385Y0338888D02*
X0169306Y0338888D01*
X0169336Y0338850D02*
X0164354Y0338850D01*
X0164328Y0338812D02*
X0169362Y0338812D01*
X0169389Y0338774D02*
X0164301Y0338774D01*
X0164275Y0338736D02*
X0169415Y0338736D01*
X0169442Y0338699D02*
X0164248Y0338699D01*
X0164222Y0338661D02*
X0169468Y0338661D01*
X0169495Y0338623D02*
X0164195Y0338623D01*
X0164169Y0338585D02*
X0169521Y0338585D01*
X0169548Y0338547D02*
X0164142Y0338547D01*
X0164116Y0338509D02*
X0169574Y0338509D01*
X0169601Y0338471D02*
X0164089Y0338471D01*
X0164063Y0338433D02*
X0169627Y0338433D01*
X0169650Y0338395D02*
X0164041Y0338395D01*
X0164023Y0338358D02*
X0169667Y0338358D01*
X0169685Y0338320D02*
X0164005Y0338320D01*
X0163988Y0338282D02*
X0169703Y0338282D01*
X0169720Y0338244D02*
X0163970Y0338244D01*
X0163952Y0338206D02*
X0169738Y0338206D01*
X0169756Y0338168D02*
X0163935Y0338168D01*
X0163917Y0338130D02*
X0169773Y0338130D01*
X0169791Y0338092D02*
X0163899Y0338092D01*
X0163882Y0338055D02*
X0169809Y0338055D01*
X0169826Y0338017D02*
X0163864Y0338017D01*
X0163846Y0337979D02*
X0169844Y0337979D01*
X0169862Y0337941D02*
X0163829Y0337941D01*
X0163811Y0337903D02*
X0169879Y0337903D01*
X0169889Y0337865D02*
X0163801Y0337865D01*
X0163791Y0337827D02*
X0169899Y0337827D01*
X0169909Y0337789D02*
X0163781Y0337789D01*
X0163771Y0337752D02*
X0169920Y0337752D01*
X0169930Y0337714D02*
X0163761Y0337714D01*
X0163750Y0337676D02*
X0169940Y0337676D01*
X0169950Y0337638D02*
X0163740Y0337638D01*
X0163730Y0337600D02*
X0169960Y0337600D01*
X0169970Y0337562D02*
X0163720Y0337562D01*
X0163710Y0337524D02*
X0169980Y0337524D01*
X0169991Y0337486D02*
X0163700Y0337486D01*
X0163690Y0337448D02*
X0170001Y0337448D01*
X0170011Y0337411D02*
X0163679Y0337411D01*
X0163669Y0337373D02*
X0170021Y0337373D01*
X0170027Y0337335D02*
X0163664Y0337335D01*
X0163660Y0337297D02*
X0170030Y0337297D01*
X0170033Y0337259D02*
X0163657Y0337259D01*
X0163654Y0337221D02*
X0170037Y0337221D01*
X0170040Y0337183D02*
X0163650Y0337183D01*
X0163647Y0337145D02*
X0170043Y0337145D01*
X0170046Y0337108D02*
X0163644Y0337108D01*
X0163640Y0337070D02*
X0170050Y0337070D01*
X0170053Y0337032D02*
X0163637Y0337032D01*
X0163634Y0336994D02*
X0170056Y0336994D01*
X0170060Y0336956D02*
X0163630Y0336956D01*
X0163627Y0336918D02*
X0170063Y0336918D01*
X0170066Y0336880D02*
X0163624Y0336880D01*
X0163621Y0336842D02*
X0170070Y0336842D01*
X0170073Y0336804D02*
X0163617Y0336804D01*
X0163620Y0336767D02*
X0170071Y0336767D01*
X0170067Y0336729D02*
X0163623Y0336729D01*
X0163626Y0336691D02*
X0170064Y0336691D01*
X0170061Y0336653D02*
X0163630Y0336653D01*
X0163633Y0336615D02*
X0170057Y0336615D01*
X0170054Y0336577D02*
X0163636Y0336577D01*
X0163640Y0336539D02*
X0170051Y0336539D01*
X0170047Y0336501D02*
X0163643Y0336501D01*
X0163646Y0336464D02*
X0170044Y0336464D01*
X0170041Y0336426D02*
X0163650Y0336426D01*
X0163653Y0336388D02*
X0170037Y0336388D01*
X0170034Y0336350D02*
X0163656Y0336350D01*
X0163660Y0336312D02*
X0170031Y0336312D01*
X0170027Y0336274D02*
X0163663Y0336274D01*
X0163667Y0336236D02*
X0170023Y0336236D01*
X0170013Y0336198D02*
X0163677Y0336198D01*
X0163687Y0336160D02*
X0170003Y0336160D01*
X0169993Y0336123D02*
X0163697Y0336123D01*
X0163707Y0336085D02*
X0169983Y0336085D01*
X0169973Y0336047D02*
X0163718Y0336047D01*
X0163728Y0336009D02*
X0169963Y0336009D01*
X0169952Y0335971D02*
X0163738Y0335971D01*
X0163748Y0335933D02*
X0169942Y0335933D01*
X0169932Y0335895D02*
X0163758Y0335895D01*
X0163768Y0335857D02*
X0169922Y0335857D01*
X0169912Y0335820D02*
X0163778Y0335820D01*
X0163789Y0335782D02*
X0169902Y0335782D01*
X0169891Y0335744D02*
X0163799Y0335744D01*
X0163809Y0335706D02*
X0169881Y0335706D01*
X0169866Y0335668D02*
X0163825Y0335668D01*
X0163842Y0335630D02*
X0169848Y0335630D01*
X0169830Y0335592D02*
X0163860Y0335592D01*
X0163878Y0335554D02*
X0169813Y0335554D01*
X0169795Y0335517D02*
X0163895Y0335517D01*
X0163913Y0335479D02*
X0169777Y0335479D01*
X0169760Y0335441D02*
X0163931Y0335441D01*
X0163948Y0335403D02*
X0169742Y0335403D01*
X0169724Y0335365D02*
X0163966Y0335365D01*
X0163984Y0335327D02*
X0169707Y0335327D01*
X0169689Y0335289D02*
X0164001Y0335289D01*
X0164019Y0335251D02*
X0169671Y0335251D01*
X0169654Y0335213D02*
X0164037Y0335213D01*
X0164057Y0335176D02*
X0169634Y0335176D01*
X0169607Y0335138D02*
X0164083Y0335138D01*
X0164110Y0335100D02*
X0169581Y0335100D01*
X0169554Y0335062D02*
X0164136Y0335062D01*
X0164163Y0335024D02*
X0169528Y0335024D01*
X0169501Y0334986D02*
X0164189Y0334986D01*
X0164216Y0334948D02*
X0169475Y0334948D01*
X0169448Y0334910D02*
X0164242Y0334910D01*
X0164269Y0334873D02*
X0169422Y0334873D01*
X0169395Y0334835D02*
X0164295Y0334835D01*
X0164322Y0334797D02*
X0169369Y0334797D01*
X0169342Y0334759D02*
X0164348Y0334759D01*
X0164376Y0334721D02*
X0169315Y0334721D01*
X0169277Y0334683D02*
X0164414Y0334683D01*
X0164451Y0334645D02*
X0169239Y0334645D01*
X0169201Y0334607D02*
X0164489Y0334607D01*
X0164527Y0334569D02*
X0169163Y0334569D01*
X0169125Y0334532D02*
X0164565Y0334532D01*
X0164603Y0334494D02*
X0169087Y0334494D01*
X0169049Y0334456D02*
X0164641Y0334456D01*
X0164679Y0334418D02*
X0169012Y0334418D01*
X0168974Y0334380D02*
X0164717Y0334380D01*
X0164755Y0334342D02*
X0168936Y0334342D01*
X0168888Y0334304D02*
X0164802Y0334304D01*
X0164856Y0334266D02*
X0168834Y0334266D01*
X0168780Y0334229D02*
X0164910Y0334229D01*
X0164965Y0334191D02*
X0168726Y0334191D01*
X0168672Y0334153D02*
X0165019Y0334153D01*
X0165073Y0334115D02*
X0168617Y0334115D01*
X0168563Y0334077D02*
X0165127Y0334077D01*
X0165181Y0334039D02*
X0168509Y0334039D01*
X0168453Y0334001D02*
X0165238Y0334001D01*
X0165319Y0333963D02*
X0168371Y0333963D01*
X0168290Y0333925D02*
X0165400Y0333925D01*
X0165481Y0333888D02*
X0168209Y0333888D01*
X0168128Y0333850D02*
X0165562Y0333850D01*
X0165644Y0333812D02*
X0168047Y0333812D01*
X0167965Y0333774D02*
X0165725Y0333774D01*
X0165854Y0333736D02*
X0167836Y0333736D01*
X0167694Y0333698D02*
X0165996Y0333698D01*
X0166137Y0333660D02*
X0167553Y0333660D01*
X0167412Y0333622D02*
X0166279Y0333622D01*
X0166698Y0333585D02*
X0166992Y0333585D01*
X0166845Y0330028D02*
X0166285Y0329979D01*
X0165741Y0329833D01*
X0165231Y0329596D01*
X0164770Y0329273D01*
X0164372Y0328875D01*
X0164049Y0328414D01*
X0163812Y0327904D01*
X0163666Y0327361D01*
X0163617Y0326800D01*
X0163666Y0326239D01*
X0163812Y0325696D01*
X0164049Y0325186D01*
X0164372Y0324725D01*
X0164770Y0324327D01*
X0165231Y0324004D01*
X0165741Y0323767D01*
X0166285Y0323621D01*
X0166845Y0323572D01*
X0167406Y0323621D01*
X0167949Y0323767D01*
X0168459Y0324004D01*
X0168920Y0324327D01*
X0169318Y0324725D01*
X0169641Y0325186D01*
X0169879Y0325696D01*
X0170024Y0326239D01*
X0170073Y0326800D01*
X0170024Y0327361D01*
X0169879Y0327904D01*
X0169641Y0328414D01*
X0169318Y0328875D01*
X0168920Y0329273D01*
X0168459Y0329596D01*
X0167949Y0329833D01*
X0167406Y0329979D01*
X0166845Y0330028D01*
X0166792Y0330024D02*
X0166898Y0330024D01*
X0167330Y0329986D02*
X0166361Y0329986D01*
X0166168Y0329948D02*
X0167522Y0329948D01*
X0167664Y0329910D02*
X0166027Y0329910D01*
X0165885Y0329872D02*
X0167805Y0329872D01*
X0167946Y0329834D02*
X0165744Y0329834D01*
X0165661Y0329796D02*
X0168029Y0329796D01*
X0168110Y0329759D02*
X0165580Y0329759D01*
X0165499Y0329721D02*
X0168191Y0329721D01*
X0168273Y0329683D02*
X0165418Y0329683D01*
X0165337Y0329645D02*
X0168354Y0329645D01*
X0168435Y0329607D02*
X0165255Y0329607D01*
X0165193Y0329569D02*
X0168497Y0329569D01*
X0168551Y0329531D02*
X0165139Y0329531D01*
X0165085Y0329493D02*
X0168606Y0329493D01*
X0168660Y0329455D02*
X0165031Y0329455D01*
X0164976Y0329418D02*
X0168714Y0329418D01*
X0168768Y0329380D02*
X0164922Y0329380D01*
X0164868Y0329342D02*
X0168822Y0329342D01*
X0168876Y0329304D02*
X0164814Y0329304D01*
X0164763Y0329266D02*
X0168927Y0329266D01*
X0168965Y0329228D02*
X0164725Y0329228D01*
X0164687Y0329190D02*
X0169003Y0329190D01*
X0169041Y0329152D02*
X0164649Y0329152D01*
X0164611Y0329115D02*
X0169079Y0329115D01*
X0169117Y0329077D02*
X0164573Y0329077D01*
X0164536Y0329039D02*
X0169155Y0329039D01*
X0169193Y0329001D02*
X0164498Y0329001D01*
X0164460Y0328963D02*
X0169231Y0328963D01*
X0169268Y0328925D02*
X0164422Y0328925D01*
X0164384Y0328887D02*
X0169306Y0328887D01*
X0169336Y0328849D02*
X0164354Y0328849D01*
X0164327Y0328812D02*
X0169363Y0328812D01*
X0169389Y0328774D02*
X0164301Y0328774D01*
X0164274Y0328736D02*
X0169416Y0328736D01*
X0169442Y0328698D02*
X0164248Y0328698D01*
X0164221Y0328660D02*
X0169469Y0328660D01*
X0169495Y0328622D02*
X0164195Y0328622D01*
X0164168Y0328584D02*
X0169522Y0328584D01*
X0169548Y0328546D02*
X0164142Y0328546D01*
X0164115Y0328508D02*
X0169575Y0328508D01*
X0169601Y0328471D02*
X0164089Y0328471D01*
X0164062Y0328433D02*
X0169628Y0328433D01*
X0169650Y0328395D02*
X0164040Y0328395D01*
X0164023Y0328357D02*
X0169668Y0328357D01*
X0169685Y0328319D02*
X0164005Y0328319D01*
X0163987Y0328281D02*
X0169703Y0328281D01*
X0169721Y0328243D02*
X0163970Y0328243D01*
X0163952Y0328205D02*
X0169738Y0328205D01*
X0169756Y0328168D02*
X0163934Y0328168D01*
X0163917Y0328130D02*
X0169774Y0328130D01*
X0169791Y0328092D02*
X0163899Y0328092D01*
X0163881Y0328054D02*
X0169809Y0328054D01*
X0169827Y0328016D02*
X0163864Y0328016D01*
X0163846Y0327978D02*
X0169844Y0327978D01*
X0169862Y0327940D02*
X0163828Y0327940D01*
X0163811Y0327902D02*
X0169879Y0327902D01*
X0169889Y0327864D02*
X0163801Y0327864D01*
X0163791Y0327827D02*
X0169899Y0327827D01*
X0169910Y0327789D02*
X0163781Y0327789D01*
X0163771Y0327751D02*
X0169920Y0327751D01*
X0169930Y0327713D02*
X0163760Y0327713D01*
X0163750Y0327675D02*
X0169940Y0327675D01*
X0169950Y0327637D02*
X0163740Y0327637D01*
X0163730Y0327599D02*
X0169960Y0327599D01*
X0169970Y0327561D02*
X0163720Y0327561D01*
X0163710Y0327524D02*
X0169981Y0327524D01*
X0169991Y0327486D02*
X0163700Y0327486D01*
X0163689Y0327448D02*
X0170001Y0327448D01*
X0170011Y0327410D02*
X0163679Y0327410D01*
X0163669Y0327372D02*
X0170021Y0327372D01*
X0170027Y0327334D02*
X0163664Y0327334D01*
X0163660Y0327296D02*
X0170030Y0327296D01*
X0170033Y0327258D02*
X0163657Y0327258D01*
X0163654Y0327220D02*
X0170037Y0327220D01*
X0170040Y0327183D02*
X0163650Y0327183D01*
X0163647Y0327145D02*
X0170043Y0327145D01*
X0170047Y0327107D02*
X0163644Y0327107D01*
X0163640Y0327069D02*
X0170050Y0327069D01*
X0170053Y0327031D02*
X0163637Y0327031D01*
X0163634Y0326993D02*
X0170057Y0326993D01*
X0170060Y0326955D02*
X0163630Y0326955D01*
X0163627Y0326917D02*
X0170063Y0326917D01*
X0170067Y0326880D02*
X0163624Y0326880D01*
X0163620Y0326842D02*
X0170070Y0326842D01*
X0170073Y0326804D02*
X0163617Y0326804D01*
X0163620Y0326766D02*
X0170070Y0326766D01*
X0170067Y0326728D02*
X0163623Y0326728D01*
X0163626Y0326690D02*
X0170064Y0326690D01*
X0170061Y0326652D02*
X0163630Y0326652D01*
X0163633Y0326614D02*
X0170057Y0326614D01*
X0170054Y0326577D02*
X0163636Y0326577D01*
X0163640Y0326539D02*
X0170051Y0326539D01*
X0170047Y0326501D02*
X0163643Y0326501D01*
X0163646Y0326463D02*
X0170044Y0326463D01*
X0170041Y0326425D02*
X0163650Y0326425D01*
X0163653Y0326387D02*
X0170037Y0326387D01*
X0170034Y0326349D02*
X0163656Y0326349D01*
X0163660Y0326311D02*
X0170031Y0326311D01*
X0170027Y0326273D02*
X0163663Y0326273D01*
X0163667Y0326236D02*
X0170023Y0326236D01*
X0170013Y0326198D02*
X0163677Y0326198D01*
X0163687Y0326160D02*
X0170003Y0326160D01*
X0169993Y0326122D02*
X0163697Y0326122D01*
X0163708Y0326084D02*
X0169983Y0326084D01*
X0169973Y0326046D02*
X0163718Y0326046D01*
X0163728Y0326008D02*
X0169962Y0326008D01*
X0169952Y0325970D02*
X0163738Y0325970D01*
X0163748Y0325933D02*
X0169942Y0325933D01*
X0169932Y0325895D02*
X0163758Y0325895D01*
X0163769Y0325857D02*
X0169922Y0325857D01*
X0169912Y0325819D02*
X0163779Y0325819D01*
X0163789Y0325781D02*
X0169901Y0325781D01*
X0169891Y0325743D02*
X0163799Y0325743D01*
X0163809Y0325705D02*
X0169881Y0325705D01*
X0169865Y0325667D02*
X0163825Y0325667D01*
X0163843Y0325629D02*
X0169848Y0325629D01*
X0169830Y0325592D02*
X0163860Y0325592D01*
X0163878Y0325554D02*
X0169812Y0325554D01*
X0169795Y0325516D02*
X0163896Y0325516D01*
X0163913Y0325478D02*
X0169777Y0325478D01*
X0169759Y0325440D02*
X0163931Y0325440D01*
X0163949Y0325402D02*
X0169742Y0325402D01*
X0169724Y0325364D02*
X0163966Y0325364D01*
X0163984Y0325326D02*
X0169706Y0325326D01*
X0169689Y0325289D02*
X0164002Y0325289D01*
X0164019Y0325251D02*
X0169671Y0325251D01*
X0169653Y0325213D02*
X0164037Y0325213D01*
X0164057Y0325175D02*
X0169633Y0325175D01*
X0169607Y0325137D02*
X0164084Y0325137D01*
X0164110Y0325099D02*
X0169580Y0325099D01*
X0169554Y0325061D02*
X0164137Y0325061D01*
X0164163Y0325023D02*
X0169527Y0325023D01*
X0169501Y0324985D02*
X0164190Y0324985D01*
X0164216Y0324948D02*
X0169474Y0324948D01*
X0169448Y0324910D02*
X0164243Y0324910D01*
X0164269Y0324872D02*
X0169421Y0324872D01*
X0169395Y0324834D02*
X0164296Y0324834D01*
X0164322Y0324796D02*
X0169368Y0324796D01*
X0169342Y0324758D02*
X0164349Y0324758D01*
X0164376Y0324720D02*
X0169314Y0324720D01*
X0169276Y0324682D02*
X0164414Y0324682D01*
X0164452Y0324645D02*
X0169238Y0324645D01*
X0169200Y0324607D02*
X0164490Y0324607D01*
X0164528Y0324569D02*
X0169162Y0324569D01*
X0169124Y0324531D02*
X0164566Y0324531D01*
X0164604Y0324493D02*
X0169087Y0324493D01*
X0169049Y0324455D02*
X0164642Y0324455D01*
X0164679Y0324417D02*
X0169011Y0324417D01*
X0168973Y0324379D02*
X0164717Y0324379D01*
X0164755Y0324341D02*
X0168935Y0324341D01*
X0168887Y0324304D02*
X0164803Y0324304D01*
X0164857Y0324266D02*
X0168833Y0324266D01*
X0168779Y0324228D02*
X0164911Y0324228D01*
X0164966Y0324190D02*
X0168725Y0324190D01*
X0168671Y0324152D02*
X0165020Y0324152D01*
X0165074Y0324114D02*
X0168616Y0324114D01*
X0168562Y0324076D02*
X0165128Y0324076D01*
X0165182Y0324038D02*
X0168508Y0324038D01*
X0168451Y0324001D02*
X0165239Y0324001D01*
X0165320Y0323963D02*
X0168370Y0323963D01*
X0168289Y0323925D02*
X0165401Y0323925D01*
X0165483Y0323887D02*
X0168208Y0323887D01*
X0168126Y0323849D02*
X0165564Y0323849D01*
X0165645Y0323811D02*
X0168045Y0323811D01*
X0167964Y0323773D02*
X0165726Y0323773D01*
X0165857Y0323735D02*
X0167833Y0323735D01*
X0167692Y0323698D02*
X0165998Y0323698D01*
X0166140Y0323660D02*
X0167550Y0323660D01*
X0167409Y0323622D02*
X0166281Y0323622D01*
X0166706Y0323584D02*
X0166984Y0323584D01*
X0170093Y0320048D02*
X0163597Y0320048D01*
X0163597Y0313552D01*
X0170093Y0313552D01*
X0170093Y0320048D01*
X0170093Y0320023D02*
X0163597Y0320023D01*
X0163597Y0319985D02*
X0170093Y0319985D01*
X0170093Y0319947D02*
X0163597Y0319947D01*
X0163597Y0319909D02*
X0170093Y0319909D01*
X0170093Y0319871D02*
X0163597Y0319871D01*
X0163597Y0319834D02*
X0170093Y0319834D01*
X0170093Y0319796D02*
X0163597Y0319796D01*
X0163597Y0319758D02*
X0170093Y0319758D01*
X0170093Y0319720D02*
X0163597Y0319720D01*
X0163597Y0319682D02*
X0170093Y0319682D01*
X0170093Y0319644D02*
X0163597Y0319644D01*
X0163597Y0319606D02*
X0170093Y0319606D01*
X0170093Y0319568D02*
X0163597Y0319568D01*
X0163597Y0319531D02*
X0170093Y0319531D01*
X0170093Y0319493D02*
X0163597Y0319493D01*
X0163597Y0319455D02*
X0170093Y0319455D01*
X0170093Y0319417D02*
X0163597Y0319417D01*
X0163597Y0319379D02*
X0170093Y0319379D01*
X0170093Y0319341D02*
X0163597Y0319341D01*
X0163597Y0319303D02*
X0170093Y0319303D01*
X0170093Y0319265D02*
X0163597Y0319265D01*
X0163597Y0319228D02*
X0170093Y0319228D01*
X0170093Y0319190D02*
X0163597Y0319190D01*
X0163597Y0319152D02*
X0170093Y0319152D01*
X0170093Y0319114D02*
X0163597Y0319114D01*
X0163597Y0319076D02*
X0170093Y0319076D01*
X0170093Y0319038D02*
X0163597Y0319038D01*
X0163597Y0319000D02*
X0170093Y0319000D01*
X0170093Y0318962D02*
X0163597Y0318962D01*
X0163597Y0318924D02*
X0170093Y0318924D01*
X0170093Y0318887D02*
X0163597Y0318887D01*
X0163597Y0318849D02*
X0170093Y0318849D01*
X0170093Y0318811D02*
X0163597Y0318811D01*
X0163597Y0318773D02*
X0170093Y0318773D01*
X0170093Y0318735D02*
X0163597Y0318735D01*
X0163597Y0318697D02*
X0170093Y0318697D01*
X0170093Y0318659D02*
X0163597Y0318659D01*
X0163597Y0318621D02*
X0170093Y0318621D01*
X0170093Y0318584D02*
X0163597Y0318584D01*
X0163597Y0318546D02*
X0170093Y0318546D01*
X0170093Y0318508D02*
X0163597Y0318508D01*
X0163597Y0318470D02*
X0170093Y0318470D01*
X0170093Y0318432D02*
X0163597Y0318432D01*
X0163597Y0318394D02*
X0170093Y0318394D01*
X0170093Y0318356D02*
X0163597Y0318356D01*
X0163597Y0318318D02*
X0170093Y0318318D01*
X0170093Y0318280D02*
X0163597Y0318280D01*
X0163597Y0318243D02*
X0170093Y0318243D01*
X0170093Y0318205D02*
X0163597Y0318205D01*
X0163597Y0318167D02*
X0170093Y0318167D01*
X0170093Y0318129D02*
X0163597Y0318129D01*
X0163597Y0318091D02*
X0170093Y0318091D01*
X0170093Y0318053D02*
X0163597Y0318053D01*
X0163597Y0318015D02*
X0170093Y0318015D01*
X0170093Y0317977D02*
X0163597Y0317977D01*
X0163597Y0317940D02*
X0170093Y0317940D01*
X0170093Y0317902D02*
X0163597Y0317902D01*
X0163597Y0317864D02*
X0170093Y0317864D01*
X0170093Y0317826D02*
X0163597Y0317826D01*
X0163597Y0317788D02*
X0170093Y0317788D01*
X0170093Y0317750D02*
X0163597Y0317750D01*
X0163597Y0317712D02*
X0170093Y0317712D01*
X0170093Y0317674D02*
X0163597Y0317674D01*
X0163597Y0317636D02*
X0170093Y0317636D01*
X0170093Y0317599D02*
X0163597Y0317599D01*
X0163597Y0317561D02*
X0170093Y0317561D01*
X0170093Y0317523D02*
X0163597Y0317523D01*
X0163597Y0317485D02*
X0170093Y0317485D01*
X0170093Y0317447D02*
X0163597Y0317447D01*
X0163597Y0317409D02*
X0170093Y0317409D01*
X0170093Y0317371D02*
X0163597Y0317371D01*
X0163597Y0317333D02*
X0170093Y0317333D01*
X0170093Y0317296D02*
X0163597Y0317296D01*
X0163597Y0317258D02*
X0170093Y0317258D01*
X0170093Y0317220D02*
X0163597Y0317220D01*
X0163597Y0317182D02*
X0170093Y0317182D01*
X0170093Y0317144D02*
X0163597Y0317144D01*
X0163597Y0317106D02*
X0170093Y0317106D01*
X0170093Y0317068D02*
X0163597Y0317068D01*
X0163597Y0317030D02*
X0170093Y0317030D01*
X0170093Y0316993D02*
X0163597Y0316993D01*
X0163597Y0316955D02*
X0170093Y0316955D01*
X0170093Y0316917D02*
X0163597Y0316917D01*
X0163597Y0316879D02*
X0170093Y0316879D01*
X0170093Y0316841D02*
X0163597Y0316841D01*
X0163597Y0316803D02*
X0170093Y0316803D01*
X0170093Y0316765D02*
X0163597Y0316765D01*
X0163597Y0316727D02*
X0170093Y0316727D01*
X0170093Y0316689D02*
X0163597Y0316689D01*
X0163597Y0316652D02*
X0170093Y0316652D01*
X0170093Y0316614D02*
X0163597Y0316614D01*
X0163597Y0316576D02*
X0170093Y0316576D01*
X0170093Y0316538D02*
X0163597Y0316538D01*
X0163597Y0316500D02*
X0170093Y0316500D01*
X0170093Y0316462D02*
X0163597Y0316462D01*
X0163597Y0316424D02*
X0170093Y0316424D01*
X0170093Y0316386D02*
X0163597Y0316386D01*
X0163597Y0316349D02*
X0170093Y0316349D01*
X0170093Y0316311D02*
X0163597Y0316311D01*
X0163597Y0316273D02*
X0170093Y0316273D01*
X0170093Y0316235D02*
X0163597Y0316235D01*
X0163597Y0316197D02*
X0170093Y0316197D01*
X0170093Y0316159D02*
X0163597Y0316159D01*
X0163597Y0316121D02*
X0170093Y0316121D01*
X0170093Y0316083D02*
X0163597Y0316083D01*
X0163597Y0316045D02*
X0170093Y0316045D01*
X0170093Y0316008D02*
X0163597Y0316008D01*
X0163597Y0315970D02*
X0170093Y0315970D01*
X0170093Y0315932D02*
X0163597Y0315932D01*
X0163597Y0315894D02*
X0170093Y0315894D01*
X0170093Y0315856D02*
X0163597Y0315856D01*
X0163597Y0315818D02*
X0170093Y0315818D01*
X0170093Y0315780D02*
X0163597Y0315780D01*
X0163597Y0315742D02*
X0170093Y0315742D01*
X0170093Y0315705D02*
X0163597Y0315705D01*
X0163597Y0315667D02*
X0170093Y0315667D01*
X0170093Y0315629D02*
X0163597Y0315629D01*
X0163597Y0315591D02*
X0170093Y0315591D01*
X0170093Y0315553D02*
X0163597Y0315553D01*
X0163597Y0315515D02*
X0170093Y0315515D01*
X0170093Y0315477D02*
X0163597Y0315477D01*
X0163597Y0315439D02*
X0170093Y0315439D01*
X0170093Y0315401D02*
X0163597Y0315401D01*
X0163597Y0315364D02*
X0170093Y0315364D01*
X0170093Y0315326D02*
X0163597Y0315326D01*
X0163597Y0315288D02*
X0170093Y0315288D01*
X0170093Y0315250D02*
X0163597Y0315250D01*
X0163597Y0315212D02*
X0170093Y0315212D01*
X0170093Y0315174D02*
X0163597Y0315174D01*
X0163597Y0315136D02*
X0170093Y0315136D01*
X0170093Y0315098D02*
X0163597Y0315098D01*
X0163597Y0315061D02*
X0170093Y0315061D01*
X0170093Y0315023D02*
X0163597Y0315023D01*
X0163597Y0314985D02*
X0170093Y0314985D01*
X0170093Y0314947D02*
X0163597Y0314947D01*
X0163597Y0314909D02*
X0170093Y0314909D01*
X0170093Y0314871D02*
X0163597Y0314871D01*
X0163597Y0314833D02*
X0170093Y0314833D01*
X0170093Y0314795D02*
X0163597Y0314795D01*
X0163597Y0314758D02*
X0170093Y0314758D01*
X0170093Y0314720D02*
X0163597Y0314720D01*
X0163597Y0314682D02*
X0170093Y0314682D01*
X0170093Y0314644D02*
X0163597Y0314644D01*
X0163597Y0314606D02*
X0170093Y0314606D01*
X0170093Y0314568D02*
X0163597Y0314568D01*
X0163597Y0314530D02*
X0170093Y0314530D01*
X0170093Y0314492D02*
X0163597Y0314492D01*
X0163597Y0314454D02*
X0170093Y0314454D01*
X0170093Y0314417D02*
X0163597Y0314417D01*
X0163597Y0314379D02*
X0170093Y0314379D01*
X0170093Y0314341D02*
X0163597Y0314341D01*
X0163597Y0314303D02*
X0170093Y0314303D01*
X0170093Y0314265D02*
X0163597Y0314265D01*
X0163597Y0314227D02*
X0170093Y0314227D01*
X0170093Y0314189D02*
X0163597Y0314189D01*
X0163597Y0314151D02*
X0170093Y0314151D01*
X0170093Y0314114D02*
X0163597Y0314114D01*
X0163597Y0314076D02*
X0170093Y0314076D01*
X0170093Y0314038D02*
X0163597Y0314038D01*
X0163597Y0314000D02*
X0170093Y0314000D01*
X0170093Y0313962D02*
X0163597Y0313962D01*
X0163597Y0313924D02*
X0170093Y0313924D01*
X0170093Y0313886D02*
X0163597Y0313886D01*
X0163597Y0313848D02*
X0170093Y0313848D01*
X0170093Y0313810D02*
X0163597Y0313810D01*
X0163597Y0313773D02*
X0170093Y0313773D01*
X0170093Y0313735D02*
X0163597Y0313735D01*
X0163597Y0313697D02*
X0170093Y0313697D01*
X0170093Y0313659D02*
X0163597Y0313659D01*
X0163597Y0313621D02*
X0170093Y0313621D01*
X0170093Y0313583D02*
X0163597Y0313583D01*
X0163829Y0347942D02*
X0169861Y0347942D01*
X0169844Y0347979D02*
X0163847Y0347979D01*
X0163864Y0348017D02*
X0169826Y0348017D01*
X0169808Y0348055D02*
X0163882Y0348055D01*
X0163900Y0348093D02*
X0169791Y0348093D01*
X0169773Y0348131D02*
X0163917Y0348131D01*
X0163935Y0348169D02*
X0169755Y0348169D01*
X0169738Y0348207D02*
X0163953Y0348207D01*
X0163970Y0348245D02*
X0169720Y0348245D01*
X0169702Y0348283D02*
X0163988Y0348283D01*
X0164006Y0348320D02*
X0169685Y0348320D01*
X0169667Y0348358D02*
X0164023Y0348358D01*
X0164041Y0348396D02*
X0169649Y0348396D01*
X0169641Y0348414D02*
X0169318Y0348875D01*
X0168920Y0349273D01*
X0168459Y0349596D01*
X0167949Y0349833D01*
X0167406Y0349979D01*
X0166845Y0350028D01*
X0166808Y0350025D02*
X0166882Y0350025D01*
X0167314Y0349987D02*
X0166376Y0349987D01*
X0166173Y0349949D02*
X0167517Y0349949D01*
X0167658Y0349911D02*
X0166032Y0349911D01*
X0165890Y0349874D02*
X0167800Y0349874D01*
X0167941Y0349836D02*
X0165749Y0349836D01*
X0165664Y0349798D02*
X0168026Y0349798D01*
X0168107Y0349760D02*
X0165583Y0349760D01*
X0165502Y0349722D02*
X0168188Y0349722D01*
X0168270Y0349684D02*
X0165421Y0349684D01*
X0165339Y0349646D02*
X0168351Y0349646D01*
X0168432Y0349608D02*
X0165258Y0349608D01*
X0165195Y0349571D02*
X0168495Y0349571D01*
X0168549Y0349533D02*
X0165141Y0349533D01*
X0165087Y0349495D02*
X0168604Y0349495D01*
X0168658Y0349457D02*
X0165033Y0349457D01*
X0164978Y0349419D02*
X0168712Y0349419D01*
X0168766Y0349381D02*
X0164924Y0349381D01*
X0164870Y0349343D02*
X0168820Y0349343D01*
X0168874Y0349305D02*
X0164816Y0349305D01*
X0164764Y0349267D02*
X0168926Y0349267D01*
X0168964Y0349230D02*
X0164726Y0349230D01*
X0164688Y0349192D02*
X0169002Y0349192D01*
X0169040Y0349154D02*
X0164651Y0349154D01*
X0164613Y0349116D02*
X0169078Y0349116D01*
X0169116Y0349078D02*
X0164575Y0349078D01*
X0164537Y0349040D02*
X0169153Y0349040D01*
X0169191Y0349002D02*
X0164499Y0349002D01*
X0164461Y0348964D02*
X0169229Y0348964D01*
X0169267Y0348927D02*
X0164423Y0348927D01*
X0164385Y0348889D02*
X0169305Y0348889D01*
X0169335Y0348851D02*
X0164355Y0348851D01*
X0164328Y0348813D02*
X0169362Y0348813D01*
X0169388Y0348775D02*
X0164302Y0348775D01*
X0164275Y0348737D02*
X0169415Y0348737D01*
X0169441Y0348699D02*
X0164249Y0348699D01*
X0164222Y0348661D02*
X0169468Y0348661D01*
X0169494Y0348623D02*
X0164196Y0348623D01*
X0164169Y0348586D02*
X0169521Y0348586D01*
X0169547Y0348548D02*
X0164143Y0348548D01*
X0164116Y0348510D02*
X0169574Y0348510D01*
X0169600Y0348472D02*
X0164090Y0348472D01*
X0164063Y0348434D02*
X0169627Y0348434D01*
X0169641Y0348414D02*
X0169879Y0347904D01*
D13*
X0431845Y0203050D03*
D14*
X0431845Y0193050D03*
X0431845Y0183050D03*
X0441845Y0183050D03*
X0441845Y0193050D03*
X0441845Y0203050D03*
D15*
X0411845Y0131800D03*
X0401845Y0131800D03*
X0391845Y0131800D03*
X0381845Y0131800D03*
X0371845Y0131800D03*
X0361845Y0131800D03*
X0445595Y0365550D03*
X0445595Y0375550D03*
X0445595Y0385550D03*
X0445595Y0395550D03*
X0445595Y0405550D03*
X0445595Y0415550D03*
D16*
X0274345Y0335343D03*
X0274345Y0331800D03*
D17*
X0246835Y0349182D03*
X0239355Y0349182D03*
X0239355Y0359418D03*
X0243095Y0359418D03*
X0246835Y0359418D03*
D18*
X0244545Y0364800D03*
X0289545Y0391800D03*
X0300945Y0325500D03*
X0283545Y0304800D03*
X0242145Y0296100D03*
X0271845Y0255300D03*
X0303645Y0210600D03*
X0304245Y0203700D03*
X0310995Y0198800D03*
X0298245Y0188700D03*
X0291945Y0191700D03*
X0285495Y0188450D03*
X0279345Y0177300D03*
X0279945Y0165900D03*
X0287145Y0153300D03*
X0286220Y0148050D03*
X0295245Y0165800D03*
X0301845Y0174900D03*
X0319545Y0126300D03*
X0310545Y0118500D03*
X0316945Y0082600D03*
X0218095Y0238675D03*
X0153945Y0258000D03*
X0146145Y0258000D03*
X0134445Y0273300D03*
X0375345Y0273000D03*
X0385245Y0257400D03*
X0400845Y0273000D03*
X0441345Y0306300D03*
X0448845Y0287700D03*
D19*
X0156845Y0122300D03*
X0165095Y0122300D03*
X0173345Y0122550D03*
X0181345Y0122300D03*
X0185095Y0128300D03*
X0185095Y0134800D03*
X0184845Y0141800D03*
X0184845Y0149550D03*
X0183845Y0157550D03*
X0191845Y0157550D03*
X0199095Y0157550D03*
X0206595Y0157300D03*
X0205345Y0164800D03*
X0209845Y0170550D03*
X0218345Y0170550D03*
X0214345Y0179800D03*
X0200345Y0170550D03*
X0191845Y0170550D03*
X0182845Y0170550D03*
X0173595Y0170550D03*
X0164845Y0170550D03*
X0156095Y0170550D03*
X0156095Y0162300D03*
X0156095Y0154300D03*
X0156095Y0146800D03*
X0156095Y0139050D03*
X0156095Y0130800D03*
X0207845Y0127800D03*
X0207845Y0134550D03*
X0215095Y0134550D03*
X0223095Y0134550D03*
X0228345Y0141300D03*
X0230595Y0148550D03*
X0227345Y0156300D03*
X0231345Y0161550D03*
X0230845Y0128550D03*
X0227845Y0122050D03*
X0220095Y0122050D03*
X0212595Y0121800D03*
X0292845Y0111050D03*
X0271345Y0261050D03*
X0271345Y0273550D03*
X0272095Y0286800D03*
X0244845Y0286800D03*
X0144345Y0276550D03*
X0298345Y0427300D03*
X0308095Y0427300D03*
X0461845Y0281550D03*
X0459595Y0262800D03*
M02*
