G75*
%MOIN*%
%OFA0B0*%
%FSLAX25Y25*%
%IPPOS*%
%LPD*%
%AMOC8*
5,1,8,0,0,1.08239X$1,22.5*
%
%ADD10C,0.01600*%
%ADD11C,0.00400*%
%ADD12C,0.00500*%
%ADD13C,0.00000*%
%ADD14C,0.00300*%
D10*
X0146845Y0171433D02*
X0146845Y0306433D01*
X0031845Y0306433D01*
X0031845Y0322683D01*
X0031845Y0330183D02*
X0031845Y0346433D01*
X0146845Y0346433D01*
X0146845Y0481433D01*
X0281845Y0481433D01*
X0281845Y0596433D01*
X0298095Y0596433D01*
X0305595Y0596433D02*
X0321845Y0596433D01*
X0321845Y0481433D01*
X0456845Y0481433D01*
X0456845Y0346433D01*
X0571845Y0346433D01*
X0571845Y0330183D01*
X0571845Y0322683D02*
X0571845Y0306433D01*
X0456845Y0306433D01*
X0456845Y0171433D01*
X0321845Y0171433D01*
X0321845Y0056433D01*
X0305595Y0056433D01*
X0298095Y0056433D02*
X0281845Y0056433D01*
X0281845Y0171433D01*
X0146845Y0171433D01*
X0031756Y0323283D02*
X0031838Y0322888D01*
X0031930Y0322494D01*
X0032031Y0322103D01*
X0032142Y0321714D01*
X0032262Y0321329D01*
X0032392Y0320946D01*
X0032531Y0320567D01*
X0032679Y0320191D01*
X0032836Y0319819D01*
X0033003Y0319450D01*
X0033178Y0319086D01*
X0033362Y0318727D01*
X0033555Y0318372D01*
X0033757Y0318022D01*
X0033967Y0317677D01*
X0034185Y0317337D01*
X0034412Y0317002D01*
X0034647Y0316673D01*
X0034890Y0316351D01*
X0035141Y0316034D01*
X0035399Y0315723D01*
X0035665Y0315419D01*
X0035938Y0315121D01*
X0036219Y0314830D01*
X0036506Y0314546D01*
X0036801Y0314270D01*
X0037102Y0314000D01*
X0037409Y0313738D01*
X0037723Y0313484D01*
X0038043Y0313237D01*
X0038369Y0312998D01*
X0038701Y0312767D01*
X0039038Y0312545D01*
X0039381Y0312331D01*
X0039728Y0312125D01*
X0040081Y0311928D01*
X0040438Y0311739D01*
X0040800Y0311560D01*
X0041166Y0311389D01*
X0041537Y0311227D01*
X0041911Y0311074D01*
X0042288Y0310931D01*
X0042670Y0310797D01*
X0043054Y0310672D01*
X0043441Y0310557D01*
X0043831Y0310451D01*
X0044223Y0310354D01*
X0044618Y0310268D01*
X0045015Y0310191D01*
X0045413Y0310124D01*
X0045813Y0310066D01*
X0046214Y0310019D01*
X0046617Y0309981D01*
X0047020Y0309953D01*
X0047423Y0309935D01*
X0047827Y0309927D01*
X0048231Y0309928D01*
X0048635Y0309940D01*
X0049039Y0309961D01*
X0049442Y0309993D01*
X0049843Y0310034D01*
X0050244Y0310085D01*
X0050644Y0310146D01*
X0051042Y0310216D01*
X0051438Y0310296D01*
X0051831Y0310386D01*
X0052223Y0310486D01*
X0052612Y0310595D01*
X0052998Y0310714D01*
X0053382Y0310842D01*
X0053762Y0310979D01*
X0054138Y0311126D01*
X0054511Y0311282D01*
X0054880Y0311446D01*
X0055245Y0311620D01*
X0055605Y0311803D01*
X0055961Y0311994D01*
X0056312Y0312195D01*
X0056658Y0312403D01*
X0056998Y0312620D01*
X0057334Y0312846D01*
X0057664Y0313079D01*
X0057987Y0313321D01*
X0058305Y0313570D01*
X0058617Y0313827D01*
X0058922Y0314092D01*
X0059221Y0314364D01*
X0059513Y0314643D01*
X0059798Y0314929D01*
X0060076Y0315223D01*
X0060347Y0315522D01*
X0060610Y0315829D01*
X0060866Y0316142D01*
X0061114Y0316461D01*
X0061354Y0316786D01*
X0061586Y0317116D01*
X0061810Y0317453D01*
X0062026Y0317794D01*
X0062233Y0318141D01*
X0062432Y0318493D01*
X0062622Y0318850D01*
X0062803Y0319211D01*
X0062976Y0319576D01*
X0063139Y0319946D01*
X0063293Y0320319D01*
X0063438Y0320696D01*
X0063574Y0321077D01*
X0063700Y0321461D01*
X0063817Y0321847D01*
X0063925Y0322237D01*
X0064023Y0322629D01*
X0064111Y0323023D01*
X0064190Y0323420D01*
X0064259Y0323818D01*
X0064318Y0324217D01*
X0064367Y0324618D01*
X0064406Y0325021D01*
X0064436Y0325423D01*
X0064456Y0325827D01*
X0064466Y0326231D01*
X0064466Y0326635D01*
X0064456Y0327039D01*
X0064436Y0327443D01*
X0064406Y0327845D01*
X0064367Y0328248D01*
X0064318Y0328649D01*
X0064259Y0329048D01*
X0064190Y0329446D01*
X0064111Y0329843D01*
X0064023Y0330237D01*
X0063925Y0330629D01*
X0063817Y0331019D01*
X0063700Y0331405D01*
X0063574Y0331789D01*
X0063438Y0332170D01*
X0063293Y0332547D01*
X0063139Y0332920D01*
X0062976Y0333290D01*
X0062803Y0333655D01*
X0062622Y0334016D01*
X0062432Y0334373D01*
X0062233Y0334725D01*
X0062026Y0335072D01*
X0061810Y0335413D01*
X0061586Y0335750D01*
X0061354Y0336080D01*
X0061114Y0336405D01*
X0060866Y0336724D01*
X0060610Y0337037D01*
X0060347Y0337344D01*
X0060076Y0337643D01*
X0059798Y0337937D01*
X0059513Y0338223D01*
X0059221Y0338502D01*
X0058922Y0338774D01*
X0058617Y0339039D01*
X0058305Y0339296D01*
X0057987Y0339545D01*
X0057664Y0339787D01*
X0057334Y0340020D01*
X0056998Y0340246D01*
X0056658Y0340463D01*
X0056312Y0340671D01*
X0055961Y0340872D01*
X0055605Y0341063D01*
X0055245Y0341246D01*
X0054880Y0341420D01*
X0054511Y0341584D01*
X0054138Y0341740D01*
X0053762Y0341887D01*
X0053382Y0342024D01*
X0052998Y0342152D01*
X0052612Y0342271D01*
X0052223Y0342380D01*
X0051831Y0342480D01*
X0051438Y0342570D01*
X0051042Y0342650D01*
X0050644Y0342720D01*
X0050244Y0342781D01*
X0049843Y0342832D01*
X0049442Y0342873D01*
X0049039Y0342905D01*
X0048635Y0342926D01*
X0048231Y0342938D01*
X0047827Y0342939D01*
X0047423Y0342931D01*
X0047020Y0342913D01*
X0046617Y0342885D01*
X0046214Y0342847D01*
X0045813Y0342800D01*
X0045413Y0342742D01*
X0045015Y0342675D01*
X0044618Y0342598D01*
X0044223Y0342512D01*
X0043831Y0342415D01*
X0043441Y0342309D01*
X0043054Y0342194D01*
X0042670Y0342069D01*
X0042288Y0341935D01*
X0041911Y0341792D01*
X0041537Y0341639D01*
X0041166Y0341477D01*
X0040800Y0341306D01*
X0040438Y0341127D01*
X0040081Y0340938D01*
X0039728Y0340741D01*
X0039381Y0340535D01*
X0039038Y0340321D01*
X0038701Y0340099D01*
X0038369Y0339868D01*
X0038043Y0339629D01*
X0037723Y0339382D01*
X0037409Y0339128D01*
X0037102Y0338866D01*
X0036801Y0338596D01*
X0036506Y0338320D01*
X0036219Y0338036D01*
X0035938Y0337745D01*
X0035665Y0337447D01*
X0035399Y0337143D01*
X0035141Y0336832D01*
X0034890Y0336515D01*
X0034647Y0336193D01*
X0034412Y0335864D01*
X0034185Y0335529D01*
X0033967Y0335189D01*
X0033757Y0334844D01*
X0033555Y0334494D01*
X0033362Y0334139D01*
X0033178Y0333780D01*
X0033003Y0333416D01*
X0032836Y0333047D01*
X0032679Y0332675D01*
X0032531Y0332299D01*
X0032392Y0331920D01*
X0032262Y0331537D01*
X0032142Y0331152D01*
X0032031Y0330763D01*
X0031930Y0330372D01*
X0031838Y0329978D01*
X0031756Y0329583D01*
X0298695Y0596522D02*
X0298300Y0596440D01*
X0297906Y0596348D01*
X0297515Y0596247D01*
X0297126Y0596136D01*
X0296741Y0596016D01*
X0296358Y0595886D01*
X0295979Y0595747D01*
X0295603Y0595599D01*
X0295231Y0595442D01*
X0294862Y0595275D01*
X0294498Y0595100D01*
X0294139Y0594916D01*
X0293784Y0594723D01*
X0293434Y0594521D01*
X0293089Y0594311D01*
X0292749Y0594093D01*
X0292414Y0593866D01*
X0292085Y0593631D01*
X0291763Y0593388D01*
X0291446Y0593137D01*
X0291135Y0592879D01*
X0290831Y0592613D01*
X0290533Y0592340D01*
X0290242Y0592059D01*
X0289958Y0591772D01*
X0289682Y0591477D01*
X0289412Y0591176D01*
X0289150Y0590869D01*
X0288896Y0590555D01*
X0288649Y0590235D01*
X0288410Y0589909D01*
X0288179Y0589577D01*
X0287957Y0589240D01*
X0287743Y0588897D01*
X0287537Y0588550D01*
X0287340Y0588197D01*
X0287151Y0587840D01*
X0286972Y0587478D01*
X0286801Y0587112D01*
X0286639Y0586741D01*
X0286486Y0586367D01*
X0286343Y0585990D01*
X0286209Y0585608D01*
X0286084Y0585224D01*
X0285969Y0584837D01*
X0285863Y0584447D01*
X0285766Y0584055D01*
X0285680Y0583660D01*
X0285603Y0583263D01*
X0285536Y0582865D01*
X0285478Y0582465D01*
X0285431Y0582064D01*
X0285393Y0581661D01*
X0285365Y0581258D01*
X0285347Y0580855D01*
X0285339Y0580451D01*
X0285340Y0580047D01*
X0285352Y0579643D01*
X0285373Y0579239D01*
X0285405Y0578836D01*
X0285446Y0578435D01*
X0285497Y0578034D01*
X0285558Y0577634D01*
X0285628Y0577236D01*
X0285708Y0576840D01*
X0285798Y0576447D01*
X0285898Y0576055D01*
X0286007Y0575666D01*
X0286126Y0575280D01*
X0286254Y0574896D01*
X0286391Y0574516D01*
X0286538Y0574140D01*
X0286694Y0573767D01*
X0286858Y0573398D01*
X0287032Y0573033D01*
X0287215Y0572673D01*
X0287406Y0572317D01*
X0287607Y0571966D01*
X0287815Y0571620D01*
X0288032Y0571280D01*
X0288258Y0570944D01*
X0288491Y0570614D01*
X0288733Y0570291D01*
X0288982Y0569973D01*
X0289239Y0569661D01*
X0289504Y0569356D01*
X0289776Y0569057D01*
X0290055Y0568765D01*
X0290341Y0568480D01*
X0290635Y0568202D01*
X0290934Y0567931D01*
X0291241Y0567668D01*
X0291554Y0567412D01*
X0291873Y0567164D01*
X0292198Y0566924D01*
X0292528Y0566692D01*
X0292865Y0566468D01*
X0293206Y0566252D01*
X0293553Y0566045D01*
X0293905Y0565846D01*
X0294262Y0565656D01*
X0294623Y0565475D01*
X0294988Y0565302D01*
X0295358Y0565139D01*
X0295731Y0564985D01*
X0296108Y0564840D01*
X0296489Y0564704D01*
X0296873Y0564578D01*
X0297259Y0564461D01*
X0297649Y0564353D01*
X0298041Y0564255D01*
X0298435Y0564167D01*
X0298832Y0564088D01*
X0299230Y0564019D01*
X0299629Y0563960D01*
X0300030Y0563911D01*
X0300433Y0563872D01*
X0300835Y0563842D01*
X0301239Y0563822D01*
X0301643Y0563812D01*
X0302047Y0563812D01*
X0302451Y0563822D01*
X0302855Y0563842D01*
X0303257Y0563872D01*
X0303660Y0563911D01*
X0304061Y0563960D01*
X0304460Y0564019D01*
X0304858Y0564088D01*
X0305255Y0564167D01*
X0305649Y0564255D01*
X0306041Y0564353D01*
X0306431Y0564461D01*
X0306817Y0564578D01*
X0307201Y0564704D01*
X0307582Y0564840D01*
X0307959Y0564985D01*
X0308332Y0565139D01*
X0308702Y0565302D01*
X0309067Y0565475D01*
X0309428Y0565656D01*
X0309785Y0565846D01*
X0310137Y0566045D01*
X0310484Y0566252D01*
X0310825Y0566468D01*
X0311162Y0566692D01*
X0311492Y0566924D01*
X0311817Y0567164D01*
X0312136Y0567412D01*
X0312449Y0567668D01*
X0312756Y0567931D01*
X0313055Y0568202D01*
X0313349Y0568480D01*
X0313635Y0568765D01*
X0313914Y0569057D01*
X0314186Y0569356D01*
X0314451Y0569661D01*
X0314708Y0569973D01*
X0314957Y0570291D01*
X0315199Y0570614D01*
X0315432Y0570944D01*
X0315658Y0571280D01*
X0315875Y0571620D01*
X0316083Y0571966D01*
X0316284Y0572317D01*
X0316475Y0572673D01*
X0316658Y0573033D01*
X0316832Y0573398D01*
X0316996Y0573767D01*
X0317152Y0574140D01*
X0317299Y0574516D01*
X0317436Y0574896D01*
X0317564Y0575280D01*
X0317683Y0575666D01*
X0317792Y0576055D01*
X0317892Y0576447D01*
X0317982Y0576840D01*
X0318062Y0577236D01*
X0318132Y0577634D01*
X0318193Y0578034D01*
X0318244Y0578435D01*
X0318285Y0578836D01*
X0318317Y0579239D01*
X0318338Y0579643D01*
X0318350Y0580047D01*
X0318351Y0580451D01*
X0318343Y0580855D01*
X0318325Y0581258D01*
X0318297Y0581661D01*
X0318259Y0582064D01*
X0318212Y0582465D01*
X0318154Y0582865D01*
X0318087Y0583263D01*
X0318010Y0583660D01*
X0317924Y0584055D01*
X0317827Y0584447D01*
X0317721Y0584837D01*
X0317606Y0585224D01*
X0317481Y0585608D01*
X0317347Y0585990D01*
X0317204Y0586367D01*
X0317051Y0586741D01*
X0316889Y0587112D01*
X0316718Y0587478D01*
X0316539Y0587840D01*
X0316350Y0588197D01*
X0316153Y0588550D01*
X0315947Y0588897D01*
X0315733Y0589240D01*
X0315511Y0589577D01*
X0315280Y0589909D01*
X0315041Y0590235D01*
X0314794Y0590555D01*
X0314540Y0590869D01*
X0314278Y0591176D01*
X0314008Y0591477D01*
X0313732Y0591772D01*
X0313448Y0592059D01*
X0313157Y0592340D01*
X0312859Y0592613D01*
X0312555Y0592879D01*
X0312244Y0593137D01*
X0311927Y0593388D01*
X0311605Y0593631D01*
X0311276Y0593866D01*
X0310941Y0594093D01*
X0310601Y0594311D01*
X0310256Y0594521D01*
X0309906Y0594723D01*
X0309551Y0594916D01*
X0309192Y0595100D01*
X0308828Y0595275D01*
X0308459Y0595442D01*
X0308087Y0595599D01*
X0307711Y0595747D01*
X0307332Y0595886D01*
X0306949Y0596016D01*
X0306564Y0596136D01*
X0306175Y0596247D01*
X0305784Y0596348D01*
X0305390Y0596440D01*
X0304995Y0596522D01*
X0571934Y0329583D02*
X0571852Y0329978D01*
X0571760Y0330372D01*
X0571659Y0330763D01*
X0571548Y0331152D01*
X0571428Y0331537D01*
X0571298Y0331920D01*
X0571159Y0332299D01*
X0571011Y0332675D01*
X0570854Y0333047D01*
X0570687Y0333416D01*
X0570512Y0333780D01*
X0570328Y0334139D01*
X0570135Y0334494D01*
X0569933Y0334844D01*
X0569723Y0335189D01*
X0569505Y0335529D01*
X0569278Y0335864D01*
X0569043Y0336193D01*
X0568800Y0336515D01*
X0568549Y0336832D01*
X0568291Y0337143D01*
X0568025Y0337447D01*
X0567752Y0337745D01*
X0567471Y0338036D01*
X0567184Y0338320D01*
X0566889Y0338596D01*
X0566588Y0338866D01*
X0566281Y0339128D01*
X0565967Y0339382D01*
X0565647Y0339629D01*
X0565321Y0339868D01*
X0564989Y0340099D01*
X0564652Y0340321D01*
X0564309Y0340535D01*
X0563962Y0340741D01*
X0563609Y0340938D01*
X0563252Y0341127D01*
X0562890Y0341306D01*
X0562524Y0341477D01*
X0562153Y0341639D01*
X0561779Y0341792D01*
X0561402Y0341935D01*
X0561020Y0342069D01*
X0560636Y0342194D01*
X0560249Y0342309D01*
X0559859Y0342415D01*
X0559467Y0342512D01*
X0559072Y0342598D01*
X0558675Y0342675D01*
X0558277Y0342742D01*
X0557877Y0342800D01*
X0557476Y0342847D01*
X0557073Y0342885D01*
X0556670Y0342913D01*
X0556267Y0342931D01*
X0555863Y0342939D01*
X0555459Y0342938D01*
X0555055Y0342926D01*
X0554651Y0342905D01*
X0554248Y0342873D01*
X0553847Y0342832D01*
X0553446Y0342781D01*
X0553046Y0342720D01*
X0552648Y0342650D01*
X0552252Y0342570D01*
X0551859Y0342480D01*
X0551467Y0342380D01*
X0551078Y0342271D01*
X0550692Y0342152D01*
X0550308Y0342024D01*
X0549928Y0341887D01*
X0549552Y0341740D01*
X0549179Y0341584D01*
X0548810Y0341420D01*
X0548445Y0341246D01*
X0548085Y0341063D01*
X0547729Y0340872D01*
X0547378Y0340671D01*
X0547032Y0340463D01*
X0546692Y0340246D01*
X0546356Y0340020D01*
X0546026Y0339787D01*
X0545703Y0339545D01*
X0545385Y0339296D01*
X0545073Y0339039D01*
X0544768Y0338774D01*
X0544469Y0338502D01*
X0544177Y0338223D01*
X0543892Y0337937D01*
X0543614Y0337643D01*
X0543343Y0337344D01*
X0543080Y0337037D01*
X0542824Y0336724D01*
X0542576Y0336405D01*
X0542336Y0336080D01*
X0542104Y0335750D01*
X0541880Y0335413D01*
X0541664Y0335072D01*
X0541457Y0334725D01*
X0541258Y0334373D01*
X0541068Y0334016D01*
X0540887Y0333655D01*
X0540714Y0333290D01*
X0540551Y0332920D01*
X0540397Y0332547D01*
X0540252Y0332170D01*
X0540116Y0331789D01*
X0539990Y0331405D01*
X0539873Y0331019D01*
X0539765Y0330629D01*
X0539667Y0330237D01*
X0539579Y0329843D01*
X0539500Y0329446D01*
X0539431Y0329048D01*
X0539372Y0328649D01*
X0539323Y0328248D01*
X0539284Y0327845D01*
X0539254Y0327443D01*
X0539234Y0327039D01*
X0539224Y0326635D01*
X0539224Y0326231D01*
X0539234Y0325827D01*
X0539254Y0325423D01*
X0539284Y0325021D01*
X0539323Y0324618D01*
X0539372Y0324217D01*
X0539431Y0323818D01*
X0539500Y0323420D01*
X0539579Y0323023D01*
X0539667Y0322629D01*
X0539765Y0322237D01*
X0539873Y0321847D01*
X0539990Y0321461D01*
X0540116Y0321077D01*
X0540252Y0320696D01*
X0540397Y0320319D01*
X0540551Y0319946D01*
X0540714Y0319576D01*
X0540887Y0319211D01*
X0541068Y0318850D01*
X0541258Y0318493D01*
X0541457Y0318141D01*
X0541664Y0317794D01*
X0541880Y0317453D01*
X0542104Y0317116D01*
X0542336Y0316786D01*
X0542576Y0316461D01*
X0542824Y0316142D01*
X0543080Y0315829D01*
X0543343Y0315522D01*
X0543614Y0315223D01*
X0543892Y0314929D01*
X0544177Y0314643D01*
X0544469Y0314364D01*
X0544768Y0314092D01*
X0545073Y0313827D01*
X0545385Y0313570D01*
X0545703Y0313321D01*
X0546026Y0313079D01*
X0546356Y0312846D01*
X0546692Y0312620D01*
X0547032Y0312403D01*
X0547378Y0312195D01*
X0547729Y0311994D01*
X0548085Y0311803D01*
X0548445Y0311620D01*
X0548810Y0311446D01*
X0549179Y0311282D01*
X0549552Y0311126D01*
X0549928Y0310979D01*
X0550308Y0310842D01*
X0550692Y0310714D01*
X0551078Y0310595D01*
X0551467Y0310486D01*
X0551859Y0310386D01*
X0552252Y0310296D01*
X0552648Y0310216D01*
X0553046Y0310146D01*
X0553446Y0310085D01*
X0553847Y0310034D01*
X0554248Y0309993D01*
X0554651Y0309961D01*
X0555055Y0309940D01*
X0555459Y0309928D01*
X0555863Y0309927D01*
X0556267Y0309935D01*
X0556670Y0309953D01*
X0557073Y0309981D01*
X0557476Y0310019D01*
X0557877Y0310066D01*
X0558277Y0310124D01*
X0558675Y0310191D01*
X0559072Y0310268D01*
X0559467Y0310354D01*
X0559859Y0310451D01*
X0560249Y0310557D01*
X0560636Y0310672D01*
X0561020Y0310797D01*
X0561402Y0310931D01*
X0561779Y0311074D01*
X0562153Y0311227D01*
X0562524Y0311389D01*
X0562890Y0311560D01*
X0563252Y0311739D01*
X0563609Y0311928D01*
X0563962Y0312125D01*
X0564309Y0312331D01*
X0564652Y0312545D01*
X0564989Y0312767D01*
X0565321Y0312998D01*
X0565647Y0313237D01*
X0565967Y0313484D01*
X0566281Y0313738D01*
X0566588Y0314000D01*
X0566889Y0314270D01*
X0567184Y0314546D01*
X0567471Y0314830D01*
X0567752Y0315121D01*
X0568025Y0315419D01*
X0568291Y0315723D01*
X0568549Y0316034D01*
X0568800Y0316351D01*
X0569043Y0316673D01*
X0569278Y0317002D01*
X0569505Y0317337D01*
X0569723Y0317677D01*
X0569933Y0318022D01*
X0570135Y0318372D01*
X0570328Y0318727D01*
X0570512Y0319086D01*
X0570687Y0319450D01*
X0570854Y0319819D01*
X0571011Y0320191D01*
X0571159Y0320567D01*
X0571298Y0320946D01*
X0571428Y0321329D01*
X0571548Y0321714D01*
X0571659Y0322103D01*
X0571760Y0322494D01*
X0571852Y0322888D01*
X0571934Y0323283D01*
X0304995Y0056344D02*
X0305390Y0056426D01*
X0305784Y0056518D01*
X0306175Y0056619D01*
X0306564Y0056730D01*
X0306949Y0056850D01*
X0307332Y0056980D01*
X0307711Y0057119D01*
X0308087Y0057267D01*
X0308459Y0057424D01*
X0308828Y0057591D01*
X0309192Y0057766D01*
X0309551Y0057950D01*
X0309906Y0058143D01*
X0310256Y0058345D01*
X0310601Y0058555D01*
X0310941Y0058773D01*
X0311276Y0059000D01*
X0311605Y0059235D01*
X0311927Y0059478D01*
X0312244Y0059729D01*
X0312555Y0059987D01*
X0312859Y0060253D01*
X0313157Y0060526D01*
X0313448Y0060807D01*
X0313732Y0061094D01*
X0314008Y0061389D01*
X0314278Y0061690D01*
X0314540Y0061997D01*
X0314794Y0062311D01*
X0315041Y0062631D01*
X0315280Y0062957D01*
X0315511Y0063289D01*
X0315733Y0063626D01*
X0315947Y0063969D01*
X0316153Y0064316D01*
X0316350Y0064669D01*
X0316539Y0065026D01*
X0316718Y0065388D01*
X0316889Y0065754D01*
X0317051Y0066125D01*
X0317204Y0066499D01*
X0317347Y0066876D01*
X0317481Y0067258D01*
X0317606Y0067642D01*
X0317721Y0068029D01*
X0317827Y0068419D01*
X0317924Y0068811D01*
X0318010Y0069206D01*
X0318087Y0069603D01*
X0318154Y0070001D01*
X0318212Y0070401D01*
X0318259Y0070802D01*
X0318297Y0071205D01*
X0318325Y0071608D01*
X0318343Y0072011D01*
X0318351Y0072415D01*
X0318350Y0072819D01*
X0318338Y0073223D01*
X0318317Y0073627D01*
X0318285Y0074030D01*
X0318244Y0074431D01*
X0318193Y0074832D01*
X0318132Y0075232D01*
X0318062Y0075630D01*
X0317982Y0076026D01*
X0317892Y0076419D01*
X0317792Y0076811D01*
X0317683Y0077200D01*
X0317564Y0077586D01*
X0317436Y0077970D01*
X0317299Y0078350D01*
X0317152Y0078726D01*
X0316996Y0079099D01*
X0316832Y0079468D01*
X0316658Y0079833D01*
X0316475Y0080193D01*
X0316284Y0080549D01*
X0316083Y0080900D01*
X0315875Y0081246D01*
X0315658Y0081586D01*
X0315432Y0081922D01*
X0315199Y0082252D01*
X0314957Y0082575D01*
X0314708Y0082893D01*
X0314451Y0083205D01*
X0314186Y0083510D01*
X0313914Y0083809D01*
X0313635Y0084101D01*
X0313349Y0084386D01*
X0313055Y0084664D01*
X0312756Y0084935D01*
X0312449Y0085198D01*
X0312136Y0085454D01*
X0311817Y0085702D01*
X0311492Y0085942D01*
X0311162Y0086174D01*
X0310825Y0086398D01*
X0310484Y0086614D01*
X0310137Y0086821D01*
X0309785Y0087020D01*
X0309428Y0087210D01*
X0309067Y0087391D01*
X0308702Y0087564D01*
X0308332Y0087727D01*
X0307959Y0087881D01*
X0307582Y0088026D01*
X0307201Y0088162D01*
X0306817Y0088288D01*
X0306431Y0088405D01*
X0306041Y0088513D01*
X0305649Y0088611D01*
X0305255Y0088699D01*
X0304858Y0088778D01*
X0304460Y0088847D01*
X0304061Y0088906D01*
X0303660Y0088955D01*
X0303257Y0088994D01*
X0302855Y0089024D01*
X0302451Y0089044D01*
X0302047Y0089054D01*
X0301643Y0089054D01*
X0301239Y0089044D01*
X0300835Y0089024D01*
X0300433Y0088994D01*
X0300030Y0088955D01*
X0299629Y0088906D01*
X0299230Y0088847D01*
X0298832Y0088778D01*
X0298435Y0088699D01*
X0298041Y0088611D01*
X0297649Y0088513D01*
X0297259Y0088405D01*
X0296873Y0088288D01*
X0296489Y0088162D01*
X0296108Y0088026D01*
X0295731Y0087881D01*
X0295358Y0087727D01*
X0294988Y0087564D01*
X0294623Y0087391D01*
X0294262Y0087210D01*
X0293905Y0087020D01*
X0293553Y0086821D01*
X0293206Y0086614D01*
X0292865Y0086398D01*
X0292528Y0086174D01*
X0292198Y0085942D01*
X0291873Y0085702D01*
X0291554Y0085454D01*
X0291241Y0085198D01*
X0290934Y0084935D01*
X0290635Y0084664D01*
X0290341Y0084386D01*
X0290055Y0084101D01*
X0289776Y0083809D01*
X0289504Y0083510D01*
X0289239Y0083205D01*
X0288982Y0082893D01*
X0288733Y0082575D01*
X0288491Y0082252D01*
X0288258Y0081922D01*
X0288032Y0081586D01*
X0287815Y0081246D01*
X0287607Y0080900D01*
X0287406Y0080549D01*
X0287215Y0080193D01*
X0287032Y0079833D01*
X0286858Y0079468D01*
X0286694Y0079099D01*
X0286538Y0078726D01*
X0286391Y0078350D01*
X0286254Y0077970D01*
X0286126Y0077586D01*
X0286007Y0077200D01*
X0285898Y0076811D01*
X0285798Y0076419D01*
X0285708Y0076026D01*
X0285628Y0075630D01*
X0285558Y0075232D01*
X0285497Y0074832D01*
X0285446Y0074431D01*
X0285405Y0074030D01*
X0285373Y0073627D01*
X0285352Y0073223D01*
X0285340Y0072819D01*
X0285339Y0072415D01*
X0285347Y0072011D01*
X0285365Y0071608D01*
X0285393Y0071205D01*
X0285431Y0070802D01*
X0285478Y0070401D01*
X0285536Y0070001D01*
X0285603Y0069603D01*
X0285680Y0069206D01*
X0285766Y0068811D01*
X0285863Y0068419D01*
X0285969Y0068029D01*
X0286084Y0067642D01*
X0286209Y0067258D01*
X0286343Y0066876D01*
X0286486Y0066499D01*
X0286639Y0066125D01*
X0286801Y0065754D01*
X0286972Y0065388D01*
X0287151Y0065026D01*
X0287340Y0064669D01*
X0287537Y0064316D01*
X0287743Y0063969D01*
X0287957Y0063626D01*
X0288179Y0063289D01*
X0288410Y0062957D01*
X0288649Y0062631D01*
X0288896Y0062311D01*
X0289150Y0061997D01*
X0289412Y0061690D01*
X0289682Y0061389D01*
X0289958Y0061094D01*
X0290242Y0060807D01*
X0290533Y0060526D01*
X0290831Y0060253D01*
X0291135Y0059987D01*
X0291446Y0059729D01*
X0291763Y0059478D01*
X0292085Y0059235D01*
X0292414Y0059000D01*
X0292749Y0058773D01*
X0293089Y0058555D01*
X0293434Y0058345D01*
X0293784Y0058143D01*
X0294139Y0057950D01*
X0294498Y0057766D01*
X0294862Y0057591D01*
X0295231Y0057424D01*
X0295603Y0057267D01*
X0295979Y0057119D01*
X0296358Y0056980D01*
X0296741Y0056850D01*
X0297126Y0056730D01*
X0297515Y0056619D01*
X0297906Y0056518D01*
X0298300Y0056426D01*
X0298695Y0056344D01*
D11*
X0298551Y0279133D02*
X0298551Y0282202D01*
X0297016Y0283737D01*
X0295482Y0282202D01*
X0295482Y0279133D01*
X0295482Y0281435D02*
X0298551Y0281435D01*
X0300086Y0280668D02*
X0300853Y0281435D01*
X0303155Y0281435D01*
X0303155Y0279133D02*
X0303155Y0283737D01*
X0300853Y0283737D01*
X0300086Y0282970D01*
X0300086Y0282202D01*
X0300853Y0281435D01*
X0300086Y0280668D02*
X0300086Y0279900D01*
X0300853Y0279133D01*
X0303155Y0279133D01*
X0293947Y0283737D02*
X0290878Y0283737D01*
X0292412Y0283737D02*
X0292412Y0279133D01*
X0287809Y0279133D02*
X0287809Y0283737D01*
X0289343Y0283737D02*
X0286274Y0283737D01*
X0284739Y0282202D02*
X0283205Y0283737D01*
X0283205Y0279133D01*
X0284739Y0279133D02*
X0281670Y0279133D01*
X0185322Y0369383D02*
X0182253Y0369383D01*
X0182253Y0373987D01*
X0180718Y0373220D02*
X0179951Y0373987D01*
X0178416Y0373987D01*
X0177649Y0373220D01*
X0177649Y0370150D01*
X0178416Y0369383D01*
X0179951Y0369383D01*
X0180718Y0370150D01*
X0176114Y0370150D02*
X0175347Y0369383D01*
X0173812Y0369383D01*
X0173045Y0370150D01*
X0173812Y0371685D02*
X0175347Y0371685D01*
X0176114Y0370918D01*
X0176114Y0370150D01*
X0173812Y0371685D02*
X0173045Y0372452D01*
X0173045Y0373220D01*
X0173812Y0373987D01*
X0175347Y0373987D01*
X0176114Y0373220D01*
X0174545Y0390133D02*
X0174545Y0394737D01*
X0176847Y0394737D01*
X0177614Y0393970D01*
X0177614Y0392435D01*
X0176847Y0391668D01*
X0174545Y0391668D01*
X0179149Y0392435D02*
X0180684Y0392435D01*
X0179149Y0390133D02*
X0182218Y0390133D01*
X0183753Y0392435D02*
X0186822Y0392435D01*
X0186055Y0390133D02*
X0186055Y0394737D01*
X0183753Y0392435D01*
X0182218Y0394737D02*
X0179149Y0394737D01*
X0179149Y0390133D01*
X0180399Y0399383D02*
X0183468Y0399383D01*
X0185003Y0400150D02*
X0185770Y0399383D01*
X0187305Y0399383D01*
X0188072Y0400150D01*
X0188072Y0400918D01*
X0187305Y0401685D01*
X0186538Y0401685D01*
X0187305Y0401685D02*
X0188072Y0402452D01*
X0188072Y0403220D01*
X0187305Y0403987D01*
X0185770Y0403987D01*
X0185003Y0403220D01*
X0183468Y0403987D02*
X0180399Y0403987D01*
X0180399Y0399383D01*
X0180399Y0401685D02*
X0181934Y0401685D01*
X0178864Y0401685D02*
X0178097Y0400918D01*
X0175795Y0400918D01*
X0175795Y0399383D02*
X0175795Y0403987D01*
X0178097Y0403987D01*
X0178864Y0403220D01*
X0178864Y0401685D01*
X0177045Y0409133D02*
X0177045Y0413737D01*
X0179347Y0413737D01*
X0180114Y0412970D01*
X0180114Y0411435D01*
X0179347Y0410668D01*
X0177045Y0410668D01*
X0181649Y0411435D02*
X0183184Y0411435D01*
X0181649Y0409133D02*
X0184718Y0409133D01*
X0186253Y0409900D02*
X0187020Y0409133D01*
X0188555Y0409133D01*
X0189322Y0409900D01*
X0189322Y0411435D01*
X0188555Y0412202D01*
X0187788Y0412202D01*
X0186253Y0411435D01*
X0186253Y0413737D01*
X0189322Y0413737D01*
X0184718Y0413737D02*
X0181649Y0413737D01*
X0181649Y0409133D01*
X0181649Y0419133D02*
X0183951Y0419133D01*
X0184718Y0419900D01*
X0184718Y0420668D01*
X0183951Y0421435D01*
X0181649Y0421435D01*
X0180114Y0421435D02*
X0179347Y0420668D01*
X0177045Y0420668D01*
X0177045Y0419133D02*
X0177045Y0423737D01*
X0179347Y0423737D01*
X0180114Y0422970D01*
X0180114Y0421435D01*
X0181649Y0419133D02*
X0181649Y0423737D01*
X0183951Y0423737D01*
X0184718Y0422970D01*
X0184718Y0422202D01*
X0183951Y0421435D01*
X0186253Y0421435D02*
X0187788Y0422202D01*
X0188555Y0422202D01*
X0189322Y0421435D01*
X0189322Y0419900D01*
X0188555Y0419133D01*
X0187020Y0419133D01*
X0186253Y0419900D01*
X0186253Y0421435D02*
X0186253Y0423737D01*
X0189322Y0423737D01*
X0190090Y0429133D02*
X0188555Y0430668D01*
X0188555Y0433737D01*
X0187020Y0432970D02*
X0183951Y0429900D01*
X0184718Y0429133D01*
X0186253Y0429133D01*
X0187020Y0429900D01*
X0187020Y0432970D01*
X0186253Y0433737D01*
X0184718Y0433737D01*
X0183951Y0432970D01*
X0183951Y0429900D01*
X0182416Y0429900D02*
X0182416Y0429133D01*
X0181649Y0429133D01*
X0181649Y0429900D01*
X0182416Y0429900D01*
X0180114Y0429900D02*
X0179347Y0429133D01*
X0177812Y0429133D01*
X0177045Y0429900D01*
X0178580Y0431435D02*
X0179347Y0431435D01*
X0180114Y0430668D01*
X0180114Y0429900D01*
X0179347Y0431435D02*
X0180114Y0432202D01*
X0180114Y0432970D01*
X0179347Y0433737D01*
X0177812Y0433737D01*
X0177045Y0432970D01*
X0181830Y0439133D02*
X0183364Y0440668D01*
X0183364Y0443737D01*
X0184899Y0443737D02*
X0184899Y0439133D01*
X0187201Y0439133D01*
X0187968Y0439900D01*
X0187968Y0440668D01*
X0187201Y0441435D01*
X0184899Y0441435D01*
X0184899Y0443737D02*
X0187201Y0443737D01*
X0187968Y0442970D01*
X0187968Y0442202D01*
X0187201Y0441435D01*
X0189503Y0441435D02*
X0192572Y0441435D01*
X0192572Y0442202D02*
X0192572Y0439133D01*
X0189503Y0439133D02*
X0189503Y0442202D01*
X0191038Y0443737D01*
X0192572Y0442202D01*
X0194107Y0443737D02*
X0197176Y0443737D01*
X0195642Y0443737D02*
X0195642Y0439133D01*
X0191624Y0433737D02*
X0191624Y0430668D01*
X0190090Y0429133D01*
X0181830Y0439133D02*
X0180295Y0440668D01*
X0180295Y0443737D01*
X0180218Y0448383D02*
X0180218Y0451452D01*
X0178684Y0452987D01*
X0177149Y0451452D01*
X0177149Y0448383D01*
X0175614Y0449150D02*
X0174847Y0448383D01*
X0172545Y0448383D01*
X0172545Y0452987D01*
X0174847Y0452987D01*
X0175614Y0452220D01*
X0175614Y0451452D01*
X0174847Y0450685D01*
X0172545Y0450685D01*
X0174847Y0450685D02*
X0175614Y0449918D01*
X0175614Y0449150D01*
X0177149Y0450685D02*
X0180218Y0450685D01*
X0181753Y0452987D02*
X0184822Y0452987D01*
X0183288Y0452987D02*
X0183288Y0448383D01*
X0186357Y0447616D02*
X0189426Y0447616D01*
X0190961Y0449150D02*
X0191728Y0448383D01*
X0193263Y0448383D01*
X0194030Y0449150D01*
X0194030Y0450685D01*
X0192495Y0450685D01*
X0190961Y0452220D02*
X0190961Y0449150D01*
X0190961Y0452220D02*
X0191728Y0452987D01*
X0193263Y0452987D01*
X0194030Y0452220D01*
X0195565Y0452987D02*
X0198634Y0448383D01*
X0198634Y0452987D01*
X0200169Y0452987D02*
X0202471Y0452987D01*
X0203238Y0452220D01*
X0203238Y0449150D01*
X0202471Y0448383D01*
X0200169Y0448383D01*
X0200169Y0452987D01*
X0195565Y0452987D02*
X0195565Y0448383D01*
X0186805Y0462883D02*
X0187572Y0463650D01*
X0187572Y0466720D01*
X0186805Y0467487D01*
X0184503Y0467487D01*
X0184503Y0462883D01*
X0186805Y0462883D01*
X0182968Y0462883D02*
X0182968Y0467487D01*
X0179899Y0467487D02*
X0182968Y0462883D01*
X0179899Y0462883D02*
X0179899Y0467487D01*
X0178364Y0466720D02*
X0177597Y0467487D01*
X0176062Y0467487D01*
X0175295Y0466720D01*
X0175295Y0463650D01*
X0176062Y0462883D01*
X0177597Y0462883D01*
X0178364Y0463650D01*
X0178364Y0465185D01*
X0176830Y0465185D01*
X0159145Y0389160D02*
X0156076Y0389160D01*
X0154541Y0387626D01*
X0156076Y0386091D01*
X0159145Y0386091D01*
X0158378Y0384556D02*
X0155309Y0384556D01*
X0154541Y0383789D01*
X0154541Y0381487D01*
X0159145Y0381487D01*
X0159145Y0383789D01*
X0158378Y0384556D01*
X0156843Y0386091D02*
X0156843Y0389160D01*
X0157611Y0379952D02*
X0158378Y0379952D01*
X0159145Y0379185D01*
X0159145Y0377650D01*
X0158378Y0376883D01*
X0156843Y0377650D02*
X0156076Y0376883D01*
X0155309Y0376883D01*
X0154541Y0377650D01*
X0154541Y0379185D01*
X0155309Y0379952D01*
X0156843Y0379185D02*
X0157611Y0379952D01*
X0156843Y0379185D02*
X0156843Y0377650D01*
X0288576Y0398935D02*
X0291645Y0398935D01*
X0301076Y0398935D02*
X0304145Y0398935D01*
X0302611Y0400470D02*
X0302611Y0397400D01*
D12*
X0316451Y0378677D02*
X0316451Y0374740D01*
X0280034Y0374740D01*
X0267239Y0374740D01*
X0264286Y0374740D01*
X0258381Y0374740D01*
X0258381Y0378677D01*
X0258381Y0374740D02*
X0211668Y0374740D01*
X0211570Y0374738D01*
X0211472Y0374732D01*
X0211374Y0374723D01*
X0211277Y0374709D01*
X0211180Y0374692D01*
X0211084Y0374671D01*
X0210989Y0374646D01*
X0210895Y0374618D01*
X0210803Y0374585D01*
X0210711Y0374550D01*
X0210621Y0374510D01*
X0210533Y0374468D01*
X0210446Y0374421D01*
X0210362Y0374372D01*
X0210279Y0374319D01*
X0210199Y0374263D01*
X0210120Y0374203D01*
X0210044Y0374141D01*
X0209971Y0374076D01*
X0209900Y0374008D01*
X0209832Y0373937D01*
X0209767Y0373864D01*
X0209705Y0373788D01*
X0209645Y0373709D01*
X0209589Y0373629D01*
X0209536Y0373546D01*
X0209487Y0373462D01*
X0209440Y0373375D01*
X0209398Y0373287D01*
X0209358Y0373197D01*
X0209323Y0373105D01*
X0209290Y0373013D01*
X0209262Y0372919D01*
X0209237Y0372824D01*
X0209216Y0372728D01*
X0209199Y0372631D01*
X0209185Y0372534D01*
X0209176Y0372436D01*
X0209170Y0372338D01*
X0209168Y0372240D01*
X0209168Y0351118D01*
X0199325Y0351118D01*
X0199325Y0337339D01*
X0195388Y0337339D01*
X0195388Y0325528D01*
X0199325Y0325528D01*
X0199325Y0337339D01*
X0199325Y0325528D02*
X0199325Y0311748D01*
X0209168Y0311748D01*
X0209168Y0351118D01*
X0211136Y0360961D02*
X0211136Y0370272D01*
X0211138Y0370370D01*
X0211144Y0370468D01*
X0211153Y0370566D01*
X0211167Y0370663D01*
X0211184Y0370760D01*
X0211205Y0370856D01*
X0211230Y0370951D01*
X0211258Y0371045D01*
X0211291Y0371137D01*
X0211326Y0371229D01*
X0211366Y0371319D01*
X0211408Y0371407D01*
X0211455Y0371494D01*
X0211504Y0371578D01*
X0211557Y0371661D01*
X0211613Y0371741D01*
X0211673Y0371820D01*
X0211735Y0371896D01*
X0211800Y0371969D01*
X0211868Y0372040D01*
X0211939Y0372108D01*
X0212012Y0372173D01*
X0212088Y0372235D01*
X0212167Y0372295D01*
X0212247Y0372351D01*
X0212330Y0372404D01*
X0212414Y0372453D01*
X0212501Y0372500D01*
X0212589Y0372542D01*
X0212679Y0372582D01*
X0212771Y0372617D01*
X0212863Y0372650D01*
X0212957Y0372678D01*
X0213052Y0372703D01*
X0213148Y0372724D01*
X0213245Y0372741D01*
X0213342Y0372755D01*
X0213440Y0372764D01*
X0213538Y0372770D01*
X0213636Y0372772D01*
X0222948Y0372772D01*
X0211136Y0360961D01*
X0252475Y0341276D02*
X0252475Y0321591D01*
X0264286Y0288126D01*
X0258381Y0288126D01*
X0258381Y0284189D01*
X0258381Y0288126D02*
X0211668Y0288126D01*
X0211570Y0288128D01*
X0211472Y0288134D01*
X0211374Y0288143D01*
X0211277Y0288157D01*
X0211180Y0288174D01*
X0211084Y0288195D01*
X0210989Y0288220D01*
X0210895Y0288248D01*
X0210803Y0288281D01*
X0210711Y0288316D01*
X0210621Y0288356D01*
X0210533Y0288398D01*
X0210446Y0288445D01*
X0210362Y0288494D01*
X0210279Y0288547D01*
X0210199Y0288603D01*
X0210120Y0288663D01*
X0210044Y0288725D01*
X0209971Y0288790D01*
X0209900Y0288858D01*
X0209832Y0288929D01*
X0209767Y0289002D01*
X0209705Y0289078D01*
X0209645Y0289157D01*
X0209589Y0289237D01*
X0209536Y0289320D01*
X0209487Y0289404D01*
X0209440Y0289491D01*
X0209398Y0289579D01*
X0209358Y0289669D01*
X0209323Y0289761D01*
X0209290Y0289853D01*
X0209262Y0289947D01*
X0209237Y0290042D01*
X0209216Y0290138D01*
X0209199Y0290235D01*
X0209185Y0290332D01*
X0209176Y0290430D01*
X0209170Y0290528D01*
X0209168Y0290626D01*
X0209168Y0311748D01*
X0211136Y0301906D02*
X0211136Y0292594D01*
X0211138Y0292496D01*
X0211144Y0292398D01*
X0211153Y0292300D01*
X0211167Y0292203D01*
X0211184Y0292106D01*
X0211205Y0292010D01*
X0211230Y0291915D01*
X0211258Y0291821D01*
X0211291Y0291729D01*
X0211326Y0291637D01*
X0211366Y0291547D01*
X0211408Y0291459D01*
X0211455Y0291372D01*
X0211504Y0291288D01*
X0211557Y0291205D01*
X0211613Y0291125D01*
X0211673Y0291046D01*
X0211735Y0290970D01*
X0211800Y0290897D01*
X0211868Y0290826D01*
X0211939Y0290758D01*
X0212012Y0290693D01*
X0212088Y0290631D01*
X0212167Y0290571D01*
X0212247Y0290515D01*
X0212330Y0290462D01*
X0212414Y0290413D01*
X0212501Y0290366D01*
X0212589Y0290324D01*
X0212679Y0290284D01*
X0212771Y0290249D01*
X0212863Y0290216D01*
X0212957Y0290188D01*
X0213052Y0290163D01*
X0213148Y0290142D01*
X0213245Y0290125D01*
X0213342Y0290111D01*
X0213440Y0290102D01*
X0213538Y0290096D01*
X0213636Y0290094D01*
X0222948Y0290094D01*
X0211136Y0301906D01*
X0252475Y0341276D02*
X0264286Y0374740D01*
X0267239Y0374740D02*
X0267239Y0378677D01*
X0267237Y0378808D01*
X0267231Y0378939D01*
X0267222Y0379070D01*
X0267208Y0379201D01*
X0267190Y0379331D01*
X0267169Y0379460D01*
X0267144Y0379589D01*
X0267115Y0379717D01*
X0267082Y0379844D01*
X0267046Y0379971D01*
X0267006Y0380095D01*
X0266962Y0380219D01*
X0266914Y0380342D01*
X0266863Y0380462D01*
X0266808Y0380582D01*
X0266750Y0380699D01*
X0266689Y0380815D01*
X0266624Y0380929D01*
X0266555Y0381041D01*
X0266483Y0381151D01*
X0266409Y0381259D01*
X0266330Y0381365D01*
X0266249Y0381468D01*
X0266165Y0381568D01*
X0266078Y0381666D01*
X0265988Y0381762D01*
X0265895Y0381855D01*
X0265799Y0381945D01*
X0265701Y0382032D01*
X0265601Y0382116D01*
X0265498Y0382197D01*
X0265392Y0382276D01*
X0265284Y0382350D01*
X0265174Y0382422D01*
X0265062Y0382491D01*
X0264948Y0382556D01*
X0264832Y0382617D01*
X0264715Y0382675D01*
X0264595Y0382730D01*
X0264475Y0382781D01*
X0264352Y0382829D01*
X0264228Y0382873D01*
X0264104Y0382913D01*
X0263977Y0382949D01*
X0263850Y0382982D01*
X0263722Y0383011D01*
X0263593Y0383036D01*
X0263464Y0383057D01*
X0263334Y0383075D01*
X0263203Y0383089D01*
X0263072Y0383098D01*
X0262941Y0383104D01*
X0262810Y0383106D01*
X0262679Y0383104D01*
X0262548Y0383098D01*
X0262417Y0383089D01*
X0262286Y0383075D01*
X0262156Y0383057D01*
X0262027Y0383036D01*
X0261898Y0383011D01*
X0261770Y0382982D01*
X0261643Y0382949D01*
X0261516Y0382913D01*
X0261392Y0382873D01*
X0261268Y0382829D01*
X0261145Y0382781D01*
X0261025Y0382730D01*
X0260905Y0382675D01*
X0260788Y0382617D01*
X0260672Y0382556D01*
X0260558Y0382491D01*
X0260446Y0382422D01*
X0260336Y0382350D01*
X0260228Y0382276D01*
X0260122Y0382197D01*
X0260019Y0382116D01*
X0259919Y0382032D01*
X0259821Y0381945D01*
X0259725Y0381855D01*
X0259632Y0381762D01*
X0259542Y0381666D01*
X0259455Y0381568D01*
X0259371Y0381468D01*
X0259290Y0381365D01*
X0259211Y0381259D01*
X0259137Y0381151D01*
X0259065Y0381041D01*
X0258996Y0380929D01*
X0258931Y0380815D01*
X0258870Y0380699D01*
X0258812Y0380582D01*
X0258757Y0380462D01*
X0258706Y0380342D01*
X0258658Y0380219D01*
X0258614Y0380095D01*
X0258574Y0379971D01*
X0258538Y0379844D01*
X0258505Y0379717D01*
X0258476Y0379589D01*
X0258451Y0379460D01*
X0258430Y0379331D01*
X0258412Y0379201D01*
X0258398Y0379070D01*
X0258389Y0378939D01*
X0258383Y0378808D01*
X0258381Y0378677D01*
X0280034Y0374740D02*
X0268223Y0341276D01*
X0311530Y0341276D01*
X0323341Y0374740D01*
X0325310Y0374740D02*
X0325310Y0378677D01*
X0325310Y0374740D02*
X0316451Y0374740D01*
X0316452Y0378677D02*
X0316454Y0378808D01*
X0316460Y0378939D01*
X0316469Y0379070D01*
X0316483Y0379201D01*
X0316501Y0379331D01*
X0316522Y0379460D01*
X0316547Y0379589D01*
X0316576Y0379717D01*
X0316609Y0379844D01*
X0316645Y0379971D01*
X0316685Y0380095D01*
X0316729Y0380219D01*
X0316777Y0380342D01*
X0316828Y0380462D01*
X0316883Y0380582D01*
X0316941Y0380699D01*
X0317002Y0380815D01*
X0317067Y0380929D01*
X0317136Y0381041D01*
X0317208Y0381151D01*
X0317282Y0381259D01*
X0317361Y0381365D01*
X0317442Y0381468D01*
X0317526Y0381568D01*
X0317613Y0381666D01*
X0317703Y0381762D01*
X0317796Y0381855D01*
X0317892Y0381945D01*
X0317990Y0382032D01*
X0318090Y0382116D01*
X0318193Y0382197D01*
X0318299Y0382276D01*
X0318407Y0382350D01*
X0318517Y0382422D01*
X0318629Y0382491D01*
X0318743Y0382556D01*
X0318859Y0382617D01*
X0318976Y0382675D01*
X0319096Y0382730D01*
X0319216Y0382781D01*
X0319339Y0382829D01*
X0319463Y0382873D01*
X0319587Y0382913D01*
X0319714Y0382949D01*
X0319841Y0382982D01*
X0319969Y0383011D01*
X0320098Y0383036D01*
X0320227Y0383057D01*
X0320357Y0383075D01*
X0320488Y0383089D01*
X0320619Y0383098D01*
X0320750Y0383104D01*
X0320881Y0383106D01*
X0321012Y0383104D01*
X0321143Y0383098D01*
X0321274Y0383089D01*
X0321405Y0383075D01*
X0321535Y0383057D01*
X0321664Y0383036D01*
X0321793Y0383011D01*
X0321921Y0382982D01*
X0322048Y0382949D01*
X0322175Y0382913D01*
X0322299Y0382873D01*
X0322423Y0382829D01*
X0322546Y0382781D01*
X0322666Y0382730D01*
X0322786Y0382675D01*
X0322903Y0382617D01*
X0323019Y0382556D01*
X0323133Y0382491D01*
X0323245Y0382422D01*
X0323355Y0382350D01*
X0323463Y0382276D01*
X0323569Y0382197D01*
X0323672Y0382116D01*
X0323772Y0382032D01*
X0323870Y0381945D01*
X0323966Y0381855D01*
X0324059Y0381762D01*
X0324149Y0381666D01*
X0324236Y0381568D01*
X0324320Y0381468D01*
X0324401Y0381365D01*
X0324480Y0381259D01*
X0324554Y0381151D01*
X0324626Y0381041D01*
X0324695Y0380929D01*
X0324760Y0380815D01*
X0324821Y0380699D01*
X0324879Y0380582D01*
X0324934Y0380462D01*
X0324985Y0380342D01*
X0325033Y0380219D01*
X0325077Y0380095D01*
X0325117Y0379971D01*
X0325153Y0379844D01*
X0325186Y0379717D01*
X0325215Y0379589D01*
X0325240Y0379460D01*
X0325261Y0379331D01*
X0325279Y0379201D01*
X0325293Y0379070D01*
X0325302Y0378939D01*
X0325308Y0378808D01*
X0325310Y0378677D01*
X0325310Y0374740D02*
X0356806Y0374740D01*
X0370585Y0368835D01*
X0370585Y0348165D01*
X0352869Y0348165D01*
X0352869Y0347181D01*
X0381865Y0347181D01*
X0381963Y0347179D01*
X0382061Y0347173D01*
X0382159Y0347164D01*
X0382256Y0347150D01*
X0382353Y0347133D01*
X0382449Y0347112D01*
X0382544Y0347087D01*
X0382638Y0347059D01*
X0382730Y0347026D01*
X0382822Y0346991D01*
X0382912Y0346951D01*
X0383000Y0346909D01*
X0383087Y0346862D01*
X0383171Y0346813D01*
X0383254Y0346760D01*
X0383334Y0346704D01*
X0383413Y0346644D01*
X0383489Y0346582D01*
X0383562Y0346517D01*
X0383633Y0346449D01*
X0383701Y0346378D01*
X0383766Y0346305D01*
X0383828Y0346229D01*
X0383888Y0346150D01*
X0383944Y0346070D01*
X0383997Y0345987D01*
X0384046Y0345903D01*
X0384093Y0345816D01*
X0384135Y0345728D01*
X0384175Y0345638D01*
X0384210Y0345546D01*
X0384243Y0345454D01*
X0384271Y0345360D01*
X0384296Y0345265D01*
X0384317Y0345169D01*
X0384334Y0345072D01*
X0384348Y0344975D01*
X0384357Y0344877D01*
X0384363Y0344779D01*
X0384365Y0344681D01*
X0384365Y0318185D01*
X0384363Y0318087D01*
X0384357Y0317989D01*
X0384348Y0317891D01*
X0384334Y0317794D01*
X0384317Y0317697D01*
X0384296Y0317601D01*
X0384271Y0317506D01*
X0384243Y0317412D01*
X0384210Y0317320D01*
X0384175Y0317228D01*
X0384135Y0317138D01*
X0384093Y0317050D01*
X0384046Y0316963D01*
X0383997Y0316879D01*
X0383944Y0316796D01*
X0383888Y0316716D01*
X0383828Y0316637D01*
X0383766Y0316561D01*
X0383701Y0316488D01*
X0383633Y0316417D01*
X0383562Y0316349D01*
X0383489Y0316284D01*
X0383413Y0316222D01*
X0383334Y0316162D01*
X0383254Y0316106D01*
X0383171Y0316053D01*
X0383087Y0316004D01*
X0383000Y0315957D01*
X0382912Y0315915D01*
X0382822Y0315875D01*
X0382730Y0315840D01*
X0382638Y0315807D01*
X0382544Y0315779D01*
X0382449Y0315754D01*
X0382353Y0315733D01*
X0382256Y0315716D01*
X0382159Y0315702D01*
X0382061Y0315693D01*
X0381963Y0315687D01*
X0381865Y0315685D01*
X0352869Y0315685D01*
X0352869Y0314701D01*
X0370585Y0314701D01*
X0370585Y0294031D01*
X0356806Y0288126D01*
X0325310Y0288126D01*
X0325310Y0284189D01*
X0325310Y0288126D02*
X0316451Y0288126D01*
X0316451Y0284189D01*
X0316451Y0288126D02*
X0280034Y0288126D01*
X0268223Y0321591D01*
X0311530Y0321591D01*
X0323341Y0288126D01*
X0325310Y0284189D02*
X0325308Y0284058D01*
X0325302Y0283927D01*
X0325293Y0283796D01*
X0325279Y0283665D01*
X0325261Y0283535D01*
X0325240Y0283406D01*
X0325215Y0283277D01*
X0325186Y0283149D01*
X0325153Y0283022D01*
X0325117Y0282895D01*
X0325077Y0282771D01*
X0325033Y0282647D01*
X0324985Y0282524D01*
X0324934Y0282404D01*
X0324879Y0282284D01*
X0324821Y0282167D01*
X0324760Y0282051D01*
X0324695Y0281937D01*
X0324626Y0281825D01*
X0324554Y0281715D01*
X0324480Y0281607D01*
X0324401Y0281501D01*
X0324320Y0281398D01*
X0324236Y0281298D01*
X0324149Y0281200D01*
X0324059Y0281104D01*
X0323966Y0281011D01*
X0323870Y0280921D01*
X0323772Y0280834D01*
X0323672Y0280750D01*
X0323569Y0280669D01*
X0323463Y0280590D01*
X0323355Y0280516D01*
X0323245Y0280444D01*
X0323133Y0280375D01*
X0323019Y0280310D01*
X0322903Y0280249D01*
X0322786Y0280191D01*
X0322666Y0280136D01*
X0322546Y0280085D01*
X0322423Y0280037D01*
X0322299Y0279993D01*
X0322175Y0279953D01*
X0322048Y0279917D01*
X0321921Y0279884D01*
X0321793Y0279855D01*
X0321664Y0279830D01*
X0321535Y0279809D01*
X0321405Y0279791D01*
X0321274Y0279777D01*
X0321143Y0279768D01*
X0321012Y0279762D01*
X0320881Y0279760D01*
X0320750Y0279762D01*
X0320619Y0279768D01*
X0320488Y0279777D01*
X0320357Y0279791D01*
X0320227Y0279809D01*
X0320098Y0279830D01*
X0319969Y0279855D01*
X0319841Y0279884D01*
X0319714Y0279917D01*
X0319587Y0279953D01*
X0319463Y0279993D01*
X0319339Y0280037D01*
X0319216Y0280085D01*
X0319096Y0280136D01*
X0318976Y0280191D01*
X0318859Y0280249D01*
X0318743Y0280310D01*
X0318629Y0280375D01*
X0318517Y0280444D01*
X0318407Y0280516D01*
X0318299Y0280590D01*
X0318193Y0280669D01*
X0318090Y0280750D01*
X0317990Y0280834D01*
X0317892Y0280921D01*
X0317796Y0281011D01*
X0317703Y0281104D01*
X0317613Y0281200D01*
X0317526Y0281298D01*
X0317442Y0281398D01*
X0317361Y0281501D01*
X0317282Y0281607D01*
X0317208Y0281715D01*
X0317136Y0281825D01*
X0317067Y0281937D01*
X0317002Y0282051D01*
X0316941Y0282167D01*
X0316883Y0282284D01*
X0316828Y0282404D01*
X0316777Y0282524D01*
X0316729Y0282647D01*
X0316685Y0282771D01*
X0316645Y0282895D01*
X0316609Y0283022D01*
X0316576Y0283149D01*
X0316547Y0283277D01*
X0316522Y0283406D01*
X0316501Y0283535D01*
X0316483Y0283665D01*
X0316469Y0283796D01*
X0316460Y0283927D01*
X0316454Y0284058D01*
X0316452Y0284189D01*
X0339089Y0288126D02*
X0327278Y0321591D01*
X0327278Y0341276D01*
X0339089Y0374740D01*
X0280034Y0288126D02*
X0267239Y0288126D01*
X0267239Y0284189D01*
X0267239Y0288126D02*
X0264286Y0288126D01*
X0267239Y0284189D02*
X0267237Y0284058D01*
X0267231Y0283927D01*
X0267222Y0283796D01*
X0267208Y0283665D01*
X0267190Y0283535D01*
X0267169Y0283406D01*
X0267144Y0283277D01*
X0267115Y0283149D01*
X0267082Y0283022D01*
X0267046Y0282895D01*
X0267006Y0282771D01*
X0266962Y0282647D01*
X0266914Y0282524D01*
X0266863Y0282404D01*
X0266808Y0282284D01*
X0266750Y0282167D01*
X0266689Y0282051D01*
X0266624Y0281937D01*
X0266555Y0281825D01*
X0266483Y0281715D01*
X0266409Y0281607D01*
X0266330Y0281501D01*
X0266249Y0281398D01*
X0266165Y0281298D01*
X0266078Y0281200D01*
X0265988Y0281104D01*
X0265895Y0281011D01*
X0265799Y0280921D01*
X0265701Y0280834D01*
X0265601Y0280750D01*
X0265498Y0280669D01*
X0265392Y0280590D01*
X0265284Y0280516D01*
X0265174Y0280444D01*
X0265062Y0280375D01*
X0264948Y0280310D01*
X0264832Y0280249D01*
X0264715Y0280191D01*
X0264595Y0280136D01*
X0264475Y0280085D01*
X0264352Y0280037D01*
X0264228Y0279993D01*
X0264104Y0279953D01*
X0263977Y0279917D01*
X0263850Y0279884D01*
X0263722Y0279855D01*
X0263593Y0279830D01*
X0263464Y0279809D01*
X0263334Y0279791D01*
X0263203Y0279777D01*
X0263072Y0279768D01*
X0262941Y0279762D01*
X0262810Y0279760D01*
X0262679Y0279762D01*
X0262548Y0279768D01*
X0262417Y0279777D01*
X0262286Y0279791D01*
X0262156Y0279809D01*
X0262027Y0279830D01*
X0261898Y0279855D01*
X0261770Y0279884D01*
X0261643Y0279917D01*
X0261516Y0279953D01*
X0261392Y0279993D01*
X0261268Y0280037D01*
X0261145Y0280085D01*
X0261025Y0280136D01*
X0260905Y0280191D01*
X0260788Y0280249D01*
X0260672Y0280310D01*
X0260558Y0280375D01*
X0260446Y0280444D01*
X0260336Y0280516D01*
X0260228Y0280590D01*
X0260122Y0280669D01*
X0260019Y0280750D01*
X0259919Y0280834D01*
X0259821Y0280921D01*
X0259725Y0281011D01*
X0259632Y0281104D01*
X0259542Y0281200D01*
X0259455Y0281298D01*
X0259371Y0281398D01*
X0259290Y0281501D01*
X0259211Y0281607D01*
X0259137Y0281715D01*
X0259065Y0281825D01*
X0258996Y0281937D01*
X0258931Y0282051D01*
X0258870Y0282167D01*
X0258812Y0282284D01*
X0258757Y0282404D01*
X0258706Y0282524D01*
X0258658Y0282647D01*
X0258614Y0282771D01*
X0258574Y0282895D01*
X0258538Y0283022D01*
X0258505Y0283149D01*
X0258476Y0283277D01*
X0258451Y0283406D01*
X0258430Y0283535D01*
X0258412Y0283665D01*
X0258398Y0283796D01*
X0258389Y0283927D01*
X0258383Y0284058D01*
X0258381Y0284189D01*
D13*
X0260152Y0283992D02*
X0260154Y0284097D01*
X0260160Y0284202D01*
X0260170Y0284306D01*
X0260184Y0284410D01*
X0260202Y0284514D01*
X0260224Y0284616D01*
X0260249Y0284718D01*
X0260279Y0284819D01*
X0260312Y0284918D01*
X0260349Y0285016D01*
X0260390Y0285113D01*
X0260435Y0285208D01*
X0260483Y0285301D01*
X0260534Y0285393D01*
X0260590Y0285482D01*
X0260648Y0285569D01*
X0260710Y0285654D01*
X0260774Y0285737D01*
X0260842Y0285817D01*
X0260913Y0285894D01*
X0260987Y0285968D01*
X0261064Y0286040D01*
X0261143Y0286109D01*
X0261225Y0286174D01*
X0261309Y0286237D01*
X0261396Y0286296D01*
X0261485Y0286352D01*
X0261576Y0286405D01*
X0261669Y0286454D01*
X0261763Y0286499D01*
X0261859Y0286541D01*
X0261957Y0286579D01*
X0262056Y0286613D01*
X0262157Y0286644D01*
X0262258Y0286670D01*
X0262361Y0286693D01*
X0262464Y0286712D01*
X0262568Y0286727D01*
X0262672Y0286738D01*
X0262777Y0286745D01*
X0262882Y0286748D01*
X0262987Y0286747D01*
X0263092Y0286742D01*
X0263196Y0286733D01*
X0263300Y0286720D01*
X0263404Y0286703D01*
X0263507Y0286682D01*
X0263609Y0286657D01*
X0263710Y0286629D01*
X0263809Y0286596D01*
X0263908Y0286560D01*
X0264005Y0286520D01*
X0264100Y0286477D01*
X0264194Y0286429D01*
X0264286Y0286379D01*
X0264376Y0286325D01*
X0264464Y0286267D01*
X0264549Y0286206D01*
X0264632Y0286142D01*
X0264713Y0286075D01*
X0264791Y0286005D01*
X0264866Y0285931D01*
X0264938Y0285856D01*
X0265008Y0285777D01*
X0265074Y0285696D01*
X0265138Y0285612D01*
X0265198Y0285526D01*
X0265254Y0285438D01*
X0265308Y0285347D01*
X0265358Y0285255D01*
X0265404Y0285161D01*
X0265447Y0285065D01*
X0265486Y0284967D01*
X0265521Y0284869D01*
X0265552Y0284768D01*
X0265580Y0284667D01*
X0265604Y0284565D01*
X0265624Y0284462D01*
X0265640Y0284358D01*
X0265652Y0284254D01*
X0265660Y0284149D01*
X0265664Y0284044D01*
X0265664Y0283940D01*
X0265660Y0283835D01*
X0265652Y0283730D01*
X0265640Y0283626D01*
X0265624Y0283522D01*
X0265604Y0283419D01*
X0265580Y0283317D01*
X0265552Y0283216D01*
X0265521Y0283115D01*
X0265486Y0283017D01*
X0265447Y0282919D01*
X0265404Y0282823D01*
X0265358Y0282729D01*
X0265308Y0282637D01*
X0265254Y0282546D01*
X0265198Y0282458D01*
X0265138Y0282372D01*
X0265074Y0282288D01*
X0265008Y0282207D01*
X0264938Y0282128D01*
X0264866Y0282053D01*
X0264791Y0281979D01*
X0264713Y0281909D01*
X0264632Y0281842D01*
X0264549Y0281778D01*
X0264464Y0281717D01*
X0264376Y0281659D01*
X0264286Y0281605D01*
X0264194Y0281555D01*
X0264100Y0281507D01*
X0264005Y0281464D01*
X0263908Y0281424D01*
X0263809Y0281388D01*
X0263710Y0281355D01*
X0263609Y0281327D01*
X0263507Y0281302D01*
X0263404Y0281281D01*
X0263300Y0281264D01*
X0263196Y0281251D01*
X0263092Y0281242D01*
X0262987Y0281237D01*
X0262882Y0281236D01*
X0262777Y0281239D01*
X0262672Y0281246D01*
X0262568Y0281257D01*
X0262464Y0281272D01*
X0262361Y0281291D01*
X0262258Y0281314D01*
X0262157Y0281340D01*
X0262056Y0281371D01*
X0261957Y0281405D01*
X0261859Y0281443D01*
X0261763Y0281485D01*
X0261669Y0281530D01*
X0261576Y0281579D01*
X0261485Y0281632D01*
X0261396Y0281688D01*
X0261309Y0281747D01*
X0261225Y0281810D01*
X0261143Y0281875D01*
X0261064Y0281944D01*
X0260987Y0282016D01*
X0260913Y0282090D01*
X0260842Y0282167D01*
X0260774Y0282247D01*
X0260710Y0282330D01*
X0260648Y0282415D01*
X0260590Y0282502D01*
X0260534Y0282591D01*
X0260483Y0282683D01*
X0260435Y0282776D01*
X0260390Y0282871D01*
X0260349Y0282968D01*
X0260312Y0283066D01*
X0260279Y0283165D01*
X0260249Y0283266D01*
X0260224Y0283368D01*
X0260202Y0283470D01*
X0260184Y0283574D01*
X0260170Y0283678D01*
X0260160Y0283782D01*
X0260154Y0283887D01*
X0260152Y0283992D01*
X0318026Y0283992D02*
X0318028Y0284097D01*
X0318034Y0284202D01*
X0318044Y0284306D01*
X0318058Y0284410D01*
X0318076Y0284514D01*
X0318098Y0284616D01*
X0318123Y0284718D01*
X0318153Y0284819D01*
X0318186Y0284918D01*
X0318223Y0285016D01*
X0318264Y0285113D01*
X0318309Y0285208D01*
X0318357Y0285301D01*
X0318408Y0285393D01*
X0318464Y0285482D01*
X0318522Y0285569D01*
X0318584Y0285654D01*
X0318648Y0285737D01*
X0318716Y0285817D01*
X0318787Y0285894D01*
X0318861Y0285968D01*
X0318938Y0286040D01*
X0319017Y0286109D01*
X0319099Y0286174D01*
X0319183Y0286237D01*
X0319270Y0286296D01*
X0319359Y0286352D01*
X0319450Y0286405D01*
X0319543Y0286454D01*
X0319637Y0286499D01*
X0319733Y0286541D01*
X0319831Y0286579D01*
X0319930Y0286613D01*
X0320031Y0286644D01*
X0320132Y0286670D01*
X0320235Y0286693D01*
X0320338Y0286712D01*
X0320442Y0286727D01*
X0320546Y0286738D01*
X0320651Y0286745D01*
X0320756Y0286748D01*
X0320861Y0286747D01*
X0320966Y0286742D01*
X0321070Y0286733D01*
X0321174Y0286720D01*
X0321278Y0286703D01*
X0321381Y0286682D01*
X0321483Y0286657D01*
X0321584Y0286629D01*
X0321683Y0286596D01*
X0321782Y0286560D01*
X0321879Y0286520D01*
X0321974Y0286477D01*
X0322068Y0286429D01*
X0322160Y0286379D01*
X0322250Y0286325D01*
X0322338Y0286267D01*
X0322423Y0286206D01*
X0322506Y0286142D01*
X0322587Y0286075D01*
X0322665Y0286005D01*
X0322740Y0285931D01*
X0322812Y0285856D01*
X0322882Y0285777D01*
X0322948Y0285696D01*
X0323012Y0285612D01*
X0323072Y0285526D01*
X0323128Y0285438D01*
X0323182Y0285347D01*
X0323232Y0285255D01*
X0323278Y0285161D01*
X0323321Y0285065D01*
X0323360Y0284967D01*
X0323395Y0284869D01*
X0323426Y0284768D01*
X0323454Y0284667D01*
X0323478Y0284565D01*
X0323498Y0284462D01*
X0323514Y0284358D01*
X0323526Y0284254D01*
X0323534Y0284149D01*
X0323538Y0284044D01*
X0323538Y0283940D01*
X0323534Y0283835D01*
X0323526Y0283730D01*
X0323514Y0283626D01*
X0323498Y0283522D01*
X0323478Y0283419D01*
X0323454Y0283317D01*
X0323426Y0283216D01*
X0323395Y0283115D01*
X0323360Y0283017D01*
X0323321Y0282919D01*
X0323278Y0282823D01*
X0323232Y0282729D01*
X0323182Y0282637D01*
X0323128Y0282546D01*
X0323072Y0282458D01*
X0323012Y0282372D01*
X0322948Y0282288D01*
X0322882Y0282207D01*
X0322812Y0282128D01*
X0322740Y0282053D01*
X0322665Y0281979D01*
X0322587Y0281909D01*
X0322506Y0281842D01*
X0322423Y0281778D01*
X0322338Y0281717D01*
X0322250Y0281659D01*
X0322160Y0281605D01*
X0322068Y0281555D01*
X0321974Y0281507D01*
X0321879Y0281464D01*
X0321782Y0281424D01*
X0321683Y0281388D01*
X0321584Y0281355D01*
X0321483Y0281327D01*
X0321381Y0281302D01*
X0321278Y0281281D01*
X0321174Y0281264D01*
X0321070Y0281251D01*
X0320966Y0281242D01*
X0320861Y0281237D01*
X0320756Y0281236D01*
X0320651Y0281239D01*
X0320546Y0281246D01*
X0320442Y0281257D01*
X0320338Y0281272D01*
X0320235Y0281291D01*
X0320132Y0281314D01*
X0320031Y0281340D01*
X0319930Y0281371D01*
X0319831Y0281405D01*
X0319733Y0281443D01*
X0319637Y0281485D01*
X0319543Y0281530D01*
X0319450Y0281579D01*
X0319359Y0281632D01*
X0319270Y0281688D01*
X0319183Y0281747D01*
X0319099Y0281810D01*
X0319017Y0281875D01*
X0318938Y0281944D01*
X0318861Y0282016D01*
X0318787Y0282090D01*
X0318716Y0282167D01*
X0318648Y0282247D01*
X0318584Y0282330D01*
X0318522Y0282415D01*
X0318464Y0282502D01*
X0318408Y0282591D01*
X0318357Y0282683D01*
X0318309Y0282776D01*
X0318264Y0282871D01*
X0318223Y0282968D01*
X0318186Y0283066D01*
X0318153Y0283165D01*
X0318123Y0283266D01*
X0318098Y0283368D01*
X0318076Y0283470D01*
X0318058Y0283574D01*
X0318044Y0283678D01*
X0318034Y0283782D01*
X0318028Y0283887D01*
X0318026Y0283992D01*
X0318026Y0378874D02*
X0318028Y0378979D01*
X0318034Y0379084D01*
X0318044Y0379188D01*
X0318058Y0379292D01*
X0318076Y0379396D01*
X0318098Y0379498D01*
X0318123Y0379600D01*
X0318153Y0379701D01*
X0318186Y0379800D01*
X0318223Y0379898D01*
X0318264Y0379995D01*
X0318309Y0380090D01*
X0318357Y0380183D01*
X0318408Y0380275D01*
X0318464Y0380364D01*
X0318522Y0380451D01*
X0318584Y0380536D01*
X0318648Y0380619D01*
X0318716Y0380699D01*
X0318787Y0380776D01*
X0318861Y0380850D01*
X0318938Y0380922D01*
X0319017Y0380991D01*
X0319099Y0381056D01*
X0319183Y0381119D01*
X0319270Y0381178D01*
X0319359Y0381234D01*
X0319450Y0381287D01*
X0319543Y0381336D01*
X0319637Y0381381D01*
X0319733Y0381423D01*
X0319831Y0381461D01*
X0319930Y0381495D01*
X0320031Y0381526D01*
X0320132Y0381552D01*
X0320235Y0381575D01*
X0320338Y0381594D01*
X0320442Y0381609D01*
X0320546Y0381620D01*
X0320651Y0381627D01*
X0320756Y0381630D01*
X0320861Y0381629D01*
X0320966Y0381624D01*
X0321070Y0381615D01*
X0321174Y0381602D01*
X0321278Y0381585D01*
X0321381Y0381564D01*
X0321483Y0381539D01*
X0321584Y0381511D01*
X0321683Y0381478D01*
X0321782Y0381442D01*
X0321879Y0381402D01*
X0321974Y0381359D01*
X0322068Y0381311D01*
X0322160Y0381261D01*
X0322250Y0381207D01*
X0322338Y0381149D01*
X0322423Y0381088D01*
X0322506Y0381024D01*
X0322587Y0380957D01*
X0322665Y0380887D01*
X0322740Y0380813D01*
X0322812Y0380738D01*
X0322882Y0380659D01*
X0322948Y0380578D01*
X0323012Y0380494D01*
X0323072Y0380408D01*
X0323128Y0380320D01*
X0323182Y0380229D01*
X0323232Y0380137D01*
X0323278Y0380043D01*
X0323321Y0379947D01*
X0323360Y0379849D01*
X0323395Y0379751D01*
X0323426Y0379650D01*
X0323454Y0379549D01*
X0323478Y0379447D01*
X0323498Y0379344D01*
X0323514Y0379240D01*
X0323526Y0379136D01*
X0323534Y0379031D01*
X0323538Y0378926D01*
X0323538Y0378822D01*
X0323534Y0378717D01*
X0323526Y0378612D01*
X0323514Y0378508D01*
X0323498Y0378404D01*
X0323478Y0378301D01*
X0323454Y0378199D01*
X0323426Y0378098D01*
X0323395Y0377997D01*
X0323360Y0377899D01*
X0323321Y0377801D01*
X0323278Y0377705D01*
X0323232Y0377611D01*
X0323182Y0377519D01*
X0323128Y0377428D01*
X0323072Y0377340D01*
X0323012Y0377254D01*
X0322948Y0377170D01*
X0322882Y0377089D01*
X0322812Y0377010D01*
X0322740Y0376935D01*
X0322665Y0376861D01*
X0322587Y0376791D01*
X0322506Y0376724D01*
X0322423Y0376660D01*
X0322338Y0376599D01*
X0322250Y0376541D01*
X0322160Y0376487D01*
X0322068Y0376437D01*
X0321974Y0376389D01*
X0321879Y0376346D01*
X0321782Y0376306D01*
X0321683Y0376270D01*
X0321584Y0376237D01*
X0321483Y0376209D01*
X0321381Y0376184D01*
X0321278Y0376163D01*
X0321174Y0376146D01*
X0321070Y0376133D01*
X0320966Y0376124D01*
X0320861Y0376119D01*
X0320756Y0376118D01*
X0320651Y0376121D01*
X0320546Y0376128D01*
X0320442Y0376139D01*
X0320338Y0376154D01*
X0320235Y0376173D01*
X0320132Y0376196D01*
X0320031Y0376222D01*
X0319930Y0376253D01*
X0319831Y0376287D01*
X0319733Y0376325D01*
X0319637Y0376367D01*
X0319543Y0376412D01*
X0319450Y0376461D01*
X0319359Y0376514D01*
X0319270Y0376570D01*
X0319183Y0376629D01*
X0319099Y0376692D01*
X0319017Y0376757D01*
X0318938Y0376826D01*
X0318861Y0376898D01*
X0318787Y0376972D01*
X0318716Y0377049D01*
X0318648Y0377129D01*
X0318584Y0377212D01*
X0318522Y0377297D01*
X0318464Y0377384D01*
X0318408Y0377473D01*
X0318357Y0377565D01*
X0318309Y0377658D01*
X0318264Y0377753D01*
X0318223Y0377850D01*
X0318186Y0377948D01*
X0318153Y0378047D01*
X0318123Y0378148D01*
X0318098Y0378250D01*
X0318076Y0378352D01*
X0318058Y0378456D01*
X0318044Y0378560D01*
X0318034Y0378664D01*
X0318028Y0378769D01*
X0318026Y0378874D01*
X0260152Y0378874D02*
X0260154Y0378979D01*
X0260160Y0379084D01*
X0260170Y0379188D01*
X0260184Y0379292D01*
X0260202Y0379396D01*
X0260224Y0379498D01*
X0260249Y0379600D01*
X0260279Y0379701D01*
X0260312Y0379800D01*
X0260349Y0379898D01*
X0260390Y0379995D01*
X0260435Y0380090D01*
X0260483Y0380183D01*
X0260534Y0380275D01*
X0260590Y0380364D01*
X0260648Y0380451D01*
X0260710Y0380536D01*
X0260774Y0380619D01*
X0260842Y0380699D01*
X0260913Y0380776D01*
X0260987Y0380850D01*
X0261064Y0380922D01*
X0261143Y0380991D01*
X0261225Y0381056D01*
X0261309Y0381119D01*
X0261396Y0381178D01*
X0261485Y0381234D01*
X0261576Y0381287D01*
X0261669Y0381336D01*
X0261763Y0381381D01*
X0261859Y0381423D01*
X0261957Y0381461D01*
X0262056Y0381495D01*
X0262157Y0381526D01*
X0262258Y0381552D01*
X0262361Y0381575D01*
X0262464Y0381594D01*
X0262568Y0381609D01*
X0262672Y0381620D01*
X0262777Y0381627D01*
X0262882Y0381630D01*
X0262987Y0381629D01*
X0263092Y0381624D01*
X0263196Y0381615D01*
X0263300Y0381602D01*
X0263404Y0381585D01*
X0263507Y0381564D01*
X0263609Y0381539D01*
X0263710Y0381511D01*
X0263809Y0381478D01*
X0263908Y0381442D01*
X0264005Y0381402D01*
X0264100Y0381359D01*
X0264194Y0381311D01*
X0264286Y0381261D01*
X0264376Y0381207D01*
X0264464Y0381149D01*
X0264549Y0381088D01*
X0264632Y0381024D01*
X0264713Y0380957D01*
X0264791Y0380887D01*
X0264866Y0380813D01*
X0264938Y0380738D01*
X0265008Y0380659D01*
X0265074Y0380578D01*
X0265138Y0380494D01*
X0265198Y0380408D01*
X0265254Y0380320D01*
X0265308Y0380229D01*
X0265358Y0380137D01*
X0265404Y0380043D01*
X0265447Y0379947D01*
X0265486Y0379849D01*
X0265521Y0379751D01*
X0265552Y0379650D01*
X0265580Y0379549D01*
X0265604Y0379447D01*
X0265624Y0379344D01*
X0265640Y0379240D01*
X0265652Y0379136D01*
X0265660Y0379031D01*
X0265664Y0378926D01*
X0265664Y0378822D01*
X0265660Y0378717D01*
X0265652Y0378612D01*
X0265640Y0378508D01*
X0265624Y0378404D01*
X0265604Y0378301D01*
X0265580Y0378199D01*
X0265552Y0378098D01*
X0265521Y0377997D01*
X0265486Y0377899D01*
X0265447Y0377801D01*
X0265404Y0377705D01*
X0265358Y0377611D01*
X0265308Y0377519D01*
X0265254Y0377428D01*
X0265198Y0377340D01*
X0265138Y0377254D01*
X0265074Y0377170D01*
X0265008Y0377089D01*
X0264938Y0377010D01*
X0264866Y0376935D01*
X0264791Y0376861D01*
X0264713Y0376791D01*
X0264632Y0376724D01*
X0264549Y0376660D01*
X0264464Y0376599D01*
X0264376Y0376541D01*
X0264286Y0376487D01*
X0264194Y0376437D01*
X0264100Y0376389D01*
X0264005Y0376346D01*
X0263908Y0376306D01*
X0263809Y0376270D01*
X0263710Y0376237D01*
X0263609Y0376209D01*
X0263507Y0376184D01*
X0263404Y0376163D01*
X0263300Y0376146D01*
X0263196Y0376133D01*
X0263092Y0376124D01*
X0262987Y0376119D01*
X0262882Y0376118D01*
X0262777Y0376121D01*
X0262672Y0376128D01*
X0262568Y0376139D01*
X0262464Y0376154D01*
X0262361Y0376173D01*
X0262258Y0376196D01*
X0262157Y0376222D01*
X0262056Y0376253D01*
X0261957Y0376287D01*
X0261859Y0376325D01*
X0261763Y0376367D01*
X0261669Y0376412D01*
X0261576Y0376461D01*
X0261485Y0376514D01*
X0261396Y0376570D01*
X0261309Y0376629D01*
X0261225Y0376692D01*
X0261143Y0376757D01*
X0261064Y0376826D01*
X0260987Y0376898D01*
X0260913Y0376972D01*
X0260842Y0377049D01*
X0260774Y0377129D01*
X0260710Y0377212D01*
X0260648Y0377297D01*
X0260590Y0377384D01*
X0260534Y0377473D01*
X0260483Y0377565D01*
X0260435Y0377658D01*
X0260390Y0377753D01*
X0260349Y0377850D01*
X0260312Y0377948D01*
X0260279Y0378047D01*
X0260249Y0378148D01*
X0260224Y0378250D01*
X0260202Y0378352D01*
X0260184Y0378456D01*
X0260170Y0378560D01*
X0260160Y0378664D01*
X0260154Y0378769D01*
X0260152Y0378874D01*
D14*
X0269377Y0383433D02*
X0272544Y0383433D01*
X0269377Y0385545D01*
X0272544Y0385545D01*
X0272544Y0386624D02*
X0269377Y0386624D01*
X0269377Y0388735D01*
X0270961Y0387679D02*
X0270961Y0386624D01*
X0272544Y0386624D02*
X0272544Y0388735D01*
X0272544Y0389814D02*
X0272544Y0391925D01*
X0272544Y0390869D02*
X0269377Y0390869D01*
X0268849Y0393004D02*
X0268849Y0395115D01*
X0269377Y0396194D02*
X0269377Y0397778D01*
X0269905Y0398305D01*
X0270433Y0398305D01*
X0270961Y0397778D01*
X0270961Y0396194D01*
X0272544Y0396194D02*
X0272544Y0397778D01*
X0272016Y0398305D01*
X0271489Y0398305D01*
X0270961Y0397778D01*
X0270433Y0399384D02*
X0270433Y0400968D01*
X0270961Y0401496D01*
X0272016Y0401496D01*
X0272544Y0400968D01*
X0272544Y0399384D01*
X0269377Y0399384D01*
X0270433Y0400440D02*
X0269377Y0401496D01*
X0269377Y0402574D02*
X0269377Y0403630D01*
X0269377Y0403102D02*
X0272544Y0403102D01*
X0272544Y0402574D02*
X0272544Y0403630D01*
X0272544Y0404701D02*
X0272544Y0406285D01*
X0272016Y0406812D01*
X0269905Y0406812D01*
X0269377Y0406285D01*
X0269377Y0404701D01*
X0272544Y0404701D01*
X0272016Y0407891D02*
X0269905Y0407891D01*
X0269377Y0408419D01*
X0269377Y0409475D01*
X0269905Y0410003D01*
X0270961Y0410003D01*
X0270961Y0408947D01*
X0272016Y0410003D02*
X0272544Y0409475D01*
X0272544Y0408419D01*
X0272016Y0407891D01*
X0272544Y0411081D02*
X0269377Y0411081D01*
X0269377Y0413193D01*
X0270961Y0412137D02*
X0270961Y0411081D01*
X0272544Y0411081D02*
X0272544Y0413193D01*
X0272544Y0396194D02*
X0269377Y0396194D01*
M02*
