G75*
%MOIN*%
%OFA0B0*%
%FSLAX25Y25*%
%IPPOS*%
%LPD*%
%AMOC8*
5,1,8,0,0,1.08239X$1,22.5*
%
%ADD10C,0.05937*%
%ADD11C,0.01956*%
%ADD12R,0.06496X0.06496*%
%ADD13C,0.06496*%
%ADD14R,0.07400X0.07400*%
%ADD15OC8,0.07400*%
%ADD16C,0.07400*%
%ADD17R,0.02500X0.05000*%
%ADD18R,0.02165X0.04724*%
%ADD19C,0.00600*%
%ADD20C,0.04500*%
%ADD21C,0.05362*%
%ADD22C,0.01800*%
D10*
X0291845Y0331331D02*
X0291845Y0337269D01*
X0301845Y0337269D02*
X0301845Y0331331D01*
D11*
X0257528Y0349628D02*
X0257528Y0351924D01*
X0261162Y0351924D01*
X0261162Y0349628D01*
X0257528Y0349628D01*
X0257528Y0351583D02*
X0261162Y0351583D01*
X0261162Y0356676D02*
X0261162Y0358972D01*
X0261162Y0356676D02*
X0257528Y0356676D01*
X0257528Y0358972D01*
X0261162Y0358972D01*
X0261162Y0358631D02*
X0257528Y0358631D01*
X0260924Y0368617D02*
X0263220Y0368617D01*
X0263220Y0364983D01*
X0260924Y0364983D01*
X0260924Y0368617D01*
X0260924Y0366938D02*
X0263220Y0366938D01*
X0267971Y0364983D02*
X0270267Y0364983D01*
X0267971Y0364983D02*
X0267971Y0368617D01*
X0270267Y0368617D01*
X0270267Y0364983D01*
X0270267Y0366938D02*
X0267971Y0366938D01*
X0256517Y0337483D02*
X0254221Y0337483D01*
X0254221Y0341117D01*
X0256517Y0341117D01*
X0256517Y0337483D01*
X0256517Y0339438D02*
X0254221Y0339438D01*
X0249470Y0341117D02*
X0247174Y0341117D01*
X0249470Y0341117D02*
X0249470Y0337483D01*
X0247174Y0337483D01*
X0247174Y0341117D01*
X0247174Y0339438D02*
X0249470Y0339438D01*
D12*
X0166845Y0316800D03*
X0364095Y0393550D03*
D13*
X0354095Y0393550D03*
X0166845Y0396800D03*
X0166845Y0386800D03*
X0166845Y0376800D03*
X0166845Y0366800D03*
X0166845Y0356800D03*
X0166845Y0346800D03*
X0166845Y0336800D03*
X0166845Y0326800D03*
X0166845Y0406800D03*
D14*
X0431845Y0203050D03*
D15*
X0431845Y0193050D03*
X0431845Y0183050D03*
X0441845Y0183050D03*
X0441845Y0193050D03*
X0441845Y0203050D03*
D16*
X0411845Y0131800D03*
X0401845Y0131800D03*
X0391845Y0131800D03*
X0381845Y0131800D03*
X0371845Y0131800D03*
X0361845Y0131800D03*
X0445595Y0365550D03*
X0445595Y0375550D03*
X0445595Y0385550D03*
X0445595Y0395550D03*
X0445595Y0405550D03*
X0445595Y0415550D03*
D17*
X0274345Y0335343D03*
X0274345Y0331800D03*
D18*
X0246835Y0349182D03*
X0239355Y0349182D03*
X0239355Y0359418D03*
X0243095Y0359418D03*
X0246835Y0359418D03*
D19*
X0243345Y0359400D02*
X0243345Y0357900D01*
X0245145Y0356100D01*
X0257745Y0356100D01*
X0259245Y0357600D01*
X0259345Y0357824D01*
X0258945Y0357000D01*
X0263145Y0352800D01*
X0263145Y0346500D01*
X0255945Y0339300D01*
X0255369Y0339300D01*
X0255645Y0339300D01*
X0263145Y0331800D01*
X0274345Y0331800D01*
X0274545Y0331800D01*
X0279045Y0327300D01*
X0283545Y0327300D01*
X0283545Y0304800D01*
X0274845Y0292800D02*
X0239145Y0292800D01*
X0175245Y0356700D01*
X0166845Y0356700D01*
X0166845Y0356800D01*
X0162645Y0362400D02*
X0166845Y0366600D01*
X0166845Y0366800D01*
X0162645Y0362400D02*
X0162645Y0303900D01*
X0160095Y0301350D01*
X0282645Y0178800D01*
X0282645Y0173400D01*
X0294045Y0162000D01*
X0296445Y0162000D01*
X0301845Y0167400D01*
X0301845Y0174900D01*
X0295245Y0173700D02*
X0271845Y0197100D01*
X0271845Y0254700D01*
X0271845Y0255300D01*
X0271845Y0254700D02*
X0199845Y0326700D01*
X0166845Y0326700D01*
X0166845Y0326800D01*
X0166845Y0336600D02*
X0166845Y0336800D01*
X0166845Y0336600D02*
X0191745Y0336600D01*
X0237945Y0290400D01*
X0273645Y0290400D01*
X0275745Y0288300D01*
X0275745Y0232200D01*
X0304245Y0203700D01*
X0305445Y0207000D02*
X0308745Y0203700D01*
X0310995Y0198800D01*
X0310545Y0195000D01*
X0310545Y0118500D01*
X0309345Y0115200D02*
X0307245Y0117300D01*
X0307245Y0137700D01*
X0279945Y0165000D01*
X0279945Y0165900D01*
X0276645Y0164700D02*
X0276645Y0174600D01*
X0279345Y0177300D01*
X0285495Y0188450D02*
X0291945Y0191700D01*
X0294945Y0188700D01*
X0298245Y0188700D01*
X0295245Y0173700D02*
X0295245Y0165800D01*
X0287145Y0154200D02*
X0276645Y0164700D01*
X0287145Y0154200D02*
X0287145Y0153300D01*
X0286220Y0148050D02*
X0218095Y0216175D01*
X0218095Y0238675D01*
X0244845Y0286800D02*
X0272095Y0286800D01*
X0272095Y0274300D01*
X0271345Y0273550D01*
X0271345Y0261050D01*
X0278145Y0267300D02*
X0278145Y0289500D01*
X0274845Y0292800D01*
X0274245Y0291600D02*
X0276945Y0288900D01*
X0276945Y0232800D01*
X0302745Y0207000D01*
X0305445Y0207000D01*
X0303645Y0210600D02*
X0303645Y0241800D01*
X0278145Y0267300D01*
X0274245Y0291600D02*
X0238545Y0291600D01*
X0183345Y0346800D01*
X0166845Y0346800D01*
X0194445Y0349200D02*
X0166845Y0376800D01*
X0166545Y0381000D02*
X0162645Y0384900D01*
X0162645Y0398700D01*
X0166845Y0402900D01*
X0166845Y0406800D01*
X0166545Y0381000D02*
X0169845Y0381000D01*
X0194745Y0356100D01*
X0241845Y0356100D01*
X0243345Y0357600D01*
X0243095Y0359418D01*
X0243345Y0359400D01*
X0245145Y0352500D02*
X0257745Y0352500D01*
X0259245Y0351000D01*
X0259345Y0350776D01*
X0246945Y0348900D02*
X0246945Y0340500D01*
X0248145Y0339300D01*
X0248322Y0339300D01*
X0246945Y0348900D02*
X0246835Y0349182D01*
X0245145Y0352500D02*
X0241995Y0349350D01*
X0242145Y0349200D01*
X0242145Y0296100D01*
X0283545Y0327300D02*
X0293445Y0327300D01*
X0295845Y0329700D01*
X0295845Y0339000D01*
X0269145Y0365700D01*
X0269145Y0366600D01*
X0269119Y0366800D01*
X0241995Y0349350D02*
X0241845Y0349200D01*
X0239445Y0349200D01*
X0239355Y0349182D01*
X0239145Y0349200D01*
X0194445Y0349200D01*
X0160095Y0301350D02*
X0134445Y0275700D01*
X0134445Y0273300D01*
X0309345Y0115200D02*
X0311745Y0115200D01*
X0316245Y0119700D01*
X0316245Y0127500D01*
X0371745Y0183000D01*
X0431745Y0183000D01*
X0431845Y0183050D01*
X0432045Y0183300D01*
X0436545Y0187800D01*
X0436545Y0204300D01*
X0448845Y0216600D01*
X0448845Y0287700D01*
X0400845Y0273000D02*
X0375345Y0273000D01*
D20*
X0375345Y0273000D03*
X0385245Y0257400D03*
X0400845Y0273000D03*
X0441345Y0306300D03*
X0448845Y0287700D03*
X0310995Y0198800D03*
X0304245Y0203700D03*
X0303645Y0210600D03*
X0291945Y0191700D03*
X0298245Y0188700D03*
X0285495Y0188450D03*
X0279345Y0177300D03*
X0279945Y0165900D03*
X0287145Y0153300D03*
X0286220Y0148050D03*
X0295245Y0165800D03*
X0301845Y0174900D03*
X0319545Y0126300D03*
X0310545Y0118500D03*
X0316945Y0082600D03*
X0218095Y0238675D03*
X0271845Y0255300D03*
X0242145Y0296100D03*
X0283545Y0304800D03*
X0300945Y0325500D03*
X0244545Y0364800D03*
X0289545Y0391800D03*
X0153945Y0258000D03*
X0146145Y0258000D03*
X0134445Y0273300D03*
D21*
X0156845Y0122300D03*
X0165095Y0122300D03*
X0173345Y0122550D03*
X0181345Y0122300D03*
X0185095Y0128300D03*
X0185095Y0134800D03*
X0184845Y0141800D03*
X0184845Y0149550D03*
X0183845Y0157550D03*
X0191845Y0157550D03*
X0199095Y0157550D03*
X0206595Y0157300D03*
X0205345Y0164800D03*
X0209845Y0170550D03*
X0218345Y0170550D03*
X0214345Y0179800D03*
X0200345Y0170550D03*
X0191845Y0170550D03*
X0182845Y0170550D03*
X0173595Y0170550D03*
X0164845Y0170550D03*
X0156095Y0170550D03*
X0156095Y0162300D03*
X0156095Y0154300D03*
X0156095Y0146800D03*
X0156095Y0139050D03*
X0156095Y0130800D03*
X0207845Y0127800D03*
X0207845Y0134550D03*
X0215095Y0134550D03*
X0223095Y0134550D03*
X0228345Y0141300D03*
X0230595Y0148550D03*
X0227345Y0156300D03*
X0231345Y0161550D03*
X0230845Y0128550D03*
X0227845Y0122050D03*
X0220095Y0122050D03*
X0212595Y0121800D03*
X0292845Y0111050D03*
X0271345Y0261050D03*
X0271345Y0273550D03*
X0272095Y0286800D03*
X0244845Y0286800D03*
X0144345Y0276550D03*
X0298345Y0427300D03*
X0308095Y0427300D03*
X0461845Y0281550D03*
X0459595Y0262800D03*
D22*
X0441345Y0306300D02*
X0359145Y0388500D01*
X0363945Y0393300D01*
X0364095Y0393550D01*
X0359145Y0388500D02*
X0289545Y0388500D01*
X0289545Y0391800D01*
X0289545Y0388500D02*
X0283845Y0388500D01*
X0262245Y0366900D01*
X0262072Y0366800D01*
X0261345Y0362400D02*
X0274345Y0349400D01*
X0274345Y0335343D01*
X0290802Y0335343D01*
X0291845Y0334300D01*
X0291645Y0334500D01*
X0300945Y0325500D02*
X0369045Y0257400D01*
X0385245Y0257400D01*
X0261345Y0362400D02*
X0252345Y0362400D01*
X0218145Y0396600D01*
X0166845Y0396600D01*
X0166845Y0396800D01*
X0166845Y0386800D02*
X0166845Y0386700D01*
X0191445Y0362100D01*
X0238845Y0362100D01*
X0239445Y0361500D01*
X0241245Y0363300D01*
X0244545Y0363300D01*
X0244545Y0364800D01*
X0244545Y0363300D02*
X0244845Y0363300D01*
X0246645Y0361500D01*
X0246645Y0359700D01*
X0246835Y0359418D01*
X0239445Y0359700D02*
X0239355Y0359418D01*
X0239445Y0359700D02*
X0239445Y0361500D01*
X0153945Y0258000D02*
X0146145Y0258000D01*
X0153945Y0258000D02*
X0298545Y0113400D01*
X0313845Y0113400D01*
X0314445Y0114000D01*
X0316945Y0082600D01*
X0314445Y0114000D02*
X0319545Y0119100D01*
X0319545Y0126300D01*
M02*
