%
M48
M72
T01C0.01500
T02C0.02362
T03C0.03937
T04C0.04000
T05C0.04331
T06C0.05512
%
T01
X218095Y238675
X271845Y255300
X242145Y296100
X283545Y304800
X300945Y325500
X244545Y364800
X289545Y391800
X375345Y273000
X385245Y257400
X400845Y273000
X441345Y306300
X448845Y287700
X310995Y198800
X304245Y203700
X303645Y210600
X291945Y191700
X298245Y188700
X285495Y188450
X279345Y177300
X279945Y165900
X287145Y153300
X286220Y148050
X295245Y165800
X301845Y174900
X319545Y126300
X310545Y118500
X316945Y82600
X153945Y258000
X146145Y258000
X134445Y273300
T02
X156845Y122300
X165095Y122300
X173345Y122550
X181345Y122300
X185095Y128300
X185095Y134800
X184845Y141800
X184845Y149550
X183845Y157550
X191845Y157550
X199095Y157550
X206595Y157300
X205345Y164800
X209845Y170550
X218345Y170550
X214345Y179800
X200345Y170550
X191845Y170550
X182845Y170550
X173595Y170550
X164845Y170550
X156095Y170550
X156095Y162300
X156095Y154300
X156095Y146800
X156095Y139050
X156095Y130800
X207845Y127800
X207845Y134550
X215095Y134550
X223095Y134550
X228345Y141300
X230595Y148550
X227345Y156300
X231345Y161550
X230845Y128550
X227845Y122050
X220095Y122050
X212595Y121800
X292845Y111050
X271345Y261050
X271345Y273550
X272095Y286800
X244845Y286800
X144345Y276550
X298345Y427300
X308095Y427300
X461845Y281550
X459595Y262800
T03
X301845Y334300
X291845Y334300
T04
X431845Y203050
X431845Y193050
X431845Y183050
X441845Y183050
X441845Y193050
X441845Y203050
X411845Y131800
X401845Y131800
X391845Y131800
X381845Y131800
X371845Y131800
X361845Y131800
X445595Y365550
X445595Y375550
X445595Y385550
X445595Y395550
X445595Y405550
X445595Y415550
T05
X364095Y393550
X354095Y393550
X166845Y396800
X166845Y386800
X166845Y376800
X166845Y366800
X166845Y356800
X166845Y346800
X166845Y336800
X166845Y326800
X166845Y316800
X166845Y406800
T06
X262908Y324241
X320782Y324241
X320782Y229359
X262908Y229359
M30
