G75*
%MOIN*%
%OFA0B0*%
%FSLAX25Y25*%
%IPPOS*%
%LPD*%
%AMOC8*
5,1,8,0,0,1.08239X$1,22.5*
%
%ADD10C,0.05937*%
%ADD11R,0.06496X0.06496*%
%ADD12C,0.06496*%
%ADD13R,0.07400X0.07400*%
%ADD14OC8,0.07400*%
%ADD15C,0.07400*%
%ADD16R,0.02500X0.05000*%
%ADD17C,0.04575*%
%ADD18C,0.00600*%
%ADD19C,0.04500*%
%ADD20C,0.01800*%
D10*
X0291845Y0385965D02*
X0291845Y0391902D01*
X0301845Y0391902D02*
X0301845Y0385965D01*
D11*
X0311845Y0410933D03*
X0166845Y0371433D03*
D12*
X0166845Y0381433D03*
X0166845Y0391433D03*
X0166845Y0401433D03*
X0166845Y0411433D03*
X0166845Y0421433D03*
X0166845Y0431433D03*
X0166845Y0441433D03*
X0166845Y0451433D03*
X0166845Y0461433D03*
X0301845Y0410933D03*
D13*
X0431845Y0257683D03*
D14*
X0431845Y0247683D03*
X0431845Y0237683D03*
X0441845Y0237683D03*
X0441845Y0247683D03*
X0441845Y0257683D03*
D15*
X0411845Y0186433D03*
X0401845Y0186433D03*
X0391845Y0186433D03*
X0381845Y0186433D03*
X0371845Y0186433D03*
X0361845Y0186433D03*
X0445595Y0420183D03*
X0445595Y0430183D03*
X0445595Y0440183D03*
X0445595Y0450183D03*
X0445595Y0460183D03*
X0445595Y0470183D03*
D16*
X0274345Y0389976D03*
X0274345Y0386433D03*
D17*
X0180845Y0192683D03*
X0188345Y0192683D03*
X0195845Y0192683D03*
X0200595Y0196933D03*
X0203595Y0202183D03*
X0200845Y0207433D03*
X0200845Y0213183D03*
X0207595Y0213183D03*
X0214345Y0213183D03*
X0214345Y0224433D03*
X0207595Y0224433D03*
X0201095Y0224433D03*
X0196345Y0227683D03*
X0189095Y0227683D03*
X0181595Y0227683D03*
X0243845Y0274183D03*
X0146845Y0336433D03*
X0142095Y0320433D03*
X0228095Y0386183D03*
X0238345Y0386183D03*
X0213345Y0424183D03*
X0210345Y0470183D03*
X0288095Y0483433D03*
X0314845Y0484933D03*
X0458095Y0339183D03*
X0456845Y0316433D03*
X0316845Y0165683D03*
X0287095Y0165933D03*
D18*
X0310595Y0171433D02*
X0278095Y0203933D01*
X0278095Y0188933D01*
X0244345Y0188933D01*
X0241845Y0191433D01*
X0241845Y0201933D01*
X0241845Y0202058D01*
X0241845Y0201933D02*
X0219345Y0201933D01*
X0219345Y0229683D01*
X0209470Y0239558D01*
X0204345Y0239558D01*
X0204345Y0247683D01*
X0162470Y0289558D01*
X0162470Y0397058D01*
X0166845Y0401433D01*
X0166845Y0411433D02*
X0221220Y0411433D01*
X0247470Y0385183D01*
X0247470Y0234558D01*
X0250595Y0231433D01*
X0256220Y0231433D02*
X0258095Y0233308D01*
X0258095Y0322683D01*
X0380595Y0445183D01*
X0450595Y0445183D01*
X0450595Y0435183D01*
X0445595Y0435183D01*
X0445595Y0430183D01*
X0445595Y0440183D02*
X0274345Y0268933D01*
X0274345Y0230808D01*
X0272470Y0228933D01*
X0278095Y0230808D02*
X0278095Y0203933D01*
X0268720Y0215808D02*
X0268720Y0325808D01*
X0264970Y0312683D02*
X0267470Y0310183D01*
X0267470Y0244558D01*
X0261845Y0238933D01*
X0268720Y0215808D02*
X0245595Y0192683D01*
X0246220Y0205183D02*
X0205595Y0245808D01*
X0205595Y0321433D01*
X0213720Y0321433D01*
X0205595Y0321433D02*
X0205595Y0342683D01*
X0166845Y0381433D01*
X0221220Y0411433D02*
X0291845Y0482058D01*
X0291845Y0484558D01*
X0293095Y0485808D01*
X0274345Y0386433D02*
X0276220Y0384558D01*
X0276220Y0358933D01*
X0282470Y0358933D01*
X0276220Y0358933D02*
X0276220Y0345808D01*
X0238720Y0385808D02*
X0238345Y0386183D01*
X0238720Y0385808D02*
X0238720Y0231433D01*
X0240595Y0229558D01*
X0240595Y0222058D01*
X0361845Y0323933D02*
X0426845Y0258933D01*
X0426845Y0242683D01*
X0431845Y0237683D01*
X0441845Y0237683D02*
X0441845Y0216433D01*
X0411845Y0186433D01*
D19*
X0310595Y0171433D03*
X0262845Y0197933D03*
X0245595Y0192683D03*
X0246220Y0205183D03*
X0240595Y0222058D03*
X0240595Y0229558D03*
X0250595Y0231433D03*
X0256220Y0231433D03*
X0261845Y0238933D03*
X0272470Y0228933D03*
X0278095Y0230808D03*
X0264970Y0312683D03*
X0268720Y0325808D03*
X0276220Y0345808D03*
X0282470Y0358933D03*
X0290095Y0408683D03*
X0238095Y0423308D03*
X0293095Y0485808D03*
X0361845Y0323933D03*
X0213720Y0321433D03*
D20*
X0274345Y0389976D02*
X0291845Y0389976D01*
X0291845Y0388933D01*
X0296220Y0393308D01*
X0296220Y0402558D01*
X0290095Y0408683D01*
X0301845Y0410933D02*
X0301845Y0388933D01*
X0314345Y0484558D02*
X0314845Y0484933D01*
M02*
