%
M48
M72
T01C0.01500
T02C0.01575
T03C0.03937
T04C0.04000
T05C0.04331
T06C0.05512
%
T01
X240595Y222058
X240595Y229558
X250595Y231433
X256220Y231433
X261845Y238933
X272470Y228933
X278095Y230808
X262845Y197933
X245595Y192683
X246220Y205183
X310595Y171433
X264970Y312683
X268720Y325808
X276220Y345808
X282470Y358933
X290095Y408683
X238095Y423308
X293095Y485808
X361845Y323933
X213720Y321433
T02
X180845Y192683
X188345Y192683
X195845Y192683
X200595Y196933
X203595Y202183
X200845Y207433
X200845Y213183
X207595Y213183
X214345Y213183
X214345Y224433
X207595Y224433
X201095Y224433
X196345Y227683
X189095Y227683
X181595Y227683
X243845Y274183
X146845Y336433
X142095Y320433
X228095Y386183
X238345Y386183
X213345Y424183
X210345Y470183
X288095Y483433
X314845Y484933
X458095Y339183
X456845Y316433
X316845Y165683
X287095Y165933
T03
X291845Y388933
X301845Y388933
T04
X431845Y257683
X431845Y247683
X431845Y237683
X441845Y237683
X441845Y247683
X441845Y257683
X411845Y186433
X401845Y186433
X391845Y186433
X381845Y186433
X371845Y186433
X361845Y186433
X445595Y420183
X445595Y430183
X445595Y440183
X445595Y450183
X445595Y460183
X445595Y470183
T05
X311845Y410933
X301845Y410933
X166845Y411433
X166845Y401433
X166845Y391433
X166845Y381433
X166845Y371433
X166845Y421433
X166845Y431433
X166845Y441433
X166845Y451433
X166845Y461433
T06
X262908Y378874
X320782Y378874
X320782Y283992
X262908Y283992
M30
