G75*
%MOIN*%
%OFA0B0*%
%FSLAX25Y25*%
%IPPOS*%
%LPD*%
%AMOC8*
5,1,8,0,0,1.08239X$1,22.5*
%
%ADD10C,0.01600*%
%ADD11C,0.00400*%
%ADD12C,0.00500*%
%ADD13C,0.00000*%
%ADD14C,0.00472*%
%ADD15C,0.00787*%
%ADD16C,0.00300*%
%ADD17C,0.00800*%
%ADD18C,0.00600*%
%ADD19R,0.01200X0.00400*%
%ADD20R,0.00400X0.00400*%
%ADD21R,0.03200X0.00400*%
%ADD22R,0.00800X0.00400*%
%ADD23R,0.02800X0.00400*%
%ADD24R,0.02400X0.00400*%
%ADD25R,0.04400X0.00400*%
%ADD26R,0.01600X0.00400*%
%ADD27R,0.02000X0.00400*%
%ADD28R,0.07600X0.00400*%
%ADD29R,0.04800X0.00400*%
%ADD30C,0.01575*%
D10*
X0146845Y0171433D02*
X0146845Y0306433D01*
X0031845Y0306433D01*
X0031845Y0322683D01*
X0031845Y0330183D02*
X0031845Y0346433D01*
X0146845Y0346433D01*
X0146845Y0481433D01*
X0281845Y0481433D01*
X0281845Y0596433D01*
X0298095Y0596433D01*
X0305595Y0596433D02*
X0321845Y0596433D01*
X0321845Y0481433D01*
X0456845Y0481433D01*
X0456845Y0346433D01*
X0571845Y0346433D01*
X0571845Y0330183D01*
X0571845Y0322683D02*
X0571845Y0306433D01*
X0456845Y0306433D01*
X0456845Y0171433D01*
X0321845Y0171433D01*
X0321845Y0056433D01*
X0305595Y0056433D01*
X0298095Y0056433D02*
X0281845Y0056433D01*
X0281845Y0171433D01*
X0146845Y0171433D01*
X0031756Y0323283D02*
X0031838Y0322888D01*
X0031930Y0322494D01*
X0032031Y0322103D01*
X0032142Y0321714D01*
X0032262Y0321329D01*
X0032392Y0320946D01*
X0032531Y0320567D01*
X0032679Y0320191D01*
X0032836Y0319819D01*
X0033003Y0319450D01*
X0033178Y0319086D01*
X0033362Y0318727D01*
X0033555Y0318372D01*
X0033757Y0318022D01*
X0033967Y0317677D01*
X0034185Y0317337D01*
X0034412Y0317002D01*
X0034647Y0316673D01*
X0034890Y0316351D01*
X0035141Y0316034D01*
X0035399Y0315723D01*
X0035665Y0315419D01*
X0035938Y0315121D01*
X0036219Y0314830D01*
X0036506Y0314546D01*
X0036801Y0314270D01*
X0037102Y0314000D01*
X0037409Y0313738D01*
X0037723Y0313484D01*
X0038043Y0313237D01*
X0038369Y0312998D01*
X0038701Y0312767D01*
X0039038Y0312545D01*
X0039381Y0312331D01*
X0039728Y0312125D01*
X0040081Y0311928D01*
X0040438Y0311739D01*
X0040800Y0311560D01*
X0041166Y0311389D01*
X0041537Y0311227D01*
X0041911Y0311074D01*
X0042288Y0310931D01*
X0042670Y0310797D01*
X0043054Y0310672D01*
X0043441Y0310557D01*
X0043831Y0310451D01*
X0044223Y0310354D01*
X0044618Y0310268D01*
X0045015Y0310191D01*
X0045413Y0310124D01*
X0045813Y0310066D01*
X0046214Y0310019D01*
X0046617Y0309981D01*
X0047020Y0309953D01*
X0047423Y0309935D01*
X0047827Y0309927D01*
X0048231Y0309928D01*
X0048635Y0309940D01*
X0049039Y0309961D01*
X0049442Y0309993D01*
X0049843Y0310034D01*
X0050244Y0310085D01*
X0050644Y0310146D01*
X0051042Y0310216D01*
X0051438Y0310296D01*
X0051831Y0310386D01*
X0052223Y0310486D01*
X0052612Y0310595D01*
X0052998Y0310714D01*
X0053382Y0310842D01*
X0053762Y0310979D01*
X0054138Y0311126D01*
X0054511Y0311282D01*
X0054880Y0311446D01*
X0055245Y0311620D01*
X0055605Y0311803D01*
X0055961Y0311994D01*
X0056312Y0312195D01*
X0056658Y0312403D01*
X0056998Y0312620D01*
X0057334Y0312846D01*
X0057664Y0313079D01*
X0057987Y0313321D01*
X0058305Y0313570D01*
X0058617Y0313827D01*
X0058922Y0314092D01*
X0059221Y0314364D01*
X0059513Y0314643D01*
X0059798Y0314929D01*
X0060076Y0315223D01*
X0060347Y0315522D01*
X0060610Y0315829D01*
X0060866Y0316142D01*
X0061114Y0316461D01*
X0061354Y0316786D01*
X0061586Y0317116D01*
X0061810Y0317453D01*
X0062026Y0317794D01*
X0062233Y0318141D01*
X0062432Y0318493D01*
X0062622Y0318850D01*
X0062803Y0319211D01*
X0062976Y0319576D01*
X0063139Y0319946D01*
X0063293Y0320319D01*
X0063438Y0320696D01*
X0063574Y0321077D01*
X0063700Y0321461D01*
X0063817Y0321847D01*
X0063925Y0322237D01*
X0064023Y0322629D01*
X0064111Y0323023D01*
X0064190Y0323420D01*
X0064259Y0323818D01*
X0064318Y0324217D01*
X0064367Y0324618D01*
X0064406Y0325021D01*
X0064436Y0325423D01*
X0064456Y0325827D01*
X0064466Y0326231D01*
X0064466Y0326635D01*
X0064456Y0327039D01*
X0064436Y0327443D01*
X0064406Y0327845D01*
X0064367Y0328248D01*
X0064318Y0328649D01*
X0064259Y0329048D01*
X0064190Y0329446D01*
X0064111Y0329843D01*
X0064023Y0330237D01*
X0063925Y0330629D01*
X0063817Y0331019D01*
X0063700Y0331405D01*
X0063574Y0331789D01*
X0063438Y0332170D01*
X0063293Y0332547D01*
X0063139Y0332920D01*
X0062976Y0333290D01*
X0062803Y0333655D01*
X0062622Y0334016D01*
X0062432Y0334373D01*
X0062233Y0334725D01*
X0062026Y0335072D01*
X0061810Y0335413D01*
X0061586Y0335750D01*
X0061354Y0336080D01*
X0061114Y0336405D01*
X0060866Y0336724D01*
X0060610Y0337037D01*
X0060347Y0337344D01*
X0060076Y0337643D01*
X0059798Y0337937D01*
X0059513Y0338223D01*
X0059221Y0338502D01*
X0058922Y0338774D01*
X0058617Y0339039D01*
X0058305Y0339296D01*
X0057987Y0339545D01*
X0057664Y0339787D01*
X0057334Y0340020D01*
X0056998Y0340246D01*
X0056658Y0340463D01*
X0056312Y0340671D01*
X0055961Y0340872D01*
X0055605Y0341063D01*
X0055245Y0341246D01*
X0054880Y0341420D01*
X0054511Y0341584D01*
X0054138Y0341740D01*
X0053762Y0341887D01*
X0053382Y0342024D01*
X0052998Y0342152D01*
X0052612Y0342271D01*
X0052223Y0342380D01*
X0051831Y0342480D01*
X0051438Y0342570D01*
X0051042Y0342650D01*
X0050644Y0342720D01*
X0050244Y0342781D01*
X0049843Y0342832D01*
X0049442Y0342873D01*
X0049039Y0342905D01*
X0048635Y0342926D01*
X0048231Y0342938D01*
X0047827Y0342939D01*
X0047423Y0342931D01*
X0047020Y0342913D01*
X0046617Y0342885D01*
X0046214Y0342847D01*
X0045813Y0342800D01*
X0045413Y0342742D01*
X0045015Y0342675D01*
X0044618Y0342598D01*
X0044223Y0342512D01*
X0043831Y0342415D01*
X0043441Y0342309D01*
X0043054Y0342194D01*
X0042670Y0342069D01*
X0042288Y0341935D01*
X0041911Y0341792D01*
X0041537Y0341639D01*
X0041166Y0341477D01*
X0040800Y0341306D01*
X0040438Y0341127D01*
X0040081Y0340938D01*
X0039728Y0340741D01*
X0039381Y0340535D01*
X0039038Y0340321D01*
X0038701Y0340099D01*
X0038369Y0339868D01*
X0038043Y0339629D01*
X0037723Y0339382D01*
X0037409Y0339128D01*
X0037102Y0338866D01*
X0036801Y0338596D01*
X0036506Y0338320D01*
X0036219Y0338036D01*
X0035938Y0337745D01*
X0035665Y0337447D01*
X0035399Y0337143D01*
X0035141Y0336832D01*
X0034890Y0336515D01*
X0034647Y0336193D01*
X0034412Y0335864D01*
X0034185Y0335529D01*
X0033967Y0335189D01*
X0033757Y0334844D01*
X0033555Y0334494D01*
X0033362Y0334139D01*
X0033178Y0333780D01*
X0033003Y0333416D01*
X0032836Y0333047D01*
X0032679Y0332675D01*
X0032531Y0332299D01*
X0032392Y0331920D01*
X0032262Y0331537D01*
X0032142Y0331152D01*
X0032031Y0330763D01*
X0031930Y0330372D01*
X0031838Y0329978D01*
X0031756Y0329583D01*
X0298695Y0596522D02*
X0298300Y0596440D01*
X0297906Y0596348D01*
X0297515Y0596247D01*
X0297126Y0596136D01*
X0296741Y0596016D01*
X0296358Y0595886D01*
X0295979Y0595747D01*
X0295603Y0595599D01*
X0295231Y0595442D01*
X0294862Y0595275D01*
X0294498Y0595100D01*
X0294139Y0594916D01*
X0293784Y0594723D01*
X0293434Y0594521D01*
X0293089Y0594311D01*
X0292749Y0594093D01*
X0292414Y0593866D01*
X0292085Y0593631D01*
X0291763Y0593388D01*
X0291446Y0593137D01*
X0291135Y0592879D01*
X0290831Y0592613D01*
X0290533Y0592340D01*
X0290242Y0592059D01*
X0289958Y0591772D01*
X0289682Y0591477D01*
X0289412Y0591176D01*
X0289150Y0590869D01*
X0288896Y0590555D01*
X0288649Y0590235D01*
X0288410Y0589909D01*
X0288179Y0589577D01*
X0287957Y0589240D01*
X0287743Y0588897D01*
X0287537Y0588550D01*
X0287340Y0588197D01*
X0287151Y0587840D01*
X0286972Y0587478D01*
X0286801Y0587112D01*
X0286639Y0586741D01*
X0286486Y0586367D01*
X0286343Y0585990D01*
X0286209Y0585608D01*
X0286084Y0585224D01*
X0285969Y0584837D01*
X0285863Y0584447D01*
X0285766Y0584055D01*
X0285680Y0583660D01*
X0285603Y0583263D01*
X0285536Y0582865D01*
X0285478Y0582465D01*
X0285431Y0582064D01*
X0285393Y0581661D01*
X0285365Y0581258D01*
X0285347Y0580855D01*
X0285339Y0580451D01*
X0285340Y0580047D01*
X0285352Y0579643D01*
X0285373Y0579239D01*
X0285405Y0578836D01*
X0285446Y0578435D01*
X0285497Y0578034D01*
X0285558Y0577634D01*
X0285628Y0577236D01*
X0285708Y0576840D01*
X0285798Y0576447D01*
X0285898Y0576055D01*
X0286007Y0575666D01*
X0286126Y0575280D01*
X0286254Y0574896D01*
X0286391Y0574516D01*
X0286538Y0574140D01*
X0286694Y0573767D01*
X0286858Y0573398D01*
X0287032Y0573033D01*
X0287215Y0572673D01*
X0287406Y0572317D01*
X0287607Y0571966D01*
X0287815Y0571620D01*
X0288032Y0571280D01*
X0288258Y0570944D01*
X0288491Y0570614D01*
X0288733Y0570291D01*
X0288982Y0569973D01*
X0289239Y0569661D01*
X0289504Y0569356D01*
X0289776Y0569057D01*
X0290055Y0568765D01*
X0290341Y0568480D01*
X0290635Y0568202D01*
X0290934Y0567931D01*
X0291241Y0567668D01*
X0291554Y0567412D01*
X0291873Y0567164D01*
X0292198Y0566924D01*
X0292528Y0566692D01*
X0292865Y0566468D01*
X0293206Y0566252D01*
X0293553Y0566045D01*
X0293905Y0565846D01*
X0294262Y0565656D01*
X0294623Y0565475D01*
X0294988Y0565302D01*
X0295358Y0565139D01*
X0295731Y0564985D01*
X0296108Y0564840D01*
X0296489Y0564704D01*
X0296873Y0564578D01*
X0297259Y0564461D01*
X0297649Y0564353D01*
X0298041Y0564255D01*
X0298435Y0564167D01*
X0298832Y0564088D01*
X0299230Y0564019D01*
X0299629Y0563960D01*
X0300030Y0563911D01*
X0300433Y0563872D01*
X0300835Y0563842D01*
X0301239Y0563822D01*
X0301643Y0563812D01*
X0302047Y0563812D01*
X0302451Y0563822D01*
X0302855Y0563842D01*
X0303257Y0563872D01*
X0303660Y0563911D01*
X0304061Y0563960D01*
X0304460Y0564019D01*
X0304858Y0564088D01*
X0305255Y0564167D01*
X0305649Y0564255D01*
X0306041Y0564353D01*
X0306431Y0564461D01*
X0306817Y0564578D01*
X0307201Y0564704D01*
X0307582Y0564840D01*
X0307959Y0564985D01*
X0308332Y0565139D01*
X0308702Y0565302D01*
X0309067Y0565475D01*
X0309428Y0565656D01*
X0309785Y0565846D01*
X0310137Y0566045D01*
X0310484Y0566252D01*
X0310825Y0566468D01*
X0311162Y0566692D01*
X0311492Y0566924D01*
X0311817Y0567164D01*
X0312136Y0567412D01*
X0312449Y0567668D01*
X0312756Y0567931D01*
X0313055Y0568202D01*
X0313349Y0568480D01*
X0313635Y0568765D01*
X0313914Y0569057D01*
X0314186Y0569356D01*
X0314451Y0569661D01*
X0314708Y0569973D01*
X0314957Y0570291D01*
X0315199Y0570614D01*
X0315432Y0570944D01*
X0315658Y0571280D01*
X0315875Y0571620D01*
X0316083Y0571966D01*
X0316284Y0572317D01*
X0316475Y0572673D01*
X0316658Y0573033D01*
X0316832Y0573398D01*
X0316996Y0573767D01*
X0317152Y0574140D01*
X0317299Y0574516D01*
X0317436Y0574896D01*
X0317564Y0575280D01*
X0317683Y0575666D01*
X0317792Y0576055D01*
X0317892Y0576447D01*
X0317982Y0576840D01*
X0318062Y0577236D01*
X0318132Y0577634D01*
X0318193Y0578034D01*
X0318244Y0578435D01*
X0318285Y0578836D01*
X0318317Y0579239D01*
X0318338Y0579643D01*
X0318350Y0580047D01*
X0318351Y0580451D01*
X0318343Y0580855D01*
X0318325Y0581258D01*
X0318297Y0581661D01*
X0318259Y0582064D01*
X0318212Y0582465D01*
X0318154Y0582865D01*
X0318087Y0583263D01*
X0318010Y0583660D01*
X0317924Y0584055D01*
X0317827Y0584447D01*
X0317721Y0584837D01*
X0317606Y0585224D01*
X0317481Y0585608D01*
X0317347Y0585990D01*
X0317204Y0586367D01*
X0317051Y0586741D01*
X0316889Y0587112D01*
X0316718Y0587478D01*
X0316539Y0587840D01*
X0316350Y0588197D01*
X0316153Y0588550D01*
X0315947Y0588897D01*
X0315733Y0589240D01*
X0315511Y0589577D01*
X0315280Y0589909D01*
X0315041Y0590235D01*
X0314794Y0590555D01*
X0314540Y0590869D01*
X0314278Y0591176D01*
X0314008Y0591477D01*
X0313732Y0591772D01*
X0313448Y0592059D01*
X0313157Y0592340D01*
X0312859Y0592613D01*
X0312555Y0592879D01*
X0312244Y0593137D01*
X0311927Y0593388D01*
X0311605Y0593631D01*
X0311276Y0593866D01*
X0310941Y0594093D01*
X0310601Y0594311D01*
X0310256Y0594521D01*
X0309906Y0594723D01*
X0309551Y0594916D01*
X0309192Y0595100D01*
X0308828Y0595275D01*
X0308459Y0595442D01*
X0308087Y0595599D01*
X0307711Y0595747D01*
X0307332Y0595886D01*
X0306949Y0596016D01*
X0306564Y0596136D01*
X0306175Y0596247D01*
X0305784Y0596348D01*
X0305390Y0596440D01*
X0304995Y0596522D01*
X0571934Y0329583D02*
X0571852Y0329978D01*
X0571760Y0330372D01*
X0571659Y0330763D01*
X0571548Y0331152D01*
X0571428Y0331537D01*
X0571298Y0331920D01*
X0571159Y0332299D01*
X0571011Y0332675D01*
X0570854Y0333047D01*
X0570687Y0333416D01*
X0570512Y0333780D01*
X0570328Y0334139D01*
X0570135Y0334494D01*
X0569933Y0334844D01*
X0569723Y0335189D01*
X0569505Y0335529D01*
X0569278Y0335864D01*
X0569043Y0336193D01*
X0568800Y0336515D01*
X0568549Y0336832D01*
X0568291Y0337143D01*
X0568025Y0337447D01*
X0567752Y0337745D01*
X0567471Y0338036D01*
X0567184Y0338320D01*
X0566889Y0338596D01*
X0566588Y0338866D01*
X0566281Y0339128D01*
X0565967Y0339382D01*
X0565647Y0339629D01*
X0565321Y0339868D01*
X0564989Y0340099D01*
X0564652Y0340321D01*
X0564309Y0340535D01*
X0563962Y0340741D01*
X0563609Y0340938D01*
X0563252Y0341127D01*
X0562890Y0341306D01*
X0562524Y0341477D01*
X0562153Y0341639D01*
X0561779Y0341792D01*
X0561402Y0341935D01*
X0561020Y0342069D01*
X0560636Y0342194D01*
X0560249Y0342309D01*
X0559859Y0342415D01*
X0559467Y0342512D01*
X0559072Y0342598D01*
X0558675Y0342675D01*
X0558277Y0342742D01*
X0557877Y0342800D01*
X0557476Y0342847D01*
X0557073Y0342885D01*
X0556670Y0342913D01*
X0556267Y0342931D01*
X0555863Y0342939D01*
X0555459Y0342938D01*
X0555055Y0342926D01*
X0554651Y0342905D01*
X0554248Y0342873D01*
X0553847Y0342832D01*
X0553446Y0342781D01*
X0553046Y0342720D01*
X0552648Y0342650D01*
X0552252Y0342570D01*
X0551859Y0342480D01*
X0551467Y0342380D01*
X0551078Y0342271D01*
X0550692Y0342152D01*
X0550308Y0342024D01*
X0549928Y0341887D01*
X0549552Y0341740D01*
X0549179Y0341584D01*
X0548810Y0341420D01*
X0548445Y0341246D01*
X0548085Y0341063D01*
X0547729Y0340872D01*
X0547378Y0340671D01*
X0547032Y0340463D01*
X0546692Y0340246D01*
X0546356Y0340020D01*
X0546026Y0339787D01*
X0545703Y0339545D01*
X0545385Y0339296D01*
X0545073Y0339039D01*
X0544768Y0338774D01*
X0544469Y0338502D01*
X0544177Y0338223D01*
X0543892Y0337937D01*
X0543614Y0337643D01*
X0543343Y0337344D01*
X0543080Y0337037D01*
X0542824Y0336724D01*
X0542576Y0336405D01*
X0542336Y0336080D01*
X0542104Y0335750D01*
X0541880Y0335413D01*
X0541664Y0335072D01*
X0541457Y0334725D01*
X0541258Y0334373D01*
X0541068Y0334016D01*
X0540887Y0333655D01*
X0540714Y0333290D01*
X0540551Y0332920D01*
X0540397Y0332547D01*
X0540252Y0332170D01*
X0540116Y0331789D01*
X0539990Y0331405D01*
X0539873Y0331019D01*
X0539765Y0330629D01*
X0539667Y0330237D01*
X0539579Y0329843D01*
X0539500Y0329446D01*
X0539431Y0329048D01*
X0539372Y0328649D01*
X0539323Y0328248D01*
X0539284Y0327845D01*
X0539254Y0327443D01*
X0539234Y0327039D01*
X0539224Y0326635D01*
X0539224Y0326231D01*
X0539234Y0325827D01*
X0539254Y0325423D01*
X0539284Y0325021D01*
X0539323Y0324618D01*
X0539372Y0324217D01*
X0539431Y0323818D01*
X0539500Y0323420D01*
X0539579Y0323023D01*
X0539667Y0322629D01*
X0539765Y0322237D01*
X0539873Y0321847D01*
X0539990Y0321461D01*
X0540116Y0321077D01*
X0540252Y0320696D01*
X0540397Y0320319D01*
X0540551Y0319946D01*
X0540714Y0319576D01*
X0540887Y0319211D01*
X0541068Y0318850D01*
X0541258Y0318493D01*
X0541457Y0318141D01*
X0541664Y0317794D01*
X0541880Y0317453D01*
X0542104Y0317116D01*
X0542336Y0316786D01*
X0542576Y0316461D01*
X0542824Y0316142D01*
X0543080Y0315829D01*
X0543343Y0315522D01*
X0543614Y0315223D01*
X0543892Y0314929D01*
X0544177Y0314643D01*
X0544469Y0314364D01*
X0544768Y0314092D01*
X0545073Y0313827D01*
X0545385Y0313570D01*
X0545703Y0313321D01*
X0546026Y0313079D01*
X0546356Y0312846D01*
X0546692Y0312620D01*
X0547032Y0312403D01*
X0547378Y0312195D01*
X0547729Y0311994D01*
X0548085Y0311803D01*
X0548445Y0311620D01*
X0548810Y0311446D01*
X0549179Y0311282D01*
X0549552Y0311126D01*
X0549928Y0310979D01*
X0550308Y0310842D01*
X0550692Y0310714D01*
X0551078Y0310595D01*
X0551467Y0310486D01*
X0551859Y0310386D01*
X0552252Y0310296D01*
X0552648Y0310216D01*
X0553046Y0310146D01*
X0553446Y0310085D01*
X0553847Y0310034D01*
X0554248Y0309993D01*
X0554651Y0309961D01*
X0555055Y0309940D01*
X0555459Y0309928D01*
X0555863Y0309927D01*
X0556267Y0309935D01*
X0556670Y0309953D01*
X0557073Y0309981D01*
X0557476Y0310019D01*
X0557877Y0310066D01*
X0558277Y0310124D01*
X0558675Y0310191D01*
X0559072Y0310268D01*
X0559467Y0310354D01*
X0559859Y0310451D01*
X0560249Y0310557D01*
X0560636Y0310672D01*
X0561020Y0310797D01*
X0561402Y0310931D01*
X0561779Y0311074D01*
X0562153Y0311227D01*
X0562524Y0311389D01*
X0562890Y0311560D01*
X0563252Y0311739D01*
X0563609Y0311928D01*
X0563962Y0312125D01*
X0564309Y0312331D01*
X0564652Y0312545D01*
X0564989Y0312767D01*
X0565321Y0312998D01*
X0565647Y0313237D01*
X0565967Y0313484D01*
X0566281Y0313738D01*
X0566588Y0314000D01*
X0566889Y0314270D01*
X0567184Y0314546D01*
X0567471Y0314830D01*
X0567752Y0315121D01*
X0568025Y0315419D01*
X0568291Y0315723D01*
X0568549Y0316034D01*
X0568800Y0316351D01*
X0569043Y0316673D01*
X0569278Y0317002D01*
X0569505Y0317337D01*
X0569723Y0317677D01*
X0569933Y0318022D01*
X0570135Y0318372D01*
X0570328Y0318727D01*
X0570512Y0319086D01*
X0570687Y0319450D01*
X0570854Y0319819D01*
X0571011Y0320191D01*
X0571159Y0320567D01*
X0571298Y0320946D01*
X0571428Y0321329D01*
X0571548Y0321714D01*
X0571659Y0322103D01*
X0571760Y0322494D01*
X0571852Y0322888D01*
X0571934Y0323283D01*
X0304995Y0056344D02*
X0305390Y0056426D01*
X0305784Y0056518D01*
X0306175Y0056619D01*
X0306564Y0056730D01*
X0306949Y0056850D01*
X0307332Y0056980D01*
X0307711Y0057119D01*
X0308087Y0057267D01*
X0308459Y0057424D01*
X0308828Y0057591D01*
X0309192Y0057766D01*
X0309551Y0057950D01*
X0309906Y0058143D01*
X0310256Y0058345D01*
X0310601Y0058555D01*
X0310941Y0058773D01*
X0311276Y0059000D01*
X0311605Y0059235D01*
X0311927Y0059478D01*
X0312244Y0059729D01*
X0312555Y0059987D01*
X0312859Y0060253D01*
X0313157Y0060526D01*
X0313448Y0060807D01*
X0313732Y0061094D01*
X0314008Y0061389D01*
X0314278Y0061690D01*
X0314540Y0061997D01*
X0314794Y0062311D01*
X0315041Y0062631D01*
X0315280Y0062957D01*
X0315511Y0063289D01*
X0315733Y0063626D01*
X0315947Y0063969D01*
X0316153Y0064316D01*
X0316350Y0064669D01*
X0316539Y0065026D01*
X0316718Y0065388D01*
X0316889Y0065754D01*
X0317051Y0066125D01*
X0317204Y0066499D01*
X0317347Y0066876D01*
X0317481Y0067258D01*
X0317606Y0067642D01*
X0317721Y0068029D01*
X0317827Y0068419D01*
X0317924Y0068811D01*
X0318010Y0069206D01*
X0318087Y0069603D01*
X0318154Y0070001D01*
X0318212Y0070401D01*
X0318259Y0070802D01*
X0318297Y0071205D01*
X0318325Y0071608D01*
X0318343Y0072011D01*
X0318351Y0072415D01*
X0318350Y0072819D01*
X0318338Y0073223D01*
X0318317Y0073627D01*
X0318285Y0074030D01*
X0318244Y0074431D01*
X0318193Y0074832D01*
X0318132Y0075232D01*
X0318062Y0075630D01*
X0317982Y0076026D01*
X0317892Y0076419D01*
X0317792Y0076811D01*
X0317683Y0077200D01*
X0317564Y0077586D01*
X0317436Y0077970D01*
X0317299Y0078350D01*
X0317152Y0078726D01*
X0316996Y0079099D01*
X0316832Y0079468D01*
X0316658Y0079833D01*
X0316475Y0080193D01*
X0316284Y0080549D01*
X0316083Y0080900D01*
X0315875Y0081246D01*
X0315658Y0081586D01*
X0315432Y0081922D01*
X0315199Y0082252D01*
X0314957Y0082575D01*
X0314708Y0082893D01*
X0314451Y0083205D01*
X0314186Y0083510D01*
X0313914Y0083809D01*
X0313635Y0084101D01*
X0313349Y0084386D01*
X0313055Y0084664D01*
X0312756Y0084935D01*
X0312449Y0085198D01*
X0312136Y0085454D01*
X0311817Y0085702D01*
X0311492Y0085942D01*
X0311162Y0086174D01*
X0310825Y0086398D01*
X0310484Y0086614D01*
X0310137Y0086821D01*
X0309785Y0087020D01*
X0309428Y0087210D01*
X0309067Y0087391D01*
X0308702Y0087564D01*
X0308332Y0087727D01*
X0307959Y0087881D01*
X0307582Y0088026D01*
X0307201Y0088162D01*
X0306817Y0088288D01*
X0306431Y0088405D01*
X0306041Y0088513D01*
X0305649Y0088611D01*
X0305255Y0088699D01*
X0304858Y0088778D01*
X0304460Y0088847D01*
X0304061Y0088906D01*
X0303660Y0088955D01*
X0303257Y0088994D01*
X0302855Y0089024D01*
X0302451Y0089044D01*
X0302047Y0089054D01*
X0301643Y0089054D01*
X0301239Y0089044D01*
X0300835Y0089024D01*
X0300433Y0088994D01*
X0300030Y0088955D01*
X0299629Y0088906D01*
X0299230Y0088847D01*
X0298832Y0088778D01*
X0298435Y0088699D01*
X0298041Y0088611D01*
X0297649Y0088513D01*
X0297259Y0088405D01*
X0296873Y0088288D01*
X0296489Y0088162D01*
X0296108Y0088026D01*
X0295731Y0087881D01*
X0295358Y0087727D01*
X0294988Y0087564D01*
X0294623Y0087391D01*
X0294262Y0087210D01*
X0293905Y0087020D01*
X0293553Y0086821D01*
X0293206Y0086614D01*
X0292865Y0086398D01*
X0292528Y0086174D01*
X0292198Y0085942D01*
X0291873Y0085702D01*
X0291554Y0085454D01*
X0291241Y0085198D01*
X0290934Y0084935D01*
X0290635Y0084664D01*
X0290341Y0084386D01*
X0290055Y0084101D01*
X0289776Y0083809D01*
X0289504Y0083510D01*
X0289239Y0083205D01*
X0288982Y0082893D01*
X0288733Y0082575D01*
X0288491Y0082252D01*
X0288258Y0081922D01*
X0288032Y0081586D01*
X0287815Y0081246D01*
X0287607Y0080900D01*
X0287406Y0080549D01*
X0287215Y0080193D01*
X0287032Y0079833D01*
X0286858Y0079468D01*
X0286694Y0079099D01*
X0286538Y0078726D01*
X0286391Y0078350D01*
X0286254Y0077970D01*
X0286126Y0077586D01*
X0286007Y0077200D01*
X0285898Y0076811D01*
X0285798Y0076419D01*
X0285708Y0076026D01*
X0285628Y0075630D01*
X0285558Y0075232D01*
X0285497Y0074832D01*
X0285446Y0074431D01*
X0285405Y0074030D01*
X0285373Y0073627D01*
X0285352Y0073223D01*
X0285340Y0072819D01*
X0285339Y0072415D01*
X0285347Y0072011D01*
X0285365Y0071608D01*
X0285393Y0071205D01*
X0285431Y0070802D01*
X0285478Y0070401D01*
X0285536Y0070001D01*
X0285603Y0069603D01*
X0285680Y0069206D01*
X0285766Y0068811D01*
X0285863Y0068419D01*
X0285969Y0068029D01*
X0286084Y0067642D01*
X0286209Y0067258D01*
X0286343Y0066876D01*
X0286486Y0066499D01*
X0286639Y0066125D01*
X0286801Y0065754D01*
X0286972Y0065388D01*
X0287151Y0065026D01*
X0287340Y0064669D01*
X0287537Y0064316D01*
X0287743Y0063969D01*
X0287957Y0063626D01*
X0288179Y0063289D01*
X0288410Y0062957D01*
X0288649Y0062631D01*
X0288896Y0062311D01*
X0289150Y0061997D01*
X0289412Y0061690D01*
X0289682Y0061389D01*
X0289958Y0061094D01*
X0290242Y0060807D01*
X0290533Y0060526D01*
X0290831Y0060253D01*
X0291135Y0059987D01*
X0291446Y0059729D01*
X0291763Y0059478D01*
X0292085Y0059235D01*
X0292414Y0059000D01*
X0292749Y0058773D01*
X0293089Y0058555D01*
X0293434Y0058345D01*
X0293784Y0058143D01*
X0294139Y0057950D01*
X0294498Y0057766D01*
X0294862Y0057591D01*
X0295231Y0057424D01*
X0295603Y0057267D01*
X0295979Y0057119D01*
X0296358Y0056980D01*
X0296741Y0056850D01*
X0297126Y0056730D01*
X0297515Y0056619D01*
X0297906Y0056518D01*
X0298300Y0056426D01*
X0298695Y0056344D01*
D11*
X0298257Y0090805D02*
X0298257Y0096943D01*
X0297490Y0096176D02*
X0299025Y0096176D01*
X0299792Y0095409D01*
X0301327Y0094641D02*
X0302861Y0096176D01*
X0302861Y0091572D01*
X0301327Y0091572D02*
X0304396Y0091572D01*
X0305931Y0091572D02*
X0309000Y0094641D01*
X0309000Y0095409D01*
X0308232Y0096176D01*
X0306698Y0096176D01*
X0305931Y0095409D01*
X0306131Y0098463D02*
X0306131Y0101533D01*
X0304597Y0099998D02*
X0307666Y0099998D01*
X0309000Y0091572D02*
X0305931Y0091572D01*
X0299792Y0092339D02*
X0299792Y0093107D01*
X0299025Y0093874D01*
X0297490Y0093874D01*
X0296723Y0094641D01*
X0296723Y0095409D01*
X0297490Y0096176D01*
X0295188Y0096176D02*
X0295188Y0092339D01*
X0294421Y0091572D01*
X0292886Y0091572D01*
X0292119Y0092339D01*
X0292119Y0096176D01*
X0292786Y0099998D02*
X0295855Y0099998D01*
X0296723Y0092339D02*
X0297490Y0091572D01*
X0299025Y0091572D01*
X0299792Y0092339D01*
X0169787Y0192779D02*
X0169787Y0195081D01*
X0169020Y0195848D01*
X0168252Y0195848D01*
X0167485Y0195081D01*
X0167485Y0192779D01*
X0169787Y0192779D02*
X0165183Y0192779D01*
X0165183Y0195081D01*
X0165950Y0195848D01*
X0166718Y0195848D01*
X0167485Y0195081D01*
X0165950Y0197383D02*
X0165183Y0198150D01*
X0165183Y0199685D01*
X0165950Y0200452D01*
X0166718Y0200452D01*
X0169787Y0197383D01*
X0169787Y0200452D01*
X0158716Y0199944D02*
X0158716Y0198409D01*
X0157949Y0197642D01*
X0157181Y0197642D01*
X0156414Y0198409D01*
X0156414Y0199944D01*
X0157181Y0200711D01*
X0157949Y0200711D01*
X0158716Y0199944D01*
X0156414Y0199944D02*
X0155647Y0200711D01*
X0154879Y0200711D01*
X0154112Y0199944D01*
X0154112Y0198409D01*
X0154879Y0197642D01*
X0155647Y0197642D01*
X0156414Y0198409D01*
X0157181Y0196107D02*
X0156414Y0195340D01*
X0156414Y0193805D01*
X0155647Y0193038D01*
X0154879Y0193038D01*
X0154112Y0193805D01*
X0154112Y0195340D01*
X0154879Y0196107D01*
X0153345Y0194572D02*
X0159483Y0194572D01*
X0158716Y0193805D02*
X0158716Y0195340D01*
X0157949Y0196107D01*
X0157181Y0196107D01*
X0158716Y0193805D02*
X0157949Y0193038D01*
X0157949Y0191503D02*
X0154112Y0191503D01*
X0154112Y0188434D02*
X0157949Y0188434D01*
X0158716Y0189201D01*
X0158716Y0190736D01*
X0157949Y0191503D01*
X0261068Y0252926D02*
X0261068Y0255228D01*
X0262603Y0256763D01*
X0262603Y0257530D01*
X0264138Y0256763D02*
X0264905Y0257530D01*
X0266440Y0257530D01*
X0267207Y0256763D01*
X0267207Y0255996D01*
X0264138Y0252926D01*
X0267207Y0252926D01*
X0261068Y0255228D02*
X0259534Y0256763D01*
X0259534Y0257530D01*
X0314923Y0315231D02*
X0317259Y0315231D01*
X0317726Y0315699D01*
X0317726Y0316633D01*
X0317259Y0317100D01*
X0314923Y0317100D01*
X0315391Y0318178D02*
X0314923Y0318645D01*
X0314923Y0319579D01*
X0315391Y0320046D01*
X0316325Y0319579D02*
X0316325Y0318645D01*
X0315858Y0318178D01*
X0315391Y0318178D01*
X0314456Y0319112D02*
X0318193Y0319112D01*
X0317726Y0318645D02*
X0317726Y0319579D01*
X0317259Y0320046D01*
X0316792Y0320046D01*
X0316325Y0319579D01*
X0316325Y0321125D02*
X0315858Y0322059D01*
X0315858Y0322526D01*
X0316325Y0322993D01*
X0317259Y0322993D01*
X0317726Y0322526D01*
X0317726Y0321592D01*
X0317259Y0321125D01*
X0316325Y0321125D02*
X0314923Y0321125D01*
X0314923Y0322993D01*
X0317726Y0318645D02*
X0317259Y0318178D01*
X0254332Y0380660D02*
X0252798Y0382195D01*
X0249728Y0382195D01*
X0250496Y0383730D02*
X0253565Y0383730D01*
X0254332Y0384497D01*
X0254332Y0386031D01*
X0253565Y0386799D01*
X0250496Y0386799D01*
X0249728Y0386031D01*
X0249728Y0384497D01*
X0250496Y0383730D01*
X0249728Y0388333D02*
X0254332Y0388333D01*
X0254332Y0391403D01*
X0254332Y0394472D02*
X0249728Y0394472D01*
X0249728Y0392937D02*
X0249728Y0396007D01*
X0251263Y0397541D02*
X0249728Y0399076D01*
X0251263Y0400611D01*
X0254332Y0400611D01*
X0253565Y0402145D02*
X0250496Y0402145D01*
X0249728Y0402913D01*
X0249728Y0404447D01*
X0250496Y0405215D01*
X0252030Y0405215D02*
X0252030Y0403680D01*
X0252030Y0405215D02*
X0253565Y0405215D01*
X0254332Y0404447D01*
X0254332Y0402913D01*
X0253565Y0402145D01*
X0252030Y0400611D02*
X0252030Y0397541D01*
X0251263Y0397541D02*
X0254332Y0397541D01*
X0254332Y0406749D02*
X0249728Y0406749D01*
X0249728Y0409818D01*
X0252030Y0408284D02*
X0252030Y0406749D01*
X0254332Y0406749D02*
X0254332Y0409818D01*
X0255099Y0411353D02*
X0255099Y0414422D01*
X0254332Y0415957D02*
X0249728Y0415957D01*
X0249728Y0418259D01*
X0250496Y0419026D01*
X0252030Y0419026D01*
X0252798Y0418259D01*
X0252798Y0415957D01*
X0252798Y0417492D02*
X0254332Y0419026D01*
X0254332Y0420561D02*
X0254332Y0423630D01*
X0253565Y0425165D02*
X0250496Y0425165D01*
X0249728Y0425932D01*
X0249728Y0427467D01*
X0250496Y0428234D01*
X0252030Y0428234D02*
X0252030Y0426699D01*
X0252030Y0428234D02*
X0253565Y0428234D01*
X0254332Y0427467D01*
X0254332Y0425932D01*
X0253565Y0425165D01*
X0252030Y0422096D02*
X0252030Y0420561D01*
X0249728Y0420561D02*
X0254332Y0420561D01*
X0249728Y0420561D02*
X0249728Y0423630D01*
X0249728Y0429769D02*
X0253565Y0429769D01*
X0254332Y0430536D01*
X0254332Y0432071D01*
X0253565Y0432838D01*
X0249728Y0432838D01*
X0249728Y0434373D02*
X0254332Y0434373D01*
X0254332Y0437442D01*
X0254332Y0438977D02*
X0251263Y0438977D01*
X0249728Y0440511D01*
X0251263Y0442046D01*
X0254332Y0442046D01*
X0252030Y0442046D02*
X0252030Y0438977D01*
X0249728Y0443581D02*
X0249728Y0446650D01*
X0249728Y0445115D02*
X0254332Y0445115D01*
X0253565Y0448184D02*
X0254332Y0448952D01*
X0254332Y0450486D01*
X0253565Y0451254D01*
X0250496Y0451254D01*
X0249728Y0450486D01*
X0249728Y0448952D01*
X0250496Y0448184D01*
X0253565Y0448184D01*
X0254332Y0452788D02*
X0249728Y0452788D01*
X0249728Y0455090D01*
X0250496Y0455858D01*
X0252030Y0455858D01*
X0252798Y0455090D01*
X0252798Y0452788D01*
X0252798Y0454323D02*
X0254332Y0455858D01*
X0203238Y0452220D02*
X0202471Y0452987D01*
X0200169Y0452987D01*
X0200169Y0448383D01*
X0202471Y0448383D01*
X0203238Y0449150D01*
X0203238Y0452220D01*
X0198634Y0452987D02*
X0198634Y0448383D01*
X0195565Y0452987D01*
X0195565Y0448383D01*
X0194030Y0449150D02*
X0194030Y0450685D01*
X0192495Y0450685D01*
X0190961Y0449150D02*
X0191728Y0448383D01*
X0193263Y0448383D01*
X0194030Y0449150D01*
X0190961Y0449150D02*
X0190961Y0452220D01*
X0191728Y0452987D01*
X0193263Y0452987D01*
X0194030Y0452220D01*
X0189426Y0447616D02*
X0186357Y0447616D01*
X0183288Y0448383D02*
X0183288Y0452987D01*
X0184822Y0452987D02*
X0181753Y0452987D01*
X0180218Y0451452D02*
X0180218Y0448383D01*
X0180218Y0450685D02*
X0177149Y0450685D01*
X0177149Y0451452D02*
X0178684Y0452987D01*
X0180218Y0451452D01*
X0177149Y0451452D02*
X0177149Y0448383D01*
X0175614Y0449150D02*
X0174847Y0448383D01*
X0172545Y0448383D01*
X0172545Y0452987D01*
X0174847Y0452987D01*
X0175614Y0452220D01*
X0175614Y0451452D01*
X0174847Y0450685D01*
X0172545Y0450685D01*
X0174847Y0450685D02*
X0175614Y0449918D01*
X0175614Y0449150D01*
X0180295Y0443737D02*
X0180295Y0440668D01*
X0181830Y0439133D01*
X0183364Y0440668D01*
X0183364Y0443737D01*
X0184899Y0443737D02*
X0184899Y0439133D01*
X0187201Y0439133D01*
X0187968Y0439900D01*
X0187968Y0440668D01*
X0187201Y0441435D01*
X0184899Y0441435D01*
X0184899Y0443737D02*
X0187201Y0443737D01*
X0187968Y0442970D01*
X0187968Y0442202D01*
X0187201Y0441435D01*
X0189503Y0441435D02*
X0192572Y0441435D01*
X0192572Y0442202D02*
X0192572Y0439133D01*
X0189503Y0439133D02*
X0189503Y0442202D01*
X0191038Y0443737D01*
X0192572Y0442202D01*
X0194107Y0443737D02*
X0197176Y0443737D01*
X0195642Y0443737D02*
X0195642Y0439133D01*
X0191624Y0433737D02*
X0191624Y0430668D01*
X0190090Y0429133D01*
X0188555Y0430668D01*
X0188555Y0433737D01*
X0187020Y0432970D02*
X0183951Y0429900D01*
X0184718Y0429133D01*
X0186253Y0429133D01*
X0187020Y0429900D01*
X0187020Y0432970D01*
X0186253Y0433737D01*
X0184718Y0433737D01*
X0183951Y0432970D01*
X0183951Y0429900D01*
X0182416Y0429900D02*
X0182416Y0429133D01*
X0181649Y0429133D01*
X0181649Y0429900D01*
X0182416Y0429900D01*
X0180114Y0429900D02*
X0179347Y0429133D01*
X0177812Y0429133D01*
X0177045Y0429900D01*
X0178580Y0431435D02*
X0179347Y0431435D01*
X0180114Y0430668D01*
X0180114Y0429900D01*
X0179347Y0431435D02*
X0180114Y0432202D01*
X0180114Y0432970D01*
X0179347Y0433737D01*
X0177812Y0433737D01*
X0177045Y0432970D01*
X0177045Y0423737D02*
X0179347Y0423737D01*
X0180114Y0422970D01*
X0180114Y0421435D01*
X0179347Y0420668D01*
X0177045Y0420668D01*
X0177045Y0419133D02*
X0177045Y0423737D01*
X0181649Y0423737D02*
X0183951Y0423737D01*
X0184718Y0422970D01*
X0184718Y0422202D01*
X0183951Y0421435D01*
X0181649Y0421435D01*
X0181649Y0419133D02*
X0183951Y0419133D01*
X0184718Y0419900D01*
X0184718Y0420668D01*
X0183951Y0421435D01*
X0186253Y0421435D02*
X0187788Y0422202D01*
X0188555Y0422202D01*
X0189322Y0421435D01*
X0189322Y0419900D01*
X0188555Y0419133D01*
X0187020Y0419133D01*
X0186253Y0419900D01*
X0186253Y0421435D02*
X0186253Y0423737D01*
X0189322Y0423737D01*
X0181649Y0423737D02*
X0181649Y0419133D01*
X0181649Y0413737D02*
X0181649Y0409133D01*
X0184718Y0409133D01*
X0186253Y0409900D02*
X0187020Y0409133D01*
X0188555Y0409133D01*
X0189322Y0409900D01*
X0189322Y0411435D01*
X0188555Y0412202D01*
X0187788Y0412202D01*
X0186253Y0411435D01*
X0186253Y0413737D01*
X0189322Y0413737D01*
X0184718Y0413737D02*
X0181649Y0413737D01*
X0180114Y0412970D02*
X0180114Y0411435D01*
X0179347Y0410668D01*
X0177045Y0410668D01*
X0177045Y0409133D02*
X0177045Y0413737D01*
X0179347Y0413737D01*
X0180114Y0412970D01*
X0181649Y0411435D02*
X0183184Y0411435D01*
X0183468Y0403987D02*
X0180399Y0403987D01*
X0180399Y0399383D01*
X0183468Y0399383D01*
X0185003Y0400150D02*
X0185770Y0399383D01*
X0187305Y0399383D01*
X0188072Y0400150D01*
X0188072Y0400918D01*
X0187305Y0401685D01*
X0186538Y0401685D01*
X0187305Y0401685D02*
X0188072Y0402452D01*
X0188072Y0403220D01*
X0187305Y0403987D01*
X0185770Y0403987D01*
X0185003Y0403220D01*
X0181934Y0401685D02*
X0180399Y0401685D01*
X0178864Y0401685D02*
X0178097Y0400918D01*
X0175795Y0400918D01*
X0175795Y0399383D02*
X0175795Y0403987D01*
X0178097Y0403987D01*
X0178864Y0403220D01*
X0178864Y0401685D01*
X0179149Y0394737D02*
X0179149Y0390133D01*
X0182218Y0390133D01*
X0180684Y0392435D02*
X0179149Y0392435D01*
X0177614Y0392435D02*
X0176847Y0391668D01*
X0174545Y0391668D01*
X0174545Y0390133D02*
X0174545Y0394737D01*
X0176847Y0394737D01*
X0177614Y0393970D01*
X0177614Y0392435D01*
X0179149Y0394737D02*
X0182218Y0394737D01*
X0183753Y0392435D02*
X0186822Y0392435D01*
X0186055Y0390133D02*
X0186055Y0394737D01*
X0183753Y0392435D01*
X0182253Y0373987D02*
X0182253Y0369383D01*
X0185322Y0369383D01*
X0180718Y0370150D02*
X0179951Y0369383D01*
X0178416Y0369383D01*
X0177649Y0370150D01*
X0177649Y0373220D01*
X0178416Y0373987D01*
X0179951Y0373987D01*
X0180718Y0373220D01*
X0176114Y0373220D02*
X0175347Y0373987D01*
X0173812Y0373987D01*
X0173045Y0373220D01*
X0173045Y0372452D01*
X0173812Y0371685D01*
X0175347Y0371685D01*
X0176114Y0370918D01*
X0176114Y0370150D01*
X0175347Y0369383D01*
X0173812Y0369383D01*
X0173045Y0370150D01*
X0159145Y0377650D02*
X0158378Y0376883D01*
X0159145Y0377650D02*
X0159145Y0379185D01*
X0158378Y0379952D01*
X0157611Y0379952D01*
X0156843Y0379185D01*
X0156843Y0377650D01*
X0156076Y0376883D01*
X0155309Y0376883D01*
X0154541Y0377650D01*
X0154541Y0379185D01*
X0155309Y0379952D01*
X0154541Y0381487D02*
X0159145Y0381487D01*
X0159145Y0383789D01*
X0158378Y0384556D01*
X0155309Y0384556D01*
X0154541Y0383789D01*
X0154541Y0381487D01*
X0156076Y0386091D02*
X0154541Y0387626D01*
X0156076Y0389160D01*
X0159145Y0389160D01*
X0156843Y0389160D02*
X0156843Y0386091D01*
X0156076Y0386091D02*
X0159145Y0386091D01*
X0176062Y0462883D02*
X0177597Y0462883D01*
X0178364Y0463650D01*
X0178364Y0465185D01*
X0176830Y0465185D01*
X0178364Y0466720D02*
X0177597Y0467487D01*
X0176062Y0467487D01*
X0175295Y0466720D01*
X0175295Y0463650D01*
X0176062Y0462883D01*
X0179899Y0462883D02*
X0179899Y0467487D01*
X0182968Y0462883D01*
X0182968Y0467487D01*
X0184503Y0467487D02*
X0184503Y0462883D01*
X0186805Y0462883D01*
X0187572Y0463650D01*
X0187572Y0466720D01*
X0186805Y0467487D01*
X0184503Y0467487D01*
X0249728Y0379126D02*
X0252798Y0379126D01*
X0254332Y0380660D01*
X0295174Y0552587D02*
X0295174Y0555657D01*
X0295375Y0557194D02*
X0296910Y0557194D01*
X0297677Y0557961D01*
X0297677Y0561798D01*
X0299212Y0561031D02*
X0299979Y0561798D01*
X0301514Y0561798D01*
X0302281Y0561031D01*
X0303816Y0561031D02*
X0303816Y0560263D01*
X0304583Y0559496D01*
X0306885Y0559496D01*
X0306885Y0557961D02*
X0306885Y0561031D01*
X0306118Y0561798D01*
X0304583Y0561798D01*
X0303816Y0561031D01*
X0302281Y0558729D02*
X0301514Y0559496D01*
X0299979Y0559496D01*
X0299212Y0560263D01*
X0299212Y0561031D01*
X0300746Y0562565D02*
X0300746Y0556427D01*
X0299979Y0557194D02*
X0301514Y0557194D01*
X0302281Y0557961D01*
X0302281Y0558729D01*
X0303816Y0557961D02*
X0304583Y0557194D01*
X0306118Y0557194D01*
X0306885Y0557961D01*
X0305451Y0554122D02*
X0308520Y0554122D01*
X0299979Y0557194D02*
X0299212Y0557961D01*
X0295375Y0557194D02*
X0294608Y0557961D01*
X0294608Y0561798D01*
X0293640Y0554122D02*
X0296709Y0554122D01*
X0080406Y0334358D02*
X0080406Y0331289D01*
X0077334Y0330421D02*
X0077334Y0327352D01*
X0077334Y0328886D02*
X0072730Y0328886D01*
X0074265Y0327352D01*
X0073498Y0325817D02*
X0072730Y0325050D01*
X0072730Y0323515D01*
X0073498Y0322748D01*
X0074265Y0322748D01*
X0075032Y0323515D01*
X0075032Y0325050D01*
X0075799Y0325817D01*
X0076567Y0325817D01*
X0077334Y0325050D01*
X0077334Y0323515D01*
X0076567Y0322748D01*
X0076567Y0321213D02*
X0072730Y0321213D01*
X0072730Y0318144D02*
X0076567Y0318144D01*
X0077334Y0318911D01*
X0077334Y0320446D01*
X0076567Y0321213D01*
X0078872Y0321012D02*
X0081941Y0321012D01*
X0080406Y0319478D02*
X0080406Y0322547D01*
X0078101Y0324282D02*
X0071963Y0324282D01*
X0073498Y0331955D02*
X0072730Y0332723D01*
X0072730Y0334257D01*
X0073498Y0335025D01*
X0076567Y0331955D01*
X0077334Y0332723D01*
X0077334Y0334257D01*
X0076567Y0335025D01*
X0073498Y0335025D01*
X0073498Y0331955D02*
X0076567Y0331955D01*
X0526746Y0331969D02*
X0529815Y0331969D01*
X0531352Y0333303D02*
X0535956Y0333303D01*
X0535956Y0331768D02*
X0535956Y0334838D01*
X0532887Y0331768D02*
X0531352Y0333303D01*
X0528280Y0333504D02*
X0528280Y0330435D01*
X0531352Y0328699D02*
X0535956Y0328699D01*
X0535956Y0327165D02*
X0535956Y0330234D01*
X0532887Y0327165D02*
X0531352Y0328699D01*
X0532120Y0325630D02*
X0531352Y0324863D01*
X0531352Y0323328D01*
X0532120Y0322561D01*
X0532887Y0322561D01*
X0533654Y0323328D01*
X0533654Y0324863D01*
X0534422Y0325630D01*
X0535189Y0325630D01*
X0535956Y0324863D01*
X0535956Y0323328D01*
X0535189Y0322561D01*
X0535189Y0321026D02*
X0531352Y0321026D01*
X0531352Y0317957D02*
X0535189Y0317957D01*
X0535956Y0318724D01*
X0535956Y0320259D01*
X0535189Y0321026D01*
X0536723Y0324095D02*
X0530585Y0324095D01*
X0528280Y0321693D02*
X0528280Y0318624D01*
D12*
X0530703Y0315154D02*
X0530703Y0338776D01*
X0514955Y0338776D01*
X0514955Y0315154D01*
X0530703Y0315154D01*
X0508314Y0335959D02*
X0505495Y0335959D01*
X0506904Y0335959D02*
X0506904Y0340187D01*
X0505495Y0338777D01*
X0503963Y0339482D02*
X0503259Y0340187D01*
X0501145Y0340187D01*
X0501145Y0335959D01*
X0503259Y0335959D01*
X0503963Y0336663D01*
X0503963Y0339482D01*
X0491314Y0326982D02*
X0491314Y0326277D01*
X0490609Y0325573D01*
X0489200Y0325573D01*
X0488495Y0326277D01*
X0488495Y0326982D01*
X0489200Y0327687D01*
X0490609Y0327687D01*
X0491314Y0326982D01*
X0490609Y0325573D02*
X0491314Y0324868D01*
X0491314Y0324163D01*
X0490609Y0323459D01*
X0489200Y0323459D01*
X0488495Y0324163D01*
X0488495Y0324868D01*
X0489200Y0325573D01*
X0486963Y0325573D02*
X0486259Y0324868D01*
X0484145Y0324868D01*
X0485554Y0324868D02*
X0486963Y0323459D01*
X0486963Y0325573D02*
X0486963Y0326982D01*
X0486259Y0327687D01*
X0484145Y0327687D01*
X0484145Y0323459D01*
X0491333Y0322437D02*
X0492121Y0322437D01*
X0501570Y0322437D02*
X0502357Y0322437D01*
X0502357Y0310429D02*
X0501570Y0310429D01*
X0492121Y0310429D02*
X0491333Y0310429D01*
X0465845Y0314388D02*
X0465845Y0315797D01*
X0465140Y0316502D01*
X0465845Y0318033D02*
X0465845Y0320852D01*
X0465845Y0319443D02*
X0461617Y0319443D01*
X0463026Y0318033D01*
X0462322Y0316502D02*
X0461617Y0315797D01*
X0461617Y0314388D01*
X0462322Y0313683D01*
X0465140Y0313683D01*
X0465845Y0314388D01*
X0465845Y0322383D02*
X0465845Y0325202D01*
X0465845Y0323793D02*
X0461617Y0323793D01*
X0463026Y0322383D01*
X0463095Y0329183D02*
X0463095Y0333411D01*
X0465209Y0333411D01*
X0465914Y0332706D01*
X0465914Y0331297D01*
X0465209Y0330592D01*
X0463095Y0330592D01*
X0464504Y0330592D02*
X0465914Y0329183D01*
X0467445Y0329183D02*
X0467445Y0329888D01*
X0470264Y0332706D01*
X0470264Y0333411D01*
X0467445Y0333411D01*
X0449320Y0326333D02*
X0448615Y0326333D01*
X0445796Y0329152D01*
X0445092Y0329152D01*
X0445092Y0326333D01*
X0445092Y0323392D02*
X0449320Y0323392D01*
X0449320Y0321983D02*
X0449320Y0324801D01*
X0446501Y0321983D02*
X0445092Y0323392D01*
X0445796Y0320451D02*
X0445092Y0319747D01*
X0445092Y0318337D01*
X0445796Y0317633D01*
X0448615Y0317633D01*
X0449320Y0318337D01*
X0449320Y0319747D01*
X0448615Y0320451D01*
X0451843Y0261332D02*
X0451843Y0258329D01*
X0449591Y0260581D01*
X0454095Y0260581D01*
X0453345Y0255977D02*
X0449591Y0255977D01*
X0449591Y0255226D02*
X0449591Y0256728D01*
X0453345Y0255977D02*
X0454095Y0255226D01*
X0454095Y0254476D01*
X0453345Y0253725D01*
X0392178Y0197105D02*
X0392178Y0196354D01*
X0391428Y0195603D01*
X0392178Y0194853D01*
X0392178Y0194102D01*
X0391428Y0193352D01*
X0389926Y0193352D01*
X0389176Y0194102D01*
X0390677Y0195603D02*
X0391428Y0195603D01*
X0392178Y0197105D02*
X0391428Y0197855D01*
X0389926Y0197855D01*
X0389176Y0197105D01*
X0387574Y0197105D02*
X0387574Y0195603D01*
X0386824Y0194853D01*
X0384572Y0194853D01*
X0384572Y0193352D02*
X0384572Y0197855D01*
X0386824Y0197855D01*
X0387574Y0197105D01*
X0382971Y0197855D02*
X0381469Y0197855D01*
X0382220Y0197855D02*
X0382220Y0194102D01*
X0381469Y0193352D01*
X0380719Y0193352D01*
X0379968Y0194102D01*
X0313570Y0170902D02*
X0313570Y0168083D01*
X0313570Y0169492D02*
X0309342Y0169492D01*
X0310751Y0168083D01*
X0313570Y0166551D02*
X0313570Y0163733D01*
X0313570Y0165142D02*
X0309342Y0165142D01*
X0310751Y0163733D01*
X0311456Y0162201D02*
X0312160Y0161497D01*
X0312160Y0159383D01*
X0312160Y0160792D02*
X0313570Y0162201D01*
X0311456Y0162201D02*
X0310046Y0162201D01*
X0309342Y0161497D01*
X0309342Y0159383D01*
X0313570Y0159383D01*
X0302064Y0161163D02*
X0301359Y0160459D01*
X0299950Y0160459D01*
X0299245Y0161163D01*
X0302064Y0163982D01*
X0302064Y0161163D01*
X0302064Y0163982D02*
X0301359Y0164687D01*
X0299950Y0164687D01*
X0299245Y0163982D01*
X0299245Y0161163D01*
X0297713Y0160459D02*
X0294895Y0160459D01*
X0296304Y0160459D02*
X0296304Y0164687D01*
X0294895Y0163277D01*
X0293363Y0163982D02*
X0292659Y0164687D01*
X0291249Y0164687D01*
X0290545Y0163982D01*
X0290545Y0161163D01*
X0291249Y0160459D01*
X0292659Y0160459D01*
X0293363Y0161163D01*
X0297249Y0172709D02*
X0298659Y0172709D01*
X0299363Y0173413D01*
X0300895Y0172709D02*
X0303713Y0175527D01*
X0303713Y0176232D01*
X0303009Y0176937D01*
X0301599Y0176937D01*
X0300895Y0176232D01*
X0299363Y0176232D02*
X0298659Y0176937D01*
X0297249Y0176937D01*
X0296545Y0176232D01*
X0296545Y0173413D01*
X0297249Y0172709D01*
X0300895Y0172709D02*
X0303713Y0172709D01*
X0305245Y0172709D02*
X0308064Y0172709D01*
X0306654Y0172709D02*
X0306654Y0176937D01*
X0305245Y0175527D01*
X0304595Y0147202D02*
X0304595Y0144383D01*
X0301776Y0147202D01*
X0301072Y0147202D01*
X0300367Y0146497D01*
X0300367Y0145088D01*
X0301072Y0144383D01*
X0300367Y0141443D02*
X0304595Y0141443D01*
X0304595Y0142852D02*
X0304595Y0140033D01*
X0304595Y0138502D02*
X0303186Y0137092D01*
X0303186Y0137797D02*
X0303186Y0135683D01*
X0304595Y0135683D02*
X0300367Y0135683D01*
X0300367Y0137797D01*
X0301072Y0138502D01*
X0302481Y0138502D01*
X0303186Y0137797D01*
X0301776Y0140033D02*
X0300367Y0141443D01*
X0299099Y0135695D02*
X0299099Y0134907D01*
X0299099Y0125459D02*
X0299099Y0124671D01*
X0305345Y0119661D02*
X0307459Y0119661D01*
X0308164Y0118956D01*
X0308164Y0116138D01*
X0307459Y0115433D01*
X0305345Y0115433D01*
X0305345Y0119661D01*
X0309695Y0118956D02*
X0310400Y0119661D01*
X0311809Y0119661D01*
X0312514Y0118956D01*
X0312514Y0118252D01*
X0311809Y0117547D01*
X0312514Y0116842D01*
X0312514Y0116138D01*
X0311809Y0115433D01*
X0310400Y0115433D01*
X0309695Y0116138D01*
X0311105Y0117547D02*
X0311809Y0117547D01*
X0312938Y0113323D02*
X0312938Y0097575D01*
X0289316Y0097575D01*
X0289316Y0113323D01*
X0312938Y0113323D01*
X0287091Y0124671D02*
X0287091Y0125459D01*
X0287091Y0134907D02*
X0287091Y0135695D01*
X0234064Y0178663D02*
X0233359Y0177959D01*
X0231950Y0177959D01*
X0231245Y0178663D01*
X0231245Y0180073D02*
X0232654Y0180777D01*
X0233359Y0180777D01*
X0234064Y0180073D01*
X0234064Y0178663D01*
X0231245Y0180073D02*
X0231245Y0182187D01*
X0234064Y0182187D01*
X0228304Y0182187D02*
X0228304Y0177959D01*
X0226895Y0177959D02*
X0229713Y0177959D01*
X0226895Y0180777D02*
X0228304Y0182187D01*
X0225363Y0181482D02*
X0224659Y0182187D01*
X0223249Y0182187D01*
X0222545Y0181482D01*
X0222545Y0178663D01*
X0223249Y0177959D01*
X0224659Y0177959D01*
X0225363Y0178663D01*
X0196532Y0215472D02*
X0196532Y0220394D01*
X0189427Y0217421D02*
X0189429Y0217447D01*
X0189435Y0217473D01*
X0189444Y0217497D01*
X0189458Y0217520D01*
X0189474Y0217541D01*
X0189493Y0217559D01*
X0189515Y0217573D01*
X0189539Y0217585D01*
X0189564Y0217593D01*
X0189590Y0217597D01*
X0189616Y0217597D01*
X0189642Y0217593D01*
X0189667Y0217585D01*
X0189691Y0217573D01*
X0189713Y0217559D01*
X0189732Y0217541D01*
X0189748Y0217520D01*
X0189762Y0217497D01*
X0189771Y0217473D01*
X0189777Y0217447D01*
X0189779Y0217421D01*
X0189777Y0217395D01*
X0189771Y0217369D01*
X0189762Y0217345D01*
X0189748Y0217322D01*
X0189732Y0217301D01*
X0189713Y0217283D01*
X0189691Y0217269D01*
X0189667Y0217257D01*
X0189642Y0217249D01*
X0189616Y0217245D01*
X0189590Y0217245D01*
X0189564Y0217249D01*
X0189539Y0217257D01*
X0189515Y0217269D01*
X0189493Y0217283D01*
X0189474Y0217301D01*
X0189458Y0217322D01*
X0189444Y0217345D01*
X0189435Y0217369D01*
X0189429Y0217395D01*
X0189427Y0217421D01*
X0188658Y0215472D02*
X0188658Y0220394D01*
X0213296Y0246133D02*
X0216115Y0246133D01*
X0216820Y0246837D01*
X0216820Y0248247D01*
X0216115Y0248951D01*
X0216820Y0250483D02*
X0216820Y0253301D01*
X0216820Y0251892D02*
X0212592Y0251892D01*
X0214001Y0250483D01*
X0213296Y0248951D02*
X0212592Y0248247D01*
X0212592Y0246837D01*
X0213296Y0246133D01*
X0214706Y0254833D02*
X0214706Y0257652D01*
X0216820Y0256947D02*
X0212592Y0256947D01*
X0214706Y0254833D01*
X0224592Y0262587D02*
X0224592Y0263997D01*
X0225296Y0264701D01*
X0226001Y0266233D02*
X0224592Y0267642D01*
X0228820Y0267642D01*
X0228820Y0266233D02*
X0228820Y0269051D01*
X0228115Y0270583D02*
X0228820Y0271288D01*
X0228820Y0272697D01*
X0228115Y0273402D01*
X0227410Y0273402D01*
X0226706Y0272697D01*
X0226706Y0270583D01*
X0228115Y0270583D01*
X0226706Y0270583D02*
X0225296Y0271992D01*
X0224592Y0273402D01*
X0228115Y0264701D02*
X0228820Y0263997D01*
X0228820Y0262587D01*
X0228115Y0261883D01*
X0225296Y0261883D01*
X0224592Y0262587D01*
X0259595Y0264138D02*
X0260300Y0263433D01*
X0261709Y0263433D01*
X0262414Y0264138D01*
X0263945Y0263433D02*
X0266764Y0263433D01*
X0265355Y0263433D02*
X0265355Y0267661D01*
X0263945Y0266252D01*
X0262414Y0266956D02*
X0261709Y0267661D01*
X0260300Y0267661D01*
X0259595Y0266956D01*
X0259595Y0264138D01*
X0268295Y0264138D02*
X0268295Y0264842D01*
X0269000Y0265547D01*
X0270409Y0265547D01*
X0271114Y0264842D01*
X0271114Y0264138D01*
X0270409Y0263433D01*
X0269000Y0263433D01*
X0268295Y0264138D01*
X0269000Y0265547D02*
X0268295Y0266252D01*
X0268295Y0266956D01*
X0269000Y0267661D01*
X0270409Y0267661D01*
X0271114Y0266956D01*
X0271114Y0266252D01*
X0270409Y0265547D01*
X0270867Y0314933D02*
X0270867Y0317047D01*
X0271572Y0317752D01*
X0272981Y0317752D01*
X0273686Y0317047D01*
X0273686Y0314933D01*
X0275095Y0314933D02*
X0270867Y0314933D01*
X0273686Y0316342D02*
X0275095Y0317752D01*
X0274390Y0319283D02*
X0275095Y0319988D01*
X0275095Y0321397D01*
X0274390Y0322102D01*
X0273686Y0322102D01*
X0272981Y0321397D01*
X0272981Y0320693D01*
X0272981Y0321397D02*
X0272276Y0322102D01*
X0271572Y0322102D01*
X0270867Y0321397D01*
X0270867Y0319988D01*
X0271572Y0319283D01*
X0270070Y0323733D02*
X0265842Y0323733D01*
X0265842Y0325847D01*
X0266546Y0326551D01*
X0267956Y0326551D01*
X0268660Y0325847D01*
X0268660Y0323733D01*
X0268660Y0325142D02*
X0270070Y0326551D01*
X0270070Y0328083D02*
X0267251Y0330902D01*
X0266546Y0330902D01*
X0265842Y0330197D01*
X0265842Y0328788D01*
X0266546Y0328083D01*
X0270070Y0328083D02*
X0270070Y0330902D01*
X0270795Y0343433D02*
X0270795Y0344138D01*
X0273614Y0346956D01*
X0273614Y0347661D01*
X0270795Y0347661D01*
X0269264Y0346956D02*
X0268559Y0347661D01*
X0267150Y0347661D01*
X0266445Y0346956D01*
X0264914Y0346956D02*
X0264209Y0347661D01*
X0262800Y0347661D01*
X0262095Y0346956D01*
X0262095Y0344138D01*
X0262800Y0343433D01*
X0264209Y0343433D01*
X0264914Y0344138D01*
X0266445Y0343433D02*
X0269264Y0346252D01*
X0269264Y0346956D01*
X0269264Y0343433D02*
X0266445Y0343433D01*
X0285095Y0356888D02*
X0285095Y0359706D01*
X0285800Y0360411D01*
X0287209Y0360411D01*
X0287914Y0359706D01*
X0289445Y0359706D02*
X0290150Y0360411D01*
X0291559Y0360411D01*
X0292264Y0359706D01*
X0292264Y0359002D01*
X0289445Y0356183D01*
X0292264Y0356183D01*
X0293795Y0356888D02*
X0293795Y0357592D01*
X0294500Y0358297D01*
X0295909Y0358297D01*
X0296614Y0357592D01*
X0296614Y0356888D01*
X0295909Y0356183D01*
X0294500Y0356183D01*
X0293795Y0356888D01*
X0294500Y0358297D02*
X0293795Y0359002D01*
X0293795Y0359706D01*
X0294500Y0360411D01*
X0295909Y0360411D01*
X0296614Y0359706D01*
X0296614Y0359002D01*
X0295909Y0358297D01*
X0287914Y0356888D02*
X0287209Y0356183D01*
X0285800Y0356183D01*
X0285095Y0356888D01*
X0285764Y0363683D02*
X0282945Y0363683D01*
X0285764Y0366502D01*
X0285764Y0367206D01*
X0285059Y0367911D01*
X0283650Y0367911D01*
X0282945Y0367206D01*
X0281414Y0367206D02*
X0280709Y0367911D01*
X0279300Y0367911D01*
X0278595Y0367206D01*
X0278595Y0364388D01*
X0279300Y0363683D01*
X0280709Y0363683D01*
X0281414Y0364388D01*
X0287295Y0364388D02*
X0288000Y0363683D01*
X0289409Y0363683D01*
X0290114Y0364388D01*
X0290114Y0367206D01*
X0289409Y0367911D01*
X0288000Y0367911D01*
X0287295Y0367206D01*
X0287295Y0366502D01*
X0288000Y0365797D01*
X0290114Y0365797D01*
X0290999Y0367709D02*
X0292409Y0367709D01*
X0293113Y0368413D01*
X0294645Y0368413D02*
X0295349Y0367709D01*
X0296759Y0367709D01*
X0297463Y0368413D01*
X0297463Y0369118D01*
X0296759Y0369823D01*
X0296054Y0369823D01*
X0296759Y0369823D02*
X0297463Y0370527D01*
X0297463Y0371232D01*
X0296759Y0371937D01*
X0295349Y0371937D01*
X0294645Y0371232D01*
X0293113Y0371232D02*
X0292409Y0371937D01*
X0290999Y0371937D01*
X0290295Y0371232D01*
X0290295Y0368413D01*
X0290999Y0367709D01*
X0298995Y0367709D02*
X0301814Y0367709D01*
X0300404Y0367709D02*
X0300404Y0371937D01*
X0298995Y0370527D01*
X0317800Y0344161D02*
X0317095Y0343456D01*
X0317095Y0340638D01*
X0317800Y0339933D01*
X0319209Y0339933D01*
X0319914Y0340638D01*
X0321445Y0340638D02*
X0322150Y0339933D01*
X0323559Y0339933D01*
X0324264Y0340638D01*
X0324264Y0341342D01*
X0323559Y0342047D01*
X0322855Y0342047D01*
X0323559Y0342047D02*
X0324264Y0342752D01*
X0324264Y0343456D01*
X0323559Y0344161D01*
X0322150Y0344161D01*
X0321445Y0343456D01*
X0319914Y0343456D02*
X0319209Y0344161D01*
X0317800Y0344161D01*
X0325795Y0343456D02*
X0325795Y0340638D01*
X0328614Y0343456D01*
X0328614Y0340638D01*
X0327909Y0339933D01*
X0326500Y0339933D01*
X0325795Y0340638D01*
X0325795Y0343456D02*
X0326500Y0344161D01*
X0327909Y0344161D01*
X0328614Y0343456D01*
X0340045Y0346913D02*
X0340749Y0346209D01*
X0342159Y0346209D01*
X0342863Y0346913D01*
X0342863Y0347618D01*
X0342159Y0348323D01*
X0340749Y0348323D01*
X0340045Y0349027D01*
X0340045Y0349732D01*
X0340749Y0350437D01*
X0342159Y0350437D01*
X0342863Y0349732D01*
X0344395Y0350437D02*
X0344395Y0346209D01*
X0345804Y0347618D01*
X0347213Y0346209D01*
X0347213Y0350437D01*
X0348745Y0349027D02*
X0350154Y0350437D01*
X0350154Y0346209D01*
X0348745Y0346209D02*
X0351564Y0346209D01*
X0308735Y0332339D02*
X0308735Y0330764D01*
X0308735Y0332339D02*
X0308538Y0332339D01*
X0308735Y0322102D02*
X0308735Y0320528D01*
X0308538Y0320528D01*
X0295152Y0320528D02*
X0294955Y0320528D01*
X0294955Y0322102D01*
X0294955Y0330764D02*
X0294955Y0332339D01*
X0295152Y0332339D01*
X0293380Y0332142D02*
X0293382Y0332169D01*
X0293388Y0332196D01*
X0293397Y0332222D01*
X0293410Y0332246D01*
X0293426Y0332269D01*
X0293445Y0332288D01*
X0293467Y0332305D01*
X0293491Y0332319D01*
X0293516Y0332329D01*
X0293543Y0332336D01*
X0293570Y0332339D01*
X0293598Y0332338D01*
X0293625Y0332333D01*
X0293651Y0332325D01*
X0293675Y0332313D01*
X0293698Y0332297D01*
X0293719Y0332279D01*
X0293736Y0332258D01*
X0293751Y0332234D01*
X0293762Y0332209D01*
X0293770Y0332183D01*
X0293774Y0332156D01*
X0293774Y0332128D01*
X0293770Y0332101D01*
X0293762Y0332075D01*
X0293751Y0332050D01*
X0293736Y0332026D01*
X0293719Y0332005D01*
X0293698Y0331987D01*
X0293676Y0331971D01*
X0293651Y0331959D01*
X0293625Y0331951D01*
X0293598Y0331946D01*
X0293570Y0331945D01*
X0293543Y0331948D01*
X0293516Y0331955D01*
X0293491Y0331965D01*
X0293467Y0331979D01*
X0293445Y0331996D01*
X0293426Y0332015D01*
X0293410Y0332038D01*
X0293397Y0332062D01*
X0293388Y0332088D01*
X0293382Y0332115D01*
X0293380Y0332142D01*
X0234114Y0390388D02*
X0234114Y0391092D01*
X0233409Y0391797D01*
X0231295Y0391797D01*
X0231295Y0390388D01*
X0232000Y0389683D01*
X0233409Y0389683D01*
X0234114Y0390388D01*
X0232705Y0393206D02*
X0231295Y0391797D01*
X0229764Y0392502D02*
X0229764Y0393206D01*
X0229059Y0393911D01*
X0227650Y0393911D01*
X0226945Y0393206D01*
X0225414Y0393206D02*
X0224709Y0393911D01*
X0223300Y0393911D01*
X0222595Y0393206D01*
X0222595Y0390388D01*
X0223300Y0389683D01*
X0224709Y0389683D01*
X0225414Y0390388D01*
X0226945Y0389683D02*
X0229764Y0392502D01*
X0229764Y0389683D02*
X0226945Y0389683D01*
X0232705Y0393206D02*
X0234114Y0393911D01*
X0236800Y0411183D02*
X0238209Y0411183D01*
X0238914Y0411888D01*
X0240445Y0411183D02*
X0243264Y0414002D01*
X0243264Y0414706D01*
X0242559Y0415411D01*
X0241150Y0415411D01*
X0240445Y0414706D01*
X0238914Y0414706D02*
X0238209Y0415411D01*
X0236800Y0415411D01*
X0236095Y0414706D01*
X0236095Y0411888D01*
X0236800Y0411183D01*
X0240445Y0411183D02*
X0243264Y0411183D01*
X0244795Y0411888D02*
X0245500Y0411183D01*
X0246909Y0411183D01*
X0247614Y0411888D01*
X0247614Y0413297D01*
X0246909Y0414002D01*
X0246205Y0414002D01*
X0244795Y0413297D01*
X0244795Y0415411D01*
X0247614Y0415411D01*
X0265943Y0418459D02*
X0265943Y0422687D01*
X0268057Y0422687D01*
X0268762Y0421982D01*
X0268762Y0420573D01*
X0268057Y0419868D01*
X0265943Y0419868D01*
X0270293Y0419163D02*
X0270998Y0418459D01*
X0272407Y0418459D01*
X0273112Y0419163D01*
X0273112Y0421982D01*
X0272407Y0422687D01*
X0270998Y0422687D01*
X0270293Y0421982D01*
X0270293Y0419163D01*
X0274643Y0418459D02*
X0274643Y0422687D01*
X0277462Y0422687D02*
X0277462Y0418459D01*
X0276053Y0419868D01*
X0274643Y0418459D01*
X0278994Y0418459D02*
X0278994Y0422687D01*
X0281812Y0422687D01*
X0283344Y0422687D02*
X0285458Y0422687D01*
X0286162Y0421982D01*
X0286162Y0420573D01*
X0285458Y0419868D01*
X0283344Y0419868D01*
X0284753Y0419868D02*
X0286162Y0418459D01*
X0287694Y0417754D02*
X0290513Y0417754D01*
X0292044Y0419163D02*
X0292749Y0418459D01*
X0294158Y0418459D01*
X0294863Y0419163D01*
X0294863Y0419868D01*
X0294158Y0420573D01*
X0292749Y0420573D01*
X0292044Y0421277D01*
X0292044Y0421982D01*
X0292749Y0422687D01*
X0294158Y0422687D01*
X0294863Y0421982D01*
X0296394Y0422687D02*
X0296394Y0418459D01*
X0297804Y0419868D01*
X0299213Y0418459D01*
X0299213Y0422687D01*
X0300744Y0422687D02*
X0302154Y0422687D01*
X0301449Y0422687D02*
X0301449Y0418459D01*
X0300744Y0418459D02*
X0302154Y0418459D01*
X0305054Y0418459D02*
X0305054Y0422687D01*
X0303645Y0422687D02*
X0306463Y0422687D01*
X0307995Y0421982D02*
X0307995Y0419163D01*
X0308699Y0418459D01*
X0310109Y0418459D01*
X0310813Y0419163D01*
X0312345Y0418459D02*
X0312345Y0422687D01*
X0310813Y0421982D02*
X0310109Y0422687D01*
X0308699Y0422687D01*
X0307995Y0421982D01*
X0312345Y0420573D02*
X0315164Y0420573D01*
X0315164Y0422687D02*
X0315164Y0418459D01*
X0283344Y0418459D02*
X0283344Y0422687D01*
X0280403Y0420573D02*
X0278994Y0420573D01*
X0278994Y0418459D02*
X0281812Y0418459D01*
X0237564Y0455163D02*
X0236859Y0454459D01*
X0235450Y0454459D01*
X0234745Y0455163D01*
X0234745Y0455868D01*
X0235450Y0456573D01*
X0236859Y0456573D01*
X0237564Y0455868D01*
X0237564Y0455163D01*
X0236859Y0456573D02*
X0237564Y0457277D01*
X0237564Y0457982D01*
X0236859Y0458687D01*
X0235450Y0458687D01*
X0234745Y0457982D01*
X0234745Y0457277D01*
X0235450Y0456573D01*
X0233213Y0457982D02*
X0232509Y0458687D01*
X0231099Y0458687D01*
X0230395Y0457982D01*
X0230395Y0455163D01*
X0231099Y0454459D01*
X0232509Y0454459D01*
X0233213Y0455163D01*
X0230595Y0462132D02*
X0230595Y0463215D01*
X0230595Y0462132D02*
X0229512Y0462132D01*
X0230595Y0467152D02*
X0230595Y0468234D01*
X0229512Y0468234D01*
X0231045Y0471209D02*
X0231045Y0475437D01*
X0233159Y0475437D01*
X0233863Y0474732D01*
X0233863Y0473323D01*
X0233159Y0472618D01*
X0231045Y0472618D01*
X0232454Y0472618D02*
X0233863Y0471209D01*
X0235395Y0471209D02*
X0238213Y0471209D01*
X0236804Y0471209D02*
X0236804Y0475437D01*
X0235395Y0474027D01*
X0239745Y0473323D02*
X0241154Y0474027D01*
X0241859Y0474027D01*
X0242564Y0473323D01*
X0242564Y0471913D01*
X0241859Y0471209D01*
X0240450Y0471209D01*
X0239745Y0471913D01*
X0239745Y0473323D02*
X0239745Y0475437D01*
X0242564Y0475437D01*
X0215733Y0468234D02*
X0214650Y0468234D01*
X0214650Y0467152D01*
X0214650Y0463215D02*
X0214650Y0462132D01*
X0215733Y0462132D01*
X0216609Y0432437D02*
X0214495Y0430323D01*
X0217314Y0430323D01*
X0216609Y0428209D02*
X0216609Y0432437D01*
X0212963Y0431732D02*
X0212259Y0432437D01*
X0210849Y0432437D01*
X0210145Y0431732D01*
X0208613Y0431732D02*
X0207909Y0432437D01*
X0206499Y0432437D01*
X0205795Y0431732D01*
X0205795Y0428913D01*
X0206499Y0428209D01*
X0207909Y0428209D01*
X0208613Y0428913D01*
X0210145Y0428209D02*
X0212963Y0431027D01*
X0212963Y0431732D01*
X0212963Y0428209D02*
X0210145Y0428209D01*
X0159095Y0427788D02*
X0159095Y0429198D01*
X0158390Y0429902D01*
X0156981Y0429902D01*
X0156981Y0428493D01*
X0155572Y0427084D02*
X0158390Y0427084D01*
X0159095Y0427788D01*
X0158390Y0425552D02*
X0154867Y0425552D01*
X0155572Y0427084D02*
X0154867Y0427788D01*
X0154867Y0429198D01*
X0155572Y0429902D01*
X0155572Y0431434D02*
X0154867Y0432139D01*
X0154867Y0433548D01*
X0155572Y0434253D01*
X0156981Y0434253D02*
X0156981Y0432843D01*
X0156981Y0434253D02*
X0158390Y0434253D01*
X0159095Y0433548D01*
X0159095Y0432139D01*
X0158390Y0431434D01*
X0155572Y0431434D01*
X0154867Y0435784D02*
X0154867Y0437193D01*
X0154867Y0436489D02*
X0159095Y0436489D01*
X0159095Y0437193D02*
X0159095Y0435784D01*
X0159095Y0438684D02*
X0154867Y0438684D01*
X0159095Y0441503D01*
X0154867Y0441503D01*
X0155572Y0443034D02*
X0154867Y0443739D01*
X0154867Y0445148D01*
X0155572Y0445853D01*
X0156981Y0445853D02*
X0156981Y0444444D01*
X0156981Y0445853D02*
X0158390Y0445853D01*
X0159095Y0445148D01*
X0159095Y0443739D01*
X0158390Y0443034D01*
X0155572Y0443034D01*
X0159800Y0447385D02*
X0159800Y0450203D01*
X0159095Y0451735D02*
X0154867Y0451735D01*
X0156981Y0451735D02*
X0156981Y0454553D01*
X0156981Y0456085D02*
X0156981Y0457494D01*
X0154867Y0456085D02*
X0159095Y0456085D01*
X0159095Y0458904D01*
X0159095Y0460435D02*
X0156276Y0460435D01*
X0154867Y0461844D01*
X0156276Y0463254D01*
X0159095Y0463254D01*
X0159095Y0464785D02*
X0159095Y0466899D01*
X0158390Y0467604D01*
X0155572Y0467604D01*
X0154867Y0466899D01*
X0154867Y0464785D01*
X0159095Y0464785D01*
X0156981Y0463254D02*
X0156981Y0460435D01*
X0154867Y0458904D02*
X0154867Y0456085D01*
X0154867Y0454553D02*
X0159095Y0454553D01*
X0159095Y0469135D02*
X0154867Y0469135D01*
X0154867Y0471954D01*
X0154867Y0473486D02*
X0154867Y0475600D01*
X0155572Y0476304D01*
X0156981Y0476304D01*
X0157686Y0475600D01*
X0157686Y0473486D01*
X0157686Y0474895D02*
X0159095Y0476304D01*
X0159095Y0473486D02*
X0154867Y0473486D01*
X0156981Y0470545D02*
X0156981Y0469135D01*
X0159095Y0469135D02*
X0159095Y0471954D01*
X0158390Y0425552D02*
X0159095Y0424848D01*
X0159095Y0423438D01*
X0158390Y0422734D01*
X0154867Y0422734D01*
X0155572Y0421202D02*
X0154867Y0420497D01*
X0154867Y0418383D01*
X0159095Y0418383D01*
X0159095Y0420497D01*
X0158390Y0421202D01*
X0157686Y0421202D01*
X0156981Y0420497D01*
X0156981Y0418383D01*
X0156981Y0420497D02*
X0156276Y0421202D01*
X0155572Y0421202D01*
X0154867Y0416852D02*
X0154867Y0414033D01*
X0159095Y0414033D01*
X0159095Y0416852D01*
X0156981Y0415443D02*
X0156981Y0414033D01*
X0155572Y0412502D02*
X0154867Y0411797D01*
X0154867Y0409683D01*
X0159095Y0409683D01*
X0159095Y0411797D01*
X0158390Y0412502D01*
X0155572Y0412502D01*
X0114857Y0342437D02*
X0114070Y0342437D01*
X0104621Y0342437D02*
X0103833Y0342437D01*
X0093735Y0338963D02*
X0077987Y0338963D01*
X0077987Y0315341D01*
X0093735Y0315341D01*
X0093735Y0338963D01*
X0103833Y0330429D02*
X0104621Y0330429D01*
X0114070Y0330429D02*
X0114857Y0330429D01*
X0117895Y0328982D02*
X0118599Y0329687D01*
X0120009Y0329687D01*
X0120713Y0328982D01*
X0122245Y0328982D02*
X0122245Y0328277D01*
X0122950Y0327573D01*
X0125064Y0327573D01*
X0125064Y0328982D02*
X0124359Y0329687D01*
X0122950Y0329687D01*
X0122245Y0328982D01*
X0125064Y0328982D02*
X0125064Y0326163D01*
X0124359Y0325459D01*
X0122950Y0325459D01*
X0122245Y0326163D01*
X0120713Y0326163D02*
X0120009Y0325459D01*
X0118599Y0325459D01*
X0117895Y0326163D01*
X0117895Y0328982D01*
X0117554Y0319187D02*
X0117554Y0314959D01*
X0116145Y0314959D02*
X0118963Y0314959D01*
X0120495Y0315663D02*
X0121200Y0314959D01*
X0122609Y0314959D01*
X0123314Y0315663D01*
X0123314Y0316368D01*
X0122609Y0317073D01*
X0121904Y0317073D01*
X0122609Y0317073D02*
X0123314Y0317777D01*
X0123314Y0318482D01*
X0122609Y0319187D01*
X0121200Y0319187D01*
X0120495Y0318482D01*
X0117554Y0319187D02*
X0116145Y0317777D01*
X0114613Y0317073D02*
X0113909Y0316368D01*
X0111795Y0316368D01*
X0113204Y0316368D02*
X0114613Y0314959D01*
X0114613Y0317073D02*
X0114613Y0318482D01*
X0113909Y0319187D01*
X0111795Y0319187D01*
X0111795Y0314959D01*
X0098064Y0312573D02*
X0095245Y0312573D01*
X0097359Y0314687D01*
X0097359Y0310459D01*
X0093713Y0311163D02*
X0093009Y0310459D01*
X0090895Y0310459D01*
X0090895Y0314687D01*
X0093009Y0314687D01*
X0093713Y0313982D01*
X0093713Y0311163D01*
X0128845Y0325933D02*
X0128845Y0330161D01*
X0130959Y0330161D01*
X0131664Y0329456D01*
X0131664Y0328047D01*
X0130959Y0327342D01*
X0128845Y0327342D01*
X0130254Y0327342D02*
X0131664Y0325933D01*
X0133195Y0325933D02*
X0136014Y0325933D01*
X0134605Y0325933D02*
X0134605Y0330161D01*
X0133195Y0328752D01*
X0137545Y0328047D02*
X0140364Y0328047D01*
X0139659Y0325933D02*
X0139659Y0330161D01*
X0137545Y0328047D01*
X0146867Y0327497D02*
X0147572Y0328202D01*
X0148276Y0328202D01*
X0148981Y0327497D01*
X0149686Y0328202D01*
X0150390Y0328202D01*
X0151095Y0327497D01*
X0151095Y0326088D01*
X0150390Y0325383D01*
X0151095Y0323852D02*
X0151095Y0321033D01*
X0148276Y0323852D01*
X0147572Y0323852D01*
X0146867Y0323147D01*
X0146867Y0321738D01*
X0147572Y0321033D01*
X0147572Y0319502D02*
X0146867Y0318797D01*
X0146867Y0317388D01*
X0147572Y0316683D01*
X0150390Y0316683D01*
X0151095Y0317388D01*
X0151095Y0318797D01*
X0150390Y0319502D01*
X0147572Y0325383D02*
X0146867Y0326088D01*
X0146867Y0327497D01*
X0148981Y0327497D02*
X0148981Y0326793D01*
X0168867Y0188102D02*
X0169572Y0186693D01*
X0170981Y0185283D01*
X0170981Y0187397D01*
X0171686Y0188102D01*
X0172390Y0188102D01*
X0173095Y0187397D01*
X0173095Y0185988D01*
X0172390Y0185283D01*
X0170981Y0185283D01*
X0169572Y0183752D02*
X0168867Y0183047D01*
X0168867Y0181638D01*
X0169572Y0180933D01*
X0172390Y0180933D01*
X0173095Y0181638D01*
X0173095Y0183047D01*
X0172390Y0183752D01*
X0167320Y0184447D02*
X0167320Y0183038D01*
X0166615Y0182333D01*
X0165206Y0182333D02*
X0164501Y0183742D01*
X0164501Y0184447D01*
X0165206Y0185152D01*
X0166615Y0185152D01*
X0167320Y0184447D01*
X0165206Y0182333D02*
X0163092Y0182333D01*
X0163092Y0185152D01*
X0163796Y0180801D02*
X0163092Y0180097D01*
X0163092Y0178687D01*
X0163796Y0177983D01*
X0166615Y0177983D01*
X0167320Y0178687D01*
X0167320Y0180097D01*
X0166615Y0180801D01*
X0360849Y0449959D02*
X0362259Y0449959D01*
X0362963Y0450663D01*
X0364495Y0450663D02*
X0364495Y0449959D01*
X0364495Y0450663D02*
X0367314Y0453482D01*
X0367314Y0454187D01*
X0364495Y0454187D01*
X0362963Y0453482D02*
X0362259Y0454187D01*
X0360849Y0454187D01*
X0360145Y0453482D01*
X0360145Y0450663D01*
X0360849Y0449959D01*
X0367707Y0463132D02*
X0368790Y0463132D01*
X0368790Y0464215D01*
X0368790Y0468152D02*
X0368790Y0469234D01*
X0367707Y0469234D01*
X0353928Y0469234D02*
X0352845Y0469234D01*
X0352845Y0468152D01*
X0352845Y0464215D02*
X0352845Y0463132D01*
X0353928Y0463132D01*
X0352809Y0473183D02*
X0352809Y0477411D01*
X0350695Y0475297D01*
X0353514Y0475297D01*
X0349164Y0475297D02*
X0348459Y0474592D01*
X0346345Y0474592D01*
X0346345Y0473183D02*
X0346345Y0477411D01*
X0348459Y0477411D01*
X0349164Y0476706D01*
X0349164Y0475297D01*
X0347754Y0474592D02*
X0349164Y0473183D01*
X0310864Y0478138D02*
X0310864Y0480956D01*
X0310159Y0481661D01*
X0308750Y0481661D01*
X0308045Y0480956D01*
X0308045Y0480252D01*
X0308750Y0479547D01*
X0310864Y0479547D01*
X0310864Y0478138D02*
X0310159Y0477433D01*
X0308750Y0477433D01*
X0308045Y0478138D01*
X0306514Y0477433D02*
X0303695Y0477433D01*
X0305105Y0477433D02*
X0305105Y0481661D01*
X0303695Y0480252D01*
X0302164Y0480956D02*
X0301459Y0481661D01*
X0300050Y0481661D01*
X0299345Y0480956D01*
X0299345Y0478138D01*
X0300050Y0477433D01*
X0301459Y0477433D01*
X0302164Y0478138D01*
X0302140Y0487183D02*
X0302845Y0487888D01*
X0302845Y0489297D01*
X0302140Y0490002D01*
X0302845Y0491533D02*
X0302845Y0494352D01*
X0302845Y0492943D02*
X0298617Y0492943D01*
X0300026Y0491533D01*
X0299322Y0490002D02*
X0298617Y0489297D01*
X0298617Y0487888D01*
X0299322Y0487183D01*
X0302140Y0487183D01*
X0302845Y0495883D02*
X0300026Y0498702D01*
X0299322Y0498702D01*
X0298617Y0497997D01*
X0298617Y0496588D01*
X0299322Y0495883D01*
X0302845Y0495883D02*
X0302845Y0498702D01*
X0303070Y0502133D02*
X0298842Y0502133D01*
X0298842Y0504247D01*
X0299546Y0504951D01*
X0300956Y0504951D01*
X0301660Y0504247D01*
X0301660Y0502133D01*
X0301660Y0503542D02*
X0303070Y0504951D01*
X0303070Y0506483D02*
X0303070Y0509301D01*
X0303070Y0507892D02*
X0298842Y0507892D01*
X0300251Y0506483D01*
X0299546Y0510833D02*
X0298842Y0511538D01*
X0298842Y0512947D01*
X0299546Y0513652D01*
X0302365Y0510833D01*
X0303070Y0511538D01*
X0303070Y0512947D01*
X0302365Y0513652D01*
X0299546Y0513652D01*
X0299546Y0510833D02*
X0302365Y0510833D01*
X0304591Y0515921D02*
X0304591Y0516709D01*
X0304591Y0526157D02*
X0304591Y0526945D01*
X0316599Y0526945D02*
X0316599Y0526157D01*
X0316599Y0516709D02*
X0316599Y0515921D01*
X0313125Y0540793D02*
X0313125Y0556541D01*
X0289503Y0556541D01*
X0289503Y0540793D01*
X0313125Y0540793D01*
X0291264Y0536706D02*
X0290559Y0537411D01*
X0289150Y0537411D01*
X0288445Y0536706D01*
X0286914Y0536706D02*
X0286209Y0537411D01*
X0284095Y0537411D01*
X0284095Y0533183D01*
X0286209Y0533183D01*
X0286914Y0533888D01*
X0286914Y0536706D01*
X0288445Y0533183D02*
X0291264Y0536002D01*
X0291264Y0536706D01*
X0291264Y0533183D02*
X0288445Y0533183D01*
X0287890Y0508602D02*
X0285072Y0508602D01*
X0284367Y0507897D01*
X0284367Y0506488D01*
X0285072Y0505783D01*
X0285776Y0505783D01*
X0286481Y0506488D01*
X0286481Y0508602D01*
X0287890Y0508602D02*
X0288595Y0507897D01*
X0288595Y0506488D01*
X0287890Y0505783D01*
X0288595Y0504252D02*
X0287186Y0502842D01*
X0287186Y0503547D02*
X0287186Y0501433D01*
X0288595Y0501433D02*
X0284367Y0501433D01*
X0284367Y0503547D01*
X0285072Y0504252D01*
X0286481Y0504252D01*
X0287186Y0503547D01*
X0434173Y0449766D02*
X0434173Y0448264D01*
X0434923Y0447514D01*
X0434923Y0445912D02*
X0436425Y0445912D01*
X0437175Y0445162D01*
X0437175Y0442910D01*
X0438677Y0442910D02*
X0434173Y0442910D01*
X0434173Y0445162D01*
X0434923Y0445912D01*
X0434173Y0449766D02*
X0434923Y0450516D01*
X0435674Y0450516D01*
X0438677Y0447514D01*
X0438677Y0450516D01*
X0437926Y0440558D02*
X0434173Y0440558D01*
X0434173Y0441308D02*
X0434173Y0439807D01*
X0437926Y0440558D02*
X0438677Y0439807D01*
X0438677Y0439057D01*
X0437926Y0438306D01*
X0437140Y0418202D02*
X0437845Y0417497D01*
X0437845Y0416088D01*
X0437140Y0415383D01*
X0437845Y0413852D02*
X0437845Y0411033D01*
X0437845Y0412443D02*
X0433617Y0412443D01*
X0435026Y0411033D01*
X0434322Y0409502D02*
X0433617Y0408797D01*
X0433617Y0407388D01*
X0434322Y0406683D01*
X0437140Y0406683D01*
X0437845Y0407388D01*
X0437845Y0408797D01*
X0437140Y0409502D01*
X0434322Y0415383D02*
X0433617Y0416088D01*
X0433617Y0417497D01*
X0434322Y0418202D01*
X0435026Y0418202D01*
X0435731Y0417497D01*
X0436436Y0418202D01*
X0437140Y0418202D01*
X0435731Y0417497D02*
X0435731Y0416793D01*
X0436160Y0402152D02*
X0435456Y0401447D01*
X0435456Y0399333D01*
X0436865Y0399333D01*
X0437570Y0400038D01*
X0437570Y0401447D01*
X0436865Y0402152D01*
X0436160Y0402152D01*
X0434046Y0400742D02*
X0435456Y0399333D01*
X0434046Y0400742D02*
X0433342Y0402152D01*
X0433342Y0396392D02*
X0437570Y0396392D01*
X0437570Y0394983D02*
X0437570Y0397801D01*
X0434751Y0394983D02*
X0433342Y0396392D01*
X0434046Y0393451D02*
X0435456Y0393451D01*
X0436160Y0392747D01*
X0436160Y0390633D01*
X0436160Y0392042D02*
X0437570Y0393451D01*
X0437570Y0390633D02*
X0433342Y0390633D01*
X0433342Y0392747D01*
X0434046Y0393451D01*
D13*
X0318026Y0378874D02*
X0318028Y0378979D01*
X0318034Y0379084D01*
X0318044Y0379188D01*
X0318058Y0379292D01*
X0318076Y0379396D01*
X0318098Y0379498D01*
X0318123Y0379600D01*
X0318153Y0379701D01*
X0318186Y0379800D01*
X0318223Y0379898D01*
X0318264Y0379995D01*
X0318309Y0380090D01*
X0318357Y0380183D01*
X0318408Y0380275D01*
X0318464Y0380364D01*
X0318522Y0380451D01*
X0318584Y0380536D01*
X0318648Y0380619D01*
X0318716Y0380699D01*
X0318787Y0380776D01*
X0318861Y0380850D01*
X0318938Y0380922D01*
X0319017Y0380991D01*
X0319099Y0381056D01*
X0319183Y0381119D01*
X0319270Y0381178D01*
X0319359Y0381234D01*
X0319450Y0381287D01*
X0319543Y0381336D01*
X0319637Y0381381D01*
X0319733Y0381423D01*
X0319831Y0381461D01*
X0319930Y0381495D01*
X0320031Y0381526D01*
X0320132Y0381552D01*
X0320235Y0381575D01*
X0320338Y0381594D01*
X0320442Y0381609D01*
X0320546Y0381620D01*
X0320651Y0381627D01*
X0320756Y0381630D01*
X0320861Y0381629D01*
X0320966Y0381624D01*
X0321070Y0381615D01*
X0321174Y0381602D01*
X0321278Y0381585D01*
X0321381Y0381564D01*
X0321483Y0381539D01*
X0321584Y0381511D01*
X0321683Y0381478D01*
X0321782Y0381442D01*
X0321879Y0381402D01*
X0321974Y0381359D01*
X0322068Y0381311D01*
X0322160Y0381261D01*
X0322250Y0381207D01*
X0322338Y0381149D01*
X0322423Y0381088D01*
X0322506Y0381024D01*
X0322587Y0380957D01*
X0322665Y0380887D01*
X0322740Y0380813D01*
X0322812Y0380738D01*
X0322882Y0380659D01*
X0322948Y0380578D01*
X0323012Y0380494D01*
X0323072Y0380408D01*
X0323128Y0380320D01*
X0323182Y0380229D01*
X0323232Y0380137D01*
X0323278Y0380043D01*
X0323321Y0379947D01*
X0323360Y0379849D01*
X0323395Y0379751D01*
X0323426Y0379650D01*
X0323454Y0379549D01*
X0323478Y0379447D01*
X0323498Y0379344D01*
X0323514Y0379240D01*
X0323526Y0379136D01*
X0323534Y0379031D01*
X0323538Y0378926D01*
X0323538Y0378822D01*
X0323534Y0378717D01*
X0323526Y0378612D01*
X0323514Y0378508D01*
X0323498Y0378404D01*
X0323478Y0378301D01*
X0323454Y0378199D01*
X0323426Y0378098D01*
X0323395Y0377997D01*
X0323360Y0377899D01*
X0323321Y0377801D01*
X0323278Y0377705D01*
X0323232Y0377611D01*
X0323182Y0377519D01*
X0323128Y0377428D01*
X0323072Y0377340D01*
X0323012Y0377254D01*
X0322948Y0377170D01*
X0322882Y0377089D01*
X0322812Y0377010D01*
X0322740Y0376935D01*
X0322665Y0376861D01*
X0322587Y0376791D01*
X0322506Y0376724D01*
X0322423Y0376660D01*
X0322338Y0376599D01*
X0322250Y0376541D01*
X0322160Y0376487D01*
X0322068Y0376437D01*
X0321974Y0376389D01*
X0321879Y0376346D01*
X0321782Y0376306D01*
X0321683Y0376270D01*
X0321584Y0376237D01*
X0321483Y0376209D01*
X0321381Y0376184D01*
X0321278Y0376163D01*
X0321174Y0376146D01*
X0321070Y0376133D01*
X0320966Y0376124D01*
X0320861Y0376119D01*
X0320756Y0376118D01*
X0320651Y0376121D01*
X0320546Y0376128D01*
X0320442Y0376139D01*
X0320338Y0376154D01*
X0320235Y0376173D01*
X0320132Y0376196D01*
X0320031Y0376222D01*
X0319930Y0376253D01*
X0319831Y0376287D01*
X0319733Y0376325D01*
X0319637Y0376367D01*
X0319543Y0376412D01*
X0319450Y0376461D01*
X0319359Y0376514D01*
X0319270Y0376570D01*
X0319183Y0376629D01*
X0319099Y0376692D01*
X0319017Y0376757D01*
X0318938Y0376826D01*
X0318861Y0376898D01*
X0318787Y0376972D01*
X0318716Y0377049D01*
X0318648Y0377129D01*
X0318584Y0377212D01*
X0318522Y0377297D01*
X0318464Y0377384D01*
X0318408Y0377473D01*
X0318357Y0377565D01*
X0318309Y0377658D01*
X0318264Y0377753D01*
X0318223Y0377850D01*
X0318186Y0377948D01*
X0318153Y0378047D01*
X0318123Y0378148D01*
X0318098Y0378250D01*
X0318076Y0378352D01*
X0318058Y0378456D01*
X0318044Y0378560D01*
X0318034Y0378664D01*
X0318028Y0378769D01*
X0318026Y0378874D01*
X0260152Y0378874D02*
X0260154Y0378979D01*
X0260160Y0379084D01*
X0260170Y0379188D01*
X0260184Y0379292D01*
X0260202Y0379396D01*
X0260224Y0379498D01*
X0260249Y0379600D01*
X0260279Y0379701D01*
X0260312Y0379800D01*
X0260349Y0379898D01*
X0260390Y0379995D01*
X0260435Y0380090D01*
X0260483Y0380183D01*
X0260534Y0380275D01*
X0260590Y0380364D01*
X0260648Y0380451D01*
X0260710Y0380536D01*
X0260774Y0380619D01*
X0260842Y0380699D01*
X0260913Y0380776D01*
X0260987Y0380850D01*
X0261064Y0380922D01*
X0261143Y0380991D01*
X0261225Y0381056D01*
X0261309Y0381119D01*
X0261396Y0381178D01*
X0261485Y0381234D01*
X0261576Y0381287D01*
X0261669Y0381336D01*
X0261763Y0381381D01*
X0261859Y0381423D01*
X0261957Y0381461D01*
X0262056Y0381495D01*
X0262157Y0381526D01*
X0262258Y0381552D01*
X0262361Y0381575D01*
X0262464Y0381594D01*
X0262568Y0381609D01*
X0262672Y0381620D01*
X0262777Y0381627D01*
X0262882Y0381630D01*
X0262987Y0381629D01*
X0263092Y0381624D01*
X0263196Y0381615D01*
X0263300Y0381602D01*
X0263404Y0381585D01*
X0263507Y0381564D01*
X0263609Y0381539D01*
X0263710Y0381511D01*
X0263809Y0381478D01*
X0263908Y0381442D01*
X0264005Y0381402D01*
X0264100Y0381359D01*
X0264194Y0381311D01*
X0264286Y0381261D01*
X0264376Y0381207D01*
X0264464Y0381149D01*
X0264549Y0381088D01*
X0264632Y0381024D01*
X0264713Y0380957D01*
X0264791Y0380887D01*
X0264866Y0380813D01*
X0264938Y0380738D01*
X0265008Y0380659D01*
X0265074Y0380578D01*
X0265138Y0380494D01*
X0265198Y0380408D01*
X0265254Y0380320D01*
X0265308Y0380229D01*
X0265358Y0380137D01*
X0265404Y0380043D01*
X0265447Y0379947D01*
X0265486Y0379849D01*
X0265521Y0379751D01*
X0265552Y0379650D01*
X0265580Y0379549D01*
X0265604Y0379447D01*
X0265624Y0379344D01*
X0265640Y0379240D01*
X0265652Y0379136D01*
X0265660Y0379031D01*
X0265664Y0378926D01*
X0265664Y0378822D01*
X0265660Y0378717D01*
X0265652Y0378612D01*
X0265640Y0378508D01*
X0265624Y0378404D01*
X0265604Y0378301D01*
X0265580Y0378199D01*
X0265552Y0378098D01*
X0265521Y0377997D01*
X0265486Y0377899D01*
X0265447Y0377801D01*
X0265404Y0377705D01*
X0265358Y0377611D01*
X0265308Y0377519D01*
X0265254Y0377428D01*
X0265198Y0377340D01*
X0265138Y0377254D01*
X0265074Y0377170D01*
X0265008Y0377089D01*
X0264938Y0377010D01*
X0264866Y0376935D01*
X0264791Y0376861D01*
X0264713Y0376791D01*
X0264632Y0376724D01*
X0264549Y0376660D01*
X0264464Y0376599D01*
X0264376Y0376541D01*
X0264286Y0376487D01*
X0264194Y0376437D01*
X0264100Y0376389D01*
X0264005Y0376346D01*
X0263908Y0376306D01*
X0263809Y0376270D01*
X0263710Y0376237D01*
X0263609Y0376209D01*
X0263507Y0376184D01*
X0263404Y0376163D01*
X0263300Y0376146D01*
X0263196Y0376133D01*
X0263092Y0376124D01*
X0262987Y0376119D01*
X0262882Y0376118D01*
X0262777Y0376121D01*
X0262672Y0376128D01*
X0262568Y0376139D01*
X0262464Y0376154D01*
X0262361Y0376173D01*
X0262258Y0376196D01*
X0262157Y0376222D01*
X0262056Y0376253D01*
X0261957Y0376287D01*
X0261859Y0376325D01*
X0261763Y0376367D01*
X0261669Y0376412D01*
X0261576Y0376461D01*
X0261485Y0376514D01*
X0261396Y0376570D01*
X0261309Y0376629D01*
X0261225Y0376692D01*
X0261143Y0376757D01*
X0261064Y0376826D01*
X0260987Y0376898D01*
X0260913Y0376972D01*
X0260842Y0377049D01*
X0260774Y0377129D01*
X0260710Y0377212D01*
X0260648Y0377297D01*
X0260590Y0377384D01*
X0260534Y0377473D01*
X0260483Y0377565D01*
X0260435Y0377658D01*
X0260390Y0377753D01*
X0260349Y0377850D01*
X0260312Y0377948D01*
X0260279Y0378047D01*
X0260249Y0378148D01*
X0260224Y0378250D01*
X0260202Y0378352D01*
X0260184Y0378456D01*
X0260170Y0378560D01*
X0260160Y0378664D01*
X0260154Y0378769D01*
X0260152Y0378874D01*
X0260152Y0283992D02*
X0260154Y0284097D01*
X0260160Y0284202D01*
X0260170Y0284306D01*
X0260184Y0284410D01*
X0260202Y0284514D01*
X0260224Y0284616D01*
X0260249Y0284718D01*
X0260279Y0284819D01*
X0260312Y0284918D01*
X0260349Y0285016D01*
X0260390Y0285113D01*
X0260435Y0285208D01*
X0260483Y0285301D01*
X0260534Y0285393D01*
X0260590Y0285482D01*
X0260648Y0285569D01*
X0260710Y0285654D01*
X0260774Y0285737D01*
X0260842Y0285817D01*
X0260913Y0285894D01*
X0260987Y0285968D01*
X0261064Y0286040D01*
X0261143Y0286109D01*
X0261225Y0286174D01*
X0261309Y0286237D01*
X0261396Y0286296D01*
X0261485Y0286352D01*
X0261576Y0286405D01*
X0261669Y0286454D01*
X0261763Y0286499D01*
X0261859Y0286541D01*
X0261957Y0286579D01*
X0262056Y0286613D01*
X0262157Y0286644D01*
X0262258Y0286670D01*
X0262361Y0286693D01*
X0262464Y0286712D01*
X0262568Y0286727D01*
X0262672Y0286738D01*
X0262777Y0286745D01*
X0262882Y0286748D01*
X0262987Y0286747D01*
X0263092Y0286742D01*
X0263196Y0286733D01*
X0263300Y0286720D01*
X0263404Y0286703D01*
X0263507Y0286682D01*
X0263609Y0286657D01*
X0263710Y0286629D01*
X0263809Y0286596D01*
X0263908Y0286560D01*
X0264005Y0286520D01*
X0264100Y0286477D01*
X0264194Y0286429D01*
X0264286Y0286379D01*
X0264376Y0286325D01*
X0264464Y0286267D01*
X0264549Y0286206D01*
X0264632Y0286142D01*
X0264713Y0286075D01*
X0264791Y0286005D01*
X0264866Y0285931D01*
X0264938Y0285856D01*
X0265008Y0285777D01*
X0265074Y0285696D01*
X0265138Y0285612D01*
X0265198Y0285526D01*
X0265254Y0285438D01*
X0265308Y0285347D01*
X0265358Y0285255D01*
X0265404Y0285161D01*
X0265447Y0285065D01*
X0265486Y0284967D01*
X0265521Y0284869D01*
X0265552Y0284768D01*
X0265580Y0284667D01*
X0265604Y0284565D01*
X0265624Y0284462D01*
X0265640Y0284358D01*
X0265652Y0284254D01*
X0265660Y0284149D01*
X0265664Y0284044D01*
X0265664Y0283940D01*
X0265660Y0283835D01*
X0265652Y0283730D01*
X0265640Y0283626D01*
X0265624Y0283522D01*
X0265604Y0283419D01*
X0265580Y0283317D01*
X0265552Y0283216D01*
X0265521Y0283115D01*
X0265486Y0283017D01*
X0265447Y0282919D01*
X0265404Y0282823D01*
X0265358Y0282729D01*
X0265308Y0282637D01*
X0265254Y0282546D01*
X0265198Y0282458D01*
X0265138Y0282372D01*
X0265074Y0282288D01*
X0265008Y0282207D01*
X0264938Y0282128D01*
X0264866Y0282053D01*
X0264791Y0281979D01*
X0264713Y0281909D01*
X0264632Y0281842D01*
X0264549Y0281778D01*
X0264464Y0281717D01*
X0264376Y0281659D01*
X0264286Y0281605D01*
X0264194Y0281555D01*
X0264100Y0281507D01*
X0264005Y0281464D01*
X0263908Y0281424D01*
X0263809Y0281388D01*
X0263710Y0281355D01*
X0263609Y0281327D01*
X0263507Y0281302D01*
X0263404Y0281281D01*
X0263300Y0281264D01*
X0263196Y0281251D01*
X0263092Y0281242D01*
X0262987Y0281237D01*
X0262882Y0281236D01*
X0262777Y0281239D01*
X0262672Y0281246D01*
X0262568Y0281257D01*
X0262464Y0281272D01*
X0262361Y0281291D01*
X0262258Y0281314D01*
X0262157Y0281340D01*
X0262056Y0281371D01*
X0261957Y0281405D01*
X0261859Y0281443D01*
X0261763Y0281485D01*
X0261669Y0281530D01*
X0261576Y0281579D01*
X0261485Y0281632D01*
X0261396Y0281688D01*
X0261309Y0281747D01*
X0261225Y0281810D01*
X0261143Y0281875D01*
X0261064Y0281944D01*
X0260987Y0282016D01*
X0260913Y0282090D01*
X0260842Y0282167D01*
X0260774Y0282247D01*
X0260710Y0282330D01*
X0260648Y0282415D01*
X0260590Y0282502D01*
X0260534Y0282591D01*
X0260483Y0282683D01*
X0260435Y0282776D01*
X0260390Y0282871D01*
X0260349Y0282968D01*
X0260312Y0283066D01*
X0260279Y0283165D01*
X0260249Y0283266D01*
X0260224Y0283368D01*
X0260202Y0283470D01*
X0260184Y0283574D01*
X0260170Y0283678D01*
X0260160Y0283782D01*
X0260154Y0283887D01*
X0260152Y0283992D01*
X0318026Y0283992D02*
X0318028Y0284097D01*
X0318034Y0284202D01*
X0318044Y0284306D01*
X0318058Y0284410D01*
X0318076Y0284514D01*
X0318098Y0284616D01*
X0318123Y0284718D01*
X0318153Y0284819D01*
X0318186Y0284918D01*
X0318223Y0285016D01*
X0318264Y0285113D01*
X0318309Y0285208D01*
X0318357Y0285301D01*
X0318408Y0285393D01*
X0318464Y0285482D01*
X0318522Y0285569D01*
X0318584Y0285654D01*
X0318648Y0285737D01*
X0318716Y0285817D01*
X0318787Y0285894D01*
X0318861Y0285968D01*
X0318938Y0286040D01*
X0319017Y0286109D01*
X0319099Y0286174D01*
X0319183Y0286237D01*
X0319270Y0286296D01*
X0319359Y0286352D01*
X0319450Y0286405D01*
X0319543Y0286454D01*
X0319637Y0286499D01*
X0319733Y0286541D01*
X0319831Y0286579D01*
X0319930Y0286613D01*
X0320031Y0286644D01*
X0320132Y0286670D01*
X0320235Y0286693D01*
X0320338Y0286712D01*
X0320442Y0286727D01*
X0320546Y0286738D01*
X0320651Y0286745D01*
X0320756Y0286748D01*
X0320861Y0286747D01*
X0320966Y0286742D01*
X0321070Y0286733D01*
X0321174Y0286720D01*
X0321278Y0286703D01*
X0321381Y0286682D01*
X0321483Y0286657D01*
X0321584Y0286629D01*
X0321683Y0286596D01*
X0321782Y0286560D01*
X0321879Y0286520D01*
X0321974Y0286477D01*
X0322068Y0286429D01*
X0322160Y0286379D01*
X0322250Y0286325D01*
X0322338Y0286267D01*
X0322423Y0286206D01*
X0322506Y0286142D01*
X0322587Y0286075D01*
X0322665Y0286005D01*
X0322740Y0285931D01*
X0322812Y0285856D01*
X0322882Y0285777D01*
X0322948Y0285696D01*
X0323012Y0285612D01*
X0323072Y0285526D01*
X0323128Y0285438D01*
X0323182Y0285347D01*
X0323232Y0285255D01*
X0323278Y0285161D01*
X0323321Y0285065D01*
X0323360Y0284967D01*
X0323395Y0284869D01*
X0323426Y0284768D01*
X0323454Y0284667D01*
X0323478Y0284565D01*
X0323498Y0284462D01*
X0323514Y0284358D01*
X0323526Y0284254D01*
X0323534Y0284149D01*
X0323538Y0284044D01*
X0323538Y0283940D01*
X0323534Y0283835D01*
X0323526Y0283730D01*
X0323514Y0283626D01*
X0323498Y0283522D01*
X0323478Y0283419D01*
X0323454Y0283317D01*
X0323426Y0283216D01*
X0323395Y0283115D01*
X0323360Y0283017D01*
X0323321Y0282919D01*
X0323278Y0282823D01*
X0323232Y0282729D01*
X0323182Y0282637D01*
X0323128Y0282546D01*
X0323072Y0282458D01*
X0323012Y0282372D01*
X0322948Y0282288D01*
X0322882Y0282207D01*
X0322812Y0282128D01*
X0322740Y0282053D01*
X0322665Y0281979D01*
X0322587Y0281909D01*
X0322506Y0281842D01*
X0322423Y0281778D01*
X0322338Y0281717D01*
X0322250Y0281659D01*
X0322160Y0281605D01*
X0322068Y0281555D01*
X0321974Y0281507D01*
X0321879Y0281464D01*
X0321782Y0281424D01*
X0321683Y0281388D01*
X0321584Y0281355D01*
X0321483Y0281327D01*
X0321381Y0281302D01*
X0321278Y0281281D01*
X0321174Y0281264D01*
X0321070Y0281251D01*
X0320966Y0281242D01*
X0320861Y0281237D01*
X0320756Y0281236D01*
X0320651Y0281239D01*
X0320546Y0281246D01*
X0320442Y0281257D01*
X0320338Y0281272D01*
X0320235Y0281291D01*
X0320132Y0281314D01*
X0320031Y0281340D01*
X0319930Y0281371D01*
X0319831Y0281405D01*
X0319733Y0281443D01*
X0319637Y0281485D01*
X0319543Y0281530D01*
X0319450Y0281579D01*
X0319359Y0281632D01*
X0319270Y0281688D01*
X0319183Y0281747D01*
X0319099Y0281810D01*
X0319017Y0281875D01*
X0318938Y0281944D01*
X0318861Y0282016D01*
X0318787Y0282090D01*
X0318716Y0282167D01*
X0318648Y0282247D01*
X0318584Y0282330D01*
X0318522Y0282415D01*
X0318464Y0282502D01*
X0318408Y0282591D01*
X0318357Y0282683D01*
X0318309Y0282776D01*
X0318264Y0282871D01*
X0318223Y0282968D01*
X0318186Y0283066D01*
X0318153Y0283165D01*
X0318123Y0283266D01*
X0318098Y0283368D01*
X0318076Y0283470D01*
X0318058Y0283574D01*
X0318044Y0283678D01*
X0318034Y0283782D01*
X0318028Y0283887D01*
X0318026Y0283992D01*
D14*
X0286532Y0316008D02*
X0278658Y0316008D01*
X0278658Y0322858D02*
X0286532Y0322858D01*
X0283532Y0324008D02*
X0275658Y0324008D01*
X0275658Y0330858D02*
X0283532Y0330858D01*
X0286532Y0331929D02*
X0278658Y0331929D01*
X0278658Y0338937D02*
X0286532Y0338937D01*
X0290408Y0339929D02*
X0298282Y0339929D01*
X0298282Y0346937D02*
X0290408Y0346937D01*
X0288782Y0347929D02*
X0280908Y0347929D01*
X0280908Y0354937D02*
X0288782Y0354937D01*
X0294658Y0354937D02*
X0302532Y0354937D01*
X0302532Y0347929D02*
X0294658Y0347929D01*
X0305408Y0346437D02*
X0313282Y0346437D01*
X0313282Y0339429D02*
X0305408Y0339429D01*
X0340798Y0338636D02*
X0340798Y0362730D01*
X0364892Y0362730D01*
X0364892Y0346667D01*
X0356861Y0338636D02*
X0340798Y0338636D01*
X0313512Y0405933D02*
X0296845Y0405933D01*
X0296845Y0415933D01*
X0316845Y0415933D01*
X0316845Y0409267D01*
X0316465Y0457378D02*
X0284438Y0457378D01*
X0284438Y0475488D01*
X0316465Y0475488D01*
X0314532Y0492929D02*
X0306658Y0492929D01*
X0306658Y0499937D02*
X0314532Y0499937D01*
X0314532Y0501758D02*
X0306658Y0501758D01*
X0306658Y0508608D02*
X0314532Y0508608D01*
X0296520Y0504120D02*
X0296520Y0496246D01*
X0289670Y0496246D02*
X0289670Y0504120D01*
X0289552Y0517368D02*
X0289552Y0532407D01*
X0296638Y0532407D01*
X0296638Y0517368D01*
X0356908Y0476858D02*
X0364782Y0476858D01*
X0364782Y0470008D02*
X0356908Y0470008D01*
X0356658Y0462687D02*
X0364532Y0462687D01*
X0364532Y0455679D02*
X0356658Y0455679D01*
X0441408Y0412687D02*
X0449282Y0412687D01*
X0449282Y0405679D02*
X0441408Y0405679D01*
X0441158Y0404608D02*
X0449032Y0404608D01*
X0449032Y0397758D02*
X0441158Y0397758D01*
X0432790Y0341591D02*
X0450900Y0341591D01*
X0450900Y0309563D01*
X0467091Y0312496D02*
X0467091Y0320370D01*
X0472908Y0324258D02*
X0480782Y0324258D01*
X0482770Y0320370D02*
X0482770Y0312496D01*
X0475920Y0312496D02*
X0475920Y0320370D01*
X0474099Y0320370D02*
X0474099Y0312496D01*
X0472908Y0331108D02*
X0480782Y0331108D01*
X0491530Y0333726D02*
X0506570Y0333726D01*
X0506570Y0326640D01*
X0491530Y0326640D01*
X0432790Y0341591D02*
X0432790Y0309563D01*
X0319753Y0188238D02*
X0319753Y0170128D01*
X0287725Y0170128D01*
X0289158Y0159937D02*
X0297032Y0159937D01*
X0297032Y0152929D02*
X0289158Y0152929D01*
X0289158Y0151108D02*
X0297032Y0151108D01*
X0297032Y0144258D02*
X0289158Y0144258D01*
X0307052Y0139907D02*
X0314138Y0139907D01*
X0314138Y0124868D01*
X0307052Y0124868D02*
X0307052Y0139907D01*
X0307170Y0148746D02*
X0307170Y0156620D01*
X0314020Y0156620D02*
X0314020Y0148746D01*
X0319753Y0188238D02*
X0287725Y0188238D01*
X0235782Y0184929D02*
X0227908Y0184929D01*
X0227908Y0191937D02*
X0235782Y0191937D01*
X0196599Y0200996D02*
X0196599Y0208870D01*
X0189591Y0208870D02*
X0189591Y0200996D01*
X0188599Y0198996D02*
X0188599Y0206870D01*
X0181591Y0206870D02*
X0181591Y0198996D01*
X0220158Y0244179D02*
X0228032Y0244179D01*
X0228032Y0251187D02*
X0220158Y0251187D01*
X0232658Y0262679D02*
X0240532Y0262679D01*
X0247158Y0262679D02*
X0255032Y0262679D01*
X0255032Y0269687D02*
X0247158Y0269687D01*
X0240532Y0269687D02*
X0232658Y0269687D01*
X0170900Y0310026D02*
X0152790Y0310026D01*
X0152790Y0342053D01*
X0139020Y0340370D02*
X0139020Y0332496D01*
X0132170Y0332496D02*
X0132170Y0340370D01*
X0130349Y0340370D02*
X0130349Y0332496D01*
X0123341Y0332496D02*
X0123341Y0340370D01*
X0126658Y0324858D02*
X0134532Y0324858D01*
X0134532Y0318008D02*
X0126658Y0318008D01*
X0106638Y0324248D02*
X0106638Y0309209D01*
X0099552Y0309209D01*
X0099552Y0324248D01*
X0161845Y0369767D02*
X0161845Y0466433D01*
X0171845Y0466433D01*
X0171845Y0366433D01*
X0165179Y0366433D01*
X0170900Y0342053D02*
X0170900Y0310026D01*
X0220908Y0394929D02*
X0228782Y0394929D01*
X0233841Y0398996D02*
X0233841Y0406870D01*
X0240849Y0406870D02*
X0240849Y0398996D01*
X0228782Y0401937D02*
X0220908Y0401937D01*
X0221158Y0423679D02*
X0229032Y0423679D01*
X0229032Y0430687D02*
X0221158Y0430687D01*
X0218658Y0454679D02*
X0226532Y0454679D01*
X0226532Y0461687D02*
X0218658Y0461687D01*
X0219658Y0469508D02*
X0227532Y0469508D01*
X0227532Y0476358D02*
X0219658Y0476358D01*
D15*
X0212977Y0465577D02*
X0212979Y0465616D01*
X0212985Y0465655D01*
X0212995Y0465693D01*
X0213008Y0465730D01*
X0213025Y0465765D01*
X0213045Y0465799D01*
X0213069Y0465830D01*
X0213096Y0465859D01*
X0213125Y0465885D01*
X0213157Y0465908D01*
X0213191Y0465928D01*
X0213227Y0465944D01*
X0213264Y0465956D01*
X0213303Y0465965D01*
X0213342Y0465970D01*
X0213381Y0465971D01*
X0213420Y0465968D01*
X0213459Y0465961D01*
X0213496Y0465950D01*
X0213533Y0465936D01*
X0213568Y0465918D01*
X0213601Y0465897D01*
X0213632Y0465872D01*
X0213660Y0465845D01*
X0213685Y0465815D01*
X0213707Y0465782D01*
X0213726Y0465748D01*
X0213741Y0465712D01*
X0213753Y0465674D01*
X0213761Y0465636D01*
X0213765Y0465597D01*
X0213765Y0465557D01*
X0213761Y0465518D01*
X0213753Y0465480D01*
X0213741Y0465442D01*
X0213726Y0465406D01*
X0213707Y0465372D01*
X0213685Y0465339D01*
X0213660Y0465309D01*
X0213632Y0465282D01*
X0213601Y0465257D01*
X0213568Y0465236D01*
X0213533Y0465218D01*
X0213496Y0465204D01*
X0213459Y0465193D01*
X0213420Y0465186D01*
X0213381Y0465183D01*
X0213342Y0465184D01*
X0213303Y0465189D01*
X0213264Y0465198D01*
X0213227Y0465210D01*
X0213191Y0465226D01*
X0213157Y0465246D01*
X0213125Y0465269D01*
X0213096Y0465295D01*
X0213069Y0465324D01*
X0213045Y0465355D01*
X0213025Y0465389D01*
X0213008Y0465424D01*
X0212995Y0465461D01*
X0212985Y0465499D01*
X0212979Y0465538D01*
X0212977Y0465577D01*
X0282784Y0466433D02*
X0282786Y0466472D01*
X0282792Y0466511D01*
X0282802Y0466549D01*
X0282815Y0466586D01*
X0282832Y0466621D01*
X0282852Y0466655D01*
X0282876Y0466686D01*
X0282903Y0466715D01*
X0282932Y0466741D01*
X0282964Y0466764D01*
X0282998Y0466784D01*
X0283034Y0466800D01*
X0283071Y0466812D01*
X0283110Y0466821D01*
X0283149Y0466826D01*
X0283188Y0466827D01*
X0283227Y0466824D01*
X0283266Y0466817D01*
X0283303Y0466806D01*
X0283340Y0466792D01*
X0283375Y0466774D01*
X0283408Y0466753D01*
X0283439Y0466728D01*
X0283467Y0466701D01*
X0283492Y0466671D01*
X0283514Y0466638D01*
X0283533Y0466604D01*
X0283548Y0466568D01*
X0283560Y0466530D01*
X0283568Y0466492D01*
X0283572Y0466453D01*
X0283572Y0466413D01*
X0283568Y0466374D01*
X0283560Y0466336D01*
X0283548Y0466298D01*
X0283533Y0466262D01*
X0283514Y0466228D01*
X0283492Y0466195D01*
X0283467Y0466165D01*
X0283439Y0466138D01*
X0283408Y0466113D01*
X0283375Y0466092D01*
X0283340Y0466074D01*
X0283303Y0466060D01*
X0283266Y0466049D01*
X0283227Y0466042D01*
X0283188Y0466039D01*
X0283149Y0466040D01*
X0283110Y0466045D01*
X0283071Y0466054D01*
X0283034Y0466066D01*
X0282998Y0466082D01*
X0282964Y0466102D01*
X0282932Y0466125D01*
X0282903Y0466151D01*
X0282876Y0466180D01*
X0282852Y0466211D01*
X0282832Y0466245D01*
X0282815Y0466280D01*
X0282802Y0466317D01*
X0282792Y0466355D01*
X0282786Y0466394D01*
X0282784Y0466433D01*
X0292701Y0533667D02*
X0292703Y0533706D01*
X0292709Y0533745D01*
X0292719Y0533783D01*
X0292732Y0533820D01*
X0292749Y0533855D01*
X0292769Y0533889D01*
X0292793Y0533920D01*
X0292820Y0533949D01*
X0292849Y0533975D01*
X0292881Y0533998D01*
X0292915Y0534018D01*
X0292951Y0534034D01*
X0292988Y0534046D01*
X0293027Y0534055D01*
X0293066Y0534060D01*
X0293105Y0534061D01*
X0293144Y0534058D01*
X0293183Y0534051D01*
X0293220Y0534040D01*
X0293257Y0534026D01*
X0293292Y0534008D01*
X0293325Y0533987D01*
X0293356Y0533962D01*
X0293384Y0533935D01*
X0293409Y0533905D01*
X0293431Y0533872D01*
X0293450Y0533838D01*
X0293465Y0533802D01*
X0293477Y0533764D01*
X0293485Y0533726D01*
X0293489Y0533687D01*
X0293489Y0533647D01*
X0293485Y0533608D01*
X0293477Y0533570D01*
X0293465Y0533532D01*
X0293450Y0533496D01*
X0293431Y0533462D01*
X0293409Y0533429D01*
X0293384Y0533399D01*
X0293356Y0533372D01*
X0293325Y0533347D01*
X0293292Y0533326D01*
X0293257Y0533308D01*
X0293220Y0533294D01*
X0293183Y0533283D01*
X0293144Y0533276D01*
X0293105Y0533273D01*
X0293066Y0533274D01*
X0293027Y0533279D01*
X0292988Y0533288D01*
X0292951Y0533300D01*
X0292915Y0533316D01*
X0292881Y0533336D01*
X0292849Y0533359D01*
X0292820Y0533385D01*
X0292793Y0533414D01*
X0292769Y0533445D01*
X0292749Y0533479D01*
X0292732Y0533514D01*
X0292719Y0533551D01*
X0292709Y0533589D01*
X0292703Y0533628D01*
X0292701Y0533667D01*
X0369676Y0465789D02*
X0369678Y0465828D01*
X0369684Y0465867D01*
X0369694Y0465905D01*
X0369707Y0465942D01*
X0369724Y0465977D01*
X0369744Y0466011D01*
X0369768Y0466042D01*
X0369795Y0466071D01*
X0369824Y0466097D01*
X0369856Y0466120D01*
X0369890Y0466140D01*
X0369926Y0466156D01*
X0369963Y0466168D01*
X0370002Y0466177D01*
X0370041Y0466182D01*
X0370080Y0466183D01*
X0370119Y0466180D01*
X0370158Y0466173D01*
X0370195Y0466162D01*
X0370232Y0466148D01*
X0370267Y0466130D01*
X0370300Y0466109D01*
X0370331Y0466084D01*
X0370359Y0466057D01*
X0370384Y0466027D01*
X0370406Y0465994D01*
X0370425Y0465960D01*
X0370440Y0465924D01*
X0370452Y0465886D01*
X0370460Y0465848D01*
X0370464Y0465809D01*
X0370464Y0465769D01*
X0370460Y0465730D01*
X0370452Y0465692D01*
X0370440Y0465654D01*
X0370425Y0465618D01*
X0370406Y0465584D01*
X0370384Y0465551D01*
X0370359Y0465521D01*
X0370331Y0465494D01*
X0370300Y0465469D01*
X0370267Y0465448D01*
X0370232Y0465430D01*
X0370195Y0465416D01*
X0370158Y0465405D01*
X0370119Y0465398D01*
X0370080Y0465395D01*
X0370041Y0465396D01*
X0370002Y0465401D01*
X0369963Y0465410D01*
X0369926Y0465422D01*
X0369890Y0465438D01*
X0369856Y0465458D01*
X0369824Y0465481D01*
X0369795Y0465507D01*
X0369768Y0465536D01*
X0369744Y0465567D01*
X0369724Y0465601D01*
X0369707Y0465636D01*
X0369694Y0465673D01*
X0369684Y0465711D01*
X0369678Y0465750D01*
X0369676Y0465789D01*
X0345955Y0350683D02*
X0345957Y0350852D01*
X0345963Y0351021D01*
X0345974Y0351190D01*
X0345988Y0351358D01*
X0346007Y0351526D01*
X0346030Y0351694D01*
X0346056Y0351861D01*
X0346087Y0352027D01*
X0346122Y0352193D01*
X0346161Y0352357D01*
X0346205Y0352521D01*
X0346252Y0352683D01*
X0346303Y0352844D01*
X0346358Y0353004D01*
X0346417Y0353163D01*
X0346479Y0353320D01*
X0346546Y0353475D01*
X0346617Y0353629D01*
X0346691Y0353781D01*
X0346769Y0353931D01*
X0346850Y0354079D01*
X0346935Y0354225D01*
X0347024Y0354369D01*
X0347116Y0354511D01*
X0347212Y0354650D01*
X0347311Y0354787D01*
X0347413Y0354922D01*
X0347519Y0355054D01*
X0347628Y0355183D01*
X0347740Y0355310D01*
X0347855Y0355434D01*
X0347973Y0355555D01*
X0348094Y0355673D01*
X0348218Y0355788D01*
X0348345Y0355900D01*
X0348474Y0356009D01*
X0348606Y0356115D01*
X0348741Y0356217D01*
X0348878Y0356316D01*
X0349017Y0356412D01*
X0349159Y0356504D01*
X0349303Y0356593D01*
X0349449Y0356678D01*
X0349597Y0356759D01*
X0349747Y0356837D01*
X0349899Y0356911D01*
X0350053Y0356982D01*
X0350208Y0357049D01*
X0350365Y0357111D01*
X0350524Y0357170D01*
X0350684Y0357225D01*
X0350845Y0357276D01*
X0351007Y0357323D01*
X0351171Y0357367D01*
X0351335Y0357406D01*
X0351501Y0357441D01*
X0351667Y0357472D01*
X0351834Y0357498D01*
X0352002Y0357521D01*
X0352170Y0357540D01*
X0352338Y0357554D01*
X0352507Y0357565D01*
X0352676Y0357571D01*
X0352845Y0357573D01*
X0353014Y0357571D01*
X0353183Y0357565D01*
X0353352Y0357554D01*
X0353520Y0357540D01*
X0353688Y0357521D01*
X0353856Y0357498D01*
X0354023Y0357472D01*
X0354189Y0357441D01*
X0354355Y0357406D01*
X0354519Y0357367D01*
X0354683Y0357323D01*
X0354845Y0357276D01*
X0355006Y0357225D01*
X0355166Y0357170D01*
X0355325Y0357111D01*
X0355482Y0357049D01*
X0355637Y0356982D01*
X0355791Y0356911D01*
X0355943Y0356837D01*
X0356093Y0356759D01*
X0356241Y0356678D01*
X0356387Y0356593D01*
X0356531Y0356504D01*
X0356673Y0356412D01*
X0356812Y0356316D01*
X0356949Y0356217D01*
X0357084Y0356115D01*
X0357216Y0356009D01*
X0357345Y0355900D01*
X0357472Y0355788D01*
X0357596Y0355673D01*
X0357717Y0355555D01*
X0357835Y0355434D01*
X0357950Y0355310D01*
X0358062Y0355183D01*
X0358171Y0355054D01*
X0358277Y0354922D01*
X0358379Y0354787D01*
X0358478Y0354650D01*
X0358574Y0354511D01*
X0358666Y0354369D01*
X0358755Y0354225D01*
X0358840Y0354079D01*
X0358921Y0353931D01*
X0358999Y0353781D01*
X0359073Y0353629D01*
X0359144Y0353475D01*
X0359211Y0353320D01*
X0359273Y0353163D01*
X0359332Y0353004D01*
X0359387Y0352844D01*
X0359438Y0352683D01*
X0359485Y0352521D01*
X0359529Y0352357D01*
X0359568Y0352193D01*
X0359603Y0352027D01*
X0359634Y0351861D01*
X0359660Y0351694D01*
X0359683Y0351526D01*
X0359702Y0351358D01*
X0359716Y0351190D01*
X0359727Y0351021D01*
X0359733Y0350852D01*
X0359735Y0350683D01*
X0359733Y0350514D01*
X0359727Y0350345D01*
X0359716Y0350176D01*
X0359702Y0350008D01*
X0359683Y0349840D01*
X0359660Y0349672D01*
X0359634Y0349505D01*
X0359603Y0349339D01*
X0359568Y0349173D01*
X0359529Y0349009D01*
X0359485Y0348845D01*
X0359438Y0348683D01*
X0359387Y0348522D01*
X0359332Y0348362D01*
X0359273Y0348203D01*
X0359211Y0348046D01*
X0359144Y0347891D01*
X0359073Y0347737D01*
X0358999Y0347585D01*
X0358921Y0347435D01*
X0358840Y0347287D01*
X0358755Y0347141D01*
X0358666Y0346997D01*
X0358574Y0346855D01*
X0358478Y0346716D01*
X0358379Y0346579D01*
X0358277Y0346444D01*
X0358171Y0346312D01*
X0358062Y0346183D01*
X0357950Y0346056D01*
X0357835Y0345932D01*
X0357717Y0345811D01*
X0357596Y0345693D01*
X0357472Y0345578D01*
X0357345Y0345466D01*
X0357216Y0345357D01*
X0357084Y0345251D01*
X0356949Y0345149D01*
X0356812Y0345050D01*
X0356673Y0344954D01*
X0356531Y0344862D01*
X0356387Y0344773D01*
X0356241Y0344688D01*
X0356093Y0344607D01*
X0355943Y0344529D01*
X0355791Y0344455D01*
X0355637Y0344384D01*
X0355482Y0344317D01*
X0355325Y0344255D01*
X0355166Y0344196D01*
X0355006Y0344141D01*
X0354845Y0344090D01*
X0354683Y0344043D01*
X0354519Y0343999D01*
X0354355Y0343960D01*
X0354189Y0343925D01*
X0354023Y0343894D01*
X0353856Y0343868D01*
X0353688Y0343845D01*
X0353520Y0343826D01*
X0353352Y0343812D01*
X0353183Y0343801D01*
X0353014Y0343795D01*
X0352845Y0343793D01*
X0352676Y0343795D01*
X0352507Y0343801D01*
X0352338Y0343812D01*
X0352170Y0343826D01*
X0352002Y0343845D01*
X0351834Y0343868D01*
X0351667Y0343894D01*
X0351501Y0343925D01*
X0351335Y0343960D01*
X0351171Y0343999D01*
X0351007Y0344043D01*
X0350845Y0344090D01*
X0350684Y0344141D01*
X0350524Y0344196D01*
X0350365Y0344255D01*
X0350208Y0344317D01*
X0350053Y0344384D01*
X0349899Y0344455D01*
X0349747Y0344529D01*
X0349597Y0344607D01*
X0349449Y0344688D01*
X0349303Y0344773D01*
X0349159Y0344862D01*
X0349017Y0344954D01*
X0348878Y0345050D01*
X0348741Y0345149D01*
X0348606Y0345251D01*
X0348474Y0345357D01*
X0348345Y0345466D01*
X0348218Y0345578D01*
X0348094Y0345693D01*
X0347973Y0345811D01*
X0347855Y0345932D01*
X0347740Y0346056D01*
X0347628Y0346183D01*
X0347519Y0346312D01*
X0347413Y0346444D01*
X0347311Y0346579D01*
X0347212Y0346716D01*
X0347116Y0346855D01*
X0347024Y0346997D01*
X0346935Y0347141D01*
X0346850Y0347287D01*
X0346769Y0347435D01*
X0346691Y0347585D01*
X0346617Y0347737D01*
X0346546Y0347891D01*
X0346479Y0348046D01*
X0346417Y0348203D01*
X0346358Y0348362D01*
X0346303Y0348522D01*
X0346252Y0348683D01*
X0346205Y0348845D01*
X0346161Y0349009D01*
X0346122Y0349173D01*
X0346087Y0349339D01*
X0346056Y0349505D01*
X0346030Y0349672D01*
X0346007Y0349840D01*
X0345988Y0350008D01*
X0345974Y0350176D01*
X0345963Y0350345D01*
X0345957Y0350514D01*
X0345955Y0350683D01*
X0441451Y0342850D02*
X0441453Y0342889D01*
X0441459Y0342928D01*
X0441469Y0342966D01*
X0441482Y0343003D01*
X0441499Y0343038D01*
X0441519Y0343072D01*
X0441543Y0343103D01*
X0441570Y0343132D01*
X0441599Y0343158D01*
X0441631Y0343181D01*
X0441665Y0343201D01*
X0441701Y0343217D01*
X0441738Y0343229D01*
X0441777Y0343238D01*
X0441816Y0343243D01*
X0441855Y0343244D01*
X0441894Y0343241D01*
X0441933Y0343234D01*
X0441970Y0343223D01*
X0442007Y0343209D01*
X0442042Y0343191D01*
X0442075Y0343170D01*
X0442106Y0343145D01*
X0442134Y0343118D01*
X0442159Y0343088D01*
X0442181Y0343055D01*
X0442200Y0343021D01*
X0442215Y0342985D01*
X0442227Y0342947D01*
X0442235Y0342909D01*
X0442239Y0342870D01*
X0442239Y0342830D01*
X0442235Y0342791D01*
X0442227Y0342753D01*
X0442215Y0342715D01*
X0442200Y0342679D01*
X0442181Y0342645D01*
X0442159Y0342612D01*
X0442134Y0342582D01*
X0442106Y0342555D01*
X0442075Y0342530D01*
X0442042Y0342509D01*
X0442007Y0342491D01*
X0441970Y0342477D01*
X0441933Y0342466D01*
X0441894Y0342459D01*
X0441855Y0342456D01*
X0441816Y0342457D01*
X0441777Y0342462D01*
X0441738Y0342471D01*
X0441701Y0342483D01*
X0441665Y0342499D01*
X0441631Y0342519D01*
X0441599Y0342542D01*
X0441570Y0342568D01*
X0441543Y0342597D01*
X0441519Y0342628D01*
X0441499Y0342662D01*
X0441482Y0342697D01*
X0441469Y0342734D01*
X0441459Y0342772D01*
X0441453Y0342811D01*
X0441451Y0342850D01*
X0507435Y0330183D02*
X0507437Y0330222D01*
X0507443Y0330261D01*
X0507453Y0330299D01*
X0507466Y0330336D01*
X0507483Y0330371D01*
X0507503Y0330405D01*
X0507527Y0330436D01*
X0507554Y0330465D01*
X0507583Y0330491D01*
X0507615Y0330514D01*
X0507649Y0330534D01*
X0507685Y0330550D01*
X0507722Y0330562D01*
X0507761Y0330571D01*
X0507800Y0330576D01*
X0507839Y0330577D01*
X0507878Y0330574D01*
X0507917Y0330567D01*
X0507954Y0330556D01*
X0507991Y0330542D01*
X0508026Y0330524D01*
X0508059Y0330503D01*
X0508090Y0330478D01*
X0508118Y0330451D01*
X0508143Y0330421D01*
X0508165Y0330388D01*
X0508184Y0330354D01*
X0508199Y0330318D01*
X0508211Y0330280D01*
X0508219Y0330242D01*
X0508223Y0330203D01*
X0508223Y0330163D01*
X0508219Y0330124D01*
X0508211Y0330086D01*
X0508199Y0330048D01*
X0508184Y0330012D01*
X0508165Y0329978D01*
X0508143Y0329945D01*
X0508118Y0329915D01*
X0508090Y0329888D01*
X0508059Y0329863D01*
X0508026Y0329842D01*
X0507991Y0329824D01*
X0507954Y0329810D01*
X0507917Y0329799D01*
X0507878Y0329792D01*
X0507839Y0329789D01*
X0507800Y0329790D01*
X0507761Y0329795D01*
X0507722Y0329804D01*
X0507685Y0329816D01*
X0507649Y0329832D01*
X0507615Y0329852D01*
X0507583Y0329875D01*
X0507554Y0329901D01*
X0507527Y0329930D01*
X0507503Y0329961D01*
X0507483Y0329995D01*
X0507466Y0330030D01*
X0507453Y0330067D01*
X0507443Y0330105D01*
X0507437Y0330144D01*
X0507435Y0330183D01*
X0320618Y0179183D02*
X0320620Y0179222D01*
X0320626Y0179261D01*
X0320636Y0179299D01*
X0320649Y0179336D01*
X0320666Y0179371D01*
X0320686Y0179405D01*
X0320710Y0179436D01*
X0320737Y0179465D01*
X0320766Y0179491D01*
X0320798Y0179514D01*
X0320832Y0179534D01*
X0320868Y0179550D01*
X0320905Y0179562D01*
X0320944Y0179571D01*
X0320983Y0179576D01*
X0321022Y0179577D01*
X0321061Y0179574D01*
X0321100Y0179567D01*
X0321137Y0179556D01*
X0321174Y0179542D01*
X0321209Y0179524D01*
X0321242Y0179503D01*
X0321273Y0179478D01*
X0321301Y0179451D01*
X0321326Y0179421D01*
X0321348Y0179388D01*
X0321367Y0179354D01*
X0321382Y0179318D01*
X0321394Y0179280D01*
X0321402Y0179242D01*
X0321406Y0179203D01*
X0321406Y0179163D01*
X0321402Y0179124D01*
X0321394Y0179086D01*
X0321382Y0179048D01*
X0321367Y0179012D01*
X0321348Y0178978D01*
X0321326Y0178945D01*
X0321301Y0178915D01*
X0321273Y0178888D01*
X0321242Y0178863D01*
X0321209Y0178842D01*
X0321174Y0178824D01*
X0321137Y0178810D01*
X0321100Y0178799D01*
X0321061Y0178792D01*
X0321022Y0178789D01*
X0320983Y0178790D01*
X0320944Y0178795D01*
X0320905Y0178804D01*
X0320868Y0178816D01*
X0320832Y0178832D01*
X0320798Y0178852D01*
X0320766Y0178875D01*
X0320737Y0178901D01*
X0320710Y0178930D01*
X0320686Y0178961D01*
X0320666Y0178995D01*
X0320649Y0179030D01*
X0320636Y0179067D01*
X0320626Y0179105D01*
X0320620Y0179144D01*
X0320618Y0179183D01*
X0310201Y0141167D02*
X0310203Y0141206D01*
X0310209Y0141245D01*
X0310219Y0141283D01*
X0310232Y0141320D01*
X0310249Y0141355D01*
X0310269Y0141389D01*
X0310293Y0141420D01*
X0310320Y0141449D01*
X0310349Y0141475D01*
X0310381Y0141498D01*
X0310415Y0141518D01*
X0310451Y0141534D01*
X0310488Y0141546D01*
X0310527Y0141555D01*
X0310566Y0141560D01*
X0310605Y0141561D01*
X0310644Y0141558D01*
X0310683Y0141551D01*
X0310720Y0141540D01*
X0310757Y0141526D01*
X0310792Y0141508D01*
X0310825Y0141487D01*
X0310856Y0141462D01*
X0310884Y0141435D01*
X0310909Y0141405D01*
X0310931Y0141372D01*
X0310950Y0141338D01*
X0310965Y0141302D01*
X0310977Y0141264D01*
X0310985Y0141226D01*
X0310989Y0141187D01*
X0310989Y0141147D01*
X0310985Y0141108D01*
X0310977Y0141070D01*
X0310965Y0141032D01*
X0310950Y0140996D01*
X0310931Y0140962D01*
X0310909Y0140929D01*
X0310884Y0140899D01*
X0310856Y0140872D01*
X0310825Y0140847D01*
X0310792Y0140826D01*
X0310757Y0140808D01*
X0310720Y0140794D01*
X0310683Y0140783D01*
X0310644Y0140776D01*
X0310605Y0140773D01*
X0310566Y0140774D01*
X0310527Y0140779D01*
X0310488Y0140788D01*
X0310451Y0140800D01*
X0310415Y0140816D01*
X0310381Y0140836D01*
X0310349Y0140859D01*
X0310320Y0140885D01*
X0310293Y0140914D01*
X0310269Y0140945D01*
X0310249Y0140979D01*
X0310232Y0141014D01*
X0310219Y0141051D01*
X0310209Y0141089D01*
X0310203Y0141128D01*
X0310201Y0141167D01*
X0161451Y0308766D02*
X0161453Y0308805D01*
X0161459Y0308844D01*
X0161469Y0308882D01*
X0161482Y0308919D01*
X0161499Y0308954D01*
X0161519Y0308988D01*
X0161543Y0309019D01*
X0161570Y0309048D01*
X0161599Y0309074D01*
X0161631Y0309097D01*
X0161665Y0309117D01*
X0161701Y0309133D01*
X0161738Y0309145D01*
X0161777Y0309154D01*
X0161816Y0309159D01*
X0161855Y0309160D01*
X0161894Y0309157D01*
X0161933Y0309150D01*
X0161970Y0309139D01*
X0162007Y0309125D01*
X0162042Y0309107D01*
X0162075Y0309086D01*
X0162106Y0309061D01*
X0162134Y0309034D01*
X0162159Y0309004D01*
X0162181Y0308971D01*
X0162200Y0308937D01*
X0162215Y0308901D01*
X0162227Y0308863D01*
X0162235Y0308825D01*
X0162239Y0308786D01*
X0162239Y0308746D01*
X0162235Y0308707D01*
X0162227Y0308669D01*
X0162215Y0308631D01*
X0162200Y0308595D01*
X0162181Y0308561D01*
X0162159Y0308528D01*
X0162134Y0308498D01*
X0162106Y0308471D01*
X0162075Y0308446D01*
X0162042Y0308425D01*
X0162007Y0308407D01*
X0161970Y0308393D01*
X0161933Y0308382D01*
X0161894Y0308375D01*
X0161855Y0308372D01*
X0161816Y0308373D01*
X0161777Y0308378D01*
X0161738Y0308387D01*
X0161701Y0308399D01*
X0161665Y0308415D01*
X0161631Y0308435D01*
X0161599Y0308458D01*
X0161570Y0308484D01*
X0161543Y0308513D01*
X0161519Y0308544D01*
X0161499Y0308578D01*
X0161482Y0308613D01*
X0161469Y0308650D01*
X0161459Y0308688D01*
X0161453Y0308727D01*
X0161451Y0308766D01*
X0102701Y0307949D02*
X0102703Y0307988D01*
X0102709Y0308027D01*
X0102719Y0308065D01*
X0102732Y0308102D01*
X0102749Y0308137D01*
X0102769Y0308171D01*
X0102793Y0308202D01*
X0102820Y0308231D01*
X0102849Y0308257D01*
X0102881Y0308280D01*
X0102915Y0308300D01*
X0102951Y0308316D01*
X0102988Y0308328D01*
X0103027Y0308337D01*
X0103066Y0308342D01*
X0103105Y0308343D01*
X0103144Y0308340D01*
X0103183Y0308333D01*
X0103220Y0308322D01*
X0103257Y0308308D01*
X0103292Y0308290D01*
X0103325Y0308269D01*
X0103356Y0308244D01*
X0103384Y0308217D01*
X0103409Y0308187D01*
X0103431Y0308154D01*
X0103450Y0308120D01*
X0103465Y0308084D01*
X0103477Y0308046D01*
X0103485Y0308008D01*
X0103489Y0307969D01*
X0103489Y0307929D01*
X0103485Y0307890D01*
X0103477Y0307852D01*
X0103465Y0307814D01*
X0103450Y0307778D01*
X0103431Y0307744D01*
X0103409Y0307711D01*
X0103384Y0307681D01*
X0103356Y0307654D01*
X0103325Y0307629D01*
X0103292Y0307608D01*
X0103257Y0307590D01*
X0103220Y0307576D01*
X0103183Y0307565D01*
X0103144Y0307558D01*
X0103105Y0307555D01*
X0103066Y0307556D01*
X0103027Y0307561D01*
X0102988Y0307570D01*
X0102951Y0307582D01*
X0102915Y0307598D01*
X0102881Y0307618D01*
X0102849Y0307641D01*
X0102820Y0307667D01*
X0102793Y0307696D01*
X0102769Y0307727D01*
X0102749Y0307761D01*
X0102732Y0307796D01*
X0102719Y0307833D01*
X0102709Y0307871D01*
X0102703Y0307910D01*
X0102701Y0307949D01*
D16*
X0095663Y0339899D02*
X0095663Y0342801D01*
X0094212Y0341350D01*
X0096147Y0341350D01*
X0093200Y0340866D02*
X0092717Y0341350D01*
X0091749Y0341350D01*
X0091265Y0341834D01*
X0091265Y0342318D01*
X0091749Y0342801D01*
X0092717Y0342801D01*
X0093200Y0342318D01*
X0092233Y0343285D02*
X0092233Y0339415D01*
X0092717Y0339899D02*
X0093200Y0340383D01*
X0093200Y0340866D01*
X0092717Y0339899D02*
X0091749Y0339899D01*
X0091265Y0340383D01*
X0090254Y0340383D02*
X0090254Y0342801D01*
X0088319Y0342801D02*
X0088319Y0340383D01*
X0088803Y0339899D01*
X0089770Y0339899D01*
X0090254Y0340383D01*
X0232383Y0464164D02*
X0232383Y0467331D01*
X0234494Y0467331D01*
X0235573Y0467331D02*
X0235573Y0464164D01*
X0235573Y0465220D02*
X0237157Y0465220D01*
X0237685Y0465747D01*
X0237685Y0466803D01*
X0237157Y0467331D01*
X0235573Y0467331D01*
X0236629Y0465220D02*
X0237685Y0464164D01*
X0238763Y0464692D02*
X0239291Y0464164D01*
X0240347Y0464164D01*
X0240875Y0464692D01*
X0240875Y0466803D01*
X0240347Y0467331D01*
X0239291Y0467331D01*
X0238763Y0466803D01*
X0238763Y0464692D01*
X0241953Y0464164D02*
X0241953Y0467331D01*
X0244065Y0464164D01*
X0244065Y0467331D01*
X0245143Y0467331D02*
X0247255Y0467331D01*
X0246199Y0467331D02*
X0246199Y0464164D01*
X0248334Y0463636D02*
X0250445Y0463636D01*
X0251524Y0464164D02*
X0253635Y0464164D01*
X0254714Y0464164D02*
X0256825Y0464164D01*
X0257904Y0464164D02*
X0259488Y0464164D01*
X0260015Y0464692D01*
X0260015Y0466803D01*
X0259488Y0467331D01*
X0257904Y0467331D01*
X0257904Y0464164D01*
X0255770Y0465747D02*
X0254714Y0465747D01*
X0254714Y0464164D02*
X0254714Y0467331D01*
X0256825Y0467331D01*
X0251524Y0467331D02*
X0251524Y0464164D01*
X0261094Y0463636D02*
X0263206Y0463636D01*
X0264284Y0464164D02*
X0266396Y0466275D01*
X0266396Y0466803D01*
X0265868Y0467331D01*
X0264812Y0467331D01*
X0264284Y0466803D01*
X0264284Y0464164D02*
X0266396Y0464164D01*
X0233439Y0465747D02*
X0232383Y0465747D01*
X0300832Y0534551D02*
X0301315Y0534067D01*
X0302283Y0534067D01*
X0302767Y0534551D01*
X0302767Y0536970D01*
X0303778Y0536486D02*
X0304262Y0536970D01*
X0305230Y0536970D01*
X0305713Y0536486D01*
X0306725Y0536486D02*
X0307209Y0536970D01*
X0308176Y0536970D01*
X0308660Y0536486D01*
X0308660Y0536002D01*
X0306725Y0534067D01*
X0308660Y0534067D01*
X0305713Y0534551D02*
X0305713Y0535035D01*
X0305230Y0535519D01*
X0304262Y0535519D01*
X0303778Y0536002D01*
X0303778Y0536486D01*
X0304746Y0537454D02*
X0304746Y0533584D01*
X0305230Y0534067D02*
X0305713Y0534551D01*
X0305230Y0534067D02*
X0304262Y0534067D01*
X0303778Y0534551D01*
X0300832Y0534551D02*
X0300832Y0536970D01*
X0371633Y0467581D02*
X0371633Y0464414D01*
X0371633Y0465997D02*
X0372689Y0465997D01*
X0371633Y0467581D02*
X0373744Y0467581D01*
X0374823Y0467581D02*
X0376407Y0467581D01*
X0376935Y0467053D01*
X0376935Y0465997D01*
X0376407Y0465470D01*
X0374823Y0465470D01*
X0375879Y0465470D02*
X0376935Y0464414D01*
X0378013Y0464942D02*
X0378541Y0464414D01*
X0379597Y0464414D01*
X0380125Y0464942D01*
X0380125Y0467053D01*
X0379597Y0467581D01*
X0378541Y0467581D01*
X0378013Y0467053D01*
X0378013Y0464942D01*
X0374823Y0464414D02*
X0374823Y0467581D01*
X0381203Y0467581D02*
X0383315Y0464414D01*
X0383315Y0467581D01*
X0384393Y0467581D02*
X0386505Y0467581D01*
X0385449Y0467581D02*
X0385449Y0464414D01*
X0387584Y0463886D02*
X0389695Y0463886D01*
X0390774Y0464414D02*
X0390774Y0467581D01*
X0390774Y0464414D02*
X0392885Y0464414D01*
X0393964Y0464414D02*
X0396075Y0464414D01*
X0397154Y0464414D02*
X0398738Y0464414D01*
X0399265Y0464942D01*
X0399265Y0467053D01*
X0398738Y0467581D01*
X0397154Y0467581D01*
X0397154Y0464414D01*
X0395020Y0465997D02*
X0393964Y0465997D01*
X0393964Y0464414D02*
X0393964Y0467581D01*
X0396075Y0467581D01*
X0400344Y0463886D02*
X0402456Y0463886D01*
X0403534Y0464414D02*
X0405646Y0464414D01*
X0404590Y0464414D02*
X0404590Y0467581D01*
X0403534Y0466525D01*
X0381203Y0467581D02*
X0381203Y0464414D01*
X0509832Y0312220D02*
X0509832Y0309801D01*
X0510315Y0309317D01*
X0511283Y0309317D01*
X0511767Y0309801D01*
X0511767Y0312220D01*
X0512778Y0311736D02*
X0513262Y0312220D01*
X0514230Y0312220D01*
X0514713Y0311736D01*
X0514230Y0310769D02*
X0513262Y0310769D01*
X0512778Y0311252D01*
X0512778Y0311736D01*
X0513746Y0312704D02*
X0513746Y0308834D01*
X0514230Y0309317D02*
X0514713Y0309801D01*
X0514713Y0310285D01*
X0514230Y0310769D01*
X0514230Y0309317D02*
X0513262Y0309317D01*
X0512778Y0309801D01*
X0515725Y0309317D02*
X0517660Y0309317D01*
X0516692Y0309317D02*
X0516692Y0312220D01*
X0515725Y0311252D01*
X0288129Y0117251D02*
X0288129Y0116284D01*
X0287646Y0115800D01*
X0287646Y0114788D02*
X0287162Y0114788D01*
X0286678Y0114305D01*
X0286678Y0113337D01*
X0286194Y0112853D01*
X0285711Y0112853D01*
X0285227Y0113337D01*
X0285227Y0114305D01*
X0285711Y0114788D01*
X0285711Y0115800D02*
X0285227Y0116284D01*
X0285227Y0117251D01*
X0285711Y0117735D01*
X0286194Y0117735D01*
X0286678Y0117251D01*
X0287162Y0117735D01*
X0287646Y0117735D01*
X0288129Y0117251D01*
X0286678Y0117251D02*
X0286678Y0116767D01*
X0287646Y0114788D02*
X0288129Y0114305D01*
X0288129Y0113337D01*
X0287646Y0112853D01*
X0287646Y0111842D02*
X0285227Y0111842D01*
X0285227Y0109907D02*
X0287646Y0109907D01*
X0288129Y0110391D01*
X0288129Y0111358D01*
X0287646Y0111842D01*
X0288613Y0113821D02*
X0284743Y0113821D01*
D17*
X0356845Y0183933D02*
X0356845Y0188933D01*
X0359345Y0191433D01*
X0364345Y0191433D01*
X0366845Y0188933D01*
X0369345Y0191433D01*
X0374345Y0191433D01*
X0376845Y0188933D01*
X0379345Y0191433D01*
X0384345Y0191433D01*
X0386845Y0188933D01*
X0389345Y0191433D01*
X0394345Y0191433D01*
X0396845Y0188933D01*
X0399345Y0191433D01*
X0404345Y0191433D01*
X0406845Y0188933D01*
X0409345Y0191433D01*
X0414345Y0191433D01*
X0416845Y0188933D01*
X0416845Y0183933D01*
X0414345Y0181433D01*
X0409345Y0181433D01*
X0406845Y0183933D01*
X0404345Y0181433D01*
X0399345Y0181433D01*
X0396845Y0183933D01*
X0394345Y0181433D01*
X0389345Y0181433D01*
X0386845Y0183933D01*
X0384345Y0181433D01*
X0379345Y0181433D01*
X0376845Y0183933D01*
X0374345Y0181433D01*
X0369345Y0181433D01*
X0366845Y0183933D01*
X0364345Y0181433D01*
X0359345Y0181433D01*
X0356845Y0183933D01*
X0426845Y0235183D02*
X0429345Y0232683D01*
X0444345Y0232683D01*
X0446845Y0235183D01*
X0446845Y0240183D01*
X0444345Y0242683D01*
X0429345Y0242683D01*
X0426845Y0240183D01*
X0426845Y0235183D01*
X0429345Y0242683D02*
X0426845Y0245183D01*
X0426845Y0250183D01*
X0429345Y0252683D01*
X0426845Y0255183D01*
X0426845Y0260183D01*
X0429345Y0262683D01*
X0444345Y0262683D01*
X0446845Y0260183D01*
X0446845Y0255183D01*
X0444345Y0252683D01*
X0429345Y0252683D01*
X0446845Y0250183D02*
X0446845Y0245183D01*
X0444345Y0242683D01*
X0443095Y0415183D02*
X0440595Y0417683D01*
X0440595Y0422683D01*
X0443095Y0425183D01*
X0440595Y0427683D01*
X0440595Y0432683D01*
X0443095Y0435183D01*
X0440595Y0437683D01*
X0440595Y0442683D01*
X0443095Y0445183D01*
X0440595Y0447683D01*
X0440595Y0452683D01*
X0443095Y0455183D01*
X0440595Y0457683D01*
X0440595Y0462683D01*
X0443095Y0465183D01*
X0440595Y0467683D01*
X0440595Y0472683D01*
X0443095Y0475183D01*
X0448095Y0475183D01*
X0450595Y0472683D01*
X0450595Y0467683D01*
X0448095Y0465183D01*
X0450595Y0462683D01*
X0450595Y0457683D01*
X0448095Y0455183D01*
X0450595Y0452683D01*
X0450595Y0447683D01*
X0448095Y0445183D01*
X0450595Y0442683D01*
X0450595Y0437683D01*
X0448095Y0435183D01*
X0450595Y0432683D01*
X0450595Y0427683D01*
X0448095Y0425183D01*
X0450595Y0422683D01*
X0450595Y0417683D01*
X0448095Y0415183D01*
X0443095Y0415183D01*
X0261062Y0235900D02*
X0261062Y0234719D01*
X0261062Y0235900D02*
X0259881Y0235900D01*
X0247207Y0246884D02*
X0242483Y0246884D01*
X0235003Y0252002D02*
X0235003Y0254364D01*
X0242483Y0259482D02*
X0247207Y0259482D01*
X0254688Y0254364D02*
X0254688Y0252002D01*
X0226810Y0235900D02*
X0225629Y0234719D01*
X0225629Y0201648D02*
X0225629Y0200467D01*
X0226810Y0200467D01*
X0259881Y0200467D02*
X0261062Y0200467D01*
X0261062Y0201648D01*
X0175595Y0212183D02*
X0156595Y0212183D01*
X0159095Y0215183D02*
X0157595Y0216683D01*
X0159095Y0218183D01*
X0157595Y0216683D02*
X0161095Y0216683D01*
X0156595Y0221183D02*
X0175595Y0221183D01*
D18*
X0212797Y0237552D02*
X0213531Y0236819D01*
X0214999Y0236819D01*
X0215733Y0237552D01*
X0215733Y0241222D01*
X0217401Y0240488D02*
X0218135Y0241222D01*
X0219603Y0241222D01*
X0220337Y0240488D01*
X0220337Y0239754D01*
X0217401Y0236819D01*
X0220337Y0236819D01*
X0212797Y0237552D02*
X0212797Y0241222D01*
X0219497Y0409744D02*
X0219497Y0416122D01*
X0219867Y0416122D01*
X0223040Y0416122D02*
X0223410Y0416122D01*
X0226780Y0416122D02*
X0227150Y0416122D01*
X0230323Y0416122D02*
X0230694Y0416122D01*
X0230694Y0409744D01*
X0230323Y0409744D01*
X0227150Y0409744D02*
X0223040Y0409744D01*
X0219867Y0409744D02*
X0219497Y0409744D01*
D19*
X0167145Y0273433D03*
X0167145Y0273033D03*
X0165945Y0271833D03*
X0166745Y0269833D03*
X0166745Y0269433D03*
X0168745Y0269433D03*
X0168745Y0269033D03*
X0163945Y0269833D03*
X0159545Y0268233D03*
X0159545Y0267833D03*
X0159545Y0265433D03*
X0161945Y0261033D03*
X0169145Y0261433D03*
X0179945Y0266233D03*
X0180745Y0265033D03*
X0182745Y0265033D03*
X0159945Y0273433D03*
D20*
X0164745Y0272633D03*
X0163145Y0268633D03*
X0165945Y0268233D03*
X0169545Y0271033D03*
X0169945Y0270633D03*
X0170345Y0269833D03*
X0170345Y0269433D03*
X0171145Y0267833D03*
X0171545Y0266633D03*
X0171545Y0266233D03*
X0171545Y0265833D03*
X0171545Y0264633D03*
X0171545Y0264233D03*
X0171145Y0263033D03*
X0170745Y0262633D03*
X0168745Y0261033D03*
X0174345Y0267433D03*
X0174345Y0267833D03*
X0174345Y0268233D03*
X0174345Y0269033D03*
X0175145Y0268233D03*
X0175945Y0268233D03*
X0175945Y0267833D03*
X0175945Y0267433D03*
X0176745Y0267833D03*
X0176745Y0268233D03*
X0176745Y0268633D03*
X0176745Y0269033D03*
X0175945Y0269033D03*
X0178345Y0269033D03*
X0178345Y0268633D03*
X0178345Y0268233D03*
X0178345Y0267833D03*
X0179145Y0267833D03*
X0179145Y0268233D03*
X0179145Y0268633D03*
X0181545Y0268633D03*
X0181545Y0269033D03*
X0181545Y0267833D03*
X0181545Y0267433D03*
X0183145Y0267433D03*
X0183145Y0267833D03*
X0183145Y0268633D03*
X0183145Y0269033D03*
X0159545Y0266233D03*
D21*
X0159745Y0262633D03*
X0159745Y0262233D03*
X0160145Y0261833D03*
X0160945Y0261433D03*
X0160545Y0272233D03*
X0174145Y0266233D03*
X0174145Y0265833D03*
X0178145Y0261833D03*
X0178145Y0261433D03*
D22*
X0176945Y0262233D03*
X0176945Y0262633D03*
X0176945Y0263033D03*
X0176945Y0263433D03*
X0176945Y0263833D03*
X0176945Y0264233D03*
X0176945Y0264633D03*
X0176945Y0265033D03*
X0176945Y0265433D03*
X0176945Y0265833D03*
X0176945Y0266233D03*
X0175745Y0268633D03*
X0174545Y0268633D03*
X0171345Y0267433D03*
X0171345Y0267033D03*
X0171745Y0265433D03*
X0171745Y0265033D03*
X0172945Y0265033D03*
X0172945Y0264633D03*
X0172945Y0265433D03*
X0172945Y0263433D03*
X0172945Y0263033D03*
X0172945Y0262633D03*
X0172945Y0262233D03*
X0172945Y0261833D03*
X0172945Y0261433D03*
X0170545Y0262233D03*
X0169745Y0261833D03*
X0171345Y0263433D03*
X0171345Y0263833D03*
X0166145Y0264233D03*
X0168945Y0268633D03*
X0170145Y0270233D03*
X0169345Y0271433D03*
X0167745Y0272233D03*
X0167345Y0273833D03*
X0167345Y0274233D03*
X0163745Y0272233D03*
X0162945Y0269033D03*
X0159345Y0267433D03*
X0159345Y0265833D03*
X0159745Y0273833D03*
X0180145Y0265833D03*
X0180545Y0265433D03*
X0180945Y0264633D03*
X0181745Y0263433D03*
X0181745Y0263033D03*
X0181745Y0262633D03*
X0181745Y0262233D03*
X0181745Y0261833D03*
X0181745Y0261433D03*
X0182545Y0264633D03*
X0182945Y0265433D03*
X0183345Y0265833D03*
X0183345Y0266233D03*
D23*
X0173945Y0264233D03*
X0173945Y0263833D03*
X0169145Y0264233D03*
X0168345Y0263433D03*
X0159545Y0263033D03*
X0160345Y0272633D03*
D24*
X0160545Y0270233D03*
X0160545Y0269833D03*
X0159345Y0263833D03*
X0159345Y0263433D03*
X0169345Y0265433D03*
X0169345Y0265833D03*
X0169345Y0266233D03*
X0169345Y0266633D03*
D25*
X0167945Y0263833D03*
D26*
X0168945Y0264633D03*
X0169345Y0267033D03*
X0164945Y0267833D03*
X0164545Y0268233D03*
X0164545Y0268633D03*
X0163345Y0269433D03*
X0164145Y0270233D03*
X0166145Y0270233D03*
X0165745Y0271433D03*
X0166945Y0272633D03*
X0160145Y0269433D03*
X0159745Y0269033D03*
X0159745Y0268633D03*
X0159345Y0265033D03*
X0159345Y0264233D03*
X0181745Y0264233D03*
X0181745Y0263833D03*
D27*
X0179945Y0267433D03*
X0179945Y0269033D03*
X0182345Y0268233D03*
X0177545Y0267433D03*
X0169145Y0265033D03*
X0159145Y0264633D03*
X0160345Y0273033D03*
D28*
X0163145Y0271033D03*
X0163145Y0270633D03*
D29*
X0161345Y0271433D03*
X0161345Y0271833D03*
D30*
X0366035Y0332967D02*
X0366037Y0333023D01*
X0366043Y0333078D01*
X0366053Y0333132D01*
X0366066Y0333186D01*
X0366084Y0333239D01*
X0366105Y0333290D01*
X0366129Y0333340D01*
X0366157Y0333388D01*
X0366189Y0333434D01*
X0366223Y0333478D01*
X0366261Y0333519D01*
X0366301Y0333557D01*
X0366344Y0333592D01*
X0366389Y0333624D01*
X0366437Y0333653D01*
X0366486Y0333679D01*
X0366537Y0333701D01*
X0366589Y0333719D01*
X0366643Y0333733D01*
X0366698Y0333744D01*
X0366753Y0333751D01*
X0366808Y0333754D01*
X0366864Y0333753D01*
X0366919Y0333748D01*
X0366974Y0333739D01*
X0367028Y0333727D01*
X0367081Y0333710D01*
X0367133Y0333690D01*
X0367183Y0333666D01*
X0367231Y0333639D01*
X0367278Y0333609D01*
X0367322Y0333575D01*
X0367364Y0333538D01*
X0367402Y0333498D01*
X0367439Y0333456D01*
X0367472Y0333411D01*
X0367501Y0333365D01*
X0367528Y0333316D01*
X0367550Y0333265D01*
X0367570Y0333213D01*
X0367585Y0333159D01*
X0367597Y0333105D01*
X0367605Y0333050D01*
X0367609Y0332995D01*
X0367609Y0332939D01*
X0367605Y0332884D01*
X0367597Y0332829D01*
X0367585Y0332775D01*
X0367570Y0332721D01*
X0367550Y0332669D01*
X0367528Y0332618D01*
X0367501Y0332569D01*
X0367472Y0332523D01*
X0367439Y0332478D01*
X0367402Y0332436D01*
X0367364Y0332396D01*
X0367322Y0332359D01*
X0367278Y0332325D01*
X0367231Y0332295D01*
X0367183Y0332268D01*
X0367133Y0332244D01*
X0367081Y0332224D01*
X0367028Y0332207D01*
X0366974Y0332195D01*
X0366919Y0332186D01*
X0366864Y0332181D01*
X0366808Y0332180D01*
X0366753Y0332183D01*
X0366698Y0332190D01*
X0366643Y0332201D01*
X0366589Y0332215D01*
X0366537Y0332233D01*
X0366486Y0332255D01*
X0366437Y0332281D01*
X0366389Y0332310D01*
X0366344Y0332342D01*
X0366301Y0332377D01*
X0366261Y0332415D01*
X0366223Y0332456D01*
X0366189Y0332500D01*
X0366157Y0332546D01*
X0366129Y0332594D01*
X0366105Y0332644D01*
X0366084Y0332695D01*
X0366066Y0332748D01*
X0366053Y0332802D01*
X0366043Y0332856D01*
X0366037Y0332911D01*
X0366035Y0332967D01*
M02*
