%
M48
M72
T01C0.0150
T02C0.0157
T03C0.0394
T04C0.0400
T05C0.0433
T06C0.0551
%
T01
X24060Y22206
X24060Y22956
X25060Y23143
X25622Y23143
X26185Y23893
X27247Y22893
X27810Y23081
X24622Y20518
X24560Y19268
X31060Y17143
X26497Y31268
X26872Y32581
X27622Y34581
X28247Y35893
X21372Y32143
X36185Y32393
X29310Y48581
T02
X18085Y19268
X18835Y19268
X19585Y19268
X20060Y19693
X20360Y20218
X20085Y20743
X20085Y21318
X20760Y21318
X21435Y21318
X21435Y22443
X20760Y22443
X20110Y22443
X19635Y22768
X18910Y22768
X18160Y22768
X24385Y27418
X14685Y33643
X14210Y32043
X22810Y38618
X23835Y38618
X21335Y42418
X21035Y47018
X28810Y48343
X31485Y48493
X45810Y33918
X45685Y31643
X31685Y16568
X28710Y16593
T03
X29185Y38893
X30185Y38893
T04
X43185Y25768
X44185Y25768
X44185Y24768
X44185Y23768
X43185Y23768
X43185Y24768
X41185Y18643
X40185Y18643
X39185Y18643
X38185Y18643
X37185Y18643
X36185Y18643
X44560Y42018
X44560Y43018
X44560Y44018
X44560Y45018
X44560Y46018
X44560Y47018
T05
X31185Y41093
X30185Y41093
X16685Y41143
X16685Y40143
X16685Y39143
X16685Y38143
X16685Y37143
X16685Y42143
X16685Y43143
X16685Y44143
X16685Y45143
X16685Y46143
T06
X26291Y37887
X32078Y37887
X32078Y28399
X26291Y28399
M30
