G75*
%MOIN*%
%OFA0B0*%
%FSLAX25Y25*%
%IPPOS*%
%LPD*%
%AMOC8*
5,1,8,0,0,1.08239X$1,22.5*
%
%ADD10C,0.05937*%
%ADD11C,0.01956*%
%ADD12R,0.06496X0.06496*%
%ADD13C,0.06496*%
%ADD14R,0.07400X0.07400*%
%ADD15OC8,0.07400*%
%ADD16C,0.07400*%
%ADD17R,0.02500X0.05000*%
%ADD18R,0.02165X0.04724*%
%ADD19C,0.03962*%
%ADD20C,0.00600*%
%ADD21C,0.03100*%
%ADD22C,0.03569*%
%ADD23C,0.01800*%
D10*
X0261889Y0331420D02*
X0261889Y0337357D01*
X0271889Y0337357D02*
X0271889Y0331420D01*
D11*
X0240310Y0365072D02*
X0238014Y0365072D01*
X0238014Y0368706D01*
X0240310Y0368706D01*
X0240310Y0365072D01*
X0240310Y0367027D02*
X0238014Y0367027D01*
X0233263Y0368706D02*
X0230967Y0368706D01*
X0233263Y0368706D02*
X0233263Y0365072D01*
X0230967Y0365072D01*
X0230967Y0368706D01*
X0230967Y0367027D02*
X0233263Y0367027D01*
X0231206Y0359060D02*
X0231206Y0356764D01*
X0227572Y0356764D01*
X0227572Y0359060D01*
X0231206Y0359060D01*
X0231206Y0358719D02*
X0227572Y0358719D01*
X0227572Y0352013D02*
X0227572Y0349717D01*
X0227572Y0352013D02*
X0231206Y0352013D01*
X0231206Y0349717D01*
X0227572Y0349717D01*
X0227572Y0351672D02*
X0231206Y0351672D01*
X0226560Y0337572D02*
X0224264Y0337572D01*
X0224264Y0341206D01*
X0226560Y0341206D01*
X0226560Y0337572D01*
X0226560Y0339527D02*
X0224264Y0339527D01*
X0219513Y0341206D02*
X0217217Y0341206D01*
X0219513Y0341206D02*
X0219513Y0337572D01*
X0217217Y0337572D01*
X0217217Y0341206D01*
X0217217Y0339527D02*
X0219513Y0339527D01*
D12*
X0136889Y0316889D03*
X0356889Y0366889D03*
D13*
X0346889Y0366889D03*
X0136889Y0366889D03*
X0136889Y0376889D03*
X0136889Y0386889D03*
X0136889Y0396889D03*
X0136889Y0406889D03*
X0136889Y0356889D03*
X0136889Y0346889D03*
X0136889Y0336889D03*
X0136889Y0326889D03*
D14*
X0401889Y0203139D03*
D15*
X0411889Y0203139D03*
X0411889Y0193139D03*
X0411889Y0183139D03*
X0401889Y0183139D03*
X0401889Y0193139D03*
D16*
X0381889Y0131889D03*
X0371889Y0131889D03*
X0361889Y0131889D03*
X0351889Y0131889D03*
X0341889Y0131889D03*
X0331889Y0131889D03*
X0415639Y0365639D03*
X0415639Y0375639D03*
X0415639Y0385639D03*
X0415639Y0395639D03*
X0415639Y0405639D03*
X0415639Y0415639D03*
D17*
X0244389Y0335432D03*
X0244389Y0331889D03*
D18*
X0216879Y0349270D03*
X0209398Y0349270D03*
X0209398Y0359507D03*
X0213139Y0359507D03*
X0216879Y0359507D03*
D19*
X0133139Y0126889D03*
X0130639Y0133139D03*
X0130639Y0139389D03*
X0134389Y0146889D03*
X0141889Y0148139D03*
X0145639Y0151889D03*
X0145639Y0158139D03*
X0151889Y0163139D03*
X0158139Y0164389D03*
X0160639Y0169389D03*
X0168139Y0169389D03*
X0175639Y0169389D03*
X0183139Y0168139D03*
X0189389Y0165639D03*
X0195639Y0165639D03*
X0204389Y0169389D03*
X0216889Y0183139D03*
X0216889Y0191889D03*
X0206889Y0195639D03*
X0224389Y0218139D03*
X0224389Y0238139D03*
X0240639Y0248139D03*
X0251889Y0258139D03*
X0259389Y0248139D03*
X0259389Y0234389D03*
X0281889Y0234389D03*
X0285639Y0226889D03*
X0279389Y0213139D03*
X0283139Y0199389D03*
X0291889Y0184389D03*
X0283139Y0181889D03*
X0299389Y0205639D03*
X0256889Y0174389D03*
X0280639Y0144389D03*
X0293139Y0119389D03*
X0195639Y0135639D03*
X0188139Y0135639D03*
X0180639Y0135639D03*
X0174389Y0133139D03*
X0170639Y0126889D03*
X0163139Y0125639D03*
X0155639Y0125639D03*
X0148139Y0125639D03*
X0140639Y0125639D03*
X0218139Y0266889D03*
X0215639Y0286889D03*
X0240639Y0269389D03*
X0278139Y0291889D03*
X0278139Y0299389D03*
X0295639Y0275639D03*
X0421889Y0383139D03*
X0414389Y0144389D03*
D20*
X0424389Y0154389D01*
X0424389Y0380639D01*
X0421889Y0383139D01*
X0415639Y0375639D02*
X0410639Y0370639D01*
X0410639Y0331889D01*
X0291889Y0213139D01*
X0279389Y0213139D02*
X0279389Y0145639D01*
X0280639Y0144389D01*
X0290639Y0140639D02*
X0290639Y0183139D01*
X0291889Y0184389D01*
X0294389Y0179389D02*
X0341889Y0131889D01*
X0381889Y0131889D02*
X0411889Y0161889D01*
X0411889Y0183139D01*
X0406889Y0188139D02*
X0401889Y0183139D01*
X0406889Y0188139D02*
X0406889Y0276889D01*
X0418139Y0288139D01*
X0295639Y0275639D02*
X0295639Y0266889D01*
X0285639Y0256889D01*
X0285639Y0226889D01*
X0283139Y0224389D02*
X0281889Y0225639D01*
X0281889Y0234389D01*
X0283139Y0224389D02*
X0283139Y0199389D01*
X0276889Y0209389D02*
X0276889Y0106889D01*
X0291889Y0120639D02*
X0291889Y0139389D01*
X0290639Y0140639D01*
X0291889Y0120639D02*
X0293139Y0119389D01*
X0256889Y0174389D02*
X0256889Y0225639D01*
X0253139Y0229389D01*
X0253139Y0256889D01*
X0251889Y0258139D01*
X0248139Y0254389D02*
X0248139Y0228139D01*
X0251889Y0223139D01*
X0255639Y0230639D02*
X0268139Y0218139D01*
X0276889Y0209389D01*
X0255639Y0230639D02*
X0255639Y0269389D01*
X0205639Y0319389D01*
X0214389Y0334389D02*
X0229389Y0334389D01*
X0263139Y0304389D01*
X0264389Y0311889D02*
X0244389Y0331889D01*
X0239389Y0331889D01*
X0239389Y0358139D01*
X0229389Y0358139D01*
X0229389Y0357912D01*
X0229389Y0356889D01*
X0221889Y0349389D01*
X0214389Y0356889D01*
X0214389Y0355639D01*
X0208139Y0355639D01*
X0206889Y0356889D01*
X0206889Y0406889D01*
X0136889Y0406889D01*
X0130639Y0416889D02*
X0130639Y0363139D01*
X0136889Y0356889D01*
X0131889Y0351889D01*
X0131889Y0273139D01*
X0195639Y0273139D01*
X0240639Y0231889D01*
X0243139Y0235639D02*
X0243139Y0226889D01*
X0243139Y0235639D02*
X0240639Y0238139D01*
X0240639Y0248139D02*
X0240639Y0269389D01*
X0244389Y0275639D02*
X0246889Y0186889D01*
X0251889Y0176889D01*
X0245639Y0178139D02*
X0220639Y0178139D01*
X0220639Y0179389D01*
X0220639Y0220639D01*
X0224389Y0218139D02*
X0224389Y0238139D01*
X0203139Y0224389D02*
X0196889Y0229389D01*
X0196889Y0239389D01*
X0216889Y0191889D02*
X0216889Y0183139D01*
X0204389Y0169389D02*
X0200639Y0165639D01*
X0195639Y0165639D01*
X0259389Y0234389D02*
X0259389Y0248139D01*
X0278139Y0291889D02*
X0278139Y0299389D01*
X0229389Y0334389D02*
X0229389Y0350865D01*
X0224389Y0346889D02*
X0224389Y0341889D01*
X0225412Y0339389D01*
X0218365Y0339389D02*
X0218139Y0341889D01*
X0218139Y0346889D01*
X0216889Y0348139D01*
X0216879Y0349270D01*
X0221889Y0349389D02*
X0224389Y0346889D01*
X0214389Y0343139D02*
X0214389Y0334389D01*
X0214389Y0343139D02*
X0209389Y0348139D01*
X0209398Y0349270D01*
X0209389Y0349389D01*
X0205639Y0353139D01*
X0205639Y0391889D01*
X0135639Y0391889D01*
X0131889Y0388139D01*
X0131889Y0381889D01*
X0136889Y0376889D01*
X0130639Y0416889D02*
X0250639Y0416889D01*
X0259389Y0425639D01*
X0259389Y0426889D01*
X0264389Y0431889D01*
X0239389Y0366889D02*
X0239162Y0366889D01*
X0239389Y0366889D02*
X0239389Y0358139D01*
X0214389Y0358139D02*
X0214389Y0356889D01*
X0214389Y0358139D02*
X0213139Y0359389D01*
X0213139Y0359507D01*
X0141889Y0321889D02*
X0141889Y0308139D01*
X0141889Y0321889D02*
X0136889Y0326889D01*
D21*
X0141889Y0308139D03*
X0145639Y0275639D03*
X0196889Y0239389D03*
X0203139Y0224389D03*
X0220639Y0220639D03*
X0240639Y0231889D03*
X0243139Y0226889D03*
X0251889Y0223139D03*
X0268139Y0218139D03*
X0291889Y0213139D03*
X0294389Y0179389D03*
X0283139Y0136889D03*
X0276889Y0106889D03*
X0251889Y0176889D03*
X0245639Y0178139D03*
X0220639Y0179389D03*
X0248139Y0254389D03*
X0244389Y0275639D03*
X0263139Y0304389D03*
X0264389Y0311889D03*
X0205639Y0319389D03*
X0291889Y0400639D03*
X0264389Y0431889D03*
X0231889Y0414389D03*
X0323139Y0273139D03*
X0418139Y0288139D03*
D22*
X0240639Y0238139D03*
X0179389Y0228139D03*
X0176889Y0210639D03*
D23*
X0145639Y0275639D02*
X0145639Y0378139D01*
X0136889Y0386889D01*
X0209389Y0361889D02*
X0211889Y0364389D01*
X0216889Y0364389D01*
X0216889Y0366889D01*
X0231889Y0366889D01*
X0232115Y0366889D01*
X0231889Y0366889D02*
X0231889Y0404389D01*
X0356889Y0404389D01*
X0356889Y0366889D01*
X0356889Y0288139D01*
X0288139Y0219389D01*
X0288139Y0141889D01*
X0283139Y0136889D01*
X0323139Y0273139D02*
X0261889Y0334389D01*
X0244389Y0335432D01*
X0261889Y0334389D02*
X0261889Y0370639D01*
X0291889Y0400639D01*
X0231889Y0404389D02*
X0231889Y0414389D01*
X0216889Y0364389D02*
X0216889Y0360639D01*
X0216879Y0359507D01*
X0209398Y0359507D02*
X0209389Y0360639D01*
X0209389Y0361889D01*
M02*
