G75*
%MOIN*%
%OFA0B0*%
%FSLAX25Y25*%
%IPPOS*%
%LPD*%
%AMOC8*
5,1,8,0,0,1.08239X$1,22.5*
%
%ADD10C,0.01600*%
%ADD11C,0.00400*%
%ADD12C,0.00600*%
%ADD13C,0.00500*%
%ADD14C,0.00000*%
%ADD15C,0.00472*%
%ADD16C,0.00300*%
D10*
X0116800Y0116800D02*
X0116800Y0251800D01*
X0001800Y0251800D01*
X0001800Y0268050D01*
X0001800Y0275550D02*
X0001800Y0290550D01*
X0001800Y0291800D02*
X0116800Y0291800D01*
X0116800Y0426800D01*
X0251800Y0426800D01*
X0251800Y0541800D01*
X0268050Y0541800D01*
X0275550Y0541800D02*
X0291800Y0541800D01*
X0291800Y0426800D01*
X0426800Y0426800D01*
X0426800Y0291800D01*
X0541800Y0291800D01*
X0541800Y0275550D01*
X0541800Y0268050D02*
X0541800Y0251800D01*
X0426800Y0251800D01*
X0426800Y0116800D01*
X0291800Y0116800D01*
X0291800Y0001800D01*
X0275550Y0001800D01*
X0268050Y0001800D02*
X0251800Y0001800D01*
X0251800Y0116800D01*
X0116800Y0116800D01*
D11*
X0251625Y0224500D02*
X0254694Y0224500D01*
X0253159Y0224500D02*
X0253159Y0229104D01*
X0254694Y0227569D01*
X0256229Y0229104D02*
X0259298Y0229104D01*
X0257763Y0229104D02*
X0257763Y0224500D01*
X0262367Y0224500D02*
X0262367Y0229104D01*
X0260833Y0229104D02*
X0263902Y0229104D01*
X0265437Y0227569D02*
X0265437Y0224500D01*
X0265437Y0226802D02*
X0268506Y0226802D01*
X0268506Y0227569D02*
X0266971Y0229104D01*
X0265437Y0227569D01*
X0268506Y0227569D02*
X0268506Y0224500D01*
X0270041Y0225267D02*
X0270808Y0224500D01*
X0273110Y0224500D01*
X0273110Y0229104D01*
X0270808Y0229104D01*
X0270041Y0228337D01*
X0270041Y0227569D01*
X0270808Y0226802D01*
X0273110Y0226802D01*
X0270808Y0226802D02*
X0270041Y0226035D01*
X0270041Y0225267D01*
X0159277Y0314500D02*
X0156208Y0314500D01*
X0156208Y0319104D01*
X0154673Y0318337D02*
X0153906Y0319104D01*
X0152371Y0319104D01*
X0151604Y0318337D01*
X0151604Y0315267D01*
X0152371Y0314500D01*
X0153906Y0314500D01*
X0154673Y0315267D01*
X0150069Y0315267D02*
X0150069Y0316035D01*
X0149302Y0316802D01*
X0147767Y0316802D01*
X0147000Y0317569D01*
X0147000Y0318337D01*
X0147767Y0319104D01*
X0149302Y0319104D01*
X0150069Y0318337D01*
X0150069Y0315267D02*
X0149302Y0314500D01*
X0147767Y0314500D01*
X0147000Y0315267D01*
X0147767Y0324500D02*
X0147000Y0325267D01*
X0147767Y0324500D02*
X0149302Y0324500D01*
X0150069Y0325267D01*
X0150069Y0326035D01*
X0149302Y0326802D01*
X0147767Y0326802D01*
X0147000Y0327569D01*
X0147000Y0328337D01*
X0147767Y0329104D01*
X0149302Y0329104D01*
X0150069Y0328337D01*
X0151604Y0329104D02*
X0153906Y0329104D01*
X0154673Y0328337D01*
X0154673Y0325267D01*
X0153906Y0324500D01*
X0151604Y0324500D01*
X0151604Y0329104D01*
X0156208Y0327569D02*
X0156208Y0324500D01*
X0156208Y0326802D02*
X0159277Y0326802D01*
X0159277Y0327569D02*
X0159277Y0324500D01*
X0159277Y0327569D02*
X0157742Y0329104D01*
X0156208Y0327569D01*
X0154673Y0334500D02*
X0151604Y0334500D01*
X0151604Y0339104D01*
X0154673Y0339104D01*
X0153139Y0336802D02*
X0151604Y0336802D01*
X0150069Y0336802D02*
X0149302Y0336035D01*
X0147000Y0336035D01*
X0147000Y0334500D02*
X0147000Y0339104D01*
X0149302Y0339104D01*
X0150069Y0338337D01*
X0150069Y0336802D01*
X0156208Y0336802D02*
X0159277Y0336802D01*
X0158510Y0334500D02*
X0158510Y0339104D01*
X0156208Y0336802D01*
X0156975Y0344500D02*
X0156208Y0345267D01*
X0156975Y0344500D02*
X0158510Y0344500D01*
X0159277Y0345267D01*
X0159277Y0346035D01*
X0158510Y0346802D01*
X0157742Y0346802D01*
X0158510Y0346802D02*
X0159277Y0347569D01*
X0159277Y0348337D01*
X0158510Y0349104D01*
X0156975Y0349104D01*
X0156208Y0348337D01*
X0154673Y0349104D02*
X0151604Y0349104D01*
X0151604Y0344500D01*
X0154673Y0344500D01*
X0153139Y0346802D02*
X0151604Y0346802D01*
X0150069Y0346802D02*
X0149302Y0346035D01*
X0147000Y0346035D01*
X0147000Y0344500D02*
X0147000Y0349104D01*
X0149302Y0349104D01*
X0150069Y0348337D01*
X0150069Y0346802D01*
X0151604Y0354500D02*
X0154673Y0354500D01*
X0156208Y0355267D02*
X0156975Y0354500D01*
X0158510Y0354500D01*
X0159277Y0355267D01*
X0159277Y0356802D01*
X0158510Y0357569D01*
X0157742Y0357569D01*
X0156208Y0356802D01*
X0156208Y0359104D01*
X0159277Y0359104D01*
X0154673Y0359104D02*
X0151604Y0359104D01*
X0151604Y0354500D01*
X0151604Y0356802D02*
X0153139Y0356802D01*
X0150069Y0356802D02*
X0149302Y0356035D01*
X0147000Y0356035D01*
X0147000Y0354500D02*
X0147000Y0359104D01*
X0149302Y0359104D01*
X0150069Y0358337D01*
X0150069Y0356802D01*
X0151604Y0364500D02*
X0153906Y0364500D01*
X0154673Y0365267D01*
X0154673Y0366035D01*
X0153906Y0366802D01*
X0151604Y0366802D01*
X0150069Y0366802D02*
X0149302Y0366035D01*
X0147000Y0366035D01*
X0147000Y0364500D02*
X0147000Y0369104D01*
X0149302Y0369104D01*
X0150069Y0368337D01*
X0150069Y0366802D01*
X0151604Y0369104D02*
X0153906Y0369104D01*
X0154673Y0368337D01*
X0154673Y0367569D01*
X0153906Y0366802D01*
X0156208Y0366802D02*
X0157742Y0367569D01*
X0158510Y0367569D01*
X0159277Y0366802D01*
X0159277Y0365267D01*
X0158510Y0364500D01*
X0156975Y0364500D01*
X0156208Y0365267D01*
X0156208Y0366802D02*
X0156208Y0369104D01*
X0159277Y0369104D01*
X0160044Y0374500D02*
X0161579Y0376035D01*
X0161579Y0379104D01*
X0158510Y0379104D02*
X0158510Y0376035D01*
X0160044Y0374500D01*
X0156975Y0375267D02*
X0156208Y0374500D01*
X0154673Y0374500D01*
X0153906Y0375267D01*
X0156975Y0378337D01*
X0156975Y0375267D01*
X0153906Y0375267D02*
X0153906Y0378337D01*
X0154673Y0379104D01*
X0156208Y0379104D01*
X0156975Y0378337D01*
X0152371Y0375267D02*
X0152371Y0374500D01*
X0151604Y0374500D01*
X0151604Y0375267D01*
X0152371Y0375267D01*
X0150069Y0375267D02*
X0149302Y0374500D01*
X0147767Y0374500D01*
X0147000Y0375267D01*
X0148535Y0376802D02*
X0149302Y0376802D01*
X0150069Y0376035D01*
X0150069Y0375267D01*
X0149302Y0376802D02*
X0150069Y0377569D01*
X0150069Y0378337D01*
X0149302Y0379104D01*
X0147767Y0379104D01*
X0147000Y0378337D01*
X0148535Y0384500D02*
X0150069Y0386035D01*
X0150069Y0389104D01*
X0151604Y0389104D02*
X0153906Y0389104D01*
X0154673Y0388337D01*
X0154673Y0387569D01*
X0153906Y0386802D01*
X0151604Y0386802D01*
X0153906Y0386802D02*
X0154673Y0386035D01*
X0154673Y0385267D01*
X0153906Y0384500D01*
X0151604Y0384500D01*
X0151604Y0389104D01*
X0147000Y0389104D02*
X0147000Y0386035D01*
X0148535Y0384500D01*
X0156208Y0384500D02*
X0156208Y0387569D01*
X0157742Y0389104D01*
X0159277Y0387569D01*
X0159277Y0384500D01*
X0159277Y0386802D02*
X0156208Y0386802D01*
X0160812Y0389104D02*
X0163881Y0389104D01*
X0162346Y0389104D02*
X0162346Y0384500D01*
X0160812Y0393733D02*
X0163881Y0393733D01*
X0165416Y0395267D02*
X0166183Y0394500D01*
X0167718Y0394500D01*
X0168485Y0395267D01*
X0168485Y0396802D01*
X0166950Y0396802D01*
X0165416Y0398337D02*
X0165416Y0395267D01*
X0165416Y0398337D02*
X0166183Y0399104D01*
X0167718Y0399104D01*
X0168485Y0398337D01*
X0170020Y0399104D02*
X0173089Y0394500D01*
X0173089Y0399104D01*
X0174624Y0399104D02*
X0174624Y0394500D01*
X0176926Y0394500D01*
X0177693Y0395267D01*
X0177693Y0398337D01*
X0176926Y0399104D01*
X0174624Y0399104D01*
X0170020Y0399104D02*
X0170020Y0394500D01*
X0159277Y0399104D02*
X0156208Y0399104D01*
X0157742Y0399104D02*
X0157742Y0394500D01*
X0154673Y0394500D02*
X0154673Y0397569D01*
X0153139Y0399104D01*
X0151604Y0397569D01*
X0151604Y0394500D01*
X0150069Y0395267D02*
X0149302Y0394500D01*
X0147000Y0394500D01*
X0147000Y0399104D01*
X0149302Y0399104D01*
X0150069Y0398337D01*
X0150069Y0397569D01*
X0149302Y0396802D01*
X0147000Y0396802D01*
X0149302Y0396802D02*
X0150069Y0396035D01*
X0150069Y0395267D01*
X0151604Y0396802D02*
X0154673Y0396802D01*
X0154673Y0404500D02*
X0154673Y0409104D01*
X0156208Y0409104D02*
X0158510Y0409104D01*
X0159277Y0408337D01*
X0159277Y0405267D01*
X0158510Y0404500D01*
X0156208Y0404500D01*
X0156208Y0409104D01*
X0151604Y0409104D02*
X0151604Y0404500D01*
X0150069Y0405267D02*
X0150069Y0406802D01*
X0148535Y0406802D01*
X0150069Y0408337D02*
X0149302Y0409104D01*
X0147767Y0409104D01*
X0147000Y0408337D01*
X0147000Y0405267D01*
X0147767Y0404500D01*
X0149302Y0404500D01*
X0150069Y0405267D01*
X0151604Y0409104D02*
X0154673Y0404500D01*
X0151604Y0369104D02*
X0151604Y0364500D01*
X0175625Y0344400D02*
X0175625Y0342865D01*
X0176393Y0342098D01*
X0178695Y0342098D01*
X0177160Y0342098D02*
X0175625Y0340563D01*
X0178695Y0340563D02*
X0178695Y0345167D01*
X0176393Y0345167D01*
X0175625Y0344400D01*
X0180229Y0344400D02*
X0180229Y0341330D01*
X0180997Y0340563D01*
X0182531Y0340563D01*
X0183299Y0341330D01*
X0183299Y0344400D01*
X0182531Y0345167D01*
X0180997Y0345167D01*
X0180229Y0344400D01*
X0184833Y0345167D02*
X0187903Y0345167D01*
X0186368Y0345167D02*
X0186368Y0340563D01*
X0189437Y0340563D02*
X0189437Y0343632D01*
X0190972Y0345167D01*
X0192506Y0343632D01*
X0192506Y0340563D01*
X0194041Y0340563D02*
X0197110Y0340563D01*
X0197110Y0345167D01*
X0198645Y0345167D02*
X0198645Y0341330D01*
X0199412Y0340563D01*
X0200947Y0340563D01*
X0201714Y0341330D01*
X0201714Y0345167D01*
X0203249Y0344400D02*
X0204016Y0345167D01*
X0205551Y0345167D01*
X0206318Y0344400D01*
X0206318Y0341330D01*
X0205551Y0340563D01*
X0204016Y0340563D01*
X0203249Y0341330D01*
X0203249Y0342865D01*
X0204784Y0342865D01*
X0207853Y0345167D02*
X0210922Y0345167D01*
X0210922Y0340563D01*
X0207853Y0340563D01*
X0209388Y0342865D02*
X0210922Y0342865D01*
X0212457Y0342865D02*
X0213224Y0342098D01*
X0215526Y0342098D01*
X0213991Y0342098D02*
X0212457Y0340563D01*
X0212457Y0342865D02*
X0212457Y0344400D01*
X0213224Y0345167D01*
X0215526Y0345167D01*
X0215526Y0340563D01*
X0217061Y0339796D02*
X0220130Y0339796D01*
X0221665Y0340563D02*
X0224734Y0340563D01*
X0224734Y0345167D01*
X0221665Y0345167D01*
X0223199Y0342865D02*
X0224734Y0342865D01*
X0226269Y0342865D02*
X0227803Y0342865D01*
X0226269Y0342865D02*
X0226269Y0341330D01*
X0227036Y0340563D01*
X0228571Y0340563D01*
X0229338Y0341330D01*
X0229338Y0344400D01*
X0228571Y0345167D01*
X0227036Y0345167D01*
X0226269Y0344400D01*
X0230872Y0343632D02*
X0230872Y0340563D01*
X0230872Y0342865D02*
X0233942Y0342865D01*
X0233942Y0343632D02*
X0232407Y0345167D01*
X0230872Y0343632D01*
X0233942Y0343632D02*
X0233942Y0340563D01*
X0237011Y0340563D02*
X0237011Y0345167D01*
X0238546Y0345167D02*
X0235476Y0345167D01*
X0240080Y0340563D02*
X0243150Y0340563D01*
X0243150Y0345167D01*
X0244684Y0344400D02*
X0244684Y0341330D01*
X0245452Y0340563D01*
X0246986Y0340563D01*
X0247754Y0341330D01*
X0247754Y0344400D01*
X0246986Y0345167D01*
X0245452Y0345167D01*
X0244684Y0344400D01*
X0249288Y0345167D02*
X0249288Y0342098D01*
X0250823Y0340563D01*
X0252357Y0342098D01*
X0252357Y0345167D01*
X0258531Y0344302D02*
X0261600Y0344302D01*
X0271031Y0344302D02*
X0274100Y0344302D01*
X0272565Y0345837D02*
X0272565Y0342767D01*
X0192506Y0342865D02*
X0189437Y0342865D01*
D12*
X0207452Y0351111D02*
X0207822Y0351111D01*
X0207452Y0351111D02*
X0207452Y0357489D01*
X0207822Y0357489D01*
X0210995Y0357489D02*
X0211365Y0357489D01*
X0214735Y0357489D02*
X0215105Y0357489D01*
X0218278Y0357489D02*
X0218648Y0357489D01*
X0218648Y0351111D01*
X0218278Y0351111D01*
X0215105Y0351111D02*
X0210995Y0351111D01*
X0268650Y0541889D02*
X0268255Y0541807D01*
X0267861Y0541715D01*
X0267470Y0541614D01*
X0267081Y0541503D01*
X0266696Y0541383D01*
X0266313Y0541253D01*
X0265934Y0541114D01*
X0265558Y0540966D01*
X0265186Y0540809D01*
X0264817Y0540642D01*
X0264453Y0540467D01*
X0264094Y0540283D01*
X0263739Y0540090D01*
X0263389Y0539888D01*
X0263044Y0539678D01*
X0262704Y0539460D01*
X0262369Y0539233D01*
X0262040Y0538998D01*
X0261718Y0538755D01*
X0261401Y0538504D01*
X0261090Y0538246D01*
X0260786Y0537980D01*
X0260488Y0537707D01*
X0260197Y0537426D01*
X0259913Y0537139D01*
X0259637Y0536844D01*
X0259367Y0536543D01*
X0259105Y0536236D01*
X0258851Y0535922D01*
X0258604Y0535602D01*
X0258365Y0535276D01*
X0258134Y0534944D01*
X0257912Y0534607D01*
X0257698Y0534264D01*
X0257492Y0533917D01*
X0257295Y0533564D01*
X0257106Y0533207D01*
X0256927Y0532845D01*
X0256756Y0532479D01*
X0256594Y0532108D01*
X0256441Y0531734D01*
X0256298Y0531357D01*
X0256164Y0530975D01*
X0256039Y0530591D01*
X0255924Y0530204D01*
X0255818Y0529814D01*
X0255721Y0529422D01*
X0255635Y0529027D01*
X0255558Y0528630D01*
X0255491Y0528232D01*
X0255433Y0527832D01*
X0255386Y0527431D01*
X0255348Y0527028D01*
X0255320Y0526625D01*
X0255302Y0526222D01*
X0255294Y0525818D01*
X0255295Y0525414D01*
X0255307Y0525010D01*
X0255328Y0524606D01*
X0255360Y0524203D01*
X0255401Y0523802D01*
X0255452Y0523401D01*
X0255513Y0523001D01*
X0255583Y0522603D01*
X0255663Y0522207D01*
X0255753Y0521814D01*
X0255853Y0521422D01*
X0255962Y0521033D01*
X0256081Y0520647D01*
X0256209Y0520263D01*
X0256346Y0519883D01*
X0256493Y0519507D01*
X0256649Y0519134D01*
X0256813Y0518765D01*
X0256987Y0518400D01*
X0257170Y0518040D01*
X0257361Y0517684D01*
X0257562Y0517333D01*
X0257770Y0516987D01*
X0257987Y0516647D01*
X0258213Y0516311D01*
X0258446Y0515981D01*
X0258688Y0515658D01*
X0258937Y0515340D01*
X0259194Y0515028D01*
X0259459Y0514723D01*
X0259731Y0514424D01*
X0260010Y0514132D01*
X0260296Y0513847D01*
X0260590Y0513569D01*
X0260889Y0513298D01*
X0261196Y0513035D01*
X0261509Y0512779D01*
X0261828Y0512531D01*
X0262153Y0512291D01*
X0262483Y0512059D01*
X0262820Y0511835D01*
X0263161Y0511619D01*
X0263508Y0511412D01*
X0263860Y0511213D01*
X0264217Y0511023D01*
X0264578Y0510842D01*
X0264943Y0510669D01*
X0265313Y0510506D01*
X0265686Y0510352D01*
X0266063Y0510207D01*
X0266444Y0510071D01*
X0266828Y0509945D01*
X0267214Y0509828D01*
X0267604Y0509720D01*
X0267996Y0509622D01*
X0268390Y0509534D01*
X0268787Y0509455D01*
X0269185Y0509386D01*
X0269584Y0509327D01*
X0269985Y0509278D01*
X0270388Y0509239D01*
X0270790Y0509209D01*
X0271194Y0509189D01*
X0271598Y0509179D01*
X0272002Y0509179D01*
X0272406Y0509189D01*
X0272810Y0509209D01*
X0273212Y0509239D01*
X0273615Y0509278D01*
X0274016Y0509327D01*
X0274415Y0509386D01*
X0274813Y0509455D01*
X0275210Y0509534D01*
X0275604Y0509622D01*
X0275996Y0509720D01*
X0276386Y0509828D01*
X0276772Y0509945D01*
X0277156Y0510071D01*
X0277537Y0510207D01*
X0277914Y0510352D01*
X0278287Y0510506D01*
X0278657Y0510669D01*
X0279022Y0510842D01*
X0279383Y0511023D01*
X0279740Y0511213D01*
X0280092Y0511412D01*
X0280439Y0511619D01*
X0280780Y0511835D01*
X0281117Y0512059D01*
X0281447Y0512291D01*
X0281772Y0512531D01*
X0282091Y0512779D01*
X0282404Y0513035D01*
X0282711Y0513298D01*
X0283010Y0513569D01*
X0283304Y0513847D01*
X0283590Y0514132D01*
X0283869Y0514424D01*
X0284141Y0514723D01*
X0284406Y0515028D01*
X0284663Y0515340D01*
X0284912Y0515658D01*
X0285154Y0515981D01*
X0285387Y0516311D01*
X0285613Y0516647D01*
X0285830Y0516987D01*
X0286038Y0517333D01*
X0286239Y0517684D01*
X0286430Y0518040D01*
X0286613Y0518400D01*
X0286787Y0518765D01*
X0286951Y0519134D01*
X0287107Y0519507D01*
X0287254Y0519883D01*
X0287391Y0520263D01*
X0287519Y0520647D01*
X0287638Y0521033D01*
X0287747Y0521422D01*
X0287847Y0521814D01*
X0287937Y0522207D01*
X0288017Y0522603D01*
X0288087Y0523001D01*
X0288148Y0523401D01*
X0288199Y0523802D01*
X0288240Y0524203D01*
X0288272Y0524606D01*
X0288293Y0525010D01*
X0288305Y0525414D01*
X0288306Y0525818D01*
X0288298Y0526222D01*
X0288280Y0526625D01*
X0288252Y0527028D01*
X0288214Y0527431D01*
X0288167Y0527832D01*
X0288109Y0528232D01*
X0288042Y0528630D01*
X0287965Y0529027D01*
X0287879Y0529422D01*
X0287782Y0529814D01*
X0287676Y0530204D01*
X0287561Y0530591D01*
X0287436Y0530975D01*
X0287302Y0531357D01*
X0287159Y0531734D01*
X0287006Y0532108D01*
X0286844Y0532479D01*
X0286673Y0532845D01*
X0286494Y0533207D01*
X0286305Y0533564D01*
X0286108Y0533917D01*
X0285902Y0534264D01*
X0285688Y0534607D01*
X0285466Y0534944D01*
X0285235Y0535276D01*
X0284996Y0535602D01*
X0284749Y0535922D01*
X0284495Y0536236D01*
X0284233Y0536543D01*
X0283963Y0536844D01*
X0283687Y0537139D01*
X0283403Y0537426D01*
X0283112Y0537707D01*
X0282814Y0537980D01*
X0282510Y0538246D01*
X0282199Y0538504D01*
X0281882Y0538755D01*
X0281560Y0538998D01*
X0281231Y0539233D01*
X0280896Y0539460D01*
X0280556Y0539678D01*
X0280211Y0539888D01*
X0279861Y0540090D01*
X0279506Y0540283D01*
X0279147Y0540467D01*
X0278783Y0540642D01*
X0278414Y0540809D01*
X0278042Y0540966D01*
X0277666Y0541114D01*
X0277287Y0541253D01*
X0276904Y0541383D01*
X0276519Y0541503D01*
X0276130Y0541614D01*
X0275739Y0541715D01*
X0275345Y0541807D01*
X0274950Y0541889D01*
X0541889Y0274950D02*
X0541807Y0275345D01*
X0541715Y0275739D01*
X0541614Y0276130D01*
X0541503Y0276519D01*
X0541383Y0276904D01*
X0541253Y0277287D01*
X0541114Y0277666D01*
X0540966Y0278042D01*
X0540809Y0278414D01*
X0540642Y0278783D01*
X0540467Y0279147D01*
X0540283Y0279506D01*
X0540090Y0279861D01*
X0539888Y0280211D01*
X0539678Y0280556D01*
X0539460Y0280896D01*
X0539233Y0281231D01*
X0538998Y0281560D01*
X0538755Y0281882D01*
X0538504Y0282199D01*
X0538246Y0282510D01*
X0537980Y0282814D01*
X0537707Y0283112D01*
X0537426Y0283403D01*
X0537139Y0283687D01*
X0536844Y0283963D01*
X0536543Y0284233D01*
X0536236Y0284495D01*
X0535922Y0284749D01*
X0535602Y0284996D01*
X0535276Y0285235D01*
X0534944Y0285466D01*
X0534607Y0285688D01*
X0534264Y0285902D01*
X0533917Y0286108D01*
X0533564Y0286305D01*
X0533207Y0286494D01*
X0532845Y0286673D01*
X0532479Y0286844D01*
X0532108Y0287006D01*
X0531734Y0287159D01*
X0531357Y0287302D01*
X0530975Y0287436D01*
X0530591Y0287561D01*
X0530204Y0287676D01*
X0529814Y0287782D01*
X0529422Y0287879D01*
X0529027Y0287965D01*
X0528630Y0288042D01*
X0528232Y0288109D01*
X0527832Y0288167D01*
X0527431Y0288214D01*
X0527028Y0288252D01*
X0526625Y0288280D01*
X0526222Y0288298D01*
X0525818Y0288306D01*
X0525414Y0288305D01*
X0525010Y0288293D01*
X0524606Y0288272D01*
X0524203Y0288240D01*
X0523802Y0288199D01*
X0523401Y0288148D01*
X0523001Y0288087D01*
X0522603Y0288017D01*
X0522207Y0287937D01*
X0521814Y0287847D01*
X0521422Y0287747D01*
X0521033Y0287638D01*
X0520647Y0287519D01*
X0520263Y0287391D01*
X0519883Y0287254D01*
X0519507Y0287107D01*
X0519134Y0286951D01*
X0518765Y0286787D01*
X0518400Y0286613D01*
X0518040Y0286430D01*
X0517684Y0286239D01*
X0517333Y0286038D01*
X0516987Y0285830D01*
X0516647Y0285613D01*
X0516311Y0285387D01*
X0515981Y0285154D01*
X0515658Y0284912D01*
X0515340Y0284663D01*
X0515028Y0284406D01*
X0514723Y0284141D01*
X0514424Y0283869D01*
X0514132Y0283590D01*
X0513847Y0283304D01*
X0513569Y0283010D01*
X0513298Y0282711D01*
X0513035Y0282404D01*
X0512779Y0282091D01*
X0512531Y0281772D01*
X0512291Y0281447D01*
X0512059Y0281117D01*
X0511835Y0280780D01*
X0511619Y0280439D01*
X0511412Y0280092D01*
X0511213Y0279740D01*
X0511023Y0279383D01*
X0510842Y0279022D01*
X0510669Y0278657D01*
X0510506Y0278287D01*
X0510352Y0277914D01*
X0510207Y0277537D01*
X0510071Y0277156D01*
X0509945Y0276772D01*
X0509828Y0276386D01*
X0509720Y0275996D01*
X0509622Y0275604D01*
X0509534Y0275210D01*
X0509455Y0274813D01*
X0509386Y0274415D01*
X0509327Y0274016D01*
X0509278Y0273615D01*
X0509239Y0273212D01*
X0509209Y0272810D01*
X0509189Y0272406D01*
X0509179Y0272002D01*
X0509179Y0271598D01*
X0509189Y0271194D01*
X0509209Y0270790D01*
X0509239Y0270388D01*
X0509278Y0269985D01*
X0509327Y0269584D01*
X0509386Y0269185D01*
X0509455Y0268787D01*
X0509534Y0268390D01*
X0509622Y0267996D01*
X0509720Y0267604D01*
X0509828Y0267214D01*
X0509945Y0266828D01*
X0510071Y0266444D01*
X0510207Y0266063D01*
X0510352Y0265686D01*
X0510506Y0265313D01*
X0510669Y0264943D01*
X0510842Y0264578D01*
X0511023Y0264217D01*
X0511213Y0263860D01*
X0511412Y0263508D01*
X0511619Y0263161D01*
X0511835Y0262820D01*
X0512059Y0262483D01*
X0512291Y0262153D01*
X0512531Y0261828D01*
X0512779Y0261509D01*
X0513035Y0261196D01*
X0513298Y0260889D01*
X0513569Y0260590D01*
X0513847Y0260296D01*
X0514132Y0260010D01*
X0514424Y0259731D01*
X0514723Y0259459D01*
X0515028Y0259194D01*
X0515340Y0258937D01*
X0515658Y0258688D01*
X0515981Y0258446D01*
X0516311Y0258213D01*
X0516647Y0257987D01*
X0516987Y0257770D01*
X0517333Y0257562D01*
X0517684Y0257361D01*
X0518040Y0257170D01*
X0518400Y0256987D01*
X0518765Y0256813D01*
X0519134Y0256649D01*
X0519507Y0256493D01*
X0519883Y0256346D01*
X0520263Y0256209D01*
X0520647Y0256081D01*
X0521033Y0255962D01*
X0521422Y0255853D01*
X0521814Y0255753D01*
X0522207Y0255663D01*
X0522603Y0255583D01*
X0523001Y0255513D01*
X0523401Y0255452D01*
X0523802Y0255401D01*
X0524203Y0255360D01*
X0524606Y0255328D01*
X0525010Y0255307D01*
X0525414Y0255295D01*
X0525818Y0255294D01*
X0526222Y0255302D01*
X0526625Y0255320D01*
X0527028Y0255348D01*
X0527431Y0255386D01*
X0527832Y0255433D01*
X0528232Y0255491D01*
X0528630Y0255558D01*
X0529027Y0255635D01*
X0529422Y0255721D01*
X0529814Y0255818D01*
X0530204Y0255924D01*
X0530591Y0256039D01*
X0530975Y0256164D01*
X0531357Y0256298D01*
X0531734Y0256441D01*
X0532108Y0256594D01*
X0532479Y0256756D01*
X0532845Y0256927D01*
X0533207Y0257106D01*
X0533564Y0257295D01*
X0533917Y0257492D01*
X0534264Y0257698D01*
X0534607Y0257912D01*
X0534944Y0258134D01*
X0535276Y0258365D01*
X0535602Y0258604D01*
X0535922Y0258851D01*
X0536236Y0259105D01*
X0536543Y0259367D01*
X0536844Y0259637D01*
X0537139Y0259913D01*
X0537426Y0260197D01*
X0537707Y0260488D01*
X0537980Y0260786D01*
X0538246Y0261090D01*
X0538504Y0261401D01*
X0538755Y0261718D01*
X0538998Y0262040D01*
X0539233Y0262369D01*
X0539460Y0262704D01*
X0539678Y0263044D01*
X0539888Y0263389D01*
X0540090Y0263739D01*
X0540283Y0264094D01*
X0540467Y0264453D01*
X0540642Y0264817D01*
X0540809Y0265186D01*
X0540966Y0265558D01*
X0541114Y0265934D01*
X0541253Y0266313D01*
X0541383Y0266696D01*
X0541503Y0267081D01*
X0541614Y0267470D01*
X0541715Y0267861D01*
X0541807Y0268255D01*
X0541889Y0268650D01*
X0274950Y0001711D02*
X0275345Y0001793D01*
X0275739Y0001885D01*
X0276130Y0001986D01*
X0276519Y0002097D01*
X0276904Y0002217D01*
X0277287Y0002347D01*
X0277666Y0002486D01*
X0278042Y0002634D01*
X0278414Y0002791D01*
X0278783Y0002958D01*
X0279147Y0003133D01*
X0279506Y0003317D01*
X0279861Y0003510D01*
X0280211Y0003712D01*
X0280556Y0003922D01*
X0280896Y0004140D01*
X0281231Y0004367D01*
X0281560Y0004602D01*
X0281882Y0004845D01*
X0282199Y0005096D01*
X0282510Y0005354D01*
X0282814Y0005620D01*
X0283112Y0005893D01*
X0283403Y0006174D01*
X0283687Y0006461D01*
X0283963Y0006756D01*
X0284233Y0007057D01*
X0284495Y0007364D01*
X0284749Y0007678D01*
X0284996Y0007998D01*
X0285235Y0008324D01*
X0285466Y0008656D01*
X0285688Y0008993D01*
X0285902Y0009336D01*
X0286108Y0009683D01*
X0286305Y0010036D01*
X0286494Y0010393D01*
X0286673Y0010755D01*
X0286844Y0011121D01*
X0287006Y0011492D01*
X0287159Y0011866D01*
X0287302Y0012243D01*
X0287436Y0012625D01*
X0287561Y0013009D01*
X0287676Y0013396D01*
X0287782Y0013786D01*
X0287879Y0014178D01*
X0287965Y0014573D01*
X0288042Y0014970D01*
X0288109Y0015368D01*
X0288167Y0015768D01*
X0288214Y0016169D01*
X0288252Y0016572D01*
X0288280Y0016975D01*
X0288298Y0017378D01*
X0288306Y0017782D01*
X0288305Y0018186D01*
X0288293Y0018590D01*
X0288272Y0018994D01*
X0288240Y0019397D01*
X0288199Y0019798D01*
X0288148Y0020199D01*
X0288087Y0020599D01*
X0288017Y0020997D01*
X0287937Y0021393D01*
X0287847Y0021786D01*
X0287747Y0022178D01*
X0287638Y0022567D01*
X0287519Y0022953D01*
X0287391Y0023337D01*
X0287254Y0023717D01*
X0287107Y0024093D01*
X0286951Y0024466D01*
X0286787Y0024835D01*
X0286613Y0025200D01*
X0286430Y0025560D01*
X0286239Y0025916D01*
X0286038Y0026267D01*
X0285830Y0026613D01*
X0285613Y0026953D01*
X0285387Y0027289D01*
X0285154Y0027619D01*
X0284912Y0027942D01*
X0284663Y0028260D01*
X0284406Y0028572D01*
X0284141Y0028877D01*
X0283869Y0029176D01*
X0283590Y0029468D01*
X0283304Y0029753D01*
X0283010Y0030031D01*
X0282711Y0030302D01*
X0282404Y0030565D01*
X0282091Y0030821D01*
X0281772Y0031069D01*
X0281447Y0031309D01*
X0281117Y0031541D01*
X0280780Y0031765D01*
X0280439Y0031981D01*
X0280092Y0032188D01*
X0279740Y0032387D01*
X0279383Y0032577D01*
X0279022Y0032758D01*
X0278657Y0032931D01*
X0278287Y0033094D01*
X0277914Y0033248D01*
X0277537Y0033393D01*
X0277156Y0033529D01*
X0276772Y0033655D01*
X0276386Y0033772D01*
X0275996Y0033880D01*
X0275604Y0033978D01*
X0275210Y0034066D01*
X0274813Y0034145D01*
X0274415Y0034214D01*
X0274016Y0034273D01*
X0273615Y0034322D01*
X0273212Y0034361D01*
X0272810Y0034391D01*
X0272406Y0034411D01*
X0272002Y0034421D01*
X0271598Y0034421D01*
X0271194Y0034411D01*
X0270790Y0034391D01*
X0270388Y0034361D01*
X0269985Y0034322D01*
X0269584Y0034273D01*
X0269185Y0034214D01*
X0268787Y0034145D01*
X0268390Y0034066D01*
X0267996Y0033978D01*
X0267604Y0033880D01*
X0267214Y0033772D01*
X0266828Y0033655D01*
X0266444Y0033529D01*
X0266063Y0033393D01*
X0265686Y0033248D01*
X0265313Y0033094D01*
X0264943Y0032931D01*
X0264578Y0032758D01*
X0264217Y0032577D01*
X0263860Y0032387D01*
X0263508Y0032188D01*
X0263161Y0031981D01*
X0262820Y0031765D01*
X0262483Y0031541D01*
X0262153Y0031309D01*
X0261828Y0031069D01*
X0261509Y0030821D01*
X0261196Y0030565D01*
X0260889Y0030302D01*
X0260590Y0030031D01*
X0260296Y0029753D01*
X0260010Y0029468D01*
X0259731Y0029176D01*
X0259459Y0028877D01*
X0259194Y0028572D01*
X0258937Y0028260D01*
X0258688Y0027942D01*
X0258446Y0027619D01*
X0258213Y0027289D01*
X0257987Y0026953D01*
X0257770Y0026613D01*
X0257562Y0026267D01*
X0257361Y0025916D01*
X0257170Y0025560D01*
X0256987Y0025200D01*
X0256813Y0024835D01*
X0256649Y0024466D01*
X0256493Y0024093D01*
X0256346Y0023717D01*
X0256209Y0023337D01*
X0256081Y0022953D01*
X0255962Y0022567D01*
X0255853Y0022178D01*
X0255753Y0021786D01*
X0255663Y0021393D01*
X0255583Y0020997D01*
X0255513Y0020599D01*
X0255452Y0020199D01*
X0255401Y0019798D01*
X0255360Y0019397D01*
X0255328Y0018994D01*
X0255307Y0018590D01*
X0255295Y0018186D01*
X0255294Y0017782D01*
X0255302Y0017378D01*
X0255320Y0016975D01*
X0255348Y0016572D01*
X0255386Y0016169D01*
X0255433Y0015768D01*
X0255491Y0015368D01*
X0255558Y0014970D01*
X0255635Y0014573D01*
X0255721Y0014178D01*
X0255818Y0013786D01*
X0255924Y0013396D01*
X0256039Y0013009D01*
X0256164Y0012625D01*
X0256298Y0012243D01*
X0256441Y0011866D01*
X0256594Y0011492D01*
X0256756Y0011121D01*
X0256927Y0010755D01*
X0257106Y0010393D01*
X0257295Y0010036D01*
X0257492Y0009683D01*
X0257698Y0009336D01*
X0257912Y0008993D01*
X0258134Y0008656D01*
X0258365Y0008324D01*
X0258604Y0007998D01*
X0258851Y0007678D01*
X0259105Y0007364D01*
X0259367Y0007057D01*
X0259637Y0006756D01*
X0259913Y0006461D01*
X0260197Y0006174D01*
X0260488Y0005893D01*
X0260786Y0005620D01*
X0261090Y0005354D01*
X0261401Y0005096D01*
X0261718Y0004845D01*
X0262040Y0004602D01*
X0262369Y0004367D01*
X0262704Y0004140D01*
X0263044Y0003922D01*
X0263389Y0003712D01*
X0263739Y0003510D01*
X0264094Y0003317D01*
X0264453Y0003133D01*
X0264817Y0002958D01*
X0265186Y0002791D01*
X0265558Y0002634D01*
X0265934Y0002486D01*
X0266313Y0002347D01*
X0266696Y0002217D01*
X0267081Y0002097D01*
X0267470Y0001986D01*
X0267861Y0001885D01*
X0268255Y0001793D01*
X0268650Y0001711D01*
X0001711Y0268650D02*
X0001793Y0268255D01*
X0001885Y0267861D01*
X0001986Y0267470D01*
X0002097Y0267081D01*
X0002217Y0266696D01*
X0002347Y0266313D01*
X0002486Y0265934D01*
X0002634Y0265558D01*
X0002791Y0265186D01*
X0002958Y0264817D01*
X0003133Y0264453D01*
X0003317Y0264094D01*
X0003510Y0263739D01*
X0003712Y0263389D01*
X0003922Y0263044D01*
X0004140Y0262704D01*
X0004367Y0262369D01*
X0004602Y0262040D01*
X0004845Y0261718D01*
X0005096Y0261401D01*
X0005354Y0261090D01*
X0005620Y0260786D01*
X0005893Y0260488D01*
X0006174Y0260197D01*
X0006461Y0259913D01*
X0006756Y0259637D01*
X0007057Y0259367D01*
X0007364Y0259105D01*
X0007678Y0258851D01*
X0007998Y0258604D01*
X0008324Y0258365D01*
X0008656Y0258134D01*
X0008993Y0257912D01*
X0009336Y0257698D01*
X0009683Y0257492D01*
X0010036Y0257295D01*
X0010393Y0257106D01*
X0010755Y0256927D01*
X0011121Y0256756D01*
X0011492Y0256594D01*
X0011866Y0256441D01*
X0012243Y0256298D01*
X0012625Y0256164D01*
X0013009Y0256039D01*
X0013396Y0255924D01*
X0013786Y0255818D01*
X0014178Y0255721D01*
X0014573Y0255635D01*
X0014970Y0255558D01*
X0015368Y0255491D01*
X0015768Y0255433D01*
X0016169Y0255386D01*
X0016572Y0255348D01*
X0016975Y0255320D01*
X0017378Y0255302D01*
X0017782Y0255294D01*
X0018186Y0255295D01*
X0018590Y0255307D01*
X0018994Y0255328D01*
X0019397Y0255360D01*
X0019798Y0255401D01*
X0020199Y0255452D01*
X0020599Y0255513D01*
X0020997Y0255583D01*
X0021393Y0255663D01*
X0021786Y0255753D01*
X0022178Y0255853D01*
X0022567Y0255962D01*
X0022953Y0256081D01*
X0023337Y0256209D01*
X0023717Y0256346D01*
X0024093Y0256493D01*
X0024466Y0256649D01*
X0024835Y0256813D01*
X0025200Y0256987D01*
X0025560Y0257170D01*
X0025916Y0257361D01*
X0026267Y0257562D01*
X0026613Y0257770D01*
X0026953Y0257987D01*
X0027289Y0258213D01*
X0027619Y0258446D01*
X0027942Y0258688D01*
X0028260Y0258937D01*
X0028572Y0259194D01*
X0028877Y0259459D01*
X0029176Y0259731D01*
X0029468Y0260010D01*
X0029753Y0260296D01*
X0030031Y0260590D01*
X0030302Y0260889D01*
X0030565Y0261196D01*
X0030821Y0261509D01*
X0031069Y0261828D01*
X0031309Y0262153D01*
X0031541Y0262483D01*
X0031765Y0262820D01*
X0031981Y0263161D01*
X0032188Y0263508D01*
X0032387Y0263860D01*
X0032577Y0264217D01*
X0032758Y0264578D01*
X0032931Y0264943D01*
X0033094Y0265313D01*
X0033248Y0265686D01*
X0033393Y0266063D01*
X0033529Y0266444D01*
X0033655Y0266828D01*
X0033772Y0267214D01*
X0033880Y0267604D01*
X0033978Y0267996D01*
X0034066Y0268390D01*
X0034145Y0268787D01*
X0034214Y0269185D01*
X0034273Y0269584D01*
X0034322Y0269985D01*
X0034361Y0270388D01*
X0034391Y0270790D01*
X0034411Y0271194D01*
X0034421Y0271598D01*
X0034421Y0272002D01*
X0034411Y0272406D01*
X0034391Y0272810D01*
X0034361Y0273212D01*
X0034322Y0273615D01*
X0034273Y0274016D01*
X0034214Y0274415D01*
X0034145Y0274813D01*
X0034066Y0275210D01*
X0033978Y0275604D01*
X0033880Y0275996D01*
X0033772Y0276386D01*
X0033655Y0276772D01*
X0033529Y0277156D01*
X0033393Y0277537D01*
X0033248Y0277914D01*
X0033094Y0278287D01*
X0032931Y0278657D01*
X0032758Y0279022D01*
X0032577Y0279383D01*
X0032387Y0279740D01*
X0032188Y0280092D01*
X0031981Y0280439D01*
X0031765Y0280780D01*
X0031541Y0281117D01*
X0031309Y0281447D01*
X0031069Y0281772D01*
X0030821Y0282091D01*
X0030565Y0282404D01*
X0030302Y0282711D01*
X0030031Y0283010D01*
X0029753Y0283304D01*
X0029468Y0283590D01*
X0029176Y0283869D01*
X0028877Y0284141D01*
X0028572Y0284406D01*
X0028260Y0284663D01*
X0027942Y0284912D01*
X0027619Y0285154D01*
X0027289Y0285387D01*
X0026953Y0285613D01*
X0026613Y0285830D01*
X0026267Y0286038D01*
X0025916Y0286239D01*
X0025560Y0286430D01*
X0025200Y0286613D01*
X0024835Y0286787D01*
X0024466Y0286951D01*
X0024093Y0287107D01*
X0023717Y0287254D01*
X0023337Y0287391D01*
X0022953Y0287519D01*
X0022567Y0287638D01*
X0022178Y0287747D01*
X0021786Y0287847D01*
X0021393Y0287937D01*
X0020997Y0288017D01*
X0020599Y0288087D01*
X0020199Y0288148D01*
X0019798Y0288199D01*
X0019397Y0288240D01*
X0018994Y0288272D01*
X0018590Y0288293D01*
X0018186Y0288305D01*
X0017782Y0288306D01*
X0017378Y0288298D01*
X0016975Y0288280D01*
X0016572Y0288252D01*
X0016169Y0288214D01*
X0015768Y0288167D01*
X0015368Y0288109D01*
X0014970Y0288042D01*
X0014573Y0287965D01*
X0014178Y0287879D01*
X0013786Y0287782D01*
X0013396Y0287676D01*
X0013009Y0287561D01*
X0012625Y0287436D01*
X0012243Y0287302D01*
X0011866Y0287159D01*
X0011492Y0287006D01*
X0011121Y0286844D01*
X0010755Y0286673D01*
X0010393Y0286494D01*
X0010036Y0286305D01*
X0009683Y0286108D01*
X0009336Y0285902D01*
X0008993Y0285688D01*
X0008656Y0285466D01*
X0008324Y0285235D01*
X0007998Y0284996D01*
X0007678Y0284749D01*
X0007364Y0284495D01*
X0007057Y0284233D01*
X0006756Y0283963D01*
X0006461Y0283687D01*
X0006174Y0283403D01*
X0005893Y0283112D01*
X0005620Y0282814D01*
X0005354Y0282510D01*
X0005096Y0282199D01*
X0004845Y0281882D01*
X0004602Y0281560D01*
X0004367Y0281231D01*
X0004140Y0280896D01*
X0003922Y0280556D01*
X0003712Y0280211D01*
X0003510Y0279861D01*
X0003317Y0279506D01*
X0003133Y0279147D01*
X0002958Y0278783D01*
X0002791Y0278414D01*
X0002634Y0278042D01*
X0002486Y0277666D01*
X0002347Y0277287D01*
X0002217Y0276904D01*
X0002097Y0276519D01*
X0001986Y0276130D01*
X0001885Y0275739D01*
X0001793Y0275345D01*
X0001711Y0274950D01*
D13*
X0165343Y0270894D02*
X0165343Y0282706D01*
X0169280Y0282706D01*
X0169280Y0296485D01*
X0179123Y0296485D01*
X0179123Y0317607D01*
X0179125Y0317705D01*
X0179131Y0317803D01*
X0179140Y0317901D01*
X0179154Y0317998D01*
X0179171Y0318095D01*
X0179192Y0318191D01*
X0179217Y0318286D01*
X0179245Y0318380D01*
X0179278Y0318472D01*
X0179313Y0318564D01*
X0179353Y0318654D01*
X0179395Y0318742D01*
X0179442Y0318829D01*
X0179491Y0318913D01*
X0179544Y0318996D01*
X0179600Y0319076D01*
X0179660Y0319155D01*
X0179722Y0319231D01*
X0179787Y0319304D01*
X0179855Y0319375D01*
X0179926Y0319443D01*
X0179999Y0319508D01*
X0180075Y0319570D01*
X0180154Y0319630D01*
X0180234Y0319686D01*
X0180317Y0319739D01*
X0180401Y0319788D01*
X0180488Y0319835D01*
X0180576Y0319877D01*
X0180666Y0319917D01*
X0180758Y0319952D01*
X0180850Y0319985D01*
X0180944Y0320013D01*
X0181039Y0320038D01*
X0181135Y0320059D01*
X0181232Y0320076D01*
X0181329Y0320090D01*
X0181427Y0320099D01*
X0181525Y0320105D01*
X0181623Y0320107D01*
X0228335Y0320107D01*
X0228335Y0324044D01*
X0228335Y0320107D02*
X0234241Y0320107D01*
X0237194Y0320107D01*
X0237194Y0324044D01*
X0237194Y0320107D02*
X0249989Y0320107D01*
X0238178Y0286643D01*
X0281485Y0286643D01*
X0293296Y0320107D01*
X0295265Y0320107D02*
X0295265Y0324044D01*
X0295265Y0320107D02*
X0326761Y0320107D01*
X0340540Y0314202D01*
X0340540Y0293532D01*
X0322824Y0293532D01*
X0322824Y0292548D01*
X0351820Y0292548D01*
X0351918Y0292546D01*
X0352016Y0292540D01*
X0352114Y0292531D01*
X0352211Y0292517D01*
X0352308Y0292500D01*
X0352404Y0292479D01*
X0352499Y0292454D01*
X0352593Y0292426D01*
X0352685Y0292393D01*
X0352777Y0292358D01*
X0352867Y0292318D01*
X0352955Y0292276D01*
X0353042Y0292229D01*
X0353126Y0292180D01*
X0353209Y0292127D01*
X0353289Y0292071D01*
X0353368Y0292011D01*
X0353444Y0291949D01*
X0353517Y0291884D01*
X0353588Y0291816D01*
X0353656Y0291745D01*
X0353721Y0291672D01*
X0353783Y0291596D01*
X0353843Y0291517D01*
X0353899Y0291437D01*
X0353952Y0291354D01*
X0354001Y0291270D01*
X0354048Y0291183D01*
X0354090Y0291095D01*
X0354130Y0291005D01*
X0354165Y0290913D01*
X0354198Y0290821D01*
X0354226Y0290727D01*
X0354251Y0290632D01*
X0354272Y0290536D01*
X0354289Y0290439D01*
X0354303Y0290342D01*
X0354312Y0290244D01*
X0354318Y0290146D01*
X0354320Y0290048D01*
X0354320Y0263552D01*
X0354318Y0263454D01*
X0354312Y0263356D01*
X0354303Y0263258D01*
X0354289Y0263161D01*
X0354272Y0263064D01*
X0354251Y0262968D01*
X0354226Y0262873D01*
X0354198Y0262779D01*
X0354165Y0262687D01*
X0354130Y0262595D01*
X0354090Y0262505D01*
X0354048Y0262417D01*
X0354001Y0262330D01*
X0353952Y0262246D01*
X0353899Y0262163D01*
X0353843Y0262083D01*
X0353783Y0262004D01*
X0353721Y0261928D01*
X0353656Y0261855D01*
X0353588Y0261784D01*
X0353517Y0261716D01*
X0353444Y0261651D01*
X0353368Y0261589D01*
X0353289Y0261529D01*
X0353209Y0261473D01*
X0353126Y0261420D01*
X0353042Y0261371D01*
X0352955Y0261324D01*
X0352867Y0261282D01*
X0352777Y0261242D01*
X0352685Y0261207D01*
X0352593Y0261174D01*
X0352499Y0261146D01*
X0352404Y0261121D01*
X0352308Y0261100D01*
X0352211Y0261083D01*
X0352114Y0261069D01*
X0352016Y0261060D01*
X0351918Y0261054D01*
X0351820Y0261052D01*
X0322824Y0261052D01*
X0322824Y0260068D01*
X0340540Y0260068D01*
X0340540Y0239398D01*
X0326761Y0233493D01*
X0295265Y0233493D01*
X0295265Y0229556D01*
X0295265Y0233493D02*
X0286406Y0233493D01*
X0286406Y0229556D01*
X0286406Y0233493D02*
X0249989Y0233493D01*
X0238178Y0266957D01*
X0281485Y0266957D01*
X0293296Y0233493D01*
X0295264Y0229556D02*
X0295262Y0229425D01*
X0295256Y0229294D01*
X0295247Y0229163D01*
X0295233Y0229032D01*
X0295215Y0228902D01*
X0295194Y0228773D01*
X0295169Y0228644D01*
X0295140Y0228516D01*
X0295107Y0228389D01*
X0295071Y0228262D01*
X0295031Y0228138D01*
X0294987Y0228014D01*
X0294939Y0227891D01*
X0294888Y0227771D01*
X0294833Y0227651D01*
X0294775Y0227534D01*
X0294714Y0227418D01*
X0294649Y0227304D01*
X0294580Y0227192D01*
X0294508Y0227082D01*
X0294434Y0226974D01*
X0294355Y0226868D01*
X0294274Y0226765D01*
X0294190Y0226665D01*
X0294103Y0226567D01*
X0294013Y0226471D01*
X0293920Y0226378D01*
X0293824Y0226288D01*
X0293726Y0226201D01*
X0293626Y0226117D01*
X0293523Y0226036D01*
X0293417Y0225957D01*
X0293309Y0225883D01*
X0293199Y0225811D01*
X0293087Y0225742D01*
X0292973Y0225677D01*
X0292857Y0225616D01*
X0292740Y0225558D01*
X0292620Y0225503D01*
X0292500Y0225452D01*
X0292377Y0225404D01*
X0292253Y0225360D01*
X0292129Y0225320D01*
X0292002Y0225284D01*
X0291875Y0225251D01*
X0291747Y0225222D01*
X0291618Y0225197D01*
X0291489Y0225176D01*
X0291359Y0225158D01*
X0291228Y0225144D01*
X0291097Y0225135D01*
X0290966Y0225129D01*
X0290835Y0225127D01*
X0290704Y0225129D01*
X0290573Y0225135D01*
X0290442Y0225144D01*
X0290311Y0225158D01*
X0290181Y0225176D01*
X0290052Y0225197D01*
X0289923Y0225222D01*
X0289795Y0225251D01*
X0289668Y0225284D01*
X0289541Y0225320D01*
X0289417Y0225360D01*
X0289293Y0225404D01*
X0289170Y0225452D01*
X0289050Y0225503D01*
X0288930Y0225558D01*
X0288813Y0225616D01*
X0288697Y0225677D01*
X0288583Y0225742D01*
X0288471Y0225811D01*
X0288361Y0225883D01*
X0288253Y0225957D01*
X0288147Y0226036D01*
X0288044Y0226117D01*
X0287944Y0226201D01*
X0287846Y0226288D01*
X0287750Y0226378D01*
X0287657Y0226471D01*
X0287567Y0226567D01*
X0287480Y0226665D01*
X0287396Y0226765D01*
X0287315Y0226868D01*
X0287236Y0226974D01*
X0287162Y0227082D01*
X0287090Y0227192D01*
X0287021Y0227304D01*
X0286956Y0227418D01*
X0286895Y0227534D01*
X0286837Y0227651D01*
X0286782Y0227771D01*
X0286731Y0227891D01*
X0286683Y0228014D01*
X0286639Y0228138D01*
X0286599Y0228262D01*
X0286563Y0228389D01*
X0286530Y0228516D01*
X0286501Y0228644D01*
X0286476Y0228773D01*
X0286455Y0228902D01*
X0286437Y0229032D01*
X0286423Y0229163D01*
X0286414Y0229294D01*
X0286408Y0229425D01*
X0286406Y0229556D01*
X0309044Y0233493D02*
X0297233Y0266957D01*
X0297233Y0286643D01*
X0309044Y0320107D01*
X0295265Y0320107D02*
X0286406Y0320107D01*
X0249989Y0320107D01*
X0234241Y0320107D02*
X0222430Y0286643D01*
X0222430Y0266957D01*
X0234241Y0233493D01*
X0228335Y0233493D01*
X0228335Y0229556D01*
X0228335Y0233493D02*
X0181623Y0233493D01*
X0181525Y0233495D01*
X0181427Y0233501D01*
X0181329Y0233510D01*
X0181232Y0233524D01*
X0181135Y0233541D01*
X0181039Y0233562D01*
X0180944Y0233587D01*
X0180850Y0233615D01*
X0180758Y0233648D01*
X0180666Y0233683D01*
X0180576Y0233723D01*
X0180488Y0233765D01*
X0180401Y0233812D01*
X0180317Y0233861D01*
X0180234Y0233914D01*
X0180154Y0233970D01*
X0180075Y0234030D01*
X0179999Y0234092D01*
X0179926Y0234157D01*
X0179855Y0234225D01*
X0179787Y0234296D01*
X0179722Y0234369D01*
X0179660Y0234445D01*
X0179600Y0234524D01*
X0179544Y0234604D01*
X0179491Y0234687D01*
X0179442Y0234771D01*
X0179395Y0234858D01*
X0179353Y0234946D01*
X0179313Y0235036D01*
X0179278Y0235128D01*
X0179245Y0235220D01*
X0179217Y0235314D01*
X0179192Y0235409D01*
X0179171Y0235505D01*
X0179154Y0235602D01*
X0179140Y0235699D01*
X0179131Y0235797D01*
X0179125Y0235895D01*
X0179123Y0235993D01*
X0179123Y0257115D01*
X0169280Y0257115D01*
X0169280Y0270894D01*
X0165343Y0270894D01*
X0169280Y0270894D02*
X0169280Y0282706D01*
X0179123Y0296485D02*
X0179123Y0257115D01*
X0181091Y0247272D02*
X0181091Y0237961D01*
X0181093Y0237863D01*
X0181099Y0237765D01*
X0181108Y0237667D01*
X0181122Y0237570D01*
X0181139Y0237473D01*
X0181160Y0237377D01*
X0181185Y0237282D01*
X0181213Y0237188D01*
X0181246Y0237096D01*
X0181281Y0237004D01*
X0181321Y0236914D01*
X0181363Y0236826D01*
X0181410Y0236739D01*
X0181459Y0236655D01*
X0181512Y0236572D01*
X0181568Y0236492D01*
X0181628Y0236413D01*
X0181690Y0236337D01*
X0181755Y0236264D01*
X0181823Y0236193D01*
X0181894Y0236125D01*
X0181967Y0236060D01*
X0182043Y0235998D01*
X0182122Y0235938D01*
X0182202Y0235882D01*
X0182285Y0235829D01*
X0182369Y0235780D01*
X0182456Y0235733D01*
X0182544Y0235691D01*
X0182634Y0235651D01*
X0182726Y0235616D01*
X0182818Y0235583D01*
X0182912Y0235555D01*
X0183007Y0235530D01*
X0183103Y0235509D01*
X0183200Y0235492D01*
X0183297Y0235478D01*
X0183395Y0235469D01*
X0183493Y0235463D01*
X0183591Y0235461D01*
X0192902Y0235461D01*
X0181091Y0247272D01*
X0228336Y0229556D02*
X0228338Y0229425D01*
X0228344Y0229294D01*
X0228353Y0229163D01*
X0228367Y0229032D01*
X0228385Y0228902D01*
X0228406Y0228773D01*
X0228431Y0228644D01*
X0228460Y0228516D01*
X0228493Y0228389D01*
X0228529Y0228262D01*
X0228569Y0228138D01*
X0228613Y0228014D01*
X0228661Y0227891D01*
X0228712Y0227771D01*
X0228767Y0227651D01*
X0228825Y0227534D01*
X0228886Y0227418D01*
X0228951Y0227304D01*
X0229020Y0227192D01*
X0229092Y0227082D01*
X0229166Y0226974D01*
X0229245Y0226868D01*
X0229326Y0226765D01*
X0229410Y0226665D01*
X0229497Y0226567D01*
X0229587Y0226471D01*
X0229680Y0226378D01*
X0229776Y0226288D01*
X0229874Y0226201D01*
X0229974Y0226117D01*
X0230077Y0226036D01*
X0230183Y0225957D01*
X0230291Y0225883D01*
X0230401Y0225811D01*
X0230513Y0225742D01*
X0230627Y0225677D01*
X0230743Y0225616D01*
X0230860Y0225558D01*
X0230980Y0225503D01*
X0231100Y0225452D01*
X0231223Y0225404D01*
X0231347Y0225360D01*
X0231471Y0225320D01*
X0231598Y0225284D01*
X0231725Y0225251D01*
X0231853Y0225222D01*
X0231982Y0225197D01*
X0232111Y0225176D01*
X0232241Y0225158D01*
X0232372Y0225144D01*
X0232503Y0225135D01*
X0232634Y0225129D01*
X0232765Y0225127D01*
X0232896Y0225129D01*
X0233027Y0225135D01*
X0233158Y0225144D01*
X0233289Y0225158D01*
X0233419Y0225176D01*
X0233548Y0225197D01*
X0233677Y0225222D01*
X0233805Y0225251D01*
X0233932Y0225284D01*
X0234059Y0225320D01*
X0234183Y0225360D01*
X0234307Y0225404D01*
X0234430Y0225452D01*
X0234550Y0225503D01*
X0234670Y0225558D01*
X0234787Y0225616D01*
X0234903Y0225677D01*
X0235017Y0225742D01*
X0235129Y0225811D01*
X0235239Y0225883D01*
X0235347Y0225957D01*
X0235453Y0226036D01*
X0235556Y0226117D01*
X0235656Y0226201D01*
X0235754Y0226288D01*
X0235850Y0226378D01*
X0235943Y0226471D01*
X0236033Y0226567D01*
X0236120Y0226665D01*
X0236204Y0226765D01*
X0236285Y0226868D01*
X0236364Y0226974D01*
X0236438Y0227082D01*
X0236510Y0227192D01*
X0236579Y0227304D01*
X0236644Y0227418D01*
X0236705Y0227534D01*
X0236763Y0227651D01*
X0236818Y0227771D01*
X0236869Y0227891D01*
X0236917Y0228014D01*
X0236961Y0228138D01*
X0237001Y0228262D01*
X0237037Y0228389D01*
X0237070Y0228516D01*
X0237099Y0228644D01*
X0237124Y0228773D01*
X0237145Y0228902D01*
X0237163Y0229032D01*
X0237177Y0229163D01*
X0237186Y0229294D01*
X0237192Y0229425D01*
X0237194Y0229556D01*
X0237194Y0233493D01*
X0234241Y0233493D01*
X0237194Y0233493D02*
X0249989Y0233493D01*
X0181091Y0306328D02*
X0181091Y0315639D01*
X0181093Y0315737D01*
X0181099Y0315835D01*
X0181108Y0315933D01*
X0181122Y0316030D01*
X0181139Y0316127D01*
X0181160Y0316223D01*
X0181185Y0316318D01*
X0181213Y0316412D01*
X0181246Y0316504D01*
X0181281Y0316596D01*
X0181321Y0316686D01*
X0181363Y0316774D01*
X0181410Y0316861D01*
X0181459Y0316945D01*
X0181512Y0317028D01*
X0181568Y0317108D01*
X0181628Y0317187D01*
X0181690Y0317263D01*
X0181755Y0317336D01*
X0181823Y0317407D01*
X0181894Y0317475D01*
X0181967Y0317540D01*
X0182043Y0317602D01*
X0182122Y0317662D01*
X0182202Y0317718D01*
X0182285Y0317771D01*
X0182369Y0317820D01*
X0182456Y0317867D01*
X0182544Y0317909D01*
X0182634Y0317949D01*
X0182726Y0317984D01*
X0182818Y0318017D01*
X0182912Y0318045D01*
X0183007Y0318070D01*
X0183103Y0318091D01*
X0183200Y0318108D01*
X0183297Y0318122D01*
X0183395Y0318131D01*
X0183493Y0318137D01*
X0183591Y0318139D01*
X0192902Y0318139D01*
X0181091Y0306328D01*
X0223081Y0335530D02*
X0223081Y0336235D01*
X0223786Y0336940D01*
X0225900Y0336940D01*
X0225900Y0335530D01*
X0225196Y0334826D01*
X0223786Y0334826D01*
X0223081Y0335530D01*
X0224491Y0338349D02*
X0225900Y0336940D01*
X0227432Y0337644D02*
X0227432Y0338349D01*
X0228136Y0339054D01*
X0229546Y0339054D01*
X0230250Y0338349D01*
X0231782Y0338349D02*
X0232487Y0339054D01*
X0233896Y0339054D01*
X0234601Y0338349D01*
X0234601Y0335530D01*
X0233896Y0334826D01*
X0232487Y0334826D01*
X0231782Y0335530D01*
X0230250Y0334826D02*
X0227432Y0337644D01*
X0227432Y0334826D02*
X0230250Y0334826D01*
X0224491Y0338349D02*
X0223081Y0339054D01*
X0230255Y0354550D02*
X0229550Y0355255D01*
X0229550Y0356664D01*
X0230255Y0357369D01*
X0229550Y0358900D02*
X0232369Y0361719D01*
X0233073Y0361719D01*
X0233778Y0361014D01*
X0233778Y0359605D01*
X0233073Y0358900D01*
X0233073Y0357369D02*
X0233778Y0356664D01*
X0233778Y0355255D01*
X0233073Y0354550D01*
X0230255Y0354550D01*
X0229550Y0358900D02*
X0229550Y0361719D01*
X0230255Y0363250D02*
X0229550Y0363955D01*
X0229550Y0365364D01*
X0230255Y0366069D01*
X0231664Y0366069D01*
X0232369Y0365364D01*
X0232369Y0364660D01*
X0231664Y0363250D01*
X0233778Y0363250D01*
X0233778Y0366069D01*
X0233186Y0367050D02*
X0234595Y0367050D01*
X0235300Y0367755D01*
X0235300Y0370573D01*
X0234595Y0371278D01*
X0233186Y0371278D01*
X0232481Y0370573D01*
X0230950Y0370573D02*
X0230245Y0371278D01*
X0228836Y0371278D01*
X0228131Y0370573D01*
X0228131Y0369869D01*
X0230950Y0367050D01*
X0228131Y0367050D01*
X0226600Y0369164D02*
X0223781Y0369164D01*
X0224486Y0367050D02*
X0224486Y0371278D01*
X0226600Y0369164D01*
X0232481Y0367755D02*
X0233186Y0367050D01*
X0237194Y0324044D02*
X0237192Y0324175D01*
X0237186Y0324306D01*
X0237177Y0324437D01*
X0237163Y0324568D01*
X0237145Y0324698D01*
X0237124Y0324827D01*
X0237099Y0324956D01*
X0237070Y0325084D01*
X0237037Y0325211D01*
X0237001Y0325338D01*
X0236961Y0325462D01*
X0236917Y0325586D01*
X0236869Y0325709D01*
X0236818Y0325829D01*
X0236763Y0325949D01*
X0236705Y0326066D01*
X0236644Y0326182D01*
X0236579Y0326296D01*
X0236510Y0326408D01*
X0236438Y0326518D01*
X0236364Y0326626D01*
X0236285Y0326732D01*
X0236204Y0326835D01*
X0236120Y0326935D01*
X0236033Y0327033D01*
X0235943Y0327129D01*
X0235850Y0327222D01*
X0235754Y0327312D01*
X0235656Y0327399D01*
X0235556Y0327483D01*
X0235453Y0327564D01*
X0235347Y0327643D01*
X0235239Y0327717D01*
X0235129Y0327789D01*
X0235017Y0327858D01*
X0234903Y0327923D01*
X0234787Y0327984D01*
X0234670Y0328042D01*
X0234550Y0328097D01*
X0234430Y0328148D01*
X0234307Y0328196D01*
X0234183Y0328240D01*
X0234059Y0328280D01*
X0233932Y0328316D01*
X0233805Y0328349D01*
X0233677Y0328378D01*
X0233548Y0328403D01*
X0233419Y0328424D01*
X0233289Y0328442D01*
X0233158Y0328456D01*
X0233027Y0328465D01*
X0232896Y0328471D01*
X0232765Y0328473D01*
X0232634Y0328471D01*
X0232503Y0328465D01*
X0232372Y0328456D01*
X0232241Y0328442D01*
X0232111Y0328424D01*
X0231982Y0328403D01*
X0231853Y0328378D01*
X0231725Y0328349D01*
X0231598Y0328316D01*
X0231471Y0328280D01*
X0231347Y0328240D01*
X0231223Y0328196D01*
X0231100Y0328148D01*
X0230980Y0328097D01*
X0230860Y0328042D01*
X0230743Y0327984D01*
X0230627Y0327923D01*
X0230513Y0327858D01*
X0230401Y0327789D01*
X0230291Y0327717D01*
X0230183Y0327643D01*
X0230077Y0327564D01*
X0229974Y0327483D01*
X0229874Y0327399D01*
X0229776Y0327312D01*
X0229680Y0327222D01*
X0229587Y0327129D01*
X0229497Y0327033D01*
X0229410Y0326935D01*
X0229326Y0326835D01*
X0229245Y0326732D01*
X0229166Y0326626D01*
X0229092Y0326518D01*
X0229020Y0326408D01*
X0228951Y0326296D01*
X0228886Y0326182D01*
X0228825Y0326066D01*
X0228767Y0325949D01*
X0228712Y0325829D01*
X0228661Y0325709D01*
X0228613Y0325586D01*
X0228569Y0325462D01*
X0228529Y0325338D01*
X0228493Y0325211D01*
X0228460Y0325084D01*
X0228431Y0324956D01*
X0228406Y0324827D01*
X0228385Y0324698D01*
X0228367Y0324568D01*
X0228353Y0324437D01*
X0228344Y0324306D01*
X0228338Y0324175D01*
X0228336Y0324044D01*
X0286406Y0324044D02*
X0286406Y0320107D01*
X0286406Y0324044D02*
X0286408Y0324175D01*
X0286414Y0324306D01*
X0286423Y0324437D01*
X0286437Y0324568D01*
X0286455Y0324698D01*
X0286476Y0324827D01*
X0286501Y0324956D01*
X0286530Y0325084D01*
X0286563Y0325211D01*
X0286599Y0325338D01*
X0286639Y0325462D01*
X0286683Y0325586D01*
X0286731Y0325709D01*
X0286782Y0325829D01*
X0286837Y0325949D01*
X0286895Y0326066D01*
X0286956Y0326182D01*
X0287021Y0326296D01*
X0287090Y0326408D01*
X0287162Y0326518D01*
X0287236Y0326626D01*
X0287315Y0326732D01*
X0287396Y0326835D01*
X0287480Y0326935D01*
X0287567Y0327033D01*
X0287657Y0327129D01*
X0287750Y0327222D01*
X0287846Y0327312D01*
X0287944Y0327399D01*
X0288044Y0327483D01*
X0288147Y0327564D01*
X0288253Y0327643D01*
X0288361Y0327717D01*
X0288471Y0327789D01*
X0288583Y0327858D01*
X0288697Y0327923D01*
X0288813Y0327984D01*
X0288930Y0328042D01*
X0289050Y0328097D01*
X0289170Y0328148D01*
X0289293Y0328196D01*
X0289417Y0328240D01*
X0289541Y0328280D01*
X0289668Y0328316D01*
X0289795Y0328349D01*
X0289923Y0328378D01*
X0290052Y0328403D01*
X0290181Y0328424D01*
X0290311Y0328442D01*
X0290442Y0328456D01*
X0290573Y0328465D01*
X0290704Y0328471D01*
X0290835Y0328473D01*
X0290966Y0328471D01*
X0291097Y0328465D01*
X0291228Y0328456D01*
X0291359Y0328442D01*
X0291489Y0328424D01*
X0291618Y0328403D01*
X0291747Y0328378D01*
X0291875Y0328349D01*
X0292002Y0328316D01*
X0292129Y0328280D01*
X0292253Y0328240D01*
X0292377Y0328196D01*
X0292500Y0328148D01*
X0292620Y0328097D01*
X0292740Y0328042D01*
X0292857Y0327984D01*
X0292973Y0327923D01*
X0293087Y0327858D01*
X0293199Y0327789D01*
X0293309Y0327717D01*
X0293417Y0327643D01*
X0293523Y0327564D01*
X0293626Y0327483D01*
X0293726Y0327399D01*
X0293824Y0327312D01*
X0293920Y0327222D01*
X0294013Y0327129D01*
X0294103Y0327033D01*
X0294190Y0326935D01*
X0294274Y0326835D01*
X0294355Y0326732D01*
X0294434Y0326626D01*
X0294508Y0326518D01*
X0294580Y0326408D01*
X0294649Y0326296D01*
X0294714Y0326182D01*
X0294775Y0326066D01*
X0294833Y0325949D01*
X0294888Y0325829D01*
X0294939Y0325709D01*
X0294987Y0325586D01*
X0295031Y0325462D01*
X0295071Y0325338D01*
X0295107Y0325211D01*
X0295140Y0325084D01*
X0295169Y0324956D01*
X0295194Y0324827D01*
X0295215Y0324698D01*
X0295233Y0324568D01*
X0295247Y0324437D01*
X0295256Y0324306D01*
X0295262Y0324175D01*
X0295264Y0324044D01*
D14*
X0287981Y0324241D02*
X0287983Y0324346D01*
X0287989Y0324451D01*
X0287999Y0324555D01*
X0288013Y0324659D01*
X0288031Y0324763D01*
X0288053Y0324865D01*
X0288078Y0324967D01*
X0288108Y0325068D01*
X0288141Y0325167D01*
X0288178Y0325265D01*
X0288219Y0325362D01*
X0288264Y0325457D01*
X0288312Y0325550D01*
X0288363Y0325642D01*
X0288419Y0325731D01*
X0288477Y0325818D01*
X0288539Y0325903D01*
X0288603Y0325986D01*
X0288671Y0326066D01*
X0288742Y0326143D01*
X0288816Y0326217D01*
X0288893Y0326289D01*
X0288972Y0326358D01*
X0289054Y0326423D01*
X0289138Y0326486D01*
X0289225Y0326545D01*
X0289314Y0326601D01*
X0289405Y0326654D01*
X0289498Y0326703D01*
X0289592Y0326748D01*
X0289688Y0326790D01*
X0289786Y0326828D01*
X0289885Y0326862D01*
X0289986Y0326893D01*
X0290087Y0326919D01*
X0290190Y0326942D01*
X0290293Y0326961D01*
X0290397Y0326976D01*
X0290501Y0326987D01*
X0290606Y0326994D01*
X0290711Y0326997D01*
X0290816Y0326996D01*
X0290921Y0326991D01*
X0291025Y0326982D01*
X0291129Y0326969D01*
X0291233Y0326952D01*
X0291336Y0326931D01*
X0291438Y0326906D01*
X0291539Y0326878D01*
X0291638Y0326845D01*
X0291737Y0326809D01*
X0291834Y0326769D01*
X0291929Y0326726D01*
X0292023Y0326678D01*
X0292115Y0326628D01*
X0292205Y0326574D01*
X0292293Y0326516D01*
X0292378Y0326455D01*
X0292461Y0326391D01*
X0292542Y0326324D01*
X0292620Y0326254D01*
X0292695Y0326180D01*
X0292767Y0326105D01*
X0292837Y0326026D01*
X0292903Y0325945D01*
X0292967Y0325861D01*
X0293027Y0325775D01*
X0293083Y0325687D01*
X0293137Y0325596D01*
X0293187Y0325504D01*
X0293233Y0325410D01*
X0293276Y0325314D01*
X0293315Y0325216D01*
X0293350Y0325118D01*
X0293381Y0325017D01*
X0293409Y0324916D01*
X0293433Y0324814D01*
X0293453Y0324711D01*
X0293469Y0324607D01*
X0293481Y0324503D01*
X0293489Y0324398D01*
X0293493Y0324293D01*
X0293493Y0324189D01*
X0293489Y0324084D01*
X0293481Y0323979D01*
X0293469Y0323875D01*
X0293453Y0323771D01*
X0293433Y0323668D01*
X0293409Y0323566D01*
X0293381Y0323465D01*
X0293350Y0323364D01*
X0293315Y0323266D01*
X0293276Y0323168D01*
X0293233Y0323072D01*
X0293187Y0322978D01*
X0293137Y0322886D01*
X0293083Y0322795D01*
X0293027Y0322707D01*
X0292967Y0322621D01*
X0292903Y0322537D01*
X0292837Y0322456D01*
X0292767Y0322377D01*
X0292695Y0322302D01*
X0292620Y0322228D01*
X0292542Y0322158D01*
X0292461Y0322091D01*
X0292378Y0322027D01*
X0292293Y0321966D01*
X0292205Y0321908D01*
X0292115Y0321854D01*
X0292023Y0321804D01*
X0291929Y0321756D01*
X0291834Y0321713D01*
X0291737Y0321673D01*
X0291638Y0321637D01*
X0291539Y0321604D01*
X0291438Y0321576D01*
X0291336Y0321551D01*
X0291233Y0321530D01*
X0291129Y0321513D01*
X0291025Y0321500D01*
X0290921Y0321491D01*
X0290816Y0321486D01*
X0290711Y0321485D01*
X0290606Y0321488D01*
X0290501Y0321495D01*
X0290397Y0321506D01*
X0290293Y0321521D01*
X0290190Y0321540D01*
X0290087Y0321563D01*
X0289986Y0321589D01*
X0289885Y0321620D01*
X0289786Y0321654D01*
X0289688Y0321692D01*
X0289592Y0321734D01*
X0289498Y0321779D01*
X0289405Y0321828D01*
X0289314Y0321881D01*
X0289225Y0321937D01*
X0289138Y0321996D01*
X0289054Y0322059D01*
X0288972Y0322124D01*
X0288893Y0322193D01*
X0288816Y0322265D01*
X0288742Y0322339D01*
X0288671Y0322416D01*
X0288603Y0322496D01*
X0288539Y0322579D01*
X0288477Y0322664D01*
X0288419Y0322751D01*
X0288363Y0322840D01*
X0288312Y0322932D01*
X0288264Y0323025D01*
X0288219Y0323120D01*
X0288178Y0323217D01*
X0288141Y0323315D01*
X0288108Y0323414D01*
X0288078Y0323515D01*
X0288053Y0323617D01*
X0288031Y0323719D01*
X0288013Y0323823D01*
X0287999Y0323927D01*
X0287989Y0324031D01*
X0287983Y0324136D01*
X0287981Y0324241D01*
X0230107Y0324241D02*
X0230109Y0324346D01*
X0230115Y0324451D01*
X0230125Y0324555D01*
X0230139Y0324659D01*
X0230157Y0324763D01*
X0230179Y0324865D01*
X0230204Y0324967D01*
X0230234Y0325068D01*
X0230267Y0325167D01*
X0230304Y0325265D01*
X0230345Y0325362D01*
X0230390Y0325457D01*
X0230438Y0325550D01*
X0230489Y0325642D01*
X0230545Y0325731D01*
X0230603Y0325818D01*
X0230665Y0325903D01*
X0230729Y0325986D01*
X0230797Y0326066D01*
X0230868Y0326143D01*
X0230942Y0326217D01*
X0231019Y0326289D01*
X0231098Y0326358D01*
X0231180Y0326423D01*
X0231264Y0326486D01*
X0231351Y0326545D01*
X0231440Y0326601D01*
X0231531Y0326654D01*
X0231624Y0326703D01*
X0231718Y0326748D01*
X0231814Y0326790D01*
X0231912Y0326828D01*
X0232011Y0326862D01*
X0232112Y0326893D01*
X0232213Y0326919D01*
X0232316Y0326942D01*
X0232419Y0326961D01*
X0232523Y0326976D01*
X0232627Y0326987D01*
X0232732Y0326994D01*
X0232837Y0326997D01*
X0232942Y0326996D01*
X0233047Y0326991D01*
X0233151Y0326982D01*
X0233255Y0326969D01*
X0233359Y0326952D01*
X0233462Y0326931D01*
X0233564Y0326906D01*
X0233665Y0326878D01*
X0233764Y0326845D01*
X0233863Y0326809D01*
X0233960Y0326769D01*
X0234055Y0326726D01*
X0234149Y0326678D01*
X0234241Y0326628D01*
X0234331Y0326574D01*
X0234419Y0326516D01*
X0234504Y0326455D01*
X0234587Y0326391D01*
X0234668Y0326324D01*
X0234746Y0326254D01*
X0234821Y0326180D01*
X0234893Y0326105D01*
X0234963Y0326026D01*
X0235029Y0325945D01*
X0235093Y0325861D01*
X0235153Y0325775D01*
X0235209Y0325687D01*
X0235263Y0325596D01*
X0235313Y0325504D01*
X0235359Y0325410D01*
X0235402Y0325314D01*
X0235441Y0325216D01*
X0235476Y0325118D01*
X0235507Y0325017D01*
X0235535Y0324916D01*
X0235559Y0324814D01*
X0235579Y0324711D01*
X0235595Y0324607D01*
X0235607Y0324503D01*
X0235615Y0324398D01*
X0235619Y0324293D01*
X0235619Y0324189D01*
X0235615Y0324084D01*
X0235607Y0323979D01*
X0235595Y0323875D01*
X0235579Y0323771D01*
X0235559Y0323668D01*
X0235535Y0323566D01*
X0235507Y0323465D01*
X0235476Y0323364D01*
X0235441Y0323266D01*
X0235402Y0323168D01*
X0235359Y0323072D01*
X0235313Y0322978D01*
X0235263Y0322886D01*
X0235209Y0322795D01*
X0235153Y0322707D01*
X0235093Y0322621D01*
X0235029Y0322537D01*
X0234963Y0322456D01*
X0234893Y0322377D01*
X0234821Y0322302D01*
X0234746Y0322228D01*
X0234668Y0322158D01*
X0234587Y0322091D01*
X0234504Y0322027D01*
X0234419Y0321966D01*
X0234331Y0321908D01*
X0234241Y0321854D01*
X0234149Y0321804D01*
X0234055Y0321756D01*
X0233960Y0321713D01*
X0233863Y0321673D01*
X0233764Y0321637D01*
X0233665Y0321604D01*
X0233564Y0321576D01*
X0233462Y0321551D01*
X0233359Y0321530D01*
X0233255Y0321513D01*
X0233151Y0321500D01*
X0233047Y0321491D01*
X0232942Y0321486D01*
X0232837Y0321485D01*
X0232732Y0321488D01*
X0232627Y0321495D01*
X0232523Y0321506D01*
X0232419Y0321521D01*
X0232316Y0321540D01*
X0232213Y0321563D01*
X0232112Y0321589D01*
X0232011Y0321620D01*
X0231912Y0321654D01*
X0231814Y0321692D01*
X0231718Y0321734D01*
X0231624Y0321779D01*
X0231531Y0321828D01*
X0231440Y0321881D01*
X0231351Y0321937D01*
X0231264Y0321996D01*
X0231180Y0322059D01*
X0231098Y0322124D01*
X0231019Y0322193D01*
X0230942Y0322265D01*
X0230868Y0322339D01*
X0230797Y0322416D01*
X0230729Y0322496D01*
X0230665Y0322579D01*
X0230603Y0322664D01*
X0230545Y0322751D01*
X0230489Y0322840D01*
X0230438Y0322932D01*
X0230390Y0323025D01*
X0230345Y0323120D01*
X0230304Y0323217D01*
X0230267Y0323315D01*
X0230234Y0323414D01*
X0230204Y0323515D01*
X0230179Y0323617D01*
X0230157Y0323719D01*
X0230139Y0323823D01*
X0230125Y0323927D01*
X0230115Y0324031D01*
X0230109Y0324136D01*
X0230107Y0324241D01*
X0230107Y0229359D02*
X0230109Y0229464D01*
X0230115Y0229569D01*
X0230125Y0229673D01*
X0230139Y0229777D01*
X0230157Y0229881D01*
X0230179Y0229983D01*
X0230204Y0230085D01*
X0230234Y0230186D01*
X0230267Y0230285D01*
X0230304Y0230383D01*
X0230345Y0230480D01*
X0230390Y0230575D01*
X0230438Y0230668D01*
X0230489Y0230760D01*
X0230545Y0230849D01*
X0230603Y0230936D01*
X0230665Y0231021D01*
X0230729Y0231104D01*
X0230797Y0231184D01*
X0230868Y0231261D01*
X0230942Y0231335D01*
X0231019Y0231407D01*
X0231098Y0231476D01*
X0231180Y0231541D01*
X0231264Y0231604D01*
X0231351Y0231663D01*
X0231440Y0231719D01*
X0231531Y0231772D01*
X0231624Y0231821D01*
X0231718Y0231866D01*
X0231814Y0231908D01*
X0231912Y0231946D01*
X0232011Y0231980D01*
X0232112Y0232011D01*
X0232213Y0232037D01*
X0232316Y0232060D01*
X0232419Y0232079D01*
X0232523Y0232094D01*
X0232627Y0232105D01*
X0232732Y0232112D01*
X0232837Y0232115D01*
X0232942Y0232114D01*
X0233047Y0232109D01*
X0233151Y0232100D01*
X0233255Y0232087D01*
X0233359Y0232070D01*
X0233462Y0232049D01*
X0233564Y0232024D01*
X0233665Y0231996D01*
X0233764Y0231963D01*
X0233863Y0231927D01*
X0233960Y0231887D01*
X0234055Y0231844D01*
X0234149Y0231796D01*
X0234241Y0231746D01*
X0234331Y0231692D01*
X0234419Y0231634D01*
X0234504Y0231573D01*
X0234587Y0231509D01*
X0234668Y0231442D01*
X0234746Y0231372D01*
X0234821Y0231298D01*
X0234893Y0231223D01*
X0234963Y0231144D01*
X0235029Y0231063D01*
X0235093Y0230979D01*
X0235153Y0230893D01*
X0235209Y0230805D01*
X0235263Y0230714D01*
X0235313Y0230622D01*
X0235359Y0230528D01*
X0235402Y0230432D01*
X0235441Y0230334D01*
X0235476Y0230236D01*
X0235507Y0230135D01*
X0235535Y0230034D01*
X0235559Y0229932D01*
X0235579Y0229829D01*
X0235595Y0229725D01*
X0235607Y0229621D01*
X0235615Y0229516D01*
X0235619Y0229411D01*
X0235619Y0229307D01*
X0235615Y0229202D01*
X0235607Y0229097D01*
X0235595Y0228993D01*
X0235579Y0228889D01*
X0235559Y0228786D01*
X0235535Y0228684D01*
X0235507Y0228583D01*
X0235476Y0228482D01*
X0235441Y0228384D01*
X0235402Y0228286D01*
X0235359Y0228190D01*
X0235313Y0228096D01*
X0235263Y0228004D01*
X0235209Y0227913D01*
X0235153Y0227825D01*
X0235093Y0227739D01*
X0235029Y0227655D01*
X0234963Y0227574D01*
X0234893Y0227495D01*
X0234821Y0227420D01*
X0234746Y0227346D01*
X0234668Y0227276D01*
X0234587Y0227209D01*
X0234504Y0227145D01*
X0234419Y0227084D01*
X0234331Y0227026D01*
X0234241Y0226972D01*
X0234149Y0226922D01*
X0234055Y0226874D01*
X0233960Y0226831D01*
X0233863Y0226791D01*
X0233764Y0226755D01*
X0233665Y0226722D01*
X0233564Y0226694D01*
X0233462Y0226669D01*
X0233359Y0226648D01*
X0233255Y0226631D01*
X0233151Y0226618D01*
X0233047Y0226609D01*
X0232942Y0226604D01*
X0232837Y0226603D01*
X0232732Y0226606D01*
X0232627Y0226613D01*
X0232523Y0226624D01*
X0232419Y0226639D01*
X0232316Y0226658D01*
X0232213Y0226681D01*
X0232112Y0226707D01*
X0232011Y0226738D01*
X0231912Y0226772D01*
X0231814Y0226810D01*
X0231718Y0226852D01*
X0231624Y0226897D01*
X0231531Y0226946D01*
X0231440Y0226999D01*
X0231351Y0227055D01*
X0231264Y0227114D01*
X0231180Y0227177D01*
X0231098Y0227242D01*
X0231019Y0227311D01*
X0230942Y0227383D01*
X0230868Y0227457D01*
X0230797Y0227534D01*
X0230729Y0227614D01*
X0230665Y0227697D01*
X0230603Y0227782D01*
X0230545Y0227869D01*
X0230489Y0227958D01*
X0230438Y0228050D01*
X0230390Y0228143D01*
X0230345Y0228238D01*
X0230304Y0228335D01*
X0230267Y0228433D01*
X0230234Y0228532D01*
X0230204Y0228633D01*
X0230179Y0228735D01*
X0230157Y0228837D01*
X0230139Y0228941D01*
X0230125Y0229045D01*
X0230115Y0229149D01*
X0230109Y0229254D01*
X0230107Y0229359D01*
X0287981Y0229359D02*
X0287983Y0229464D01*
X0287989Y0229569D01*
X0287999Y0229673D01*
X0288013Y0229777D01*
X0288031Y0229881D01*
X0288053Y0229983D01*
X0288078Y0230085D01*
X0288108Y0230186D01*
X0288141Y0230285D01*
X0288178Y0230383D01*
X0288219Y0230480D01*
X0288264Y0230575D01*
X0288312Y0230668D01*
X0288363Y0230760D01*
X0288419Y0230849D01*
X0288477Y0230936D01*
X0288539Y0231021D01*
X0288603Y0231104D01*
X0288671Y0231184D01*
X0288742Y0231261D01*
X0288816Y0231335D01*
X0288893Y0231407D01*
X0288972Y0231476D01*
X0289054Y0231541D01*
X0289138Y0231604D01*
X0289225Y0231663D01*
X0289314Y0231719D01*
X0289405Y0231772D01*
X0289498Y0231821D01*
X0289592Y0231866D01*
X0289688Y0231908D01*
X0289786Y0231946D01*
X0289885Y0231980D01*
X0289986Y0232011D01*
X0290087Y0232037D01*
X0290190Y0232060D01*
X0290293Y0232079D01*
X0290397Y0232094D01*
X0290501Y0232105D01*
X0290606Y0232112D01*
X0290711Y0232115D01*
X0290816Y0232114D01*
X0290921Y0232109D01*
X0291025Y0232100D01*
X0291129Y0232087D01*
X0291233Y0232070D01*
X0291336Y0232049D01*
X0291438Y0232024D01*
X0291539Y0231996D01*
X0291638Y0231963D01*
X0291737Y0231927D01*
X0291834Y0231887D01*
X0291929Y0231844D01*
X0292023Y0231796D01*
X0292115Y0231746D01*
X0292205Y0231692D01*
X0292293Y0231634D01*
X0292378Y0231573D01*
X0292461Y0231509D01*
X0292542Y0231442D01*
X0292620Y0231372D01*
X0292695Y0231298D01*
X0292767Y0231223D01*
X0292837Y0231144D01*
X0292903Y0231063D01*
X0292967Y0230979D01*
X0293027Y0230893D01*
X0293083Y0230805D01*
X0293137Y0230714D01*
X0293187Y0230622D01*
X0293233Y0230528D01*
X0293276Y0230432D01*
X0293315Y0230334D01*
X0293350Y0230236D01*
X0293381Y0230135D01*
X0293409Y0230034D01*
X0293433Y0229932D01*
X0293453Y0229829D01*
X0293469Y0229725D01*
X0293481Y0229621D01*
X0293489Y0229516D01*
X0293493Y0229411D01*
X0293493Y0229307D01*
X0293489Y0229202D01*
X0293481Y0229097D01*
X0293469Y0228993D01*
X0293453Y0228889D01*
X0293433Y0228786D01*
X0293409Y0228684D01*
X0293381Y0228583D01*
X0293350Y0228482D01*
X0293315Y0228384D01*
X0293276Y0228286D01*
X0293233Y0228190D01*
X0293187Y0228096D01*
X0293137Y0228004D01*
X0293083Y0227913D01*
X0293027Y0227825D01*
X0292967Y0227739D01*
X0292903Y0227655D01*
X0292837Y0227574D01*
X0292767Y0227495D01*
X0292695Y0227420D01*
X0292620Y0227346D01*
X0292542Y0227276D01*
X0292461Y0227209D01*
X0292378Y0227145D01*
X0292293Y0227084D01*
X0292205Y0227026D01*
X0292115Y0226972D01*
X0292023Y0226922D01*
X0291929Y0226874D01*
X0291834Y0226831D01*
X0291737Y0226791D01*
X0291638Y0226755D01*
X0291539Y0226722D01*
X0291438Y0226694D01*
X0291336Y0226669D01*
X0291233Y0226648D01*
X0291129Y0226631D01*
X0291025Y0226618D01*
X0290921Y0226609D01*
X0290816Y0226604D01*
X0290711Y0226603D01*
X0290606Y0226606D01*
X0290501Y0226613D01*
X0290397Y0226624D01*
X0290293Y0226639D01*
X0290190Y0226658D01*
X0290087Y0226681D01*
X0289986Y0226707D01*
X0289885Y0226738D01*
X0289786Y0226772D01*
X0289688Y0226810D01*
X0289592Y0226852D01*
X0289498Y0226897D01*
X0289405Y0226946D01*
X0289314Y0226999D01*
X0289225Y0227055D01*
X0289138Y0227114D01*
X0289054Y0227177D01*
X0288972Y0227242D01*
X0288893Y0227311D01*
X0288816Y0227383D01*
X0288742Y0227457D01*
X0288671Y0227534D01*
X0288603Y0227614D01*
X0288539Y0227697D01*
X0288477Y0227782D01*
X0288419Y0227869D01*
X0288363Y0227958D01*
X0288312Y0228050D01*
X0288264Y0228143D01*
X0288219Y0228238D01*
X0288178Y0228335D01*
X0288141Y0228433D01*
X0288108Y0228532D01*
X0288078Y0228633D01*
X0288053Y0228735D01*
X0288031Y0228837D01*
X0288013Y0228941D01*
X0287999Y0229045D01*
X0287989Y0229149D01*
X0287983Y0229254D01*
X0287981Y0229359D01*
D15*
X0225737Y0335796D02*
X0217863Y0335796D01*
X0217863Y0342804D02*
X0225737Y0342804D01*
X0225796Y0350363D02*
X0225796Y0358237D01*
X0232804Y0358237D02*
X0232804Y0350363D01*
X0231613Y0363296D02*
X0239487Y0363296D01*
X0239487Y0370304D02*
X0231613Y0370304D01*
D16*
X0239332Y0358560D02*
X0239332Y0356448D01*
X0242499Y0356448D01*
X0242499Y0358560D01*
X0240916Y0357504D02*
X0240916Y0356448D01*
X0240916Y0355370D02*
X0240916Y0354314D01*
X0240916Y0355370D02*
X0239860Y0355370D01*
X0239332Y0354842D01*
X0239332Y0353786D01*
X0239860Y0353258D01*
X0241971Y0353258D01*
X0242499Y0353786D01*
X0242499Y0354842D01*
X0241971Y0355370D01*
X0241971Y0352179D02*
X0242499Y0351652D01*
X0242499Y0350068D01*
X0239332Y0350068D01*
X0239332Y0351652D01*
X0239860Y0352179D01*
X0241971Y0352179D01*
X0242499Y0348997D02*
X0242499Y0347941D01*
X0242499Y0348469D02*
X0239332Y0348469D01*
X0239332Y0347941D02*
X0239332Y0348997D01*
X0239332Y0346863D02*
X0240388Y0345807D01*
X0240388Y0346335D02*
X0240388Y0344751D01*
X0239332Y0344751D02*
X0242499Y0344751D01*
X0242499Y0346335D01*
X0241971Y0346863D01*
X0240916Y0346863D01*
X0240388Y0346335D01*
X0240388Y0343672D02*
X0239860Y0343672D01*
X0239332Y0343145D01*
X0239332Y0341561D01*
X0242499Y0341561D01*
X0242499Y0343145D01*
X0241971Y0343672D01*
X0241443Y0343672D01*
X0240916Y0343145D01*
X0240916Y0341561D01*
X0240916Y0343145D02*
X0240388Y0343672D01*
X0238804Y0340482D02*
X0238804Y0338371D01*
X0239332Y0336236D02*
X0242499Y0336236D01*
X0242499Y0335181D02*
X0242499Y0337292D01*
X0242499Y0334102D02*
X0242499Y0331991D01*
X0239332Y0331991D01*
X0239332Y0334102D01*
X0240916Y0333046D02*
X0240916Y0331991D01*
X0242499Y0330912D02*
X0239332Y0330912D01*
X0242499Y0328800D01*
X0239332Y0328800D01*
M02*
