G75*
%MOIN*%
%OFA0B0*%
%FSLAX25Y25*%
%IPPOS*%
%LPD*%
%AMOC8*
5,1,8,0,0,1.08239X$1,22.5*
%
%ADD10C,0.01600*%
%ADD11C,0.00400*%
%ADD12C,0.00500*%
%ADD13C,0.00000*%
%ADD14C,0.00472*%
%ADD15C,0.00300*%
%ADD16C,0.00600*%
D10*
X0116889Y0116889D02*
X0116889Y0251889D01*
X0001889Y0251889D01*
X0001889Y0268139D01*
X0001889Y0275639D02*
X0001889Y0290639D01*
X0001889Y0291889D02*
X0116889Y0291889D01*
X0116889Y0426889D01*
X0256889Y0426889D01*
X0256889Y0541889D01*
X0273139Y0541889D01*
X0280639Y0541889D02*
X0296889Y0541889D01*
X0296889Y0426889D01*
X0426889Y0426889D01*
X0426889Y0291889D01*
X0541889Y0291889D01*
X0541889Y0275639D01*
X0541889Y0268139D02*
X0541889Y0251889D01*
X0426889Y0251889D01*
X0426889Y0116889D01*
X0296889Y0116889D01*
X0296889Y0001889D01*
X0280639Y0001889D01*
X0273139Y0001889D02*
X0256889Y0001889D01*
X0256889Y0116889D01*
X0116889Y0116889D01*
X0001799Y0268739D02*
X0001881Y0268344D01*
X0001973Y0267950D01*
X0002074Y0267559D01*
X0002185Y0267170D01*
X0002305Y0266785D01*
X0002435Y0266402D01*
X0002574Y0266023D01*
X0002722Y0265647D01*
X0002879Y0265275D01*
X0003046Y0264906D01*
X0003221Y0264542D01*
X0003405Y0264183D01*
X0003598Y0263828D01*
X0003800Y0263478D01*
X0004010Y0263133D01*
X0004228Y0262793D01*
X0004455Y0262458D01*
X0004690Y0262129D01*
X0004933Y0261807D01*
X0005184Y0261490D01*
X0005442Y0261179D01*
X0005708Y0260875D01*
X0005981Y0260577D01*
X0006262Y0260286D01*
X0006549Y0260002D01*
X0006844Y0259726D01*
X0007145Y0259456D01*
X0007452Y0259194D01*
X0007766Y0258940D01*
X0008086Y0258693D01*
X0008412Y0258454D01*
X0008744Y0258223D01*
X0009081Y0258001D01*
X0009424Y0257787D01*
X0009771Y0257581D01*
X0010124Y0257384D01*
X0010481Y0257195D01*
X0010843Y0257016D01*
X0011209Y0256845D01*
X0011580Y0256683D01*
X0011954Y0256530D01*
X0012331Y0256387D01*
X0012713Y0256253D01*
X0013097Y0256128D01*
X0013484Y0256013D01*
X0013874Y0255907D01*
X0014266Y0255810D01*
X0014661Y0255724D01*
X0015058Y0255647D01*
X0015456Y0255580D01*
X0015856Y0255522D01*
X0016257Y0255475D01*
X0016660Y0255437D01*
X0017063Y0255409D01*
X0017466Y0255391D01*
X0017870Y0255383D01*
X0018274Y0255384D01*
X0018678Y0255396D01*
X0019082Y0255417D01*
X0019485Y0255449D01*
X0019886Y0255490D01*
X0020287Y0255541D01*
X0020687Y0255602D01*
X0021085Y0255672D01*
X0021481Y0255752D01*
X0021874Y0255842D01*
X0022266Y0255942D01*
X0022655Y0256051D01*
X0023041Y0256170D01*
X0023425Y0256298D01*
X0023805Y0256435D01*
X0024181Y0256582D01*
X0024554Y0256738D01*
X0024923Y0256902D01*
X0025288Y0257076D01*
X0025648Y0257259D01*
X0026004Y0257450D01*
X0026355Y0257651D01*
X0026701Y0257859D01*
X0027041Y0258076D01*
X0027377Y0258302D01*
X0027707Y0258535D01*
X0028030Y0258777D01*
X0028348Y0259026D01*
X0028660Y0259283D01*
X0028965Y0259548D01*
X0029264Y0259820D01*
X0029556Y0260099D01*
X0029841Y0260385D01*
X0030119Y0260679D01*
X0030390Y0260978D01*
X0030653Y0261285D01*
X0030909Y0261598D01*
X0031157Y0261917D01*
X0031397Y0262242D01*
X0031629Y0262572D01*
X0031853Y0262909D01*
X0032069Y0263250D01*
X0032276Y0263597D01*
X0032475Y0263949D01*
X0032665Y0264306D01*
X0032846Y0264667D01*
X0033019Y0265032D01*
X0033182Y0265402D01*
X0033336Y0265775D01*
X0033481Y0266152D01*
X0033617Y0266533D01*
X0033743Y0266917D01*
X0033860Y0267303D01*
X0033968Y0267693D01*
X0034066Y0268085D01*
X0034154Y0268479D01*
X0034233Y0268876D01*
X0034302Y0269274D01*
X0034361Y0269673D01*
X0034410Y0270074D01*
X0034449Y0270477D01*
X0034479Y0270879D01*
X0034499Y0271283D01*
X0034509Y0271687D01*
X0034509Y0272091D01*
X0034499Y0272495D01*
X0034479Y0272899D01*
X0034449Y0273301D01*
X0034410Y0273704D01*
X0034361Y0274105D01*
X0034302Y0274504D01*
X0034233Y0274902D01*
X0034154Y0275299D01*
X0034066Y0275693D01*
X0033968Y0276085D01*
X0033860Y0276475D01*
X0033743Y0276861D01*
X0033617Y0277245D01*
X0033481Y0277626D01*
X0033336Y0278003D01*
X0033182Y0278376D01*
X0033019Y0278746D01*
X0032846Y0279111D01*
X0032665Y0279472D01*
X0032475Y0279829D01*
X0032276Y0280181D01*
X0032069Y0280528D01*
X0031853Y0280869D01*
X0031629Y0281206D01*
X0031397Y0281536D01*
X0031157Y0281861D01*
X0030909Y0282180D01*
X0030653Y0282493D01*
X0030390Y0282800D01*
X0030119Y0283099D01*
X0029841Y0283393D01*
X0029556Y0283679D01*
X0029264Y0283958D01*
X0028965Y0284230D01*
X0028660Y0284495D01*
X0028348Y0284752D01*
X0028030Y0285001D01*
X0027707Y0285243D01*
X0027377Y0285476D01*
X0027041Y0285702D01*
X0026701Y0285919D01*
X0026355Y0286127D01*
X0026004Y0286328D01*
X0025648Y0286519D01*
X0025288Y0286702D01*
X0024923Y0286876D01*
X0024554Y0287040D01*
X0024181Y0287196D01*
X0023805Y0287343D01*
X0023425Y0287480D01*
X0023041Y0287608D01*
X0022655Y0287727D01*
X0022266Y0287836D01*
X0021874Y0287936D01*
X0021481Y0288026D01*
X0021085Y0288106D01*
X0020687Y0288176D01*
X0020287Y0288237D01*
X0019886Y0288288D01*
X0019485Y0288329D01*
X0019082Y0288361D01*
X0018678Y0288382D01*
X0018274Y0288394D01*
X0017870Y0288395D01*
X0017466Y0288387D01*
X0017063Y0288369D01*
X0016660Y0288341D01*
X0016257Y0288303D01*
X0015856Y0288256D01*
X0015456Y0288198D01*
X0015058Y0288131D01*
X0014661Y0288054D01*
X0014266Y0287968D01*
X0013874Y0287871D01*
X0013484Y0287765D01*
X0013097Y0287650D01*
X0012713Y0287525D01*
X0012331Y0287391D01*
X0011954Y0287248D01*
X0011580Y0287095D01*
X0011209Y0286933D01*
X0010843Y0286762D01*
X0010481Y0286583D01*
X0010124Y0286394D01*
X0009771Y0286197D01*
X0009424Y0285991D01*
X0009081Y0285777D01*
X0008744Y0285555D01*
X0008412Y0285324D01*
X0008086Y0285085D01*
X0007766Y0284838D01*
X0007452Y0284584D01*
X0007145Y0284322D01*
X0006844Y0284052D01*
X0006549Y0283776D01*
X0006262Y0283492D01*
X0005981Y0283201D01*
X0005708Y0282903D01*
X0005442Y0282599D01*
X0005184Y0282288D01*
X0004933Y0281971D01*
X0004690Y0281649D01*
X0004455Y0281320D01*
X0004228Y0280985D01*
X0004010Y0280645D01*
X0003800Y0280300D01*
X0003598Y0279950D01*
X0003405Y0279595D01*
X0003221Y0279236D01*
X0003046Y0278872D01*
X0002879Y0278503D01*
X0002722Y0278131D01*
X0002574Y0277755D01*
X0002435Y0277376D01*
X0002305Y0276993D01*
X0002185Y0276608D01*
X0002074Y0276219D01*
X0001973Y0275828D01*
X0001881Y0275434D01*
X0001799Y0275039D01*
X0273739Y0541978D02*
X0273344Y0541896D01*
X0272950Y0541804D01*
X0272559Y0541703D01*
X0272170Y0541592D01*
X0271785Y0541472D01*
X0271402Y0541342D01*
X0271023Y0541203D01*
X0270647Y0541055D01*
X0270275Y0540898D01*
X0269906Y0540731D01*
X0269542Y0540556D01*
X0269183Y0540372D01*
X0268828Y0540179D01*
X0268478Y0539977D01*
X0268133Y0539767D01*
X0267793Y0539549D01*
X0267458Y0539322D01*
X0267129Y0539087D01*
X0266807Y0538844D01*
X0266490Y0538593D01*
X0266179Y0538335D01*
X0265875Y0538069D01*
X0265577Y0537796D01*
X0265286Y0537515D01*
X0265002Y0537228D01*
X0264726Y0536933D01*
X0264456Y0536632D01*
X0264194Y0536325D01*
X0263940Y0536011D01*
X0263693Y0535691D01*
X0263454Y0535365D01*
X0263223Y0535033D01*
X0263001Y0534696D01*
X0262787Y0534353D01*
X0262581Y0534006D01*
X0262384Y0533653D01*
X0262195Y0533296D01*
X0262016Y0532934D01*
X0261845Y0532568D01*
X0261683Y0532197D01*
X0261530Y0531823D01*
X0261387Y0531446D01*
X0261253Y0531064D01*
X0261128Y0530680D01*
X0261013Y0530293D01*
X0260907Y0529903D01*
X0260810Y0529511D01*
X0260724Y0529116D01*
X0260647Y0528719D01*
X0260580Y0528321D01*
X0260522Y0527921D01*
X0260475Y0527520D01*
X0260437Y0527117D01*
X0260409Y0526714D01*
X0260391Y0526311D01*
X0260383Y0525907D01*
X0260384Y0525503D01*
X0260396Y0525099D01*
X0260417Y0524695D01*
X0260449Y0524292D01*
X0260490Y0523891D01*
X0260541Y0523490D01*
X0260602Y0523090D01*
X0260672Y0522692D01*
X0260752Y0522296D01*
X0260842Y0521903D01*
X0260942Y0521511D01*
X0261051Y0521122D01*
X0261170Y0520736D01*
X0261298Y0520352D01*
X0261435Y0519972D01*
X0261582Y0519596D01*
X0261738Y0519223D01*
X0261902Y0518854D01*
X0262076Y0518489D01*
X0262259Y0518129D01*
X0262450Y0517773D01*
X0262651Y0517422D01*
X0262859Y0517076D01*
X0263076Y0516736D01*
X0263302Y0516400D01*
X0263535Y0516070D01*
X0263777Y0515747D01*
X0264026Y0515429D01*
X0264283Y0515117D01*
X0264548Y0514812D01*
X0264820Y0514513D01*
X0265099Y0514221D01*
X0265385Y0513936D01*
X0265679Y0513658D01*
X0265978Y0513387D01*
X0266285Y0513124D01*
X0266598Y0512868D01*
X0266917Y0512620D01*
X0267242Y0512380D01*
X0267572Y0512148D01*
X0267909Y0511924D01*
X0268250Y0511708D01*
X0268597Y0511501D01*
X0268949Y0511302D01*
X0269306Y0511112D01*
X0269667Y0510931D01*
X0270032Y0510758D01*
X0270402Y0510595D01*
X0270775Y0510441D01*
X0271152Y0510296D01*
X0271533Y0510160D01*
X0271917Y0510034D01*
X0272303Y0509917D01*
X0272693Y0509809D01*
X0273085Y0509711D01*
X0273479Y0509623D01*
X0273876Y0509544D01*
X0274274Y0509475D01*
X0274673Y0509416D01*
X0275074Y0509367D01*
X0275477Y0509328D01*
X0275879Y0509298D01*
X0276283Y0509278D01*
X0276687Y0509268D01*
X0277091Y0509268D01*
X0277495Y0509278D01*
X0277899Y0509298D01*
X0278301Y0509328D01*
X0278704Y0509367D01*
X0279105Y0509416D01*
X0279504Y0509475D01*
X0279902Y0509544D01*
X0280299Y0509623D01*
X0280693Y0509711D01*
X0281085Y0509809D01*
X0281475Y0509917D01*
X0281861Y0510034D01*
X0282245Y0510160D01*
X0282626Y0510296D01*
X0283003Y0510441D01*
X0283376Y0510595D01*
X0283746Y0510758D01*
X0284111Y0510931D01*
X0284472Y0511112D01*
X0284829Y0511302D01*
X0285181Y0511501D01*
X0285528Y0511708D01*
X0285869Y0511924D01*
X0286206Y0512148D01*
X0286536Y0512380D01*
X0286861Y0512620D01*
X0287180Y0512868D01*
X0287493Y0513124D01*
X0287800Y0513387D01*
X0288099Y0513658D01*
X0288393Y0513936D01*
X0288679Y0514221D01*
X0288958Y0514513D01*
X0289230Y0514812D01*
X0289495Y0515117D01*
X0289752Y0515429D01*
X0290001Y0515747D01*
X0290243Y0516070D01*
X0290476Y0516400D01*
X0290702Y0516736D01*
X0290919Y0517076D01*
X0291127Y0517422D01*
X0291328Y0517773D01*
X0291519Y0518129D01*
X0291702Y0518489D01*
X0291876Y0518854D01*
X0292040Y0519223D01*
X0292196Y0519596D01*
X0292343Y0519972D01*
X0292480Y0520352D01*
X0292608Y0520736D01*
X0292727Y0521122D01*
X0292836Y0521511D01*
X0292936Y0521903D01*
X0293026Y0522296D01*
X0293106Y0522692D01*
X0293176Y0523090D01*
X0293237Y0523490D01*
X0293288Y0523891D01*
X0293329Y0524292D01*
X0293361Y0524695D01*
X0293382Y0525099D01*
X0293394Y0525503D01*
X0293395Y0525907D01*
X0293387Y0526311D01*
X0293369Y0526714D01*
X0293341Y0527117D01*
X0293303Y0527520D01*
X0293256Y0527921D01*
X0293198Y0528321D01*
X0293131Y0528719D01*
X0293054Y0529116D01*
X0292968Y0529511D01*
X0292871Y0529903D01*
X0292765Y0530293D01*
X0292650Y0530680D01*
X0292525Y0531064D01*
X0292391Y0531446D01*
X0292248Y0531823D01*
X0292095Y0532197D01*
X0291933Y0532568D01*
X0291762Y0532934D01*
X0291583Y0533296D01*
X0291394Y0533653D01*
X0291197Y0534006D01*
X0290991Y0534353D01*
X0290777Y0534696D01*
X0290555Y0535033D01*
X0290324Y0535365D01*
X0290085Y0535691D01*
X0289838Y0536011D01*
X0289584Y0536325D01*
X0289322Y0536632D01*
X0289052Y0536933D01*
X0288776Y0537228D01*
X0288492Y0537515D01*
X0288201Y0537796D01*
X0287903Y0538069D01*
X0287599Y0538335D01*
X0287288Y0538593D01*
X0286971Y0538844D01*
X0286649Y0539087D01*
X0286320Y0539322D01*
X0285985Y0539549D01*
X0285645Y0539767D01*
X0285300Y0539977D01*
X0284950Y0540179D01*
X0284595Y0540372D01*
X0284236Y0540556D01*
X0283872Y0540731D01*
X0283503Y0540898D01*
X0283131Y0541055D01*
X0282755Y0541203D01*
X0282376Y0541342D01*
X0281993Y0541472D01*
X0281608Y0541592D01*
X0281219Y0541703D01*
X0280828Y0541804D01*
X0280434Y0541896D01*
X0280039Y0541978D01*
X0541978Y0275039D02*
X0541896Y0275434D01*
X0541804Y0275828D01*
X0541703Y0276219D01*
X0541592Y0276608D01*
X0541472Y0276993D01*
X0541342Y0277376D01*
X0541203Y0277755D01*
X0541055Y0278131D01*
X0540898Y0278503D01*
X0540731Y0278872D01*
X0540556Y0279236D01*
X0540372Y0279595D01*
X0540179Y0279950D01*
X0539977Y0280300D01*
X0539767Y0280645D01*
X0539549Y0280985D01*
X0539322Y0281320D01*
X0539087Y0281649D01*
X0538844Y0281971D01*
X0538593Y0282288D01*
X0538335Y0282599D01*
X0538069Y0282903D01*
X0537796Y0283201D01*
X0537515Y0283492D01*
X0537228Y0283776D01*
X0536933Y0284052D01*
X0536632Y0284322D01*
X0536325Y0284584D01*
X0536011Y0284838D01*
X0535691Y0285085D01*
X0535365Y0285324D01*
X0535033Y0285555D01*
X0534696Y0285777D01*
X0534353Y0285991D01*
X0534006Y0286197D01*
X0533653Y0286394D01*
X0533296Y0286583D01*
X0532934Y0286762D01*
X0532568Y0286933D01*
X0532197Y0287095D01*
X0531823Y0287248D01*
X0531446Y0287391D01*
X0531064Y0287525D01*
X0530680Y0287650D01*
X0530293Y0287765D01*
X0529903Y0287871D01*
X0529511Y0287968D01*
X0529116Y0288054D01*
X0528719Y0288131D01*
X0528321Y0288198D01*
X0527921Y0288256D01*
X0527520Y0288303D01*
X0527117Y0288341D01*
X0526714Y0288369D01*
X0526311Y0288387D01*
X0525907Y0288395D01*
X0525503Y0288394D01*
X0525099Y0288382D01*
X0524695Y0288361D01*
X0524292Y0288329D01*
X0523891Y0288288D01*
X0523490Y0288237D01*
X0523090Y0288176D01*
X0522692Y0288106D01*
X0522296Y0288026D01*
X0521903Y0287936D01*
X0521511Y0287836D01*
X0521122Y0287727D01*
X0520736Y0287608D01*
X0520352Y0287480D01*
X0519972Y0287343D01*
X0519596Y0287196D01*
X0519223Y0287040D01*
X0518854Y0286876D01*
X0518489Y0286702D01*
X0518129Y0286519D01*
X0517773Y0286328D01*
X0517422Y0286127D01*
X0517076Y0285919D01*
X0516736Y0285702D01*
X0516400Y0285476D01*
X0516070Y0285243D01*
X0515747Y0285001D01*
X0515429Y0284752D01*
X0515117Y0284495D01*
X0514812Y0284230D01*
X0514513Y0283958D01*
X0514221Y0283679D01*
X0513936Y0283393D01*
X0513658Y0283099D01*
X0513387Y0282800D01*
X0513124Y0282493D01*
X0512868Y0282180D01*
X0512620Y0281861D01*
X0512380Y0281536D01*
X0512148Y0281206D01*
X0511924Y0280869D01*
X0511708Y0280528D01*
X0511501Y0280181D01*
X0511302Y0279829D01*
X0511112Y0279472D01*
X0510931Y0279111D01*
X0510758Y0278746D01*
X0510595Y0278376D01*
X0510441Y0278003D01*
X0510296Y0277626D01*
X0510160Y0277245D01*
X0510034Y0276861D01*
X0509917Y0276475D01*
X0509809Y0276085D01*
X0509711Y0275693D01*
X0509623Y0275299D01*
X0509544Y0274902D01*
X0509475Y0274504D01*
X0509416Y0274105D01*
X0509367Y0273704D01*
X0509328Y0273301D01*
X0509298Y0272899D01*
X0509278Y0272495D01*
X0509268Y0272091D01*
X0509268Y0271687D01*
X0509278Y0271283D01*
X0509298Y0270879D01*
X0509328Y0270477D01*
X0509367Y0270074D01*
X0509416Y0269673D01*
X0509475Y0269274D01*
X0509544Y0268876D01*
X0509623Y0268479D01*
X0509711Y0268085D01*
X0509809Y0267693D01*
X0509917Y0267303D01*
X0510034Y0266917D01*
X0510160Y0266533D01*
X0510296Y0266152D01*
X0510441Y0265775D01*
X0510595Y0265402D01*
X0510758Y0265032D01*
X0510931Y0264667D01*
X0511112Y0264306D01*
X0511302Y0263949D01*
X0511501Y0263597D01*
X0511708Y0263250D01*
X0511924Y0262909D01*
X0512148Y0262572D01*
X0512380Y0262242D01*
X0512620Y0261917D01*
X0512868Y0261598D01*
X0513124Y0261285D01*
X0513387Y0260978D01*
X0513658Y0260679D01*
X0513936Y0260385D01*
X0514221Y0260099D01*
X0514513Y0259820D01*
X0514812Y0259548D01*
X0515117Y0259283D01*
X0515429Y0259026D01*
X0515747Y0258777D01*
X0516070Y0258535D01*
X0516400Y0258302D01*
X0516736Y0258076D01*
X0517076Y0257859D01*
X0517422Y0257651D01*
X0517773Y0257450D01*
X0518129Y0257259D01*
X0518489Y0257076D01*
X0518854Y0256902D01*
X0519223Y0256738D01*
X0519596Y0256582D01*
X0519972Y0256435D01*
X0520352Y0256298D01*
X0520736Y0256170D01*
X0521122Y0256051D01*
X0521511Y0255942D01*
X0521903Y0255842D01*
X0522296Y0255752D01*
X0522692Y0255672D01*
X0523090Y0255602D01*
X0523490Y0255541D01*
X0523891Y0255490D01*
X0524292Y0255449D01*
X0524695Y0255417D01*
X0525099Y0255396D01*
X0525503Y0255384D01*
X0525907Y0255383D01*
X0526311Y0255391D01*
X0526714Y0255409D01*
X0527117Y0255437D01*
X0527520Y0255475D01*
X0527921Y0255522D01*
X0528321Y0255580D01*
X0528719Y0255647D01*
X0529116Y0255724D01*
X0529511Y0255810D01*
X0529903Y0255907D01*
X0530293Y0256013D01*
X0530680Y0256128D01*
X0531064Y0256253D01*
X0531446Y0256387D01*
X0531823Y0256530D01*
X0532197Y0256683D01*
X0532568Y0256845D01*
X0532934Y0257016D01*
X0533296Y0257195D01*
X0533653Y0257384D01*
X0534006Y0257581D01*
X0534353Y0257787D01*
X0534696Y0258001D01*
X0535033Y0258223D01*
X0535365Y0258454D01*
X0535691Y0258693D01*
X0536011Y0258940D01*
X0536325Y0259194D01*
X0536632Y0259456D01*
X0536933Y0259726D01*
X0537228Y0260002D01*
X0537515Y0260286D01*
X0537796Y0260577D01*
X0538069Y0260875D01*
X0538335Y0261179D01*
X0538593Y0261490D01*
X0538844Y0261807D01*
X0539087Y0262129D01*
X0539322Y0262458D01*
X0539549Y0262793D01*
X0539767Y0263133D01*
X0539977Y0263478D01*
X0540179Y0263828D01*
X0540372Y0264183D01*
X0540556Y0264542D01*
X0540731Y0264906D01*
X0540898Y0265275D01*
X0541055Y0265647D01*
X0541203Y0266023D01*
X0541342Y0266402D01*
X0541472Y0266785D01*
X0541592Y0267170D01*
X0541703Y0267559D01*
X0541804Y0267950D01*
X0541896Y0268344D01*
X0541978Y0268739D01*
X0280039Y0001799D02*
X0280434Y0001881D01*
X0280828Y0001973D01*
X0281219Y0002074D01*
X0281608Y0002185D01*
X0281993Y0002305D01*
X0282376Y0002435D01*
X0282755Y0002574D01*
X0283131Y0002722D01*
X0283503Y0002879D01*
X0283872Y0003046D01*
X0284236Y0003221D01*
X0284595Y0003405D01*
X0284950Y0003598D01*
X0285300Y0003800D01*
X0285645Y0004010D01*
X0285985Y0004228D01*
X0286320Y0004455D01*
X0286649Y0004690D01*
X0286971Y0004933D01*
X0287288Y0005184D01*
X0287599Y0005442D01*
X0287903Y0005708D01*
X0288201Y0005981D01*
X0288492Y0006262D01*
X0288776Y0006549D01*
X0289052Y0006844D01*
X0289322Y0007145D01*
X0289584Y0007452D01*
X0289838Y0007766D01*
X0290085Y0008086D01*
X0290324Y0008412D01*
X0290555Y0008744D01*
X0290777Y0009081D01*
X0290991Y0009424D01*
X0291197Y0009771D01*
X0291394Y0010124D01*
X0291583Y0010481D01*
X0291762Y0010843D01*
X0291933Y0011209D01*
X0292095Y0011580D01*
X0292248Y0011954D01*
X0292391Y0012331D01*
X0292525Y0012713D01*
X0292650Y0013097D01*
X0292765Y0013484D01*
X0292871Y0013874D01*
X0292968Y0014266D01*
X0293054Y0014661D01*
X0293131Y0015058D01*
X0293198Y0015456D01*
X0293256Y0015856D01*
X0293303Y0016257D01*
X0293341Y0016660D01*
X0293369Y0017063D01*
X0293387Y0017466D01*
X0293395Y0017870D01*
X0293394Y0018274D01*
X0293382Y0018678D01*
X0293361Y0019082D01*
X0293329Y0019485D01*
X0293288Y0019886D01*
X0293237Y0020287D01*
X0293176Y0020687D01*
X0293106Y0021085D01*
X0293026Y0021481D01*
X0292936Y0021874D01*
X0292836Y0022266D01*
X0292727Y0022655D01*
X0292608Y0023041D01*
X0292480Y0023425D01*
X0292343Y0023805D01*
X0292196Y0024181D01*
X0292040Y0024554D01*
X0291876Y0024923D01*
X0291702Y0025288D01*
X0291519Y0025648D01*
X0291328Y0026004D01*
X0291127Y0026355D01*
X0290919Y0026701D01*
X0290702Y0027041D01*
X0290476Y0027377D01*
X0290243Y0027707D01*
X0290001Y0028030D01*
X0289752Y0028348D01*
X0289495Y0028660D01*
X0289230Y0028965D01*
X0288958Y0029264D01*
X0288679Y0029556D01*
X0288393Y0029841D01*
X0288099Y0030119D01*
X0287800Y0030390D01*
X0287493Y0030653D01*
X0287180Y0030909D01*
X0286861Y0031157D01*
X0286536Y0031397D01*
X0286206Y0031629D01*
X0285869Y0031853D01*
X0285528Y0032069D01*
X0285181Y0032276D01*
X0284829Y0032475D01*
X0284472Y0032665D01*
X0284111Y0032846D01*
X0283746Y0033019D01*
X0283376Y0033182D01*
X0283003Y0033336D01*
X0282626Y0033481D01*
X0282245Y0033617D01*
X0281861Y0033743D01*
X0281475Y0033860D01*
X0281085Y0033968D01*
X0280693Y0034066D01*
X0280299Y0034154D01*
X0279902Y0034233D01*
X0279504Y0034302D01*
X0279105Y0034361D01*
X0278704Y0034410D01*
X0278301Y0034449D01*
X0277899Y0034479D01*
X0277495Y0034499D01*
X0277091Y0034509D01*
X0276687Y0034509D01*
X0276283Y0034499D01*
X0275879Y0034479D01*
X0275477Y0034449D01*
X0275074Y0034410D01*
X0274673Y0034361D01*
X0274274Y0034302D01*
X0273876Y0034233D01*
X0273479Y0034154D01*
X0273085Y0034066D01*
X0272693Y0033968D01*
X0272303Y0033860D01*
X0271917Y0033743D01*
X0271533Y0033617D01*
X0271152Y0033481D01*
X0270775Y0033336D01*
X0270402Y0033182D01*
X0270032Y0033019D01*
X0269667Y0032846D01*
X0269306Y0032665D01*
X0268949Y0032475D01*
X0268597Y0032276D01*
X0268250Y0032069D01*
X0267909Y0031853D01*
X0267572Y0031629D01*
X0267242Y0031397D01*
X0266917Y0031157D01*
X0266598Y0030909D01*
X0266285Y0030653D01*
X0265978Y0030390D01*
X0265679Y0030119D01*
X0265385Y0029841D01*
X0265099Y0029556D01*
X0264820Y0029264D01*
X0264548Y0028965D01*
X0264283Y0028660D01*
X0264026Y0028348D01*
X0263777Y0028030D01*
X0263535Y0027707D01*
X0263302Y0027377D01*
X0263076Y0027041D01*
X0262859Y0026701D01*
X0262651Y0026355D01*
X0262450Y0026004D01*
X0262259Y0025648D01*
X0262076Y0025288D01*
X0261902Y0024923D01*
X0261738Y0024554D01*
X0261582Y0024181D01*
X0261435Y0023805D01*
X0261298Y0023425D01*
X0261170Y0023041D01*
X0261051Y0022655D01*
X0260942Y0022266D01*
X0260842Y0021874D01*
X0260752Y0021481D01*
X0260672Y0021085D01*
X0260602Y0020687D01*
X0260541Y0020287D01*
X0260490Y0019886D01*
X0260449Y0019485D01*
X0260417Y0019082D01*
X0260396Y0018678D01*
X0260384Y0018274D01*
X0260383Y0017870D01*
X0260391Y0017466D01*
X0260409Y0017063D01*
X0260437Y0016660D01*
X0260475Y0016257D01*
X0260522Y0015856D01*
X0260580Y0015456D01*
X0260647Y0015058D01*
X0260724Y0014661D01*
X0260810Y0014266D01*
X0260907Y0013874D01*
X0261013Y0013484D01*
X0261128Y0013097D01*
X0261253Y0012713D01*
X0261387Y0012331D01*
X0261530Y0011954D01*
X0261683Y0011580D01*
X0261845Y0011209D01*
X0262016Y0010843D01*
X0262195Y0010481D01*
X0262384Y0010124D01*
X0262581Y0009771D01*
X0262787Y0009424D01*
X0263001Y0009081D01*
X0263223Y0008744D01*
X0263454Y0008412D01*
X0263693Y0008086D01*
X0263940Y0007766D01*
X0264194Y0007452D01*
X0264456Y0007145D01*
X0264726Y0006844D01*
X0265002Y0006549D01*
X0265286Y0006262D01*
X0265577Y0005981D01*
X0265875Y0005708D01*
X0266179Y0005442D01*
X0266490Y0005184D01*
X0266807Y0004933D01*
X0267129Y0004690D01*
X0267458Y0004455D01*
X0267793Y0004228D01*
X0268133Y0004010D01*
X0268478Y0003800D01*
X0268828Y0003598D01*
X0269183Y0003405D01*
X0269542Y0003221D01*
X0269906Y0003046D01*
X0270275Y0002879D01*
X0270647Y0002722D01*
X0271023Y0002574D01*
X0271402Y0002435D01*
X0271785Y0002305D01*
X0272170Y0002185D01*
X0272559Y0002074D01*
X0272950Y0001973D01*
X0273344Y0001881D01*
X0273739Y0001799D01*
D11*
X0273198Y0224589D02*
X0270896Y0224589D01*
X0270129Y0225356D01*
X0270129Y0226123D01*
X0270896Y0226891D01*
X0273198Y0226891D01*
X0273198Y0224589D02*
X0273198Y0229193D01*
X0270896Y0229193D01*
X0270129Y0228425D01*
X0270129Y0227658D01*
X0270896Y0226891D01*
X0268594Y0226891D02*
X0265525Y0226891D01*
X0265525Y0227658D02*
X0265525Y0224589D01*
X0265525Y0227658D02*
X0267060Y0229193D01*
X0268594Y0227658D01*
X0268594Y0224589D01*
X0262456Y0224589D02*
X0262456Y0229193D01*
X0263991Y0229193D02*
X0260921Y0229193D01*
X0259387Y0229193D02*
X0256317Y0229193D01*
X0257852Y0229193D02*
X0257852Y0224589D01*
X0254783Y0224589D02*
X0251713Y0224589D01*
X0253248Y0224589D02*
X0253248Y0229193D01*
X0254783Y0227658D01*
X0159366Y0314589D02*
X0156296Y0314589D01*
X0156296Y0319193D01*
X0154762Y0318425D02*
X0153994Y0319193D01*
X0152460Y0319193D01*
X0151693Y0318425D01*
X0151693Y0315356D01*
X0152460Y0314589D01*
X0153994Y0314589D01*
X0154762Y0315356D01*
X0150158Y0315356D02*
X0150158Y0316123D01*
X0149391Y0316891D01*
X0147856Y0316891D01*
X0147089Y0317658D01*
X0147089Y0318425D01*
X0147856Y0319193D01*
X0149391Y0319193D01*
X0150158Y0318425D01*
X0150158Y0315356D02*
X0149391Y0314589D01*
X0147856Y0314589D01*
X0147089Y0315356D01*
X0147856Y0324589D02*
X0147089Y0325356D01*
X0147856Y0324589D02*
X0149391Y0324589D01*
X0150158Y0325356D01*
X0150158Y0326123D01*
X0149391Y0326891D01*
X0147856Y0326891D01*
X0147089Y0327658D01*
X0147089Y0328425D01*
X0147856Y0329193D01*
X0149391Y0329193D01*
X0150158Y0328425D01*
X0151693Y0329193D02*
X0153994Y0329193D01*
X0154762Y0328425D01*
X0154762Y0325356D01*
X0153994Y0324589D01*
X0151693Y0324589D01*
X0151693Y0329193D01*
X0156296Y0327658D02*
X0156296Y0324589D01*
X0156296Y0326891D02*
X0159366Y0326891D01*
X0159366Y0327658D02*
X0159366Y0324589D01*
X0159366Y0327658D02*
X0157831Y0329193D01*
X0156296Y0327658D01*
X0154762Y0334589D02*
X0151693Y0334589D01*
X0151693Y0339193D01*
X0154762Y0339193D01*
X0156296Y0336891D02*
X0159366Y0336891D01*
X0158598Y0334589D02*
X0158598Y0339193D01*
X0156296Y0336891D01*
X0153227Y0336891D02*
X0151693Y0336891D01*
X0150158Y0336891D02*
X0149391Y0336123D01*
X0147089Y0336123D01*
X0147089Y0334589D02*
X0147089Y0339193D01*
X0149391Y0339193D01*
X0150158Y0338425D01*
X0150158Y0336891D01*
X0151693Y0344589D02*
X0154762Y0344589D01*
X0156296Y0345356D02*
X0157064Y0344589D01*
X0158598Y0344589D01*
X0159366Y0345356D01*
X0159366Y0346123D01*
X0158598Y0346891D01*
X0157831Y0346891D01*
X0158598Y0346891D02*
X0159366Y0347658D01*
X0159366Y0348425D01*
X0158598Y0349193D01*
X0157064Y0349193D01*
X0156296Y0348425D01*
X0154762Y0349193D02*
X0151693Y0349193D01*
X0151693Y0344589D01*
X0151693Y0346891D02*
X0153227Y0346891D01*
X0150158Y0346891D02*
X0150158Y0348425D01*
X0149391Y0349193D01*
X0147089Y0349193D01*
X0147089Y0344589D01*
X0147089Y0346123D02*
X0149391Y0346123D01*
X0150158Y0346891D01*
X0151693Y0354589D02*
X0154762Y0354589D01*
X0156296Y0355356D02*
X0157064Y0354589D01*
X0158598Y0354589D01*
X0159366Y0355356D01*
X0159366Y0356891D01*
X0158598Y0357658D01*
X0157831Y0357658D01*
X0156296Y0356891D01*
X0156296Y0359193D01*
X0159366Y0359193D01*
X0154762Y0359193D02*
X0151693Y0359193D01*
X0151693Y0354589D01*
X0151693Y0356891D02*
X0153227Y0356891D01*
X0150158Y0356891D02*
X0149391Y0356123D01*
X0147089Y0356123D01*
X0147089Y0354589D02*
X0147089Y0359193D01*
X0149391Y0359193D01*
X0150158Y0358425D01*
X0150158Y0356891D01*
X0151693Y0364589D02*
X0153994Y0364589D01*
X0154762Y0365356D01*
X0154762Y0366123D01*
X0153994Y0366891D01*
X0151693Y0366891D01*
X0150158Y0366891D02*
X0149391Y0366123D01*
X0147089Y0366123D01*
X0147089Y0364589D02*
X0147089Y0369193D01*
X0149391Y0369193D01*
X0150158Y0368425D01*
X0150158Y0366891D01*
X0151693Y0369193D02*
X0153994Y0369193D01*
X0154762Y0368425D01*
X0154762Y0367658D01*
X0153994Y0366891D01*
X0156296Y0366891D02*
X0157831Y0367658D01*
X0158598Y0367658D01*
X0159366Y0366891D01*
X0159366Y0365356D01*
X0158598Y0364589D01*
X0157064Y0364589D01*
X0156296Y0365356D01*
X0156296Y0366891D02*
X0156296Y0369193D01*
X0159366Y0369193D01*
X0160133Y0374589D02*
X0161668Y0376123D01*
X0161668Y0379193D01*
X0158598Y0379193D02*
X0158598Y0376123D01*
X0160133Y0374589D01*
X0157064Y0375356D02*
X0156296Y0374589D01*
X0154762Y0374589D01*
X0153994Y0375356D01*
X0157064Y0378425D01*
X0157064Y0375356D01*
X0157064Y0378425D02*
X0156296Y0379193D01*
X0154762Y0379193D01*
X0153994Y0378425D01*
X0153994Y0375356D01*
X0152460Y0375356D02*
X0152460Y0374589D01*
X0151693Y0374589D01*
X0151693Y0375356D01*
X0152460Y0375356D01*
X0150158Y0375356D02*
X0149391Y0374589D01*
X0147856Y0374589D01*
X0147089Y0375356D01*
X0148623Y0376891D02*
X0149391Y0376891D01*
X0150158Y0376123D01*
X0150158Y0375356D01*
X0149391Y0376891D02*
X0150158Y0377658D01*
X0150158Y0378425D01*
X0149391Y0379193D01*
X0147856Y0379193D01*
X0147089Y0378425D01*
X0148623Y0384589D02*
X0150158Y0386123D01*
X0150158Y0389193D01*
X0151693Y0389193D02*
X0153994Y0389193D01*
X0154762Y0388425D01*
X0154762Y0387658D01*
X0153994Y0386891D01*
X0151693Y0386891D01*
X0153994Y0386891D02*
X0154762Y0386123D01*
X0154762Y0385356D01*
X0153994Y0384589D01*
X0151693Y0384589D01*
X0151693Y0389193D01*
X0147089Y0389193D02*
X0147089Y0386123D01*
X0148623Y0384589D01*
X0156296Y0384589D02*
X0156296Y0387658D01*
X0157831Y0389193D01*
X0159366Y0387658D01*
X0159366Y0384589D01*
X0159366Y0386891D02*
X0156296Y0386891D01*
X0160900Y0389193D02*
X0163970Y0389193D01*
X0162435Y0389193D02*
X0162435Y0384589D01*
X0160900Y0393821D02*
X0163970Y0393821D01*
X0165504Y0395356D02*
X0166272Y0394589D01*
X0167806Y0394589D01*
X0168574Y0395356D01*
X0168574Y0396891D01*
X0167039Y0396891D01*
X0168574Y0398425D02*
X0167806Y0399193D01*
X0166272Y0399193D01*
X0165504Y0398425D01*
X0165504Y0395356D01*
X0170108Y0394589D02*
X0170108Y0399193D01*
X0173177Y0394589D01*
X0173177Y0399193D01*
X0174712Y0399193D02*
X0174712Y0394589D01*
X0177014Y0394589D01*
X0177781Y0395356D01*
X0177781Y0398425D01*
X0177014Y0399193D01*
X0174712Y0399193D01*
X0159366Y0399193D02*
X0156296Y0399193D01*
X0157831Y0399193D02*
X0157831Y0394589D01*
X0154762Y0394589D02*
X0154762Y0397658D01*
X0153227Y0399193D01*
X0151693Y0397658D01*
X0151693Y0394589D01*
X0150158Y0395356D02*
X0149391Y0394589D01*
X0147089Y0394589D01*
X0147089Y0399193D01*
X0149391Y0399193D01*
X0150158Y0398425D01*
X0150158Y0397658D01*
X0149391Y0396891D01*
X0147089Y0396891D01*
X0149391Y0396891D02*
X0150158Y0396123D01*
X0150158Y0395356D01*
X0151693Y0396891D02*
X0154762Y0396891D01*
X0154762Y0404589D02*
X0154762Y0409193D01*
X0156296Y0409193D02*
X0158598Y0409193D01*
X0159366Y0408425D01*
X0159366Y0405356D01*
X0158598Y0404589D01*
X0156296Y0404589D01*
X0156296Y0409193D01*
X0151693Y0409193D02*
X0151693Y0404589D01*
X0150158Y0405356D02*
X0150158Y0406891D01*
X0148623Y0406891D01*
X0147089Y0408425D02*
X0147089Y0405356D01*
X0147856Y0404589D01*
X0149391Y0404589D01*
X0150158Y0405356D01*
X0150158Y0408425D02*
X0149391Y0409193D01*
X0147856Y0409193D01*
X0147089Y0408425D01*
X0151693Y0409193D02*
X0154762Y0404589D01*
X0151693Y0369193D02*
X0151693Y0364589D01*
X0175714Y0344488D02*
X0175714Y0342954D01*
X0176481Y0342186D01*
X0178783Y0342186D01*
X0177249Y0342186D02*
X0175714Y0340652D01*
X0178783Y0340652D02*
X0178783Y0345255D01*
X0176481Y0345255D01*
X0175714Y0344488D01*
X0180318Y0344488D02*
X0180318Y0341419D01*
X0181085Y0340652D01*
X0182620Y0340652D01*
X0183387Y0341419D01*
X0183387Y0344488D01*
X0182620Y0345255D01*
X0181085Y0345255D01*
X0180318Y0344488D01*
X0184922Y0345255D02*
X0187991Y0345255D01*
X0186456Y0345255D02*
X0186456Y0340652D01*
X0189526Y0340652D02*
X0189526Y0343721D01*
X0191060Y0345255D01*
X0192595Y0343721D01*
X0192595Y0340652D01*
X0194130Y0340652D02*
X0197199Y0340652D01*
X0197199Y0345255D01*
X0198734Y0345255D02*
X0198734Y0341419D01*
X0199501Y0340652D01*
X0201036Y0340652D01*
X0201803Y0341419D01*
X0201803Y0345255D01*
X0203338Y0344488D02*
X0204105Y0345255D01*
X0205639Y0345255D01*
X0206407Y0344488D01*
X0206407Y0341419D01*
X0205639Y0340652D01*
X0204105Y0340652D01*
X0203338Y0341419D01*
X0203338Y0342954D01*
X0204872Y0342954D01*
X0207941Y0345255D02*
X0211011Y0345255D01*
X0211011Y0340652D01*
X0207941Y0340652D01*
X0209476Y0342954D02*
X0211011Y0342954D01*
X0212545Y0342954D02*
X0213313Y0342186D01*
X0215615Y0342186D01*
X0215615Y0340652D02*
X0215615Y0345255D01*
X0213313Y0345255D01*
X0212545Y0344488D01*
X0212545Y0342954D01*
X0214080Y0342186D02*
X0212545Y0340652D01*
X0217149Y0339884D02*
X0220219Y0339884D01*
X0221753Y0340652D02*
X0224823Y0340652D01*
X0224823Y0345255D01*
X0221753Y0345255D01*
X0223288Y0342954D02*
X0224823Y0342954D01*
X0226357Y0342954D02*
X0227892Y0342954D01*
X0226357Y0342954D02*
X0226357Y0341419D01*
X0227124Y0340652D01*
X0228659Y0340652D01*
X0229426Y0341419D01*
X0229426Y0344488D01*
X0228659Y0345255D01*
X0227124Y0345255D01*
X0226357Y0344488D01*
X0230961Y0343721D02*
X0230961Y0340652D01*
X0230961Y0342954D02*
X0234030Y0342954D01*
X0234030Y0343721D02*
X0232496Y0345255D01*
X0230961Y0343721D01*
X0234030Y0343721D02*
X0234030Y0340652D01*
X0237100Y0340652D02*
X0237100Y0345255D01*
X0238634Y0345255D02*
X0235565Y0345255D01*
X0240169Y0340652D02*
X0243238Y0340652D01*
X0243238Y0345255D01*
X0244773Y0344488D02*
X0244773Y0341419D01*
X0245540Y0340652D01*
X0247075Y0340652D01*
X0247842Y0341419D01*
X0247842Y0344488D01*
X0247075Y0345255D01*
X0245540Y0345255D01*
X0244773Y0344488D01*
X0249377Y0345255D02*
X0249377Y0342186D01*
X0250911Y0340652D01*
X0252446Y0342186D01*
X0252446Y0345255D01*
X0258619Y0344391D02*
X0261689Y0344391D01*
X0271119Y0344391D02*
X0274189Y0344391D01*
X0272654Y0345925D02*
X0272654Y0342856D01*
X0192595Y0342954D02*
X0189526Y0342954D01*
D12*
X0181711Y0320196D02*
X0228424Y0320196D01*
X0228424Y0324133D01*
X0228424Y0320196D02*
X0234330Y0320196D01*
X0237282Y0320196D01*
X0237282Y0324133D01*
X0237282Y0320196D02*
X0250078Y0320196D01*
X0238267Y0286731D01*
X0281574Y0286731D01*
X0293385Y0320196D01*
X0295353Y0320196D02*
X0295353Y0324133D01*
X0295353Y0320196D02*
X0326849Y0320196D01*
X0340629Y0314290D01*
X0340629Y0293621D01*
X0322912Y0293621D01*
X0322912Y0292637D01*
X0351908Y0292637D01*
X0352006Y0292635D01*
X0352104Y0292629D01*
X0352202Y0292620D01*
X0352299Y0292606D01*
X0352396Y0292589D01*
X0352492Y0292568D01*
X0352587Y0292543D01*
X0352681Y0292515D01*
X0352773Y0292482D01*
X0352865Y0292447D01*
X0352955Y0292407D01*
X0353043Y0292365D01*
X0353130Y0292318D01*
X0353214Y0292269D01*
X0353297Y0292216D01*
X0353377Y0292160D01*
X0353456Y0292100D01*
X0353532Y0292038D01*
X0353605Y0291973D01*
X0353676Y0291905D01*
X0353744Y0291834D01*
X0353809Y0291761D01*
X0353871Y0291685D01*
X0353931Y0291606D01*
X0353987Y0291526D01*
X0354040Y0291443D01*
X0354089Y0291359D01*
X0354136Y0291272D01*
X0354178Y0291184D01*
X0354218Y0291094D01*
X0354253Y0291002D01*
X0354286Y0290910D01*
X0354314Y0290816D01*
X0354339Y0290721D01*
X0354360Y0290625D01*
X0354377Y0290528D01*
X0354391Y0290431D01*
X0354400Y0290333D01*
X0354406Y0290235D01*
X0354408Y0290137D01*
X0354408Y0263641D01*
X0354406Y0263543D01*
X0354400Y0263445D01*
X0354391Y0263347D01*
X0354377Y0263250D01*
X0354360Y0263153D01*
X0354339Y0263057D01*
X0354314Y0262962D01*
X0354286Y0262868D01*
X0354253Y0262776D01*
X0354218Y0262684D01*
X0354178Y0262594D01*
X0354136Y0262506D01*
X0354089Y0262419D01*
X0354040Y0262335D01*
X0353987Y0262252D01*
X0353931Y0262172D01*
X0353871Y0262093D01*
X0353809Y0262017D01*
X0353744Y0261944D01*
X0353676Y0261873D01*
X0353605Y0261805D01*
X0353532Y0261740D01*
X0353456Y0261678D01*
X0353377Y0261618D01*
X0353297Y0261562D01*
X0353214Y0261509D01*
X0353130Y0261460D01*
X0353043Y0261413D01*
X0352955Y0261371D01*
X0352865Y0261331D01*
X0352773Y0261296D01*
X0352681Y0261263D01*
X0352587Y0261235D01*
X0352492Y0261210D01*
X0352396Y0261189D01*
X0352299Y0261172D01*
X0352202Y0261158D01*
X0352104Y0261149D01*
X0352006Y0261143D01*
X0351908Y0261141D01*
X0322912Y0261141D01*
X0322912Y0260156D01*
X0340629Y0260156D01*
X0340629Y0239487D01*
X0326849Y0233581D01*
X0295353Y0233581D01*
X0295353Y0229644D01*
X0295353Y0233581D02*
X0286495Y0233581D01*
X0286495Y0229644D01*
X0286495Y0233581D02*
X0250078Y0233581D01*
X0238267Y0267046D01*
X0281574Y0267046D01*
X0293385Y0233581D01*
X0295353Y0229644D02*
X0295351Y0229513D01*
X0295345Y0229382D01*
X0295336Y0229251D01*
X0295322Y0229120D01*
X0295304Y0228990D01*
X0295283Y0228861D01*
X0295258Y0228732D01*
X0295229Y0228604D01*
X0295196Y0228477D01*
X0295160Y0228350D01*
X0295120Y0228226D01*
X0295076Y0228102D01*
X0295028Y0227979D01*
X0294977Y0227859D01*
X0294922Y0227739D01*
X0294864Y0227622D01*
X0294803Y0227506D01*
X0294738Y0227392D01*
X0294669Y0227280D01*
X0294597Y0227170D01*
X0294523Y0227062D01*
X0294444Y0226956D01*
X0294363Y0226853D01*
X0294279Y0226753D01*
X0294192Y0226655D01*
X0294102Y0226559D01*
X0294009Y0226466D01*
X0293913Y0226376D01*
X0293815Y0226289D01*
X0293715Y0226205D01*
X0293612Y0226124D01*
X0293506Y0226045D01*
X0293398Y0225971D01*
X0293288Y0225899D01*
X0293176Y0225830D01*
X0293062Y0225765D01*
X0292946Y0225704D01*
X0292829Y0225646D01*
X0292709Y0225591D01*
X0292589Y0225540D01*
X0292466Y0225492D01*
X0292342Y0225448D01*
X0292218Y0225408D01*
X0292091Y0225372D01*
X0291964Y0225339D01*
X0291836Y0225310D01*
X0291707Y0225285D01*
X0291578Y0225264D01*
X0291448Y0225246D01*
X0291317Y0225232D01*
X0291186Y0225223D01*
X0291055Y0225217D01*
X0290924Y0225215D01*
X0290793Y0225217D01*
X0290662Y0225223D01*
X0290531Y0225232D01*
X0290400Y0225246D01*
X0290270Y0225264D01*
X0290141Y0225285D01*
X0290012Y0225310D01*
X0289884Y0225339D01*
X0289757Y0225372D01*
X0289630Y0225408D01*
X0289506Y0225448D01*
X0289382Y0225492D01*
X0289259Y0225540D01*
X0289139Y0225591D01*
X0289019Y0225646D01*
X0288902Y0225704D01*
X0288786Y0225765D01*
X0288672Y0225830D01*
X0288560Y0225899D01*
X0288450Y0225971D01*
X0288342Y0226045D01*
X0288236Y0226124D01*
X0288133Y0226205D01*
X0288033Y0226289D01*
X0287935Y0226376D01*
X0287839Y0226466D01*
X0287746Y0226559D01*
X0287656Y0226655D01*
X0287569Y0226753D01*
X0287485Y0226853D01*
X0287404Y0226956D01*
X0287325Y0227062D01*
X0287251Y0227170D01*
X0287179Y0227280D01*
X0287110Y0227392D01*
X0287045Y0227506D01*
X0286984Y0227622D01*
X0286926Y0227739D01*
X0286871Y0227859D01*
X0286820Y0227979D01*
X0286772Y0228102D01*
X0286728Y0228226D01*
X0286688Y0228350D01*
X0286652Y0228477D01*
X0286619Y0228604D01*
X0286590Y0228732D01*
X0286565Y0228861D01*
X0286544Y0228990D01*
X0286526Y0229120D01*
X0286512Y0229251D01*
X0286503Y0229382D01*
X0286497Y0229513D01*
X0286495Y0229644D01*
X0309133Y0233581D02*
X0297322Y0267046D01*
X0297322Y0286731D01*
X0309133Y0320196D01*
X0295353Y0320196D02*
X0286495Y0320196D01*
X0250078Y0320196D01*
X0234330Y0320196D02*
X0222519Y0286731D01*
X0222519Y0267046D01*
X0234330Y0233581D01*
X0228424Y0233581D01*
X0228424Y0229644D01*
X0228424Y0233581D02*
X0181711Y0233581D01*
X0181613Y0233583D01*
X0181515Y0233589D01*
X0181417Y0233598D01*
X0181320Y0233612D01*
X0181223Y0233629D01*
X0181127Y0233650D01*
X0181032Y0233675D01*
X0180938Y0233703D01*
X0180846Y0233736D01*
X0180754Y0233771D01*
X0180664Y0233811D01*
X0180576Y0233853D01*
X0180489Y0233900D01*
X0180405Y0233949D01*
X0180322Y0234002D01*
X0180242Y0234058D01*
X0180163Y0234118D01*
X0180087Y0234180D01*
X0180014Y0234245D01*
X0179943Y0234313D01*
X0179875Y0234384D01*
X0179810Y0234457D01*
X0179748Y0234533D01*
X0179688Y0234612D01*
X0179632Y0234692D01*
X0179579Y0234775D01*
X0179530Y0234859D01*
X0179483Y0234946D01*
X0179441Y0235034D01*
X0179401Y0235124D01*
X0179366Y0235216D01*
X0179333Y0235308D01*
X0179305Y0235402D01*
X0179280Y0235497D01*
X0179259Y0235593D01*
X0179242Y0235690D01*
X0179228Y0235787D01*
X0179219Y0235885D01*
X0179213Y0235983D01*
X0179211Y0236081D01*
X0179211Y0257204D01*
X0169369Y0257204D01*
X0169369Y0270983D01*
X0165432Y0270983D01*
X0165432Y0282794D01*
X0169369Y0282794D01*
X0169369Y0296574D01*
X0179211Y0296574D01*
X0179211Y0317696D01*
X0179213Y0317794D01*
X0179219Y0317892D01*
X0179228Y0317990D01*
X0179242Y0318087D01*
X0179259Y0318184D01*
X0179280Y0318280D01*
X0179305Y0318375D01*
X0179333Y0318469D01*
X0179366Y0318561D01*
X0179401Y0318653D01*
X0179441Y0318743D01*
X0179483Y0318831D01*
X0179530Y0318918D01*
X0179579Y0319002D01*
X0179632Y0319085D01*
X0179688Y0319165D01*
X0179748Y0319244D01*
X0179810Y0319320D01*
X0179875Y0319393D01*
X0179943Y0319464D01*
X0180014Y0319532D01*
X0180087Y0319597D01*
X0180163Y0319659D01*
X0180242Y0319719D01*
X0180322Y0319775D01*
X0180405Y0319828D01*
X0180489Y0319877D01*
X0180576Y0319924D01*
X0180664Y0319966D01*
X0180754Y0320006D01*
X0180846Y0320041D01*
X0180938Y0320074D01*
X0181032Y0320102D01*
X0181127Y0320127D01*
X0181223Y0320148D01*
X0181320Y0320165D01*
X0181417Y0320179D01*
X0181515Y0320188D01*
X0181613Y0320194D01*
X0181711Y0320196D01*
X0183680Y0318227D02*
X0192991Y0318227D01*
X0181180Y0306416D01*
X0181180Y0315727D01*
X0181182Y0315825D01*
X0181188Y0315923D01*
X0181197Y0316021D01*
X0181211Y0316118D01*
X0181228Y0316215D01*
X0181249Y0316311D01*
X0181274Y0316406D01*
X0181302Y0316500D01*
X0181335Y0316592D01*
X0181370Y0316684D01*
X0181410Y0316774D01*
X0181452Y0316862D01*
X0181499Y0316949D01*
X0181548Y0317033D01*
X0181601Y0317116D01*
X0181657Y0317196D01*
X0181717Y0317275D01*
X0181779Y0317351D01*
X0181844Y0317424D01*
X0181912Y0317495D01*
X0181983Y0317563D01*
X0182056Y0317628D01*
X0182132Y0317690D01*
X0182211Y0317750D01*
X0182291Y0317806D01*
X0182374Y0317859D01*
X0182458Y0317908D01*
X0182545Y0317955D01*
X0182633Y0317997D01*
X0182723Y0318037D01*
X0182815Y0318072D01*
X0182907Y0318105D01*
X0183001Y0318133D01*
X0183096Y0318158D01*
X0183192Y0318179D01*
X0183289Y0318196D01*
X0183386Y0318210D01*
X0183484Y0318219D01*
X0183582Y0318225D01*
X0183680Y0318227D01*
X0179211Y0296574D02*
X0179211Y0257204D01*
X0181180Y0247361D02*
X0181180Y0238050D01*
X0181182Y0237952D01*
X0181188Y0237854D01*
X0181197Y0237756D01*
X0181211Y0237659D01*
X0181228Y0237562D01*
X0181249Y0237466D01*
X0181274Y0237371D01*
X0181302Y0237277D01*
X0181335Y0237185D01*
X0181370Y0237093D01*
X0181410Y0237003D01*
X0181452Y0236915D01*
X0181499Y0236828D01*
X0181548Y0236744D01*
X0181601Y0236661D01*
X0181657Y0236581D01*
X0181717Y0236502D01*
X0181779Y0236426D01*
X0181844Y0236353D01*
X0181912Y0236282D01*
X0181983Y0236214D01*
X0182056Y0236149D01*
X0182132Y0236087D01*
X0182211Y0236027D01*
X0182291Y0235971D01*
X0182374Y0235918D01*
X0182458Y0235869D01*
X0182545Y0235822D01*
X0182633Y0235780D01*
X0182723Y0235740D01*
X0182815Y0235705D01*
X0182907Y0235672D01*
X0183001Y0235644D01*
X0183096Y0235619D01*
X0183192Y0235598D01*
X0183289Y0235581D01*
X0183386Y0235567D01*
X0183484Y0235558D01*
X0183582Y0235552D01*
X0183680Y0235550D01*
X0192991Y0235550D01*
X0181180Y0247361D01*
X0169369Y0270983D02*
X0169369Y0282794D01*
X0223170Y0335619D02*
X0223170Y0336324D01*
X0223875Y0337028D01*
X0225989Y0337028D01*
X0225989Y0335619D01*
X0225284Y0334914D01*
X0223875Y0334914D01*
X0223170Y0335619D01*
X0224579Y0338438D02*
X0225989Y0337028D01*
X0227520Y0337733D02*
X0227520Y0338438D01*
X0228225Y0339142D01*
X0229634Y0339142D01*
X0230339Y0338438D01*
X0231870Y0338438D02*
X0232575Y0339142D01*
X0233984Y0339142D01*
X0234689Y0338438D01*
X0234689Y0335619D01*
X0233984Y0334914D01*
X0232575Y0334914D01*
X0231870Y0335619D01*
X0230339Y0334914D02*
X0227520Y0337733D01*
X0227520Y0334914D02*
X0230339Y0334914D01*
X0224579Y0338438D02*
X0223170Y0339142D01*
X0230343Y0354639D02*
X0229639Y0355343D01*
X0229639Y0356753D01*
X0230343Y0357457D01*
X0229639Y0358989D02*
X0232457Y0361807D01*
X0233162Y0361807D01*
X0233867Y0361103D01*
X0233867Y0359693D01*
X0233162Y0358989D01*
X0233162Y0357457D02*
X0233867Y0356753D01*
X0233867Y0355343D01*
X0233162Y0354639D01*
X0230343Y0354639D01*
X0229639Y0358989D02*
X0229639Y0361807D01*
X0230343Y0363339D02*
X0229639Y0364044D01*
X0229639Y0365453D01*
X0230343Y0366158D01*
X0231753Y0366158D01*
X0232457Y0365453D01*
X0232457Y0364748D01*
X0231753Y0363339D01*
X0233867Y0363339D01*
X0233867Y0366158D01*
X0233275Y0367139D02*
X0234684Y0367139D01*
X0235389Y0367843D01*
X0235389Y0370662D01*
X0234684Y0371367D01*
X0233275Y0371367D01*
X0232570Y0370662D01*
X0231038Y0370662D02*
X0230334Y0371367D01*
X0228924Y0371367D01*
X0228220Y0370662D01*
X0228220Y0369957D01*
X0231038Y0367139D01*
X0228220Y0367139D01*
X0226688Y0369253D02*
X0223870Y0369253D01*
X0224574Y0371367D02*
X0226688Y0369253D01*
X0224574Y0367139D02*
X0224574Y0371367D01*
X0232570Y0367843D02*
X0233275Y0367139D01*
X0237282Y0324133D02*
X0237280Y0324264D01*
X0237274Y0324395D01*
X0237265Y0324526D01*
X0237251Y0324657D01*
X0237233Y0324787D01*
X0237212Y0324916D01*
X0237187Y0325045D01*
X0237158Y0325173D01*
X0237125Y0325300D01*
X0237089Y0325427D01*
X0237049Y0325551D01*
X0237005Y0325675D01*
X0236957Y0325798D01*
X0236906Y0325918D01*
X0236851Y0326038D01*
X0236793Y0326155D01*
X0236732Y0326271D01*
X0236667Y0326385D01*
X0236598Y0326497D01*
X0236526Y0326607D01*
X0236452Y0326715D01*
X0236373Y0326821D01*
X0236292Y0326924D01*
X0236208Y0327024D01*
X0236121Y0327122D01*
X0236031Y0327218D01*
X0235938Y0327311D01*
X0235842Y0327401D01*
X0235744Y0327488D01*
X0235644Y0327572D01*
X0235541Y0327653D01*
X0235435Y0327732D01*
X0235327Y0327806D01*
X0235217Y0327878D01*
X0235105Y0327947D01*
X0234991Y0328012D01*
X0234875Y0328073D01*
X0234758Y0328131D01*
X0234638Y0328186D01*
X0234518Y0328237D01*
X0234395Y0328285D01*
X0234271Y0328329D01*
X0234147Y0328369D01*
X0234020Y0328405D01*
X0233893Y0328438D01*
X0233765Y0328467D01*
X0233636Y0328492D01*
X0233507Y0328513D01*
X0233377Y0328531D01*
X0233246Y0328545D01*
X0233115Y0328554D01*
X0232984Y0328560D01*
X0232853Y0328562D01*
X0232722Y0328560D01*
X0232591Y0328554D01*
X0232460Y0328545D01*
X0232329Y0328531D01*
X0232199Y0328513D01*
X0232070Y0328492D01*
X0231941Y0328467D01*
X0231813Y0328438D01*
X0231686Y0328405D01*
X0231559Y0328369D01*
X0231435Y0328329D01*
X0231311Y0328285D01*
X0231188Y0328237D01*
X0231068Y0328186D01*
X0230948Y0328131D01*
X0230831Y0328073D01*
X0230715Y0328012D01*
X0230601Y0327947D01*
X0230489Y0327878D01*
X0230379Y0327806D01*
X0230271Y0327732D01*
X0230165Y0327653D01*
X0230062Y0327572D01*
X0229962Y0327488D01*
X0229864Y0327401D01*
X0229768Y0327311D01*
X0229675Y0327218D01*
X0229585Y0327122D01*
X0229498Y0327024D01*
X0229414Y0326924D01*
X0229333Y0326821D01*
X0229254Y0326715D01*
X0229180Y0326607D01*
X0229108Y0326497D01*
X0229039Y0326385D01*
X0228974Y0326271D01*
X0228913Y0326155D01*
X0228855Y0326038D01*
X0228800Y0325918D01*
X0228749Y0325798D01*
X0228701Y0325675D01*
X0228657Y0325551D01*
X0228617Y0325427D01*
X0228581Y0325300D01*
X0228548Y0325173D01*
X0228519Y0325045D01*
X0228494Y0324916D01*
X0228473Y0324787D01*
X0228455Y0324657D01*
X0228441Y0324526D01*
X0228432Y0324395D01*
X0228426Y0324264D01*
X0228424Y0324133D01*
X0286495Y0324133D02*
X0286495Y0320196D01*
X0286495Y0324133D02*
X0286497Y0324264D01*
X0286503Y0324395D01*
X0286512Y0324526D01*
X0286526Y0324657D01*
X0286544Y0324787D01*
X0286565Y0324916D01*
X0286590Y0325045D01*
X0286619Y0325173D01*
X0286652Y0325300D01*
X0286688Y0325427D01*
X0286728Y0325551D01*
X0286772Y0325675D01*
X0286820Y0325798D01*
X0286871Y0325918D01*
X0286926Y0326038D01*
X0286984Y0326155D01*
X0287045Y0326271D01*
X0287110Y0326385D01*
X0287179Y0326497D01*
X0287251Y0326607D01*
X0287325Y0326715D01*
X0287404Y0326821D01*
X0287485Y0326924D01*
X0287569Y0327024D01*
X0287656Y0327122D01*
X0287746Y0327218D01*
X0287839Y0327311D01*
X0287935Y0327401D01*
X0288033Y0327488D01*
X0288133Y0327572D01*
X0288236Y0327653D01*
X0288342Y0327732D01*
X0288450Y0327806D01*
X0288560Y0327878D01*
X0288672Y0327947D01*
X0288786Y0328012D01*
X0288902Y0328073D01*
X0289019Y0328131D01*
X0289139Y0328186D01*
X0289259Y0328237D01*
X0289382Y0328285D01*
X0289506Y0328329D01*
X0289630Y0328369D01*
X0289757Y0328405D01*
X0289884Y0328438D01*
X0290012Y0328467D01*
X0290141Y0328492D01*
X0290270Y0328513D01*
X0290400Y0328531D01*
X0290531Y0328545D01*
X0290662Y0328554D01*
X0290793Y0328560D01*
X0290924Y0328562D01*
X0291055Y0328560D01*
X0291186Y0328554D01*
X0291317Y0328545D01*
X0291448Y0328531D01*
X0291578Y0328513D01*
X0291707Y0328492D01*
X0291836Y0328467D01*
X0291964Y0328438D01*
X0292091Y0328405D01*
X0292218Y0328369D01*
X0292342Y0328329D01*
X0292466Y0328285D01*
X0292589Y0328237D01*
X0292709Y0328186D01*
X0292829Y0328131D01*
X0292946Y0328073D01*
X0293062Y0328012D01*
X0293176Y0327947D01*
X0293288Y0327878D01*
X0293398Y0327806D01*
X0293506Y0327732D01*
X0293612Y0327653D01*
X0293715Y0327572D01*
X0293815Y0327488D01*
X0293913Y0327401D01*
X0294009Y0327311D01*
X0294102Y0327218D01*
X0294192Y0327122D01*
X0294279Y0327024D01*
X0294363Y0326924D01*
X0294444Y0326821D01*
X0294523Y0326715D01*
X0294597Y0326607D01*
X0294669Y0326497D01*
X0294738Y0326385D01*
X0294803Y0326271D01*
X0294864Y0326155D01*
X0294922Y0326038D01*
X0294977Y0325918D01*
X0295028Y0325798D01*
X0295076Y0325675D01*
X0295120Y0325551D01*
X0295160Y0325427D01*
X0295196Y0325300D01*
X0295229Y0325173D01*
X0295258Y0325045D01*
X0295283Y0324916D01*
X0295304Y0324787D01*
X0295322Y0324657D01*
X0295336Y0324526D01*
X0295345Y0324395D01*
X0295351Y0324264D01*
X0295353Y0324133D01*
X0250078Y0233581D02*
X0237282Y0233581D01*
X0237282Y0229644D01*
X0237282Y0233581D02*
X0234330Y0233581D01*
X0237282Y0229644D02*
X0237280Y0229513D01*
X0237274Y0229382D01*
X0237265Y0229251D01*
X0237251Y0229120D01*
X0237233Y0228990D01*
X0237212Y0228861D01*
X0237187Y0228732D01*
X0237158Y0228604D01*
X0237125Y0228477D01*
X0237089Y0228350D01*
X0237049Y0228226D01*
X0237005Y0228102D01*
X0236957Y0227979D01*
X0236906Y0227859D01*
X0236851Y0227739D01*
X0236793Y0227622D01*
X0236732Y0227506D01*
X0236667Y0227392D01*
X0236598Y0227280D01*
X0236526Y0227170D01*
X0236452Y0227062D01*
X0236373Y0226956D01*
X0236292Y0226853D01*
X0236208Y0226753D01*
X0236121Y0226655D01*
X0236031Y0226559D01*
X0235938Y0226466D01*
X0235842Y0226376D01*
X0235744Y0226289D01*
X0235644Y0226205D01*
X0235541Y0226124D01*
X0235435Y0226045D01*
X0235327Y0225971D01*
X0235217Y0225899D01*
X0235105Y0225830D01*
X0234991Y0225765D01*
X0234875Y0225704D01*
X0234758Y0225646D01*
X0234638Y0225591D01*
X0234518Y0225540D01*
X0234395Y0225492D01*
X0234271Y0225448D01*
X0234147Y0225408D01*
X0234020Y0225372D01*
X0233893Y0225339D01*
X0233765Y0225310D01*
X0233636Y0225285D01*
X0233507Y0225264D01*
X0233377Y0225246D01*
X0233246Y0225232D01*
X0233115Y0225223D01*
X0232984Y0225217D01*
X0232853Y0225215D01*
X0232722Y0225217D01*
X0232591Y0225223D01*
X0232460Y0225232D01*
X0232329Y0225246D01*
X0232199Y0225264D01*
X0232070Y0225285D01*
X0231941Y0225310D01*
X0231813Y0225339D01*
X0231686Y0225372D01*
X0231559Y0225408D01*
X0231435Y0225448D01*
X0231311Y0225492D01*
X0231188Y0225540D01*
X0231068Y0225591D01*
X0230948Y0225646D01*
X0230831Y0225704D01*
X0230715Y0225765D01*
X0230601Y0225830D01*
X0230489Y0225899D01*
X0230379Y0225971D01*
X0230271Y0226045D01*
X0230165Y0226124D01*
X0230062Y0226205D01*
X0229962Y0226289D01*
X0229864Y0226376D01*
X0229768Y0226466D01*
X0229675Y0226559D01*
X0229585Y0226655D01*
X0229498Y0226753D01*
X0229414Y0226853D01*
X0229333Y0226956D01*
X0229254Y0227062D01*
X0229180Y0227170D01*
X0229108Y0227280D01*
X0229039Y0227392D01*
X0228974Y0227506D01*
X0228913Y0227622D01*
X0228855Y0227739D01*
X0228800Y0227859D01*
X0228749Y0227979D01*
X0228701Y0228102D01*
X0228657Y0228226D01*
X0228617Y0228350D01*
X0228581Y0228477D01*
X0228548Y0228604D01*
X0228519Y0228732D01*
X0228494Y0228861D01*
X0228473Y0228990D01*
X0228455Y0229120D01*
X0228441Y0229251D01*
X0228432Y0229382D01*
X0228426Y0229513D01*
X0228424Y0229644D01*
D13*
X0230196Y0229448D02*
X0230198Y0229553D01*
X0230204Y0229658D01*
X0230214Y0229762D01*
X0230228Y0229866D01*
X0230246Y0229970D01*
X0230268Y0230072D01*
X0230293Y0230174D01*
X0230323Y0230275D01*
X0230356Y0230374D01*
X0230393Y0230472D01*
X0230434Y0230569D01*
X0230479Y0230664D01*
X0230527Y0230757D01*
X0230578Y0230849D01*
X0230634Y0230938D01*
X0230692Y0231025D01*
X0230754Y0231110D01*
X0230818Y0231193D01*
X0230886Y0231273D01*
X0230957Y0231350D01*
X0231031Y0231424D01*
X0231108Y0231496D01*
X0231187Y0231565D01*
X0231269Y0231630D01*
X0231353Y0231693D01*
X0231440Y0231752D01*
X0231529Y0231808D01*
X0231620Y0231861D01*
X0231713Y0231910D01*
X0231807Y0231955D01*
X0231903Y0231997D01*
X0232001Y0232035D01*
X0232100Y0232069D01*
X0232201Y0232100D01*
X0232302Y0232126D01*
X0232405Y0232149D01*
X0232508Y0232168D01*
X0232612Y0232183D01*
X0232716Y0232194D01*
X0232821Y0232201D01*
X0232926Y0232204D01*
X0233031Y0232203D01*
X0233136Y0232198D01*
X0233240Y0232189D01*
X0233344Y0232176D01*
X0233448Y0232159D01*
X0233551Y0232138D01*
X0233653Y0232113D01*
X0233754Y0232085D01*
X0233853Y0232052D01*
X0233952Y0232016D01*
X0234049Y0231976D01*
X0234144Y0231933D01*
X0234238Y0231885D01*
X0234330Y0231835D01*
X0234420Y0231781D01*
X0234508Y0231723D01*
X0234593Y0231662D01*
X0234676Y0231598D01*
X0234757Y0231531D01*
X0234835Y0231461D01*
X0234910Y0231387D01*
X0234982Y0231312D01*
X0235052Y0231233D01*
X0235118Y0231152D01*
X0235182Y0231068D01*
X0235242Y0230982D01*
X0235298Y0230894D01*
X0235352Y0230803D01*
X0235402Y0230711D01*
X0235448Y0230617D01*
X0235491Y0230521D01*
X0235530Y0230423D01*
X0235565Y0230325D01*
X0235596Y0230224D01*
X0235624Y0230123D01*
X0235648Y0230021D01*
X0235668Y0229918D01*
X0235684Y0229814D01*
X0235696Y0229710D01*
X0235704Y0229605D01*
X0235708Y0229500D01*
X0235708Y0229396D01*
X0235704Y0229291D01*
X0235696Y0229186D01*
X0235684Y0229082D01*
X0235668Y0228978D01*
X0235648Y0228875D01*
X0235624Y0228773D01*
X0235596Y0228672D01*
X0235565Y0228571D01*
X0235530Y0228473D01*
X0235491Y0228375D01*
X0235448Y0228279D01*
X0235402Y0228185D01*
X0235352Y0228093D01*
X0235298Y0228002D01*
X0235242Y0227914D01*
X0235182Y0227828D01*
X0235118Y0227744D01*
X0235052Y0227663D01*
X0234982Y0227584D01*
X0234910Y0227509D01*
X0234835Y0227435D01*
X0234757Y0227365D01*
X0234676Y0227298D01*
X0234593Y0227234D01*
X0234508Y0227173D01*
X0234420Y0227115D01*
X0234330Y0227061D01*
X0234238Y0227011D01*
X0234144Y0226963D01*
X0234049Y0226920D01*
X0233952Y0226880D01*
X0233853Y0226844D01*
X0233754Y0226811D01*
X0233653Y0226783D01*
X0233551Y0226758D01*
X0233448Y0226737D01*
X0233344Y0226720D01*
X0233240Y0226707D01*
X0233136Y0226698D01*
X0233031Y0226693D01*
X0232926Y0226692D01*
X0232821Y0226695D01*
X0232716Y0226702D01*
X0232612Y0226713D01*
X0232508Y0226728D01*
X0232405Y0226747D01*
X0232302Y0226770D01*
X0232201Y0226796D01*
X0232100Y0226827D01*
X0232001Y0226861D01*
X0231903Y0226899D01*
X0231807Y0226941D01*
X0231713Y0226986D01*
X0231620Y0227035D01*
X0231529Y0227088D01*
X0231440Y0227144D01*
X0231353Y0227203D01*
X0231269Y0227266D01*
X0231187Y0227331D01*
X0231108Y0227400D01*
X0231031Y0227472D01*
X0230957Y0227546D01*
X0230886Y0227623D01*
X0230818Y0227703D01*
X0230754Y0227786D01*
X0230692Y0227871D01*
X0230634Y0227958D01*
X0230578Y0228047D01*
X0230527Y0228139D01*
X0230479Y0228232D01*
X0230434Y0228327D01*
X0230393Y0228424D01*
X0230356Y0228522D01*
X0230323Y0228621D01*
X0230293Y0228722D01*
X0230268Y0228824D01*
X0230246Y0228926D01*
X0230228Y0229030D01*
X0230214Y0229134D01*
X0230204Y0229238D01*
X0230198Y0229343D01*
X0230196Y0229448D01*
X0288070Y0229448D02*
X0288072Y0229553D01*
X0288078Y0229658D01*
X0288088Y0229762D01*
X0288102Y0229866D01*
X0288120Y0229970D01*
X0288142Y0230072D01*
X0288167Y0230174D01*
X0288197Y0230275D01*
X0288230Y0230374D01*
X0288267Y0230472D01*
X0288308Y0230569D01*
X0288353Y0230664D01*
X0288401Y0230757D01*
X0288452Y0230849D01*
X0288508Y0230938D01*
X0288566Y0231025D01*
X0288628Y0231110D01*
X0288692Y0231193D01*
X0288760Y0231273D01*
X0288831Y0231350D01*
X0288905Y0231424D01*
X0288982Y0231496D01*
X0289061Y0231565D01*
X0289143Y0231630D01*
X0289227Y0231693D01*
X0289314Y0231752D01*
X0289403Y0231808D01*
X0289494Y0231861D01*
X0289587Y0231910D01*
X0289681Y0231955D01*
X0289777Y0231997D01*
X0289875Y0232035D01*
X0289974Y0232069D01*
X0290075Y0232100D01*
X0290176Y0232126D01*
X0290279Y0232149D01*
X0290382Y0232168D01*
X0290486Y0232183D01*
X0290590Y0232194D01*
X0290695Y0232201D01*
X0290800Y0232204D01*
X0290905Y0232203D01*
X0291010Y0232198D01*
X0291114Y0232189D01*
X0291218Y0232176D01*
X0291322Y0232159D01*
X0291425Y0232138D01*
X0291527Y0232113D01*
X0291628Y0232085D01*
X0291727Y0232052D01*
X0291826Y0232016D01*
X0291923Y0231976D01*
X0292018Y0231933D01*
X0292112Y0231885D01*
X0292204Y0231835D01*
X0292294Y0231781D01*
X0292382Y0231723D01*
X0292467Y0231662D01*
X0292550Y0231598D01*
X0292631Y0231531D01*
X0292709Y0231461D01*
X0292784Y0231387D01*
X0292856Y0231312D01*
X0292926Y0231233D01*
X0292992Y0231152D01*
X0293056Y0231068D01*
X0293116Y0230982D01*
X0293172Y0230894D01*
X0293226Y0230803D01*
X0293276Y0230711D01*
X0293322Y0230617D01*
X0293365Y0230521D01*
X0293404Y0230423D01*
X0293439Y0230325D01*
X0293470Y0230224D01*
X0293498Y0230123D01*
X0293522Y0230021D01*
X0293542Y0229918D01*
X0293558Y0229814D01*
X0293570Y0229710D01*
X0293578Y0229605D01*
X0293582Y0229500D01*
X0293582Y0229396D01*
X0293578Y0229291D01*
X0293570Y0229186D01*
X0293558Y0229082D01*
X0293542Y0228978D01*
X0293522Y0228875D01*
X0293498Y0228773D01*
X0293470Y0228672D01*
X0293439Y0228571D01*
X0293404Y0228473D01*
X0293365Y0228375D01*
X0293322Y0228279D01*
X0293276Y0228185D01*
X0293226Y0228093D01*
X0293172Y0228002D01*
X0293116Y0227914D01*
X0293056Y0227828D01*
X0292992Y0227744D01*
X0292926Y0227663D01*
X0292856Y0227584D01*
X0292784Y0227509D01*
X0292709Y0227435D01*
X0292631Y0227365D01*
X0292550Y0227298D01*
X0292467Y0227234D01*
X0292382Y0227173D01*
X0292294Y0227115D01*
X0292204Y0227061D01*
X0292112Y0227011D01*
X0292018Y0226963D01*
X0291923Y0226920D01*
X0291826Y0226880D01*
X0291727Y0226844D01*
X0291628Y0226811D01*
X0291527Y0226783D01*
X0291425Y0226758D01*
X0291322Y0226737D01*
X0291218Y0226720D01*
X0291114Y0226707D01*
X0291010Y0226698D01*
X0290905Y0226693D01*
X0290800Y0226692D01*
X0290695Y0226695D01*
X0290590Y0226702D01*
X0290486Y0226713D01*
X0290382Y0226728D01*
X0290279Y0226747D01*
X0290176Y0226770D01*
X0290075Y0226796D01*
X0289974Y0226827D01*
X0289875Y0226861D01*
X0289777Y0226899D01*
X0289681Y0226941D01*
X0289587Y0226986D01*
X0289494Y0227035D01*
X0289403Y0227088D01*
X0289314Y0227144D01*
X0289227Y0227203D01*
X0289143Y0227266D01*
X0289061Y0227331D01*
X0288982Y0227400D01*
X0288905Y0227472D01*
X0288831Y0227546D01*
X0288760Y0227623D01*
X0288692Y0227703D01*
X0288628Y0227786D01*
X0288566Y0227871D01*
X0288508Y0227958D01*
X0288452Y0228047D01*
X0288401Y0228139D01*
X0288353Y0228232D01*
X0288308Y0228327D01*
X0288267Y0228424D01*
X0288230Y0228522D01*
X0288197Y0228621D01*
X0288167Y0228722D01*
X0288142Y0228824D01*
X0288120Y0228926D01*
X0288102Y0229030D01*
X0288088Y0229134D01*
X0288078Y0229238D01*
X0288072Y0229343D01*
X0288070Y0229448D01*
X0288070Y0324330D02*
X0288072Y0324435D01*
X0288078Y0324540D01*
X0288088Y0324644D01*
X0288102Y0324748D01*
X0288120Y0324852D01*
X0288142Y0324954D01*
X0288167Y0325056D01*
X0288197Y0325157D01*
X0288230Y0325256D01*
X0288267Y0325354D01*
X0288308Y0325451D01*
X0288353Y0325546D01*
X0288401Y0325639D01*
X0288452Y0325731D01*
X0288508Y0325820D01*
X0288566Y0325907D01*
X0288628Y0325992D01*
X0288692Y0326075D01*
X0288760Y0326155D01*
X0288831Y0326232D01*
X0288905Y0326306D01*
X0288982Y0326378D01*
X0289061Y0326447D01*
X0289143Y0326512D01*
X0289227Y0326575D01*
X0289314Y0326634D01*
X0289403Y0326690D01*
X0289494Y0326743D01*
X0289587Y0326792D01*
X0289681Y0326837D01*
X0289777Y0326879D01*
X0289875Y0326917D01*
X0289974Y0326951D01*
X0290075Y0326982D01*
X0290176Y0327008D01*
X0290279Y0327031D01*
X0290382Y0327050D01*
X0290486Y0327065D01*
X0290590Y0327076D01*
X0290695Y0327083D01*
X0290800Y0327086D01*
X0290905Y0327085D01*
X0291010Y0327080D01*
X0291114Y0327071D01*
X0291218Y0327058D01*
X0291322Y0327041D01*
X0291425Y0327020D01*
X0291527Y0326995D01*
X0291628Y0326967D01*
X0291727Y0326934D01*
X0291826Y0326898D01*
X0291923Y0326858D01*
X0292018Y0326815D01*
X0292112Y0326767D01*
X0292204Y0326717D01*
X0292294Y0326663D01*
X0292382Y0326605D01*
X0292467Y0326544D01*
X0292550Y0326480D01*
X0292631Y0326413D01*
X0292709Y0326343D01*
X0292784Y0326269D01*
X0292856Y0326194D01*
X0292926Y0326115D01*
X0292992Y0326034D01*
X0293056Y0325950D01*
X0293116Y0325864D01*
X0293172Y0325776D01*
X0293226Y0325685D01*
X0293276Y0325593D01*
X0293322Y0325499D01*
X0293365Y0325403D01*
X0293404Y0325305D01*
X0293439Y0325207D01*
X0293470Y0325106D01*
X0293498Y0325005D01*
X0293522Y0324903D01*
X0293542Y0324800D01*
X0293558Y0324696D01*
X0293570Y0324592D01*
X0293578Y0324487D01*
X0293582Y0324382D01*
X0293582Y0324278D01*
X0293578Y0324173D01*
X0293570Y0324068D01*
X0293558Y0323964D01*
X0293542Y0323860D01*
X0293522Y0323757D01*
X0293498Y0323655D01*
X0293470Y0323554D01*
X0293439Y0323453D01*
X0293404Y0323355D01*
X0293365Y0323257D01*
X0293322Y0323161D01*
X0293276Y0323067D01*
X0293226Y0322975D01*
X0293172Y0322884D01*
X0293116Y0322796D01*
X0293056Y0322710D01*
X0292992Y0322626D01*
X0292926Y0322545D01*
X0292856Y0322466D01*
X0292784Y0322391D01*
X0292709Y0322317D01*
X0292631Y0322247D01*
X0292550Y0322180D01*
X0292467Y0322116D01*
X0292382Y0322055D01*
X0292294Y0321997D01*
X0292204Y0321943D01*
X0292112Y0321893D01*
X0292018Y0321845D01*
X0291923Y0321802D01*
X0291826Y0321762D01*
X0291727Y0321726D01*
X0291628Y0321693D01*
X0291527Y0321665D01*
X0291425Y0321640D01*
X0291322Y0321619D01*
X0291218Y0321602D01*
X0291114Y0321589D01*
X0291010Y0321580D01*
X0290905Y0321575D01*
X0290800Y0321574D01*
X0290695Y0321577D01*
X0290590Y0321584D01*
X0290486Y0321595D01*
X0290382Y0321610D01*
X0290279Y0321629D01*
X0290176Y0321652D01*
X0290075Y0321678D01*
X0289974Y0321709D01*
X0289875Y0321743D01*
X0289777Y0321781D01*
X0289681Y0321823D01*
X0289587Y0321868D01*
X0289494Y0321917D01*
X0289403Y0321970D01*
X0289314Y0322026D01*
X0289227Y0322085D01*
X0289143Y0322148D01*
X0289061Y0322213D01*
X0288982Y0322282D01*
X0288905Y0322354D01*
X0288831Y0322428D01*
X0288760Y0322505D01*
X0288692Y0322585D01*
X0288628Y0322668D01*
X0288566Y0322753D01*
X0288508Y0322840D01*
X0288452Y0322929D01*
X0288401Y0323021D01*
X0288353Y0323114D01*
X0288308Y0323209D01*
X0288267Y0323306D01*
X0288230Y0323404D01*
X0288197Y0323503D01*
X0288167Y0323604D01*
X0288142Y0323706D01*
X0288120Y0323808D01*
X0288102Y0323912D01*
X0288088Y0324016D01*
X0288078Y0324120D01*
X0288072Y0324225D01*
X0288070Y0324330D01*
X0230196Y0324330D02*
X0230198Y0324435D01*
X0230204Y0324540D01*
X0230214Y0324644D01*
X0230228Y0324748D01*
X0230246Y0324852D01*
X0230268Y0324954D01*
X0230293Y0325056D01*
X0230323Y0325157D01*
X0230356Y0325256D01*
X0230393Y0325354D01*
X0230434Y0325451D01*
X0230479Y0325546D01*
X0230527Y0325639D01*
X0230578Y0325731D01*
X0230634Y0325820D01*
X0230692Y0325907D01*
X0230754Y0325992D01*
X0230818Y0326075D01*
X0230886Y0326155D01*
X0230957Y0326232D01*
X0231031Y0326306D01*
X0231108Y0326378D01*
X0231187Y0326447D01*
X0231269Y0326512D01*
X0231353Y0326575D01*
X0231440Y0326634D01*
X0231529Y0326690D01*
X0231620Y0326743D01*
X0231713Y0326792D01*
X0231807Y0326837D01*
X0231903Y0326879D01*
X0232001Y0326917D01*
X0232100Y0326951D01*
X0232201Y0326982D01*
X0232302Y0327008D01*
X0232405Y0327031D01*
X0232508Y0327050D01*
X0232612Y0327065D01*
X0232716Y0327076D01*
X0232821Y0327083D01*
X0232926Y0327086D01*
X0233031Y0327085D01*
X0233136Y0327080D01*
X0233240Y0327071D01*
X0233344Y0327058D01*
X0233448Y0327041D01*
X0233551Y0327020D01*
X0233653Y0326995D01*
X0233754Y0326967D01*
X0233853Y0326934D01*
X0233952Y0326898D01*
X0234049Y0326858D01*
X0234144Y0326815D01*
X0234238Y0326767D01*
X0234330Y0326717D01*
X0234420Y0326663D01*
X0234508Y0326605D01*
X0234593Y0326544D01*
X0234676Y0326480D01*
X0234757Y0326413D01*
X0234835Y0326343D01*
X0234910Y0326269D01*
X0234982Y0326194D01*
X0235052Y0326115D01*
X0235118Y0326034D01*
X0235182Y0325950D01*
X0235242Y0325864D01*
X0235298Y0325776D01*
X0235352Y0325685D01*
X0235402Y0325593D01*
X0235448Y0325499D01*
X0235491Y0325403D01*
X0235530Y0325305D01*
X0235565Y0325207D01*
X0235596Y0325106D01*
X0235624Y0325005D01*
X0235648Y0324903D01*
X0235668Y0324800D01*
X0235684Y0324696D01*
X0235696Y0324592D01*
X0235704Y0324487D01*
X0235708Y0324382D01*
X0235708Y0324278D01*
X0235704Y0324173D01*
X0235696Y0324068D01*
X0235684Y0323964D01*
X0235668Y0323860D01*
X0235648Y0323757D01*
X0235624Y0323655D01*
X0235596Y0323554D01*
X0235565Y0323453D01*
X0235530Y0323355D01*
X0235491Y0323257D01*
X0235448Y0323161D01*
X0235402Y0323067D01*
X0235352Y0322975D01*
X0235298Y0322884D01*
X0235242Y0322796D01*
X0235182Y0322710D01*
X0235118Y0322626D01*
X0235052Y0322545D01*
X0234982Y0322466D01*
X0234910Y0322391D01*
X0234835Y0322317D01*
X0234757Y0322247D01*
X0234676Y0322180D01*
X0234593Y0322116D01*
X0234508Y0322055D01*
X0234420Y0321997D01*
X0234330Y0321943D01*
X0234238Y0321893D01*
X0234144Y0321845D01*
X0234049Y0321802D01*
X0233952Y0321762D01*
X0233853Y0321726D01*
X0233754Y0321693D01*
X0233653Y0321665D01*
X0233551Y0321640D01*
X0233448Y0321619D01*
X0233344Y0321602D01*
X0233240Y0321589D01*
X0233136Y0321580D01*
X0233031Y0321575D01*
X0232926Y0321574D01*
X0232821Y0321577D01*
X0232716Y0321584D01*
X0232612Y0321595D01*
X0232508Y0321610D01*
X0232405Y0321629D01*
X0232302Y0321652D01*
X0232201Y0321678D01*
X0232100Y0321709D01*
X0232001Y0321743D01*
X0231903Y0321781D01*
X0231807Y0321823D01*
X0231713Y0321868D01*
X0231620Y0321917D01*
X0231529Y0321970D01*
X0231440Y0322026D01*
X0231353Y0322085D01*
X0231269Y0322148D01*
X0231187Y0322213D01*
X0231108Y0322282D01*
X0231031Y0322354D01*
X0230957Y0322428D01*
X0230886Y0322505D01*
X0230818Y0322585D01*
X0230754Y0322668D01*
X0230692Y0322753D01*
X0230634Y0322840D01*
X0230578Y0322929D01*
X0230527Y0323021D01*
X0230479Y0323114D01*
X0230434Y0323209D01*
X0230393Y0323306D01*
X0230356Y0323404D01*
X0230323Y0323503D01*
X0230293Y0323604D01*
X0230268Y0323706D01*
X0230246Y0323808D01*
X0230228Y0323912D01*
X0230214Y0324016D01*
X0230204Y0324120D01*
X0230198Y0324225D01*
X0230196Y0324330D01*
D14*
X0225826Y0335885D02*
X0217952Y0335885D01*
X0217952Y0342893D02*
X0225826Y0342893D01*
X0225885Y0350452D02*
X0225885Y0358326D01*
X0232893Y0358326D02*
X0232893Y0350452D01*
X0231702Y0363385D02*
X0239576Y0363385D01*
X0239576Y0370393D02*
X0231702Y0370393D01*
D15*
X0239420Y0358648D02*
X0239420Y0356537D01*
X0242588Y0356537D01*
X0242588Y0358648D01*
X0241004Y0357592D02*
X0241004Y0356537D01*
X0241004Y0355458D02*
X0241004Y0354402D01*
X0241004Y0355458D02*
X0239948Y0355458D01*
X0239420Y0354930D01*
X0239420Y0353874D01*
X0239948Y0353347D01*
X0242060Y0353347D01*
X0242588Y0353874D01*
X0242588Y0354930D01*
X0242060Y0355458D01*
X0242060Y0352268D02*
X0242588Y0351740D01*
X0242588Y0350156D01*
X0239420Y0350156D01*
X0239420Y0351740D01*
X0239948Y0352268D01*
X0242060Y0352268D01*
X0242588Y0349085D02*
X0242588Y0348030D01*
X0242588Y0348558D02*
X0239420Y0348558D01*
X0239420Y0349085D02*
X0239420Y0348030D01*
X0239420Y0346951D02*
X0240476Y0345895D01*
X0240476Y0346423D02*
X0240476Y0344840D01*
X0239420Y0344840D02*
X0242588Y0344840D01*
X0242588Y0346423D01*
X0242060Y0346951D01*
X0241004Y0346951D01*
X0240476Y0346423D01*
X0240476Y0343761D02*
X0239948Y0343761D01*
X0239420Y0343233D01*
X0239420Y0341649D01*
X0242588Y0341649D01*
X0242588Y0343233D01*
X0242060Y0343761D01*
X0241532Y0343761D01*
X0241004Y0343233D01*
X0241004Y0341649D01*
X0241004Y0343233D02*
X0240476Y0343761D01*
X0238893Y0340571D02*
X0238893Y0338459D01*
X0239420Y0336325D02*
X0242588Y0336325D01*
X0242588Y0335269D02*
X0242588Y0337381D01*
X0242588Y0334191D02*
X0242588Y0332079D01*
X0239420Y0332079D01*
X0239420Y0334191D01*
X0241004Y0333135D02*
X0241004Y0332079D01*
X0239420Y0331000D02*
X0242588Y0331000D01*
X0242588Y0328889D02*
X0239420Y0331000D01*
X0239420Y0328889D02*
X0242588Y0328889D01*
D16*
X0218737Y0351200D02*
X0218737Y0357578D01*
X0218367Y0357578D01*
X0215194Y0357578D02*
X0214824Y0357578D01*
X0211454Y0357578D02*
X0211083Y0357578D01*
X0207910Y0357578D02*
X0207540Y0357578D01*
X0207540Y0351200D01*
X0207910Y0351200D01*
X0211083Y0351200D02*
X0215194Y0351200D01*
X0218367Y0351200D02*
X0218737Y0351200D01*
M02*
