G75*
%MOIN*%
%OFA0B0*%
%FSLAX25Y25*%
%IPPOS*%
%LPD*%
%AMOC8*
5,1,8,0,0,1.08239X$1,22.5*
%
%ADD10C,0.06312*%
%ADD11C,0.06737*%
%ADD12C,0.00039*%
%ADD13R,0.08200X0.08200*%
%ADD14OC8,0.08200*%
%ADD15C,0.08200*%
%ADD16R,0.03300X0.05800*%
%ADD17R,0.02965X0.05524*%
%ADD18C,0.06162*%
%ADD19C,0.05300*%
D10*
X0232863Y0229359D03*
X0290737Y0229359D03*
X0290737Y0324241D03*
X0232863Y0324241D03*
D11*
X0261800Y0331331D02*
X0261800Y0337269D01*
X0271800Y0337269D02*
X0271800Y0331331D01*
D12*
X0240911Y0364293D02*
X0240794Y0364193D01*
X0237353Y0364193D01*
X0237354Y0364193D02*
X0237485Y0364112D01*
X0237628Y0364053D01*
X0237778Y0364017D01*
X0240215Y0364005D01*
X0240369Y0364017D01*
X0240520Y0364053D01*
X0240662Y0364112D01*
X0240794Y0364193D01*
X0240838Y0364231D02*
X0237309Y0364231D01*
X0237264Y0364268D02*
X0240883Y0364268D01*
X0240911Y0364293D02*
X0241012Y0364411D01*
X0241093Y0364542D01*
X0241152Y0364685D01*
X0236996Y0364685D01*
X0237055Y0364542D01*
X0237135Y0364411D01*
X0237236Y0364293D01*
X0237354Y0364193D01*
X0237415Y0364155D02*
X0240732Y0364155D01*
X0240671Y0364117D02*
X0237477Y0364117D01*
X0237564Y0364079D02*
X0240583Y0364079D01*
X0240471Y0364041D02*
X0237676Y0364041D01*
X0237224Y0364306D02*
X0240923Y0364306D01*
X0240955Y0364344D02*
X0237192Y0364344D01*
X0237160Y0364382D02*
X0240987Y0364382D01*
X0241018Y0364420D02*
X0237130Y0364420D01*
X0237106Y0364458D02*
X0241041Y0364458D01*
X0241064Y0364496D02*
X0237083Y0364496D01*
X0237060Y0364534D02*
X0241087Y0364534D01*
X0241105Y0364572D02*
X0237043Y0364572D01*
X0237027Y0364609D02*
X0241120Y0364609D01*
X0241136Y0364647D02*
X0237011Y0364647D01*
X0236996Y0364685D02*
X0236960Y0364835D01*
X0236948Y0364989D01*
X0236948Y0368611D01*
X0236960Y0368765D01*
X0236996Y0368915D01*
X0237055Y0369058D01*
X0237135Y0369189D01*
X0237236Y0369307D01*
X0237354Y0369407D01*
X0237485Y0369488D01*
X0237628Y0369547D01*
X0237778Y0369583D01*
X0237932Y0369595D01*
X0240369Y0369583D01*
X0240520Y0369547D01*
X0240662Y0369488D01*
X0240794Y0369407D01*
X0240911Y0369307D01*
X0241012Y0369189D01*
X0241093Y0369058D01*
X0241152Y0368915D01*
X0241187Y0368765D01*
X0241200Y0368611D01*
X0241200Y0366800D01*
X0241200Y0364989D01*
X0241187Y0364835D01*
X0241152Y0364685D01*
X0241161Y0364723D02*
X0236987Y0364723D01*
X0236977Y0364761D02*
X0241170Y0364761D01*
X0241179Y0364799D02*
X0236968Y0364799D01*
X0236960Y0364837D02*
X0241188Y0364837D01*
X0241191Y0364875D02*
X0236957Y0364875D01*
X0236954Y0364912D02*
X0241194Y0364912D01*
X0241197Y0364950D02*
X0236951Y0364950D01*
X0236948Y0364988D02*
X0241200Y0364988D01*
X0241200Y0365026D02*
X0236948Y0365026D01*
X0236948Y0365064D02*
X0241200Y0365064D01*
X0241200Y0365102D02*
X0236948Y0365102D01*
X0236948Y0365140D02*
X0241200Y0365140D01*
X0241200Y0365178D02*
X0236948Y0365178D01*
X0236948Y0365216D02*
X0241200Y0365216D01*
X0241200Y0365253D02*
X0236948Y0365253D01*
X0236948Y0365291D02*
X0241200Y0365291D01*
X0241200Y0365329D02*
X0236948Y0365329D01*
X0236948Y0365367D02*
X0241200Y0365367D01*
X0241200Y0365405D02*
X0236948Y0365405D01*
X0236948Y0365443D02*
X0241200Y0365443D01*
X0241200Y0365481D02*
X0236948Y0365481D01*
X0236948Y0365519D02*
X0241200Y0365519D01*
X0241200Y0365556D02*
X0236948Y0365556D01*
X0236948Y0365594D02*
X0241200Y0365594D01*
X0241200Y0365632D02*
X0236948Y0365632D01*
X0236948Y0365670D02*
X0241200Y0365670D01*
X0241200Y0365708D02*
X0236948Y0365708D01*
X0236948Y0365746D02*
X0241200Y0365746D01*
X0241200Y0365784D02*
X0236948Y0365784D01*
X0236948Y0365822D02*
X0241200Y0365822D01*
X0241200Y0365860D02*
X0236948Y0365860D01*
X0236948Y0365897D02*
X0241200Y0365897D01*
X0241200Y0365935D02*
X0236948Y0365935D01*
X0236948Y0365973D02*
X0241200Y0365973D01*
X0241200Y0366011D02*
X0236948Y0366011D01*
X0236948Y0366049D02*
X0241200Y0366049D01*
X0241200Y0366087D02*
X0236948Y0366087D01*
X0236948Y0366125D02*
X0241200Y0366125D01*
X0241200Y0366163D02*
X0236948Y0366163D01*
X0236948Y0366200D02*
X0241200Y0366200D01*
X0241200Y0366238D02*
X0236948Y0366238D01*
X0236948Y0366276D02*
X0241200Y0366276D01*
X0241200Y0366314D02*
X0236948Y0366314D01*
X0236948Y0366352D02*
X0241200Y0366352D01*
X0241200Y0366390D02*
X0236948Y0366390D01*
X0236948Y0366428D02*
X0241200Y0366428D01*
X0241200Y0366466D02*
X0236948Y0366466D01*
X0236948Y0366503D02*
X0241200Y0366503D01*
X0241200Y0366541D02*
X0236948Y0366541D01*
X0236948Y0366579D02*
X0241200Y0366579D01*
X0241200Y0366617D02*
X0236948Y0366617D01*
X0236948Y0366655D02*
X0241200Y0366655D01*
X0241200Y0366693D02*
X0236948Y0366693D01*
X0236948Y0366731D02*
X0241200Y0366731D01*
X0241200Y0366769D02*
X0236948Y0366769D01*
X0236948Y0366807D02*
X0241200Y0366807D01*
X0241200Y0366844D02*
X0236948Y0366844D01*
X0236948Y0366882D02*
X0241200Y0366882D01*
X0241200Y0366920D02*
X0236948Y0366920D01*
X0236948Y0366958D02*
X0241200Y0366958D01*
X0241200Y0366996D02*
X0236948Y0366996D01*
X0236948Y0367034D02*
X0241200Y0367034D01*
X0241200Y0367072D02*
X0236948Y0367072D01*
X0236948Y0367110D02*
X0241200Y0367110D01*
X0241200Y0367147D02*
X0236948Y0367147D01*
X0236948Y0367185D02*
X0241200Y0367185D01*
X0241200Y0367223D02*
X0236948Y0367223D01*
X0236948Y0367261D02*
X0241200Y0367261D01*
X0241200Y0367299D02*
X0236948Y0367299D01*
X0236948Y0367337D02*
X0241200Y0367337D01*
X0241200Y0367375D02*
X0236948Y0367375D01*
X0236948Y0367413D02*
X0241200Y0367413D01*
X0241200Y0367451D02*
X0236948Y0367451D01*
X0236948Y0367488D02*
X0241200Y0367488D01*
X0241200Y0367526D02*
X0236948Y0367526D01*
X0236948Y0367564D02*
X0241200Y0367564D01*
X0241200Y0367602D02*
X0236948Y0367602D01*
X0236948Y0367640D02*
X0241200Y0367640D01*
X0241200Y0367678D02*
X0236948Y0367678D01*
X0236948Y0367716D02*
X0241200Y0367716D01*
X0241200Y0367754D02*
X0236948Y0367754D01*
X0236948Y0367791D02*
X0241200Y0367791D01*
X0241200Y0367829D02*
X0236948Y0367829D01*
X0236948Y0367867D02*
X0241200Y0367867D01*
X0241200Y0367905D02*
X0236948Y0367905D01*
X0236948Y0367943D02*
X0241200Y0367943D01*
X0241200Y0367981D02*
X0236948Y0367981D01*
X0236948Y0368019D02*
X0241200Y0368019D01*
X0241200Y0368057D02*
X0236948Y0368057D01*
X0236948Y0368095D02*
X0241200Y0368095D01*
X0241200Y0368132D02*
X0236948Y0368132D01*
X0236948Y0368170D02*
X0241200Y0368170D01*
X0241200Y0368208D02*
X0236948Y0368208D01*
X0236948Y0368246D02*
X0241200Y0368246D01*
X0241200Y0368284D02*
X0236948Y0368284D01*
X0236948Y0368322D02*
X0241200Y0368322D01*
X0241200Y0368360D02*
X0236948Y0368360D01*
X0236948Y0368398D02*
X0241200Y0368398D01*
X0241200Y0368435D02*
X0236948Y0368435D01*
X0236948Y0368473D02*
X0241200Y0368473D01*
X0241200Y0368511D02*
X0236948Y0368511D01*
X0236948Y0368549D02*
X0241200Y0368549D01*
X0241200Y0368587D02*
X0236948Y0368587D01*
X0236949Y0368625D02*
X0241199Y0368625D01*
X0241196Y0368663D02*
X0236952Y0368663D01*
X0236955Y0368701D02*
X0241193Y0368701D01*
X0241190Y0368738D02*
X0236958Y0368738D01*
X0236963Y0368776D02*
X0241185Y0368776D01*
X0241176Y0368814D02*
X0236972Y0368814D01*
X0236981Y0368852D02*
X0241167Y0368852D01*
X0241158Y0368890D02*
X0236990Y0368890D01*
X0237001Y0368928D02*
X0241146Y0368928D01*
X0241131Y0368966D02*
X0237017Y0368966D01*
X0237032Y0369004D02*
X0241115Y0369004D01*
X0241099Y0369042D02*
X0237048Y0369042D01*
X0237068Y0369079D02*
X0241079Y0369079D01*
X0241056Y0369117D02*
X0237091Y0369117D01*
X0237114Y0369155D02*
X0241033Y0369155D01*
X0241009Y0369193D02*
X0237139Y0369193D01*
X0237171Y0369231D02*
X0240976Y0369231D01*
X0240944Y0369269D02*
X0237203Y0369269D01*
X0237236Y0369307D02*
X0240912Y0369307D01*
X0240867Y0369345D02*
X0237280Y0369345D01*
X0237324Y0369382D02*
X0240823Y0369382D01*
X0240773Y0369420D02*
X0237375Y0369420D01*
X0237436Y0369458D02*
X0240711Y0369458D01*
X0240643Y0369496D02*
X0237504Y0369496D01*
X0237596Y0369534D02*
X0240552Y0369534D01*
X0240416Y0369572D02*
X0237731Y0369572D01*
X0234140Y0368765D02*
X0234104Y0368915D01*
X0234045Y0369058D01*
X0233965Y0369189D01*
X0233864Y0369307D01*
X0233746Y0369407D01*
X0233615Y0369488D01*
X0233472Y0369547D01*
X0233322Y0369583D01*
X0230885Y0369595D01*
X0230731Y0369583D01*
X0230580Y0369547D01*
X0230438Y0369488D01*
X0230306Y0369407D01*
X0230189Y0369307D01*
X0230088Y0369189D01*
X0230007Y0369058D01*
X0229948Y0368915D01*
X0229913Y0368765D01*
X0229900Y0368611D01*
X0229900Y0366800D01*
X0229900Y0364989D01*
X0229913Y0364835D01*
X0229948Y0364685D01*
X0234104Y0364685D01*
X0234140Y0364835D01*
X0234152Y0364989D01*
X0234152Y0368611D01*
X0234140Y0368765D01*
X0234137Y0368776D02*
X0229915Y0368776D01*
X0229911Y0368738D02*
X0234142Y0368738D01*
X0234145Y0368701D02*
X0229908Y0368701D01*
X0229905Y0368663D02*
X0234148Y0368663D01*
X0234151Y0368625D02*
X0229902Y0368625D01*
X0229900Y0368587D02*
X0234152Y0368587D01*
X0234152Y0368549D02*
X0229900Y0368549D01*
X0229900Y0368511D02*
X0234152Y0368511D01*
X0234152Y0368473D02*
X0229900Y0368473D01*
X0229900Y0368435D02*
X0234152Y0368435D01*
X0234152Y0368398D02*
X0229900Y0368398D01*
X0229900Y0368360D02*
X0234152Y0368360D01*
X0234152Y0368322D02*
X0229900Y0368322D01*
X0229900Y0368284D02*
X0234152Y0368284D01*
X0234152Y0368246D02*
X0229900Y0368246D01*
X0229900Y0368208D02*
X0234152Y0368208D01*
X0234152Y0368170D02*
X0229900Y0368170D01*
X0229900Y0368132D02*
X0234152Y0368132D01*
X0234152Y0368095D02*
X0229900Y0368095D01*
X0229900Y0368057D02*
X0234152Y0368057D01*
X0234152Y0368019D02*
X0229900Y0368019D01*
X0229900Y0367981D02*
X0234152Y0367981D01*
X0234152Y0367943D02*
X0229900Y0367943D01*
X0229900Y0367905D02*
X0234152Y0367905D01*
X0234152Y0367867D02*
X0229900Y0367867D01*
X0229900Y0367829D02*
X0234152Y0367829D01*
X0234152Y0367791D02*
X0229900Y0367791D01*
X0229900Y0367754D02*
X0234152Y0367754D01*
X0234152Y0367716D02*
X0229900Y0367716D01*
X0229900Y0367678D02*
X0234152Y0367678D01*
X0234152Y0367640D02*
X0229900Y0367640D01*
X0229900Y0367602D02*
X0234152Y0367602D01*
X0234152Y0367564D02*
X0229900Y0367564D01*
X0229900Y0367526D02*
X0234152Y0367526D01*
X0234152Y0367488D02*
X0229900Y0367488D01*
X0229900Y0367451D02*
X0234152Y0367451D01*
X0234152Y0367413D02*
X0229900Y0367413D01*
X0229900Y0367375D02*
X0234152Y0367375D01*
X0234152Y0367337D02*
X0229900Y0367337D01*
X0229900Y0367299D02*
X0234152Y0367299D01*
X0234152Y0367261D02*
X0229900Y0367261D01*
X0229900Y0367223D02*
X0234152Y0367223D01*
X0234152Y0367185D02*
X0229900Y0367185D01*
X0229900Y0367147D02*
X0234152Y0367147D01*
X0234152Y0367110D02*
X0229900Y0367110D01*
X0229900Y0367072D02*
X0234152Y0367072D01*
X0234152Y0367034D02*
X0229900Y0367034D01*
X0229900Y0366996D02*
X0234152Y0366996D01*
X0234152Y0366958D02*
X0229900Y0366958D01*
X0229900Y0366920D02*
X0234152Y0366920D01*
X0234152Y0366882D02*
X0229900Y0366882D01*
X0229900Y0366844D02*
X0234152Y0366844D01*
X0234152Y0366807D02*
X0229900Y0366807D01*
X0229900Y0366769D02*
X0234152Y0366769D01*
X0234152Y0366731D02*
X0229900Y0366731D01*
X0229900Y0366693D02*
X0234152Y0366693D01*
X0234152Y0366655D02*
X0229900Y0366655D01*
X0229900Y0366617D02*
X0234152Y0366617D01*
X0234152Y0366579D02*
X0229900Y0366579D01*
X0229900Y0366541D02*
X0234152Y0366541D01*
X0234152Y0366503D02*
X0229900Y0366503D01*
X0229900Y0366466D02*
X0234152Y0366466D01*
X0234152Y0366428D02*
X0229900Y0366428D01*
X0229900Y0366390D02*
X0234152Y0366390D01*
X0234152Y0366352D02*
X0229900Y0366352D01*
X0229900Y0366314D02*
X0234152Y0366314D01*
X0234152Y0366276D02*
X0229900Y0366276D01*
X0229900Y0366238D02*
X0234152Y0366238D01*
X0234152Y0366200D02*
X0229900Y0366200D01*
X0229900Y0366163D02*
X0234152Y0366163D01*
X0234152Y0366125D02*
X0229900Y0366125D01*
X0229900Y0366087D02*
X0234152Y0366087D01*
X0234152Y0366049D02*
X0229900Y0366049D01*
X0229900Y0366011D02*
X0234152Y0366011D01*
X0234152Y0365973D02*
X0229900Y0365973D01*
X0229900Y0365935D02*
X0234152Y0365935D01*
X0234152Y0365897D02*
X0229900Y0365897D01*
X0229900Y0365860D02*
X0234152Y0365860D01*
X0234152Y0365822D02*
X0229900Y0365822D01*
X0229900Y0365784D02*
X0234152Y0365784D01*
X0234152Y0365746D02*
X0229900Y0365746D01*
X0229900Y0365708D02*
X0234152Y0365708D01*
X0234152Y0365670D02*
X0229900Y0365670D01*
X0229900Y0365632D02*
X0234152Y0365632D01*
X0234152Y0365594D02*
X0229900Y0365594D01*
X0229900Y0365556D02*
X0234152Y0365556D01*
X0234152Y0365519D02*
X0229900Y0365519D01*
X0229900Y0365481D02*
X0234152Y0365481D01*
X0234152Y0365443D02*
X0229900Y0365443D01*
X0229900Y0365405D02*
X0234152Y0365405D01*
X0234152Y0365367D02*
X0229900Y0365367D01*
X0229900Y0365329D02*
X0234152Y0365329D01*
X0234152Y0365291D02*
X0229900Y0365291D01*
X0229900Y0365253D02*
X0234152Y0365253D01*
X0234152Y0365216D02*
X0229900Y0365216D01*
X0229900Y0365178D02*
X0234152Y0365178D01*
X0234152Y0365140D02*
X0229900Y0365140D01*
X0229900Y0365102D02*
X0234152Y0365102D01*
X0234152Y0365064D02*
X0229900Y0365064D01*
X0229900Y0365026D02*
X0234152Y0365026D01*
X0234152Y0364988D02*
X0229900Y0364988D01*
X0229903Y0364950D02*
X0234149Y0364950D01*
X0234146Y0364912D02*
X0229906Y0364912D01*
X0229909Y0364875D02*
X0234143Y0364875D01*
X0234140Y0364837D02*
X0229912Y0364837D01*
X0229921Y0364799D02*
X0234132Y0364799D01*
X0234123Y0364761D02*
X0229930Y0364761D01*
X0229939Y0364723D02*
X0234113Y0364723D01*
X0234104Y0364685D02*
X0234045Y0364542D01*
X0233965Y0364411D01*
X0233864Y0364293D01*
X0233746Y0364193D01*
X0233615Y0364112D01*
X0233472Y0364053D01*
X0233322Y0364017D01*
X0233168Y0364005D01*
X0230731Y0364017D01*
X0230580Y0364053D01*
X0230438Y0364112D01*
X0230306Y0364193D01*
X0233747Y0364193D01*
X0233791Y0364231D02*
X0230262Y0364231D01*
X0230217Y0364268D02*
X0233836Y0364268D01*
X0233876Y0364306D02*
X0230177Y0364306D01*
X0230189Y0364293D02*
X0230306Y0364193D01*
X0230368Y0364155D02*
X0233685Y0364155D01*
X0233623Y0364117D02*
X0230429Y0364117D01*
X0230517Y0364079D02*
X0233536Y0364079D01*
X0233424Y0364041D02*
X0230629Y0364041D01*
X0230189Y0364293D02*
X0230088Y0364411D01*
X0230007Y0364542D01*
X0229948Y0364685D01*
X0229964Y0364647D02*
X0234089Y0364647D01*
X0234073Y0364609D02*
X0229980Y0364609D01*
X0229995Y0364572D02*
X0234057Y0364572D01*
X0234040Y0364534D02*
X0230013Y0364534D01*
X0230036Y0364496D02*
X0234017Y0364496D01*
X0233994Y0364458D02*
X0230059Y0364458D01*
X0230082Y0364420D02*
X0233970Y0364420D01*
X0233940Y0364382D02*
X0230112Y0364382D01*
X0230145Y0364344D02*
X0233908Y0364344D01*
X0234128Y0368814D02*
X0229924Y0368814D01*
X0229933Y0368852D02*
X0234119Y0368852D01*
X0234110Y0368890D02*
X0229942Y0368890D01*
X0229954Y0368928D02*
X0234099Y0368928D01*
X0234083Y0368966D02*
X0229969Y0368966D01*
X0229985Y0369004D02*
X0234068Y0369004D01*
X0234052Y0369042D02*
X0230001Y0369042D01*
X0230021Y0369079D02*
X0234032Y0369079D01*
X0234009Y0369117D02*
X0230044Y0369117D01*
X0230067Y0369155D02*
X0233986Y0369155D01*
X0233961Y0369193D02*
X0230091Y0369193D01*
X0230124Y0369231D02*
X0233929Y0369231D01*
X0233897Y0369269D02*
X0230156Y0369269D01*
X0230188Y0369307D02*
X0233864Y0369307D01*
X0233820Y0369345D02*
X0230233Y0369345D01*
X0230277Y0369382D02*
X0233776Y0369382D01*
X0233725Y0369420D02*
X0230327Y0369420D01*
X0230389Y0369458D02*
X0233664Y0369458D01*
X0233596Y0369496D02*
X0230457Y0369496D01*
X0230548Y0369534D02*
X0233504Y0369534D01*
X0233369Y0369572D02*
X0230684Y0369572D01*
X0231111Y0359950D02*
X0229300Y0359950D01*
X0227489Y0359950D01*
X0227335Y0359937D01*
X0227185Y0359902D01*
X0227042Y0359843D01*
X0226911Y0359762D01*
X0226793Y0359661D01*
X0226693Y0359544D01*
X0226612Y0359412D01*
X0226553Y0359270D01*
X0226517Y0359119D01*
X0226505Y0356682D01*
X0226517Y0356528D01*
X0226553Y0356378D01*
X0226612Y0356235D01*
X0226693Y0356104D01*
X0226793Y0355986D01*
X0226911Y0355885D01*
X0227042Y0355805D01*
X0227185Y0355746D01*
X0227335Y0355710D01*
X0227489Y0355698D01*
X0231111Y0355698D01*
X0231265Y0355710D01*
X0231415Y0355746D01*
X0231558Y0355805D01*
X0231689Y0355885D01*
X0231807Y0355986D01*
X0231907Y0356104D01*
X0231988Y0356235D01*
X0232047Y0356378D01*
X0232083Y0356528D01*
X0232095Y0358965D01*
X0226516Y0358965D01*
X0226516Y0358927D02*
X0232095Y0358927D01*
X0232095Y0358889D02*
X0226516Y0358889D01*
X0226516Y0358851D02*
X0232095Y0358851D01*
X0232095Y0358814D02*
X0226515Y0358814D01*
X0226515Y0358776D02*
X0232094Y0358776D01*
X0232094Y0358738D02*
X0226515Y0358738D01*
X0226515Y0358700D02*
X0232094Y0358700D01*
X0232094Y0358662D02*
X0226515Y0358662D01*
X0226514Y0358624D02*
X0232094Y0358624D01*
X0232093Y0358586D02*
X0226514Y0358586D01*
X0226514Y0358548D02*
X0232093Y0358548D01*
X0232093Y0358511D02*
X0226514Y0358511D01*
X0226514Y0358473D02*
X0232093Y0358473D01*
X0232093Y0358435D02*
X0226514Y0358435D01*
X0226513Y0358397D02*
X0232092Y0358397D01*
X0232092Y0358359D02*
X0226513Y0358359D01*
X0226513Y0358321D02*
X0232092Y0358321D01*
X0232092Y0358283D02*
X0226513Y0358283D01*
X0226513Y0358245D02*
X0232092Y0358245D01*
X0232091Y0358207D02*
X0226512Y0358207D01*
X0226512Y0358170D02*
X0232091Y0358170D01*
X0232091Y0358132D02*
X0226512Y0358132D01*
X0226512Y0358094D02*
X0232091Y0358094D01*
X0232091Y0358056D02*
X0226512Y0358056D01*
X0226511Y0358018D02*
X0232091Y0358018D01*
X0232090Y0357980D02*
X0226511Y0357980D01*
X0226511Y0357942D02*
X0232090Y0357942D01*
X0232090Y0357904D02*
X0226511Y0357904D01*
X0226511Y0357867D02*
X0232090Y0357867D01*
X0232090Y0357829D02*
X0226510Y0357829D01*
X0226510Y0357791D02*
X0232089Y0357791D01*
X0232089Y0357753D02*
X0226510Y0357753D01*
X0226510Y0357715D02*
X0232089Y0357715D01*
X0232089Y0357677D02*
X0226510Y0357677D01*
X0226510Y0357639D02*
X0232089Y0357639D01*
X0232088Y0357601D02*
X0226509Y0357601D01*
X0226509Y0357563D02*
X0232088Y0357563D01*
X0232088Y0357526D02*
X0226509Y0357526D01*
X0226509Y0357488D02*
X0232088Y0357488D01*
X0232088Y0357450D02*
X0226509Y0357450D01*
X0226508Y0357412D02*
X0232087Y0357412D01*
X0232087Y0357374D02*
X0226508Y0357374D01*
X0226508Y0357336D02*
X0232087Y0357336D01*
X0232087Y0357298D02*
X0226508Y0357298D01*
X0226508Y0357260D02*
X0232087Y0357260D01*
X0232087Y0357223D02*
X0226507Y0357223D01*
X0226507Y0357185D02*
X0232086Y0357185D01*
X0232086Y0357147D02*
X0226507Y0357147D01*
X0226507Y0357109D02*
X0232086Y0357109D01*
X0232086Y0357071D02*
X0226507Y0357071D01*
X0226506Y0357033D02*
X0232086Y0357033D01*
X0232085Y0356995D02*
X0226506Y0356995D01*
X0226506Y0356957D02*
X0232085Y0356957D01*
X0232085Y0356920D02*
X0226506Y0356920D01*
X0226506Y0356882D02*
X0232085Y0356882D01*
X0232085Y0356844D02*
X0226506Y0356844D01*
X0226505Y0356806D02*
X0232084Y0356806D01*
X0232084Y0356768D02*
X0226505Y0356768D01*
X0226505Y0356730D02*
X0232084Y0356730D01*
X0232084Y0356692D02*
X0226505Y0356692D01*
X0226507Y0356654D02*
X0232084Y0356654D01*
X0232084Y0356616D02*
X0226510Y0356616D01*
X0226513Y0356579D02*
X0232083Y0356579D01*
X0232083Y0356541D02*
X0226516Y0356541D01*
X0226523Y0356503D02*
X0232077Y0356503D01*
X0232068Y0356465D02*
X0226532Y0356465D01*
X0226541Y0356427D02*
X0232059Y0356427D01*
X0232050Y0356389D02*
X0226550Y0356389D01*
X0226564Y0356351D02*
X0232036Y0356351D01*
X0232021Y0356313D02*
X0226579Y0356313D01*
X0226595Y0356276D02*
X0232005Y0356276D01*
X0231989Y0356238D02*
X0226611Y0356238D01*
X0226633Y0356200D02*
X0231967Y0356200D01*
X0231943Y0356162D02*
X0226657Y0356162D01*
X0226680Y0356124D02*
X0231920Y0356124D01*
X0231893Y0356086D02*
X0226707Y0356086D01*
X0226740Y0356048D02*
X0231860Y0356048D01*
X0231828Y0356010D02*
X0226772Y0356010D01*
X0226809Y0355972D02*
X0231791Y0355972D01*
X0231747Y0355935D02*
X0226853Y0355935D01*
X0226897Y0355897D02*
X0231703Y0355897D01*
X0231646Y0355859D02*
X0226954Y0355859D01*
X0227016Y0355821D02*
X0231584Y0355821D01*
X0231506Y0355783D02*
X0227094Y0355783D01*
X0227187Y0355745D02*
X0231413Y0355745D01*
X0231233Y0355707D02*
X0227367Y0355707D01*
X0227489Y0352902D02*
X0227335Y0352890D01*
X0227185Y0352854D01*
X0227042Y0352795D01*
X0226911Y0352715D01*
X0231689Y0352715D01*
X0231558Y0352795D01*
X0231415Y0352854D01*
X0231265Y0352890D01*
X0231111Y0352902D01*
X0227489Y0352902D01*
X0227234Y0352866D02*
X0231366Y0352866D01*
X0231478Y0352828D02*
X0227122Y0352828D01*
X0227034Y0352790D02*
X0231566Y0352790D01*
X0231627Y0352753D02*
X0226973Y0352753D01*
X0226911Y0352715D02*
X0226793Y0352614D01*
X0226693Y0352496D01*
X0226612Y0352365D01*
X0226553Y0352222D01*
X0232047Y0352222D01*
X0231988Y0352365D01*
X0231907Y0352496D01*
X0231807Y0352614D01*
X0231689Y0352715D01*
X0231734Y0352677D02*
X0226866Y0352677D01*
X0226822Y0352639D02*
X0231778Y0352639D01*
X0231818Y0352601D02*
X0226782Y0352601D01*
X0226749Y0352563D02*
X0231851Y0352563D01*
X0231883Y0352525D02*
X0226717Y0352525D01*
X0226687Y0352487D02*
X0231913Y0352487D01*
X0231936Y0352449D02*
X0226664Y0352449D01*
X0226640Y0352412D02*
X0231960Y0352412D01*
X0231983Y0352374D02*
X0226617Y0352374D01*
X0226600Y0352336D02*
X0232000Y0352336D01*
X0232016Y0352298D02*
X0226584Y0352298D01*
X0226568Y0352260D02*
X0232032Y0352260D01*
X0232047Y0352222D02*
X0232083Y0352072D01*
X0232095Y0351918D01*
X0232083Y0349481D01*
X0232047Y0349330D01*
X0231988Y0349188D01*
X0231907Y0349056D01*
X0231807Y0348939D01*
X0231689Y0348838D01*
X0231558Y0348757D01*
X0231415Y0348698D01*
X0231265Y0348663D01*
X0231111Y0348650D01*
X0229300Y0348650D01*
X0227489Y0348650D01*
X0227335Y0348663D01*
X0227185Y0348698D01*
X0227042Y0348757D01*
X0226911Y0348838D01*
X0226793Y0348939D01*
X0226693Y0349056D01*
X0226612Y0349188D01*
X0226553Y0349330D01*
X0226517Y0349481D01*
X0226505Y0349635D01*
X0226517Y0352072D01*
X0226553Y0352222D01*
X0226544Y0352184D02*
X0232056Y0352184D01*
X0232065Y0352146D02*
X0226535Y0352146D01*
X0226526Y0352109D02*
X0232074Y0352109D01*
X0232083Y0352071D02*
X0226517Y0352071D01*
X0226517Y0352033D02*
X0232086Y0352033D01*
X0232089Y0351995D02*
X0226517Y0351995D01*
X0226516Y0351957D02*
X0232092Y0351957D01*
X0232095Y0351919D02*
X0226516Y0351919D01*
X0226516Y0351881D02*
X0232095Y0351881D01*
X0232095Y0351843D02*
X0226516Y0351843D01*
X0226516Y0351806D02*
X0232095Y0351806D01*
X0232095Y0351768D02*
X0226515Y0351768D01*
X0226515Y0351730D02*
X0232094Y0351730D01*
X0232094Y0351692D02*
X0226515Y0351692D01*
X0226515Y0351654D02*
X0232094Y0351654D01*
X0232094Y0351616D02*
X0226515Y0351616D01*
X0226514Y0351578D02*
X0232094Y0351578D01*
X0232093Y0351540D02*
X0226514Y0351540D01*
X0226514Y0351502D02*
X0232093Y0351502D01*
X0232093Y0351465D02*
X0226514Y0351465D01*
X0226514Y0351427D02*
X0232093Y0351427D01*
X0232093Y0351389D02*
X0226514Y0351389D01*
X0226513Y0351351D02*
X0232092Y0351351D01*
X0232092Y0351313D02*
X0226513Y0351313D01*
X0226513Y0351275D02*
X0232092Y0351275D01*
X0232092Y0351237D02*
X0226513Y0351237D01*
X0226513Y0351199D02*
X0232092Y0351199D01*
X0232091Y0351162D02*
X0226512Y0351162D01*
X0226512Y0351124D02*
X0232091Y0351124D01*
X0232091Y0351086D02*
X0226512Y0351086D01*
X0226512Y0351048D02*
X0232091Y0351048D01*
X0232091Y0351010D02*
X0226512Y0351010D01*
X0226511Y0350972D02*
X0232091Y0350972D01*
X0232090Y0350934D02*
X0226511Y0350934D01*
X0226511Y0350896D02*
X0232090Y0350896D01*
X0232090Y0350858D02*
X0226511Y0350858D01*
X0226511Y0350821D02*
X0232090Y0350821D01*
X0232090Y0350783D02*
X0226510Y0350783D01*
X0226510Y0350745D02*
X0232089Y0350745D01*
X0232089Y0350707D02*
X0226510Y0350707D01*
X0226510Y0350669D02*
X0232089Y0350669D01*
X0232089Y0350631D02*
X0226510Y0350631D01*
X0226510Y0350593D02*
X0232089Y0350593D01*
X0232088Y0350555D02*
X0226509Y0350555D01*
X0226509Y0350518D02*
X0232088Y0350518D01*
X0232088Y0350480D02*
X0226509Y0350480D01*
X0226509Y0350442D02*
X0232088Y0350442D01*
X0232088Y0350404D02*
X0226509Y0350404D01*
X0226508Y0350366D02*
X0232087Y0350366D01*
X0232087Y0350328D02*
X0226508Y0350328D01*
X0226508Y0350290D02*
X0232087Y0350290D01*
X0232087Y0350252D02*
X0226508Y0350252D01*
X0226508Y0350214D02*
X0232087Y0350214D01*
X0232087Y0350177D02*
X0226507Y0350177D01*
X0226507Y0350139D02*
X0232086Y0350139D01*
X0232086Y0350101D02*
X0226507Y0350101D01*
X0226507Y0350063D02*
X0232086Y0350063D01*
X0232086Y0350025D02*
X0226507Y0350025D01*
X0226506Y0349987D02*
X0232086Y0349987D01*
X0232085Y0349949D02*
X0226506Y0349949D01*
X0226506Y0349911D02*
X0232085Y0349911D01*
X0232085Y0349874D02*
X0226506Y0349874D01*
X0226506Y0349836D02*
X0232085Y0349836D01*
X0232085Y0349798D02*
X0226506Y0349798D01*
X0226505Y0349760D02*
X0232084Y0349760D01*
X0232084Y0349722D02*
X0226505Y0349722D01*
X0226505Y0349684D02*
X0232084Y0349684D01*
X0232084Y0349646D02*
X0226505Y0349646D01*
X0226507Y0349608D02*
X0232084Y0349608D01*
X0232084Y0349571D02*
X0226510Y0349571D01*
X0226513Y0349533D02*
X0232083Y0349533D01*
X0232083Y0349495D02*
X0226516Y0349495D01*
X0226523Y0349457D02*
X0232077Y0349457D01*
X0232068Y0349419D02*
X0226532Y0349419D01*
X0226541Y0349381D02*
X0232059Y0349381D01*
X0232050Y0349343D02*
X0226550Y0349343D01*
X0226563Y0349305D02*
X0232037Y0349305D01*
X0232021Y0349267D02*
X0226579Y0349267D01*
X0226594Y0349230D02*
X0232005Y0349230D01*
X0231990Y0349192D02*
X0226610Y0349192D01*
X0226633Y0349154D02*
X0231967Y0349154D01*
X0231944Y0349116D02*
X0226656Y0349116D01*
X0226679Y0349078D02*
X0231921Y0349078D01*
X0231894Y0349040D02*
X0226706Y0349040D01*
X0226739Y0349002D02*
X0231861Y0349002D01*
X0231829Y0348964D02*
X0226771Y0348964D01*
X0226807Y0348927D02*
X0231793Y0348927D01*
X0231749Y0348889D02*
X0226851Y0348889D01*
X0226896Y0348851D02*
X0231704Y0348851D01*
X0231648Y0348813D02*
X0226952Y0348813D01*
X0227014Y0348775D02*
X0231586Y0348775D01*
X0231509Y0348737D02*
X0227091Y0348737D01*
X0227183Y0348699D02*
X0231417Y0348699D01*
X0231249Y0348661D02*
X0227351Y0348661D01*
X0226619Y0342083D02*
X0224182Y0342095D01*
X0224028Y0342083D01*
X0223878Y0342047D01*
X0223735Y0341988D01*
X0223604Y0341907D01*
X0223486Y0341807D01*
X0223385Y0341689D01*
X0223305Y0341558D01*
X0223246Y0341415D01*
X0223210Y0341265D01*
X0223198Y0341111D01*
X0223198Y0337489D01*
X0223210Y0337335D01*
X0223246Y0337185D01*
X0223305Y0337042D01*
X0223385Y0336911D01*
X0223486Y0336793D01*
X0223604Y0336693D01*
X0223735Y0336612D01*
X0223878Y0336553D01*
X0224028Y0336517D01*
X0226465Y0336505D01*
X0226619Y0336517D01*
X0226770Y0336553D01*
X0226912Y0336612D01*
X0227044Y0336693D01*
X0227161Y0336793D01*
X0227262Y0336911D01*
X0227343Y0337042D01*
X0227402Y0337185D01*
X0227437Y0337335D01*
X0223210Y0337335D01*
X0223207Y0337373D02*
X0227440Y0337373D01*
X0227443Y0337411D02*
X0223204Y0337411D01*
X0223201Y0337448D02*
X0227446Y0337448D01*
X0227449Y0337486D02*
X0223198Y0337486D01*
X0223198Y0337524D02*
X0227450Y0337524D01*
X0227450Y0337489D02*
X0227450Y0339300D01*
X0227450Y0341111D01*
X0227437Y0341265D01*
X0227402Y0341415D01*
X0227343Y0341558D01*
X0227262Y0341689D01*
X0227161Y0341807D01*
X0227044Y0341907D01*
X0226912Y0341988D01*
X0226770Y0342047D01*
X0226619Y0342083D01*
X0226674Y0342070D02*
X0223973Y0342070D01*
X0223841Y0342032D02*
X0226806Y0342032D01*
X0226898Y0341994D02*
X0223750Y0341994D01*
X0223683Y0341956D02*
X0226964Y0341956D01*
X0227026Y0341918D02*
X0223621Y0341918D01*
X0223572Y0341881D02*
X0227075Y0341881D01*
X0227120Y0341843D02*
X0223528Y0341843D01*
X0223484Y0341805D02*
X0227163Y0341805D01*
X0227196Y0341767D02*
X0223452Y0341767D01*
X0223419Y0341729D02*
X0227228Y0341729D01*
X0227260Y0341691D02*
X0223387Y0341691D01*
X0223363Y0341653D02*
X0227284Y0341653D01*
X0227307Y0341615D02*
X0223340Y0341615D01*
X0223317Y0341578D02*
X0227330Y0341578D01*
X0227350Y0341540D02*
X0223297Y0341540D01*
X0223281Y0341502D02*
X0227366Y0341502D01*
X0227381Y0341464D02*
X0223266Y0341464D01*
X0223250Y0341426D02*
X0227397Y0341426D01*
X0227408Y0341388D02*
X0223239Y0341388D01*
X0223230Y0341350D02*
X0227417Y0341350D01*
X0227426Y0341312D02*
X0223221Y0341312D01*
X0223212Y0341274D02*
X0227435Y0341274D01*
X0227440Y0341237D02*
X0223208Y0341237D01*
X0223205Y0341199D02*
X0227443Y0341199D01*
X0227446Y0341161D02*
X0223202Y0341161D01*
X0223199Y0341123D02*
X0227449Y0341123D01*
X0227450Y0341085D02*
X0223198Y0341085D01*
X0223198Y0341047D02*
X0227450Y0341047D01*
X0227450Y0341009D02*
X0223198Y0341009D01*
X0223198Y0340971D02*
X0227450Y0340971D01*
X0227450Y0340934D02*
X0223198Y0340934D01*
X0223198Y0340896D02*
X0227450Y0340896D01*
X0227450Y0340858D02*
X0223198Y0340858D01*
X0223198Y0340820D02*
X0227450Y0340820D01*
X0227450Y0340782D02*
X0223198Y0340782D01*
X0223198Y0340744D02*
X0227450Y0340744D01*
X0227450Y0340706D02*
X0223198Y0340706D01*
X0223198Y0340668D02*
X0227450Y0340668D01*
X0227450Y0340630D02*
X0223198Y0340630D01*
X0223198Y0340593D02*
X0227450Y0340593D01*
X0227450Y0340555D02*
X0223198Y0340555D01*
X0223198Y0340517D02*
X0227450Y0340517D01*
X0227450Y0340479D02*
X0223198Y0340479D01*
X0223198Y0340441D02*
X0227450Y0340441D01*
X0227450Y0340403D02*
X0223198Y0340403D01*
X0223198Y0340365D02*
X0227450Y0340365D01*
X0227450Y0340327D02*
X0223198Y0340327D01*
X0223198Y0340290D02*
X0227450Y0340290D01*
X0227450Y0340252D02*
X0223198Y0340252D01*
X0223198Y0340214D02*
X0227450Y0340214D01*
X0227450Y0340176D02*
X0223198Y0340176D01*
X0223198Y0340138D02*
X0227450Y0340138D01*
X0227450Y0340100D02*
X0223198Y0340100D01*
X0223198Y0340062D02*
X0227450Y0340062D01*
X0227450Y0340024D02*
X0223198Y0340024D01*
X0223198Y0339987D02*
X0227450Y0339987D01*
X0227450Y0339949D02*
X0223198Y0339949D01*
X0223198Y0339911D02*
X0227450Y0339911D01*
X0227450Y0339873D02*
X0223198Y0339873D01*
X0223198Y0339835D02*
X0227450Y0339835D01*
X0227450Y0339797D02*
X0223198Y0339797D01*
X0223198Y0339759D02*
X0227450Y0339759D01*
X0227450Y0339721D02*
X0223198Y0339721D01*
X0223198Y0339683D02*
X0227450Y0339683D01*
X0227450Y0339646D02*
X0223198Y0339646D01*
X0223198Y0339608D02*
X0227450Y0339608D01*
X0227450Y0339570D02*
X0223198Y0339570D01*
X0223198Y0339532D02*
X0227450Y0339532D01*
X0227450Y0339494D02*
X0223198Y0339494D01*
X0223198Y0339456D02*
X0227450Y0339456D01*
X0227450Y0339418D02*
X0223198Y0339418D01*
X0223198Y0339380D02*
X0227450Y0339380D01*
X0227450Y0339343D02*
X0223198Y0339343D01*
X0223198Y0339305D02*
X0227450Y0339305D01*
X0227450Y0339267D02*
X0223198Y0339267D01*
X0223198Y0339229D02*
X0227450Y0339229D01*
X0227450Y0339191D02*
X0223198Y0339191D01*
X0223198Y0339153D02*
X0227450Y0339153D01*
X0227450Y0339115D02*
X0223198Y0339115D01*
X0223198Y0339077D02*
X0227450Y0339077D01*
X0227450Y0339039D02*
X0223198Y0339039D01*
X0223198Y0339002D02*
X0227450Y0339002D01*
X0227450Y0338964D02*
X0223198Y0338964D01*
X0223198Y0338926D02*
X0227450Y0338926D01*
X0227450Y0338888D02*
X0223198Y0338888D01*
X0223198Y0338850D02*
X0227450Y0338850D01*
X0227450Y0338812D02*
X0223198Y0338812D01*
X0223198Y0338774D02*
X0227450Y0338774D01*
X0227450Y0338736D02*
X0223198Y0338736D01*
X0223198Y0338699D02*
X0227450Y0338699D01*
X0227450Y0338661D02*
X0223198Y0338661D01*
X0223198Y0338623D02*
X0227450Y0338623D01*
X0227450Y0338585D02*
X0223198Y0338585D01*
X0223198Y0338547D02*
X0227450Y0338547D01*
X0227450Y0338509D02*
X0223198Y0338509D01*
X0223198Y0338471D02*
X0227450Y0338471D01*
X0227450Y0338433D02*
X0223198Y0338433D01*
X0223198Y0338395D02*
X0227450Y0338395D01*
X0227450Y0338358D02*
X0223198Y0338358D01*
X0223198Y0338320D02*
X0227450Y0338320D01*
X0227450Y0338282D02*
X0223198Y0338282D01*
X0223198Y0338244D02*
X0227450Y0338244D01*
X0227450Y0338206D02*
X0223198Y0338206D01*
X0223198Y0338168D02*
X0227450Y0338168D01*
X0227450Y0338130D02*
X0223198Y0338130D01*
X0223198Y0338092D02*
X0227450Y0338092D01*
X0227450Y0338055D02*
X0223198Y0338055D01*
X0223198Y0338017D02*
X0227450Y0338017D01*
X0227450Y0337979D02*
X0223198Y0337979D01*
X0223198Y0337941D02*
X0227450Y0337941D01*
X0227450Y0337903D02*
X0223198Y0337903D01*
X0223198Y0337865D02*
X0227450Y0337865D01*
X0227450Y0337827D02*
X0223198Y0337827D01*
X0223198Y0337789D02*
X0227450Y0337789D01*
X0227450Y0337752D02*
X0223198Y0337752D01*
X0223198Y0337714D02*
X0227450Y0337714D01*
X0227450Y0337676D02*
X0223198Y0337676D01*
X0223198Y0337638D02*
X0227450Y0337638D01*
X0227450Y0337600D02*
X0223198Y0337600D01*
X0223198Y0337562D02*
X0227450Y0337562D01*
X0227450Y0337489D02*
X0227437Y0337335D01*
X0227428Y0337297D02*
X0223219Y0337297D01*
X0223228Y0337259D02*
X0227419Y0337259D01*
X0227410Y0337221D02*
X0223237Y0337221D01*
X0223246Y0337183D02*
X0227401Y0337183D01*
X0227385Y0337145D02*
X0223262Y0337145D01*
X0223278Y0337108D02*
X0227370Y0337108D01*
X0227354Y0337070D02*
X0223293Y0337070D01*
X0223311Y0337032D02*
X0227336Y0337032D01*
X0227313Y0336994D02*
X0223334Y0336994D01*
X0223358Y0336956D02*
X0227290Y0336956D01*
X0227266Y0336918D02*
X0223381Y0336918D01*
X0223411Y0336880D02*
X0227236Y0336880D01*
X0227204Y0336842D02*
X0223444Y0336842D01*
X0223476Y0336804D02*
X0227171Y0336804D01*
X0227131Y0336767D02*
X0223517Y0336767D01*
X0223561Y0336729D02*
X0227086Y0336729D01*
X0227041Y0336691D02*
X0223606Y0336691D01*
X0223668Y0336653D02*
X0226979Y0336653D01*
X0226918Y0336615D02*
X0223730Y0336615D01*
X0223819Y0336577D02*
X0226829Y0336577D01*
X0226713Y0336539D02*
X0223934Y0336539D01*
X0220390Y0337335D02*
X0220402Y0337489D01*
X0220402Y0341111D01*
X0220390Y0341265D01*
X0220354Y0341415D01*
X0220295Y0341558D01*
X0220215Y0341689D01*
X0220114Y0341807D01*
X0219996Y0341907D01*
X0219865Y0341988D01*
X0219722Y0342047D01*
X0219572Y0342083D01*
X0217135Y0342095D01*
X0216981Y0342083D01*
X0216830Y0342047D01*
X0216688Y0341988D01*
X0216556Y0341907D01*
X0216439Y0341807D01*
X0216338Y0341689D01*
X0216257Y0341558D01*
X0216198Y0341415D01*
X0216163Y0341265D01*
X0216150Y0341111D01*
X0216150Y0339300D01*
X0216150Y0337489D01*
X0216163Y0337335D01*
X0220390Y0337335D01*
X0220354Y0337185D01*
X0220295Y0337042D01*
X0220215Y0336911D01*
X0220114Y0336793D01*
X0219996Y0336693D01*
X0219865Y0336612D01*
X0219722Y0336553D01*
X0219572Y0336517D01*
X0219418Y0336505D01*
X0216981Y0336517D01*
X0216830Y0336553D01*
X0216688Y0336612D01*
X0216556Y0336693D01*
X0216439Y0336793D01*
X0216338Y0336911D01*
X0216257Y0337042D01*
X0216198Y0337185D01*
X0216163Y0337335D01*
X0216160Y0337373D02*
X0220393Y0337373D01*
X0220396Y0337411D02*
X0216157Y0337411D01*
X0216154Y0337448D02*
X0220399Y0337448D01*
X0220402Y0337486D02*
X0216151Y0337486D01*
X0216150Y0337524D02*
X0220402Y0337524D01*
X0220402Y0337562D02*
X0216150Y0337562D01*
X0216150Y0337600D02*
X0220402Y0337600D01*
X0220402Y0337638D02*
X0216150Y0337638D01*
X0216150Y0337676D02*
X0220402Y0337676D01*
X0220402Y0337714D02*
X0216150Y0337714D01*
X0216150Y0337752D02*
X0220402Y0337752D01*
X0220402Y0337789D02*
X0216150Y0337789D01*
X0216150Y0337827D02*
X0220402Y0337827D01*
X0220402Y0337865D02*
X0216150Y0337865D01*
X0216150Y0337903D02*
X0220402Y0337903D01*
X0220402Y0337941D02*
X0216150Y0337941D01*
X0216150Y0337979D02*
X0220402Y0337979D01*
X0220402Y0338017D02*
X0216150Y0338017D01*
X0216150Y0338055D02*
X0220402Y0338055D01*
X0220402Y0338092D02*
X0216150Y0338092D01*
X0216150Y0338130D02*
X0220402Y0338130D01*
X0220402Y0338168D02*
X0216150Y0338168D01*
X0216150Y0338206D02*
X0220402Y0338206D01*
X0220402Y0338244D02*
X0216150Y0338244D01*
X0216150Y0338282D02*
X0220402Y0338282D01*
X0220402Y0338320D02*
X0216150Y0338320D01*
X0216150Y0338358D02*
X0220402Y0338358D01*
X0220402Y0338395D02*
X0216150Y0338395D01*
X0216150Y0338433D02*
X0220402Y0338433D01*
X0220402Y0338471D02*
X0216150Y0338471D01*
X0216150Y0338509D02*
X0220402Y0338509D01*
X0220402Y0338547D02*
X0216150Y0338547D01*
X0216150Y0338585D02*
X0220402Y0338585D01*
X0220402Y0338623D02*
X0216150Y0338623D01*
X0216150Y0338661D02*
X0220402Y0338661D01*
X0220402Y0338699D02*
X0216150Y0338699D01*
X0216150Y0338736D02*
X0220402Y0338736D01*
X0220402Y0338774D02*
X0216150Y0338774D01*
X0216150Y0338812D02*
X0220402Y0338812D01*
X0220402Y0338850D02*
X0216150Y0338850D01*
X0216150Y0338888D02*
X0220402Y0338888D01*
X0220402Y0338926D02*
X0216150Y0338926D01*
X0216150Y0338964D02*
X0220402Y0338964D01*
X0220402Y0339002D02*
X0216150Y0339002D01*
X0216150Y0339039D02*
X0220402Y0339039D01*
X0220402Y0339077D02*
X0216150Y0339077D01*
X0216150Y0339115D02*
X0220402Y0339115D01*
X0220402Y0339153D02*
X0216150Y0339153D01*
X0216150Y0339191D02*
X0220402Y0339191D01*
X0220402Y0339229D02*
X0216150Y0339229D01*
X0216150Y0339267D02*
X0220402Y0339267D01*
X0220402Y0339305D02*
X0216150Y0339305D01*
X0216150Y0339343D02*
X0220402Y0339343D01*
X0220402Y0339380D02*
X0216150Y0339380D01*
X0216150Y0339418D02*
X0220402Y0339418D01*
X0220402Y0339456D02*
X0216150Y0339456D01*
X0216150Y0339494D02*
X0220402Y0339494D01*
X0220402Y0339532D02*
X0216150Y0339532D01*
X0216150Y0339570D02*
X0220402Y0339570D01*
X0220402Y0339608D02*
X0216150Y0339608D01*
X0216150Y0339646D02*
X0220402Y0339646D01*
X0220402Y0339683D02*
X0216150Y0339683D01*
X0216150Y0339721D02*
X0220402Y0339721D01*
X0220402Y0339759D02*
X0216150Y0339759D01*
X0216150Y0339797D02*
X0220402Y0339797D01*
X0220402Y0339835D02*
X0216150Y0339835D01*
X0216150Y0339873D02*
X0220402Y0339873D01*
X0220402Y0339911D02*
X0216150Y0339911D01*
X0216150Y0339949D02*
X0220402Y0339949D01*
X0220402Y0339987D02*
X0216150Y0339987D01*
X0216150Y0340024D02*
X0220402Y0340024D01*
X0220402Y0340062D02*
X0216150Y0340062D01*
X0216150Y0340100D02*
X0220402Y0340100D01*
X0220402Y0340138D02*
X0216150Y0340138D01*
X0216150Y0340176D02*
X0220402Y0340176D01*
X0220402Y0340214D02*
X0216150Y0340214D01*
X0216150Y0340252D02*
X0220402Y0340252D01*
X0220402Y0340290D02*
X0216150Y0340290D01*
X0216150Y0340327D02*
X0220402Y0340327D01*
X0220402Y0340365D02*
X0216150Y0340365D01*
X0216150Y0340403D02*
X0220402Y0340403D01*
X0220402Y0340441D02*
X0216150Y0340441D01*
X0216150Y0340479D02*
X0220402Y0340479D01*
X0220402Y0340517D02*
X0216150Y0340517D01*
X0216150Y0340555D02*
X0220402Y0340555D01*
X0220402Y0340593D02*
X0216150Y0340593D01*
X0216150Y0340630D02*
X0220402Y0340630D01*
X0220402Y0340668D02*
X0216150Y0340668D01*
X0216150Y0340706D02*
X0220402Y0340706D01*
X0220402Y0340744D02*
X0216150Y0340744D01*
X0216150Y0340782D02*
X0220402Y0340782D01*
X0220402Y0340820D02*
X0216150Y0340820D01*
X0216150Y0340858D02*
X0220402Y0340858D01*
X0220402Y0340896D02*
X0216150Y0340896D01*
X0216150Y0340934D02*
X0220402Y0340934D01*
X0220402Y0340971D02*
X0216150Y0340971D01*
X0216150Y0341009D02*
X0220402Y0341009D01*
X0220402Y0341047D02*
X0216150Y0341047D01*
X0216150Y0341085D02*
X0220402Y0341085D01*
X0220401Y0341123D02*
X0216151Y0341123D01*
X0216154Y0341161D02*
X0220398Y0341161D01*
X0220395Y0341199D02*
X0216157Y0341199D01*
X0216160Y0341237D02*
X0220392Y0341237D01*
X0220388Y0341274D02*
X0216165Y0341274D01*
X0216174Y0341312D02*
X0220379Y0341312D01*
X0220370Y0341350D02*
X0216183Y0341350D01*
X0216192Y0341388D02*
X0220361Y0341388D01*
X0220350Y0341426D02*
X0216203Y0341426D01*
X0216219Y0341464D02*
X0220334Y0341464D01*
X0220319Y0341502D02*
X0216234Y0341502D01*
X0216250Y0341540D02*
X0220303Y0341540D01*
X0220283Y0341578D02*
X0216270Y0341578D01*
X0216293Y0341615D02*
X0220260Y0341615D01*
X0220237Y0341653D02*
X0216316Y0341653D01*
X0216340Y0341691D02*
X0220213Y0341691D01*
X0220181Y0341729D02*
X0216372Y0341729D01*
X0216404Y0341767D02*
X0220148Y0341767D01*
X0220116Y0341805D02*
X0216437Y0341805D01*
X0216480Y0341843D02*
X0220072Y0341843D01*
X0220028Y0341881D02*
X0216525Y0341881D01*
X0216574Y0341918D02*
X0219979Y0341918D01*
X0219917Y0341956D02*
X0216636Y0341956D01*
X0216702Y0341994D02*
X0219850Y0341994D01*
X0219759Y0342032D02*
X0216794Y0342032D01*
X0216926Y0342070D02*
X0219627Y0342070D01*
X0220381Y0337297D02*
X0216172Y0337297D01*
X0216181Y0337259D02*
X0220372Y0337259D01*
X0220363Y0337221D02*
X0216190Y0337221D01*
X0216199Y0337183D02*
X0220354Y0337183D01*
X0220338Y0337145D02*
X0216215Y0337145D01*
X0216230Y0337108D02*
X0220322Y0337108D01*
X0220307Y0337070D02*
X0216246Y0337070D01*
X0216264Y0337032D02*
X0220289Y0337032D01*
X0220266Y0336994D02*
X0216287Y0336994D01*
X0216310Y0336956D02*
X0220242Y0336956D01*
X0220219Y0336918D02*
X0216334Y0336918D01*
X0216364Y0336880D02*
X0220189Y0336880D01*
X0220156Y0336842D02*
X0216396Y0336842D01*
X0216429Y0336804D02*
X0220124Y0336804D01*
X0220083Y0336767D02*
X0216469Y0336767D01*
X0216514Y0336729D02*
X0220039Y0336729D01*
X0219994Y0336691D02*
X0216559Y0336691D01*
X0216621Y0336653D02*
X0219932Y0336653D01*
X0219870Y0336615D02*
X0216682Y0336615D01*
X0216771Y0336577D02*
X0219781Y0336577D01*
X0219666Y0336539D02*
X0216887Y0336539D01*
X0226516Y0359003D02*
X0232092Y0359003D01*
X0232095Y0358965D02*
X0232083Y0359119D01*
X0232047Y0359270D01*
X0231988Y0359412D01*
X0231907Y0359544D01*
X0231807Y0359661D01*
X0231689Y0359762D01*
X0231558Y0359843D01*
X0231415Y0359902D01*
X0231265Y0359937D01*
X0231111Y0359950D01*
X0231371Y0359912D02*
X0227229Y0359912D01*
X0227119Y0359874D02*
X0231481Y0359874D01*
X0231568Y0359836D02*
X0227032Y0359836D01*
X0226970Y0359798D02*
X0231630Y0359798D01*
X0231691Y0359761D02*
X0226909Y0359761D01*
X0226865Y0359723D02*
X0231735Y0359723D01*
X0231780Y0359685D02*
X0226820Y0359685D01*
X0226781Y0359647D02*
X0231819Y0359647D01*
X0231852Y0359609D02*
X0226748Y0359609D01*
X0226716Y0359571D02*
X0231884Y0359571D01*
X0231914Y0359533D02*
X0226686Y0359533D01*
X0226663Y0359495D02*
X0231937Y0359495D01*
X0231960Y0359458D02*
X0226640Y0359458D01*
X0226616Y0359420D02*
X0231984Y0359420D01*
X0232001Y0359382D02*
X0226599Y0359382D01*
X0226584Y0359344D02*
X0232016Y0359344D01*
X0232032Y0359306D02*
X0226568Y0359306D01*
X0226552Y0359268D02*
X0232048Y0359268D01*
X0232057Y0359230D02*
X0226543Y0359230D01*
X0226534Y0359192D02*
X0232066Y0359192D01*
X0232075Y0359155D02*
X0226525Y0359155D01*
X0226517Y0359117D02*
X0232083Y0359117D01*
X0232086Y0359079D02*
X0226517Y0359079D01*
X0226517Y0359041D02*
X0232089Y0359041D01*
X0140028Y0356800D02*
X0139979Y0357361D01*
X0139833Y0357904D01*
X0139596Y0358414D01*
X0139273Y0358875D01*
X0138875Y0359273D01*
X0138414Y0359596D01*
X0137904Y0359833D01*
X0137361Y0359979D01*
X0136800Y0360028D01*
X0136239Y0359979D01*
X0135696Y0359833D01*
X0135186Y0359596D01*
X0134725Y0359273D01*
X0134327Y0358875D01*
X0134004Y0358414D01*
X0133767Y0357904D01*
X0133621Y0357361D01*
X0133572Y0356800D01*
X0133621Y0356239D01*
X0133767Y0355696D01*
X0134004Y0355186D01*
X0134327Y0354725D01*
X0134725Y0354327D01*
X0135186Y0354004D01*
X0135696Y0353767D01*
X0136239Y0353621D01*
X0136800Y0353572D01*
X0137361Y0353621D01*
X0137904Y0353767D01*
X0138414Y0354004D01*
X0138875Y0354327D01*
X0139273Y0354725D01*
X0139596Y0355186D01*
X0139833Y0355696D01*
X0139979Y0356239D01*
X0140028Y0356800D01*
X0140028Y0356806D02*
X0133572Y0356806D01*
X0133576Y0356844D02*
X0140025Y0356844D01*
X0140021Y0356882D02*
X0133579Y0356882D01*
X0133582Y0356920D02*
X0140018Y0356920D01*
X0140015Y0356957D02*
X0133585Y0356957D01*
X0133589Y0356995D02*
X0140011Y0356995D01*
X0140008Y0357033D02*
X0133592Y0357033D01*
X0133595Y0357071D02*
X0140005Y0357071D01*
X0140001Y0357109D02*
X0133599Y0357109D01*
X0133602Y0357147D02*
X0139998Y0357147D01*
X0139995Y0357185D02*
X0133605Y0357185D01*
X0133609Y0357223D02*
X0139991Y0357223D01*
X0139988Y0357260D02*
X0133612Y0357260D01*
X0133615Y0357298D02*
X0139985Y0357298D01*
X0139981Y0357336D02*
X0133619Y0357336D01*
X0133624Y0357374D02*
X0139976Y0357374D01*
X0139965Y0357412D02*
X0133635Y0357412D01*
X0133645Y0357450D02*
X0139955Y0357450D01*
X0139945Y0357488D02*
X0133655Y0357488D01*
X0133665Y0357526D02*
X0139935Y0357526D01*
X0139925Y0357563D02*
X0133675Y0357563D01*
X0133685Y0357601D02*
X0139915Y0357601D01*
X0139904Y0357639D02*
X0133696Y0357639D01*
X0133706Y0357677D02*
X0139894Y0357677D01*
X0139884Y0357715D02*
X0133716Y0357715D01*
X0133726Y0357753D02*
X0139874Y0357753D01*
X0139864Y0357791D02*
X0133736Y0357791D01*
X0133746Y0357829D02*
X0139854Y0357829D01*
X0139844Y0357867D02*
X0133756Y0357867D01*
X0133767Y0357904D02*
X0139833Y0357904D01*
X0139816Y0357942D02*
X0133784Y0357942D01*
X0133802Y0357980D02*
X0139798Y0357980D01*
X0139780Y0358018D02*
X0133820Y0358018D01*
X0133837Y0358056D02*
X0139763Y0358056D01*
X0139745Y0358094D02*
X0133855Y0358094D01*
X0133873Y0358132D02*
X0139727Y0358132D01*
X0139710Y0358170D02*
X0133890Y0358170D01*
X0133908Y0358207D02*
X0139692Y0358207D01*
X0139674Y0358245D02*
X0133926Y0358245D01*
X0133943Y0358283D02*
X0139657Y0358283D01*
X0139639Y0358321D02*
X0133961Y0358321D01*
X0133979Y0358359D02*
X0139621Y0358359D01*
X0139604Y0358397D02*
X0133996Y0358397D01*
X0134019Y0358435D02*
X0139581Y0358435D01*
X0139555Y0358473D02*
X0134045Y0358473D01*
X0134072Y0358511D02*
X0139528Y0358511D01*
X0139502Y0358548D02*
X0134098Y0358548D01*
X0134125Y0358586D02*
X0139475Y0358586D01*
X0139449Y0358624D02*
X0134151Y0358624D01*
X0134178Y0358662D02*
X0139422Y0358662D01*
X0139396Y0358700D02*
X0134204Y0358700D01*
X0134231Y0358738D02*
X0139369Y0358738D01*
X0139343Y0358776D02*
X0134257Y0358776D01*
X0134284Y0358814D02*
X0139316Y0358814D01*
X0139290Y0358851D02*
X0134310Y0358851D01*
X0134341Y0358889D02*
X0139259Y0358889D01*
X0139221Y0358927D02*
X0134379Y0358927D01*
X0134417Y0358965D02*
X0139183Y0358965D01*
X0139145Y0359003D02*
X0134455Y0359003D01*
X0134492Y0359041D02*
X0139108Y0359041D01*
X0139070Y0359079D02*
X0134530Y0359079D01*
X0134568Y0359117D02*
X0139032Y0359117D01*
X0138994Y0359155D02*
X0134606Y0359155D01*
X0134644Y0359192D02*
X0138956Y0359192D01*
X0138918Y0359230D02*
X0134682Y0359230D01*
X0134720Y0359268D02*
X0138880Y0359268D01*
X0138828Y0359306D02*
X0134772Y0359306D01*
X0134826Y0359344D02*
X0138774Y0359344D01*
X0138720Y0359382D02*
X0134880Y0359382D01*
X0134934Y0359420D02*
X0138666Y0359420D01*
X0138612Y0359458D02*
X0134988Y0359458D01*
X0135043Y0359495D02*
X0138557Y0359495D01*
X0138503Y0359533D02*
X0135097Y0359533D01*
X0135151Y0359571D02*
X0138449Y0359571D01*
X0138385Y0359609D02*
X0135215Y0359609D01*
X0135296Y0359647D02*
X0138304Y0359647D01*
X0138223Y0359685D02*
X0135377Y0359685D01*
X0135458Y0359723D02*
X0138142Y0359723D01*
X0138061Y0359761D02*
X0135539Y0359761D01*
X0135621Y0359798D02*
X0137979Y0359798D01*
X0137894Y0359836D02*
X0135707Y0359836D01*
X0135848Y0359874D02*
X0137752Y0359874D01*
X0137611Y0359912D02*
X0135989Y0359912D01*
X0136131Y0359950D02*
X0137469Y0359950D01*
X0137261Y0359988D02*
X0136339Y0359988D01*
X0136771Y0360026D02*
X0136829Y0360026D01*
X0136800Y0363572D02*
X0137361Y0363621D01*
X0137904Y0363767D01*
X0138414Y0364004D01*
X0138875Y0364327D01*
X0139273Y0364725D01*
X0139596Y0365186D01*
X0139833Y0365696D01*
X0139979Y0366239D01*
X0140028Y0366800D01*
X0139979Y0367361D01*
X0139833Y0367904D01*
X0139596Y0368414D01*
X0139273Y0368875D01*
X0138875Y0369273D01*
X0138414Y0369596D01*
X0137904Y0369833D01*
X0137361Y0369979D01*
X0136800Y0370028D01*
X0136239Y0369979D01*
X0135696Y0369833D01*
X0135186Y0369596D01*
X0134725Y0369273D01*
X0134327Y0368875D01*
X0134004Y0368414D01*
X0133767Y0367904D01*
X0133621Y0367361D01*
X0133572Y0366800D01*
X0133621Y0366239D01*
X0133767Y0365696D01*
X0134004Y0365186D01*
X0134327Y0364725D01*
X0134725Y0364327D01*
X0135186Y0364004D01*
X0135696Y0363767D01*
X0136239Y0363621D01*
X0136800Y0363572D01*
X0136629Y0363587D02*
X0136971Y0363587D01*
X0137374Y0363625D02*
X0136226Y0363625D01*
X0136084Y0363662D02*
X0137516Y0363662D01*
X0137657Y0363700D02*
X0135943Y0363700D01*
X0135802Y0363738D02*
X0137798Y0363738D01*
X0137925Y0363776D02*
X0135675Y0363776D01*
X0135594Y0363814D02*
X0138006Y0363814D01*
X0138087Y0363852D02*
X0135513Y0363852D01*
X0135432Y0363890D02*
X0138168Y0363890D01*
X0138250Y0363928D02*
X0135350Y0363928D01*
X0135269Y0363965D02*
X0138331Y0363965D01*
X0138412Y0364003D02*
X0135188Y0364003D01*
X0135133Y0364041D02*
X0138467Y0364041D01*
X0138521Y0364079D02*
X0135079Y0364079D01*
X0135025Y0364117D02*
X0138575Y0364117D01*
X0138629Y0364155D02*
X0134971Y0364155D01*
X0134916Y0364193D02*
X0138684Y0364193D01*
X0138738Y0364231D02*
X0134862Y0364231D01*
X0134808Y0364268D02*
X0138792Y0364268D01*
X0138846Y0364306D02*
X0134754Y0364306D01*
X0134707Y0364344D02*
X0138893Y0364344D01*
X0138931Y0364382D02*
X0134669Y0364382D01*
X0134632Y0364420D02*
X0138968Y0364420D01*
X0139006Y0364458D02*
X0134594Y0364458D01*
X0134556Y0364496D02*
X0139044Y0364496D01*
X0139082Y0364534D02*
X0134518Y0364534D01*
X0134480Y0364572D02*
X0139120Y0364572D01*
X0139158Y0364609D02*
X0134442Y0364609D01*
X0134404Y0364647D02*
X0139196Y0364647D01*
X0139234Y0364685D02*
X0134366Y0364685D01*
X0134329Y0364723D02*
X0139271Y0364723D01*
X0139298Y0364761D02*
X0134301Y0364761D01*
X0134275Y0364799D02*
X0139325Y0364799D01*
X0139351Y0364837D02*
X0134248Y0364837D01*
X0134222Y0364875D02*
X0139378Y0364875D01*
X0139404Y0364912D02*
X0134196Y0364912D01*
X0134169Y0364950D02*
X0139431Y0364950D01*
X0139457Y0364988D02*
X0134143Y0364988D01*
X0134116Y0365026D02*
X0139484Y0365026D01*
X0139510Y0365064D02*
X0134090Y0365064D01*
X0134063Y0365102D02*
X0139537Y0365102D01*
X0139563Y0365140D02*
X0134037Y0365140D01*
X0134010Y0365178D02*
X0139590Y0365178D01*
X0139610Y0365216D02*
X0133990Y0365216D01*
X0133973Y0365253D02*
X0139627Y0365253D01*
X0139645Y0365291D02*
X0133955Y0365291D01*
X0133937Y0365329D02*
X0139663Y0365329D01*
X0139680Y0365367D02*
X0133920Y0365367D01*
X0133902Y0365405D02*
X0139698Y0365405D01*
X0139716Y0365443D02*
X0133884Y0365443D01*
X0133867Y0365481D02*
X0139733Y0365481D01*
X0139751Y0365519D02*
X0133849Y0365519D01*
X0133831Y0365556D02*
X0139769Y0365556D01*
X0139786Y0365594D02*
X0133814Y0365594D01*
X0133796Y0365632D02*
X0139804Y0365632D01*
X0139822Y0365670D02*
X0133778Y0365670D01*
X0133763Y0365708D02*
X0139837Y0365708D01*
X0139847Y0365746D02*
X0133753Y0365746D01*
X0133743Y0365784D02*
X0139857Y0365784D01*
X0139867Y0365822D02*
X0133733Y0365822D01*
X0133723Y0365860D02*
X0139877Y0365860D01*
X0139888Y0365897D02*
X0133712Y0365897D01*
X0133702Y0365935D02*
X0139898Y0365935D01*
X0139908Y0365973D02*
X0133692Y0365973D01*
X0133682Y0366011D02*
X0139918Y0366011D01*
X0139928Y0366049D02*
X0133672Y0366049D01*
X0133662Y0366087D02*
X0139938Y0366087D01*
X0139948Y0366125D02*
X0133652Y0366125D01*
X0133641Y0366163D02*
X0139959Y0366163D01*
X0139969Y0366200D02*
X0133631Y0366200D01*
X0133621Y0366238D02*
X0139979Y0366238D01*
X0139982Y0366276D02*
X0133618Y0366276D01*
X0133614Y0366314D02*
X0139986Y0366314D01*
X0139989Y0366352D02*
X0133611Y0366352D01*
X0133608Y0366390D02*
X0139992Y0366390D01*
X0139996Y0366428D02*
X0133604Y0366428D01*
X0133601Y0366466D02*
X0139999Y0366466D01*
X0140002Y0366503D02*
X0133598Y0366503D01*
X0133594Y0366541D02*
X0140006Y0366541D01*
X0140009Y0366579D02*
X0133591Y0366579D01*
X0133588Y0366617D02*
X0140012Y0366617D01*
X0140016Y0366655D02*
X0133584Y0366655D01*
X0133581Y0366693D02*
X0140019Y0366693D01*
X0140022Y0366731D02*
X0133578Y0366731D01*
X0133574Y0366769D02*
X0140026Y0366769D01*
X0140028Y0366807D02*
X0133572Y0366807D01*
X0133576Y0366844D02*
X0140024Y0366844D01*
X0140021Y0366882D02*
X0133579Y0366882D01*
X0133582Y0366920D02*
X0140018Y0366920D01*
X0140014Y0366958D02*
X0133586Y0366958D01*
X0133589Y0366996D02*
X0140011Y0366996D01*
X0140008Y0367034D02*
X0133592Y0367034D01*
X0133596Y0367072D02*
X0140005Y0367072D01*
X0140001Y0367110D02*
X0133599Y0367110D01*
X0133602Y0367147D02*
X0139998Y0367147D01*
X0139995Y0367185D02*
X0133605Y0367185D01*
X0133609Y0367223D02*
X0139991Y0367223D01*
X0139988Y0367261D02*
X0133612Y0367261D01*
X0133615Y0367299D02*
X0139985Y0367299D01*
X0139981Y0367337D02*
X0133619Y0367337D01*
X0133625Y0367375D02*
X0139975Y0367375D01*
X0139965Y0367413D02*
X0133635Y0367413D01*
X0133645Y0367451D02*
X0139955Y0367451D01*
X0139945Y0367488D02*
X0133655Y0367488D01*
X0133665Y0367526D02*
X0139935Y0367526D01*
X0139925Y0367564D02*
X0133675Y0367564D01*
X0133686Y0367602D02*
X0139914Y0367602D01*
X0139904Y0367640D02*
X0133696Y0367640D01*
X0133706Y0367678D02*
X0139894Y0367678D01*
X0139884Y0367716D02*
X0133716Y0367716D01*
X0133726Y0367754D02*
X0139874Y0367754D01*
X0139864Y0367791D02*
X0133736Y0367791D01*
X0133746Y0367829D02*
X0139854Y0367829D01*
X0139843Y0367867D02*
X0133757Y0367867D01*
X0133767Y0367905D02*
X0139833Y0367905D01*
X0139815Y0367943D02*
X0133785Y0367943D01*
X0133802Y0367981D02*
X0139798Y0367981D01*
X0139780Y0368019D02*
X0133820Y0368019D01*
X0133838Y0368057D02*
X0139762Y0368057D01*
X0139745Y0368095D02*
X0133855Y0368095D01*
X0133873Y0368132D02*
X0139727Y0368132D01*
X0139709Y0368170D02*
X0133891Y0368170D01*
X0133908Y0368208D02*
X0139692Y0368208D01*
X0139674Y0368246D02*
X0133926Y0368246D01*
X0133944Y0368284D02*
X0139656Y0368284D01*
X0139639Y0368322D02*
X0133961Y0368322D01*
X0133979Y0368360D02*
X0139621Y0368360D01*
X0139603Y0368398D02*
X0133997Y0368398D01*
X0134019Y0368435D02*
X0139581Y0368435D01*
X0139554Y0368473D02*
X0134046Y0368473D01*
X0134072Y0368511D02*
X0139528Y0368511D01*
X0139501Y0368549D02*
X0134099Y0368549D01*
X0134125Y0368587D02*
X0139475Y0368587D01*
X0139448Y0368625D02*
X0134152Y0368625D01*
X0134178Y0368663D02*
X0139422Y0368663D01*
X0139395Y0368701D02*
X0134205Y0368701D01*
X0134231Y0368738D02*
X0139369Y0368738D01*
X0139342Y0368776D02*
X0134258Y0368776D01*
X0134284Y0368814D02*
X0139316Y0368814D01*
X0139289Y0368852D02*
X0134311Y0368852D01*
X0134342Y0368890D02*
X0139258Y0368890D01*
X0139221Y0368928D02*
X0134379Y0368928D01*
X0134417Y0368966D02*
X0139183Y0368966D01*
X0139145Y0369004D02*
X0134455Y0369004D01*
X0134493Y0369042D02*
X0139107Y0369042D01*
X0139069Y0369079D02*
X0134531Y0369079D01*
X0134569Y0369117D02*
X0139031Y0369117D01*
X0138993Y0369155D02*
X0134607Y0369155D01*
X0134645Y0369193D02*
X0138955Y0369193D01*
X0138917Y0369231D02*
X0134683Y0369231D01*
X0134720Y0369269D02*
X0138880Y0369269D01*
X0138827Y0369307D02*
X0134773Y0369307D01*
X0134827Y0369345D02*
X0138773Y0369345D01*
X0138719Y0369382D02*
X0134881Y0369382D01*
X0134935Y0369420D02*
X0138665Y0369420D01*
X0138611Y0369458D02*
X0134989Y0369458D01*
X0135044Y0369496D02*
X0138557Y0369496D01*
X0138502Y0369534D02*
X0135098Y0369534D01*
X0135152Y0369572D02*
X0138448Y0369572D01*
X0138384Y0369610D02*
X0135216Y0369610D01*
X0135297Y0369648D02*
X0138303Y0369648D01*
X0138222Y0369686D02*
X0135379Y0369686D01*
X0135460Y0369723D02*
X0138140Y0369723D01*
X0138059Y0369761D02*
X0135541Y0369761D01*
X0135622Y0369799D02*
X0137978Y0369799D01*
X0137891Y0369837D02*
X0135709Y0369837D01*
X0135850Y0369875D02*
X0137750Y0369875D01*
X0137608Y0369913D02*
X0135992Y0369913D01*
X0136133Y0369951D02*
X0137467Y0369951D01*
X0137253Y0369989D02*
X0136347Y0369989D01*
X0136779Y0370026D02*
X0136821Y0370026D01*
X0136800Y0373572D02*
X0137361Y0373621D01*
X0137904Y0373767D01*
X0138414Y0374004D01*
X0138875Y0374327D01*
X0139273Y0374725D01*
X0139596Y0375186D01*
X0139833Y0375696D01*
X0139979Y0376239D01*
X0133621Y0376239D01*
X0133767Y0375696D01*
X0134004Y0375186D01*
X0134327Y0374725D01*
X0134725Y0374327D01*
X0135186Y0374004D01*
X0135696Y0373767D01*
X0136239Y0373621D01*
X0136800Y0373572D01*
X0136622Y0373587D02*
X0136978Y0373587D01*
X0137377Y0373625D02*
X0136223Y0373625D01*
X0136082Y0373663D02*
X0137518Y0373663D01*
X0137660Y0373701D02*
X0135940Y0373701D01*
X0135799Y0373739D02*
X0137801Y0373739D01*
X0137926Y0373777D02*
X0135674Y0373777D01*
X0135593Y0373815D02*
X0138007Y0373815D01*
X0138089Y0373852D02*
X0135511Y0373852D01*
X0135430Y0373890D02*
X0138170Y0373890D01*
X0138251Y0373928D02*
X0135349Y0373928D01*
X0135268Y0373966D02*
X0138332Y0373966D01*
X0138413Y0374004D02*
X0135187Y0374004D01*
X0135132Y0374042D02*
X0138468Y0374042D01*
X0138522Y0374080D02*
X0135078Y0374080D01*
X0135024Y0374118D02*
X0138576Y0374118D01*
X0138630Y0374156D02*
X0134970Y0374156D01*
X0134915Y0374193D02*
X0138685Y0374193D01*
X0138739Y0374231D02*
X0134861Y0374231D01*
X0134807Y0374269D02*
X0138793Y0374269D01*
X0138847Y0374307D02*
X0134753Y0374307D01*
X0134707Y0374345D02*
X0138893Y0374345D01*
X0138931Y0374383D02*
X0134669Y0374383D01*
X0134631Y0374421D02*
X0138969Y0374421D01*
X0139007Y0374459D02*
X0134593Y0374459D01*
X0134555Y0374496D02*
X0139045Y0374496D01*
X0139083Y0374534D02*
X0134517Y0374534D01*
X0134479Y0374572D02*
X0139121Y0374572D01*
X0139159Y0374610D02*
X0134441Y0374610D01*
X0134404Y0374648D02*
X0139196Y0374648D01*
X0139234Y0374686D02*
X0134366Y0374686D01*
X0134328Y0374724D02*
X0139272Y0374724D01*
X0139299Y0374762D02*
X0134301Y0374762D01*
X0134275Y0374800D02*
X0139325Y0374800D01*
X0139352Y0374837D02*
X0134248Y0374837D01*
X0134222Y0374875D02*
X0139378Y0374875D01*
X0139405Y0374913D02*
X0134195Y0374913D01*
X0134169Y0374951D02*
X0139431Y0374951D01*
X0139458Y0374989D02*
X0134142Y0374989D01*
X0134116Y0375027D02*
X0139484Y0375027D01*
X0139511Y0375065D02*
X0134089Y0375065D01*
X0134063Y0375103D02*
X0139537Y0375103D01*
X0139564Y0375140D02*
X0134036Y0375140D01*
X0134010Y0375178D02*
X0139590Y0375178D01*
X0139610Y0375216D02*
X0133990Y0375216D01*
X0133972Y0375254D02*
X0139628Y0375254D01*
X0139645Y0375292D02*
X0133955Y0375292D01*
X0133937Y0375330D02*
X0139663Y0375330D01*
X0139681Y0375368D02*
X0133919Y0375368D01*
X0133902Y0375406D02*
X0139698Y0375406D01*
X0139716Y0375444D02*
X0133884Y0375444D01*
X0133866Y0375481D02*
X0139734Y0375481D01*
X0139751Y0375519D02*
X0133849Y0375519D01*
X0133831Y0375557D02*
X0139769Y0375557D01*
X0139787Y0375595D02*
X0133813Y0375595D01*
X0133796Y0375633D02*
X0139804Y0375633D01*
X0139822Y0375671D02*
X0133778Y0375671D01*
X0133763Y0375709D02*
X0139837Y0375709D01*
X0139847Y0375747D02*
X0133753Y0375747D01*
X0133743Y0375784D02*
X0139857Y0375784D01*
X0139867Y0375822D02*
X0133733Y0375822D01*
X0133722Y0375860D02*
X0139878Y0375860D01*
X0139888Y0375898D02*
X0133712Y0375898D01*
X0133702Y0375936D02*
X0139898Y0375936D01*
X0139908Y0375974D02*
X0133692Y0375974D01*
X0133682Y0376012D02*
X0139918Y0376012D01*
X0139928Y0376050D02*
X0133672Y0376050D01*
X0133662Y0376087D02*
X0139938Y0376087D01*
X0139949Y0376125D02*
X0133651Y0376125D01*
X0133641Y0376163D02*
X0139959Y0376163D01*
X0139969Y0376201D02*
X0133631Y0376201D01*
X0133621Y0376239D02*
X0133572Y0376800D01*
X0133621Y0377361D01*
X0133767Y0377904D01*
X0134004Y0378414D01*
X0134327Y0378875D01*
X0134725Y0379273D01*
X0135186Y0379596D01*
X0135696Y0379833D01*
X0136239Y0379979D01*
X0136800Y0380028D01*
X0137361Y0379979D01*
X0137904Y0379833D01*
X0138414Y0379596D01*
X0138875Y0379273D01*
X0139273Y0378875D01*
X0139596Y0378414D01*
X0139833Y0377904D01*
X0139979Y0377361D01*
X0140028Y0376800D01*
X0139979Y0376239D01*
X0139982Y0376277D02*
X0133618Y0376277D01*
X0133614Y0376315D02*
X0139986Y0376315D01*
X0139989Y0376353D02*
X0133611Y0376353D01*
X0133608Y0376391D02*
X0139992Y0376391D01*
X0139996Y0376428D02*
X0133604Y0376428D01*
X0133601Y0376466D02*
X0139999Y0376466D01*
X0140002Y0376504D02*
X0133598Y0376504D01*
X0133594Y0376542D02*
X0140006Y0376542D01*
X0140009Y0376580D02*
X0133591Y0376580D01*
X0133588Y0376618D02*
X0140012Y0376618D01*
X0140016Y0376656D02*
X0133584Y0376656D01*
X0133581Y0376694D02*
X0140019Y0376694D01*
X0140022Y0376731D02*
X0133578Y0376731D01*
X0133574Y0376769D02*
X0140026Y0376769D01*
X0140028Y0376807D02*
X0133572Y0376807D01*
X0133576Y0376845D02*
X0140024Y0376845D01*
X0140021Y0376883D02*
X0133579Y0376883D01*
X0133582Y0376921D02*
X0140018Y0376921D01*
X0140014Y0376959D02*
X0133586Y0376959D01*
X0133589Y0376997D02*
X0140011Y0376997D01*
X0140008Y0377035D02*
X0133592Y0377035D01*
X0133596Y0377072D02*
X0140004Y0377072D01*
X0140001Y0377110D02*
X0133599Y0377110D01*
X0133602Y0377148D02*
X0139998Y0377148D01*
X0139994Y0377186D02*
X0133606Y0377186D01*
X0133609Y0377224D02*
X0139991Y0377224D01*
X0139988Y0377262D02*
X0133612Y0377262D01*
X0133616Y0377300D02*
X0139984Y0377300D01*
X0139981Y0377338D02*
X0133619Y0377338D01*
X0133625Y0377375D02*
X0139975Y0377375D01*
X0139965Y0377413D02*
X0133635Y0377413D01*
X0133645Y0377451D02*
X0139955Y0377451D01*
X0139945Y0377489D02*
X0133655Y0377489D01*
X0133665Y0377527D02*
X0139935Y0377527D01*
X0139924Y0377565D02*
X0133676Y0377565D01*
X0133686Y0377603D02*
X0139914Y0377603D01*
X0139904Y0377641D02*
X0133696Y0377641D01*
X0133706Y0377679D02*
X0139894Y0377679D01*
X0139884Y0377716D02*
X0133716Y0377716D01*
X0133726Y0377754D02*
X0139874Y0377754D01*
X0139864Y0377792D02*
X0133736Y0377792D01*
X0133747Y0377830D02*
X0139853Y0377830D01*
X0139843Y0377868D02*
X0133757Y0377868D01*
X0133767Y0377906D02*
X0139833Y0377906D01*
X0139815Y0377944D02*
X0133785Y0377944D01*
X0133803Y0377982D02*
X0139797Y0377982D01*
X0139780Y0378019D02*
X0133820Y0378019D01*
X0133838Y0378057D02*
X0139762Y0378057D01*
X0139744Y0378095D02*
X0133856Y0378095D01*
X0133873Y0378133D02*
X0139727Y0378133D01*
X0139709Y0378171D02*
X0133891Y0378171D01*
X0133909Y0378209D02*
X0139691Y0378209D01*
X0139674Y0378247D02*
X0133926Y0378247D01*
X0133944Y0378285D02*
X0139656Y0378285D01*
X0139638Y0378322D02*
X0133962Y0378322D01*
X0133979Y0378360D02*
X0139621Y0378360D01*
X0139603Y0378398D02*
X0133997Y0378398D01*
X0134020Y0378436D02*
X0139580Y0378436D01*
X0139554Y0378474D02*
X0134046Y0378474D01*
X0134073Y0378512D02*
X0139527Y0378512D01*
X0139501Y0378550D02*
X0134099Y0378550D01*
X0134126Y0378588D02*
X0139474Y0378588D01*
X0139448Y0378626D02*
X0134152Y0378626D01*
X0134179Y0378663D02*
X0139421Y0378663D01*
X0139395Y0378701D02*
X0134205Y0378701D01*
X0134232Y0378739D02*
X0139368Y0378739D01*
X0139342Y0378777D02*
X0134258Y0378777D01*
X0134285Y0378815D02*
X0139315Y0378815D01*
X0139289Y0378853D02*
X0134311Y0378853D01*
X0134342Y0378891D02*
X0139258Y0378891D01*
X0139220Y0378929D02*
X0134380Y0378929D01*
X0134418Y0378966D02*
X0139182Y0378966D01*
X0139144Y0379004D02*
X0134456Y0379004D01*
X0134494Y0379042D02*
X0139106Y0379042D01*
X0139068Y0379080D02*
X0134532Y0379080D01*
X0134570Y0379118D02*
X0139030Y0379118D01*
X0138993Y0379156D02*
X0134607Y0379156D01*
X0134645Y0379194D02*
X0138955Y0379194D01*
X0138917Y0379232D02*
X0134683Y0379232D01*
X0134721Y0379270D02*
X0138879Y0379270D01*
X0138826Y0379307D02*
X0134774Y0379307D01*
X0134828Y0379345D02*
X0138772Y0379345D01*
X0138718Y0379383D02*
X0134882Y0379383D01*
X0134936Y0379421D02*
X0138664Y0379421D01*
X0138610Y0379459D02*
X0134990Y0379459D01*
X0135044Y0379497D02*
X0138556Y0379497D01*
X0138501Y0379535D02*
X0135099Y0379535D01*
X0135153Y0379573D02*
X0138447Y0379573D01*
X0138382Y0379610D02*
X0135218Y0379610D01*
X0135299Y0379648D02*
X0138301Y0379648D01*
X0138220Y0379686D02*
X0135380Y0379686D01*
X0135461Y0379724D02*
X0138139Y0379724D01*
X0138058Y0379762D02*
X0135542Y0379762D01*
X0135624Y0379800D02*
X0137976Y0379800D01*
X0137888Y0379838D02*
X0135712Y0379838D01*
X0135853Y0379876D02*
X0137747Y0379876D01*
X0137606Y0379914D02*
X0135994Y0379914D01*
X0136136Y0379951D02*
X0137464Y0379951D01*
X0137245Y0379989D02*
X0136355Y0379989D01*
X0136786Y0380027D02*
X0136814Y0380027D01*
X0136800Y0383572D02*
X0137361Y0383621D01*
X0137904Y0383767D01*
X0138414Y0384004D01*
X0138875Y0384327D01*
X0139273Y0384725D01*
X0139596Y0385186D01*
X0139833Y0385696D01*
X0139979Y0386239D01*
X0140028Y0386800D01*
X0139979Y0387361D01*
X0139833Y0387904D01*
X0139596Y0388414D01*
X0139273Y0388875D01*
X0138875Y0389273D01*
X0138414Y0389596D01*
X0137904Y0389833D01*
X0137361Y0389979D01*
X0136800Y0390028D01*
X0136239Y0389979D01*
X0135696Y0389833D01*
X0135186Y0389596D01*
X0134725Y0389273D01*
X0134327Y0388875D01*
X0134004Y0388414D01*
X0133767Y0387904D01*
X0133621Y0387361D01*
X0133572Y0386800D01*
X0133621Y0386239D01*
X0133767Y0385696D01*
X0134004Y0385186D01*
X0134327Y0384725D01*
X0134725Y0384327D01*
X0135186Y0384004D01*
X0135696Y0383767D01*
X0136239Y0383621D01*
X0136800Y0383572D01*
X0136614Y0383588D02*
X0136986Y0383588D01*
X0137379Y0383626D02*
X0136221Y0383626D01*
X0136079Y0383664D02*
X0137521Y0383664D01*
X0137662Y0383702D02*
X0135938Y0383702D01*
X0135796Y0383740D02*
X0137804Y0383740D01*
X0137928Y0383777D02*
X0135672Y0383777D01*
X0135591Y0383815D02*
X0138009Y0383815D01*
X0138090Y0383853D02*
X0135510Y0383853D01*
X0135429Y0383891D02*
X0138171Y0383891D01*
X0138253Y0383929D02*
X0135347Y0383929D01*
X0135266Y0383967D02*
X0138334Y0383967D01*
X0138415Y0384005D02*
X0135185Y0384005D01*
X0135131Y0384043D02*
X0138469Y0384043D01*
X0138523Y0384080D02*
X0135077Y0384080D01*
X0135023Y0384118D02*
X0138577Y0384118D01*
X0138631Y0384156D02*
X0134969Y0384156D01*
X0134914Y0384194D02*
X0138686Y0384194D01*
X0138740Y0384232D02*
X0134860Y0384232D01*
X0134806Y0384270D02*
X0138794Y0384270D01*
X0138848Y0384308D02*
X0134752Y0384308D01*
X0134706Y0384346D02*
X0138894Y0384346D01*
X0138932Y0384384D02*
X0134668Y0384384D01*
X0134630Y0384421D02*
X0138970Y0384421D01*
X0139008Y0384459D02*
X0134592Y0384459D01*
X0134554Y0384497D02*
X0139046Y0384497D01*
X0139083Y0384535D02*
X0134517Y0384535D01*
X0134479Y0384573D02*
X0139121Y0384573D01*
X0139159Y0384611D02*
X0134441Y0384611D01*
X0134403Y0384649D02*
X0139197Y0384649D01*
X0139235Y0384687D02*
X0134365Y0384687D01*
X0134327Y0384724D02*
X0139273Y0384724D01*
X0139299Y0384762D02*
X0134301Y0384762D01*
X0134274Y0384800D02*
X0139326Y0384800D01*
X0139352Y0384838D02*
X0134248Y0384838D01*
X0134221Y0384876D02*
X0139379Y0384876D01*
X0139405Y0384914D02*
X0134195Y0384914D01*
X0134168Y0384952D02*
X0139432Y0384952D01*
X0139458Y0384990D02*
X0134142Y0384990D01*
X0134115Y0385027D02*
X0139485Y0385027D01*
X0139511Y0385065D02*
X0134089Y0385065D01*
X0134062Y0385103D02*
X0139538Y0385103D01*
X0139564Y0385141D02*
X0134036Y0385141D01*
X0134009Y0385179D02*
X0139591Y0385179D01*
X0139610Y0385217D02*
X0133990Y0385217D01*
X0133972Y0385255D02*
X0139628Y0385255D01*
X0139645Y0385293D02*
X0133954Y0385293D01*
X0133937Y0385331D02*
X0139663Y0385331D01*
X0139681Y0385368D02*
X0133919Y0385368D01*
X0133901Y0385406D02*
X0139698Y0385406D01*
X0139716Y0385444D02*
X0133884Y0385444D01*
X0133866Y0385482D02*
X0139734Y0385482D01*
X0139752Y0385520D02*
X0133848Y0385520D01*
X0133831Y0385558D02*
X0139769Y0385558D01*
X0139787Y0385596D02*
X0133813Y0385596D01*
X0133795Y0385634D02*
X0139805Y0385634D01*
X0139822Y0385671D02*
X0133778Y0385671D01*
X0133763Y0385709D02*
X0139837Y0385709D01*
X0139847Y0385747D02*
X0133753Y0385747D01*
X0133743Y0385785D02*
X0139857Y0385785D01*
X0139868Y0385823D02*
X0133732Y0385823D01*
X0133722Y0385861D02*
X0139878Y0385861D01*
X0139888Y0385899D02*
X0133712Y0385899D01*
X0133702Y0385937D02*
X0139898Y0385937D01*
X0139908Y0385975D02*
X0133692Y0385975D01*
X0133682Y0386012D02*
X0139918Y0386012D01*
X0139928Y0386050D02*
X0133672Y0386050D01*
X0133661Y0386088D02*
X0139939Y0386088D01*
X0139949Y0386126D02*
X0133651Y0386126D01*
X0133641Y0386164D02*
X0139959Y0386164D01*
X0139969Y0386202D02*
X0133631Y0386202D01*
X0133621Y0386240D02*
X0139979Y0386240D01*
X0139982Y0386278D02*
X0133618Y0386278D01*
X0133614Y0386315D02*
X0139986Y0386315D01*
X0139989Y0386353D02*
X0133611Y0386353D01*
X0133608Y0386391D02*
X0139992Y0386391D01*
X0139996Y0386429D02*
X0133604Y0386429D01*
X0133601Y0386467D02*
X0139999Y0386467D01*
X0140002Y0386505D02*
X0133598Y0386505D01*
X0133594Y0386543D02*
X0140006Y0386543D01*
X0140009Y0386581D02*
X0133591Y0386581D01*
X0133588Y0386619D02*
X0140012Y0386619D01*
X0140016Y0386656D02*
X0133584Y0386656D01*
X0133581Y0386694D02*
X0140019Y0386694D01*
X0140022Y0386732D02*
X0133578Y0386732D01*
X0133574Y0386770D02*
X0140026Y0386770D01*
X0140028Y0386808D02*
X0133572Y0386808D01*
X0133576Y0386846D02*
X0140024Y0386846D01*
X0140021Y0386884D02*
X0133579Y0386884D01*
X0133582Y0386922D02*
X0140018Y0386922D01*
X0140014Y0386959D02*
X0133586Y0386959D01*
X0133589Y0386997D02*
X0140011Y0386997D01*
X0140008Y0387035D02*
X0133592Y0387035D01*
X0133596Y0387073D02*
X0140004Y0387073D01*
X0140001Y0387111D02*
X0133599Y0387111D01*
X0133602Y0387149D02*
X0139998Y0387149D01*
X0139994Y0387187D02*
X0133606Y0387187D01*
X0133609Y0387225D02*
X0139991Y0387225D01*
X0139988Y0387262D02*
X0133612Y0387262D01*
X0133616Y0387300D02*
X0139984Y0387300D01*
X0139981Y0387338D02*
X0133619Y0387338D01*
X0133625Y0387376D02*
X0139975Y0387376D01*
X0139965Y0387414D02*
X0133635Y0387414D01*
X0133645Y0387452D02*
X0139955Y0387452D01*
X0139945Y0387490D02*
X0133655Y0387490D01*
X0133666Y0387528D02*
X0139934Y0387528D01*
X0139924Y0387566D02*
X0133676Y0387566D01*
X0133686Y0387603D02*
X0139914Y0387603D01*
X0139904Y0387641D02*
X0133696Y0387641D01*
X0133706Y0387679D02*
X0139894Y0387679D01*
X0139884Y0387717D02*
X0133716Y0387717D01*
X0133727Y0387755D02*
X0139873Y0387755D01*
X0139863Y0387793D02*
X0133737Y0387793D01*
X0133747Y0387831D02*
X0139853Y0387831D01*
X0139843Y0387869D02*
X0133757Y0387869D01*
X0133768Y0387906D02*
X0139832Y0387906D01*
X0139815Y0387944D02*
X0133785Y0387944D01*
X0133803Y0387982D02*
X0139797Y0387982D01*
X0139779Y0388020D02*
X0133821Y0388020D01*
X0133838Y0388058D02*
X0139762Y0388058D01*
X0139744Y0388096D02*
X0133856Y0388096D01*
X0133874Y0388134D02*
X0139726Y0388134D01*
X0139709Y0388172D02*
X0133891Y0388172D01*
X0133909Y0388210D02*
X0139691Y0388210D01*
X0139673Y0388247D02*
X0133927Y0388247D01*
X0133944Y0388285D02*
X0139656Y0388285D01*
X0139638Y0388323D02*
X0133962Y0388323D01*
X0133980Y0388361D02*
X0139620Y0388361D01*
X0139603Y0388399D02*
X0133997Y0388399D01*
X0134020Y0388437D02*
X0139580Y0388437D01*
X0139553Y0388475D02*
X0134047Y0388475D01*
X0134073Y0388513D02*
X0139527Y0388513D01*
X0139500Y0388550D02*
X0134100Y0388550D01*
X0134126Y0388588D02*
X0139474Y0388588D01*
X0139447Y0388626D02*
X0134153Y0388626D01*
X0134179Y0388664D02*
X0139421Y0388664D01*
X0139394Y0388702D02*
X0134206Y0388702D01*
X0134232Y0388740D02*
X0139368Y0388740D01*
X0139341Y0388778D02*
X0134259Y0388778D01*
X0134285Y0388816D02*
X0139315Y0388816D01*
X0139288Y0388854D02*
X0134312Y0388854D01*
X0134343Y0388891D02*
X0139257Y0388891D01*
X0139219Y0388929D02*
X0134381Y0388929D01*
X0134419Y0388967D02*
X0139181Y0388967D01*
X0139143Y0389005D02*
X0134457Y0389005D01*
X0134495Y0389043D02*
X0139105Y0389043D01*
X0139068Y0389081D02*
X0134532Y0389081D01*
X0134570Y0389119D02*
X0139030Y0389119D01*
X0138992Y0389157D02*
X0134608Y0389157D01*
X0134646Y0389194D02*
X0138954Y0389194D01*
X0138916Y0389232D02*
X0134684Y0389232D01*
X0134722Y0389270D02*
X0138878Y0389270D01*
X0138825Y0389308D02*
X0134775Y0389308D01*
X0134829Y0389346D02*
X0138771Y0389346D01*
X0138717Y0389384D02*
X0134883Y0389384D01*
X0134937Y0389422D02*
X0138663Y0389422D01*
X0138609Y0389460D02*
X0134991Y0389460D01*
X0135045Y0389498D02*
X0138555Y0389498D01*
X0138500Y0389535D02*
X0135100Y0389535D01*
X0135154Y0389573D02*
X0138446Y0389573D01*
X0138381Y0389611D02*
X0135219Y0389611D01*
X0135300Y0389649D02*
X0138300Y0389649D01*
X0138219Y0389687D02*
X0135381Y0389687D01*
X0135463Y0389725D02*
X0138137Y0389725D01*
X0138056Y0389763D02*
X0135544Y0389763D01*
X0135625Y0389801D02*
X0137975Y0389801D01*
X0137886Y0389838D02*
X0135714Y0389838D01*
X0135856Y0389876D02*
X0137744Y0389876D01*
X0137603Y0389914D02*
X0135997Y0389914D01*
X0136138Y0389952D02*
X0137462Y0389952D01*
X0137237Y0389990D02*
X0136363Y0389990D01*
X0136794Y0390028D02*
X0136806Y0390028D01*
X0136800Y0393572D02*
X0137361Y0393621D01*
X0137904Y0393767D01*
X0138414Y0394004D01*
X0138875Y0394327D01*
X0139273Y0394725D01*
X0139596Y0395186D01*
X0139833Y0395696D01*
X0139979Y0396239D01*
X0140028Y0396800D01*
X0139979Y0397361D01*
X0139833Y0397904D01*
X0139596Y0398414D01*
X0139273Y0398875D01*
X0138875Y0399273D01*
X0138414Y0399596D01*
X0137904Y0399833D01*
X0137361Y0399979D01*
X0136800Y0400028D01*
X0136239Y0399979D01*
X0135696Y0399833D01*
X0135186Y0399596D01*
X0134725Y0399273D01*
X0134327Y0398875D01*
X0134004Y0398414D01*
X0133767Y0397904D01*
X0133621Y0397361D01*
X0133572Y0396800D01*
X0133621Y0396239D01*
X0133767Y0395696D01*
X0134004Y0395186D01*
X0134327Y0394725D01*
X0134725Y0394327D01*
X0135186Y0394004D01*
X0135696Y0393767D01*
X0136239Y0393621D01*
X0136800Y0393572D01*
X0136606Y0393589D02*
X0136994Y0393589D01*
X0137382Y0393627D02*
X0136218Y0393627D01*
X0136077Y0393664D02*
X0137523Y0393664D01*
X0137665Y0393702D02*
X0135935Y0393702D01*
X0135794Y0393740D02*
X0137806Y0393740D01*
X0137929Y0393778D02*
X0135671Y0393778D01*
X0135590Y0393816D02*
X0138010Y0393816D01*
X0138092Y0393854D02*
X0135508Y0393854D01*
X0135427Y0393892D02*
X0138173Y0393892D01*
X0138254Y0393930D02*
X0135346Y0393930D01*
X0135265Y0393968D02*
X0138335Y0393968D01*
X0138416Y0394005D02*
X0135184Y0394005D01*
X0135130Y0394043D02*
X0138470Y0394043D01*
X0138524Y0394081D02*
X0135076Y0394081D01*
X0135022Y0394119D02*
X0138578Y0394119D01*
X0138632Y0394157D02*
X0134968Y0394157D01*
X0134913Y0394195D02*
X0138686Y0394195D01*
X0138741Y0394233D02*
X0134859Y0394233D01*
X0134805Y0394271D02*
X0138795Y0394271D01*
X0138849Y0394308D02*
X0134751Y0394308D01*
X0134705Y0394346D02*
X0138895Y0394346D01*
X0138933Y0394384D02*
X0134667Y0394384D01*
X0134629Y0394422D02*
X0138971Y0394422D01*
X0139008Y0394460D02*
X0134592Y0394460D01*
X0134554Y0394498D02*
X0139046Y0394498D01*
X0139084Y0394536D02*
X0134516Y0394536D01*
X0134478Y0394574D02*
X0139122Y0394574D01*
X0139160Y0394611D02*
X0134440Y0394611D01*
X0134402Y0394649D02*
X0139198Y0394649D01*
X0139236Y0394687D02*
X0134364Y0394687D01*
X0134327Y0394725D02*
X0139273Y0394725D01*
X0139300Y0394763D02*
X0134300Y0394763D01*
X0134274Y0394801D02*
X0139326Y0394801D01*
X0139353Y0394839D02*
X0134247Y0394839D01*
X0134221Y0394877D02*
X0139379Y0394877D01*
X0139406Y0394915D02*
X0134194Y0394915D01*
X0134168Y0394952D02*
X0139432Y0394952D01*
X0139459Y0394990D02*
X0134141Y0394990D01*
X0134115Y0395028D02*
X0139485Y0395028D01*
X0139512Y0395066D02*
X0134088Y0395066D01*
X0134062Y0395104D02*
X0139538Y0395104D01*
X0139565Y0395142D02*
X0134035Y0395142D01*
X0134009Y0395180D02*
X0139591Y0395180D01*
X0139610Y0395218D02*
X0133990Y0395218D01*
X0133972Y0395255D02*
X0139628Y0395255D01*
X0139646Y0395293D02*
X0133954Y0395293D01*
X0133937Y0395331D02*
X0139663Y0395331D01*
X0139681Y0395369D02*
X0133919Y0395369D01*
X0133901Y0395407D02*
X0139699Y0395407D01*
X0139716Y0395445D02*
X0133884Y0395445D01*
X0133866Y0395483D02*
X0139734Y0395483D01*
X0139752Y0395521D02*
X0133848Y0395521D01*
X0133830Y0395559D02*
X0139769Y0395559D01*
X0139787Y0395596D02*
X0133813Y0395596D01*
X0133795Y0395634D02*
X0139805Y0395634D01*
X0139823Y0395672D02*
X0133777Y0395672D01*
X0133763Y0395710D02*
X0139837Y0395710D01*
X0139847Y0395748D02*
X0133753Y0395748D01*
X0133742Y0395786D02*
X0139858Y0395786D01*
X0139868Y0395824D02*
X0133732Y0395824D01*
X0133722Y0395862D02*
X0139878Y0395862D01*
X0139888Y0395899D02*
X0133712Y0395899D01*
X0133702Y0395937D02*
X0139898Y0395937D01*
X0139908Y0395975D02*
X0133692Y0395975D01*
X0133681Y0396013D02*
X0139919Y0396013D01*
X0139929Y0396051D02*
X0133671Y0396051D01*
X0133661Y0396089D02*
X0139939Y0396089D01*
X0139949Y0396127D02*
X0133651Y0396127D01*
X0133641Y0396165D02*
X0139959Y0396165D01*
X0139969Y0396203D02*
X0133631Y0396203D01*
X0133621Y0396240D02*
X0139979Y0396240D01*
X0139983Y0396278D02*
X0133617Y0396278D01*
X0133614Y0396316D02*
X0139986Y0396316D01*
X0139989Y0396354D02*
X0133611Y0396354D01*
X0133607Y0396392D02*
X0139993Y0396392D01*
X0139996Y0396430D02*
X0133604Y0396430D01*
X0133601Y0396468D02*
X0139999Y0396468D01*
X0140002Y0396506D02*
X0133597Y0396506D01*
X0133594Y0396543D02*
X0140006Y0396543D01*
X0140009Y0396581D02*
X0133591Y0396581D01*
X0133588Y0396619D02*
X0140012Y0396619D01*
X0140016Y0396657D02*
X0133584Y0396657D01*
X0133581Y0396695D02*
X0140019Y0396695D01*
X0140022Y0396733D02*
X0133578Y0396733D01*
X0133574Y0396771D02*
X0140026Y0396771D01*
X0140028Y0396809D02*
X0133572Y0396809D01*
X0133576Y0396846D02*
X0140024Y0396846D01*
X0140021Y0396884D02*
X0133579Y0396884D01*
X0133582Y0396922D02*
X0140018Y0396922D01*
X0140014Y0396960D02*
X0133586Y0396960D01*
X0133589Y0396998D02*
X0140011Y0396998D01*
X0140008Y0397036D02*
X0133592Y0397036D01*
X0133596Y0397074D02*
X0140004Y0397074D01*
X0140001Y0397112D02*
X0133599Y0397112D01*
X0133602Y0397150D02*
X0139998Y0397150D01*
X0139994Y0397187D02*
X0133606Y0397187D01*
X0133609Y0397225D02*
X0139991Y0397225D01*
X0139988Y0397263D02*
X0133612Y0397263D01*
X0133616Y0397301D02*
X0139984Y0397301D01*
X0139981Y0397339D02*
X0133619Y0397339D01*
X0133625Y0397377D02*
X0139975Y0397377D01*
X0139965Y0397415D02*
X0133635Y0397415D01*
X0133646Y0397453D02*
X0139955Y0397453D01*
X0139944Y0397490D02*
X0133656Y0397490D01*
X0133666Y0397528D02*
X0139934Y0397528D01*
X0139924Y0397566D02*
X0133676Y0397566D01*
X0133686Y0397604D02*
X0139914Y0397604D01*
X0139904Y0397642D02*
X0133696Y0397642D01*
X0133706Y0397680D02*
X0139894Y0397680D01*
X0139883Y0397718D02*
X0133717Y0397718D01*
X0133727Y0397756D02*
X0139873Y0397756D01*
X0139863Y0397794D02*
X0133737Y0397794D01*
X0133747Y0397831D02*
X0139853Y0397831D01*
X0139843Y0397869D02*
X0133757Y0397869D01*
X0133768Y0397907D02*
X0139832Y0397907D01*
X0139814Y0397945D02*
X0133786Y0397945D01*
X0133803Y0397983D02*
X0139797Y0397983D01*
X0139779Y0398021D02*
X0133821Y0398021D01*
X0133839Y0398059D02*
X0139761Y0398059D01*
X0139744Y0398097D02*
X0133856Y0398097D01*
X0133874Y0398134D02*
X0139726Y0398134D01*
X0139708Y0398172D02*
X0133892Y0398172D01*
X0133909Y0398210D02*
X0139691Y0398210D01*
X0139673Y0398248D02*
X0133927Y0398248D01*
X0133945Y0398286D02*
X0139655Y0398286D01*
X0139638Y0398324D02*
X0133962Y0398324D01*
X0133980Y0398362D02*
X0139620Y0398362D01*
X0139602Y0398400D02*
X0133998Y0398400D01*
X0134021Y0398438D02*
X0139579Y0398438D01*
X0139553Y0398475D02*
X0134047Y0398475D01*
X0134074Y0398513D02*
X0139526Y0398513D01*
X0139500Y0398551D02*
X0134100Y0398551D01*
X0134127Y0398589D02*
X0139473Y0398589D01*
X0139447Y0398627D02*
X0134153Y0398627D01*
X0134180Y0398665D02*
X0139420Y0398665D01*
X0139394Y0398703D02*
X0134206Y0398703D01*
X0134233Y0398741D02*
X0139367Y0398741D01*
X0139341Y0398778D02*
X0134259Y0398778D01*
X0134286Y0398816D02*
X0139314Y0398816D01*
X0139288Y0398854D02*
X0134312Y0398854D01*
X0134344Y0398892D02*
X0139256Y0398892D01*
X0139218Y0398930D02*
X0134382Y0398930D01*
X0134419Y0398968D02*
X0139181Y0398968D01*
X0139143Y0399006D02*
X0134457Y0399006D01*
X0134495Y0399044D02*
X0139105Y0399044D01*
X0139067Y0399081D02*
X0134533Y0399081D01*
X0134571Y0399119D02*
X0139029Y0399119D01*
X0138991Y0399157D02*
X0134609Y0399157D01*
X0134647Y0399195D02*
X0138953Y0399195D01*
X0138915Y0399233D02*
X0134685Y0399233D01*
X0134722Y0399271D02*
X0138878Y0399271D01*
X0138824Y0399309D02*
X0134776Y0399309D01*
X0134830Y0399347D02*
X0138770Y0399347D01*
X0138716Y0399385D02*
X0134884Y0399385D01*
X0134938Y0399422D02*
X0138662Y0399422D01*
X0138608Y0399460D02*
X0134992Y0399460D01*
X0135046Y0399498D02*
X0138554Y0399498D01*
X0138499Y0399536D02*
X0135101Y0399536D01*
X0135155Y0399574D02*
X0138445Y0399574D01*
X0138380Y0399612D02*
X0135220Y0399612D01*
X0135302Y0399650D02*
X0138298Y0399650D01*
X0138217Y0399688D02*
X0135383Y0399688D01*
X0135464Y0399725D02*
X0138136Y0399725D01*
X0138055Y0399763D02*
X0135545Y0399763D01*
X0135627Y0399801D02*
X0137973Y0399801D01*
X0137883Y0399839D02*
X0135717Y0399839D01*
X0135858Y0399877D02*
X0137742Y0399877D01*
X0137600Y0399915D02*
X0136000Y0399915D01*
X0136141Y0399953D02*
X0137459Y0399953D01*
X0137229Y0399991D02*
X0136371Y0399991D01*
X0136598Y0403589D02*
X0137002Y0403589D01*
X0136800Y0403572D02*
X0137361Y0403621D01*
X0137904Y0403767D01*
X0138414Y0404004D01*
X0138875Y0404327D01*
X0139273Y0404725D01*
X0139596Y0405186D01*
X0139833Y0405696D01*
X0139979Y0406239D01*
X0140028Y0406800D01*
X0139979Y0407361D01*
X0139833Y0407904D01*
X0139596Y0408414D01*
X0139273Y0408875D01*
X0138875Y0409273D01*
X0138414Y0409596D01*
X0137904Y0409833D01*
X0137361Y0409979D01*
X0136800Y0410028D01*
X0136239Y0409979D01*
X0135696Y0409833D01*
X0135186Y0409596D01*
X0134725Y0409273D01*
X0134327Y0408875D01*
X0134004Y0408414D01*
X0133767Y0407904D01*
X0133621Y0407361D01*
X0133572Y0406800D01*
X0133621Y0406239D01*
X0133767Y0405696D01*
X0134004Y0405186D01*
X0134327Y0404725D01*
X0134725Y0404327D01*
X0135186Y0404004D01*
X0135696Y0403767D01*
X0136239Y0403621D01*
X0136800Y0403572D01*
X0137384Y0403627D02*
X0136215Y0403627D01*
X0136074Y0403665D02*
X0137526Y0403665D01*
X0137667Y0403703D02*
X0135933Y0403703D01*
X0135791Y0403741D02*
X0137809Y0403741D01*
X0137931Y0403779D02*
X0135669Y0403779D01*
X0135588Y0403817D02*
X0138012Y0403817D01*
X0138093Y0403855D02*
X0135507Y0403855D01*
X0135426Y0403892D02*
X0138174Y0403892D01*
X0138255Y0403930D02*
X0135345Y0403930D01*
X0135263Y0403968D02*
X0138337Y0403968D01*
X0138417Y0404006D02*
X0135183Y0404006D01*
X0135129Y0404044D02*
X0138471Y0404044D01*
X0138525Y0404082D02*
X0135075Y0404082D01*
X0135021Y0404120D02*
X0138579Y0404120D01*
X0138633Y0404158D02*
X0134967Y0404158D01*
X0134913Y0404195D02*
X0138687Y0404195D01*
X0138742Y0404233D02*
X0134858Y0404233D01*
X0134804Y0404271D02*
X0138796Y0404271D01*
X0138850Y0404309D02*
X0134750Y0404309D01*
X0134705Y0404347D02*
X0138895Y0404347D01*
X0138933Y0404385D02*
X0134667Y0404385D01*
X0134629Y0404423D02*
X0138971Y0404423D01*
X0139009Y0404461D02*
X0134591Y0404461D01*
X0134553Y0404499D02*
X0139047Y0404499D01*
X0139085Y0404536D02*
X0134515Y0404536D01*
X0134477Y0404574D02*
X0139123Y0404574D01*
X0139161Y0404612D02*
X0134439Y0404612D01*
X0134402Y0404650D02*
X0139198Y0404650D01*
X0139236Y0404688D02*
X0134364Y0404688D01*
X0134326Y0404726D02*
X0139274Y0404726D01*
X0139300Y0404764D02*
X0134300Y0404764D01*
X0134273Y0404802D02*
X0139327Y0404802D01*
X0139353Y0404839D02*
X0134247Y0404839D01*
X0134220Y0404877D02*
X0139380Y0404877D01*
X0139406Y0404915D02*
X0134194Y0404915D01*
X0134167Y0404953D02*
X0139433Y0404953D01*
X0139459Y0404991D02*
X0134141Y0404991D01*
X0134114Y0405029D02*
X0139486Y0405029D01*
X0139512Y0405067D02*
X0134088Y0405067D01*
X0134061Y0405105D02*
X0139539Y0405105D01*
X0139565Y0405143D02*
X0134035Y0405143D01*
X0134008Y0405180D02*
X0139592Y0405180D01*
X0139611Y0405218D02*
X0133989Y0405218D01*
X0133972Y0405256D02*
X0139628Y0405256D01*
X0139646Y0405294D02*
X0133954Y0405294D01*
X0133936Y0405332D02*
X0139664Y0405332D01*
X0139681Y0405370D02*
X0133919Y0405370D01*
X0133901Y0405408D02*
X0139699Y0405408D01*
X0139717Y0405446D02*
X0133883Y0405446D01*
X0133866Y0405483D02*
X0139734Y0405483D01*
X0139752Y0405521D02*
X0133848Y0405521D01*
X0133830Y0405559D02*
X0139770Y0405559D01*
X0139787Y0405597D02*
X0133813Y0405597D01*
X0133795Y0405635D02*
X0139805Y0405635D01*
X0139823Y0405673D02*
X0133777Y0405673D01*
X0133762Y0405711D02*
X0139838Y0405711D01*
X0139848Y0405749D02*
X0133752Y0405749D01*
X0133742Y0405787D02*
X0139858Y0405787D01*
X0139868Y0405824D02*
X0133732Y0405824D01*
X0133722Y0405862D02*
X0139878Y0405862D01*
X0139888Y0405900D02*
X0133712Y0405900D01*
X0133702Y0405938D02*
X0139898Y0405938D01*
X0139909Y0405976D02*
X0133691Y0405976D01*
X0133681Y0406014D02*
X0139919Y0406014D01*
X0139929Y0406052D02*
X0133671Y0406052D01*
X0133661Y0406090D02*
X0139939Y0406090D01*
X0139949Y0406127D02*
X0133651Y0406127D01*
X0133641Y0406165D02*
X0139959Y0406165D01*
X0139969Y0406203D02*
X0133631Y0406203D01*
X0133621Y0406241D02*
X0139979Y0406241D01*
X0139983Y0406279D02*
X0133617Y0406279D01*
X0133614Y0406317D02*
X0139986Y0406317D01*
X0139989Y0406355D02*
X0133611Y0406355D01*
X0133607Y0406393D02*
X0139993Y0406393D01*
X0139996Y0406430D02*
X0133604Y0406430D01*
X0133601Y0406468D02*
X0139999Y0406468D01*
X0140003Y0406506D02*
X0133597Y0406506D01*
X0133594Y0406544D02*
X0140006Y0406544D01*
X0140009Y0406582D02*
X0133591Y0406582D01*
X0133587Y0406620D02*
X0140013Y0406620D01*
X0140016Y0406658D02*
X0133584Y0406658D01*
X0133581Y0406696D02*
X0140019Y0406696D01*
X0140023Y0406734D02*
X0133577Y0406734D01*
X0133574Y0406771D02*
X0140026Y0406771D01*
X0140028Y0406809D02*
X0133572Y0406809D01*
X0133576Y0406847D02*
X0140024Y0406847D01*
X0140021Y0406885D02*
X0133579Y0406885D01*
X0133582Y0406923D02*
X0140018Y0406923D01*
X0140014Y0406961D02*
X0133586Y0406961D01*
X0133589Y0406999D02*
X0140011Y0406999D01*
X0140008Y0407037D02*
X0133592Y0407037D01*
X0133596Y0407074D02*
X0140004Y0407074D01*
X0140001Y0407112D02*
X0133599Y0407112D01*
X0133602Y0407150D02*
X0139998Y0407150D01*
X0139994Y0407188D02*
X0133606Y0407188D01*
X0133609Y0407226D02*
X0139991Y0407226D01*
X0139988Y0407264D02*
X0133612Y0407264D01*
X0133616Y0407302D02*
X0139984Y0407302D01*
X0139981Y0407340D02*
X0133619Y0407340D01*
X0133625Y0407378D02*
X0139975Y0407378D01*
X0139964Y0407415D02*
X0133636Y0407415D01*
X0133646Y0407453D02*
X0139954Y0407453D01*
X0139944Y0407491D02*
X0133656Y0407491D01*
X0133666Y0407529D02*
X0139934Y0407529D01*
X0139924Y0407567D02*
X0133676Y0407567D01*
X0133686Y0407605D02*
X0139914Y0407605D01*
X0139904Y0407643D02*
X0133696Y0407643D01*
X0133707Y0407681D02*
X0139893Y0407681D01*
X0139883Y0407718D02*
X0133717Y0407718D01*
X0133727Y0407756D02*
X0139873Y0407756D01*
X0139863Y0407794D02*
X0133737Y0407794D01*
X0133747Y0407832D02*
X0139853Y0407832D01*
X0139843Y0407870D02*
X0133757Y0407870D01*
X0133768Y0407908D02*
X0139832Y0407908D01*
X0139814Y0407946D02*
X0133786Y0407946D01*
X0133804Y0407984D02*
X0139796Y0407984D01*
X0139779Y0408022D02*
X0133821Y0408022D01*
X0133839Y0408059D02*
X0139761Y0408059D01*
X0139743Y0408097D02*
X0133857Y0408097D01*
X0133874Y0408135D02*
X0139726Y0408135D01*
X0139708Y0408173D02*
X0133892Y0408173D01*
X0133910Y0408211D02*
X0139690Y0408211D01*
X0139673Y0408249D02*
X0133927Y0408249D01*
X0133945Y0408287D02*
X0139655Y0408287D01*
X0139637Y0408325D02*
X0133963Y0408325D01*
X0133980Y0408362D02*
X0139620Y0408362D01*
X0139602Y0408400D02*
X0133998Y0408400D01*
X0134021Y0408438D02*
X0139579Y0408438D01*
X0139552Y0408476D02*
X0134048Y0408476D01*
X0134074Y0408514D02*
X0139526Y0408514D01*
X0139499Y0408552D02*
X0134101Y0408552D01*
X0134127Y0408590D02*
X0139473Y0408590D01*
X0139446Y0408628D02*
X0134154Y0408628D01*
X0134180Y0408665D02*
X0139420Y0408665D01*
X0139393Y0408703D02*
X0134207Y0408703D01*
X0134233Y0408741D02*
X0139367Y0408741D01*
X0139340Y0408779D02*
X0134260Y0408779D01*
X0134286Y0408817D02*
X0139314Y0408817D01*
X0139287Y0408855D02*
X0134313Y0408855D01*
X0134344Y0408893D02*
X0139256Y0408893D01*
X0139218Y0408931D02*
X0134382Y0408931D01*
X0134420Y0408969D02*
X0139180Y0408969D01*
X0139142Y0409006D02*
X0134458Y0409006D01*
X0134496Y0409044D02*
X0139104Y0409044D01*
X0139066Y0409082D02*
X0134534Y0409082D01*
X0134572Y0409120D02*
X0139028Y0409120D01*
X0138990Y0409158D02*
X0134610Y0409158D01*
X0134647Y0409196D02*
X0138953Y0409196D01*
X0138915Y0409234D02*
X0134685Y0409234D01*
X0134723Y0409272D02*
X0138877Y0409272D01*
X0138823Y0409309D02*
X0134777Y0409309D01*
X0134831Y0409347D02*
X0138769Y0409347D01*
X0138715Y0409385D02*
X0134885Y0409385D01*
X0134939Y0409423D02*
X0138661Y0409423D01*
X0138607Y0409461D02*
X0134993Y0409461D01*
X0135047Y0409499D02*
X0138553Y0409499D01*
X0138498Y0409537D02*
X0135102Y0409537D01*
X0135156Y0409575D02*
X0138444Y0409575D01*
X0138378Y0409613D02*
X0135222Y0409613D01*
X0135303Y0409650D02*
X0138297Y0409650D01*
X0138216Y0409688D02*
X0135384Y0409688D01*
X0135466Y0409726D02*
X0138134Y0409726D01*
X0138053Y0409764D02*
X0135547Y0409764D01*
X0135628Y0409802D02*
X0137972Y0409802D01*
X0137881Y0409840D02*
X0135719Y0409840D01*
X0135861Y0409878D02*
X0137739Y0409878D01*
X0137598Y0409916D02*
X0136002Y0409916D01*
X0136144Y0409953D02*
X0137456Y0409953D01*
X0137222Y0409991D02*
X0136378Y0409991D01*
X0133574Y0356768D02*
X0140026Y0356768D01*
X0140022Y0356730D02*
X0133578Y0356730D01*
X0133581Y0356692D02*
X0140019Y0356692D01*
X0140016Y0356654D02*
X0133584Y0356654D01*
X0133588Y0356616D02*
X0140012Y0356616D01*
X0140009Y0356579D02*
X0133591Y0356579D01*
X0133594Y0356541D02*
X0140006Y0356541D01*
X0140002Y0356503D02*
X0133598Y0356503D01*
X0133601Y0356465D02*
X0139999Y0356465D01*
X0139996Y0356427D02*
X0133604Y0356427D01*
X0133608Y0356389D02*
X0139992Y0356389D01*
X0139989Y0356351D02*
X0133611Y0356351D01*
X0133614Y0356313D02*
X0139986Y0356313D01*
X0139982Y0356276D02*
X0133618Y0356276D01*
X0133621Y0356238D02*
X0139979Y0356238D01*
X0139969Y0356200D02*
X0133631Y0356200D01*
X0133642Y0356162D02*
X0139958Y0356162D01*
X0139948Y0356124D02*
X0133652Y0356124D01*
X0133662Y0356086D02*
X0139938Y0356086D01*
X0139928Y0356048D02*
X0133672Y0356048D01*
X0133682Y0356010D02*
X0139918Y0356010D01*
X0139908Y0355972D02*
X0133692Y0355972D01*
X0133703Y0355935D02*
X0139897Y0355935D01*
X0139887Y0355897D02*
X0133713Y0355897D01*
X0133723Y0355859D02*
X0139877Y0355859D01*
X0139867Y0355821D02*
X0133733Y0355821D01*
X0133743Y0355783D02*
X0139857Y0355783D01*
X0139847Y0355745D02*
X0133753Y0355745D01*
X0133763Y0355707D02*
X0139837Y0355707D01*
X0139821Y0355669D02*
X0133779Y0355669D01*
X0133796Y0355632D02*
X0139804Y0355632D01*
X0139786Y0355594D02*
X0133814Y0355594D01*
X0133832Y0355556D02*
X0139768Y0355556D01*
X0139751Y0355518D02*
X0133849Y0355518D01*
X0133867Y0355480D02*
X0139733Y0355480D01*
X0139715Y0355442D02*
X0133885Y0355442D01*
X0133902Y0355404D02*
X0139698Y0355404D01*
X0139680Y0355366D02*
X0133920Y0355366D01*
X0133938Y0355328D02*
X0139662Y0355328D01*
X0139645Y0355291D02*
X0133955Y0355291D01*
X0133973Y0355253D02*
X0139627Y0355253D01*
X0139609Y0355215D02*
X0133991Y0355215D01*
X0134011Y0355177D02*
X0139589Y0355177D01*
X0139563Y0355139D02*
X0134037Y0355139D01*
X0134064Y0355101D02*
X0139536Y0355101D01*
X0139510Y0355063D02*
X0134090Y0355063D01*
X0134117Y0355025D02*
X0139483Y0355025D01*
X0139457Y0354988D02*
X0134143Y0354988D01*
X0134170Y0354950D02*
X0139430Y0354950D01*
X0139404Y0354912D02*
X0134196Y0354912D01*
X0134222Y0354874D02*
X0139378Y0354874D01*
X0139351Y0354836D02*
X0134249Y0354836D01*
X0134275Y0354798D02*
X0139325Y0354798D01*
X0139298Y0354760D02*
X0134302Y0354760D01*
X0134329Y0354722D02*
X0139271Y0354722D01*
X0139233Y0354684D02*
X0134367Y0354684D01*
X0134405Y0354647D02*
X0139195Y0354647D01*
X0139157Y0354609D02*
X0134443Y0354609D01*
X0134481Y0354571D02*
X0139119Y0354571D01*
X0139081Y0354533D02*
X0134519Y0354533D01*
X0134556Y0354495D02*
X0139044Y0354495D01*
X0139006Y0354457D02*
X0134594Y0354457D01*
X0134632Y0354419D02*
X0138968Y0354419D01*
X0138930Y0354381D02*
X0134670Y0354381D01*
X0134708Y0354344D02*
X0138892Y0354344D01*
X0138845Y0354306D02*
X0134755Y0354306D01*
X0134809Y0354268D02*
X0138791Y0354268D01*
X0138737Y0354230D02*
X0134863Y0354230D01*
X0134917Y0354192D02*
X0138683Y0354192D01*
X0138628Y0354154D02*
X0134972Y0354154D01*
X0135026Y0354116D02*
X0138574Y0354116D01*
X0138520Y0354078D02*
X0135080Y0354078D01*
X0135134Y0354041D02*
X0138466Y0354041D01*
X0138411Y0354003D02*
X0135189Y0354003D01*
X0135271Y0353965D02*
X0138329Y0353965D01*
X0138248Y0353927D02*
X0135352Y0353927D01*
X0135433Y0353889D02*
X0138167Y0353889D01*
X0138086Y0353851D02*
X0135514Y0353851D01*
X0135596Y0353813D02*
X0138004Y0353813D01*
X0137923Y0353775D02*
X0135677Y0353775D01*
X0135804Y0353737D02*
X0137796Y0353737D01*
X0137654Y0353700D02*
X0135946Y0353700D01*
X0136087Y0353662D02*
X0137513Y0353662D01*
X0137372Y0353624D02*
X0136228Y0353624D01*
X0136637Y0353586D02*
X0136963Y0353586D01*
X0136800Y0350028D02*
X0137361Y0349979D01*
X0137904Y0349833D01*
X0138414Y0349596D01*
X0138875Y0349273D01*
X0139273Y0348875D01*
X0139596Y0348414D01*
X0139833Y0347904D01*
X0139979Y0347361D01*
X0140028Y0346800D01*
X0139979Y0346239D01*
X0139833Y0345696D01*
X0139596Y0345186D01*
X0139273Y0344725D01*
X0138875Y0344327D01*
X0138414Y0344004D01*
X0137904Y0343767D01*
X0137361Y0343621D01*
X0136800Y0343572D01*
X0136239Y0343621D01*
X0135696Y0343767D01*
X0135186Y0344004D01*
X0134725Y0344327D01*
X0134327Y0344725D01*
X0134004Y0345186D01*
X0133767Y0345696D01*
X0133621Y0346239D01*
X0133572Y0346800D01*
X0133621Y0347361D01*
X0133767Y0347904D01*
X0134004Y0348414D01*
X0134327Y0348875D01*
X0134725Y0349273D01*
X0135186Y0349596D01*
X0135696Y0349833D01*
X0136239Y0349979D01*
X0136800Y0350028D01*
X0136763Y0350025D02*
X0136837Y0350025D01*
X0137269Y0349987D02*
X0136331Y0349987D01*
X0136128Y0349949D02*
X0137472Y0349949D01*
X0137613Y0349911D02*
X0135987Y0349911D01*
X0135845Y0349874D02*
X0137755Y0349874D01*
X0137896Y0349836D02*
X0135704Y0349836D01*
X0135619Y0349798D02*
X0137981Y0349798D01*
X0138062Y0349760D02*
X0135538Y0349760D01*
X0135457Y0349722D02*
X0138143Y0349722D01*
X0138224Y0349684D02*
X0135376Y0349684D01*
X0135294Y0349646D02*
X0138306Y0349646D01*
X0138387Y0349608D02*
X0135213Y0349608D01*
X0135150Y0349571D02*
X0138450Y0349571D01*
X0138504Y0349533D02*
X0135096Y0349533D01*
X0135042Y0349495D02*
X0138558Y0349495D01*
X0138613Y0349457D02*
X0134987Y0349457D01*
X0134933Y0349419D02*
X0138667Y0349419D01*
X0138721Y0349381D02*
X0134879Y0349381D01*
X0134825Y0349343D02*
X0138775Y0349343D01*
X0138829Y0349305D02*
X0134771Y0349305D01*
X0134719Y0349267D02*
X0138881Y0349267D01*
X0138919Y0349230D02*
X0134681Y0349230D01*
X0134643Y0349192D02*
X0138957Y0349192D01*
X0138995Y0349154D02*
X0134605Y0349154D01*
X0134568Y0349116D02*
X0139032Y0349116D01*
X0139070Y0349078D02*
X0134530Y0349078D01*
X0134492Y0349040D02*
X0139108Y0349040D01*
X0139146Y0349002D02*
X0134454Y0349002D01*
X0134416Y0348964D02*
X0139184Y0348964D01*
X0139222Y0348927D02*
X0134378Y0348927D01*
X0134340Y0348889D02*
X0139260Y0348889D01*
X0139290Y0348851D02*
X0134310Y0348851D01*
X0134283Y0348813D02*
X0139317Y0348813D01*
X0139343Y0348775D02*
X0134257Y0348775D01*
X0134230Y0348737D02*
X0139370Y0348737D01*
X0139396Y0348699D02*
X0134204Y0348699D01*
X0134177Y0348661D02*
X0139423Y0348661D01*
X0139449Y0348623D02*
X0134151Y0348623D01*
X0134124Y0348586D02*
X0139476Y0348586D01*
X0139502Y0348548D02*
X0134098Y0348548D01*
X0134071Y0348510D02*
X0139529Y0348510D01*
X0139555Y0348472D02*
X0134045Y0348472D01*
X0134018Y0348434D02*
X0139582Y0348434D01*
X0139604Y0348396D02*
X0133996Y0348396D01*
X0133978Y0348358D02*
X0139622Y0348358D01*
X0139639Y0348320D02*
X0133961Y0348320D01*
X0133943Y0348283D02*
X0139657Y0348283D01*
X0139675Y0348245D02*
X0133925Y0348245D01*
X0133908Y0348207D02*
X0139692Y0348207D01*
X0139710Y0348169D02*
X0133890Y0348169D01*
X0133872Y0348131D02*
X0139728Y0348131D01*
X0139745Y0348093D02*
X0133855Y0348093D01*
X0133837Y0348055D02*
X0139763Y0348055D01*
X0139781Y0348017D02*
X0133819Y0348017D01*
X0133802Y0347979D02*
X0139798Y0347979D01*
X0139816Y0347942D02*
X0133784Y0347942D01*
X0133766Y0347904D02*
X0139834Y0347904D01*
X0139844Y0347866D02*
X0133756Y0347866D01*
X0133746Y0347828D02*
X0139854Y0347828D01*
X0139864Y0347790D02*
X0133736Y0347790D01*
X0133726Y0347752D02*
X0139874Y0347752D01*
X0139884Y0347714D02*
X0133716Y0347714D01*
X0133705Y0347676D02*
X0139895Y0347676D01*
X0139905Y0347639D02*
X0133695Y0347639D01*
X0133685Y0347601D02*
X0139915Y0347601D01*
X0139925Y0347563D02*
X0133675Y0347563D01*
X0133665Y0347525D02*
X0139935Y0347525D01*
X0139945Y0347487D02*
X0133655Y0347487D01*
X0133645Y0347449D02*
X0139955Y0347449D01*
X0139966Y0347411D02*
X0133634Y0347411D01*
X0133624Y0347373D02*
X0139976Y0347373D01*
X0139981Y0347336D02*
X0133619Y0347336D01*
X0133615Y0347298D02*
X0139985Y0347298D01*
X0139988Y0347260D02*
X0133612Y0347260D01*
X0133609Y0347222D02*
X0139991Y0347222D01*
X0139995Y0347184D02*
X0133605Y0347184D01*
X0133602Y0347146D02*
X0139998Y0347146D01*
X0140001Y0347108D02*
X0133599Y0347108D01*
X0133595Y0347070D02*
X0140005Y0347070D01*
X0140008Y0347032D02*
X0133592Y0347032D01*
X0133589Y0346995D02*
X0140011Y0346995D01*
X0140015Y0346957D02*
X0133585Y0346957D01*
X0133582Y0346919D02*
X0140018Y0346919D01*
X0140021Y0346881D02*
X0133579Y0346881D01*
X0133575Y0346843D02*
X0140025Y0346843D01*
X0140028Y0346805D02*
X0133572Y0346805D01*
X0133575Y0346767D02*
X0140025Y0346767D01*
X0140022Y0346729D02*
X0133578Y0346729D01*
X0133581Y0346692D02*
X0140019Y0346692D01*
X0140015Y0346654D02*
X0133584Y0346654D01*
X0133588Y0346616D02*
X0140012Y0346616D01*
X0140009Y0346578D02*
X0133591Y0346578D01*
X0133594Y0346540D02*
X0140006Y0346540D01*
X0140002Y0346502D02*
X0133598Y0346502D01*
X0133601Y0346464D02*
X0139999Y0346464D01*
X0139996Y0346426D02*
X0133604Y0346426D01*
X0133608Y0346388D02*
X0139992Y0346388D01*
X0139989Y0346351D02*
X0133611Y0346351D01*
X0133614Y0346313D02*
X0139986Y0346313D01*
X0139982Y0346275D02*
X0133618Y0346275D01*
X0133622Y0346237D02*
X0139978Y0346237D01*
X0139968Y0346199D02*
X0133632Y0346199D01*
X0133642Y0346161D02*
X0139958Y0346161D01*
X0139948Y0346123D02*
X0133652Y0346123D01*
X0133662Y0346085D02*
X0139938Y0346085D01*
X0139928Y0346048D02*
X0133672Y0346048D01*
X0133682Y0346010D02*
X0139918Y0346010D01*
X0139907Y0345972D02*
X0133693Y0345972D01*
X0133703Y0345934D02*
X0139897Y0345934D01*
X0139887Y0345896D02*
X0133713Y0345896D01*
X0133723Y0345858D02*
X0139877Y0345858D01*
X0139867Y0345820D02*
X0133733Y0345820D01*
X0133743Y0345782D02*
X0139857Y0345782D01*
X0139847Y0345744D02*
X0133753Y0345744D01*
X0133764Y0345707D02*
X0139836Y0345707D01*
X0139821Y0345669D02*
X0133779Y0345669D01*
X0133797Y0345631D02*
X0139803Y0345631D01*
X0139786Y0345593D02*
X0133814Y0345593D01*
X0133832Y0345555D02*
X0139768Y0345555D01*
X0139750Y0345517D02*
X0133850Y0345517D01*
X0133867Y0345479D02*
X0139733Y0345479D01*
X0139715Y0345441D02*
X0133885Y0345441D01*
X0133903Y0345404D02*
X0139697Y0345404D01*
X0139680Y0345366D02*
X0133920Y0345366D01*
X0133938Y0345328D02*
X0139662Y0345328D01*
X0139644Y0345290D02*
X0133956Y0345290D01*
X0133973Y0345252D02*
X0139627Y0345252D01*
X0139609Y0345214D02*
X0133991Y0345214D01*
X0134011Y0345176D02*
X0139589Y0345176D01*
X0139562Y0345138D02*
X0134038Y0345138D01*
X0134064Y0345101D02*
X0139536Y0345101D01*
X0139509Y0345063D02*
X0134090Y0345063D01*
X0134117Y0345025D02*
X0139483Y0345025D01*
X0139457Y0344987D02*
X0134143Y0344987D01*
X0134170Y0344949D02*
X0139430Y0344949D01*
X0139404Y0344911D02*
X0134196Y0344911D01*
X0134223Y0344873D02*
X0139377Y0344873D01*
X0139351Y0344835D02*
X0134249Y0344835D01*
X0134276Y0344797D02*
X0139324Y0344797D01*
X0139298Y0344760D02*
X0134302Y0344760D01*
X0134330Y0344722D02*
X0139270Y0344722D01*
X0139232Y0344684D02*
X0134368Y0344684D01*
X0134406Y0344646D02*
X0139194Y0344646D01*
X0139156Y0344608D02*
X0134444Y0344608D01*
X0134481Y0344570D02*
X0139119Y0344570D01*
X0139081Y0344532D02*
X0134519Y0344532D01*
X0134557Y0344494D02*
X0139043Y0344494D01*
X0139005Y0344457D02*
X0134595Y0344457D01*
X0134633Y0344419D02*
X0138967Y0344419D01*
X0138929Y0344381D02*
X0134671Y0344381D01*
X0134709Y0344343D02*
X0138891Y0344343D01*
X0138844Y0344305D02*
X0134756Y0344305D01*
X0134810Y0344267D02*
X0138790Y0344267D01*
X0138736Y0344229D02*
X0134864Y0344229D01*
X0134918Y0344191D02*
X0138682Y0344191D01*
X0138627Y0344153D02*
X0134973Y0344153D01*
X0135027Y0344116D02*
X0138573Y0344116D01*
X0138519Y0344078D02*
X0135081Y0344078D01*
X0135135Y0344040D02*
X0138465Y0344040D01*
X0138409Y0344002D02*
X0135191Y0344002D01*
X0135272Y0343964D02*
X0138328Y0343964D01*
X0138247Y0343926D02*
X0135353Y0343926D01*
X0135435Y0343888D02*
X0138165Y0343888D01*
X0138084Y0343850D02*
X0135516Y0343850D01*
X0135597Y0343813D02*
X0138003Y0343813D01*
X0137922Y0343775D02*
X0135678Y0343775D01*
X0135807Y0343737D02*
X0137793Y0343737D01*
X0137652Y0343699D02*
X0135948Y0343699D01*
X0136090Y0343661D02*
X0137510Y0343661D01*
X0137369Y0343623D02*
X0136231Y0343623D01*
X0136645Y0343585D02*
X0136955Y0343585D01*
X0136800Y0340028D02*
X0137361Y0339979D01*
X0137904Y0339833D01*
X0138414Y0339596D01*
X0138875Y0339273D01*
X0139273Y0338875D01*
X0139596Y0338414D01*
X0139833Y0337904D01*
X0139979Y0337361D01*
X0140028Y0336800D01*
X0139979Y0336239D01*
X0139833Y0335696D01*
X0139596Y0335186D01*
X0139273Y0334725D01*
X0138875Y0334327D01*
X0138414Y0334004D01*
X0137904Y0333767D01*
X0137361Y0333621D01*
X0136800Y0333572D01*
X0136239Y0333621D01*
X0135696Y0333767D01*
X0135186Y0334004D01*
X0134725Y0334327D01*
X0134327Y0334725D01*
X0134004Y0335186D01*
X0133767Y0335696D01*
X0133621Y0336239D01*
X0133572Y0336800D01*
X0133621Y0337361D01*
X0133767Y0337904D01*
X0134004Y0338414D01*
X0134327Y0338875D01*
X0134725Y0339273D01*
X0135186Y0339596D01*
X0135696Y0339833D01*
X0136239Y0339979D01*
X0136800Y0340028D01*
X0136755Y0340024D02*
X0136845Y0340024D01*
X0137277Y0339987D02*
X0136323Y0339987D01*
X0136126Y0339949D02*
X0137474Y0339949D01*
X0137616Y0339911D02*
X0135984Y0339911D01*
X0135843Y0339873D02*
X0137757Y0339873D01*
X0137899Y0339835D02*
X0135701Y0339835D01*
X0135618Y0339797D02*
X0137982Y0339797D01*
X0138064Y0339759D02*
X0135537Y0339759D01*
X0135455Y0339721D02*
X0138145Y0339721D01*
X0138226Y0339683D02*
X0135374Y0339683D01*
X0135293Y0339646D02*
X0138307Y0339646D01*
X0138388Y0339608D02*
X0135212Y0339608D01*
X0135149Y0339570D02*
X0138451Y0339570D01*
X0138505Y0339532D02*
X0135095Y0339532D01*
X0135041Y0339494D02*
X0138559Y0339494D01*
X0138614Y0339456D02*
X0134986Y0339456D01*
X0134932Y0339418D02*
X0138668Y0339418D01*
X0138722Y0339380D02*
X0134878Y0339380D01*
X0134824Y0339343D02*
X0138776Y0339343D01*
X0138830Y0339305D02*
X0134770Y0339305D01*
X0134718Y0339267D02*
X0138882Y0339267D01*
X0138920Y0339229D02*
X0134680Y0339229D01*
X0134643Y0339191D02*
X0138957Y0339191D01*
X0138995Y0339153D02*
X0134605Y0339153D01*
X0134567Y0339115D02*
X0139033Y0339115D01*
X0139071Y0339077D02*
X0134529Y0339077D01*
X0134491Y0339039D02*
X0139109Y0339039D01*
X0139147Y0339002D02*
X0134453Y0339002D01*
X0134415Y0338964D02*
X0139185Y0338964D01*
X0139223Y0338926D02*
X0134377Y0338926D01*
X0134340Y0338888D02*
X0139260Y0338888D01*
X0139291Y0338850D02*
X0134309Y0338850D01*
X0134283Y0338812D02*
X0139317Y0338812D01*
X0139344Y0338774D02*
X0134256Y0338774D01*
X0134230Y0338736D02*
X0139370Y0338736D01*
X0139397Y0338699D02*
X0134203Y0338699D01*
X0134177Y0338661D02*
X0139423Y0338661D01*
X0139450Y0338623D02*
X0134150Y0338623D01*
X0134124Y0338585D02*
X0139476Y0338585D01*
X0139503Y0338547D02*
X0134097Y0338547D01*
X0134071Y0338509D02*
X0139529Y0338509D01*
X0139556Y0338471D02*
X0134044Y0338471D01*
X0134018Y0338433D02*
X0139582Y0338433D01*
X0139604Y0338395D02*
X0133996Y0338395D01*
X0133978Y0338358D02*
X0139622Y0338358D01*
X0139640Y0338320D02*
X0133960Y0338320D01*
X0133943Y0338282D02*
X0139657Y0338282D01*
X0139675Y0338244D02*
X0133925Y0338244D01*
X0133907Y0338206D02*
X0139693Y0338206D01*
X0139710Y0338168D02*
X0133890Y0338168D01*
X0133872Y0338130D02*
X0139728Y0338130D01*
X0139746Y0338092D02*
X0133854Y0338092D01*
X0133837Y0338055D02*
X0139763Y0338055D01*
X0139781Y0338017D02*
X0133819Y0338017D01*
X0133801Y0337979D02*
X0139799Y0337979D01*
X0139816Y0337941D02*
X0133784Y0337941D01*
X0133766Y0337903D02*
X0139834Y0337903D01*
X0139844Y0337865D02*
X0133756Y0337865D01*
X0133746Y0337827D02*
X0139854Y0337827D01*
X0139864Y0337789D02*
X0133736Y0337789D01*
X0133726Y0337752D02*
X0139874Y0337752D01*
X0139885Y0337714D02*
X0133715Y0337714D01*
X0133705Y0337676D02*
X0139895Y0337676D01*
X0139905Y0337638D02*
X0133695Y0337638D01*
X0133685Y0337600D02*
X0139915Y0337600D01*
X0139925Y0337562D02*
X0133675Y0337562D01*
X0133665Y0337524D02*
X0139935Y0337524D01*
X0139945Y0337486D02*
X0133655Y0337486D01*
X0133644Y0337448D02*
X0139956Y0337448D01*
X0139966Y0337411D02*
X0133634Y0337411D01*
X0133624Y0337373D02*
X0139976Y0337373D01*
X0139981Y0337335D02*
X0133619Y0337335D01*
X0133615Y0337297D02*
X0139985Y0337297D01*
X0139988Y0337259D02*
X0133612Y0337259D01*
X0133609Y0337221D02*
X0139991Y0337221D01*
X0139995Y0337183D02*
X0133605Y0337183D01*
X0133602Y0337145D02*
X0139998Y0337145D01*
X0140001Y0337108D02*
X0133599Y0337108D01*
X0133595Y0337070D02*
X0140005Y0337070D01*
X0140008Y0337032D02*
X0133592Y0337032D01*
X0133589Y0336994D02*
X0140011Y0336994D01*
X0140015Y0336956D02*
X0133585Y0336956D01*
X0133582Y0336918D02*
X0140018Y0336918D01*
X0140021Y0336880D02*
X0133579Y0336880D01*
X0133575Y0336842D02*
X0140025Y0336842D01*
X0140028Y0336804D02*
X0133572Y0336804D01*
X0133575Y0336767D02*
X0140025Y0336767D01*
X0140022Y0336729D02*
X0133578Y0336729D01*
X0133581Y0336691D02*
X0140019Y0336691D01*
X0140015Y0336653D02*
X0133585Y0336653D01*
X0133588Y0336615D02*
X0140012Y0336615D01*
X0140009Y0336577D02*
X0133591Y0336577D01*
X0133595Y0336539D02*
X0140005Y0336539D01*
X0140002Y0336501D02*
X0133598Y0336501D01*
X0133601Y0336464D02*
X0139999Y0336464D01*
X0139995Y0336426D02*
X0133605Y0336426D01*
X0133608Y0336388D02*
X0139992Y0336388D01*
X0139989Y0336350D02*
X0133611Y0336350D01*
X0133614Y0336312D02*
X0139986Y0336312D01*
X0139982Y0336274D02*
X0133618Y0336274D01*
X0133622Y0336236D02*
X0139978Y0336236D01*
X0139968Y0336198D02*
X0133632Y0336198D01*
X0133642Y0336160D02*
X0139958Y0336160D01*
X0139948Y0336123D02*
X0133652Y0336123D01*
X0133662Y0336085D02*
X0139938Y0336085D01*
X0139928Y0336047D02*
X0133672Y0336047D01*
X0133683Y0336009D02*
X0139917Y0336009D01*
X0139907Y0335971D02*
X0133693Y0335971D01*
X0133703Y0335933D02*
X0139897Y0335933D01*
X0139887Y0335895D02*
X0133713Y0335895D01*
X0133723Y0335857D02*
X0139877Y0335857D01*
X0139867Y0335820D02*
X0133733Y0335820D01*
X0133743Y0335782D02*
X0139857Y0335782D01*
X0139846Y0335744D02*
X0133754Y0335744D01*
X0133764Y0335706D02*
X0139836Y0335706D01*
X0139821Y0335668D02*
X0133779Y0335668D01*
X0133797Y0335630D02*
X0139803Y0335630D01*
X0139785Y0335592D02*
X0133815Y0335592D01*
X0133832Y0335554D02*
X0139768Y0335554D01*
X0139750Y0335517D02*
X0133850Y0335517D01*
X0133868Y0335479D02*
X0139732Y0335479D01*
X0139715Y0335441D02*
X0133885Y0335441D01*
X0133903Y0335403D02*
X0139697Y0335403D01*
X0139679Y0335365D02*
X0133921Y0335365D01*
X0133938Y0335327D02*
X0139662Y0335327D01*
X0139644Y0335289D02*
X0133956Y0335289D01*
X0133974Y0335251D02*
X0139626Y0335251D01*
X0139609Y0335213D02*
X0133991Y0335213D01*
X0134011Y0335176D02*
X0139588Y0335176D01*
X0139562Y0335138D02*
X0134038Y0335138D01*
X0134064Y0335100D02*
X0139536Y0335100D01*
X0139509Y0335062D02*
X0134091Y0335062D01*
X0134117Y0335024D02*
X0139483Y0335024D01*
X0139456Y0334986D02*
X0134144Y0334986D01*
X0134170Y0334948D02*
X0139430Y0334948D01*
X0139403Y0334910D02*
X0134197Y0334910D01*
X0134223Y0334873D02*
X0139377Y0334873D01*
X0139350Y0334835D02*
X0134250Y0334835D01*
X0134276Y0334797D02*
X0139324Y0334797D01*
X0139297Y0334759D02*
X0134303Y0334759D01*
X0134331Y0334721D02*
X0139269Y0334721D01*
X0139232Y0334683D02*
X0134368Y0334683D01*
X0134406Y0334645D02*
X0139194Y0334645D01*
X0139156Y0334607D02*
X0134444Y0334607D01*
X0134482Y0334569D02*
X0139118Y0334569D01*
X0139080Y0334532D02*
X0134520Y0334532D01*
X0134558Y0334494D02*
X0139042Y0334494D01*
X0139004Y0334456D02*
X0134596Y0334456D01*
X0134634Y0334418D02*
X0138966Y0334418D01*
X0138928Y0334380D02*
X0134672Y0334380D01*
X0134709Y0334342D02*
X0138891Y0334342D01*
X0138843Y0334304D02*
X0134757Y0334304D01*
X0134811Y0334266D02*
X0138789Y0334266D01*
X0138735Y0334229D02*
X0134865Y0334229D01*
X0134919Y0334191D02*
X0138681Y0334191D01*
X0138626Y0334153D02*
X0134974Y0334153D01*
X0135028Y0334115D02*
X0138572Y0334115D01*
X0138518Y0334077D02*
X0135082Y0334077D01*
X0135136Y0334039D02*
X0138464Y0334039D01*
X0138408Y0334001D02*
X0135192Y0334001D01*
X0135274Y0333963D02*
X0138326Y0333963D01*
X0138245Y0333925D02*
X0135355Y0333925D01*
X0135436Y0333888D02*
X0138164Y0333888D01*
X0138083Y0333850D02*
X0135517Y0333850D01*
X0135599Y0333812D02*
X0138001Y0333812D01*
X0137920Y0333774D02*
X0135680Y0333774D01*
X0135809Y0333736D02*
X0137791Y0333736D01*
X0137649Y0333698D02*
X0135951Y0333698D01*
X0136092Y0333660D02*
X0137508Y0333660D01*
X0137366Y0333622D02*
X0136233Y0333622D01*
X0136653Y0333585D02*
X0136947Y0333585D01*
X0136800Y0330028D02*
X0137361Y0329979D01*
X0137904Y0329833D01*
X0138414Y0329596D01*
X0138875Y0329273D01*
X0139273Y0328875D01*
X0139596Y0328414D01*
X0139833Y0327904D01*
X0139979Y0327361D01*
X0140028Y0326800D01*
X0139979Y0326239D01*
X0139833Y0325696D01*
X0139596Y0325186D01*
X0139273Y0324725D01*
X0138875Y0324327D01*
X0138414Y0324004D01*
X0137904Y0323767D01*
X0137361Y0323621D01*
X0136800Y0323572D01*
X0136239Y0323621D01*
X0135696Y0323767D01*
X0135186Y0324004D01*
X0134725Y0324327D01*
X0134327Y0324725D01*
X0134004Y0325186D01*
X0133767Y0325696D01*
X0133621Y0326239D01*
X0133572Y0326800D01*
X0133621Y0327361D01*
X0133767Y0327904D01*
X0134004Y0328414D01*
X0134327Y0328875D01*
X0134725Y0329273D01*
X0135186Y0329596D01*
X0135696Y0329833D01*
X0136239Y0329979D01*
X0136800Y0330028D01*
X0136747Y0330024D02*
X0136853Y0330024D01*
X0137284Y0329986D02*
X0136316Y0329986D01*
X0136123Y0329948D02*
X0137477Y0329948D01*
X0137618Y0329910D02*
X0135982Y0329910D01*
X0135840Y0329872D02*
X0137760Y0329872D01*
X0137901Y0329834D02*
X0135699Y0329834D01*
X0135616Y0329796D02*
X0137984Y0329796D01*
X0138065Y0329759D02*
X0135535Y0329759D01*
X0135454Y0329721D02*
X0138146Y0329721D01*
X0138227Y0329683D02*
X0135373Y0329683D01*
X0135291Y0329645D02*
X0138309Y0329645D01*
X0138390Y0329607D02*
X0135210Y0329607D01*
X0135148Y0329569D02*
X0138452Y0329569D01*
X0138506Y0329531D02*
X0135094Y0329531D01*
X0135040Y0329493D02*
X0138560Y0329493D01*
X0138615Y0329455D02*
X0134985Y0329455D01*
X0134931Y0329418D02*
X0138669Y0329418D01*
X0138723Y0329380D02*
X0134877Y0329380D01*
X0134823Y0329342D02*
X0138777Y0329342D01*
X0138831Y0329304D02*
X0134769Y0329304D01*
X0134718Y0329266D02*
X0138882Y0329266D01*
X0138920Y0329228D02*
X0134680Y0329228D01*
X0134642Y0329190D02*
X0138958Y0329190D01*
X0138996Y0329152D02*
X0134604Y0329152D01*
X0134566Y0329115D02*
X0139034Y0329115D01*
X0139072Y0329077D02*
X0134528Y0329077D01*
X0134490Y0329039D02*
X0139110Y0329039D01*
X0139148Y0329001D02*
X0134452Y0329001D01*
X0134415Y0328963D02*
X0139185Y0328963D01*
X0139223Y0328925D02*
X0134377Y0328925D01*
X0134339Y0328887D02*
X0139261Y0328887D01*
X0139291Y0328849D02*
X0134309Y0328849D01*
X0134282Y0328812D02*
X0139318Y0328812D01*
X0139344Y0328774D02*
X0134256Y0328774D01*
X0134229Y0328736D02*
X0139371Y0328736D01*
X0139397Y0328698D02*
X0134203Y0328698D01*
X0134176Y0328660D02*
X0139424Y0328660D01*
X0139450Y0328622D02*
X0134150Y0328622D01*
X0134123Y0328584D02*
X0139477Y0328584D01*
X0139503Y0328546D02*
X0134097Y0328546D01*
X0134070Y0328508D02*
X0139530Y0328508D01*
X0139556Y0328471D02*
X0134044Y0328471D01*
X0134017Y0328433D02*
X0139583Y0328433D01*
X0139605Y0328395D02*
X0133995Y0328395D01*
X0133978Y0328357D02*
X0139622Y0328357D01*
X0139640Y0328319D02*
X0133960Y0328319D01*
X0133942Y0328281D02*
X0139658Y0328281D01*
X0139675Y0328243D02*
X0133925Y0328243D01*
X0133907Y0328205D02*
X0139693Y0328205D01*
X0139711Y0328168D02*
X0133889Y0328168D01*
X0133872Y0328130D02*
X0139728Y0328130D01*
X0139746Y0328092D02*
X0133854Y0328092D01*
X0133836Y0328054D02*
X0139764Y0328054D01*
X0139781Y0328016D02*
X0133819Y0328016D01*
X0133801Y0327978D02*
X0139799Y0327978D01*
X0139817Y0327940D02*
X0133783Y0327940D01*
X0133766Y0327902D02*
X0139834Y0327902D01*
X0139844Y0327864D02*
X0133756Y0327864D01*
X0133746Y0327827D02*
X0139854Y0327827D01*
X0139864Y0327789D02*
X0133736Y0327789D01*
X0133725Y0327751D02*
X0139875Y0327751D01*
X0139885Y0327713D02*
X0133715Y0327713D01*
X0133705Y0327675D02*
X0139895Y0327675D01*
X0139905Y0327637D02*
X0133695Y0327637D01*
X0133685Y0327599D02*
X0139915Y0327599D01*
X0139925Y0327561D02*
X0133675Y0327561D01*
X0133665Y0327524D02*
X0139935Y0327524D01*
X0139946Y0327486D02*
X0133654Y0327486D01*
X0133644Y0327448D02*
X0139956Y0327448D01*
X0139966Y0327410D02*
X0133634Y0327410D01*
X0133624Y0327372D02*
X0139976Y0327372D01*
X0139981Y0327334D02*
X0133619Y0327334D01*
X0133615Y0327296D02*
X0139985Y0327296D01*
X0139988Y0327258D02*
X0133612Y0327258D01*
X0133609Y0327220D02*
X0139991Y0327220D01*
X0139995Y0327183D02*
X0133605Y0327183D01*
X0133602Y0327145D02*
X0139998Y0327145D01*
X0140001Y0327107D02*
X0133599Y0327107D01*
X0133595Y0327069D02*
X0140005Y0327069D01*
X0140008Y0327031D02*
X0133592Y0327031D01*
X0133589Y0326993D02*
X0140011Y0326993D01*
X0140015Y0326955D02*
X0133585Y0326955D01*
X0133582Y0326917D02*
X0140018Y0326917D01*
X0140021Y0326880D02*
X0133579Y0326880D01*
X0133575Y0326842D02*
X0140025Y0326842D01*
X0140028Y0326804D02*
X0133572Y0326804D01*
X0133575Y0326766D02*
X0140025Y0326766D01*
X0140022Y0326728D02*
X0133578Y0326728D01*
X0133581Y0326690D02*
X0140019Y0326690D01*
X0140015Y0326652D02*
X0133585Y0326652D01*
X0133588Y0326614D02*
X0140012Y0326614D01*
X0140009Y0326577D02*
X0133591Y0326577D01*
X0133595Y0326539D02*
X0140005Y0326539D01*
X0140002Y0326501D02*
X0133598Y0326501D01*
X0133601Y0326463D02*
X0139999Y0326463D01*
X0139995Y0326425D02*
X0133605Y0326425D01*
X0133608Y0326387D02*
X0139992Y0326387D01*
X0139989Y0326349D02*
X0133611Y0326349D01*
X0133615Y0326311D02*
X0139985Y0326311D01*
X0139982Y0326273D02*
X0133618Y0326273D01*
X0133622Y0326236D02*
X0139978Y0326236D01*
X0139968Y0326198D02*
X0133632Y0326198D01*
X0133642Y0326160D02*
X0139958Y0326160D01*
X0139948Y0326122D02*
X0133652Y0326122D01*
X0133662Y0326084D02*
X0139938Y0326084D01*
X0139927Y0326046D02*
X0133673Y0326046D01*
X0133683Y0326008D02*
X0139917Y0326008D01*
X0139907Y0325970D02*
X0133693Y0325970D01*
X0133703Y0325933D02*
X0139897Y0325933D01*
X0139887Y0325895D02*
X0133713Y0325895D01*
X0133723Y0325857D02*
X0139877Y0325857D01*
X0139866Y0325819D02*
X0133734Y0325819D01*
X0133744Y0325781D02*
X0139856Y0325781D01*
X0139846Y0325743D02*
X0133754Y0325743D01*
X0133764Y0325705D02*
X0139836Y0325705D01*
X0139820Y0325667D02*
X0133780Y0325667D01*
X0133797Y0325629D02*
X0139803Y0325629D01*
X0139785Y0325592D02*
X0133815Y0325592D01*
X0133833Y0325554D02*
X0139767Y0325554D01*
X0139750Y0325516D02*
X0133850Y0325516D01*
X0133868Y0325478D02*
X0139732Y0325478D01*
X0139714Y0325440D02*
X0133886Y0325440D01*
X0133903Y0325402D02*
X0139697Y0325402D01*
X0139679Y0325364D02*
X0133921Y0325364D01*
X0133939Y0325326D02*
X0139661Y0325326D01*
X0139644Y0325289D02*
X0133956Y0325289D01*
X0133974Y0325251D02*
X0139626Y0325251D01*
X0139608Y0325213D02*
X0133992Y0325213D01*
X0134012Y0325175D02*
X0139588Y0325175D01*
X0139562Y0325137D02*
X0134038Y0325137D01*
X0134065Y0325099D02*
X0139535Y0325099D01*
X0139509Y0325061D02*
X0134091Y0325061D01*
X0134118Y0325023D02*
X0139482Y0325023D01*
X0139456Y0324985D02*
X0134144Y0324985D01*
X0134171Y0324948D02*
X0139429Y0324948D01*
X0139403Y0324910D02*
X0134197Y0324910D01*
X0134224Y0324872D02*
X0139376Y0324872D01*
X0139350Y0324834D02*
X0134250Y0324834D01*
X0134277Y0324796D02*
X0139323Y0324796D01*
X0139297Y0324758D02*
X0134303Y0324758D01*
X0134331Y0324720D02*
X0139269Y0324720D01*
X0139231Y0324682D02*
X0134369Y0324682D01*
X0134407Y0324645D02*
X0139193Y0324645D01*
X0139155Y0324607D02*
X0134445Y0324607D01*
X0134483Y0324569D02*
X0139117Y0324569D01*
X0139079Y0324531D02*
X0134521Y0324531D01*
X0134559Y0324493D02*
X0139041Y0324493D01*
X0139004Y0324455D02*
X0134596Y0324455D01*
X0134634Y0324417D02*
X0138966Y0324417D01*
X0138928Y0324379D02*
X0134672Y0324379D01*
X0134710Y0324341D02*
X0138890Y0324341D01*
X0138842Y0324304D02*
X0134758Y0324304D01*
X0134812Y0324266D02*
X0138788Y0324266D01*
X0138734Y0324228D02*
X0134866Y0324228D01*
X0134920Y0324190D02*
X0138680Y0324190D01*
X0138625Y0324152D02*
X0134975Y0324152D01*
X0135029Y0324114D02*
X0138571Y0324114D01*
X0138517Y0324076D02*
X0135083Y0324076D01*
X0135137Y0324038D02*
X0138463Y0324038D01*
X0138406Y0324001D02*
X0135194Y0324001D01*
X0135275Y0323963D02*
X0138325Y0323963D01*
X0138244Y0323925D02*
X0135356Y0323925D01*
X0135438Y0323887D02*
X0138162Y0323887D01*
X0138081Y0323849D02*
X0135519Y0323849D01*
X0135600Y0323811D02*
X0138000Y0323811D01*
X0137919Y0323773D02*
X0135681Y0323773D01*
X0135812Y0323735D02*
X0137788Y0323735D01*
X0137647Y0323698D02*
X0135953Y0323698D01*
X0136095Y0323660D02*
X0137505Y0323660D01*
X0137364Y0323622D02*
X0136236Y0323622D01*
X0136661Y0323584D02*
X0136939Y0323584D01*
X0140048Y0320048D02*
X0133552Y0320048D01*
X0133552Y0313552D01*
X0140048Y0313552D01*
X0140048Y0320048D01*
X0140048Y0320023D02*
X0133552Y0320023D01*
X0133552Y0319985D02*
X0140048Y0319985D01*
X0140048Y0319947D02*
X0133552Y0319947D01*
X0133552Y0319909D02*
X0140048Y0319909D01*
X0140048Y0319871D02*
X0133552Y0319871D01*
X0133552Y0319834D02*
X0140048Y0319834D01*
X0140048Y0319796D02*
X0133552Y0319796D01*
X0133552Y0319758D02*
X0140048Y0319758D01*
X0140048Y0319720D02*
X0133552Y0319720D01*
X0133552Y0319682D02*
X0140048Y0319682D01*
X0140048Y0319644D02*
X0133552Y0319644D01*
X0133552Y0319606D02*
X0140048Y0319606D01*
X0140048Y0319568D02*
X0133552Y0319568D01*
X0133552Y0319531D02*
X0140048Y0319531D01*
X0140048Y0319493D02*
X0133552Y0319493D01*
X0133552Y0319455D02*
X0140048Y0319455D01*
X0140048Y0319417D02*
X0133552Y0319417D01*
X0133552Y0319379D02*
X0140048Y0319379D01*
X0140048Y0319341D02*
X0133552Y0319341D01*
X0133552Y0319303D02*
X0140048Y0319303D01*
X0140048Y0319265D02*
X0133552Y0319265D01*
X0133552Y0319228D02*
X0140048Y0319228D01*
X0140048Y0319190D02*
X0133552Y0319190D01*
X0133552Y0319152D02*
X0140048Y0319152D01*
X0140048Y0319114D02*
X0133552Y0319114D01*
X0133552Y0319076D02*
X0140048Y0319076D01*
X0140048Y0319038D02*
X0133552Y0319038D01*
X0133552Y0319000D02*
X0140048Y0319000D01*
X0140048Y0318962D02*
X0133552Y0318962D01*
X0133552Y0318924D02*
X0140048Y0318924D01*
X0140048Y0318887D02*
X0133552Y0318887D01*
X0133552Y0318849D02*
X0140048Y0318849D01*
X0140048Y0318811D02*
X0133552Y0318811D01*
X0133552Y0318773D02*
X0140048Y0318773D01*
X0140048Y0318735D02*
X0133552Y0318735D01*
X0133552Y0318697D02*
X0140048Y0318697D01*
X0140048Y0318659D02*
X0133552Y0318659D01*
X0133552Y0318621D02*
X0140048Y0318621D01*
X0140048Y0318584D02*
X0133552Y0318584D01*
X0133552Y0318546D02*
X0140048Y0318546D01*
X0140048Y0318508D02*
X0133552Y0318508D01*
X0133552Y0318470D02*
X0140048Y0318470D01*
X0140048Y0318432D02*
X0133552Y0318432D01*
X0133552Y0318394D02*
X0140048Y0318394D01*
X0140048Y0318356D02*
X0133552Y0318356D01*
X0133552Y0318318D02*
X0140048Y0318318D01*
X0140048Y0318280D02*
X0133552Y0318280D01*
X0133552Y0318243D02*
X0140048Y0318243D01*
X0140048Y0318205D02*
X0133552Y0318205D01*
X0133552Y0318167D02*
X0140048Y0318167D01*
X0140048Y0318129D02*
X0133552Y0318129D01*
X0133552Y0318091D02*
X0140048Y0318091D01*
X0140048Y0318053D02*
X0133552Y0318053D01*
X0133552Y0318015D02*
X0140048Y0318015D01*
X0140048Y0317977D02*
X0133552Y0317977D01*
X0133552Y0317940D02*
X0140048Y0317940D01*
X0140048Y0317902D02*
X0133552Y0317902D01*
X0133552Y0317864D02*
X0140048Y0317864D01*
X0140048Y0317826D02*
X0133552Y0317826D01*
X0133552Y0317788D02*
X0140048Y0317788D01*
X0140048Y0317750D02*
X0133552Y0317750D01*
X0133552Y0317712D02*
X0140048Y0317712D01*
X0140048Y0317674D02*
X0133552Y0317674D01*
X0133552Y0317636D02*
X0140048Y0317636D01*
X0140048Y0317599D02*
X0133552Y0317599D01*
X0133552Y0317561D02*
X0140048Y0317561D01*
X0140048Y0317523D02*
X0133552Y0317523D01*
X0133552Y0317485D02*
X0140048Y0317485D01*
X0140048Y0317447D02*
X0133552Y0317447D01*
X0133552Y0317409D02*
X0140048Y0317409D01*
X0140048Y0317371D02*
X0133552Y0317371D01*
X0133552Y0317333D02*
X0140048Y0317333D01*
X0140048Y0317296D02*
X0133552Y0317296D01*
X0133552Y0317258D02*
X0140048Y0317258D01*
X0140048Y0317220D02*
X0133552Y0317220D01*
X0133552Y0317182D02*
X0140048Y0317182D01*
X0140048Y0317144D02*
X0133552Y0317144D01*
X0133552Y0317106D02*
X0140048Y0317106D01*
X0140048Y0317068D02*
X0133552Y0317068D01*
X0133552Y0317030D02*
X0140048Y0317030D01*
X0140048Y0316993D02*
X0133552Y0316993D01*
X0133552Y0316955D02*
X0140048Y0316955D01*
X0140048Y0316917D02*
X0133552Y0316917D01*
X0133552Y0316879D02*
X0140048Y0316879D01*
X0140048Y0316841D02*
X0133552Y0316841D01*
X0133552Y0316803D02*
X0140048Y0316803D01*
X0140048Y0316765D02*
X0133552Y0316765D01*
X0133552Y0316727D02*
X0140048Y0316727D01*
X0140048Y0316689D02*
X0133552Y0316689D01*
X0133552Y0316652D02*
X0140048Y0316652D01*
X0140048Y0316614D02*
X0133552Y0316614D01*
X0133552Y0316576D02*
X0140048Y0316576D01*
X0140048Y0316538D02*
X0133552Y0316538D01*
X0133552Y0316500D02*
X0140048Y0316500D01*
X0140048Y0316462D02*
X0133552Y0316462D01*
X0133552Y0316424D02*
X0140048Y0316424D01*
X0140048Y0316386D02*
X0133552Y0316386D01*
X0133552Y0316349D02*
X0140048Y0316349D01*
X0140048Y0316311D02*
X0133552Y0316311D01*
X0133552Y0316273D02*
X0140048Y0316273D01*
X0140048Y0316235D02*
X0133552Y0316235D01*
X0133552Y0316197D02*
X0140048Y0316197D01*
X0140048Y0316159D02*
X0133552Y0316159D01*
X0133552Y0316121D02*
X0140048Y0316121D01*
X0140048Y0316083D02*
X0133552Y0316083D01*
X0133552Y0316045D02*
X0140048Y0316045D01*
X0140048Y0316008D02*
X0133552Y0316008D01*
X0133552Y0315970D02*
X0140048Y0315970D01*
X0140048Y0315932D02*
X0133552Y0315932D01*
X0133552Y0315894D02*
X0140048Y0315894D01*
X0140048Y0315856D02*
X0133552Y0315856D01*
X0133552Y0315818D02*
X0140048Y0315818D01*
X0140048Y0315780D02*
X0133552Y0315780D01*
X0133552Y0315742D02*
X0140048Y0315742D01*
X0140048Y0315705D02*
X0133552Y0315705D01*
X0133552Y0315667D02*
X0140048Y0315667D01*
X0140048Y0315629D02*
X0133552Y0315629D01*
X0133552Y0315591D02*
X0140048Y0315591D01*
X0140048Y0315553D02*
X0133552Y0315553D01*
X0133552Y0315515D02*
X0140048Y0315515D01*
X0140048Y0315477D02*
X0133552Y0315477D01*
X0133552Y0315439D02*
X0140048Y0315439D01*
X0140048Y0315401D02*
X0133552Y0315401D01*
X0133552Y0315364D02*
X0140048Y0315364D01*
X0140048Y0315326D02*
X0133552Y0315326D01*
X0133552Y0315288D02*
X0140048Y0315288D01*
X0140048Y0315250D02*
X0133552Y0315250D01*
X0133552Y0315212D02*
X0140048Y0315212D01*
X0140048Y0315174D02*
X0133552Y0315174D01*
X0133552Y0315136D02*
X0140048Y0315136D01*
X0140048Y0315098D02*
X0133552Y0315098D01*
X0133552Y0315061D02*
X0140048Y0315061D01*
X0140048Y0315023D02*
X0133552Y0315023D01*
X0133552Y0314985D02*
X0140048Y0314985D01*
X0140048Y0314947D02*
X0133552Y0314947D01*
X0133552Y0314909D02*
X0140048Y0314909D01*
X0140048Y0314871D02*
X0133552Y0314871D01*
X0133552Y0314833D02*
X0140048Y0314833D01*
X0140048Y0314795D02*
X0133552Y0314795D01*
X0133552Y0314758D02*
X0140048Y0314758D01*
X0140048Y0314720D02*
X0133552Y0314720D01*
X0133552Y0314682D02*
X0140048Y0314682D01*
X0140048Y0314644D02*
X0133552Y0314644D01*
X0133552Y0314606D02*
X0140048Y0314606D01*
X0140048Y0314568D02*
X0133552Y0314568D01*
X0133552Y0314530D02*
X0140048Y0314530D01*
X0140048Y0314492D02*
X0133552Y0314492D01*
X0133552Y0314454D02*
X0140048Y0314454D01*
X0140048Y0314417D02*
X0133552Y0314417D01*
X0133552Y0314379D02*
X0140048Y0314379D01*
X0140048Y0314341D02*
X0133552Y0314341D01*
X0133552Y0314303D02*
X0140048Y0314303D01*
X0140048Y0314265D02*
X0133552Y0314265D01*
X0133552Y0314227D02*
X0140048Y0314227D01*
X0140048Y0314189D02*
X0133552Y0314189D01*
X0133552Y0314151D02*
X0140048Y0314151D01*
X0140048Y0314114D02*
X0133552Y0314114D01*
X0133552Y0314076D02*
X0140048Y0314076D01*
X0140048Y0314038D02*
X0133552Y0314038D01*
X0133552Y0314000D02*
X0140048Y0314000D01*
X0140048Y0313962D02*
X0133552Y0313962D01*
X0133552Y0313924D02*
X0140048Y0313924D01*
X0140048Y0313886D02*
X0133552Y0313886D01*
X0133552Y0313848D02*
X0140048Y0313848D01*
X0140048Y0313810D02*
X0133552Y0313810D01*
X0133552Y0313773D02*
X0140048Y0313773D01*
X0140048Y0313735D02*
X0133552Y0313735D01*
X0133552Y0313697D02*
X0140048Y0313697D01*
X0140048Y0313659D02*
X0133552Y0313659D01*
X0133552Y0313621D02*
X0140048Y0313621D01*
X0140048Y0313583D02*
X0133552Y0313583D01*
X0321017Y0392446D02*
X0321254Y0391936D01*
X0321577Y0391475D01*
X0321975Y0391077D01*
X0322436Y0390754D01*
X0322946Y0390517D01*
X0323489Y0390371D01*
X0324050Y0390322D01*
X0324611Y0390371D01*
X0325154Y0390517D01*
X0325664Y0390754D01*
X0326125Y0391077D01*
X0326523Y0391475D01*
X0326846Y0391936D01*
X0327083Y0392446D01*
X0327229Y0392989D01*
X0327278Y0393550D01*
X0327229Y0394111D01*
X0327083Y0394654D01*
X0326846Y0395164D01*
X0326523Y0395625D01*
X0326125Y0396023D01*
X0325664Y0396346D01*
X0325154Y0396583D01*
X0324611Y0396729D01*
X0324050Y0396778D01*
X0323489Y0396729D01*
X0322946Y0396583D01*
X0322436Y0396346D01*
X0321975Y0396023D01*
X0321577Y0395625D01*
X0321254Y0395164D01*
X0321017Y0394654D01*
X0320871Y0394111D01*
X0320822Y0393550D01*
X0320871Y0392989D01*
X0321017Y0392446D01*
X0321015Y0392452D02*
X0327085Y0392452D01*
X0327095Y0392490D02*
X0321005Y0392490D01*
X0320994Y0392528D02*
X0327106Y0392528D01*
X0327116Y0392566D02*
X0320984Y0392566D01*
X0320974Y0392604D02*
X0327126Y0392604D01*
X0327136Y0392642D02*
X0320964Y0392642D01*
X0320954Y0392680D02*
X0327146Y0392680D01*
X0327156Y0392717D02*
X0320944Y0392717D01*
X0320934Y0392755D02*
X0327166Y0392755D01*
X0327177Y0392793D02*
X0320923Y0392793D01*
X0320913Y0392831D02*
X0327187Y0392831D01*
X0327197Y0392869D02*
X0320903Y0392869D01*
X0320893Y0392907D02*
X0327207Y0392907D01*
X0327217Y0392945D02*
X0320883Y0392945D01*
X0320873Y0392983D02*
X0327227Y0392983D01*
X0327232Y0393020D02*
X0320868Y0393020D01*
X0320865Y0393058D02*
X0327235Y0393058D01*
X0327239Y0393096D02*
X0320861Y0393096D01*
X0320858Y0393134D02*
X0327242Y0393134D01*
X0327245Y0393172D02*
X0320855Y0393172D01*
X0320852Y0393210D02*
X0327248Y0393210D01*
X0327252Y0393248D02*
X0320848Y0393248D01*
X0320845Y0393286D02*
X0327255Y0393286D01*
X0327258Y0393324D02*
X0320842Y0393324D01*
X0320838Y0393361D02*
X0327262Y0393361D01*
X0327265Y0393399D02*
X0320835Y0393399D01*
X0320832Y0393437D02*
X0327268Y0393437D01*
X0327272Y0393475D02*
X0320828Y0393475D01*
X0320825Y0393513D02*
X0327275Y0393513D01*
X0327278Y0393551D02*
X0320822Y0393551D01*
X0320825Y0393589D02*
X0327275Y0393589D01*
X0327272Y0393627D02*
X0320828Y0393627D01*
X0320832Y0393664D02*
X0327268Y0393664D01*
X0327265Y0393702D02*
X0320835Y0393702D01*
X0320838Y0393740D02*
X0327262Y0393740D01*
X0327258Y0393778D02*
X0320842Y0393778D01*
X0320845Y0393816D02*
X0327255Y0393816D01*
X0327252Y0393854D02*
X0320848Y0393854D01*
X0320852Y0393892D02*
X0327248Y0393892D01*
X0327245Y0393930D02*
X0320855Y0393930D01*
X0320858Y0393968D02*
X0327242Y0393968D01*
X0327238Y0394005D02*
X0320862Y0394005D01*
X0320865Y0394043D02*
X0327235Y0394043D01*
X0327232Y0394081D02*
X0320868Y0394081D01*
X0320873Y0394119D02*
X0327227Y0394119D01*
X0327217Y0394157D02*
X0320883Y0394157D01*
X0320893Y0394195D02*
X0327207Y0394195D01*
X0327196Y0394233D02*
X0320904Y0394233D01*
X0320914Y0394271D02*
X0327186Y0394271D01*
X0327176Y0394308D02*
X0320924Y0394308D01*
X0320934Y0394346D02*
X0327166Y0394346D01*
X0327156Y0394384D02*
X0320944Y0394384D01*
X0320954Y0394422D02*
X0327146Y0394422D01*
X0327136Y0394460D02*
X0320964Y0394460D01*
X0320975Y0394498D02*
X0327125Y0394498D01*
X0327115Y0394536D02*
X0320985Y0394536D01*
X0320995Y0394574D02*
X0327105Y0394574D01*
X0327095Y0394611D02*
X0321005Y0394611D01*
X0321015Y0394649D02*
X0327085Y0394649D01*
X0327068Y0394687D02*
X0321032Y0394687D01*
X0321050Y0394725D02*
X0327050Y0394725D01*
X0327033Y0394763D02*
X0321067Y0394763D01*
X0321085Y0394801D02*
X0327015Y0394801D01*
X0326997Y0394839D02*
X0321103Y0394839D01*
X0321120Y0394877D02*
X0326980Y0394877D01*
X0326962Y0394915D02*
X0321138Y0394915D01*
X0321156Y0394952D02*
X0326944Y0394952D01*
X0326927Y0394990D02*
X0321173Y0394990D01*
X0321191Y0395028D02*
X0326909Y0395028D01*
X0326891Y0395066D02*
X0321209Y0395066D01*
X0321226Y0395104D02*
X0326874Y0395104D01*
X0326856Y0395142D02*
X0321244Y0395142D01*
X0321265Y0395180D02*
X0326835Y0395180D01*
X0326808Y0395218D02*
X0321292Y0395218D01*
X0321318Y0395255D02*
X0326782Y0395255D01*
X0326755Y0395293D02*
X0321345Y0395293D01*
X0321371Y0395331D02*
X0326729Y0395331D01*
X0326702Y0395369D02*
X0321398Y0395369D01*
X0321424Y0395407D02*
X0326676Y0395407D01*
X0326649Y0395445D02*
X0321451Y0395445D01*
X0321477Y0395483D02*
X0326623Y0395483D01*
X0326596Y0395521D02*
X0321504Y0395521D01*
X0321530Y0395559D02*
X0326570Y0395559D01*
X0326543Y0395596D02*
X0321557Y0395596D01*
X0321586Y0395634D02*
X0326514Y0395634D01*
X0326476Y0395672D02*
X0321624Y0395672D01*
X0321662Y0395710D02*
X0326438Y0395710D01*
X0326400Y0395748D02*
X0321700Y0395748D01*
X0321737Y0395786D02*
X0326363Y0395786D01*
X0326325Y0395824D02*
X0321775Y0395824D01*
X0321813Y0395862D02*
X0326287Y0395862D01*
X0326249Y0395899D02*
X0321851Y0395899D01*
X0321889Y0395937D02*
X0326211Y0395937D01*
X0326173Y0395975D02*
X0321927Y0395975D01*
X0321965Y0396013D02*
X0326135Y0396013D01*
X0326086Y0396051D02*
X0322014Y0396051D01*
X0322069Y0396089D02*
X0326031Y0396089D01*
X0325977Y0396127D02*
X0322123Y0396127D01*
X0322177Y0396165D02*
X0325923Y0396165D01*
X0325869Y0396203D02*
X0322231Y0396203D01*
X0322285Y0396240D02*
X0325815Y0396240D01*
X0325761Y0396278D02*
X0322339Y0396278D01*
X0322394Y0396316D02*
X0325706Y0396316D01*
X0325646Y0396354D02*
X0322454Y0396354D01*
X0322535Y0396392D02*
X0325565Y0396392D01*
X0325484Y0396430D02*
X0322616Y0396430D01*
X0322697Y0396468D02*
X0325403Y0396468D01*
X0325321Y0396506D02*
X0322779Y0396506D01*
X0322860Y0396543D02*
X0325240Y0396543D01*
X0325159Y0396581D02*
X0322941Y0396581D01*
X0323079Y0396619D02*
X0325021Y0396619D01*
X0324880Y0396657D02*
X0323220Y0396657D01*
X0323362Y0396695D02*
X0324738Y0396695D01*
X0324568Y0396733D02*
X0323532Y0396733D01*
X0323963Y0396771D02*
X0324137Y0396771D01*
X0327069Y0392414D02*
X0321031Y0392414D01*
X0321049Y0392376D02*
X0327051Y0392376D01*
X0327034Y0392339D02*
X0321066Y0392339D01*
X0321084Y0392301D02*
X0327016Y0392301D01*
X0326998Y0392263D02*
X0321102Y0392263D01*
X0321119Y0392225D02*
X0326981Y0392225D01*
X0326963Y0392187D02*
X0321137Y0392187D01*
X0321155Y0392149D02*
X0326945Y0392149D01*
X0326928Y0392111D02*
X0321172Y0392111D01*
X0321190Y0392073D02*
X0326910Y0392073D01*
X0326892Y0392036D02*
X0321208Y0392036D01*
X0321225Y0391998D02*
X0326875Y0391998D01*
X0326857Y0391960D02*
X0321243Y0391960D01*
X0321264Y0391922D02*
X0326836Y0391922D01*
X0326809Y0391884D02*
X0321291Y0391884D01*
X0321317Y0391846D02*
X0326783Y0391846D01*
X0326756Y0391808D02*
X0321344Y0391808D01*
X0321370Y0391770D02*
X0326730Y0391770D01*
X0326703Y0391733D02*
X0321397Y0391733D01*
X0321423Y0391695D02*
X0326677Y0391695D01*
X0326650Y0391657D02*
X0321450Y0391657D01*
X0321476Y0391619D02*
X0326624Y0391619D01*
X0326597Y0391581D02*
X0321503Y0391581D01*
X0321529Y0391543D02*
X0326571Y0391543D01*
X0326544Y0391505D02*
X0321555Y0391505D01*
X0321584Y0391467D02*
X0326516Y0391467D01*
X0326478Y0391429D02*
X0321622Y0391429D01*
X0321660Y0391392D02*
X0326440Y0391392D01*
X0326402Y0391354D02*
X0321698Y0391354D01*
X0321736Y0391316D02*
X0326364Y0391316D01*
X0326326Y0391278D02*
X0321774Y0391278D01*
X0321812Y0391240D02*
X0326288Y0391240D01*
X0326251Y0391202D02*
X0321849Y0391202D01*
X0321887Y0391164D02*
X0326213Y0391164D01*
X0326175Y0391126D02*
X0321925Y0391126D01*
X0321963Y0391089D02*
X0326137Y0391089D01*
X0326088Y0391051D02*
X0322012Y0391051D01*
X0322066Y0391013D02*
X0326034Y0391013D01*
X0325980Y0390975D02*
X0322120Y0390975D01*
X0322175Y0390937D02*
X0325925Y0390937D01*
X0325871Y0390899D02*
X0322229Y0390899D01*
X0322283Y0390861D02*
X0325817Y0390861D01*
X0325763Y0390823D02*
X0322337Y0390823D01*
X0322391Y0390785D02*
X0325709Y0390785D01*
X0325650Y0390748D02*
X0322450Y0390748D01*
X0322531Y0390710D02*
X0325568Y0390710D01*
X0325487Y0390672D02*
X0322613Y0390672D01*
X0322694Y0390634D02*
X0325406Y0390634D01*
X0325325Y0390596D02*
X0322775Y0390596D01*
X0322856Y0390558D02*
X0325244Y0390558D01*
X0325162Y0390520D02*
X0322938Y0390520D01*
X0323073Y0390482D02*
X0325027Y0390482D01*
X0324886Y0390445D02*
X0323214Y0390445D01*
X0323356Y0390407D02*
X0324744Y0390407D01*
X0324587Y0390369D02*
X0323513Y0390369D01*
X0323945Y0390331D02*
X0324155Y0390331D01*
X0330802Y0390331D02*
X0337298Y0390331D01*
X0337298Y0390302D02*
X0330802Y0390302D01*
X0330802Y0396798D01*
X0337298Y0396798D01*
X0337298Y0390302D01*
X0337298Y0390369D02*
X0330802Y0390369D01*
X0330802Y0390407D02*
X0337298Y0390407D01*
X0337298Y0390445D02*
X0330802Y0390445D01*
X0330802Y0390482D02*
X0337298Y0390482D01*
X0337298Y0390520D02*
X0330802Y0390520D01*
X0330802Y0390558D02*
X0337298Y0390558D01*
X0337298Y0390596D02*
X0330802Y0390596D01*
X0330802Y0390634D02*
X0337298Y0390634D01*
X0337298Y0390672D02*
X0330802Y0390672D01*
X0330802Y0390710D02*
X0337298Y0390710D01*
X0337298Y0390748D02*
X0330802Y0390748D01*
X0330802Y0390785D02*
X0337298Y0390785D01*
X0337298Y0390823D02*
X0330802Y0390823D01*
X0330802Y0390861D02*
X0337298Y0390861D01*
X0337298Y0390899D02*
X0330802Y0390899D01*
X0330802Y0390937D02*
X0337298Y0390937D01*
X0337298Y0390975D02*
X0330802Y0390975D01*
X0330802Y0391013D02*
X0337298Y0391013D01*
X0337298Y0391051D02*
X0330802Y0391051D01*
X0330802Y0391089D02*
X0337298Y0391089D01*
X0337298Y0391126D02*
X0330802Y0391126D01*
X0330802Y0391164D02*
X0337298Y0391164D01*
X0337298Y0391202D02*
X0330802Y0391202D01*
X0330802Y0391240D02*
X0337298Y0391240D01*
X0337298Y0391278D02*
X0330802Y0391278D01*
X0330802Y0391316D02*
X0337298Y0391316D01*
X0337298Y0391354D02*
X0330802Y0391354D01*
X0330802Y0391392D02*
X0337298Y0391392D01*
X0337298Y0391429D02*
X0330802Y0391429D01*
X0330802Y0391467D02*
X0337298Y0391467D01*
X0337298Y0391505D02*
X0330802Y0391505D01*
X0330802Y0391543D02*
X0337298Y0391543D01*
X0337298Y0391581D02*
X0330802Y0391581D01*
X0330802Y0391619D02*
X0337298Y0391619D01*
X0337298Y0391657D02*
X0330802Y0391657D01*
X0330802Y0391695D02*
X0337298Y0391695D01*
X0337298Y0391733D02*
X0330802Y0391733D01*
X0330802Y0391770D02*
X0337298Y0391770D01*
X0337298Y0391808D02*
X0330802Y0391808D01*
X0330802Y0391846D02*
X0337298Y0391846D01*
X0337298Y0391884D02*
X0330802Y0391884D01*
X0330802Y0391922D02*
X0337298Y0391922D01*
X0337298Y0391960D02*
X0330802Y0391960D01*
X0330802Y0391998D02*
X0337298Y0391998D01*
X0337298Y0392036D02*
X0330802Y0392036D01*
X0330802Y0392073D02*
X0337298Y0392073D01*
X0337298Y0392111D02*
X0330802Y0392111D01*
X0330802Y0392149D02*
X0337298Y0392149D01*
X0337298Y0392187D02*
X0330802Y0392187D01*
X0330802Y0392225D02*
X0337298Y0392225D01*
X0337298Y0392263D02*
X0330802Y0392263D01*
X0330802Y0392301D02*
X0337298Y0392301D01*
X0337298Y0392339D02*
X0330802Y0392339D01*
X0330802Y0392376D02*
X0337298Y0392376D01*
X0337298Y0392414D02*
X0330802Y0392414D01*
X0330802Y0392452D02*
X0337298Y0392452D01*
X0337298Y0392490D02*
X0330802Y0392490D01*
X0330802Y0392528D02*
X0337298Y0392528D01*
X0337298Y0392566D02*
X0330802Y0392566D01*
X0330802Y0392604D02*
X0337298Y0392604D01*
X0337298Y0392642D02*
X0330802Y0392642D01*
X0330802Y0392680D02*
X0337298Y0392680D01*
X0337298Y0392717D02*
X0330802Y0392717D01*
X0330802Y0392755D02*
X0337298Y0392755D01*
X0337298Y0392793D02*
X0330802Y0392793D01*
X0330802Y0392831D02*
X0337298Y0392831D01*
X0337298Y0392869D02*
X0330802Y0392869D01*
X0330802Y0392907D02*
X0337298Y0392907D01*
X0337298Y0392945D02*
X0330802Y0392945D01*
X0330802Y0392983D02*
X0337298Y0392983D01*
X0337298Y0393020D02*
X0330802Y0393020D01*
X0330802Y0393058D02*
X0337298Y0393058D01*
X0337298Y0393096D02*
X0330802Y0393096D01*
X0330802Y0393134D02*
X0337298Y0393134D01*
X0337298Y0393172D02*
X0330802Y0393172D01*
X0330802Y0393210D02*
X0337298Y0393210D01*
X0337298Y0393248D02*
X0330802Y0393248D01*
X0330802Y0393286D02*
X0337298Y0393286D01*
X0337298Y0393324D02*
X0330802Y0393324D01*
X0330802Y0393361D02*
X0337298Y0393361D01*
X0337298Y0393399D02*
X0330802Y0393399D01*
X0330802Y0393437D02*
X0337298Y0393437D01*
X0337298Y0393475D02*
X0330802Y0393475D01*
X0330802Y0393513D02*
X0337298Y0393513D01*
X0337298Y0393551D02*
X0330802Y0393551D01*
X0330802Y0393589D02*
X0337298Y0393589D01*
X0337298Y0393627D02*
X0330802Y0393627D01*
X0330802Y0393664D02*
X0337298Y0393664D01*
X0337298Y0393702D02*
X0330802Y0393702D01*
X0330802Y0393740D02*
X0337298Y0393740D01*
X0337298Y0393778D02*
X0330802Y0393778D01*
X0330802Y0393816D02*
X0337298Y0393816D01*
X0337298Y0393854D02*
X0330802Y0393854D01*
X0330802Y0393892D02*
X0337298Y0393892D01*
X0337298Y0393930D02*
X0330802Y0393930D01*
X0330802Y0393968D02*
X0337298Y0393968D01*
X0337298Y0394005D02*
X0330802Y0394005D01*
X0330802Y0394043D02*
X0337298Y0394043D01*
X0337298Y0394081D02*
X0330802Y0394081D01*
X0330802Y0394119D02*
X0337298Y0394119D01*
X0337298Y0394157D02*
X0330802Y0394157D01*
X0330802Y0394195D02*
X0337298Y0394195D01*
X0337298Y0394233D02*
X0330802Y0394233D01*
X0330802Y0394271D02*
X0337298Y0394271D01*
X0337298Y0394308D02*
X0330802Y0394308D01*
X0330802Y0394346D02*
X0337298Y0394346D01*
X0337298Y0394384D02*
X0330802Y0394384D01*
X0330802Y0394422D02*
X0337298Y0394422D01*
X0337298Y0394460D02*
X0330802Y0394460D01*
X0330802Y0394498D02*
X0337298Y0394498D01*
X0337298Y0394536D02*
X0330802Y0394536D01*
X0330802Y0394574D02*
X0337298Y0394574D01*
X0337298Y0394611D02*
X0330802Y0394611D01*
X0330802Y0394649D02*
X0337298Y0394649D01*
X0337298Y0394687D02*
X0330802Y0394687D01*
X0330802Y0394725D02*
X0337298Y0394725D01*
X0337298Y0394763D02*
X0330802Y0394763D01*
X0330802Y0394801D02*
X0337298Y0394801D01*
X0337298Y0394839D02*
X0330802Y0394839D01*
X0330802Y0394877D02*
X0337298Y0394877D01*
X0337298Y0394915D02*
X0330802Y0394915D01*
X0330802Y0394952D02*
X0337298Y0394952D01*
X0337298Y0394990D02*
X0330802Y0394990D01*
X0330802Y0395028D02*
X0337298Y0395028D01*
X0337298Y0395066D02*
X0330802Y0395066D01*
X0330802Y0395104D02*
X0337298Y0395104D01*
X0337298Y0395142D02*
X0330802Y0395142D01*
X0330802Y0395180D02*
X0337298Y0395180D01*
X0337298Y0395218D02*
X0330802Y0395218D01*
X0330802Y0395255D02*
X0337298Y0395255D01*
X0337298Y0395293D02*
X0330802Y0395293D01*
X0330802Y0395331D02*
X0337298Y0395331D01*
X0337298Y0395369D02*
X0330802Y0395369D01*
X0330802Y0395407D02*
X0337298Y0395407D01*
X0337298Y0395445D02*
X0330802Y0395445D01*
X0330802Y0395483D02*
X0337298Y0395483D01*
X0337298Y0395521D02*
X0330802Y0395521D01*
X0330802Y0395559D02*
X0337298Y0395559D01*
X0337298Y0395596D02*
X0330802Y0395596D01*
X0330802Y0395634D02*
X0337298Y0395634D01*
X0337298Y0395672D02*
X0330802Y0395672D01*
X0330802Y0395710D02*
X0337298Y0395710D01*
X0337298Y0395748D02*
X0330802Y0395748D01*
X0330802Y0395786D02*
X0337298Y0395786D01*
X0337298Y0395824D02*
X0330802Y0395824D01*
X0330802Y0395862D02*
X0337298Y0395862D01*
X0337298Y0395899D02*
X0330802Y0395899D01*
X0330802Y0395937D02*
X0337298Y0395937D01*
X0337298Y0395975D02*
X0330802Y0395975D01*
X0330802Y0396013D02*
X0337298Y0396013D01*
X0337298Y0396051D02*
X0330802Y0396051D01*
X0330802Y0396089D02*
X0337298Y0396089D01*
X0337298Y0396127D02*
X0330802Y0396127D01*
X0330802Y0396165D02*
X0337298Y0396165D01*
X0337298Y0396203D02*
X0330802Y0396203D01*
X0330802Y0396240D02*
X0337298Y0396240D01*
X0337298Y0396278D02*
X0330802Y0396278D01*
X0330802Y0396316D02*
X0337298Y0396316D01*
X0337298Y0396354D02*
X0330802Y0396354D01*
X0330802Y0396392D02*
X0337298Y0396392D01*
X0337298Y0396430D02*
X0330802Y0396430D01*
X0330802Y0396468D02*
X0337298Y0396468D01*
X0337298Y0396506D02*
X0330802Y0396506D01*
X0330802Y0396543D02*
X0337298Y0396543D01*
X0337298Y0396581D02*
X0330802Y0396581D01*
X0330802Y0396619D02*
X0337298Y0396619D01*
X0337298Y0396657D02*
X0330802Y0396657D01*
X0330802Y0396695D02*
X0337298Y0396695D01*
X0337298Y0396733D02*
X0330802Y0396733D01*
X0330802Y0396771D02*
X0337298Y0396771D01*
D13*
X0401800Y0203050D03*
D14*
X0401800Y0193050D03*
X0401800Y0183050D03*
X0411800Y0183050D03*
X0411800Y0193050D03*
X0411800Y0203050D03*
D15*
X0381800Y0131800D03*
X0371800Y0131800D03*
X0361800Y0131800D03*
X0351800Y0131800D03*
X0341800Y0131800D03*
X0331800Y0131800D03*
X0415550Y0365550D03*
X0415550Y0375550D03*
X0415550Y0385550D03*
X0415550Y0395550D03*
X0415550Y0405550D03*
X0415550Y0415550D03*
D16*
X0244300Y0335343D03*
X0244300Y0331800D03*
D17*
X0216790Y0349182D03*
X0209310Y0349182D03*
X0209310Y0359418D03*
X0213050Y0359418D03*
X0216790Y0359418D03*
D18*
X0124800Y0126800D03*
X0124800Y0133050D03*
X0124800Y0139550D03*
X0124800Y0146050D03*
X0124800Y0152300D03*
X0124800Y0158800D03*
X0124800Y0165300D03*
X0124800Y0171550D03*
X0131800Y0171550D03*
X0138800Y0171550D03*
X0145800Y0171550D03*
X0152550Y0171550D03*
X0159050Y0171550D03*
X0165550Y0171550D03*
X0172300Y0171550D03*
X0179050Y0171550D03*
X0173800Y0178800D03*
X0185550Y0171550D03*
X0197050Y0168800D03*
X0201800Y0164300D03*
X0201800Y0158050D03*
X0201800Y0152050D03*
X0201800Y0146050D03*
X0201800Y0140050D03*
X0201800Y0133800D03*
X0201800Y0127550D03*
X0198800Y0122300D03*
X0192050Y0122300D03*
X0185050Y0122300D03*
X0178050Y0122300D03*
X0155800Y0122300D03*
X0155800Y0128550D03*
X0155800Y0134800D03*
X0155800Y0141050D03*
X0155550Y0147050D03*
X0155550Y0153050D03*
X0149300Y0122300D03*
X0142800Y0122300D03*
X0136050Y0122300D03*
X0129300Y0122300D03*
X0209800Y0184050D03*
X0232800Y0193050D03*
X0218800Y0217800D03*
X0218800Y0226050D03*
X0258550Y0256050D03*
X0241550Y0271800D03*
X0241550Y0279300D03*
X0249300Y0330300D03*
X0248300Y0362050D03*
X0248050Y0419300D03*
X0260050Y0426800D03*
X0284300Y0426800D03*
X0294300Y0419300D03*
X0367550Y0372550D03*
X0367300Y0365300D03*
X0419300Y0291800D03*
X0426800Y0284300D03*
X0426800Y0259300D03*
X0416800Y0246800D03*
X0307800Y0146050D03*
X0308050Y0123050D03*
X0294300Y0124300D03*
X0284300Y0116800D03*
X0246800Y0124300D03*
X0249800Y0146550D03*
X0288300Y0183800D03*
X0289050Y0203050D03*
X0290300Y0259050D03*
X0124300Y0249300D03*
X0116800Y0259300D03*
X0116800Y0284300D03*
X0124300Y0294300D03*
D19*
X0205550Y0376800D03*
X0263300Y0435550D03*
X0236550Y0309300D03*
X0241300Y0302050D03*
X0266800Y0305550D03*
X0226550Y0236050D03*
X0233050Y0219550D03*
X0239300Y0220800D03*
X0238300Y0207050D03*
X0233050Y0200050D03*
X0249800Y0201550D03*
X0249300Y0207550D03*
X0264300Y0203050D03*
X0263800Y0195550D03*
X0273050Y0207550D03*
X0279800Y0199800D03*
X0245550Y0181300D03*
X0232300Y0182800D03*
X0238800Y0167050D03*
X0271550Y0118050D03*
X0417050Y0297550D03*
M02*
