G75*
%MOIN*%
%OFA0B0*%
%FSLAX25Y25*%
%IPPOS*%
%LPD*%
%AMOC8*
5,1,8,0,0,1.08239X$1,22.5*
%
%ADD10C,0.06312*%
%ADD11C,0.06737*%
%ADD12C,0.00039*%
%ADD13R,0.08200X0.08200*%
%ADD14OC8,0.08200*%
%ADD15C,0.08200*%
%ADD16R,0.03300X0.05800*%
%ADD17R,0.02965X0.05524*%
%ADD18C,0.04762*%
%ADD19C,0.03900*%
%ADD20C,0.04369*%
D10*
X0232952Y0229448D03*
X0290826Y0229448D03*
X0290826Y0324330D03*
X0232952Y0324330D03*
D11*
X0261889Y0331420D02*
X0261889Y0337357D01*
X0271889Y0337357D02*
X0271889Y0331420D01*
D12*
X0241000Y0364381D02*
X0240882Y0364281D01*
X0240751Y0364200D01*
X0240608Y0364141D01*
X0240458Y0364106D01*
X0240304Y0364093D01*
X0237867Y0364106D01*
X0237716Y0364141D01*
X0237574Y0364200D01*
X0237442Y0364281D01*
X0237324Y0364381D01*
X0237224Y0364499D01*
X0237143Y0364631D01*
X0237084Y0364773D01*
X0237048Y0364924D01*
X0237036Y0365078D01*
X0237036Y0368700D01*
X0237048Y0368854D01*
X0237084Y0369004D01*
X0237143Y0369146D01*
X0237224Y0369278D01*
X0237324Y0369396D01*
X0237442Y0369496D01*
X0237574Y0369577D01*
X0237716Y0369636D01*
X0237867Y0369672D01*
X0238020Y0369684D01*
X0240458Y0369672D01*
X0240608Y0369636D01*
X0240751Y0369577D01*
X0240882Y0369496D01*
X0241000Y0369396D01*
X0241100Y0369278D01*
X0241181Y0369146D01*
X0241240Y0369004D01*
X0241276Y0368854D01*
X0241288Y0368700D01*
X0241288Y0366889D01*
X0241288Y0365078D01*
X0241276Y0364924D01*
X0241240Y0364773D01*
X0241181Y0364631D01*
X0241100Y0364499D01*
X0241000Y0364381D01*
X0241011Y0364395D02*
X0237313Y0364395D01*
X0237281Y0364433D02*
X0241044Y0364433D01*
X0241076Y0364471D02*
X0237248Y0364471D01*
X0237218Y0364509D02*
X0241106Y0364509D01*
X0241129Y0364546D02*
X0237195Y0364546D01*
X0237172Y0364584D02*
X0241153Y0364584D01*
X0241176Y0364622D02*
X0237148Y0364622D01*
X0237131Y0364660D02*
X0241193Y0364660D01*
X0241209Y0364698D02*
X0237115Y0364698D01*
X0237100Y0364736D02*
X0241225Y0364736D01*
X0241240Y0364774D02*
X0237084Y0364774D01*
X0237075Y0364812D02*
X0241249Y0364812D01*
X0241258Y0364850D02*
X0237066Y0364850D01*
X0237057Y0364887D02*
X0241267Y0364887D01*
X0241276Y0364925D02*
X0237048Y0364925D01*
X0237045Y0364963D02*
X0241279Y0364963D01*
X0241282Y0365001D02*
X0237042Y0365001D01*
X0237039Y0365039D02*
X0241285Y0365039D01*
X0241288Y0365077D02*
X0237036Y0365077D01*
X0237036Y0365115D02*
X0241288Y0365115D01*
X0241288Y0365153D02*
X0237036Y0365153D01*
X0237036Y0365190D02*
X0241288Y0365190D01*
X0241288Y0365228D02*
X0237036Y0365228D01*
X0237036Y0365266D02*
X0241288Y0365266D01*
X0241288Y0365304D02*
X0237036Y0365304D01*
X0237036Y0365342D02*
X0241288Y0365342D01*
X0241288Y0365380D02*
X0237036Y0365380D01*
X0237036Y0365418D02*
X0241288Y0365418D01*
X0241288Y0365456D02*
X0237036Y0365456D01*
X0237036Y0365494D02*
X0241288Y0365494D01*
X0241288Y0365531D02*
X0237036Y0365531D01*
X0237036Y0365569D02*
X0241288Y0365569D01*
X0241288Y0365607D02*
X0237036Y0365607D01*
X0237036Y0365645D02*
X0241288Y0365645D01*
X0241288Y0365683D02*
X0237036Y0365683D01*
X0237036Y0365721D02*
X0241288Y0365721D01*
X0241288Y0365759D02*
X0237036Y0365759D01*
X0237036Y0365797D02*
X0241288Y0365797D01*
X0241288Y0365834D02*
X0237036Y0365834D01*
X0237036Y0365872D02*
X0241288Y0365872D01*
X0241288Y0365910D02*
X0237036Y0365910D01*
X0237036Y0365948D02*
X0241288Y0365948D01*
X0241288Y0365986D02*
X0237036Y0365986D01*
X0237036Y0366024D02*
X0241288Y0366024D01*
X0241288Y0366062D02*
X0237036Y0366062D01*
X0237036Y0366100D02*
X0241288Y0366100D01*
X0241288Y0366137D02*
X0237036Y0366137D01*
X0237036Y0366175D02*
X0241288Y0366175D01*
X0241288Y0366213D02*
X0237036Y0366213D01*
X0237036Y0366251D02*
X0241288Y0366251D01*
X0241288Y0366289D02*
X0237036Y0366289D01*
X0237036Y0366327D02*
X0241288Y0366327D01*
X0241288Y0366365D02*
X0237036Y0366365D01*
X0237036Y0366403D02*
X0241288Y0366403D01*
X0241288Y0366441D02*
X0237036Y0366441D01*
X0237036Y0366478D02*
X0241288Y0366478D01*
X0241288Y0366516D02*
X0237036Y0366516D01*
X0237036Y0366554D02*
X0241288Y0366554D01*
X0241288Y0366592D02*
X0237036Y0366592D01*
X0237036Y0366630D02*
X0241288Y0366630D01*
X0241288Y0366668D02*
X0237036Y0366668D01*
X0237036Y0366706D02*
X0241288Y0366706D01*
X0241288Y0366744D02*
X0237036Y0366744D01*
X0237036Y0366781D02*
X0241288Y0366781D01*
X0241288Y0366819D02*
X0237036Y0366819D01*
X0237036Y0366857D02*
X0241288Y0366857D01*
X0241288Y0366895D02*
X0237036Y0366895D01*
X0237036Y0366933D02*
X0241288Y0366933D01*
X0241288Y0366971D02*
X0237036Y0366971D01*
X0237036Y0367009D02*
X0241288Y0367009D01*
X0241288Y0367047D02*
X0237036Y0367047D01*
X0237036Y0367085D02*
X0241288Y0367085D01*
X0241288Y0367122D02*
X0237036Y0367122D01*
X0237036Y0367160D02*
X0241288Y0367160D01*
X0241288Y0367198D02*
X0237036Y0367198D01*
X0237036Y0367236D02*
X0241288Y0367236D01*
X0241288Y0367274D02*
X0237036Y0367274D01*
X0237036Y0367312D02*
X0241288Y0367312D01*
X0241288Y0367350D02*
X0237036Y0367350D01*
X0237036Y0367388D02*
X0241288Y0367388D01*
X0241288Y0367425D02*
X0237036Y0367425D01*
X0237036Y0367463D02*
X0241288Y0367463D01*
X0241288Y0367501D02*
X0237036Y0367501D01*
X0237036Y0367539D02*
X0241288Y0367539D01*
X0241288Y0367577D02*
X0237036Y0367577D01*
X0237036Y0367615D02*
X0241288Y0367615D01*
X0241288Y0367653D02*
X0237036Y0367653D01*
X0237036Y0367691D02*
X0241288Y0367691D01*
X0241288Y0367729D02*
X0237036Y0367729D01*
X0237036Y0367766D02*
X0241288Y0367766D01*
X0241288Y0367804D02*
X0237036Y0367804D01*
X0237036Y0367842D02*
X0241288Y0367842D01*
X0241288Y0367880D02*
X0237036Y0367880D01*
X0237036Y0367918D02*
X0241288Y0367918D01*
X0241288Y0367956D02*
X0237036Y0367956D01*
X0237036Y0367994D02*
X0241288Y0367994D01*
X0241288Y0368032D02*
X0237036Y0368032D01*
X0237036Y0368069D02*
X0241288Y0368069D01*
X0241288Y0368107D02*
X0237036Y0368107D01*
X0237036Y0368145D02*
X0241288Y0368145D01*
X0241288Y0368183D02*
X0237036Y0368183D01*
X0237036Y0368221D02*
X0241288Y0368221D01*
X0241288Y0368259D02*
X0237036Y0368259D01*
X0237036Y0368297D02*
X0241288Y0368297D01*
X0241288Y0368335D02*
X0237036Y0368335D01*
X0237036Y0368373D02*
X0241288Y0368373D01*
X0241288Y0368410D02*
X0237036Y0368410D01*
X0237036Y0368448D02*
X0241288Y0368448D01*
X0241288Y0368486D02*
X0237036Y0368486D01*
X0237036Y0368524D02*
X0241288Y0368524D01*
X0241288Y0368562D02*
X0237036Y0368562D01*
X0237036Y0368600D02*
X0241288Y0368600D01*
X0241288Y0368638D02*
X0237036Y0368638D01*
X0237036Y0368676D02*
X0241288Y0368676D01*
X0241287Y0368713D02*
X0237037Y0368713D01*
X0237040Y0368751D02*
X0241284Y0368751D01*
X0241281Y0368789D02*
X0237043Y0368789D01*
X0237046Y0368827D02*
X0241278Y0368827D01*
X0241273Y0368865D02*
X0237051Y0368865D01*
X0237060Y0368903D02*
X0241264Y0368903D01*
X0241255Y0368941D02*
X0237069Y0368941D01*
X0237078Y0368979D02*
X0241246Y0368979D01*
X0241235Y0369016D02*
X0237089Y0369016D01*
X0237105Y0369054D02*
X0241219Y0369054D01*
X0241204Y0369092D02*
X0237121Y0369092D01*
X0237137Y0369130D02*
X0241188Y0369130D01*
X0241168Y0369168D02*
X0237157Y0369168D01*
X0237180Y0369206D02*
X0241145Y0369206D01*
X0241121Y0369244D02*
X0237203Y0369244D01*
X0237227Y0369282D02*
X0241097Y0369282D01*
X0241065Y0369320D02*
X0237259Y0369320D01*
X0237292Y0369357D02*
X0241033Y0369357D01*
X0241000Y0369395D02*
X0237324Y0369395D01*
X0237368Y0369433D02*
X0240956Y0369433D01*
X0240912Y0369471D02*
X0237413Y0369471D01*
X0237463Y0369509D02*
X0240861Y0369509D01*
X0240800Y0369547D02*
X0237525Y0369547D01*
X0237593Y0369585D02*
X0240732Y0369585D01*
X0240640Y0369623D02*
X0237684Y0369623D01*
X0237820Y0369660D02*
X0240505Y0369660D01*
X0240971Y0364357D02*
X0237353Y0364357D01*
X0237397Y0364319D02*
X0240927Y0364319D01*
X0240883Y0364281D02*
X0237442Y0364281D01*
X0237503Y0364243D02*
X0240821Y0364243D01*
X0240759Y0364206D02*
X0237565Y0364206D01*
X0237653Y0364168D02*
X0240672Y0364168D01*
X0240560Y0364130D02*
X0237765Y0364130D01*
X0234229Y0364924D02*
X0234241Y0365078D01*
X0234241Y0368700D01*
X0234229Y0368854D01*
X0234193Y0369004D01*
X0234134Y0369146D01*
X0234053Y0369278D01*
X0233953Y0369396D01*
X0233835Y0369496D01*
X0233704Y0369577D01*
X0233561Y0369636D01*
X0233411Y0369672D01*
X0230973Y0369684D01*
X0230819Y0369672D01*
X0230669Y0369636D01*
X0230526Y0369577D01*
X0230395Y0369496D01*
X0230277Y0369396D01*
X0230177Y0369278D01*
X0230096Y0369146D01*
X0230037Y0369004D01*
X0230001Y0368854D01*
X0229989Y0368700D01*
X0229989Y0366889D01*
X0229989Y0365078D01*
X0230001Y0364924D01*
X0230037Y0364773D01*
X0230096Y0364631D01*
X0230177Y0364499D01*
X0230277Y0364381D01*
X0230395Y0364281D01*
X0230526Y0364200D01*
X0230669Y0364141D01*
X0230819Y0364106D01*
X0233257Y0364093D01*
X0233411Y0364106D01*
X0233561Y0364141D01*
X0233704Y0364200D01*
X0233835Y0364281D01*
X0233953Y0364381D01*
X0234053Y0364499D01*
X0234134Y0364631D01*
X0234193Y0364773D01*
X0234229Y0364924D01*
X0234229Y0364925D02*
X0230001Y0364925D01*
X0229998Y0364963D02*
X0234232Y0364963D01*
X0234235Y0365001D02*
X0229995Y0365001D01*
X0229992Y0365039D02*
X0234238Y0365039D01*
X0234241Y0365077D02*
X0229989Y0365077D01*
X0229989Y0365115D02*
X0234241Y0365115D01*
X0234241Y0365153D02*
X0229989Y0365153D01*
X0229989Y0365190D02*
X0234241Y0365190D01*
X0234241Y0365228D02*
X0229989Y0365228D01*
X0229989Y0365266D02*
X0234241Y0365266D01*
X0234241Y0365304D02*
X0229989Y0365304D01*
X0229989Y0365342D02*
X0234241Y0365342D01*
X0234241Y0365380D02*
X0229989Y0365380D01*
X0229989Y0365418D02*
X0234241Y0365418D01*
X0234241Y0365456D02*
X0229989Y0365456D01*
X0229989Y0365494D02*
X0234241Y0365494D01*
X0234241Y0365531D02*
X0229989Y0365531D01*
X0229989Y0365569D02*
X0234241Y0365569D01*
X0234241Y0365607D02*
X0229989Y0365607D01*
X0229989Y0365645D02*
X0234241Y0365645D01*
X0234241Y0365683D02*
X0229989Y0365683D01*
X0229989Y0365721D02*
X0234241Y0365721D01*
X0234241Y0365759D02*
X0229989Y0365759D01*
X0229989Y0365797D02*
X0234241Y0365797D01*
X0234241Y0365834D02*
X0229989Y0365834D01*
X0229989Y0365872D02*
X0234241Y0365872D01*
X0234241Y0365910D02*
X0229989Y0365910D01*
X0229989Y0365948D02*
X0234241Y0365948D01*
X0234241Y0365986D02*
X0229989Y0365986D01*
X0229989Y0366024D02*
X0234241Y0366024D01*
X0234241Y0366062D02*
X0229989Y0366062D01*
X0229989Y0366100D02*
X0234241Y0366100D01*
X0234241Y0366137D02*
X0229989Y0366137D01*
X0229989Y0366175D02*
X0234241Y0366175D01*
X0234241Y0366213D02*
X0229989Y0366213D01*
X0229989Y0366251D02*
X0234241Y0366251D01*
X0234241Y0366289D02*
X0229989Y0366289D01*
X0229989Y0366327D02*
X0234241Y0366327D01*
X0234241Y0366365D02*
X0229989Y0366365D01*
X0229989Y0366403D02*
X0234241Y0366403D01*
X0234241Y0366441D02*
X0229989Y0366441D01*
X0229989Y0366478D02*
X0234241Y0366478D01*
X0234241Y0366516D02*
X0229989Y0366516D01*
X0229989Y0366554D02*
X0234241Y0366554D01*
X0234241Y0366592D02*
X0229989Y0366592D01*
X0229989Y0366630D02*
X0234241Y0366630D01*
X0234241Y0366668D02*
X0229989Y0366668D01*
X0229989Y0366706D02*
X0234241Y0366706D01*
X0234241Y0366744D02*
X0229989Y0366744D01*
X0229989Y0366781D02*
X0234241Y0366781D01*
X0234241Y0366819D02*
X0229989Y0366819D01*
X0229989Y0366857D02*
X0234241Y0366857D01*
X0234241Y0366895D02*
X0229989Y0366895D01*
X0229989Y0366933D02*
X0234241Y0366933D01*
X0234241Y0366971D02*
X0229989Y0366971D01*
X0229989Y0367009D02*
X0234241Y0367009D01*
X0234241Y0367047D02*
X0229989Y0367047D01*
X0229989Y0367085D02*
X0234241Y0367085D01*
X0234241Y0367122D02*
X0229989Y0367122D01*
X0229989Y0367160D02*
X0234241Y0367160D01*
X0234241Y0367198D02*
X0229989Y0367198D01*
X0229989Y0367236D02*
X0234241Y0367236D01*
X0234241Y0367274D02*
X0229989Y0367274D01*
X0229989Y0367312D02*
X0234241Y0367312D01*
X0234241Y0367350D02*
X0229989Y0367350D01*
X0229989Y0367388D02*
X0234241Y0367388D01*
X0234241Y0367425D02*
X0229989Y0367425D01*
X0229989Y0367463D02*
X0234241Y0367463D01*
X0234241Y0367501D02*
X0229989Y0367501D01*
X0229989Y0367539D02*
X0234241Y0367539D01*
X0234241Y0367577D02*
X0229989Y0367577D01*
X0229989Y0367615D02*
X0234241Y0367615D01*
X0234241Y0367653D02*
X0229989Y0367653D01*
X0229989Y0367691D02*
X0234241Y0367691D01*
X0234241Y0367729D02*
X0229989Y0367729D01*
X0229989Y0367766D02*
X0234241Y0367766D01*
X0234241Y0367804D02*
X0229989Y0367804D01*
X0229989Y0367842D02*
X0234241Y0367842D01*
X0234241Y0367880D02*
X0229989Y0367880D01*
X0229989Y0367918D02*
X0234241Y0367918D01*
X0234241Y0367956D02*
X0229989Y0367956D01*
X0229989Y0367994D02*
X0234241Y0367994D01*
X0234241Y0368032D02*
X0229989Y0368032D01*
X0229989Y0368069D02*
X0234241Y0368069D01*
X0234241Y0368107D02*
X0229989Y0368107D01*
X0229989Y0368145D02*
X0234241Y0368145D01*
X0234241Y0368183D02*
X0229989Y0368183D01*
X0229989Y0368221D02*
X0234241Y0368221D01*
X0234241Y0368259D02*
X0229989Y0368259D01*
X0229989Y0368297D02*
X0234241Y0368297D01*
X0234241Y0368335D02*
X0229989Y0368335D01*
X0229989Y0368373D02*
X0234241Y0368373D01*
X0234241Y0368410D02*
X0229989Y0368410D01*
X0229989Y0368448D02*
X0234241Y0368448D01*
X0234241Y0368486D02*
X0229989Y0368486D01*
X0229989Y0368524D02*
X0234241Y0368524D01*
X0234241Y0368562D02*
X0229989Y0368562D01*
X0229989Y0368600D02*
X0234241Y0368600D01*
X0234241Y0368638D02*
X0229989Y0368638D01*
X0229989Y0368676D02*
X0234241Y0368676D01*
X0234240Y0368713D02*
X0229990Y0368713D01*
X0229993Y0368751D02*
X0234237Y0368751D01*
X0234234Y0368789D02*
X0229996Y0368789D01*
X0229999Y0368827D02*
X0234231Y0368827D01*
X0234226Y0368865D02*
X0230004Y0368865D01*
X0230013Y0368903D02*
X0234217Y0368903D01*
X0234208Y0368941D02*
X0230022Y0368941D01*
X0230031Y0368979D02*
X0234199Y0368979D01*
X0234188Y0369016D02*
X0230042Y0369016D01*
X0230058Y0369054D02*
X0234172Y0369054D01*
X0234156Y0369092D02*
X0230074Y0369092D01*
X0230089Y0369130D02*
X0234141Y0369130D01*
X0234121Y0369168D02*
X0230109Y0369168D01*
X0230133Y0369206D02*
X0234097Y0369206D01*
X0234074Y0369244D02*
X0230156Y0369244D01*
X0230180Y0369282D02*
X0234050Y0369282D01*
X0234018Y0369320D02*
X0230212Y0369320D01*
X0230245Y0369357D02*
X0233985Y0369357D01*
X0233953Y0369395D02*
X0230277Y0369395D01*
X0230321Y0369433D02*
X0233909Y0369433D01*
X0233864Y0369471D02*
X0230366Y0369471D01*
X0230416Y0369509D02*
X0233814Y0369509D01*
X0233752Y0369547D02*
X0230478Y0369547D01*
X0230546Y0369585D02*
X0233684Y0369585D01*
X0233593Y0369623D02*
X0230637Y0369623D01*
X0230772Y0369660D02*
X0233458Y0369660D01*
X0234220Y0364887D02*
X0230010Y0364887D01*
X0230019Y0364850D02*
X0234211Y0364850D01*
X0234202Y0364812D02*
X0230028Y0364812D01*
X0230037Y0364774D02*
X0234193Y0364774D01*
X0234177Y0364736D02*
X0230052Y0364736D01*
X0230068Y0364698D02*
X0234162Y0364698D01*
X0234146Y0364660D02*
X0230084Y0364660D01*
X0230101Y0364622D02*
X0234129Y0364622D01*
X0234105Y0364584D02*
X0230125Y0364584D01*
X0230148Y0364546D02*
X0234082Y0364546D01*
X0234059Y0364509D02*
X0230171Y0364509D01*
X0230201Y0364471D02*
X0234029Y0364471D01*
X0233997Y0364433D02*
X0230233Y0364433D01*
X0230266Y0364395D02*
X0233964Y0364395D01*
X0233924Y0364357D02*
X0230306Y0364357D01*
X0230350Y0364319D02*
X0233880Y0364319D01*
X0233835Y0364281D02*
X0230395Y0364281D01*
X0230456Y0364243D02*
X0233774Y0364243D01*
X0233712Y0364206D02*
X0230518Y0364206D01*
X0230605Y0364168D02*
X0233625Y0364168D01*
X0233513Y0364130D02*
X0230717Y0364130D01*
X0231200Y0360038D02*
X0229389Y0360038D01*
X0227578Y0360038D01*
X0227424Y0360026D01*
X0227273Y0359990D01*
X0227131Y0359931D01*
X0226999Y0359850D01*
X0226881Y0359750D01*
X0226781Y0359632D01*
X0226700Y0359501D01*
X0226641Y0359358D01*
X0226606Y0359208D01*
X0226593Y0356770D01*
X0226606Y0356617D01*
X0226641Y0356466D01*
X0226700Y0356324D01*
X0226781Y0356192D01*
X0226881Y0356074D01*
X0226999Y0355974D01*
X0227131Y0355893D01*
X0227273Y0355834D01*
X0227424Y0355798D01*
X0227578Y0355786D01*
X0231200Y0355786D01*
X0231354Y0355798D01*
X0231504Y0355834D01*
X0231646Y0355893D01*
X0231778Y0355974D01*
X0231896Y0356074D01*
X0231996Y0356192D01*
X0232077Y0356324D01*
X0232136Y0356466D01*
X0232172Y0356617D01*
X0232184Y0359054D01*
X0232172Y0359208D01*
X0232136Y0359358D01*
X0232077Y0359501D01*
X0231996Y0359632D01*
X0231896Y0359750D01*
X0231778Y0359850D01*
X0231646Y0359931D01*
X0231504Y0359990D01*
X0231354Y0360026D01*
X0231200Y0360038D01*
X0231460Y0360001D02*
X0227318Y0360001D01*
X0227207Y0359963D02*
X0231570Y0359963D01*
X0231656Y0359925D02*
X0227121Y0359925D01*
X0227059Y0359887D02*
X0231718Y0359887D01*
X0231779Y0359849D02*
X0226998Y0359849D01*
X0226953Y0359811D02*
X0231824Y0359811D01*
X0231868Y0359773D02*
X0226909Y0359773D01*
X0226869Y0359736D02*
X0231908Y0359736D01*
X0231940Y0359698D02*
X0226837Y0359698D01*
X0226805Y0359660D02*
X0231973Y0359660D01*
X0232002Y0359622D02*
X0226775Y0359622D01*
X0226751Y0359584D02*
X0232026Y0359584D01*
X0232049Y0359546D02*
X0226728Y0359546D01*
X0226705Y0359508D02*
X0232072Y0359508D01*
X0232089Y0359470D02*
X0226688Y0359470D01*
X0226672Y0359432D02*
X0232105Y0359432D01*
X0232121Y0359395D02*
X0226656Y0359395D01*
X0226641Y0359357D02*
X0232136Y0359357D01*
X0232145Y0359319D02*
X0226632Y0359319D01*
X0226623Y0359281D02*
X0232154Y0359281D01*
X0232163Y0359243D02*
X0226614Y0359243D01*
X0226605Y0359205D02*
X0232172Y0359205D01*
X0232175Y0359167D02*
X0226605Y0359167D01*
X0226605Y0359129D02*
X0232178Y0359129D01*
X0232181Y0359092D02*
X0226605Y0359092D01*
X0226605Y0359054D02*
X0232184Y0359054D01*
X0232184Y0359016D02*
X0226605Y0359016D01*
X0226604Y0358978D02*
X0232183Y0358978D01*
X0232183Y0358940D02*
X0226604Y0358940D01*
X0226604Y0358902D02*
X0232183Y0358902D01*
X0232183Y0358864D02*
X0226604Y0358864D01*
X0226604Y0358826D02*
X0232183Y0358826D01*
X0232183Y0358789D02*
X0226603Y0358789D01*
X0226603Y0358751D02*
X0232182Y0358751D01*
X0232182Y0358713D02*
X0226603Y0358713D01*
X0226603Y0358675D02*
X0232182Y0358675D01*
X0232182Y0358637D02*
X0226603Y0358637D01*
X0226602Y0358599D02*
X0232182Y0358599D01*
X0232181Y0358561D02*
X0226602Y0358561D01*
X0226602Y0358523D02*
X0232181Y0358523D01*
X0232181Y0358485D02*
X0226602Y0358485D01*
X0226602Y0358448D02*
X0232181Y0358448D01*
X0232181Y0358410D02*
X0226602Y0358410D01*
X0226601Y0358372D02*
X0232180Y0358372D01*
X0232180Y0358334D02*
X0226601Y0358334D01*
X0226601Y0358296D02*
X0232180Y0358296D01*
X0232180Y0358258D02*
X0226601Y0358258D01*
X0226601Y0358220D02*
X0232180Y0358220D01*
X0232179Y0358182D02*
X0226600Y0358182D01*
X0226600Y0358145D02*
X0232179Y0358145D01*
X0232179Y0358107D02*
X0226600Y0358107D01*
X0226600Y0358069D02*
X0232179Y0358069D01*
X0232179Y0358031D02*
X0226600Y0358031D01*
X0226599Y0357993D02*
X0232179Y0357993D01*
X0232178Y0357955D02*
X0226599Y0357955D01*
X0226599Y0357917D02*
X0232178Y0357917D01*
X0232178Y0357879D02*
X0226599Y0357879D01*
X0226599Y0357841D02*
X0232178Y0357841D01*
X0232178Y0357804D02*
X0226598Y0357804D01*
X0226598Y0357766D02*
X0232177Y0357766D01*
X0232177Y0357728D02*
X0226598Y0357728D01*
X0226598Y0357690D02*
X0232177Y0357690D01*
X0232177Y0357652D02*
X0226598Y0357652D01*
X0226598Y0357614D02*
X0232177Y0357614D01*
X0232176Y0357576D02*
X0226597Y0357576D01*
X0226597Y0357538D02*
X0232176Y0357538D01*
X0232176Y0357501D02*
X0226597Y0357501D01*
X0226597Y0357463D02*
X0232176Y0357463D01*
X0232176Y0357425D02*
X0226597Y0357425D01*
X0226596Y0357387D02*
X0232176Y0357387D01*
X0232175Y0357349D02*
X0226596Y0357349D01*
X0226596Y0357311D02*
X0232175Y0357311D01*
X0232175Y0357273D02*
X0226596Y0357273D01*
X0226596Y0357235D02*
X0232175Y0357235D01*
X0232175Y0357197D02*
X0226595Y0357197D01*
X0226595Y0357160D02*
X0232174Y0357160D01*
X0232174Y0357122D02*
X0226595Y0357122D01*
X0226595Y0357084D02*
X0232174Y0357084D01*
X0232174Y0357046D02*
X0226595Y0357046D01*
X0226595Y0357008D02*
X0232174Y0357008D01*
X0232173Y0356970D02*
X0226594Y0356970D01*
X0226594Y0356932D02*
X0232173Y0356932D01*
X0232173Y0356894D02*
X0226594Y0356894D01*
X0226594Y0356857D02*
X0232173Y0356857D01*
X0232173Y0356819D02*
X0226594Y0356819D01*
X0226593Y0356781D02*
X0232172Y0356781D01*
X0232172Y0356743D02*
X0226595Y0356743D01*
X0226598Y0356705D02*
X0232172Y0356705D01*
X0232172Y0356667D02*
X0226601Y0356667D01*
X0226604Y0356629D02*
X0232172Y0356629D01*
X0232166Y0356591D02*
X0226611Y0356591D01*
X0226621Y0356554D02*
X0232157Y0356554D01*
X0232148Y0356516D02*
X0226630Y0356516D01*
X0226639Y0356478D02*
X0232139Y0356478D01*
X0232125Y0356440D02*
X0226652Y0356440D01*
X0226668Y0356402D02*
X0232109Y0356402D01*
X0232094Y0356364D02*
X0226684Y0356364D01*
X0226699Y0356326D02*
X0232078Y0356326D01*
X0232055Y0356288D02*
X0226722Y0356288D01*
X0226745Y0356250D02*
X0232032Y0356250D01*
X0232009Y0356213D02*
X0226769Y0356213D01*
X0226796Y0356175D02*
X0231981Y0356175D01*
X0231949Y0356137D02*
X0226828Y0356137D01*
X0226861Y0356099D02*
X0231917Y0356099D01*
X0231880Y0356061D02*
X0226897Y0356061D01*
X0226942Y0356023D02*
X0231836Y0356023D01*
X0231791Y0355985D02*
X0226986Y0355985D01*
X0227043Y0355947D02*
X0231735Y0355947D01*
X0231673Y0355910D02*
X0227104Y0355910D01*
X0227183Y0355872D02*
X0231594Y0355872D01*
X0231502Y0355834D02*
X0227275Y0355834D01*
X0227456Y0355796D02*
X0231321Y0355796D01*
X0231200Y0352991D02*
X0227578Y0352991D01*
X0227424Y0352979D01*
X0227273Y0352943D01*
X0227131Y0352884D01*
X0226999Y0352803D01*
X0226881Y0352703D01*
X0226781Y0352585D01*
X0226700Y0352454D01*
X0226641Y0352311D01*
X0226606Y0352161D01*
X0226593Y0349723D01*
X0226606Y0349569D01*
X0226641Y0349419D01*
X0226700Y0349276D01*
X0226781Y0349145D01*
X0226881Y0349027D01*
X0226999Y0348927D01*
X0227131Y0348846D01*
X0227273Y0348787D01*
X0227424Y0348751D01*
X0227578Y0348739D01*
X0229389Y0348739D01*
X0231200Y0348739D01*
X0231354Y0348751D01*
X0231504Y0348787D01*
X0231646Y0348846D01*
X0231778Y0348927D01*
X0231896Y0349027D01*
X0231996Y0349145D01*
X0232077Y0349276D01*
X0232136Y0349419D01*
X0232172Y0349569D01*
X0232184Y0352007D01*
X0232172Y0352161D01*
X0232136Y0352311D01*
X0232077Y0352454D01*
X0231996Y0352585D01*
X0231896Y0352703D01*
X0231778Y0352803D01*
X0231646Y0352884D01*
X0231504Y0352943D01*
X0231354Y0352979D01*
X0231200Y0352991D01*
X0231454Y0352955D02*
X0227323Y0352955D01*
X0227210Y0352917D02*
X0231567Y0352917D01*
X0231654Y0352879D02*
X0227123Y0352879D01*
X0227061Y0352841D02*
X0231716Y0352841D01*
X0231778Y0352803D02*
X0226999Y0352803D01*
X0226955Y0352765D02*
X0231822Y0352765D01*
X0231867Y0352727D02*
X0226910Y0352727D01*
X0226870Y0352690D02*
X0231907Y0352690D01*
X0231939Y0352652D02*
X0226838Y0352652D01*
X0226806Y0352614D02*
X0231972Y0352614D01*
X0232002Y0352576D02*
X0226776Y0352576D01*
X0226752Y0352538D02*
X0232025Y0352538D01*
X0232048Y0352500D02*
X0226729Y0352500D01*
X0226706Y0352462D02*
X0232071Y0352462D01*
X0232089Y0352424D02*
X0226688Y0352424D01*
X0226673Y0352387D02*
X0232105Y0352387D01*
X0232120Y0352349D02*
X0226657Y0352349D01*
X0226641Y0352311D02*
X0232136Y0352311D01*
X0232145Y0352273D02*
X0226632Y0352273D01*
X0226623Y0352235D02*
X0232154Y0352235D01*
X0232163Y0352197D02*
X0226614Y0352197D01*
X0226606Y0352159D02*
X0232172Y0352159D01*
X0232175Y0352121D02*
X0226605Y0352121D01*
X0226605Y0352084D02*
X0232178Y0352084D01*
X0232181Y0352046D02*
X0226605Y0352046D01*
X0226605Y0352008D02*
X0232184Y0352008D01*
X0232184Y0351970D02*
X0226605Y0351970D01*
X0226604Y0351932D02*
X0232183Y0351932D01*
X0232183Y0351894D02*
X0226604Y0351894D01*
X0226604Y0351856D02*
X0232183Y0351856D01*
X0232183Y0351818D02*
X0226604Y0351818D01*
X0226604Y0351780D02*
X0232183Y0351780D01*
X0232183Y0351743D02*
X0226603Y0351743D01*
X0226603Y0351705D02*
X0232182Y0351705D01*
X0232182Y0351667D02*
X0226603Y0351667D01*
X0226603Y0351629D02*
X0232182Y0351629D01*
X0232182Y0351591D02*
X0226603Y0351591D01*
X0226602Y0351553D02*
X0232182Y0351553D01*
X0232181Y0351515D02*
X0226602Y0351515D01*
X0226602Y0351477D02*
X0232181Y0351477D01*
X0232181Y0351440D02*
X0226602Y0351440D01*
X0226602Y0351402D02*
X0232181Y0351402D01*
X0232181Y0351364D02*
X0226602Y0351364D01*
X0226601Y0351326D02*
X0232180Y0351326D01*
X0232180Y0351288D02*
X0226601Y0351288D01*
X0226601Y0351250D02*
X0232180Y0351250D01*
X0232180Y0351212D02*
X0226601Y0351212D01*
X0226601Y0351174D02*
X0232180Y0351174D01*
X0232179Y0351136D02*
X0226600Y0351136D01*
X0226600Y0351099D02*
X0232179Y0351099D01*
X0232179Y0351061D02*
X0226600Y0351061D01*
X0226600Y0351023D02*
X0232179Y0351023D01*
X0232179Y0350985D02*
X0226600Y0350985D01*
X0226599Y0350947D02*
X0232179Y0350947D01*
X0232178Y0350909D02*
X0226599Y0350909D01*
X0226599Y0350871D02*
X0232178Y0350871D01*
X0232178Y0350833D02*
X0226599Y0350833D01*
X0226599Y0350796D02*
X0232178Y0350796D01*
X0232178Y0350758D02*
X0226598Y0350758D01*
X0226598Y0350720D02*
X0232177Y0350720D01*
X0232177Y0350682D02*
X0226598Y0350682D01*
X0226598Y0350644D02*
X0232177Y0350644D01*
X0232177Y0350606D02*
X0226598Y0350606D01*
X0226598Y0350568D02*
X0232177Y0350568D01*
X0232176Y0350530D02*
X0226597Y0350530D01*
X0226597Y0350492D02*
X0232176Y0350492D01*
X0232176Y0350455D02*
X0226597Y0350455D01*
X0226597Y0350417D02*
X0232176Y0350417D01*
X0232176Y0350379D02*
X0226597Y0350379D01*
X0226596Y0350341D02*
X0232176Y0350341D01*
X0232175Y0350303D02*
X0226596Y0350303D01*
X0226596Y0350265D02*
X0232175Y0350265D01*
X0232175Y0350227D02*
X0226596Y0350227D01*
X0226596Y0350189D02*
X0232175Y0350189D01*
X0232175Y0350152D02*
X0226595Y0350152D01*
X0226595Y0350114D02*
X0232174Y0350114D01*
X0232174Y0350076D02*
X0226595Y0350076D01*
X0226595Y0350038D02*
X0232174Y0350038D01*
X0232174Y0350000D02*
X0226595Y0350000D01*
X0226595Y0349962D02*
X0232174Y0349962D01*
X0232173Y0349924D02*
X0226594Y0349924D01*
X0226594Y0349886D02*
X0232173Y0349886D01*
X0232173Y0349848D02*
X0226594Y0349848D01*
X0226594Y0349811D02*
X0232173Y0349811D01*
X0232173Y0349773D02*
X0226594Y0349773D01*
X0226593Y0349735D02*
X0232172Y0349735D01*
X0232172Y0349697D02*
X0226595Y0349697D01*
X0226598Y0349659D02*
X0232172Y0349659D01*
X0232172Y0349621D02*
X0226601Y0349621D01*
X0226604Y0349583D02*
X0232172Y0349583D01*
X0232166Y0349545D02*
X0226611Y0349545D01*
X0226620Y0349508D02*
X0232157Y0349508D01*
X0232148Y0349470D02*
X0226629Y0349470D01*
X0226638Y0349432D02*
X0232139Y0349432D01*
X0232125Y0349394D02*
X0226652Y0349394D01*
X0226667Y0349356D02*
X0232110Y0349356D01*
X0232094Y0349318D02*
X0226683Y0349318D01*
X0226699Y0349280D02*
X0232078Y0349280D01*
X0232056Y0349242D02*
X0226721Y0349242D01*
X0226745Y0349205D02*
X0232033Y0349205D01*
X0232009Y0349167D02*
X0226768Y0349167D01*
X0226795Y0349129D02*
X0231982Y0349129D01*
X0231950Y0349091D02*
X0226827Y0349091D01*
X0226859Y0349053D02*
X0231918Y0349053D01*
X0231882Y0349015D02*
X0226896Y0349015D01*
X0226940Y0348977D02*
X0231837Y0348977D01*
X0231793Y0348939D02*
X0226984Y0348939D01*
X0227040Y0348901D02*
X0231737Y0348901D01*
X0231675Y0348864D02*
X0227102Y0348864D01*
X0227180Y0348826D02*
X0231597Y0348826D01*
X0231506Y0348788D02*
X0227271Y0348788D01*
X0227439Y0348750D02*
X0231338Y0348750D01*
X0227132Y0341996D02*
X0227001Y0342077D01*
X0226858Y0342136D01*
X0226708Y0342172D01*
X0224270Y0342184D01*
X0224117Y0342172D01*
X0223966Y0342136D01*
X0223824Y0342077D01*
X0223692Y0341996D01*
X0223574Y0341896D01*
X0223474Y0341778D01*
X0223393Y0341646D01*
X0223334Y0341504D01*
X0223298Y0341354D01*
X0223286Y0341200D01*
X0223286Y0337578D01*
X0223298Y0337424D01*
X0223334Y0337273D01*
X0223393Y0337131D01*
X0223474Y0336999D01*
X0223574Y0336881D01*
X0223692Y0336781D01*
X0223824Y0336700D01*
X0223966Y0336641D01*
X0224117Y0336606D01*
X0226554Y0336593D01*
X0226708Y0336606D01*
X0226858Y0336641D01*
X0227001Y0336700D01*
X0227132Y0336781D01*
X0227250Y0336881D01*
X0227350Y0336999D01*
X0227431Y0337131D01*
X0227490Y0337273D01*
X0227526Y0337424D01*
X0227538Y0337578D01*
X0227538Y0339389D01*
X0227538Y0341200D01*
X0227526Y0341354D01*
X0227490Y0341504D01*
X0227431Y0341646D01*
X0227350Y0341778D01*
X0227250Y0341896D01*
X0227132Y0341996D01*
X0227114Y0342007D02*
X0223710Y0342007D01*
X0223661Y0341969D02*
X0227164Y0341969D01*
X0227208Y0341931D02*
X0223616Y0341931D01*
X0223572Y0341893D02*
X0227252Y0341893D01*
X0227284Y0341856D02*
X0223540Y0341856D01*
X0223508Y0341818D02*
X0227317Y0341818D01*
X0227349Y0341780D02*
X0223476Y0341780D01*
X0223452Y0341742D02*
X0227373Y0341742D01*
X0227396Y0341704D02*
X0223429Y0341704D01*
X0223405Y0341666D02*
X0227419Y0341666D01*
X0227439Y0341628D02*
X0223386Y0341628D01*
X0223370Y0341590D02*
X0227454Y0341590D01*
X0227470Y0341552D02*
X0223354Y0341552D01*
X0223339Y0341515D02*
X0227486Y0341515D01*
X0227497Y0341477D02*
X0223328Y0341477D01*
X0223319Y0341439D02*
X0227506Y0341439D01*
X0227515Y0341401D02*
X0223310Y0341401D01*
X0223301Y0341363D02*
X0227524Y0341363D01*
X0227528Y0341325D02*
X0223296Y0341325D01*
X0223293Y0341287D02*
X0227531Y0341287D01*
X0227534Y0341249D02*
X0223290Y0341249D01*
X0223287Y0341212D02*
X0227537Y0341212D01*
X0227538Y0341174D02*
X0223286Y0341174D01*
X0223286Y0341136D02*
X0227538Y0341136D01*
X0227538Y0341098D02*
X0223286Y0341098D01*
X0223286Y0341060D02*
X0227538Y0341060D01*
X0227538Y0341022D02*
X0223286Y0341022D01*
X0223286Y0340984D02*
X0227538Y0340984D01*
X0227538Y0340946D02*
X0223286Y0340946D01*
X0223286Y0340908D02*
X0227538Y0340908D01*
X0227538Y0340871D02*
X0223286Y0340871D01*
X0223286Y0340833D02*
X0227538Y0340833D01*
X0227538Y0340795D02*
X0223286Y0340795D01*
X0223286Y0340757D02*
X0227538Y0340757D01*
X0227538Y0340719D02*
X0223286Y0340719D01*
X0223286Y0340681D02*
X0227538Y0340681D01*
X0227538Y0340643D02*
X0223286Y0340643D01*
X0223286Y0340605D02*
X0227538Y0340605D01*
X0227538Y0340568D02*
X0223286Y0340568D01*
X0223286Y0340530D02*
X0227538Y0340530D01*
X0227538Y0340492D02*
X0223286Y0340492D01*
X0223286Y0340454D02*
X0227538Y0340454D01*
X0227538Y0340416D02*
X0223286Y0340416D01*
X0223286Y0340378D02*
X0227538Y0340378D01*
X0227538Y0340340D02*
X0223286Y0340340D01*
X0223286Y0340302D02*
X0227538Y0340302D01*
X0227538Y0340265D02*
X0223286Y0340265D01*
X0223286Y0340227D02*
X0227538Y0340227D01*
X0227538Y0340189D02*
X0223286Y0340189D01*
X0223286Y0340151D02*
X0227538Y0340151D01*
X0227538Y0340113D02*
X0223286Y0340113D01*
X0223286Y0340075D02*
X0227538Y0340075D01*
X0227538Y0340037D02*
X0223286Y0340037D01*
X0223286Y0339999D02*
X0227538Y0339999D01*
X0227538Y0339961D02*
X0223286Y0339961D01*
X0223286Y0339924D02*
X0227538Y0339924D01*
X0227538Y0339886D02*
X0223286Y0339886D01*
X0223286Y0339848D02*
X0227538Y0339848D01*
X0227538Y0339810D02*
X0223286Y0339810D01*
X0223286Y0339772D02*
X0227538Y0339772D01*
X0227538Y0339734D02*
X0223286Y0339734D01*
X0223286Y0339696D02*
X0227538Y0339696D01*
X0227538Y0339658D02*
X0223286Y0339658D01*
X0223286Y0339621D02*
X0227538Y0339621D01*
X0227538Y0339583D02*
X0223286Y0339583D01*
X0223286Y0339545D02*
X0227538Y0339545D01*
X0227538Y0339507D02*
X0223286Y0339507D01*
X0223286Y0339469D02*
X0227538Y0339469D01*
X0227538Y0339431D02*
X0223286Y0339431D01*
X0223286Y0339393D02*
X0227538Y0339393D01*
X0227538Y0339355D02*
X0223286Y0339355D01*
X0223286Y0339317D02*
X0227538Y0339317D01*
X0227538Y0339280D02*
X0223286Y0339280D01*
X0223286Y0339242D02*
X0227538Y0339242D01*
X0227538Y0339204D02*
X0223286Y0339204D01*
X0223286Y0339166D02*
X0227538Y0339166D01*
X0227538Y0339128D02*
X0223286Y0339128D01*
X0223286Y0339090D02*
X0227538Y0339090D01*
X0227538Y0339052D02*
X0223286Y0339052D01*
X0223286Y0339014D02*
X0227538Y0339014D01*
X0227538Y0338977D02*
X0223286Y0338977D01*
X0223286Y0338939D02*
X0227538Y0338939D01*
X0227538Y0338901D02*
X0223286Y0338901D01*
X0223286Y0338863D02*
X0227538Y0338863D01*
X0227538Y0338825D02*
X0223286Y0338825D01*
X0223286Y0338787D02*
X0227538Y0338787D01*
X0227538Y0338749D02*
X0223286Y0338749D01*
X0223286Y0338711D02*
X0227538Y0338711D01*
X0227538Y0338673D02*
X0223286Y0338673D01*
X0223286Y0338636D02*
X0227538Y0338636D01*
X0227538Y0338598D02*
X0223286Y0338598D01*
X0223286Y0338560D02*
X0227538Y0338560D01*
X0227538Y0338522D02*
X0223286Y0338522D01*
X0223286Y0338484D02*
X0227538Y0338484D01*
X0227538Y0338446D02*
X0223286Y0338446D01*
X0223286Y0338408D02*
X0227538Y0338408D01*
X0227538Y0338370D02*
X0223286Y0338370D01*
X0223286Y0338333D02*
X0227538Y0338333D01*
X0227538Y0338295D02*
X0223286Y0338295D01*
X0223286Y0338257D02*
X0227538Y0338257D01*
X0227538Y0338219D02*
X0223286Y0338219D01*
X0223286Y0338181D02*
X0227538Y0338181D01*
X0227538Y0338143D02*
X0223286Y0338143D01*
X0223286Y0338105D02*
X0227538Y0338105D01*
X0227538Y0338067D02*
X0223286Y0338067D01*
X0223286Y0338030D02*
X0227538Y0338030D01*
X0227538Y0337992D02*
X0223286Y0337992D01*
X0223286Y0337954D02*
X0227538Y0337954D01*
X0227538Y0337916D02*
X0223286Y0337916D01*
X0223286Y0337878D02*
X0227538Y0337878D01*
X0227538Y0337840D02*
X0223286Y0337840D01*
X0223286Y0337802D02*
X0227538Y0337802D01*
X0227538Y0337764D02*
X0223286Y0337764D01*
X0223286Y0337726D02*
X0227538Y0337726D01*
X0227538Y0337689D02*
X0223286Y0337689D01*
X0223286Y0337651D02*
X0227538Y0337651D01*
X0227538Y0337613D02*
X0223286Y0337613D01*
X0223286Y0337575D02*
X0227538Y0337575D01*
X0227535Y0337537D02*
X0223289Y0337537D01*
X0223292Y0337499D02*
X0227532Y0337499D01*
X0227529Y0337461D02*
X0223295Y0337461D01*
X0223298Y0337423D02*
X0227526Y0337423D01*
X0227517Y0337386D02*
X0223307Y0337386D01*
X0223317Y0337348D02*
X0227508Y0337348D01*
X0227499Y0337310D02*
X0223326Y0337310D01*
X0223335Y0337272D02*
X0227490Y0337272D01*
X0227474Y0337234D02*
X0223351Y0337234D01*
X0223366Y0337196D02*
X0227458Y0337196D01*
X0227442Y0337158D02*
X0223382Y0337158D01*
X0223400Y0337120D02*
X0227425Y0337120D01*
X0227401Y0337082D02*
X0223423Y0337082D01*
X0223446Y0337045D02*
X0227378Y0337045D01*
X0227355Y0337007D02*
X0223469Y0337007D01*
X0223500Y0336969D02*
X0227324Y0336969D01*
X0227292Y0336931D02*
X0223532Y0336931D01*
X0223565Y0336893D02*
X0227260Y0336893D01*
X0227219Y0336855D02*
X0223605Y0336855D01*
X0223650Y0336817D02*
X0227175Y0336817D01*
X0227130Y0336779D02*
X0223695Y0336779D01*
X0223757Y0336742D02*
X0227068Y0336742D01*
X0227006Y0336704D02*
X0223818Y0336704D01*
X0223907Y0336666D02*
X0226917Y0336666D01*
X0226802Y0336628D02*
X0224023Y0336628D01*
X0220479Y0337424D02*
X0220491Y0337578D01*
X0220491Y0341200D01*
X0220479Y0341354D01*
X0220443Y0341504D01*
X0220384Y0341646D01*
X0220303Y0341778D01*
X0220203Y0341896D01*
X0220085Y0341996D01*
X0219954Y0342077D01*
X0219811Y0342136D01*
X0219661Y0342172D01*
X0217223Y0342184D01*
X0217069Y0342172D01*
X0216919Y0342136D01*
X0216776Y0342077D01*
X0216645Y0341996D01*
X0216527Y0341896D01*
X0216427Y0341778D01*
X0216346Y0341646D01*
X0216287Y0341504D01*
X0216251Y0341354D01*
X0216239Y0341200D01*
X0216239Y0339389D01*
X0216239Y0337578D01*
X0216251Y0337424D01*
X0216287Y0337273D01*
X0216346Y0337131D01*
X0216427Y0336999D01*
X0216527Y0336881D01*
X0216645Y0336781D01*
X0216776Y0336700D01*
X0216919Y0336641D01*
X0217069Y0336606D01*
X0219507Y0336593D01*
X0219661Y0336606D01*
X0219811Y0336641D01*
X0219954Y0336700D01*
X0220085Y0336781D01*
X0220203Y0336881D01*
X0220303Y0336999D01*
X0220384Y0337131D01*
X0220443Y0337273D01*
X0220479Y0337424D01*
X0220479Y0337423D02*
X0216251Y0337423D01*
X0216248Y0337461D02*
X0220482Y0337461D01*
X0220485Y0337499D02*
X0216245Y0337499D01*
X0216242Y0337537D02*
X0220488Y0337537D01*
X0220491Y0337575D02*
X0216239Y0337575D01*
X0216239Y0337613D02*
X0220491Y0337613D01*
X0220491Y0337651D02*
X0216239Y0337651D01*
X0216239Y0337689D02*
X0220491Y0337689D01*
X0220491Y0337726D02*
X0216239Y0337726D01*
X0216239Y0337764D02*
X0220491Y0337764D01*
X0220491Y0337802D02*
X0216239Y0337802D01*
X0216239Y0337840D02*
X0220491Y0337840D01*
X0220491Y0337878D02*
X0216239Y0337878D01*
X0216239Y0337916D02*
X0220491Y0337916D01*
X0220491Y0337954D02*
X0216239Y0337954D01*
X0216239Y0337992D02*
X0220491Y0337992D01*
X0220491Y0338030D02*
X0216239Y0338030D01*
X0216239Y0338067D02*
X0220491Y0338067D01*
X0220491Y0338105D02*
X0216239Y0338105D01*
X0216239Y0338143D02*
X0220491Y0338143D01*
X0220491Y0338181D02*
X0216239Y0338181D01*
X0216239Y0338219D02*
X0220491Y0338219D01*
X0220491Y0338257D02*
X0216239Y0338257D01*
X0216239Y0338295D02*
X0220491Y0338295D01*
X0220491Y0338333D02*
X0216239Y0338333D01*
X0216239Y0338370D02*
X0220491Y0338370D01*
X0220491Y0338408D02*
X0216239Y0338408D01*
X0216239Y0338446D02*
X0220491Y0338446D01*
X0220491Y0338484D02*
X0216239Y0338484D01*
X0216239Y0338522D02*
X0220491Y0338522D01*
X0220491Y0338560D02*
X0216239Y0338560D01*
X0216239Y0338598D02*
X0220491Y0338598D01*
X0220491Y0338636D02*
X0216239Y0338636D01*
X0216239Y0338673D02*
X0220491Y0338673D01*
X0220491Y0338711D02*
X0216239Y0338711D01*
X0216239Y0338749D02*
X0220491Y0338749D01*
X0220491Y0338787D02*
X0216239Y0338787D01*
X0216239Y0338825D02*
X0220491Y0338825D01*
X0220491Y0338863D02*
X0216239Y0338863D01*
X0216239Y0338901D02*
X0220491Y0338901D01*
X0220491Y0338939D02*
X0216239Y0338939D01*
X0216239Y0338977D02*
X0220491Y0338977D01*
X0220491Y0339014D02*
X0216239Y0339014D01*
X0216239Y0339052D02*
X0220491Y0339052D01*
X0220491Y0339090D02*
X0216239Y0339090D01*
X0216239Y0339128D02*
X0220491Y0339128D01*
X0220491Y0339166D02*
X0216239Y0339166D01*
X0216239Y0339204D02*
X0220491Y0339204D01*
X0220491Y0339242D02*
X0216239Y0339242D01*
X0216239Y0339280D02*
X0220491Y0339280D01*
X0220491Y0339317D02*
X0216239Y0339317D01*
X0216239Y0339355D02*
X0220491Y0339355D01*
X0220491Y0339393D02*
X0216239Y0339393D01*
X0216239Y0339431D02*
X0220491Y0339431D01*
X0220491Y0339469D02*
X0216239Y0339469D01*
X0216239Y0339507D02*
X0220491Y0339507D01*
X0220491Y0339545D02*
X0216239Y0339545D01*
X0216239Y0339583D02*
X0220491Y0339583D01*
X0220491Y0339621D02*
X0216239Y0339621D01*
X0216239Y0339658D02*
X0220491Y0339658D01*
X0220491Y0339696D02*
X0216239Y0339696D01*
X0216239Y0339734D02*
X0220491Y0339734D01*
X0220491Y0339772D02*
X0216239Y0339772D01*
X0216239Y0339810D02*
X0220491Y0339810D01*
X0220491Y0339848D02*
X0216239Y0339848D01*
X0216239Y0339886D02*
X0220491Y0339886D01*
X0220491Y0339924D02*
X0216239Y0339924D01*
X0216239Y0339961D02*
X0220491Y0339961D01*
X0220491Y0339999D02*
X0216239Y0339999D01*
X0216239Y0340037D02*
X0220491Y0340037D01*
X0220491Y0340075D02*
X0216239Y0340075D01*
X0216239Y0340113D02*
X0220491Y0340113D01*
X0220491Y0340151D02*
X0216239Y0340151D01*
X0216239Y0340189D02*
X0220491Y0340189D01*
X0220491Y0340227D02*
X0216239Y0340227D01*
X0216239Y0340265D02*
X0220491Y0340265D01*
X0220491Y0340302D02*
X0216239Y0340302D01*
X0216239Y0340340D02*
X0220491Y0340340D01*
X0220491Y0340378D02*
X0216239Y0340378D01*
X0216239Y0340416D02*
X0220491Y0340416D01*
X0220491Y0340454D02*
X0216239Y0340454D01*
X0216239Y0340492D02*
X0220491Y0340492D01*
X0220491Y0340530D02*
X0216239Y0340530D01*
X0216239Y0340568D02*
X0220491Y0340568D01*
X0220491Y0340605D02*
X0216239Y0340605D01*
X0216239Y0340643D02*
X0220491Y0340643D01*
X0220491Y0340681D02*
X0216239Y0340681D01*
X0216239Y0340719D02*
X0220491Y0340719D01*
X0220491Y0340757D02*
X0216239Y0340757D01*
X0216239Y0340795D02*
X0220491Y0340795D01*
X0220491Y0340833D02*
X0216239Y0340833D01*
X0216239Y0340871D02*
X0220491Y0340871D01*
X0220491Y0340908D02*
X0216239Y0340908D01*
X0216239Y0340946D02*
X0220491Y0340946D01*
X0220491Y0340984D02*
X0216239Y0340984D01*
X0216239Y0341022D02*
X0220491Y0341022D01*
X0220491Y0341060D02*
X0216239Y0341060D01*
X0216239Y0341098D02*
X0220491Y0341098D01*
X0220491Y0341136D02*
X0216239Y0341136D01*
X0216239Y0341174D02*
X0220491Y0341174D01*
X0220490Y0341212D02*
X0216240Y0341212D01*
X0216243Y0341249D02*
X0220487Y0341249D01*
X0220484Y0341287D02*
X0216246Y0341287D01*
X0216249Y0341325D02*
X0220481Y0341325D01*
X0220476Y0341363D02*
X0216253Y0341363D01*
X0216262Y0341401D02*
X0220467Y0341401D01*
X0220458Y0341439D02*
X0216272Y0341439D01*
X0216281Y0341477D02*
X0220449Y0341477D01*
X0220439Y0341515D02*
X0216291Y0341515D01*
X0216307Y0341552D02*
X0220423Y0341552D01*
X0220407Y0341590D02*
X0216323Y0341590D01*
X0216339Y0341628D02*
X0220391Y0341628D01*
X0220372Y0341666D02*
X0216358Y0341666D01*
X0216381Y0341704D02*
X0220349Y0341704D01*
X0220325Y0341742D02*
X0216405Y0341742D01*
X0216428Y0341780D02*
X0220302Y0341780D01*
X0220269Y0341818D02*
X0216461Y0341818D01*
X0216493Y0341856D02*
X0220237Y0341856D01*
X0220205Y0341893D02*
X0216525Y0341893D01*
X0216569Y0341931D02*
X0220161Y0341931D01*
X0220117Y0341969D02*
X0216613Y0341969D01*
X0216663Y0342007D02*
X0220067Y0342007D01*
X0220005Y0342045D02*
X0216725Y0342045D01*
X0216791Y0342083D02*
X0219939Y0342083D01*
X0219848Y0342121D02*
X0216882Y0342121D01*
X0217014Y0342159D02*
X0219716Y0342159D01*
X0223772Y0342045D02*
X0227053Y0342045D01*
X0226986Y0342083D02*
X0223838Y0342083D01*
X0223930Y0342121D02*
X0226895Y0342121D01*
X0226763Y0342159D02*
X0224062Y0342159D01*
X0220470Y0337386D02*
X0216260Y0337386D01*
X0216269Y0337348D02*
X0220461Y0337348D01*
X0220452Y0337310D02*
X0216278Y0337310D01*
X0216288Y0337272D02*
X0220442Y0337272D01*
X0220427Y0337234D02*
X0216303Y0337234D01*
X0216319Y0337196D02*
X0220411Y0337196D01*
X0220395Y0337158D02*
X0216335Y0337158D01*
X0216352Y0337120D02*
X0220377Y0337120D01*
X0220354Y0337082D02*
X0216376Y0337082D01*
X0216399Y0337045D02*
X0220331Y0337045D01*
X0220308Y0337007D02*
X0216422Y0337007D01*
X0216453Y0336969D02*
X0220277Y0336969D01*
X0220245Y0336931D02*
X0216485Y0336931D01*
X0216517Y0336893D02*
X0220213Y0336893D01*
X0220172Y0336855D02*
X0216558Y0336855D01*
X0216602Y0336817D02*
X0220127Y0336817D01*
X0220082Y0336779D02*
X0216648Y0336779D01*
X0216709Y0336742D02*
X0220021Y0336742D01*
X0219959Y0336704D02*
X0216771Y0336704D01*
X0216860Y0336666D02*
X0219870Y0336666D01*
X0219755Y0336628D02*
X0216975Y0336628D01*
X0140117Y0336889D02*
X0140068Y0337449D01*
X0139922Y0337993D01*
X0139684Y0338503D01*
X0139362Y0338964D01*
X0138964Y0339362D01*
X0138503Y0339684D01*
X0137993Y0339922D01*
X0137449Y0340068D01*
X0136889Y0340117D01*
X0136328Y0340068D01*
X0135784Y0339922D01*
X0135274Y0339684D01*
X0134813Y0339362D01*
X0134415Y0338964D01*
X0134093Y0338503D01*
X0133855Y0337993D01*
X0133709Y0337449D01*
X0133660Y0336889D01*
X0133709Y0336328D01*
X0133855Y0335784D01*
X0134093Y0335274D01*
X0134415Y0334813D01*
X0134813Y0334415D01*
X0135274Y0334093D01*
X0135784Y0333855D01*
X0136328Y0333709D01*
X0136889Y0333660D01*
X0137449Y0333709D01*
X0137993Y0333855D01*
X0138503Y0334093D01*
X0138964Y0334415D01*
X0139362Y0334813D01*
X0139684Y0335274D01*
X0139922Y0335784D01*
X0140068Y0336328D01*
X0140117Y0336889D01*
X0140117Y0336893D02*
X0133661Y0336893D01*
X0133663Y0336855D02*
X0140114Y0336855D01*
X0140111Y0336817D02*
X0133666Y0336817D01*
X0133670Y0336779D02*
X0140107Y0336779D01*
X0140104Y0336742D02*
X0133673Y0336742D01*
X0133676Y0336704D02*
X0140101Y0336704D01*
X0140097Y0336666D02*
X0133680Y0336666D01*
X0133683Y0336628D02*
X0140094Y0336628D01*
X0140091Y0336590D02*
X0133686Y0336590D01*
X0133690Y0336552D02*
X0140087Y0336552D01*
X0140084Y0336514D02*
X0133693Y0336514D01*
X0133696Y0336476D02*
X0140081Y0336476D01*
X0140077Y0336438D02*
X0133700Y0336438D01*
X0133703Y0336401D02*
X0140074Y0336401D01*
X0140071Y0336363D02*
X0133706Y0336363D01*
X0133710Y0336325D02*
X0140067Y0336325D01*
X0140057Y0336287D02*
X0133720Y0336287D01*
X0133731Y0336249D02*
X0140047Y0336249D01*
X0140036Y0336211D02*
X0133741Y0336211D01*
X0133751Y0336173D02*
X0140026Y0336173D01*
X0140016Y0336135D02*
X0133761Y0336135D01*
X0133771Y0336098D02*
X0140006Y0336098D01*
X0139996Y0336060D02*
X0133781Y0336060D01*
X0133791Y0336022D02*
X0139986Y0336022D01*
X0139976Y0335984D02*
X0133802Y0335984D01*
X0133812Y0335946D02*
X0139965Y0335946D01*
X0139955Y0335908D02*
X0133822Y0335908D01*
X0133832Y0335870D02*
X0139945Y0335870D01*
X0139935Y0335832D02*
X0133842Y0335832D01*
X0133852Y0335795D02*
X0139925Y0335795D01*
X0139909Y0335757D02*
X0133868Y0335757D01*
X0133886Y0335719D02*
X0139891Y0335719D01*
X0139874Y0335681D02*
X0133903Y0335681D01*
X0133921Y0335643D02*
X0139856Y0335643D01*
X0139838Y0335605D02*
X0133939Y0335605D01*
X0133956Y0335567D02*
X0139821Y0335567D01*
X0139803Y0335529D02*
X0133974Y0335529D01*
X0133992Y0335491D02*
X0139785Y0335491D01*
X0139768Y0335454D02*
X0134009Y0335454D01*
X0134027Y0335416D02*
X0139750Y0335416D01*
X0139732Y0335378D02*
X0134045Y0335378D01*
X0134062Y0335340D02*
X0139715Y0335340D01*
X0139697Y0335302D02*
X0134080Y0335302D01*
X0134100Y0335264D02*
X0139677Y0335264D01*
X0139651Y0335226D02*
X0134127Y0335226D01*
X0134153Y0335188D02*
X0139624Y0335188D01*
X0139598Y0335151D02*
X0134180Y0335151D01*
X0134206Y0335113D02*
X0139571Y0335113D01*
X0139545Y0335075D02*
X0134233Y0335075D01*
X0134259Y0335037D02*
X0139518Y0335037D01*
X0139492Y0334999D02*
X0134286Y0334999D01*
X0134312Y0334961D02*
X0139465Y0334961D01*
X0139439Y0334923D02*
X0134339Y0334923D01*
X0134365Y0334885D02*
X0139412Y0334885D01*
X0139386Y0334847D02*
X0134392Y0334847D01*
X0134419Y0334810D02*
X0139358Y0334810D01*
X0139320Y0334772D02*
X0134457Y0334772D01*
X0134495Y0334734D02*
X0139282Y0334734D01*
X0139244Y0334696D02*
X0134533Y0334696D01*
X0134571Y0334658D02*
X0139206Y0334658D01*
X0139169Y0334620D02*
X0134609Y0334620D01*
X0134646Y0334582D02*
X0139131Y0334582D01*
X0139093Y0334544D02*
X0134684Y0334544D01*
X0134722Y0334507D02*
X0139055Y0334507D01*
X0139017Y0334469D02*
X0134760Y0334469D01*
X0134798Y0334431D02*
X0138979Y0334431D01*
X0138932Y0334393D02*
X0134845Y0334393D01*
X0134900Y0334355D02*
X0138877Y0334355D01*
X0138823Y0334317D02*
X0134954Y0334317D01*
X0135008Y0334279D02*
X0138769Y0334279D01*
X0138715Y0334241D02*
X0135062Y0334241D01*
X0135116Y0334203D02*
X0138661Y0334203D01*
X0138607Y0334166D02*
X0135170Y0334166D01*
X0135225Y0334128D02*
X0138553Y0334128D01*
X0138496Y0334090D02*
X0135281Y0334090D01*
X0135362Y0334052D02*
X0138415Y0334052D01*
X0138334Y0334014D02*
X0135443Y0334014D01*
X0135525Y0333976D02*
X0138252Y0333976D01*
X0138171Y0333938D02*
X0135606Y0333938D01*
X0135687Y0333900D02*
X0138090Y0333900D01*
X0138009Y0333863D02*
X0135768Y0333863D01*
X0135898Y0333825D02*
X0137879Y0333825D01*
X0137738Y0333787D02*
X0136039Y0333787D01*
X0136181Y0333749D02*
X0137596Y0333749D01*
X0137455Y0333711D02*
X0136322Y0333711D01*
X0136742Y0333673D02*
X0137036Y0333673D01*
X0136889Y0330117D02*
X0137449Y0330068D01*
X0137993Y0329922D01*
X0138503Y0329684D01*
X0138964Y0329362D01*
X0139362Y0328964D01*
X0139684Y0328503D01*
X0139922Y0327993D01*
X0140068Y0327449D01*
X0140117Y0326889D01*
X0140068Y0326328D01*
X0139922Y0325784D01*
X0139684Y0325274D01*
X0139362Y0324813D01*
X0138964Y0324415D01*
X0138503Y0324093D01*
X0137993Y0323855D01*
X0137449Y0323709D01*
X0136889Y0323660D01*
X0136328Y0323709D01*
X0135784Y0323855D01*
X0135274Y0324093D01*
X0134813Y0324415D01*
X0134415Y0324813D01*
X0134093Y0325274D01*
X0133855Y0325784D01*
X0133709Y0326328D01*
X0133660Y0326889D01*
X0133709Y0327449D01*
X0133855Y0327993D01*
X0134093Y0328503D01*
X0134415Y0328964D01*
X0134813Y0329362D01*
X0135274Y0329684D01*
X0135784Y0329922D01*
X0136328Y0330068D01*
X0136889Y0330117D01*
X0136941Y0330112D02*
X0136836Y0330112D01*
X0136404Y0330074D02*
X0137373Y0330074D01*
X0137566Y0330037D02*
X0136212Y0330037D01*
X0136070Y0329999D02*
X0137707Y0329999D01*
X0137848Y0329961D02*
X0135929Y0329961D01*
X0135787Y0329923D02*
X0137990Y0329923D01*
X0138072Y0329885D02*
X0135705Y0329885D01*
X0135624Y0329847D02*
X0138154Y0329847D01*
X0138235Y0329809D02*
X0135542Y0329809D01*
X0135461Y0329771D02*
X0138316Y0329771D01*
X0138397Y0329733D02*
X0135380Y0329733D01*
X0135299Y0329696D02*
X0138478Y0329696D01*
X0138541Y0329658D02*
X0135236Y0329658D01*
X0135182Y0329620D02*
X0138595Y0329620D01*
X0138649Y0329582D02*
X0135128Y0329582D01*
X0135074Y0329544D02*
X0138703Y0329544D01*
X0138757Y0329506D02*
X0135020Y0329506D01*
X0134966Y0329468D02*
X0138812Y0329468D01*
X0138866Y0329430D02*
X0134911Y0329430D01*
X0134857Y0329393D02*
X0138920Y0329393D01*
X0138971Y0329355D02*
X0134806Y0329355D01*
X0134768Y0329317D02*
X0139009Y0329317D01*
X0139047Y0329279D02*
X0134730Y0329279D01*
X0134693Y0329241D02*
X0139085Y0329241D01*
X0139122Y0329203D02*
X0134655Y0329203D01*
X0134617Y0329165D02*
X0139160Y0329165D01*
X0139198Y0329127D02*
X0134579Y0329127D01*
X0134541Y0329089D02*
X0139236Y0329089D01*
X0139274Y0329052D02*
X0134503Y0329052D01*
X0134465Y0329014D02*
X0139312Y0329014D01*
X0139350Y0328976D02*
X0134427Y0328976D01*
X0134397Y0328938D02*
X0139380Y0328938D01*
X0139406Y0328900D02*
X0134371Y0328900D01*
X0134344Y0328862D02*
X0139433Y0328862D01*
X0139459Y0328824D02*
X0134318Y0328824D01*
X0134291Y0328786D02*
X0139486Y0328786D01*
X0139512Y0328749D02*
X0134265Y0328749D01*
X0134238Y0328711D02*
X0139539Y0328711D01*
X0139565Y0328673D02*
X0134212Y0328673D01*
X0134185Y0328635D02*
X0139592Y0328635D01*
X0139618Y0328597D02*
X0134159Y0328597D01*
X0134132Y0328559D02*
X0139645Y0328559D01*
X0139671Y0328521D02*
X0134106Y0328521D01*
X0134084Y0328483D02*
X0139693Y0328483D01*
X0139711Y0328446D02*
X0134066Y0328446D01*
X0134049Y0328408D02*
X0139729Y0328408D01*
X0139746Y0328370D02*
X0134031Y0328370D01*
X0134013Y0328332D02*
X0139764Y0328332D01*
X0139782Y0328294D02*
X0133996Y0328294D01*
X0133978Y0328256D02*
X0139799Y0328256D01*
X0139817Y0328218D02*
X0133960Y0328218D01*
X0133943Y0328180D02*
X0139835Y0328180D01*
X0139852Y0328142D02*
X0133925Y0328142D01*
X0133907Y0328105D02*
X0139870Y0328105D01*
X0139888Y0328067D02*
X0133890Y0328067D01*
X0133872Y0328029D02*
X0139905Y0328029D01*
X0139923Y0327991D02*
X0133855Y0327991D01*
X0133844Y0327953D02*
X0139933Y0327953D01*
X0139943Y0327915D02*
X0133834Y0327915D01*
X0133824Y0327877D02*
X0139953Y0327877D01*
X0139963Y0327839D02*
X0133814Y0327839D01*
X0133804Y0327802D02*
X0139973Y0327802D01*
X0139983Y0327764D02*
X0133794Y0327764D01*
X0133784Y0327726D02*
X0139994Y0327726D01*
X0140004Y0327688D02*
X0133773Y0327688D01*
X0133763Y0327650D02*
X0140014Y0327650D01*
X0140024Y0327612D02*
X0133753Y0327612D01*
X0133743Y0327574D02*
X0140034Y0327574D01*
X0140044Y0327536D02*
X0133733Y0327536D01*
X0133723Y0327498D02*
X0140055Y0327498D01*
X0140065Y0327461D02*
X0133713Y0327461D01*
X0133707Y0327423D02*
X0140070Y0327423D01*
X0140073Y0327385D02*
X0133704Y0327385D01*
X0133700Y0327347D02*
X0140077Y0327347D01*
X0140080Y0327309D02*
X0133697Y0327309D01*
X0133694Y0327271D02*
X0140083Y0327271D01*
X0140087Y0327233D02*
X0133691Y0327233D01*
X0133687Y0327195D02*
X0140090Y0327195D01*
X0140093Y0327158D02*
X0133684Y0327158D01*
X0133681Y0327120D02*
X0140097Y0327120D01*
X0140100Y0327082D02*
X0133677Y0327082D01*
X0133674Y0327044D02*
X0140103Y0327044D01*
X0140107Y0327006D02*
X0133671Y0327006D01*
X0133667Y0326968D02*
X0140110Y0326968D01*
X0140113Y0326930D02*
X0133664Y0326930D01*
X0133661Y0326892D02*
X0140117Y0326892D01*
X0140114Y0326854D02*
X0133663Y0326854D01*
X0133667Y0326817D02*
X0140111Y0326817D01*
X0140107Y0326779D02*
X0133670Y0326779D01*
X0133673Y0326741D02*
X0140104Y0326741D01*
X0140101Y0326703D02*
X0133677Y0326703D01*
X0133680Y0326665D02*
X0140097Y0326665D01*
X0140094Y0326627D02*
X0133683Y0326627D01*
X0133687Y0326589D02*
X0140091Y0326589D01*
X0140087Y0326551D02*
X0133690Y0326551D01*
X0133693Y0326514D02*
X0140084Y0326514D01*
X0140081Y0326476D02*
X0133696Y0326476D01*
X0133700Y0326438D02*
X0140077Y0326438D01*
X0140074Y0326400D02*
X0133703Y0326400D01*
X0133706Y0326362D02*
X0140071Y0326362D01*
X0140067Y0326324D02*
X0133710Y0326324D01*
X0133721Y0326286D02*
X0140057Y0326286D01*
X0140046Y0326248D02*
X0133731Y0326248D01*
X0133741Y0326211D02*
X0140036Y0326211D01*
X0140026Y0326173D02*
X0133751Y0326173D01*
X0133761Y0326135D02*
X0140016Y0326135D01*
X0140006Y0326097D02*
X0133771Y0326097D01*
X0133782Y0326059D02*
X0139996Y0326059D01*
X0139985Y0326021D02*
X0133792Y0326021D01*
X0133802Y0325983D02*
X0139975Y0325983D01*
X0139965Y0325945D02*
X0133812Y0325945D01*
X0133822Y0325907D02*
X0139955Y0325907D01*
X0139945Y0325870D02*
X0133832Y0325870D01*
X0133842Y0325832D02*
X0139935Y0325832D01*
X0139925Y0325794D02*
X0133853Y0325794D01*
X0133868Y0325756D02*
X0139909Y0325756D01*
X0139891Y0325718D02*
X0133886Y0325718D01*
X0133904Y0325680D02*
X0139873Y0325680D01*
X0139856Y0325642D02*
X0133921Y0325642D01*
X0133939Y0325604D02*
X0139838Y0325604D01*
X0139820Y0325567D02*
X0133957Y0325567D01*
X0133974Y0325529D02*
X0139803Y0325529D01*
X0139785Y0325491D02*
X0133992Y0325491D01*
X0134010Y0325453D02*
X0139767Y0325453D01*
X0139750Y0325415D02*
X0134027Y0325415D01*
X0134045Y0325377D02*
X0139732Y0325377D01*
X0139714Y0325339D02*
X0134063Y0325339D01*
X0134080Y0325301D02*
X0139697Y0325301D01*
X0139677Y0325263D02*
X0134101Y0325263D01*
X0134127Y0325226D02*
X0139650Y0325226D01*
X0139624Y0325188D02*
X0134154Y0325188D01*
X0134180Y0325150D02*
X0139597Y0325150D01*
X0139571Y0325112D02*
X0134207Y0325112D01*
X0134233Y0325074D02*
X0139544Y0325074D01*
X0139518Y0325036D02*
X0134260Y0325036D01*
X0134286Y0324998D02*
X0139491Y0324998D01*
X0139465Y0324960D02*
X0134313Y0324960D01*
X0134339Y0324923D02*
X0139438Y0324923D01*
X0139412Y0324885D02*
X0134366Y0324885D01*
X0134392Y0324847D02*
X0139385Y0324847D01*
X0139357Y0324809D02*
X0134420Y0324809D01*
X0134458Y0324771D02*
X0139319Y0324771D01*
X0139282Y0324733D02*
X0134496Y0324733D01*
X0134533Y0324695D02*
X0139244Y0324695D01*
X0139206Y0324657D02*
X0134571Y0324657D01*
X0134609Y0324619D02*
X0139168Y0324619D01*
X0139130Y0324582D02*
X0134647Y0324582D01*
X0134685Y0324544D02*
X0139092Y0324544D01*
X0139054Y0324506D02*
X0134723Y0324506D01*
X0134761Y0324468D02*
X0139016Y0324468D01*
X0138979Y0324430D02*
X0134799Y0324430D01*
X0134846Y0324392D02*
X0138931Y0324392D01*
X0138877Y0324354D02*
X0134901Y0324354D01*
X0134955Y0324316D02*
X0138822Y0324316D01*
X0138768Y0324279D02*
X0135009Y0324279D01*
X0135063Y0324241D02*
X0138714Y0324241D01*
X0138660Y0324203D02*
X0135117Y0324203D01*
X0135171Y0324165D02*
X0138606Y0324165D01*
X0138552Y0324127D02*
X0135226Y0324127D01*
X0135282Y0324089D02*
X0138495Y0324089D01*
X0138413Y0324051D02*
X0135364Y0324051D01*
X0135445Y0324013D02*
X0138332Y0324013D01*
X0138251Y0323976D02*
X0135526Y0323976D01*
X0135607Y0323938D02*
X0138170Y0323938D01*
X0138089Y0323900D02*
X0135689Y0323900D01*
X0135770Y0323862D02*
X0138007Y0323862D01*
X0137877Y0323824D02*
X0135900Y0323824D01*
X0136042Y0323786D02*
X0137735Y0323786D01*
X0137594Y0323748D02*
X0136183Y0323748D01*
X0136325Y0323710D02*
X0137453Y0323710D01*
X0137028Y0323672D02*
X0136749Y0323672D01*
X0133641Y0320137D02*
X0140137Y0320137D01*
X0140137Y0313641D01*
X0133641Y0313641D01*
X0133641Y0320137D01*
X0133641Y0320112D02*
X0140137Y0320112D01*
X0140137Y0320074D02*
X0133641Y0320074D01*
X0133641Y0320036D02*
X0140137Y0320036D01*
X0140137Y0319998D02*
X0133641Y0319998D01*
X0133641Y0319960D02*
X0140137Y0319960D01*
X0140137Y0319922D02*
X0133641Y0319922D01*
X0133641Y0319884D02*
X0140137Y0319884D01*
X0140137Y0319846D02*
X0133641Y0319846D01*
X0133641Y0319809D02*
X0140137Y0319809D01*
X0140137Y0319771D02*
X0133641Y0319771D01*
X0133641Y0319733D02*
X0140137Y0319733D01*
X0140137Y0319695D02*
X0133641Y0319695D01*
X0133641Y0319657D02*
X0140137Y0319657D01*
X0140137Y0319619D02*
X0133641Y0319619D01*
X0133641Y0319581D02*
X0140137Y0319581D01*
X0140137Y0319543D02*
X0133641Y0319543D01*
X0133641Y0319505D02*
X0140137Y0319505D01*
X0140137Y0319468D02*
X0133641Y0319468D01*
X0133641Y0319430D02*
X0140137Y0319430D01*
X0140137Y0319392D02*
X0133641Y0319392D01*
X0133641Y0319354D02*
X0140137Y0319354D01*
X0140137Y0319316D02*
X0133641Y0319316D01*
X0133641Y0319278D02*
X0140137Y0319278D01*
X0140137Y0319240D02*
X0133641Y0319240D01*
X0133641Y0319202D02*
X0140137Y0319202D01*
X0140137Y0319165D02*
X0133641Y0319165D01*
X0133641Y0319127D02*
X0140137Y0319127D01*
X0140137Y0319089D02*
X0133641Y0319089D01*
X0133641Y0319051D02*
X0140137Y0319051D01*
X0140137Y0319013D02*
X0133641Y0319013D01*
X0133641Y0318975D02*
X0140137Y0318975D01*
X0140137Y0318937D02*
X0133641Y0318937D01*
X0133641Y0318899D02*
X0140137Y0318899D01*
X0140137Y0318862D02*
X0133641Y0318862D01*
X0133641Y0318824D02*
X0140137Y0318824D01*
X0140137Y0318786D02*
X0133641Y0318786D01*
X0133641Y0318748D02*
X0140137Y0318748D01*
X0140137Y0318710D02*
X0133641Y0318710D01*
X0133641Y0318672D02*
X0140137Y0318672D01*
X0140137Y0318634D02*
X0133641Y0318634D01*
X0133641Y0318596D02*
X0140137Y0318596D01*
X0140137Y0318558D02*
X0133641Y0318558D01*
X0133641Y0318521D02*
X0140137Y0318521D01*
X0140137Y0318483D02*
X0133641Y0318483D01*
X0133641Y0318445D02*
X0140137Y0318445D01*
X0140137Y0318407D02*
X0133641Y0318407D01*
X0133641Y0318369D02*
X0140137Y0318369D01*
X0140137Y0318331D02*
X0133641Y0318331D01*
X0133641Y0318293D02*
X0140137Y0318293D01*
X0140137Y0318255D02*
X0133641Y0318255D01*
X0133641Y0318218D02*
X0140137Y0318218D01*
X0140137Y0318180D02*
X0133641Y0318180D01*
X0133641Y0318142D02*
X0140137Y0318142D01*
X0140137Y0318104D02*
X0133641Y0318104D01*
X0133641Y0318066D02*
X0140137Y0318066D01*
X0140137Y0318028D02*
X0133641Y0318028D01*
X0133641Y0317990D02*
X0140137Y0317990D01*
X0140137Y0317952D02*
X0133641Y0317952D01*
X0133641Y0317914D02*
X0140137Y0317914D01*
X0140137Y0317877D02*
X0133641Y0317877D01*
X0133641Y0317839D02*
X0140137Y0317839D01*
X0140137Y0317801D02*
X0133641Y0317801D01*
X0133641Y0317763D02*
X0140137Y0317763D01*
X0140137Y0317725D02*
X0133641Y0317725D01*
X0133641Y0317687D02*
X0140137Y0317687D01*
X0140137Y0317649D02*
X0133641Y0317649D01*
X0133641Y0317611D02*
X0140137Y0317611D01*
X0140137Y0317574D02*
X0133641Y0317574D01*
X0133641Y0317536D02*
X0140137Y0317536D01*
X0140137Y0317498D02*
X0133641Y0317498D01*
X0133641Y0317460D02*
X0140137Y0317460D01*
X0140137Y0317422D02*
X0133641Y0317422D01*
X0133641Y0317384D02*
X0140137Y0317384D01*
X0140137Y0317346D02*
X0133641Y0317346D01*
X0133641Y0317308D02*
X0140137Y0317308D01*
X0140137Y0317270D02*
X0133641Y0317270D01*
X0133641Y0317233D02*
X0140137Y0317233D01*
X0140137Y0317195D02*
X0133641Y0317195D01*
X0133641Y0317157D02*
X0140137Y0317157D01*
X0140137Y0317119D02*
X0133641Y0317119D01*
X0133641Y0317081D02*
X0140137Y0317081D01*
X0140137Y0317043D02*
X0133641Y0317043D01*
X0133641Y0317005D02*
X0140137Y0317005D01*
X0140137Y0316967D02*
X0133641Y0316967D01*
X0133641Y0316930D02*
X0140137Y0316930D01*
X0140137Y0316892D02*
X0133641Y0316892D01*
X0133641Y0316854D02*
X0140137Y0316854D01*
X0140137Y0316816D02*
X0133641Y0316816D01*
X0133641Y0316778D02*
X0140137Y0316778D01*
X0140137Y0316740D02*
X0133641Y0316740D01*
X0133641Y0316702D02*
X0140137Y0316702D01*
X0140137Y0316664D02*
X0133641Y0316664D01*
X0133641Y0316627D02*
X0140137Y0316627D01*
X0140137Y0316589D02*
X0133641Y0316589D01*
X0133641Y0316551D02*
X0140137Y0316551D01*
X0140137Y0316513D02*
X0133641Y0316513D01*
X0133641Y0316475D02*
X0140137Y0316475D01*
X0140137Y0316437D02*
X0133641Y0316437D01*
X0133641Y0316399D02*
X0140137Y0316399D01*
X0140137Y0316361D02*
X0133641Y0316361D01*
X0133641Y0316323D02*
X0140137Y0316323D01*
X0140137Y0316286D02*
X0133641Y0316286D01*
X0133641Y0316248D02*
X0140137Y0316248D01*
X0140137Y0316210D02*
X0133641Y0316210D01*
X0133641Y0316172D02*
X0140137Y0316172D01*
X0140137Y0316134D02*
X0133641Y0316134D01*
X0133641Y0316096D02*
X0140137Y0316096D01*
X0140137Y0316058D02*
X0133641Y0316058D01*
X0133641Y0316020D02*
X0140137Y0316020D01*
X0140137Y0315983D02*
X0133641Y0315983D01*
X0133641Y0315945D02*
X0140137Y0315945D01*
X0140137Y0315907D02*
X0133641Y0315907D01*
X0133641Y0315869D02*
X0140137Y0315869D01*
X0140137Y0315831D02*
X0133641Y0315831D01*
X0133641Y0315793D02*
X0140137Y0315793D01*
X0140137Y0315755D02*
X0133641Y0315755D01*
X0133641Y0315717D02*
X0140137Y0315717D01*
X0140137Y0315679D02*
X0133641Y0315679D01*
X0133641Y0315642D02*
X0140137Y0315642D01*
X0140137Y0315604D02*
X0133641Y0315604D01*
X0133641Y0315566D02*
X0140137Y0315566D01*
X0140137Y0315528D02*
X0133641Y0315528D01*
X0133641Y0315490D02*
X0140137Y0315490D01*
X0140137Y0315452D02*
X0133641Y0315452D01*
X0133641Y0315414D02*
X0140137Y0315414D01*
X0140137Y0315376D02*
X0133641Y0315376D01*
X0133641Y0315339D02*
X0140137Y0315339D01*
X0140137Y0315301D02*
X0133641Y0315301D01*
X0133641Y0315263D02*
X0140137Y0315263D01*
X0140137Y0315225D02*
X0133641Y0315225D01*
X0133641Y0315187D02*
X0140137Y0315187D01*
X0140137Y0315149D02*
X0133641Y0315149D01*
X0133641Y0315111D02*
X0140137Y0315111D01*
X0140137Y0315073D02*
X0133641Y0315073D01*
X0133641Y0315035D02*
X0140137Y0315035D01*
X0140137Y0314998D02*
X0133641Y0314998D01*
X0133641Y0314960D02*
X0140137Y0314960D01*
X0140137Y0314922D02*
X0133641Y0314922D01*
X0133641Y0314884D02*
X0140137Y0314884D01*
X0140137Y0314846D02*
X0133641Y0314846D01*
X0133641Y0314808D02*
X0140137Y0314808D01*
X0140137Y0314770D02*
X0133641Y0314770D01*
X0133641Y0314732D02*
X0140137Y0314732D01*
X0140137Y0314695D02*
X0133641Y0314695D01*
X0133641Y0314657D02*
X0140137Y0314657D01*
X0140137Y0314619D02*
X0133641Y0314619D01*
X0133641Y0314581D02*
X0140137Y0314581D01*
X0140137Y0314543D02*
X0133641Y0314543D01*
X0133641Y0314505D02*
X0140137Y0314505D01*
X0140137Y0314467D02*
X0133641Y0314467D01*
X0133641Y0314429D02*
X0140137Y0314429D01*
X0140137Y0314392D02*
X0133641Y0314392D01*
X0133641Y0314354D02*
X0140137Y0314354D01*
X0140137Y0314316D02*
X0133641Y0314316D01*
X0133641Y0314278D02*
X0140137Y0314278D01*
X0140137Y0314240D02*
X0133641Y0314240D01*
X0133641Y0314202D02*
X0140137Y0314202D01*
X0140137Y0314164D02*
X0133641Y0314164D01*
X0133641Y0314126D02*
X0140137Y0314126D01*
X0140137Y0314088D02*
X0133641Y0314088D01*
X0133641Y0314051D02*
X0140137Y0314051D01*
X0140137Y0314013D02*
X0133641Y0314013D01*
X0133641Y0313975D02*
X0140137Y0313975D01*
X0140137Y0313937D02*
X0133641Y0313937D01*
X0133641Y0313899D02*
X0140137Y0313899D01*
X0140137Y0313861D02*
X0133641Y0313861D01*
X0133641Y0313823D02*
X0140137Y0313823D01*
X0140137Y0313785D02*
X0133641Y0313785D01*
X0133641Y0313748D02*
X0140137Y0313748D01*
X0140137Y0313710D02*
X0133641Y0313710D01*
X0133641Y0313672D02*
X0140137Y0313672D01*
X0140113Y0336931D02*
X0133664Y0336931D01*
X0133667Y0336969D02*
X0140110Y0336969D01*
X0140107Y0337007D02*
X0133671Y0337007D01*
X0133674Y0337045D02*
X0140103Y0337045D01*
X0140100Y0337082D02*
X0133677Y0337082D01*
X0133681Y0337120D02*
X0140097Y0337120D01*
X0140093Y0337158D02*
X0133684Y0337158D01*
X0133687Y0337196D02*
X0140090Y0337196D01*
X0140087Y0337234D02*
X0133691Y0337234D01*
X0133694Y0337272D02*
X0140083Y0337272D01*
X0140080Y0337310D02*
X0133697Y0337310D01*
X0133701Y0337348D02*
X0140077Y0337348D01*
X0140073Y0337386D02*
X0133704Y0337386D01*
X0133707Y0337423D02*
X0140070Y0337423D01*
X0140064Y0337461D02*
X0133713Y0337461D01*
X0133723Y0337499D02*
X0140054Y0337499D01*
X0140044Y0337537D02*
X0133733Y0337537D01*
X0133743Y0337575D02*
X0140034Y0337575D01*
X0140024Y0337613D02*
X0133753Y0337613D01*
X0133763Y0337651D02*
X0140014Y0337651D01*
X0140004Y0337689D02*
X0133774Y0337689D01*
X0133784Y0337726D02*
X0139993Y0337726D01*
X0139983Y0337764D02*
X0133794Y0337764D01*
X0133804Y0337802D02*
X0139973Y0337802D01*
X0139963Y0337840D02*
X0133814Y0337840D01*
X0133824Y0337878D02*
X0139953Y0337878D01*
X0139943Y0337916D02*
X0133834Y0337916D01*
X0133845Y0337954D02*
X0139933Y0337954D01*
X0139922Y0337992D02*
X0133855Y0337992D01*
X0133872Y0338030D02*
X0139905Y0338030D01*
X0139887Y0338067D02*
X0133890Y0338067D01*
X0133908Y0338105D02*
X0139870Y0338105D01*
X0139852Y0338143D02*
X0133925Y0338143D01*
X0133943Y0338181D02*
X0139834Y0338181D01*
X0139817Y0338219D02*
X0133961Y0338219D01*
X0133978Y0338257D02*
X0139799Y0338257D01*
X0139781Y0338295D02*
X0133996Y0338295D01*
X0134014Y0338333D02*
X0139764Y0338333D01*
X0139746Y0338370D02*
X0134031Y0338370D01*
X0134049Y0338408D02*
X0139728Y0338408D01*
X0139711Y0338446D02*
X0134067Y0338446D01*
X0134084Y0338484D02*
X0139693Y0338484D01*
X0139671Y0338522D02*
X0134106Y0338522D01*
X0134133Y0338560D02*
X0139644Y0338560D01*
X0139618Y0338598D02*
X0134159Y0338598D01*
X0134186Y0338636D02*
X0139591Y0338636D01*
X0139565Y0338673D02*
X0134212Y0338673D01*
X0134239Y0338711D02*
X0139538Y0338711D01*
X0139512Y0338749D02*
X0134265Y0338749D01*
X0134292Y0338787D02*
X0139485Y0338787D01*
X0139459Y0338825D02*
X0134318Y0338825D01*
X0134345Y0338863D02*
X0139432Y0338863D01*
X0139406Y0338901D02*
X0134371Y0338901D01*
X0134398Y0338939D02*
X0139379Y0338939D01*
X0139349Y0338977D02*
X0134428Y0338977D01*
X0134466Y0339014D02*
X0139311Y0339014D01*
X0139273Y0339052D02*
X0134504Y0339052D01*
X0134542Y0339090D02*
X0139235Y0339090D01*
X0139198Y0339128D02*
X0134580Y0339128D01*
X0134618Y0339166D02*
X0139160Y0339166D01*
X0139122Y0339204D02*
X0134655Y0339204D01*
X0134693Y0339242D02*
X0139084Y0339242D01*
X0139046Y0339280D02*
X0134731Y0339280D01*
X0134769Y0339317D02*
X0139008Y0339317D01*
X0138970Y0339355D02*
X0134807Y0339355D01*
X0134858Y0339393D02*
X0138919Y0339393D01*
X0138865Y0339431D02*
X0134912Y0339431D01*
X0134967Y0339469D02*
X0138811Y0339469D01*
X0138756Y0339507D02*
X0135021Y0339507D01*
X0135075Y0339545D02*
X0138702Y0339545D01*
X0138648Y0339583D02*
X0135129Y0339583D01*
X0135183Y0339621D02*
X0138594Y0339621D01*
X0138540Y0339658D02*
X0135237Y0339658D01*
X0135300Y0339696D02*
X0138477Y0339696D01*
X0138396Y0339734D02*
X0135381Y0339734D01*
X0135463Y0339772D02*
X0138315Y0339772D01*
X0138233Y0339810D02*
X0135544Y0339810D01*
X0135625Y0339848D02*
X0138152Y0339848D01*
X0138071Y0339886D02*
X0135706Y0339886D01*
X0135790Y0339924D02*
X0137987Y0339924D01*
X0137846Y0339961D02*
X0135931Y0339961D01*
X0136073Y0339999D02*
X0137704Y0339999D01*
X0137563Y0340037D02*
X0136214Y0340037D01*
X0136412Y0340075D02*
X0137365Y0340075D01*
X0136934Y0340113D02*
X0136844Y0340113D01*
X0136889Y0343660D02*
X0137449Y0343709D01*
X0137993Y0343855D01*
X0138503Y0344093D01*
X0138964Y0344415D01*
X0139362Y0344813D01*
X0139684Y0345274D01*
X0139922Y0345784D01*
X0140068Y0346328D01*
X0140117Y0346889D01*
X0140068Y0347449D01*
X0139922Y0347993D01*
X0139684Y0348503D01*
X0139362Y0348964D01*
X0138964Y0349362D01*
X0138503Y0349684D01*
X0137993Y0349922D01*
X0137449Y0350068D01*
X0136889Y0350117D01*
X0136328Y0350068D01*
X0135784Y0349922D01*
X0135274Y0349684D01*
X0134813Y0349362D01*
X0134415Y0348964D01*
X0134093Y0348503D01*
X0133855Y0347993D01*
X0133709Y0347449D01*
X0133660Y0346889D01*
X0133709Y0346328D01*
X0133855Y0345784D01*
X0134093Y0345274D01*
X0134415Y0344813D01*
X0134813Y0344415D01*
X0135274Y0344093D01*
X0135784Y0343855D01*
X0136328Y0343709D01*
X0136889Y0343660D01*
X0137043Y0343674D02*
X0136734Y0343674D01*
X0136320Y0343712D02*
X0137458Y0343712D01*
X0137599Y0343750D02*
X0136178Y0343750D01*
X0136037Y0343787D02*
X0137740Y0343787D01*
X0137882Y0343825D02*
X0135895Y0343825D01*
X0135767Y0343863D02*
X0138010Y0343863D01*
X0138092Y0343901D02*
X0135686Y0343901D01*
X0135604Y0343939D02*
X0138173Y0343939D01*
X0138254Y0343977D02*
X0135523Y0343977D01*
X0135442Y0344015D02*
X0138335Y0344015D01*
X0138416Y0344053D02*
X0135361Y0344053D01*
X0135280Y0344091D02*
X0138498Y0344091D01*
X0138553Y0344128D02*
X0135224Y0344128D01*
X0135169Y0344166D02*
X0138608Y0344166D01*
X0138662Y0344204D02*
X0135115Y0344204D01*
X0135061Y0344242D02*
X0138716Y0344242D01*
X0138770Y0344280D02*
X0135007Y0344280D01*
X0134953Y0344318D02*
X0138824Y0344318D01*
X0138878Y0344356D02*
X0134899Y0344356D01*
X0134845Y0344394D02*
X0138933Y0344394D01*
X0138980Y0344431D02*
X0134797Y0344431D01*
X0134759Y0344469D02*
X0139018Y0344469D01*
X0139056Y0344507D02*
X0134722Y0344507D01*
X0134684Y0344545D02*
X0139094Y0344545D01*
X0139131Y0344583D02*
X0134646Y0344583D01*
X0134608Y0344621D02*
X0139169Y0344621D01*
X0139207Y0344659D02*
X0134570Y0344659D01*
X0134532Y0344697D02*
X0139245Y0344697D01*
X0139283Y0344735D02*
X0134494Y0344735D01*
X0134456Y0344772D02*
X0139321Y0344772D01*
X0139359Y0344810D02*
X0134418Y0344810D01*
X0134391Y0344848D02*
X0139386Y0344848D01*
X0139413Y0344886D02*
X0134365Y0344886D01*
X0134338Y0344924D02*
X0139439Y0344924D01*
X0139466Y0344962D02*
X0134312Y0344962D01*
X0134285Y0345000D02*
X0139492Y0345000D01*
X0139519Y0345038D02*
X0134259Y0345038D01*
X0134232Y0345075D02*
X0139545Y0345075D01*
X0139572Y0345113D02*
X0134206Y0345113D01*
X0134179Y0345151D02*
X0139598Y0345151D01*
X0139625Y0345189D02*
X0134153Y0345189D01*
X0134126Y0345227D02*
X0139651Y0345227D01*
X0139678Y0345265D02*
X0134100Y0345265D01*
X0134080Y0345303D02*
X0139697Y0345303D01*
X0139715Y0345341D02*
X0134062Y0345341D01*
X0134044Y0345378D02*
X0139733Y0345378D01*
X0139750Y0345416D02*
X0134027Y0345416D01*
X0134009Y0345454D02*
X0139768Y0345454D01*
X0139786Y0345492D02*
X0133991Y0345492D01*
X0133974Y0345530D02*
X0139803Y0345530D01*
X0139821Y0345568D02*
X0133956Y0345568D01*
X0133938Y0345606D02*
X0139839Y0345606D01*
X0139856Y0345644D02*
X0133921Y0345644D01*
X0133903Y0345682D02*
X0139874Y0345682D01*
X0139892Y0345719D02*
X0133885Y0345719D01*
X0133868Y0345757D02*
X0139909Y0345757D01*
X0139925Y0345795D02*
X0133852Y0345795D01*
X0133842Y0345833D02*
X0139935Y0345833D01*
X0139945Y0345871D02*
X0133832Y0345871D01*
X0133822Y0345909D02*
X0139955Y0345909D01*
X0139966Y0345947D02*
X0133812Y0345947D01*
X0133801Y0345985D02*
X0139976Y0345985D01*
X0139986Y0346022D02*
X0133791Y0346022D01*
X0133781Y0346060D02*
X0139996Y0346060D01*
X0140006Y0346098D02*
X0133771Y0346098D01*
X0133761Y0346136D02*
X0140016Y0346136D01*
X0140026Y0346174D02*
X0133751Y0346174D01*
X0133741Y0346212D02*
X0140037Y0346212D01*
X0140047Y0346250D02*
X0133730Y0346250D01*
X0133720Y0346288D02*
X0140057Y0346288D01*
X0140067Y0346326D02*
X0133710Y0346326D01*
X0133706Y0346363D02*
X0140071Y0346363D01*
X0140074Y0346401D02*
X0133703Y0346401D01*
X0133700Y0346439D02*
X0140077Y0346439D01*
X0140081Y0346477D02*
X0133696Y0346477D01*
X0133693Y0346515D02*
X0140084Y0346515D01*
X0140087Y0346553D02*
X0133690Y0346553D01*
X0133686Y0346591D02*
X0140091Y0346591D01*
X0140094Y0346629D02*
X0133683Y0346629D01*
X0133680Y0346666D02*
X0140097Y0346666D01*
X0140101Y0346704D02*
X0133676Y0346704D01*
X0133673Y0346742D02*
X0140104Y0346742D01*
X0140107Y0346780D02*
X0133670Y0346780D01*
X0133666Y0346818D02*
X0140111Y0346818D01*
X0140114Y0346856D02*
X0133663Y0346856D01*
X0133661Y0346894D02*
X0140116Y0346894D01*
X0140113Y0346932D02*
X0133664Y0346932D01*
X0133667Y0346970D02*
X0140110Y0346970D01*
X0140107Y0347007D02*
X0133671Y0347007D01*
X0133674Y0347045D02*
X0140103Y0347045D01*
X0140100Y0347083D02*
X0133677Y0347083D01*
X0133681Y0347121D02*
X0140097Y0347121D01*
X0140093Y0347159D02*
X0133684Y0347159D01*
X0133687Y0347197D02*
X0140090Y0347197D01*
X0140087Y0347235D02*
X0133691Y0347235D01*
X0133694Y0347273D02*
X0140083Y0347273D01*
X0140080Y0347310D02*
X0133697Y0347310D01*
X0133701Y0347348D02*
X0140077Y0347348D01*
X0140073Y0347386D02*
X0133704Y0347386D01*
X0133707Y0347424D02*
X0140070Y0347424D01*
X0140064Y0347462D02*
X0133713Y0347462D01*
X0133723Y0347500D02*
X0140054Y0347500D01*
X0140044Y0347538D02*
X0133733Y0347538D01*
X0133743Y0347576D02*
X0140034Y0347576D01*
X0140024Y0347613D02*
X0133753Y0347613D01*
X0133764Y0347651D02*
X0140014Y0347651D01*
X0140003Y0347689D02*
X0133774Y0347689D01*
X0133784Y0347727D02*
X0139993Y0347727D01*
X0139983Y0347765D02*
X0133794Y0347765D01*
X0133804Y0347803D02*
X0139973Y0347803D01*
X0139963Y0347841D02*
X0133814Y0347841D01*
X0133825Y0347879D02*
X0139953Y0347879D01*
X0139943Y0347917D02*
X0133835Y0347917D01*
X0133845Y0347954D02*
X0139932Y0347954D01*
X0139922Y0347992D02*
X0133855Y0347992D01*
X0133873Y0348030D02*
X0139905Y0348030D01*
X0139887Y0348068D02*
X0133890Y0348068D01*
X0133908Y0348106D02*
X0139869Y0348106D01*
X0139852Y0348144D02*
X0133926Y0348144D01*
X0133943Y0348182D02*
X0139834Y0348182D01*
X0139816Y0348220D02*
X0133961Y0348220D01*
X0133979Y0348257D02*
X0139799Y0348257D01*
X0139781Y0348295D02*
X0133996Y0348295D01*
X0134014Y0348333D02*
X0139763Y0348333D01*
X0139746Y0348371D02*
X0134032Y0348371D01*
X0134049Y0348409D02*
X0139728Y0348409D01*
X0139710Y0348447D02*
X0134067Y0348447D01*
X0134085Y0348485D02*
X0139693Y0348485D01*
X0139670Y0348523D02*
X0134107Y0348523D01*
X0134133Y0348561D02*
X0139644Y0348561D01*
X0139617Y0348598D02*
X0134160Y0348598D01*
X0134186Y0348636D02*
X0139591Y0348636D01*
X0139564Y0348674D02*
X0134213Y0348674D01*
X0134239Y0348712D02*
X0139538Y0348712D01*
X0139511Y0348750D02*
X0134266Y0348750D01*
X0134292Y0348788D02*
X0139485Y0348788D01*
X0139458Y0348826D02*
X0134319Y0348826D01*
X0134345Y0348864D02*
X0139432Y0348864D01*
X0139405Y0348901D02*
X0134372Y0348901D01*
X0134398Y0348939D02*
X0139379Y0348939D01*
X0139348Y0348977D02*
X0134429Y0348977D01*
X0134467Y0349015D02*
X0139310Y0349015D01*
X0139273Y0349053D02*
X0134505Y0349053D01*
X0134542Y0349091D02*
X0139235Y0349091D01*
X0139197Y0349129D02*
X0134580Y0349129D01*
X0134618Y0349167D02*
X0139159Y0349167D01*
X0139121Y0349205D02*
X0134656Y0349205D01*
X0134694Y0349242D02*
X0139083Y0349242D01*
X0139045Y0349280D02*
X0134732Y0349280D01*
X0134770Y0349318D02*
X0139007Y0349318D01*
X0138970Y0349356D02*
X0134808Y0349356D01*
X0134859Y0349394D02*
X0138918Y0349394D01*
X0138864Y0349432D02*
X0134913Y0349432D01*
X0134968Y0349470D02*
X0138810Y0349470D01*
X0138755Y0349508D02*
X0135022Y0349508D01*
X0135076Y0349545D02*
X0138701Y0349545D01*
X0138647Y0349583D02*
X0135130Y0349583D01*
X0135184Y0349621D02*
X0138593Y0349621D01*
X0138539Y0349659D02*
X0135238Y0349659D01*
X0135302Y0349697D02*
X0138475Y0349697D01*
X0138394Y0349735D02*
X0135383Y0349735D01*
X0135464Y0349773D02*
X0138313Y0349773D01*
X0138232Y0349811D02*
X0135545Y0349811D01*
X0135627Y0349848D02*
X0138151Y0349848D01*
X0138069Y0349886D02*
X0135708Y0349886D01*
X0135793Y0349924D02*
X0137985Y0349924D01*
X0137843Y0349962D02*
X0135934Y0349962D01*
X0136075Y0350000D02*
X0137702Y0350000D01*
X0137560Y0350038D02*
X0136217Y0350038D01*
X0136420Y0350076D02*
X0137357Y0350076D01*
X0136926Y0350114D02*
X0136851Y0350114D01*
X0136889Y0353660D02*
X0137449Y0353709D01*
X0137993Y0353855D01*
X0138503Y0354093D01*
X0138964Y0354415D01*
X0139362Y0354813D01*
X0139684Y0355274D01*
X0139922Y0355784D01*
X0140068Y0356328D01*
X0140117Y0356889D01*
X0140068Y0357449D01*
X0139922Y0357993D01*
X0133855Y0357993D01*
X0133709Y0357449D01*
X0133660Y0356889D01*
X0133709Y0356328D01*
X0133855Y0355784D01*
X0134093Y0355274D01*
X0134415Y0354813D01*
X0134813Y0354415D01*
X0135274Y0354093D01*
X0135784Y0353855D01*
X0136328Y0353709D01*
X0136889Y0353660D01*
X0137051Y0353675D02*
X0136726Y0353675D01*
X0136317Y0353712D02*
X0137460Y0353712D01*
X0137602Y0353750D02*
X0136176Y0353750D01*
X0136034Y0353788D02*
X0137743Y0353788D01*
X0137884Y0353826D02*
X0135893Y0353826D01*
X0135765Y0353864D02*
X0138012Y0353864D01*
X0138093Y0353902D02*
X0135684Y0353902D01*
X0135603Y0353940D02*
X0138174Y0353940D01*
X0138255Y0353978D02*
X0135522Y0353978D01*
X0135440Y0354015D02*
X0138337Y0354015D01*
X0138418Y0354053D02*
X0135359Y0354053D01*
X0135278Y0354091D02*
X0138499Y0354091D01*
X0138554Y0354129D02*
X0135223Y0354129D01*
X0135169Y0354167D02*
X0138609Y0354167D01*
X0138663Y0354205D02*
X0135114Y0354205D01*
X0135060Y0354243D02*
X0138717Y0354243D01*
X0138771Y0354281D02*
X0135006Y0354281D01*
X0134952Y0354319D02*
X0138825Y0354319D01*
X0138879Y0354356D02*
X0134898Y0354356D01*
X0134844Y0354394D02*
X0138934Y0354394D01*
X0138981Y0354432D02*
X0134797Y0354432D01*
X0134759Y0354470D02*
X0139018Y0354470D01*
X0139056Y0354508D02*
X0134721Y0354508D01*
X0134683Y0354546D02*
X0139094Y0354546D01*
X0139132Y0354584D02*
X0134645Y0354584D01*
X0134607Y0354622D02*
X0139170Y0354622D01*
X0139208Y0354659D02*
X0134569Y0354659D01*
X0134531Y0354697D02*
X0139246Y0354697D01*
X0139284Y0354735D02*
X0134494Y0354735D01*
X0134456Y0354773D02*
X0139322Y0354773D01*
X0139359Y0354811D02*
X0134418Y0354811D01*
X0134391Y0354849D02*
X0139387Y0354849D01*
X0139413Y0354887D02*
X0134364Y0354887D01*
X0134338Y0354925D02*
X0139440Y0354925D01*
X0139466Y0354962D02*
X0134311Y0354962D01*
X0134285Y0355000D02*
X0139493Y0355000D01*
X0139519Y0355038D02*
X0134258Y0355038D01*
X0134232Y0355076D02*
X0139546Y0355076D01*
X0139572Y0355114D02*
X0134205Y0355114D01*
X0134179Y0355152D02*
X0139599Y0355152D01*
X0139625Y0355190D02*
X0134152Y0355190D01*
X0134126Y0355228D02*
X0139652Y0355228D01*
X0139678Y0355266D02*
X0134099Y0355266D01*
X0134079Y0355303D02*
X0139698Y0355303D01*
X0139715Y0355341D02*
X0134062Y0355341D01*
X0134044Y0355379D02*
X0139733Y0355379D01*
X0139751Y0355417D02*
X0134026Y0355417D01*
X0134009Y0355455D02*
X0139768Y0355455D01*
X0139786Y0355493D02*
X0133991Y0355493D01*
X0133973Y0355531D02*
X0139804Y0355531D01*
X0139821Y0355569D02*
X0133956Y0355569D01*
X0133938Y0355606D02*
X0139839Y0355606D01*
X0139857Y0355644D02*
X0133920Y0355644D01*
X0133903Y0355682D02*
X0139874Y0355682D01*
X0139892Y0355720D02*
X0133885Y0355720D01*
X0133867Y0355758D02*
X0139910Y0355758D01*
X0139925Y0355796D02*
X0133852Y0355796D01*
X0133842Y0355834D02*
X0139935Y0355834D01*
X0139945Y0355872D02*
X0133832Y0355872D01*
X0133822Y0355910D02*
X0139956Y0355910D01*
X0139966Y0355947D02*
X0133811Y0355947D01*
X0133801Y0355985D02*
X0139976Y0355985D01*
X0139986Y0356023D02*
X0133791Y0356023D01*
X0133781Y0356061D02*
X0139996Y0356061D01*
X0140006Y0356099D02*
X0133771Y0356099D01*
X0133761Y0356137D02*
X0140016Y0356137D01*
X0140027Y0356175D02*
X0133751Y0356175D01*
X0133740Y0356213D02*
X0140037Y0356213D01*
X0140047Y0356250D02*
X0133730Y0356250D01*
X0133720Y0356288D02*
X0140057Y0356288D01*
X0140067Y0356326D02*
X0133710Y0356326D01*
X0133706Y0356364D02*
X0140071Y0356364D01*
X0140074Y0356402D02*
X0133703Y0356402D01*
X0133700Y0356440D02*
X0140078Y0356440D01*
X0140081Y0356478D02*
X0133696Y0356478D01*
X0133693Y0356516D02*
X0140084Y0356516D01*
X0140088Y0356554D02*
X0133690Y0356554D01*
X0133686Y0356591D02*
X0140091Y0356591D01*
X0140094Y0356629D02*
X0133683Y0356629D01*
X0133680Y0356667D02*
X0140097Y0356667D01*
X0140101Y0356705D02*
X0133676Y0356705D01*
X0133673Y0356743D02*
X0140104Y0356743D01*
X0140107Y0356781D02*
X0133670Y0356781D01*
X0133666Y0356819D02*
X0140111Y0356819D01*
X0140114Y0356857D02*
X0133663Y0356857D01*
X0133661Y0356894D02*
X0140116Y0356894D01*
X0140113Y0356932D02*
X0133664Y0356932D01*
X0133667Y0356970D02*
X0140110Y0356970D01*
X0140106Y0357008D02*
X0133671Y0357008D01*
X0133674Y0357046D02*
X0140103Y0357046D01*
X0140100Y0357084D02*
X0133677Y0357084D01*
X0133681Y0357122D02*
X0140096Y0357122D01*
X0140093Y0357160D02*
X0133684Y0357160D01*
X0133687Y0357197D02*
X0140090Y0357197D01*
X0140086Y0357235D02*
X0133691Y0357235D01*
X0133694Y0357273D02*
X0140083Y0357273D01*
X0140080Y0357311D02*
X0133697Y0357311D01*
X0133701Y0357349D02*
X0140077Y0357349D01*
X0140073Y0357387D02*
X0133704Y0357387D01*
X0133707Y0357425D02*
X0140070Y0357425D01*
X0140064Y0357463D02*
X0133713Y0357463D01*
X0133723Y0357501D02*
X0140054Y0357501D01*
X0140044Y0357538D02*
X0133733Y0357538D01*
X0133744Y0357576D02*
X0140034Y0357576D01*
X0140024Y0357614D02*
X0133754Y0357614D01*
X0133764Y0357652D02*
X0140013Y0357652D01*
X0140003Y0357690D02*
X0133774Y0357690D01*
X0133784Y0357728D02*
X0139993Y0357728D01*
X0139983Y0357766D02*
X0133794Y0357766D01*
X0133804Y0357804D02*
X0139973Y0357804D01*
X0139963Y0357841D02*
X0133815Y0357841D01*
X0133825Y0357879D02*
X0139952Y0357879D01*
X0139942Y0357917D02*
X0133835Y0357917D01*
X0133845Y0357955D02*
X0139932Y0357955D01*
X0139922Y0357993D02*
X0139684Y0358503D01*
X0139362Y0358964D01*
X0138964Y0359362D01*
X0138503Y0359684D01*
X0137993Y0359922D01*
X0137449Y0360068D01*
X0136889Y0360117D01*
X0136328Y0360068D01*
X0135784Y0359922D01*
X0135274Y0359684D01*
X0134813Y0359362D01*
X0134415Y0358964D01*
X0134093Y0358503D01*
X0133855Y0357993D01*
X0133873Y0358031D02*
X0139904Y0358031D01*
X0139887Y0358069D02*
X0133891Y0358069D01*
X0133908Y0358107D02*
X0139869Y0358107D01*
X0139851Y0358145D02*
X0133926Y0358145D01*
X0133944Y0358182D02*
X0139834Y0358182D01*
X0139816Y0358220D02*
X0133961Y0358220D01*
X0133979Y0358258D02*
X0139798Y0358258D01*
X0139781Y0358296D02*
X0133997Y0358296D01*
X0134014Y0358334D02*
X0139763Y0358334D01*
X0139745Y0358372D02*
X0134032Y0358372D01*
X0134050Y0358410D02*
X0139728Y0358410D01*
X0139710Y0358448D02*
X0134067Y0358448D01*
X0134085Y0358485D02*
X0139692Y0358485D01*
X0139670Y0358523D02*
X0134107Y0358523D01*
X0134134Y0358561D02*
X0139643Y0358561D01*
X0139617Y0358599D02*
X0134160Y0358599D01*
X0134187Y0358637D02*
X0139590Y0358637D01*
X0139564Y0358675D02*
X0134213Y0358675D01*
X0134240Y0358713D02*
X0139537Y0358713D01*
X0139511Y0358751D02*
X0134266Y0358751D01*
X0134293Y0358789D02*
X0139484Y0358789D01*
X0139458Y0358826D02*
X0134319Y0358826D01*
X0134346Y0358864D02*
X0139431Y0358864D01*
X0139405Y0358902D02*
X0134372Y0358902D01*
X0134399Y0358940D02*
X0139378Y0358940D01*
X0139348Y0358978D02*
X0134429Y0358978D01*
X0134467Y0359016D02*
X0139310Y0359016D01*
X0139272Y0359054D02*
X0134505Y0359054D01*
X0134543Y0359092D02*
X0139234Y0359092D01*
X0139196Y0359129D02*
X0134581Y0359129D01*
X0134619Y0359167D02*
X0139158Y0359167D01*
X0139120Y0359205D02*
X0134657Y0359205D01*
X0134695Y0359243D02*
X0139083Y0359243D01*
X0139045Y0359281D02*
X0134733Y0359281D01*
X0134770Y0359319D02*
X0139007Y0359319D01*
X0138969Y0359357D02*
X0134808Y0359357D01*
X0134860Y0359395D02*
X0138917Y0359395D01*
X0138863Y0359432D02*
X0134914Y0359432D01*
X0134969Y0359470D02*
X0138809Y0359470D01*
X0138754Y0359508D02*
X0135023Y0359508D01*
X0135077Y0359546D02*
X0138700Y0359546D01*
X0138646Y0359584D02*
X0135131Y0359584D01*
X0135185Y0359622D02*
X0138592Y0359622D01*
X0138538Y0359660D02*
X0135239Y0359660D01*
X0135303Y0359698D02*
X0138474Y0359698D01*
X0138393Y0359736D02*
X0135384Y0359736D01*
X0135466Y0359773D02*
X0138312Y0359773D01*
X0138230Y0359811D02*
X0135547Y0359811D01*
X0135628Y0359849D02*
X0138149Y0359849D01*
X0138068Y0359887D02*
X0135709Y0359887D01*
X0135795Y0359925D02*
X0137982Y0359925D01*
X0137841Y0359963D02*
X0135936Y0359963D01*
X0136078Y0360001D02*
X0137699Y0360001D01*
X0137558Y0360039D02*
X0136219Y0360039D01*
X0136428Y0360076D02*
X0137349Y0360076D01*
X0136918Y0360114D02*
X0136859Y0360114D01*
X0136889Y0363660D02*
X0137449Y0363709D01*
X0137993Y0363855D01*
X0138503Y0364093D01*
X0138964Y0364415D01*
X0139362Y0364813D01*
X0139684Y0365274D01*
X0139922Y0365784D01*
X0140068Y0366328D01*
X0140117Y0366889D01*
X0140068Y0367449D01*
X0139922Y0367993D01*
X0139684Y0368503D01*
X0139362Y0368964D01*
X0138964Y0369362D01*
X0138503Y0369684D01*
X0137993Y0369922D01*
X0137449Y0370068D01*
X0136889Y0370117D01*
X0136328Y0370068D01*
X0135784Y0369922D01*
X0135274Y0369684D01*
X0134813Y0369362D01*
X0134415Y0368964D01*
X0134093Y0368503D01*
X0133855Y0367993D01*
X0133709Y0367449D01*
X0133660Y0366889D01*
X0133709Y0366328D01*
X0133855Y0365784D01*
X0134093Y0365274D01*
X0134415Y0364813D01*
X0134813Y0364415D01*
X0135274Y0364093D01*
X0135784Y0363855D01*
X0136328Y0363709D01*
X0136889Y0363660D01*
X0137059Y0363675D02*
X0136718Y0363675D01*
X0136314Y0363713D02*
X0137463Y0363713D01*
X0137604Y0363751D02*
X0136173Y0363751D01*
X0136032Y0363789D02*
X0137746Y0363789D01*
X0137887Y0363827D02*
X0135890Y0363827D01*
X0135764Y0363865D02*
X0138013Y0363865D01*
X0138094Y0363902D02*
X0135683Y0363902D01*
X0135601Y0363940D02*
X0138176Y0363940D01*
X0138257Y0363978D02*
X0135520Y0363978D01*
X0135439Y0364016D02*
X0138338Y0364016D01*
X0138419Y0364054D02*
X0135358Y0364054D01*
X0135277Y0364092D02*
X0138501Y0364092D01*
X0138555Y0364130D02*
X0135222Y0364130D01*
X0135168Y0364168D02*
X0138610Y0364168D01*
X0138664Y0364206D02*
X0135113Y0364206D01*
X0135059Y0364243D02*
X0138718Y0364243D01*
X0138772Y0364281D02*
X0135005Y0364281D01*
X0134951Y0364319D02*
X0138826Y0364319D01*
X0138880Y0364357D02*
X0134897Y0364357D01*
X0134843Y0364395D02*
X0138935Y0364395D01*
X0138981Y0364433D02*
X0134796Y0364433D01*
X0134758Y0364471D02*
X0139019Y0364471D01*
X0139057Y0364509D02*
X0134720Y0364509D01*
X0134682Y0364546D02*
X0139095Y0364546D01*
X0139133Y0364584D02*
X0134644Y0364584D01*
X0134606Y0364622D02*
X0139171Y0364622D01*
X0139209Y0364660D02*
X0134569Y0364660D01*
X0134531Y0364698D02*
X0139246Y0364698D01*
X0139284Y0364736D02*
X0134493Y0364736D01*
X0134455Y0364774D02*
X0139322Y0364774D01*
X0139360Y0364812D02*
X0134417Y0364812D01*
X0134390Y0364850D02*
X0139387Y0364850D01*
X0139414Y0364887D02*
X0134364Y0364887D01*
X0134337Y0364925D02*
X0139440Y0364925D01*
X0139467Y0364963D02*
X0134311Y0364963D01*
X0134284Y0365001D02*
X0139493Y0365001D01*
X0139520Y0365039D02*
X0134258Y0365039D01*
X0134231Y0365077D02*
X0139546Y0365077D01*
X0139573Y0365115D02*
X0134205Y0365115D01*
X0134178Y0365153D02*
X0139599Y0365153D01*
X0139626Y0365190D02*
X0134152Y0365190D01*
X0134125Y0365228D02*
X0139652Y0365228D01*
X0139679Y0365266D02*
X0134099Y0365266D01*
X0134079Y0365304D02*
X0139698Y0365304D01*
X0139716Y0365342D02*
X0134061Y0365342D01*
X0134044Y0365380D02*
X0139733Y0365380D01*
X0139751Y0365418D02*
X0134026Y0365418D01*
X0134008Y0365456D02*
X0139769Y0365456D01*
X0139786Y0365494D02*
X0133991Y0365494D01*
X0133973Y0365531D02*
X0139804Y0365531D01*
X0139822Y0365569D02*
X0133955Y0365569D01*
X0133938Y0365607D02*
X0139839Y0365607D01*
X0139857Y0365645D02*
X0133920Y0365645D01*
X0133902Y0365683D02*
X0139875Y0365683D01*
X0139892Y0365721D02*
X0133885Y0365721D01*
X0133867Y0365759D02*
X0139910Y0365759D01*
X0139925Y0365797D02*
X0133852Y0365797D01*
X0133842Y0365834D02*
X0139935Y0365834D01*
X0139946Y0365872D02*
X0133832Y0365872D01*
X0133821Y0365910D02*
X0139956Y0365910D01*
X0139966Y0365948D02*
X0133811Y0365948D01*
X0133801Y0365986D02*
X0139976Y0365986D01*
X0139986Y0366024D02*
X0133791Y0366024D01*
X0133781Y0366062D02*
X0139996Y0366062D01*
X0140007Y0366100D02*
X0133771Y0366100D01*
X0133760Y0366137D02*
X0140017Y0366137D01*
X0140027Y0366175D02*
X0133750Y0366175D01*
X0133740Y0366213D02*
X0140037Y0366213D01*
X0140047Y0366251D02*
X0133730Y0366251D01*
X0133720Y0366289D02*
X0140057Y0366289D01*
X0140067Y0366327D02*
X0133710Y0366327D01*
X0133706Y0366365D02*
X0140071Y0366365D01*
X0140074Y0366403D02*
X0133703Y0366403D01*
X0133700Y0366441D02*
X0140078Y0366441D01*
X0140081Y0366478D02*
X0133696Y0366478D01*
X0133693Y0366516D02*
X0140084Y0366516D01*
X0140088Y0366554D02*
X0133690Y0366554D01*
X0133686Y0366592D02*
X0140091Y0366592D01*
X0140094Y0366630D02*
X0133683Y0366630D01*
X0133680Y0366668D02*
X0140098Y0366668D01*
X0140101Y0366706D02*
X0133676Y0366706D01*
X0133673Y0366744D02*
X0140104Y0366744D01*
X0140108Y0366781D02*
X0133670Y0366781D01*
X0133666Y0366819D02*
X0140111Y0366819D01*
X0140114Y0366857D02*
X0133663Y0366857D01*
X0133661Y0366895D02*
X0140116Y0366895D01*
X0140113Y0366933D02*
X0133664Y0366933D01*
X0133667Y0366971D02*
X0140110Y0366971D01*
X0140106Y0367009D02*
X0133671Y0367009D01*
X0133674Y0367047D02*
X0140103Y0367047D01*
X0140100Y0367085D02*
X0133677Y0367085D01*
X0133681Y0367122D02*
X0140096Y0367122D01*
X0140093Y0367160D02*
X0133684Y0367160D01*
X0133687Y0367198D02*
X0140090Y0367198D01*
X0140086Y0367236D02*
X0133691Y0367236D01*
X0133694Y0367274D02*
X0140083Y0367274D01*
X0140080Y0367312D02*
X0133697Y0367312D01*
X0133701Y0367350D02*
X0140076Y0367350D01*
X0140073Y0367388D02*
X0133704Y0367388D01*
X0133707Y0367425D02*
X0140070Y0367425D01*
X0140064Y0367463D02*
X0133713Y0367463D01*
X0133723Y0367501D02*
X0140054Y0367501D01*
X0140044Y0367539D02*
X0133734Y0367539D01*
X0133744Y0367577D02*
X0140033Y0367577D01*
X0140023Y0367615D02*
X0133754Y0367615D01*
X0133764Y0367653D02*
X0140013Y0367653D01*
X0140003Y0367691D02*
X0133774Y0367691D01*
X0133784Y0367729D02*
X0139993Y0367729D01*
X0139983Y0367766D02*
X0133794Y0367766D01*
X0133805Y0367804D02*
X0139973Y0367804D01*
X0139962Y0367842D02*
X0133815Y0367842D01*
X0133825Y0367880D02*
X0139952Y0367880D01*
X0139942Y0367918D02*
X0133835Y0367918D01*
X0133845Y0367956D02*
X0139932Y0367956D01*
X0139922Y0367994D02*
X0133855Y0367994D01*
X0133873Y0368032D02*
X0139904Y0368032D01*
X0139886Y0368069D02*
X0133891Y0368069D01*
X0133908Y0368107D02*
X0139869Y0368107D01*
X0139851Y0368145D02*
X0133926Y0368145D01*
X0133944Y0368183D02*
X0139833Y0368183D01*
X0139816Y0368221D02*
X0133961Y0368221D01*
X0133979Y0368259D02*
X0139798Y0368259D01*
X0139780Y0368297D02*
X0133997Y0368297D01*
X0134015Y0368335D02*
X0139763Y0368335D01*
X0139745Y0368373D02*
X0134032Y0368373D01*
X0134050Y0368410D02*
X0139727Y0368410D01*
X0139710Y0368448D02*
X0134068Y0368448D01*
X0134085Y0368486D02*
X0139692Y0368486D01*
X0139669Y0368524D02*
X0134108Y0368524D01*
X0134134Y0368562D02*
X0139643Y0368562D01*
X0139616Y0368600D02*
X0134161Y0368600D01*
X0134187Y0368638D02*
X0139590Y0368638D01*
X0139563Y0368676D02*
X0134214Y0368676D01*
X0134240Y0368713D02*
X0139537Y0368713D01*
X0139510Y0368751D02*
X0134267Y0368751D01*
X0134293Y0368789D02*
X0139484Y0368789D01*
X0139457Y0368827D02*
X0134320Y0368827D01*
X0134346Y0368865D02*
X0139431Y0368865D01*
X0139404Y0368903D02*
X0134373Y0368903D01*
X0134399Y0368941D02*
X0139378Y0368941D01*
X0139347Y0368979D02*
X0134430Y0368979D01*
X0134468Y0369016D02*
X0139309Y0369016D01*
X0139271Y0369054D02*
X0134506Y0369054D01*
X0134544Y0369092D02*
X0139233Y0369092D01*
X0139195Y0369130D02*
X0134582Y0369130D01*
X0134620Y0369168D02*
X0139158Y0369168D01*
X0139120Y0369206D02*
X0134657Y0369206D01*
X0134695Y0369244D02*
X0139082Y0369244D01*
X0139044Y0369282D02*
X0134733Y0369282D01*
X0134771Y0369320D02*
X0139006Y0369320D01*
X0138968Y0369357D02*
X0134809Y0369357D01*
X0134861Y0369395D02*
X0138916Y0369395D01*
X0138862Y0369433D02*
X0134915Y0369433D01*
X0134970Y0369471D02*
X0138808Y0369471D01*
X0138753Y0369509D02*
X0135024Y0369509D01*
X0135078Y0369547D02*
X0138699Y0369547D01*
X0138645Y0369585D02*
X0135132Y0369585D01*
X0135186Y0369623D02*
X0138591Y0369623D01*
X0138537Y0369660D02*
X0135240Y0369660D01*
X0135305Y0369698D02*
X0138473Y0369698D01*
X0138391Y0369736D02*
X0135386Y0369736D01*
X0135467Y0369774D02*
X0138310Y0369774D01*
X0138229Y0369812D02*
X0135548Y0369812D01*
X0135630Y0369850D02*
X0138148Y0369850D01*
X0138066Y0369888D02*
X0135711Y0369888D01*
X0135798Y0369926D02*
X0137980Y0369926D01*
X0137838Y0369964D02*
X0135939Y0369964D01*
X0136080Y0370001D02*
X0137697Y0370001D01*
X0137555Y0370039D02*
X0136222Y0370039D01*
X0136436Y0370077D02*
X0137342Y0370077D01*
X0136910Y0370115D02*
X0136867Y0370115D01*
X0136889Y0373660D02*
X0137449Y0373709D01*
X0137993Y0373855D01*
X0138503Y0374093D01*
X0138964Y0374415D01*
X0139362Y0374813D01*
X0139684Y0375274D01*
X0139922Y0375784D01*
X0140068Y0376328D01*
X0140117Y0376889D01*
X0140068Y0377449D01*
X0139922Y0377993D01*
X0139684Y0378503D01*
X0139362Y0378964D01*
X0138964Y0379362D01*
X0138503Y0379684D01*
X0137993Y0379922D01*
X0137449Y0380068D01*
X0136889Y0380117D01*
X0136328Y0380068D01*
X0135784Y0379922D01*
X0135274Y0379684D01*
X0134813Y0379362D01*
X0134415Y0378964D01*
X0134093Y0378503D01*
X0133855Y0377993D01*
X0133709Y0377449D01*
X0133660Y0376889D01*
X0133709Y0376328D01*
X0133855Y0375784D01*
X0134093Y0375274D01*
X0134415Y0374813D01*
X0134813Y0374415D01*
X0135274Y0374093D01*
X0135784Y0373855D01*
X0136328Y0373709D01*
X0136889Y0373660D01*
X0137067Y0373676D02*
X0136710Y0373676D01*
X0136312Y0373714D02*
X0137465Y0373714D01*
X0137607Y0373752D02*
X0136170Y0373752D01*
X0136029Y0373790D02*
X0137748Y0373790D01*
X0137890Y0373827D02*
X0135888Y0373827D01*
X0135762Y0373865D02*
X0138015Y0373865D01*
X0138096Y0373903D02*
X0135681Y0373903D01*
X0135600Y0373941D02*
X0138177Y0373941D01*
X0138258Y0373979D02*
X0135519Y0373979D01*
X0135438Y0374017D02*
X0138340Y0374017D01*
X0138421Y0374055D02*
X0135356Y0374055D01*
X0135275Y0374093D02*
X0138502Y0374093D01*
X0138556Y0374130D02*
X0135221Y0374130D01*
X0135167Y0374168D02*
X0138611Y0374168D01*
X0138665Y0374206D02*
X0135112Y0374206D01*
X0135058Y0374244D02*
X0138719Y0374244D01*
X0138773Y0374282D02*
X0135004Y0374282D01*
X0134950Y0374320D02*
X0138827Y0374320D01*
X0138881Y0374358D02*
X0134896Y0374358D01*
X0134842Y0374396D02*
X0138936Y0374396D01*
X0138982Y0374434D02*
X0134795Y0374434D01*
X0134757Y0374471D02*
X0139020Y0374471D01*
X0139058Y0374509D02*
X0134719Y0374509D01*
X0134682Y0374547D02*
X0139096Y0374547D01*
X0139133Y0374585D02*
X0134644Y0374585D01*
X0134606Y0374623D02*
X0139171Y0374623D01*
X0139209Y0374661D02*
X0134568Y0374661D01*
X0134530Y0374699D02*
X0139247Y0374699D01*
X0139285Y0374737D02*
X0134492Y0374737D01*
X0134454Y0374774D02*
X0139323Y0374774D01*
X0139361Y0374812D02*
X0134416Y0374812D01*
X0134390Y0374850D02*
X0139388Y0374850D01*
X0139414Y0374888D02*
X0134363Y0374888D01*
X0134337Y0374926D02*
X0139441Y0374926D01*
X0139467Y0374964D02*
X0134310Y0374964D01*
X0134284Y0375002D02*
X0139494Y0375002D01*
X0139520Y0375040D02*
X0134257Y0375040D01*
X0134231Y0375078D02*
X0139547Y0375078D01*
X0139573Y0375115D02*
X0134204Y0375115D01*
X0134178Y0375153D02*
X0139600Y0375153D01*
X0139626Y0375191D02*
X0134151Y0375191D01*
X0134125Y0375229D02*
X0139653Y0375229D01*
X0139679Y0375267D02*
X0134098Y0375267D01*
X0134079Y0375305D02*
X0139698Y0375305D01*
X0139716Y0375343D02*
X0134061Y0375343D01*
X0134043Y0375381D02*
X0139734Y0375381D01*
X0139751Y0375418D02*
X0134026Y0375418D01*
X0134008Y0375456D02*
X0139769Y0375456D01*
X0139787Y0375494D02*
X0133990Y0375494D01*
X0133973Y0375532D02*
X0139804Y0375532D01*
X0139822Y0375570D02*
X0133955Y0375570D01*
X0133937Y0375608D02*
X0139840Y0375608D01*
X0139857Y0375646D02*
X0133920Y0375646D01*
X0133902Y0375684D02*
X0139875Y0375684D01*
X0139893Y0375721D02*
X0133884Y0375721D01*
X0133867Y0375759D02*
X0139910Y0375759D01*
X0139926Y0375797D02*
X0133852Y0375797D01*
X0133841Y0375835D02*
X0139936Y0375835D01*
X0139946Y0375873D02*
X0133831Y0375873D01*
X0133821Y0375911D02*
X0139956Y0375911D01*
X0139966Y0375949D02*
X0133811Y0375949D01*
X0133801Y0375987D02*
X0139976Y0375987D01*
X0139986Y0376025D02*
X0133791Y0376025D01*
X0133781Y0376062D02*
X0139997Y0376062D01*
X0140007Y0376100D02*
X0133770Y0376100D01*
X0133760Y0376138D02*
X0140017Y0376138D01*
X0140027Y0376176D02*
X0133750Y0376176D01*
X0133740Y0376214D02*
X0140037Y0376214D01*
X0140047Y0376252D02*
X0133730Y0376252D01*
X0133720Y0376290D02*
X0140057Y0376290D01*
X0140068Y0376328D02*
X0133710Y0376328D01*
X0133706Y0376365D02*
X0140071Y0376365D01*
X0140074Y0376403D02*
X0133703Y0376403D01*
X0133699Y0376441D02*
X0140078Y0376441D01*
X0140081Y0376479D02*
X0133696Y0376479D01*
X0133693Y0376517D02*
X0140084Y0376517D01*
X0140088Y0376555D02*
X0133690Y0376555D01*
X0133686Y0376593D02*
X0140091Y0376593D01*
X0140094Y0376631D02*
X0133683Y0376631D01*
X0133680Y0376669D02*
X0140098Y0376669D01*
X0140101Y0376706D02*
X0133676Y0376706D01*
X0133673Y0376744D02*
X0140104Y0376744D01*
X0140108Y0376782D02*
X0133670Y0376782D01*
X0133666Y0376820D02*
X0140111Y0376820D01*
X0140114Y0376858D02*
X0133663Y0376858D01*
X0133661Y0376896D02*
X0140116Y0376896D01*
X0140113Y0376934D02*
X0133664Y0376934D01*
X0133668Y0376972D02*
X0140110Y0376972D01*
X0140106Y0377009D02*
X0133671Y0377009D01*
X0133674Y0377047D02*
X0140103Y0377047D01*
X0140100Y0377085D02*
X0133678Y0377085D01*
X0133681Y0377123D02*
X0140096Y0377123D01*
X0140093Y0377161D02*
X0133684Y0377161D01*
X0133687Y0377199D02*
X0140090Y0377199D01*
X0140086Y0377237D02*
X0133691Y0377237D01*
X0133694Y0377275D02*
X0140083Y0377275D01*
X0140080Y0377313D02*
X0133697Y0377313D01*
X0133701Y0377350D02*
X0140076Y0377350D01*
X0140073Y0377388D02*
X0133704Y0377388D01*
X0133707Y0377426D02*
X0140070Y0377426D01*
X0140064Y0377464D02*
X0133713Y0377464D01*
X0133724Y0377502D02*
X0140054Y0377502D01*
X0140043Y0377540D02*
X0133734Y0377540D01*
X0133744Y0377578D02*
X0140033Y0377578D01*
X0140023Y0377616D02*
X0133754Y0377616D01*
X0133764Y0377653D02*
X0140013Y0377653D01*
X0140003Y0377691D02*
X0133774Y0377691D01*
X0133784Y0377729D02*
X0139993Y0377729D01*
X0139983Y0377767D02*
X0133795Y0377767D01*
X0133805Y0377805D02*
X0139972Y0377805D01*
X0139962Y0377843D02*
X0133815Y0377843D01*
X0133825Y0377881D02*
X0139952Y0377881D01*
X0139942Y0377919D02*
X0133835Y0377919D01*
X0133845Y0377956D02*
X0139932Y0377956D01*
X0139921Y0377994D02*
X0133856Y0377994D01*
X0133873Y0378032D02*
X0139904Y0378032D01*
X0139886Y0378070D02*
X0133891Y0378070D01*
X0133909Y0378108D02*
X0139868Y0378108D01*
X0139851Y0378146D02*
X0133926Y0378146D01*
X0133944Y0378184D02*
X0139833Y0378184D01*
X0139815Y0378222D02*
X0133962Y0378222D01*
X0133979Y0378260D02*
X0139798Y0378260D01*
X0139780Y0378297D02*
X0133997Y0378297D01*
X0134015Y0378335D02*
X0139762Y0378335D01*
X0139745Y0378373D02*
X0134032Y0378373D01*
X0134050Y0378411D02*
X0139727Y0378411D01*
X0139709Y0378449D02*
X0134068Y0378449D01*
X0134085Y0378487D02*
X0139692Y0378487D01*
X0139669Y0378525D02*
X0134108Y0378525D01*
X0134135Y0378563D02*
X0139642Y0378563D01*
X0139616Y0378600D02*
X0134161Y0378600D01*
X0134188Y0378638D02*
X0139589Y0378638D01*
X0139563Y0378676D02*
X0134214Y0378676D01*
X0134241Y0378714D02*
X0139536Y0378714D01*
X0139510Y0378752D02*
X0134267Y0378752D01*
X0134294Y0378790D02*
X0139483Y0378790D01*
X0139457Y0378828D02*
X0134320Y0378828D01*
X0134347Y0378866D02*
X0139430Y0378866D01*
X0139404Y0378904D02*
X0134373Y0378904D01*
X0134400Y0378941D02*
X0139377Y0378941D01*
X0139346Y0378979D02*
X0134431Y0378979D01*
X0134469Y0379017D02*
X0139308Y0379017D01*
X0139271Y0379055D02*
X0134507Y0379055D01*
X0134545Y0379093D02*
X0139233Y0379093D01*
X0139195Y0379131D02*
X0134582Y0379131D01*
X0134620Y0379169D02*
X0139157Y0379169D01*
X0139119Y0379207D02*
X0134658Y0379207D01*
X0134696Y0379244D02*
X0139081Y0379244D01*
X0139043Y0379282D02*
X0134734Y0379282D01*
X0134772Y0379320D02*
X0139005Y0379320D01*
X0138967Y0379358D02*
X0134810Y0379358D01*
X0134862Y0379396D02*
X0138915Y0379396D01*
X0138861Y0379434D02*
X0134916Y0379434D01*
X0134971Y0379472D02*
X0138807Y0379472D01*
X0138752Y0379510D02*
X0135025Y0379510D01*
X0135079Y0379548D02*
X0138698Y0379548D01*
X0138644Y0379585D02*
X0135133Y0379585D01*
X0135187Y0379623D02*
X0138590Y0379623D01*
X0138536Y0379661D02*
X0135241Y0379661D01*
X0135306Y0379699D02*
X0138471Y0379699D01*
X0138390Y0379737D02*
X0135387Y0379737D01*
X0135469Y0379775D02*
X0138309Y0379775D01*
X0138227Y0379813D02*
X0135550Y0379813D01*
X0135631Y0379851D02*
X0138146Y0379851D01*
X0138065Y0379888D02*
X0135712Y0379888D01*
X0135800Y0379926D02*
X0137977Y0379926D01*
X0137836Y0379964D02*
X0135942Y0379964D01*
X0136083Y0380002D02*
X0137694Y0380002D01*
X0137553Y0380040D02*
X0136224Y0380040D01*
X0136443Y0380078D02*
X0137334Y0380078D01*
X0136902Y0380116D02*
X0136875Y0380116D01*
X0136889Y0383660D02*
X0137449Y0383709D01*
X0137993Y0383855D01*
X0138503Y0384093D01*
X0138964Y0384415D01*
X0139362Y0384813D01*
X0139684Y0385274D01*
X0139922Y0385784D01*
X0140068Y0386328D01*
X0140117Y0386889D01*
X0140068Y0387449D01*
X0139922Y0387993D01*
X0139684Y0388503D01*
X0139362Y0388964D01*
X0138964Y0389362D01*
X0138503Y0389684D01*
X0137993Y0389922D01*
X0137449Y0390068D01*
X0136889Y0390117D01*
X0136328Y0390068D01*
X0135784Y0389922D01*
X0135274Y0389684D01*
X0134813Y0389362D01*
X0134415Y0388964D01*
X0134093Y0388503D01*
X0133855Y0387993D01*
X0133709Y0387449D01*
X0133660Y0386889D01*
X0133709Y0386328D01*
X0133855Y0385784D01*
X0134093Y0385274D01*
X0134415Y0384813D01*
X0134813Y0384415D01*
X0135274Y0384093D01*
X0138503Y0384093D01*
X0138557Y0384131D02*
X0135220Y0384131D01*
X0135274Y0384093D02*
X0135784Y0383855D01*
X0136328Y0383709D01*
X0136889Y0383660D01*
X0137075Y0383677D02*
X0136702Y0383677D01*
X0136309Y0383714D02*
X0137468Y0383714D01*
X0137609Y0383752D02*
X0136168Y0383752D01*
X0136026Y0383790D02*
X0137751Y0383790D01*
X0137892Y0383828D02*
X0135885Y0383828D01*
X0135761Y0383866D02*
X0138016Y0383866D01*
X0138097Y0383904D02*
X0135680Y0383904D01*
X0135598Y0383942D02*
X0138179Y0383942D01*
X0138260Y0383980D02*
X0135517Y0383980D01*
X0135436Y0384018D02*
X0138341Y0384018D01*
X0138422Y0384055D02*
X0135355Y0384055D01*
X0135166Y0384169D02*
X0138612Y0384169D01*
X0138666Y0384207D02*
X0135111Y0384207D01*
X0135057Y0384245D02*
X0138720Y0384245D01*
X0138774Y0384283D02*
X0135003Y0384283D01*
X0134949Y0384321D02*
X0138828Y0384321D01*
X0138882Y0384358D02*
X0134895Y0384358D01*
X0134841Y0384396D02*
X0138937Y0384396D01*
X0138983Y0384434D02*
X0134795Y0384434D01*
X0134757Y0384472D02*
X0139021Y0384472D01*
X0139058Y0384510D02*
X0134719Y0384510D01*
X0134681Y0384548D02*
X0139096Y0384548D01*
X0139134Y0384586D02*
X0134643Y0384586D01*
X0134605Y0384624D02*
X0139172Y0384624D01*
X0139210Y0384662D02*
X0134567Y0384662D01*
X0134529Y0384699D02*
X0139248Y0384699D01*
X0139286Y0384737D02*
X0134491Y0384737D01*
X0134454Y0384775D02*
X0139324Y0384775D01*
X0139361Y0384813D02*
X0134416Y0384813D01*
X0134389Y0384851D02*
X0139388Y0384851D01*
X0139415Y0384889D02*
X0134363Y0384889D01*
X0134336Y0384927D02*
X0139441Y0384927D01*
X0139468Y0384965D02*
X0134310Y0384965D01*
X0134283Y0385002D02*
X0139494Y0385002D01*
X0139521Y0385040D02*
X0134257Y0385040D01*
X0134230Y0385078D02*
X0139547Y0385078D01*
X0139574Y0385116D02*
X0134204Y0385116D01*
X0134177Y0385154D02*
X0139600Y0385154D01*
X0139627Y0385192D02*
X0134151Y0385192D01*
X0134124Y0385230D02*
X0139653Y0385230D01*
X0139679Y0385268D02*
X0134098Y0385268D01*
X0134078Y0385305D02*
X0139699Y0385305D01*
X0139716Y0385343D02*
X0134061Y0385343D01*
X0134043Y0385381D02*
X0139734Y0385381D01*
X0139752Y0385419D02*
X0134025Y0385419D01*
X0134008Y0385457D02*
X0139769Y0385457D01*
X0139787Y0385495D02*
X0133990Y0385495D01*
X0133972Y0385533D02*
X0139805Y0385533D01*
X0139822Y0385571D02*
X0133955Y0385571D01*
X0133937Y0385609D02*
X0139840Y0385609D01*
X0139858Y0385646D02*
X0133919Y0385646D01*
X0133902Y0385684D02*
X0139875Y0385684D01*
X0139893Y0385722D02*
X0133884Y0385722D01*
X0133866Y0385760D02*
X0139911Y0385760D01*
X0139926Y0385798D02*
X0133851Y0385798D01*
X0133841Y0385836D02*
X0139936Y0385836D01*
X0139946Y0385874D02*
X0133831Y0385874D01*
X0133821Y0385912D02*
X0139956Y0385912D01*
X0139966Y0385949D02*
X0133811Y0385949D01*
X0133801Y0385987D02*
X0139976Y0385987D01*
X0139987Y0386025D02*
X0133791Y0386025D01*
X0133780Y0386063D02*
X0139997Y0386063D01*
X0140007Y0386101D02*
X0133770Y0386101D01*
X0133760Y0386139D02*
X0140017Y0386139D01*
X0140027Y0386177D02*
X0133750Y0386177D01*
X0133740Y0386215D02*
X0140037Y0386215D01*
X0140048Y0386253D02*
X0133730Y0386253D01*
X0133720Y0386290D02*
X0140058Y0386290D01*
X0140068Y0386328D02*
X0133709Y0386328D01*
X0133706Y0386366D02*
X0140071Y0386366D01*
X0140074Y0386404D02*
X0133703Y0386404D01*
X0133699Y0386442D02*
X0140078Y0386442D01*
X0140081Y0386480D02*
X0133696Y0386480D01*
X0133693Y0386518D02*
X0140084Y0386518D01*
X0140088Y0386556D02*
X0133689Y0386556D01*
X0133686Y0386593D02*
X0140091Y0386593D01*
X0140094Y0386631D02*
X0133683Y0386631D01*
X0133679Y0386669D02*
X0140098Y0386669D01*
X0140101Y0386707D02*
X0133676Y0386707D01*
X0133673Y0386745D02*
X0140104Y0386745D01*
X0140108Y0386783D02*
X0133670Y0386783D01*
X0133666Y0386821D02*
X0140111Y0386821D01*
X0140114Y0386859D02*
X0133663Y0386859D01*
X0133661Y0386897D02*
X0140116Y0386897D01*
X0140113Y0386934D02*
X0133664Y0386934D01*
X0133668Y0386972D02*
X0140110Y0386972D01*
X0140106Y0387010D02*
X0133671Y0387010D01*
X0133674Y0387048D02*
X0140103Y0387048D01*
X0140100Y0387086D02*
X0133678Y0387086D01*
X0133681Y0387124D02*
X0140096Y0387124D01*
X0140093Y0387162D02*
X0133684Y0387162D01*
X0133688Y0387200D02*
X0140090Y0387200D01*
X0140086Y0387237D02*
X0133691Y0387237D01*
X0133694Y0387275D02*
X0140083Y0387275D01*
X0140080Y0387313D02*
X0133698Y0387313D01*
X0133701Y0387351D02*
X0140076Y0387351D01*
X0140073Y0387389D02*
X0133704Y0387389D01*
X0133707Y0387427D02*
X0140070Y0387427D01*
X0140064Y0387465D02*
X0133714Y0387465D01*
X0133724Y0387503D02*
X0140053Y0387503D01*
X0140043Y0387540D02*
X0133734Y0387540D01*
X0133744Y0387578D02*
X0140033Y0387578D01*
X0140023Y0387616D02*
X0133754Y0387616D01*
X0133764Y0387654D02*
X0140013Y0387654D01*
X0140003Y0387692D02*
X0133775Y0387692D01*
X0133785Y0387730D02*
X0139993Y0387730D01*
X0139982Y0387768D02*
X0133795Y0387768D01*
X0133805Y0387806D02*
X0139972Y0387806D01*
X0139962Y0387844D02*
X0133815Y0387844D01*
X0133825Y0387881D02*
X0139952Y0387881D01*
X0139942Y0387919D02*
X0133835Y0387919D01*
X0133846Y0387957D02*
X0139932Y0387957D01*
X0139921Y0387995D02*
X0133856Y0387995D01*
X0133874Y0388033D02*
X0139903Y0388033D01*
X0139886Y0388071D02*
X0133891Y0388071D01*
X0133909Y0388109D02*
X0139868Y0388109D01*
X0139850Y0388147D02*
X0133927Y0388147D01*
X0133944Y0388184D02*
X0139833Y0388184D01*
X0139815Y0388222D02*
X0133962Y0388222D01*
X0133980Y0388260D02*
X0139797Y0388260D01*
X0139780Y0388298D02*
X0133997Y0388298D01*
X0134015Y0388336D02*
X0139762Y0388336D01*
X0139744Y0388374D02*
X0134033Y0388374D01*
X0134050Y0388412D02*
X0139727Y0388412D01*
X0139709Y0388450D02*
X0134068Y0388450D01*
X0134086Y0388488D02*
X0139691Y0388488D01*
X0139668Y0388525D02*
X0134109Y0388525D01*
X0134135Y0388563D02*
X0139642Y0388563D01*
X0139615Y0388601D02*
X0134162Y0388601D01*
X0134188Y0388639D02*
X0139589Y0388639D01*
X0139562Y0388677D02*
X0134215Y0388677D01*
X0134241Y0388715D02*
X0139536Y0388715D01*
X0139509Y0388753D02*
X0134268Y0388753D01*
X0134294Y0388791D02*
X0139483Y0388791D01*
X0139456Y0388828D02*
X0134321Y0388828D01*
X0134347Y0388866D02*
X0139430Y0388866D01*
X0139403Y0388904D02*
X0134374Y0388904D01*
X0134400Y0388942D02*
X0139377Y0388942D01*
X0139346Y0388980D02*
X0134432Y0388980D01*
X0134469Y0389018D02*
X0139308Y0389018D01*
X0139270Y0389056D02*
X0134507Y0389056D01*
X0134545Y0389094D02*
X0139232Y0389094D01*
X0139194Y0389132D02*
X0134583Y0389132D01*
X0134621Y0389169D02*
X0139156Y0389169D01*
X0139118Y0389207D02*
X0134659Y0389207D01*
X0134697Y0389245D02*
X0139080Y0389245D01*
X0139043Y0389283D02*
X0134735Y0389283D01*
X0134772Y0389321D02*
X0139005Y0389321D01*
X0138967Y0389359D02*
X0134810Y0389359D01*
X0134863Y0389397D02*
X0138914Y0389397D01*
X0138860Y0389435D02*
X0134917Y0389435D01*
X0134972Y0389472D02*
X0138806Y0389472D01*
X0138751Y0389510D02*
X0135026Y0389510D01*
X0135080Y0389548D02*
X0138697Y0389548D01*
X0138643Y0389586D02*
X0135134Y0389586D01*
X0135188Y0389624D02*
X0138589Y0389624D01*
X0138535Y0389662D02*
X0135242Y0389662D01*
X0135308Y0389700D02*
X0138470Y0389700D01*
X0138388Y0389738D02*
X0135389Y0389738D01*
X0135470Y0389775D02*
X0138307Y0389775D01*
X0138226Y0389813D02*
X0135551Y0389813D01*
X0135632Y0389851D02*
X0138145Y0389851D01*
X0138063Y0389889D02*
X0135714Y0389889D01*
X0135803Y0389927D02*
X0137974Y0389927D01*
X0137833Y0389965D02*
X0135944Y0389965D01*
X0136086Y0390003D02*
X0137692Y0390003D01*
X0137550Y0390041D02*
X0136227Y0390041D01*
X0136451Y0390079D02*
X0137326Y0390079D01*
X0136894Y0390116D02*
X0136883Y0390116D01*
X0136889Y0393660D02*
X0137449Y0393709D01*
X0137993Y0393855D01*
X0138503Y0394093D01*
X0138964Y0394415D01*
X0139362Y0394813D01*
X0139684Y0395274D01*
X0139922Y0395784D01*
X0140068Y0396328D01*
X0140117Y0396889D01*
X0140068Y0397449D01*
X0139922Y0397993D01*
X0139684Y0398503D01*
X0139362Y0398964D01*
X0138964Y0399362D01*
X0138503Y0399684D01*
X0137993Y0399922D01*
X0137449Y0400068D01*
X0136889Y0400117D01*
X0136328Y0400068D01*
X0135784Y0399922D01*
X0135274Y0399684D01*
X0134813Y0399362D01*
X0134415Y0398964D01*
X0134093Y0398503D01*
X0133855Y0397993D01*
X0133709Y0397449D01*
X0133660Y0396889D01*
X0133709Y0396328D01*
X0133855Y0395784D01*
X0134093Y0395274D01*
X0134415Y0394813D01*
X0134813Y0394415D01*
X0135274Y0394093D01*
X0135784Y0393855D01*
X0136328Y0393709D01*
X0136889Y0393660D01*
X0137083Y0393677D02*
X0136694Y0393677D01*
X0136307Y0393715D02*
X0137471Y0393715D01*
X0137612Y0393753D02*
X0136165Y0393753D01*
X0136024Y0393791D02*
X0137753Y0393791D01*
X0137895Y0393829D02*
X0135882Y0393829D01*
X0135759Y0393867D02*
X0138018Y0393867D01*
X0138099Y0393905D02*
X0135678Y0393905D01*
X0135597Y0393942D02*
X0138180Y0393942D01*
X0138261Y0393980D02*
X0135516Y0393980D01*
X0135435Y0394018D02*
X0138343Y0394018D01*
X0138424Y0394056D02*
X0135353Y0394056D01*
X0135273Y0394094D02*
X0138504Y0394094D01*
X0138558Y0394132D02*
X0135219Y0394132D01*
X0135165Y0394170D02*
X0138613Y0394170D01*
X0138667Y0394208D02*
X0135110Y0394208D01*
X0135056Y0394245D02*
X0138721Y0394245D01*
X0138775Y0394283D02*
X0135002Y0394283D01*
X0134948Y0394321D02*
X0138829Y0394321D01*
X0138883Y0394359D02*
X0134894Y0394359D01*
X0134840Y0394397D02*
X0138938Y0394397D01*
X0138983Y0394435D02*
X0134794Y0394435D01*
X0134756Y0394473D02*
X0139021Y0394473D01*
X0139059Y0394511D02*
X0134718Y0394511D01*
X0134680Y0394549D02*
X0139097Y0394549D01*
X0139135Y0394586D02*
X0134642Y0394586D01*
X0134604Y0394624D02*
X0139173Y0394624D01*
X0139211Y0394662D02*
X0134567Y0394662D01*
X0134529Y0394700D02*
X0139248Y0394700D01*
X0139286Y0394738D02*
X0134491Y0394738D01*
X0134453Y0394776D02*
X0139324Y0394776D01*
X0139362Y0394814D02*
X0134415Y0394814D01*
X0134389Y0394852D02*
X0139389Y0394852D01*
X0139415Y0394889D02*
X0134362Y0394889D01*
X0134336Y0394927D02*
X0139442Y0394927D01*
X0139468Y0394965D02*
X0134309Y0394965D01*
X0134283Y0395003D02*
X0139495Y0395003D01*
X0139521Y0395041D02*
X0134256Y0395041D01*
X0134230Y0395079D02*
X0139548Y0395079D01*
X0139574Y0395117D02*
X0134203Y0395117D01*
X0134177Y0395155D02*
X0139600Y0395155D01*
X0139627Y0395193D02*
X0134150Y0395193D01*
X0134124Y0395230D02*
X0139653Y0395230D01*
X0139680Y0395268D02*
X0134097Y0395268D01*
X0134078Y0395306D02*
X0139699Y0395306D01*
X0139717Y0395344D02*
X0134060Y0395344D01*
X0134043Y0395382D02*
X0139734Y0395382D01*
X0139752Y0395420D02*
X0134025Y0395420D01*
X0134007Y0395458D02*
X0139770Y0395458D01*
X0139787Y0395496D02*
X0133990Y0395496D01*
X0133972Y0395533D02*
X0139805Y0395533D01*
X0139823Y0395571D02*
X0133954Y0395571D01*
X0133937Y0395609D02*
X0139840Y0395609D01*
X0139858Y0395647D02*
X0133919Y0395647D01*
X0133901Y0395685D02*
X0139876Y0395685D01*
X0139893Y0395723D02*
X0133884Y0395723D01*
X0133866Y0395761D02*
X0139911Y0395761D01*
X0139926Y0395799D02*
X0133851Y0395799D01*
X0133841Y0395837D02*
X0139936Y0395837D01*
X0139946Y0395874D02*
X0133831Y0395874D01*
X0133821Y0395912D02*
X0139956Y0395912D01*
X0139966Y0395950D02*
X0133811Y0395950D01*
X0133801Y0395988D02*
X0139977Y0395988D01*
X0139987Y0396026D02*
X0133790Y0396026D01*
X0133780Y0396064D02*
X0139997Y0396064D01*
X0140007Y0396102D02*
X0133770Y0396102D01*
X0133760Y0396140D02*
X0140017Y0396140D01*
X0140027Y0396177D02*
X0133750Y0396177D01*
X0133740Y0396215D02*
X0140038Y0396215D01*
X0140048Y0396253D02*
X0133729Y0396253D01*
X0133719Y0396291D02*
X0140058Y0396291D01*
X0140068Y0396329D02*
X0133709Y0396329D01*
X0133706Y0396367D02*
X0140071Y0396367D01*
X0140074Y0396405D02*
X0133703Y0396405D01*
X0133699Y0396443D02*
X0140078Y0396443D01*
X0140081Y0396480D02*
X0133696Y0396480D01*
X0133693Y0396518D02*
X0140084Y0396518D01*
X0140088Y0396556D02*
X0133689Y0396556D01*
X0133686Y0396594D02*
X0140091Y0396594D01*
X0140094Y0396632D02*
X0133683Y0396632D01*
X0133679Y0396670D02*
X0140098Y0396670D01*
X0140101Y0396708D02*
X0133676Y0396708D01*
X0133673Y0396746D02*
X0140104Y0396746D01*
X0140108Y0396784D02*
X0133669Y0396784D01*
X0133666Y0396821D02*
X0140111Y0396821D01*
X0140114Y0396859D02*
X0133663Y0396859D01*
X0133661Y0396897D02*
X0140116Y0396897D01*
X0140113Y0396935D02*
X0133664Y0396935D01*
X0133668Y0396973D02*
X0140110Y0396973D01*
X0140106Y0397011D02*
X0133671Y0397011D01*
X0133674Y0397049D02*
X0140103Y0397049D01*
X0140100Y0397087D02*
X0133678Y0397087D01*
X0133681Y0397124D02*
X0140096Y0397124D01*
X0140093Y0397162D02*
X0133684Y0397162D01*
X0133688Y0397200D02*
X0140090Y0397200D01*
X0140086Y0397238D02*
X0133691Y0397238D01*
X0133694Y0397276D02*
X0140083Y0397276D01*
X0140080Y0397314D02*
X0133698Y0397314D01*
X0133701Y0397352D02*
X0140076Y0397352D01*
X0140073Y0397390D02*
X0133704Y0397390D01*
X0133708Y0397428D02*
X0140070Y0397428D01*
X0140063Y0397465D02*
X0133714Y0397465D01*
X0133724Y0397503D02*
X0140053Y0397503D01*
X0140043Y0397541D02*
X0133734Y0397541D01*
X0133744Y0397579D02*
X0140033Y0397579D01*
X0140023Y0397617D02*
X0133754Y0397617D01*
X0133765Y0397655D02*
X0140013Y0397655D01*
X0140002Y0397693D02*
X0133775Y0397693D01*
X0133785Y0397731D02*
X0139992Y0397731D01*
X0139982Y0397768D02*
X0133795Y0397768D01*
X0133805Y0397806D02*
X0139972Y0397806D01*
X0139962Y0397844D02*
X0133815Y0397844D01*
X0133825Y0397882D02*
X0139952Y0397882D01*
X0139942Y0397920D02*
X0133836Y0397920D01*
X0133846Y0397958D02*
X0139931Y0397958D01*
X0139921Y0397996D02*
X0133856Y0397996D01*
X0133874Y0398034D02*
X0139903Y0398034D01*
X0139885Y0398072D02*
X0133892Y0398072D01*
X0133909Y0398109D02*
X0139868Y0398109D01*
X0139850Y0398147D02*
X0133927Y0398147D01*
X0133945Y0398185D02*
X0139832Y0398185D01*
X0139815Y0398223D02*
X0133962Y0398223D01*
X0133980Y0398261D02*
X0139797Y0398261D01*
X0139779Y0398299D02*
X0133998Y0398299D01*
X0134015Y0398337D02*
X0139762Y0398337D01*
X0139744Y0398375D02*
X0134033Y0398375D01*
X0134051Y0398412D02*
X0139726Y0398412D01*
X0139709Y0398450D02*
X0134068Y0398450D01*
X0134086Y0398488D02*
X0139691Y0398488D01*
X0139668Y0398526D02*
X0134109Y0398526D01*
X0134136Y0398564D02*
X0139641Y0398564D01*
X0139615Y0398602D02*
X0134162Y0398602D01*
X0134189Y0398640D02*
X0139588Y0398640D01*
X0139562Y0398678D02*
X0134215Y0398678D01*
X0134242Y0398716D02*
X0139535Y0398716D01*
X0139509Y0398753D02*
X0134268Y0398753D01*
X0134295Y0398791D02*
X0139482Y0398791D01*
X0139456Y0398829D02*
X0134321Y0398829D01*
X0134348Y0398867D02*
X0139429Y0398867D01*
X0139403Y0398905D02*
X0134374Y0398905D01*
X0134401Y0398943D02*
X0139377Y0398943D01*
X0139345Y0398981D02*
X0134432Y0398981D01*
X0134470Y0399019D02*
X0139307Y0399019D01*
X0139269Y0399056D02*
X0134508Y0399056D01*
X0134546Y0399094D02*
X0139231Y0399094D01*
X0139193Y0399132D02*
X0134584Y0399132D01*
X0134622Y0399170D02*
X0139156Y0399170D01*
X0139118Y0399208D02*
X0134660Y0399208D01*
X0134697Y0399246D02*
X0139080Y0399246D01*
X0139042Y0399284D02*
X0134735Y0399284D01*
X0134773Y0399322D02*
X0139004Y0399322D01*
X0138966Y0399359D02*
X0134811Y0399359D01*
X0134864Y0399397D02*
X0138913Y0399397D01*
X0138859Y0399435D02*
X0134918Y0399435D01*
X0134973Y0399473D02*
X0138805Y0399473D01*
X0138750Y0399511D02*
X0135027Y0399511D01*
X0135081Y0399549D02*
X0138696Y0399549D01*
X0138642Y0399587D02*
X0135135Y0399587D01*
X0135189Y0399625D02*
X0138588Y0399625D01*
X0138534Y0399663D02*
X0135243Y0399663D01*
X0135309Y0399700D02*
X0138468Y0399700D01*
X0138387Y0399738D02*
X0135390Y0399738D01*
X0135472Y0399776D02*
X0138306Y0399776D01*
X0138224Y0399814D02*
X0135553Y0399814D01*
X0135634Y0399852D02*
X0138143Y0399852D01*
X0138062Y0399890D02*
X0135715Y0399890D01*
X0135805Y0399928D02*
X0137972Y0399928D01*
X0137830Y0399966D02*
X0135947Y0399966D01*
X0136088Y0400003D02*
X0137689Y0400003D01*
X0137548Y0400041D02*
X0136230Y0400041D01*
X0136459Y0400079D02*
X0137318Y0400079D01*
X0137091Y0403678D02*
X0136687Y0403678D01*
X0136889Y0403660D02*
X0137449Y0403709D01*
X0137993Y0403855D01*
X0138503Y0404093D01*
X0138964Y0404415D01*
X0139362Y0404813D01*
X0139684Y0405274D01*
X0139922Y0405784D01*
X0140068Y0406328D01*
X0140117Y0406889D01*
X0140068Y0407449D01*
X0139922Y0407993D01*
X0139684Y0408503D01*
X0139362Y0408964D01*
X0138964Y0409362D01*
X0138503Y0409684D01*
X0137993Y0409922D01*
X0137449Y0410068D01*
X0136889Y0410117D01*
X0136328Y0410068D01*
X0135784Y0409922D01*
X0135274Y0409684D01*
X0134813Y0409362D01*
X0134415Y0408964D01*
X0134093Y0408503D01*
X0133855Y0407993D01*
X0133709Y0407449D01*
X0133660Y0406889D01*
X0133709Y0406328D01*
X0133855Y0405784D01*
X0134093Y0405274D01*
X0134415Y0404813D01*
X0134813Y0404415D01*
X0135274Y0404093D01*
X0135784Y0403855D01*
X0136328Y0403709D01*
X0136889Y0403660D01*
X0137473Y0403716D02*
X0136304Y0403716D01*
X0136163Y0403754D02*
X0137614Y0403754D01*
X0137756Y0403792D02*
X0136021Y0403792D01*
X0135880Y0403829D02*
X0137897Y0403829D01*
X0138019Y0403867D02*
X0135758Y0403867D01*
X0135677Y0403905D02*
X0138100Y0403905D01*
X0138182Y0403943D02*
X0135596Y0403943D01*
X0135514Y0403981D02*
X0138263Y0403981D01*
X0138344Y0404019D02*
X0135433Y0404019D01*
X0135352Y0404057D02*
X0138425Y0404057D01*
X0138505Y0404095D02*
X0135272Y0404095D01*
X0135218Y0404133D02*
X0138559Y0404133D01*
X0138614Y0404170D02*
X0135164Y0404170D01*
X0135109Y0404208D02*
X0138668Y0404208D01*
X0138722Y0404246D02*
X0135055Y0404246D01*
X0135001Y0404284D02*
X0138776Y0404284D01*
X0138830Y0404322D02*
X0134947Y0404322D01*
X0134893Y0404360D02*
X0138884Y0404360D01*
X0138939Y0404398D02*
X0134839Y0404398D01*
X0134793Y0404436D02*
X0138984Y0404436D01*
X0139022Y0404473D02*
X0134755Y0404473D01*
X0134717Y0404511D02*
X0139060Y0404511D01*
X0139098Y0404549D02*
X0134680Y0404549D01*
X0134642Y0404587D02*
X0139136Y0404587D01*
X0139173Y0404625D02*
X0134604Y0404625D01*
X0134566Y0404663D02*
X0139211Y0404663D01*
X0139249Y0404701D02*
X0134528Y0404701D01*
X0134490Y0404739D02*
X0139287Y0404739D01*
X0139325Y0404777D02*
X0134452Y0404777D01*
X0134415Y0404814D02*
X0139363Y0404814D01*
X0139389Y0404852D02*
X0134388Y0404852D01*
X0134362Y0404890D02*
X0139416Y0404890D01*
X0139442Y0404928D02*
X0134335Y0404928D01*
X0134309Y0404966D02*
X0139468Y0404966D01*
X0139495Y0405004D02*
X0134282Y0405004D01*
X0134256Y0405042D02*
X0139521Y0405042D01*
X0139548Y0405080D02*
X0134229Y0405080D01*
X0134203Y0405117D02*
X0139574Y0405117D01*
X0139601Y0405155D02*
X0134176Y0405155D01*
X0134150Y0405193D02*
X0139627Y0405193D01*
X0139654Y0405231D02*
X0134123Y0405231D01*
X0134097Y0405269D02*
X0139680Y0405269D01*
X0139699Y0405307D02*
X0134078Y0405307D01*
X0134060Y0405345D02*
X0139717Y0405345D01*
X0139735Y0405383D02*
X0134042Y0405383D01*
X0134025Y0405421D02*
X0139752Y0405421D01*
X0139770Y0405458D02*
X0134007Y0405458D01*
X0133989Y0405496D02*
X0139788Y0405496D01*
X0139805Y0405534D02*
X0133972Y0405534D01*
X0133954Y0405572D02*
X0139823Y0405572D01*
X0139841Y0405610D02*
X0133936Y0405610D01*
X0133919Y0405648D02*
X0139858Y0405648D01*
X0139876Y0405686D02*
X0133901Y0405686D01*
X0133883Y0405724D02*
X0139894Y0405724D01*
X0139911Y0405761D02*
X0133866Y0405761D01*
X0133851Y0405799D02*
X0139926Y0405799D01*
X0139936Y0405837D02*
X0133841Y0405837D01*
X0133831Y0405875D02*
X0139946Y0405875D01*
X0139957Y0405913D02*
X0133821Y0405913D01*
X0133810Y0405951D02*
X0139967Y0405951D01*
X0139977Y0405989D02*
X0133800Y0405989D01*
X0133790Y0406027D02*
X0139987Y0406027D01*
X0139997Y0406064D02*
X0133780Y0406064D01*
X0133770Y0406102D02*
X0140007Y0406102D01*
X0140017Y0406140D02*
X0133760Y0406140D01*
X0133750Y0406178D02*
X0140028Y0406178D01*
X0140038Y0406216D02*
X0133739Y0406216D01*
X0133729Y0406254D02*
X0140048Y0406254D01*
X0140058Y0406292D02*
X0133719Y0406292D01*
X0133709Y0406330D02*
X0140068Y0406330D01*
X0140071Y0406368D02*
X0133706Y0406368D01*
X0133703Y0406405D02*
X0140075Y0406405D01*
X0140078Y0406443D02*
X0133699Y0406443D01*
X0133696Y0406481D02*
X0140081Y0406481D01*
X0140084Y0406519D02*
X0133693Y0406519D01*
X0133689Y0406557D02*
X0140088Y0406557D01*
X0140091Y0406595D02*
X0133686Y0406595D01*
X0133683Y0406633D02*
X0140094Y0406633D01*
X0140098Y0406671D02*
X0133679Y0406671D01*
X0133676Y0406708D02*
X0140101Y0406708D01*
X0140104Y0406746D02*
X0133673Y0406746D01*
X0133669Y0406784D02*
X0140108Y0406784D01*
X0140111Y0406822D02*
X0133666Y0406822D01*
X0133663Y0406860D02*
X0140114Y0406860D01*
X0140116Y0406898D02*
X0133661Y0406898D01*
X0133664Y0406936D02*
X0140113Y0406936D01*
X0140109Y0406974D02*
X0133668Y0406974D01*
X0133671Y0407012D02*
X0140106Y0407012D01*
X0140103Y0407049D02*
X0133674Y0407049D01*
X0133678Y0407087D02*
X0140099Y0407087D01*
X0140096Y0407125D02*
X0133681Y0407125D01*
X0133684Y0407163D02*
X0140093Y0407163D01*
X0140090Y0407201D02*
X0133688Y0407201D01*
X0133691Y0407239D02*
X0140086Y0407239D01*
X0140083Y0407277D02*
X0133694Y0407277D01*
X0133698Y0407315D02*
X0140080Y0407315D01*
X0140076Y0407352D02*
X0133701Y0407352D01*
X0133704Y0407390D02*
X0140073Y0407390D01*
X0140070Y0407428D02*
X0133708Y0407428D01*
X0133714Y0407466D02*
X0140063Y0407466D01*
X0140053Y0407504D02*
X0133724Y0407504D01*
X0133734Y0407542D02*
X0140043Y0407542D01*
X0140033Y0407580D02*
X0133744Y0407580D01*
X0133755Y0407618D02*
X0140023Y0407618D01*
X0140012Y0407656D02*
X0133765Y0407656D01*
X0133775Y0407693D02*
X0140002Y0407693D01*
X0139992Y0407731D02*
X0133785Y0407731D01*
X0133795Y0407769D02*
X0139982Y0407769D01*
X0139972Y0407807D02*
X0133805Y0407807D01*
X0133815Y0407845D02*
X0139962Y0407845D01*
X0139952Y0407883D02*
X0133826Y0407883D01*
X0133836Y0407921D02*
X0139941Y0407921D01*
X0139931Y0407959D02*
X0133846Y0407959D01*
X0133857Y0407996D02*
X0139920Y0407996D01*
X0139903Y0408034D02*
X0133874Y0408034D01*
X0133892Y0408072D02*
X0139885Y0408072D01*
X0139867Y0408110D02*
X0133910Y0408110D01*
X0133927Y0408148D02*
X0139850Y0408148D01*
X0139832Y0408186D02*
X0133945Y0408186D01*
X0133963Y0408224D02*
X0139814Y0408224D01*
X0139797Y0408262D02*
X0133980Y0408262D01*
X0133998Y0408299D02*
X0139779Y0408299D01*
X0139761Y0408337D02*
X0134016Y0408337D01*
X0134033Y0408375D02*
X0139744Y0408375D01*
X0139726Y0408413D02*
X0134051Y0408413D01*
X0134069Y0408451D02*
X0139708Y0408451D01*
X0139691Y0408489D02*
X0134086Y0408489D01*
X0134110Y0408527D02*
X0139667Y0408527D01*
X0139641Y0408565D02*
X0134136Y0408565D01*
X0134163Y0408603D02*
X0139614Y0408603D01*
X0139588Y0408640D02*
X0134189Y0408640D01*
X0134216Y0408678D02*
X0139561Y0408678D01*
X0139535Y0408716D02*
X0134242Y0408716D01*
X0134269Y0408754D02*
X0139508Y0408754D01*
X0139482Y0408792D02*
X0134295Y0408792D01*
X0134322Y0408830D02*
X0139455Y0408830D01*
X0139429Y0408868D02*
X0134348Y0408868D01*
X0134375Y0408906D02*
X0139403Y0408906D01*
X0139376Y0408943D02*
X0134401Y0408943D01*
X0134433Y0408981D02*
X0139344Y0408981D01*
X0139306Y0409019D02*
X0134471Y0409019D01*
X0134509Y0409057D02*
X0139268Y0409057D01*
X0139231Y0409095D02*
X0134547Y0409095D01*
X0134584Y0409133D02*
X0139193Y0409133D01*
X0139155Y0409171D02*
X0134622Y0409171D01*
X0134660Y0409209D02*
X0139117Y0409209D01*
X0139079Y0409247D02*
X0134698Y0409247D01*
X0134736Y0409284D02*
X0139041Y0409284D01*
X0139003Y0409322D02*
X0134774Y0409322D01*
X0134812Y0409360D02*
X0138965Y0409360D01*
X0138912Y0409398D02*
X0134865Y0409398D01*
X0134919Y0409436D02*
X0138858Y0409436D01*
X0138804Y0409474D02*
X0134974Y0409474D01*
X0135028Y0409512D02*
X0138749Y0409512D01*
X0138695Y0409550D02*
X0135082Y0409550D01*
X0135136Y0409587D02*
X0138641Y0409587D01*
X0138587Y0409625D02*
X0135190Y0409625D01*
X0135244Y0409663D02*
X0138533Y0409663D01*
X0138467Y0409701D02*
X0135311Y0409701D01*
X0135392Y0409739D02*
X0138385Y0409739D01*
X0138304Y0409777D02*
X0135473Y0409777D01*
X0135554Y0409815D02*
X0138223Y0409815D01*
X0138142Y0409853D02*
X0135635Y0409853D01*
X0135717Y0409891D02*
X0138061Y0409891D01*
X0137969Y0409928D02*
X0135808Y0409928D01*
X0135949Y0409966D02*
X0137828Y0409966D01*
X0137686Y0410004D02*
X0136091Y0410004D01*
X0136232Y0410042D02*
X0137545Y0410042D01*
X0137310Y0410080D02*
X0136467Y0410080D01*
X0343709Y0367449D02*
X0343660Y0366889D01*
X0343709Y0366328D01*
X0343855Y0365784D01*
X0344093Y0365274D01*
X0344415Y0364813D01*
X0344813Y0364415D01*
X0345274Y0364093D01*
X0345784Y0363855D01*
X0346328Y0363709D01*
X0346889Y0363660D01*
X0347449Y0363709D01*
X0347993Y0363855D01*
X0348503Y0364093D01*
X0348964Y0364415D01*
X0349362Y0364813D01*
X0349684Y0365274D01*
X0349922Y0365784D01*
X0350068Y0366328D01*
X0350117Y0366889D01*
X0350068Y0367449D01*
X0349922Y0367993D01*
X0349684Y0368503D01*
X0349362Y0368964D01*
X0348964Y0369362D01*
X0348503Y0369684D01*
X0347993Y0369922D01*
X0347449Y0370068D01*
X0346889Y0370117D01*
X0346328Y0370068D01*
X0345784Y0369922D01*
X0345274Y0369684D01*
X0344813Y0369362D01*
X0344415Y0368964D01*
X0344093Y0368503D01*
X0343855Y0367993D01*
X0343709Y0367449D01*
X0343713Y0367463D02*
X0350064Y0367463D01*
X0350070Y0367425D02*
X0343707Y0367425D01*
X0343704Y0367388D02*
X0350073Y0367388D01*
X0350076Y0367350D02*
X0343701Y0367350D01*
X0343697Y0367312D02*
X0350080Y0367312D01*
X0350083Y0367274D02*
X0343694Y0367274D01*
X0343691Y0367236D02*
X0350086Y0367236D01*
X0350090Y0367198D02*
X0343687Y0367198D01*
X0343684Y0367160D02*
X0350093Y0367160D01*
X0350096Y0367122D02*
X0343681Y0367122D01*
X0343677Y0367085D02*
X0350100Y0367085D01*
X0350103Y0367047D02*
X0343674Y0367047D01*
X0343671Y0367009D02*
X0350106Y0367009D01*
X0350110Y0366971D02*
X0343667Y0366971D01*
X0343664Y0366933D02*
X0350113Y0366933D01*
X0350116Y0366895D02*
X0343661Y0366895D01*
X0343663Y0366857D02*
X0350114Y0366857D01*
X0350111Y0366819D02*
X0343666Y0366819D01*
X0343670Y0366781D02*
X0350108Y0366781D01*
X0350104Y0366744D02*
X0343673Y0366744D01*
X0343676Y0366706D02*
X0350101Y0366706D01*
X0350098Y0366668D02*
X0343680Y0366668D01*
X0343683Y0366630D02*
X0350094Y0366630D01*
X0350091Y0366592D02*
X0343686Y0366592D01*
X0343690Y0366554D02*
X0350088Y0366554D01*
X0350084Y0366516D02*
X0343693Y0366516D01*
X0343696Y0366478D02*
X0350081Y0366478D01*
X0350078Y0366441D02*
X0343700Y0366441D01*
X0343703Y0366403D02*
X0350074Y0366403D01*
X0350071Y0366365D02*
X0343706Y0366365D01*
X0343710Y0366327D02*
X0350067Y0366327D01*
X0350057Y0366289D02*
X0343720Y0366289D01*
X0343730Y0366251D02*
X0350047Y0366251D01*
X0350037Y0366213D02*
X0343740Y0366213D01*
X0343750Y0366175D02*
X0350027Y0366175D01*
X0350017Y0366137D02*
X0343760Y0366137D01*
X0343771Y0366100D02*
X0350007Y0366100D01*
X0349996Y0366062D02*
X0343781Y0366062D01*
X0343791Y0366024D02*
X0349986Y0366024D01*
X0349976Y0365986D02*
X0343801Y0365986D01*
X0343811Y0365948D02*
X0349966Y0365948D01*
X0349956Y0365910D02*
X0343821Y0365910D01*
X0343832Y0365872D02*
X0349946Y0365872D01*
X0349935Y0365834D02*
X0343842Y0365834D01*
X0343852Y0365797D02*
X0349925Y0365797D01*
X0349910Y0365759D02*
X0343867Y0365759D01*
X0343885Y0365721D02*
X0349892Y0365721D01*
X0349875Y0365683D02*
X0343902Y0365683D01*
X0343920Y0365645D02*
X0349857Y0365645D01*
X0349839Y0365607D02*
X0343938Y0365607D01*
X0343955Y0365569D02*
X0349822Y0365569D01*
X0349804Y0365531D02*
X0343973Y0365531D01*
X0343991Y0365494D02*
X0349786Y0365494D01*
X0349769Y0365456D02*
X0344008Y0365456D01*
X0344026Y0365418D02*
X0349751Y0365418D01*
X0349733Y0365380D02*
X0344044Y0365380D01*
X0344061Y0365342D02*
X0349716Y0365342D01*
X0349698Y0365304D02*
X0344079Y0365304D01*
X0344099Y0365266D02*
X0349679Y0365266D01*
X0349652Y0365228D02*
X0344125Y0365228D01*
X0344152Y0365190D02*
X0349626Y0365190D01*
X0349599Y0365153D02*
X0344178Y0365153D01*
X0344205Y0365115D02*
X0349573Y0365115D01*
X0349546Y0365077D02*
X0344231Y0365077D01*
X0344258Y0365039D02*
X0349520Y0365039D01*
X0349493Y0365001D02*
X0344284Y0365001D01*
X0344311Y0364963D02*
X0349467Y0364963D01*
X0349440Y0364925D02*
X0344337Y0364925D01*
X0344364Y0364887D02*
X0349414Y0364887D01*
X0349387Y0364850D02*
X0344390Y0364850D01*
X0344417Y0364812D02*
X0349360Y0364812D01*
X0349322Y0364774D02*
X0344455Y0364774D01*
X0344493Y0364736D02*
X0349284Y0364736D01*
X0349246Y0364698D02*
X0344531Y0364698D01*
X0344569Y0364660D02*
X0349209Y0364660D01*
X0349171Y0364622D02*
X0344606Y0364622D01*
X0344644Y0364584D02*
X0349133Y0364584D01*
X0349095Y0364546D02*
X0344682Y0364546D01*
X0344720Y0364509D02*
X0349057Y0364509D01*
X0349019Y0364471D02*
X0344758Y0364471D01*
X0344796Y0364433D02*
X0348981Y0364433D01*
X0348935Y0364395D02*
X0344843Y0364395D01*
X0344897Y0364357D02*
X0348880Y0364357D01*
X0348826Y0364319D02*
X0344951Y0364319D01*
X0345005Y0364281D02*
X0348772Y0364281D01*
X0348718Y0364243D02*
X0345059Y0364243D01*
X0345113Y0364206D02*
X0348664Y0364206D01*
X0348610Y0364168D02*
X0345168Y0364168D01*
X0345222Y0364130D02*
X0348555Y0364130D01*
X0348501Y0364092D02*
X0345277Y0364092D01*
X0345358Y0364054D02*
X0348419Y0364054D01*
X0348338Y0364016D02*
X0345439Y0364016D01*
X0345520Y0363978D02*
X0348257Y0363978D01*
X0348176Y0363940D02*
X0345601Y0363940D01*
X0345683Y0363902D02*
X0348094Y0363902D01*
X0348013Y0363865D02*
X0345764Y0363865D01*
X0345890Y0363827D02*
X0347887Y0363827D01*
X0347746Y0363789D02*
X0346032Y0363789D01*
X0346173Y0363751D02*
X0347604Y0363751D01*
X0347463Y0363713D02*
X0346314Y0363713D01*
X0346718Y0363675D02*
X0347059Y0363675D01*
X0350054Y0367501D02*
X0343723Y0367501D01*
X0343734Y0367539D02*
X0350044Y0367539D01*
X0350033Y0367577D02*
X0343744Y0367577D01*
X0343754Y0367615D02*
X0350023Y0367615D01*
X0350013Y0367653D02*
X0343764Y0367653D01*
X0343774Y0367691D02*
X0350003Y0367691D01*
X0349993Y0367729D02*
X0343784Y0367729D01*
X0343794Y0367766D02*
X0349983Y0367766D01*
X0349973Y0367804D02*
X0343805Y0367804D01*
X0343815Y0367842D02*
X0349962Y0367842D01*
X0349952Y0367880D02*
X0343825Y0367880D01*
X0343835Y0367918D02*
X0349942Y0367918D01*
X0349932Y0367956D02*
X0343845Y0367956D01*
X0343855Y0367994D02*
X0349922Y0367994D01*
X0349904Y0368032D02*
X0343873Y0368032D01*
X0343891Y0368069D02*
X0349886Y0368069D01*
X0349869Y0368107D02*
X0343908Y0368107D01*
X0343926Y0368145D02*
X0349851Y0368145D01*
X0349833Y0368183D02*
X0343944Y0368183D01*
X0343961Y0368221D02*
X0349816Y0368221D01*
X0349798Y0368259D02*
X0343979Y0368259D01*
X0343997Y0368297D02*
X0349780Y0368297D01*
X0349763Y0368335D02*
X0344015Y0368335D01*
X0344032Y0368373D02*
X0349745Y0368373D01*
X0349727Y0368410D02*
X0344050Y0368410D01*
X0344068Y0368448D02*
X0349710Y0368448D01*
X0349692Y0368486D02*
X0344085Y0368486D01*
X0344108Y0368524D02*
X0349669Y0368524D01*
X0349643Y0368562D02*
X0344134Y0368562D01*
X0344161Y0368600D02*
X0349616Y0368600D01*
X0349590Y0368638D02*
X0344187Y0368638D01*
X0344214Y0368676D02*
X0349563Y0368676D01*
X0349537Y0368713D02*
X0344240Y0368713D01*
X0344267Y0368751D02*
X0349510Y0368751D01*
X0349484Y0368789D02*
X0344293Y0368789D01*
X0344320Y0368827D02*
X0349457Y0368827D01*
X0349431Y0368865D02*
X0344346Y0368865D01*
X0344373Y0368903D02*
X0349404Y0368903D01*
X0349378Y0368941D02*
X0344399Y0368941D01*
X0344430Y0368979D02*
X0349347Y0368979D01*
X0349309Y0369016D02*
X0344468Y0369016D01*
X0344506Y0369054D02*
X0349271Y0369054D01*
X0349233Y0369092D02*
X0344544Y0369092D01*
X0344582Y0369130D02*
X0349195Y0369130D01*
X0349158Y0369168D02*
X0344620Y0369168D01*
X0344657Y0369206D02*
X0349120Y0369206D01*
X0349082Y0369244D02*
X0344695Y0369244D01*
X0344733Y0369282D02*
X0349044Y0369282D01*
X0349006Y0369320D02*
X0344771Y0369320D01*
X0344809Y0369357D02*
X0348968Y0369357D01*
X0348916Y0369395D02*
X0344861Y0369395D01*
X0344915Y0369433D02*
X0348862Y0369433D01*
X0348808Y0369471D02*
X0344970Y0369471D01*
X0345024Y0369509D02*
X0348753Y0369509D01*
X0348699Y0369547D02*
X0345078Y0369547D01*
X0345132Y0369585D02*
X0348645Y0369585D01*
X0348591Y0369623D02*
X0345186Y0369623D01*
X0345240Y0369660D02*
X0348537Y0369660D01*
X0348473Y0369698D02*
X0345305Y0369698D01*
X0345386Y0369736D02*
X0348391Y0369736D01*
X0348310Y0369774D02*
X0345467Y0369774D01*
X0345548Y0369812D02*
X0348229Y0369812D01*
X0348148Y0369850D02*
X0345630Y0369850D01*
X0345711Y0369888D02*
X0348066Y0369888D01*
X0347980Y0369926D02*
X0345798Y0369926D01*
X0345939Y0369964D02*
X0347838Y0369964D01*
X0347697Y0370001D02*
X0346080Y0370001D01*
X0346222Y0370039D02*
X0347555Y0370039D01*
X0347342Y0370077D02*
X0346436Y0370077D01*
X0346867Y0370115D02*
X0346910Y0370115D01*
X0353641Y0370115D02*
X0360137Y0370115D01*
X0360137Y0370137D02*
X0353641Y0370137D01*
X0353641Y0363641D01*
X0360137Y0363641D01*
X0360137Y0370137D01*
X0360137Y0370077D02*
X0353641Y0370077D01*
X0353641Y0370039D02*
X0360137Y0370039D01*
X0360137Y0370001D02*
X0353641Y0370001D01*
X0353641Y0369964D02*
X0360137Y0369964D01*
X0360137Y0369926D02*
X0353641Y0369926D01*
X0353641Y0369888D02*
X0360137Y0369888D01*
X0360137Y0369850D02*
X0353641Y0369850D01*
X0353641Y0369812D02*
X0360137Y0369812D01*
X0360137Y0369774D02*
X0353641Y0369774D01*
X0353641Y0369736D02*
X0360137Y0369736D01*
X0360137Y0369698D02*
X0353641Y0369698D01*
X0353641Y0369660D02*
X0360137Y0369660D01*
X0360137Y0369623D02*
X0353641Y0369623D01*
X0353641Y0369585D02*
X0360137Y0369585D01*
X0360137Y0369547D02*
X0353641Y0369547D01*
X0353641Y0369509D02*
X0360137Y0369509D01*
X0360137Y0369471D02*
X0353641Y0369471D01*
X0353641Y0369433D02*
X0360137Y0369433D01*
X0360137Y0369395D02*
X0353641Y0369395D01*
X0353641Y0369357D02*
X0360137Y0369357D01*
X0360137Y0369320D02*
X0353641Y0369320D01*
X0353641Y0369282D02*
X0360137Y0369282D01*
X0360137Y0369244D02*
X0353641Y0369244D01*
X0353641Y0369206D02*
X0360137Y0369206D01*
X0360137Y0369168D02*
X0353641Y0369168D01*
X0353641Y0369130D02*
X0360137Y0369130D01*
X0360137Y0369092D02*
X0353641Y0369092D01*
X0353641Y0369054D02*
X0360137Y0369054D01*
X0360137Y0369016D02*
X0353641Y0369016D01*
X0353641Y0368979D02*
X0360137Y0368979D01*
X0360137Y0368941D02*
X0353641Y0368941D01*
X0353641Y0368903D02*
X0360137Y0368903D01*
X0360137Y0368865D02*
X0353641Y0368865D01*
X0353641Y0368827D02*
X0360137Y0368827D01*
X0360137Y0368789D02*
X0353641Y0368789D01*
X0353641Y0368751D02*
X0360137Y0368751D01*
X0360137Y0368713D02*
X0353641Y0368713D01*
X0353641Y0368676D02*
X0360137Y0368676D01*
X0360137Y0368638D02*
X0353641Y0368638D01*
X0353641Y0368600D02*
X0360137Y0368600D01*
X0360137Y0368562D02*
X0353641Y0368562D01*
X0353641Y0368524D02*
X0360137Y0368524D01*
X0360137Y0368486D02*
X0353641Y0368486D01*
X0353641Y0368448D02*
X0360137Y0368448D01*
X0360137Y0368410D02*
X0353641Y0368410D01*
X0353641Y0368373D02*
X0360137Y0368373D01*
X0360137Y0368335D02*
X0353641Y0368335D01*
X0353641Y0368297D02*
X0360137Y0368297D01*
X0360137Y0368259D02*
X0353641Y0368259D01*
X0353641Y0368221D02*
X0360137Y0368221D01*
X0360137Y0368183D02*
X0353641Y0368183D01*
X0353641Y0368145D02*
X0360137Y0368145D01*
X0360137Y0368107D02*
X0353641Y0368107D01*
X0353641Y0368069D02*
X0360137Y0368069D01*
X0360137Y0368032D02*
X0353641Y0368032D01*
X0353641Y0367994D02*
X0360137Y0367994D01*
X0360137Y0367956D02*
X0353641Y0367956D01*
X0353641Y0367918D02*
X0360137Y0367918D01*
X0360137Y0367880D02*
X0353641Y0367880D01*
X0353641Y0367842D02*
X0360137Y0367842D01*
X0360137Y0367804D02*
X0353641Y0367804D01*
X0353641Y0367766D02*
X0360137Y0367766D01*
X0360137Y0367729D02*
X0353641Y0367729D01*
X0353641Y0367691D02*
X0360137Y0367691D01*
X0360137Y0367653D02*
X0353641Y0367653D01*
X0353641Y0367615D02*
X0360137Y0367615D01*
X0360137Y0367577D02*
X0353641Y0367577D01*
X0353641Y0367539D02*
X0360137Y0367539D01*
X0360137Y0367501D02*
X0353641Y0367501D01*
X0353641Y0367463D02*
X0360137Y0367463D01*
X0360137Y0367425D02*
X0353641Y0367425D01*
X0353641Y0367388D02*
X0360137Y0367388D01*
X0360137Y0367350D02*
X0353641Y0367350D01*
X0353641Y0367312D02*
X0360137Y0367312D01*
X0360137Y0367274D02*
X0353641Y0367274D01*
X0353641Y0367236D02*
X0360137Y0367236D01*
X0360137Y0367198D02*
X0353641Y0367198D01*
X0353641Y0367160D02*
X0360137Y0367160D01*
X0360137Y0367122D02*
X0353641Y0367122D01*
X0353641Y0367085D02*
X0360137Y0367085D01*
X0360137Y0367047D02*
X0353641Y0367047D01*
X0353641Y0367009D02*
X0360137Y0367009D01*
X0360137Y0366971D02*
X0353641Y0366971D01*
X0353641Y0366933D02*
X0360137Y0366933D01*
X0360137Y0366895D02*
X0353641Y0366895D01*
X0353641Y0366857D02*
X0360137Y0366857D01*
X0360137Y0366819D02*
X0353641Y0366819D01*
X0353641Y0366781D02*
X0360137Y0366781D01*
X0360137Y0366744D02*
X0353641Y0366744D01*
X0353641Y0366706D02*
X0360137Y0366706D01*
X0360137Y0366668D02*
X0353641Y0366668D01*
X0353641Y0366630D02*
X0360137Y0366630D01*
X0360137Y0366592D02*
X0353641Y0366592D01*
X0353641Y0366554D02*
X0360137Y0366554D01*
X0360137Y0366516D02*
X0353641Y0366516D01*
X0353641Y0366478D02*
X0360137Y0366478D01*
X0360137Y0366441D02*
X0353641Y0366441D01*
X0353641Y0366403D02*
X0360137Y0366403D01*
X0360137Y0366365D02*
X0353641Y0366365D01*
X0353641Y0366327D02*
X0360137Y0366327D01*
X0360137Y0366289D02*
X0353641Y0366289D01*
X0353641Y0366251D02*
X0360137Y0366251D01*
X0360137Y0366213D02*
X0353641Y0366213D01*
X0353641Y0366175D02*
X0360137Y0366175D01*
X0360137Y0366137D02*
X0353641Y0366137D01*
X0353641Y0366100D02*
X0360137Y0366100D01*
X0360137Y0366062D02*
X0353641Y0366062D01*
X0353641Y0366024D02*
X0360137Y0366024D01*
X0360137Y0365986D02*
X0353641Y0365986D01*
X0353641Y0365948D02*
X0360137Y0365948D01*
X0360137Y0365910D02*
X0353641Y0365910D01*
X0353641Y0365872D02*
X0360137Y0365872D01*
X0360137Y0365834D02*
X0353641Y0365834D01*
X0353641Y0365797D02*
X0360137Y0365797D01*
X0360137Y0365759D02*
X0353641Y0365759D01*
X0353641Y0365721D02*
X0360137Y0365721D01*
X0360137Y0365683D02*
X0353641Y0365683D01*
X0353641Y0365645D02*
X0360137Y0365645D01*
X0360137Y0365607D02*
X0353641Y0365607D01*
X0353641Y0365569D02*
X0360137Y0365569D01*
X0360137Y0365531D02*
X0353641Y0365531D01*
X0353641Y0365494D02*
X0360137Y0365494D01*
X0360137Y0365456D02*
X0353641Y0365456D01*
X0353641Y0365418D02*
X0360137Y0365418D01*
X0360137Y0365380D02*
X0353641Y0365380D01*
X0353641Y0365342D02*
X0360137Y0365342D01*
X0360137Y0365304D02*
X0353641Y0365304D01*
X0353641Y0365266D02*
X0360137Y0365266D01*
X0360137Y0365228D02*
X0353641Y0365228D01*
X0353641Y0365190D02*
X0360137Y0365190D01*
X0360137Y0365153D02*
X0353641Y0365153D01*
X0353641Y0365115D02*
X0360137Y0365115D01*
X0360137Y0365077D02*
X0353641Y0365077D01*
X0353641Y0365039D02*
X0360137Y0365039D01*
X0360137Y0365001D02*
X0353641Y0365001D01*
X0353641Y0364963D02*
X0360137Y0364963D01*
X0360137Y0364925D02*
X0353641Y0364925D01*
X0353641Y0364887D02*
X0360137Y0364887D01*
X0360137Y0364850D02*
X0353641Y0364850D01*
X0353641Y0364812D02*
X0360137Y0364812D01*
X0360137Y0364774D02*
X0353641Y0364774D01*
X0353641Y0364736D02*
X0360137Y0364736D01*
X0360137Y0364698D02*
X0353641Y0364698D01*
X0353641Y0364660D02*
X0360137Y0364660D01*
X0360137Y0364622D02*
X0353641Y0364622D01*
X0353641Y0364584D02*
X0360137Y0364584D01*
X0360137Y0364546D02*
X0353641Y0364546D01*
X0353641Y0364509D02*
X0360137Y0364509D01*
X0360137Y0364471D02*
X0353641Y0364471D01*
X0353641Y0364433D02*
X0360137Y0364433D01*
X0360137Y0364395D02*
X0353641Y0364395D01*
X0353641Y0364357D02*
X0360137Y0364357D01*
X0360137Y0364319D02*
X0353641Y0364319D01*
X0353641Y0364281D02*
X0360137Y0364281D01*
X0360137Y0364243D02*
X0353641Y0364243D01*
X0353641Y0364206D02*
X0360137Y0364206D01*
X0360137Y0364168D02*
X0353641Y0364168D01*
X0353641Y0364130D02*
X0360137Y0364130D01*
X0360137Y0364092D02*
X0353641Y0364092D01*
X0353641Y0364054D02*
X0360137Y0364054D01*
X0360137Y0364016D02*
X0353641Y0364016D01*
X0353641Y0363978D02*
X0360137Y0363978D01*
X0360137Y0363940D02*
X0353641Y0363940D01*
X0353641Y0363902D02*
X0360137Y0363902D01*
X0360137Y0363865D02*
X0353641Y0363865D01*
X0353641Y0363827D02*
X0360137Y0363827D01*
X0360137Y0363789D02*
X0353641Y0363789D01*
X0353641Y0363751D02*
X0360137Y0363751D01*
X0360137Y0363713D02*
X0353641Y0363713D01*
X0353641Y0363675D02*
X0360137Y0363675D01*
D13*
X0401889Y0203139D03*
D14*
X0411889Y0203139D03*
X0411889Y0193139D03*
X0411889Y0183139D03*
X0401889Y0183139D03*
X0401889Y0193139D03*
D15*
X0381889Y0131889D03*
X0371889Y0131889D03*
X0361889Y0131889D03*
X0351889Y0131889D03*
X0341889Y0131889D03*
X0331889Y0131889D03*
X0415639Y0365639D03*
X0415639Y0375639D03*
X0415639Y0385639D03*
X0415639Y0395639D03*
X0415639Y0405639D03*
X0415639Y0415639D03*
D16*
X0244389Y0335432D03*
X0244389Y0331889D03*
D17*
X0216879Y0349270D03*
X0209398Y0349270D03*
X0209398Y0359507D03*
X0213139Y0359507D03*
X0216879Y0359507D03*
D18*
X0133139Y0126889D03*
X0130639Y0133139D03*
X0130639Y0139389D03*
X0134389Y0146889D03*
X0141889Y0148139D03*
X0145639Y0151889D03*
X0145639Y0158139D03*
X0151889Y0163139D03*
X0158139Y0164389D03*
X0160639Y0169389D03*
X0168139Y0169389D03*
X0175639Y0169389D03*
X0183139Y0168139D03*
X0189389Y0165639D03*
X0195639Y0165639D03*
X0204389Y0169389D03*
X0216889Y0183139D03*
X0216889Y0191889D03*
X0206889Y0195639D03*
X0224389Y0218139D03*
X0224389Y0238139D03*
X0240639Y0248139D03*
X0251889Y0258139D03*
X0259389Y0248139D03*
X0259389Y0234389D03*
X0281889Y0234389D03*
X0285639Y0226889D03*
X0279389Y0213139D03*
X0283139Y0199389D03*
X0291889Y0184389D03*
X0283139Y0181889D03*
X0299389Y0205639D03*
X0256889Y0174389D03*
X0280639Y0144389D03*
X0293139Y0119389D03*
X0195639Y0135639D03*
X0188139Y0135639D03*
X0180639Y0135639D03*
X0174389Y0133139D03*
X0170639Y0126889D03*
X0163139Y0125639D03*
X0155639Y0125639D03*
X0148139Y0125639D03*
X0140639Y0125639D03*
X0218139Y0266889D03*
X0215639Y0286889D03*
X0240639Y0269389D03*
X0278139Y0291889D03*
X0278139Y0299389D03*
X0295639Y0275639D03*
X0421889Y0383139D03*
X0414389Y0144389D03*
D19*
X0294389Y0179389D03*
X0291889Y0213139D03*
X0268139Y0218139D03*
X0251889Y0223139D03*
X0243139Y0226889D03*
X0240639Y0231889D03*
X0220639Y0220639D03*
X0203139Y0224389D03*
X0196889Y0239389D03*
X0244389Y0275639D03*
X0248139Y0254389D03*
X0263139Y0304389D03*
X0264389Y0311889D03*
X0205639Y0319389D03*
X0141889Y0308139D03*
X0145639Y0275639D03*
X0220639Y0179389D03*
X0245639Y0178139D03*
X0251889Y0176889D03*
X0283139Y0136889D03*
X0276889Y0106889D03*
X0323139Y0273139D03*
X0418139Y0288139D03*
X0291889Y0400639D03*
X0264389Y0431889D03*
X0231889Y0414389D03*
D20*
X0240639Y0238139D03*
X0179389Y0228139D03*
X0176889Y0210639D03*
M02*
