G75*
%MOIN*%
%OFA0B0*%
%FSLAX25Y25*%
%IPPOS*%
%LPD*%
%AMOC8*
5,1,8,0,0,1.08239X$1,22.5*
%
%ADD10C,0.01600*%
%ADD11C,0.00400*%
%ADD12C,0.00600*%
%ADD13C,0.00500*%
%ADD14C,0.00000*%
%ADD15C,0.00472*%
%ADD16C,0.00787*%
%ADD17C,0.00300*%
%ADD18C,0.00800*%
%ADD19R,0.10800X0.00400*%
%ADD20R,0.08800X0.00400*%
%ADD21R,0.10400X0.00400*%
%ADD22R,0.07200X0.00400*%
%ADD23R,0.05200X0.00400*%
%ADD24R,0.06000X0.00400*%
%ADD25R,0.01600X0.00400*%
%ADD26R,0.08400X0.00400*%
%ADD27R,0.06400X0.00400*%
%ADD28R,0.04800X0.00400*%
%ADD29R,0.00400X0.00400*%
%ADD30R,0.11200X0.00400*%
%ADD31R,0.04000X0.00400*%
%ADD32R,0.05600X0.00400*%
%ADD33R,0.03200X0.00400*%
%ADD34R,0.03600X0.00400*%
%ADD35R,0.00800X0.00400*%
%ADD36R,0.04400X0.00400*%
%ADD37R,0.02000X0.00400*%
%ADD38R,0.02800X0.00400*%
%ADD39R,0.08000X0.00400*%
%ADD40R,0.01200X0.00400*%
%ADD41R,0.02400X0.00400*%
%ADD42R,0.09200X0.00400*%
%ADD43R,0.06800X0.00400*%
%ADD44R,0.07600X0.00400*%
%ADD45R,0.09600X0.00400*%
%ADD46R,0.13600X0.00400*%
D10*
X0116800Y0116800D02*
X0116800Y0251800D01*
X0001800Y0251800D01*
X0001800Y0268050D01*
X0001800Y0275550D02*
X0001800Y0290550D01*
X0001800Y0291800D02*
X0116800Y0291800D01*
X0116800Y0426800D01*
X0251800Y0426800D01*
X0251800Y0541800D01*
X0268050Y0541800D01*
X0275550Y0541800D02*
X0291800Y0541800D01*
X0291800Y0426800D01*
X0426800Y0426800D01*
X0426800Y0291800D01*
X0541800Y0291800D01*
X0541800Y0275550D01*
X0541800Y0268050D02*
X0541800Y0251800D01*
X0426800Y0251800D01*
X0426800Y0116800D01*
X0291800Y0116800D01*
X0291800Y0001800D01*
X0275550Y0001800D01*
X0268050Y0001800D02*
X0251800Y0001800D01*
X0251800Y0116800D01*
X0116800Y0116800D01*
D11*
X0173817Y0135301D02*
X0177654Y0135301D01*
X0178421Y0136068D01*
X0178421Y0137603D01*
X0177654Y0138370D01*
X0173817Y0138370D01*
X0174584Y0139905D02*
X0173817Y0140672D01*
X0173817Y0142207D01*
X0174584Y0142974D01*
X0174584Y0144509D02*
X0175352Y0144509D01*
X0176119Y0145276D01*
X0176119Y0146811D01*
X0176886Y0147578D01*
X0177654Y0147578D01*
X0178421Y0146811D01*
X0178421Y0145276D01*
X0177654Y0144509D01*
X0176886Y0144509D01*
X0176119Y0145276D01*
X0176119Y0146811D02*
X0175352Y0147578D01*
X0174584Y0147578D01*
X0173817Y0146811D01*
X0173817Y0145276D01*
X0174584Y0144509D01*
X0176886Y0142974D02*
X0176119Y0142207D01*
X0176119Y0140672D01*
X0175352Y0139905D01*
X0174584Y0139905D01*
X0173050Y0141439D02*
X0179188Y0141439D01*
X0178421Y0140672D02*
X0178421Y0142207D01*
X0177654Y0142974D01*
X0176886Y0142974D01*
X0178421Y0140672D02*
X0177654Y0139905D01*
X0181896Y0165608D02*
X0184198Y0165608D01*
X0184965Y0166376D01*
X0184965Y0167143D01*
X0184198Y0167910D01*
X0181896Y0167910D01*
X0181896Y0165608D02*
X0181896Y0170212D01*
X0184198Y0170212D01*
X0184965Y0169445D01*
X0184965Y0168678D01*
X0184198Y0167910D01*
X0186500Y0169445D02*
X0187267Y0170212D01*
X0188802Y0170212D01*
X0189569Y0169445D01*
X0189569Y0168678D01*
X0186500Y0165608D01*
X0189569Y0165608D01*
X0300953Y0192239D02*
X0301720Y0192239D01*
X0303255Y0193773D01*
X0305557Y0193773D01*
X0303255Y0193773D02*
X0301720Y0195308D01*
X0300953Y0195308D01*
X0301720Y0196843D02*
X0300953Y0197610D01*
X0300953Y0199144D01*
X0301720Y0199912D01*
X0302487Y0199912D01*
X0305557Y0196843D01*
X0305557Y0199912D01*
X0291893Y0280169D02*
X0290959Y0280169D01*
X0290491Y0280636D01*
X0290491Y0281570D02*
X0291426Y0282038D01*
X0291893Y0282038D01*
X0292360Y0281570D01*
X0292360Y0280636D01*
X0291893Y0280169D01*
X0290491Y0281570D02*
X0290491Y0282972D01*
X0292360Y0282972D01*
X0289413Y0282505D02*
X0288946Y0282972D01*
X0288012Y0282972D01*
X0287545Y0282505D01*
X0287545Y0282038D01*
X0288012Y0281570D01*
X0288946Y0281570D01*
X0289413Y0281103D01*
X0289413Y0280636D01*
X0288946Y0280169D01*
X0288012Y0280169D01*
X0287545Y0280636D01*
X0286467Y0280636D02*
X0286467Y0282972D01*
X0284598Y0282972D02*
X0284598Y0280636D01*
X0285065Y0280169D01*
X0286000Y0280169D01*
X0286467Y0280636D01*
X0288479Y0279702D02*
X0288479Y0283439D01*
X0176926Y0394500D02*
X0177693Y0395267D01*
X0177693Y0398337D01*
X0176926Y0399104D01*
X0174624Y0399104D01*
X0174624Y0394500D01*
X0176926Y0394500D01*
X0173089Y0394500D02*
X0173089Y0399104D01*
X0170020Y0399104D02*
X0173089Y0394500D01*
X0170020Y0394500D02*
X0170020Y0399104D01*
X0168485Y0398337D02*
X0167718Y0399104D01*
X0166183Y0399104D01*
X0165416Y0398337D01*
X0165416Y0395267D01*
X0166183Y0394500D01*
X0167718Y0394500D01*
X0168485Y0395267D01*
X0168485Y0396802D01*
X0166950Y0396802D01*
X0163881Y0393733D02*
X0160812Y0393733D01*
X0157742Y0394500D02*
X0157742Y0399104D01*
X0156208Y0399104D02*
X0159277Y0399104D01*
X0154673Y0397569D02*
X0154673Y0394500D01*
X0154673Y0396802D02*
X0151604Y0396802D01*
X0151604Y0397569D02*
X0151604Y0394500D01*
X0150069Y0395267D02*
X0149302Y0394500D01*
X0147000Y0394500D01*
X0147000Y0399104D01*
X0149302Y0399104D01*
X0150069Y0398337D01*
X0150069Y0397569D01*
X0149302Y0396802D01*
X0147000Y0396802D01*
X0149302Y0396802D02*
X0150069Y0396035D01*
X0150069Y0395267D01*
X0151604Y0397569D02*
X0153139Y0399104D01*
X0154673Y0397569D01*
X0154673Y0404500D02*
X0154673Y0409104D01*
X0156208Y0409104D02*
X0158510Y0409104D01*
X0159277Y0408337D01*
X0159277Y0405267D01*
X0158510Y0404500D01*
X0156208Y0404500D01*
X0156208Y0409104D01*
X0151604Y0409104D02*
X0151604Y0404500D01*
X0150069Y0405267D02*
X0150069Y0406802D01*
X0148535Y0406802D01*
X0150069Y0408337D02*
X0149302Y0409104D01*
X0147767Y0409104D01*
X0147000Y0408337D01*
X0147000Y0405267D01*
X0147767Y0404500D01*
X0149302Y0404500D01*
X0150069Y0405267D01*
X0151604Y0409104D02*
X0154673Y0404500D01*
X0153906Y0389104D02*
X0151604Y0389104D01*
X0151604Y0384500D01*
X0153906Y0384500D01*
X0154673Y0385267D01*
X0154673Y0386035D01*
X0153906Y0386802D01*
X0151604Y0386802D01*
X0150069Y0386035D02*
X0150069Y0389104D01*
X0147000Y0389104D02*
X0147000Y0386035D01*
X0148535Y0384500D01*
X0150069Y0386035D01*
X0153906Y0386802D02*
X0154673Y0387569D01*
X0154673Y0388337D01*
X0153906Y0389104D01*
X0156208Y0387569D02*
X0157742Y0389104D01*
X0159277Y0387569D01*
X0159277Y0384500D01*
X0159277Y0386802D02*
X0156208Y0386802D01*
X0156208Y0387569D02*
X0156208Y0384500D01*
X0156208Y0379104D02*
X0156975Y0378337D01*
X0153906Y0375267D01*
X0154673Y0374500D01*
X0156208Y0374500D01*
X0156975Y0375267D01*
X0156975Y0378337D01*
X0156208Y0379104D02*
X0154673Y0379104D01*
X0153906Y0378337D01*
X0153906Y0375267D01*
X0152371Y0375267D02*
X0152371Y0374500D01*
X0151604Y0374500D01*
X0151604Y0375267D01*
X0152371Y0375267D01*
X0150069Y0375267D02*
X0149302Y0374500D01*
X0147767Y0374500D01*
X0147000Y0375267D01*
X0148535Y0376802D02*
X0149302Y0376802D01*
X0150069Y0376035D01*
X0150069Y0375267D01*
X0149302Y0376802D02*
X0150069Y0377569D01*
X0150069Y0378337D01*
X0149302Y0379104D01*
X0147767Y0379104D01*
X0147000Y0378337D01*
X0147000Y0369104D02*
X0149302Y0369104D01*
X0150069Y0368337D01*
X0150069Y0366802D01*
X0149302Y0366035D01*
X0147000Y0366035D01*
X0147000Y0364500D02*
X0147000Y0369104D01*
X0151604Y0369104D02*
X0153906Y0369104D01*
X0154673Y0368337D01*
X0154673Y0367569D01*
X0153906Y0366802D01*
X0151604Y0366802D01*
X0153906Y0366802D02*
X0154673Y0366035D01*
X0154673Y0365267D01*
X0153906Y0364500D01*
X0151604Y0364500D01*
X0151604Y0369104D01*
X0156208Y0369104D02*
X0156208Y0366802D01*
X0157742Y0367569D01*
X0158510Y0367569D01*
X0159277Y0366802D01*
X0159277Y0365267D01*
X0158510Y0364500D01*
X0156975Y0364500D01*
X0156208Y0365267D01*
X0156208Y0369104D02*
X0159277Y0369104D01*
X0160044Y0374500D02*
X0161579Y0376035D01*
X0161579Y0379104D01*
X0158510Y0379104D02*
X0158510Y0376035D01*
X0160044Y0374500D01*
X0162346Y0384500D02*
X0162346Y0389104D01*
X0160812Y0389104D02*
X0163881Y0389104D01*
X0159277Y0359104D02*
X0156208Y0359104D01*
X0156208Y0356802D01*
X0157742Y0357569D01*
X0158510Y0357569D01*
X0159277Y0356802D01*
X0159277Y0355267D01*
X0158510Y0354500D01*
X0156975Y0354500D01*
X0156208Y0355267D01*
X0154673Y0354500D02*
X0151604Y0354500D01*
X0151604Y0359104D01*
X0154673Y0359104D01*
X0153139Y0356802D02*
X0151604Y0356802D01*
X0150069Y0356802D02*
X0149302Y0356035D01*
X0147000Y0356035D01*
X0147000Y0354500D02*
X0147000Y0359104D01*
X0149302Y0359104D01*
X0150069Y0358337D01*
X0150069Y0356802D01*
X0149302Y0349104D02*
X0150069Y0348337D01*
X0150069Y0346802D01*
X0149302Y0346035D01*
X0147000Y0346035D01*
X0147000Y0344500D02*
X0147000Y0349104D01*
X0149302Y0349104D01*
X0151604Y0349104D02*
X0151604Y0344500D01*
X0154673Y0344500D01*
X0156208Y0345267D02*
X0156975Y0344500D01*
X0158510Y0344500D01*
X0159277Y0345267D01*
X0159277Y0346035D01*
X0158510Y0346802D01*
X0157742Y0346802D01*
X0158510Y0346802D02*
X0159277Y0347569D01*
X0159277Y0348337D01*
X0158510Y0349104D01*
X0156975Y0349104D01*
X0156208Y0348337D01*
X0154673Y0349104D02*
X0151604Y0349104D01*
X0151604Y0346802D02*
X0153139Y0346802D01*
X0154673Y0339104D02*
X0151604Y0339104D01*
X0151604Y0334500D01*
X0154673Y0334500D01*
X0153139Y0336802D02*
X0151604Y0336802D01*
X0150069Y0336802D02*
X0149302Y0336035D01*
X0147000Y0336035D01*
X0147000Y0334500D02*
X0147000Y0339104D01*
X0149302Y0339104D01*
X0150069Y0338337D01*
X0150069Y0336802D01*
X0156208Y0336802D02*
X0159277Y0336802D01*
X0158510Y0334500D02*
X0158510Y0339104D01*
X0156208Y0336802D01*
X0157742Y0329104D02*
X0156208Y0327569D01*
X0156208Y0324500D01*
X0154673Y0325267D02*
X0154673Y0328337D01*
X0153906Y0329104D01*
X0151604Y0329104D01*
X0151604Y0324500D01*
X0153906Y0324500D01*
X0154673Y0325267D01*
X0156208Y0326802D02*
X0159277Y0326802D01*
X0159277Y0327569D02*
X0159277Y0324500D01*
X0159277Y0327569D02*
X0157742Y0329104D01*
X0150069Y0328337D02*
X0149302Y0329104D01*
X0147767Y0329104D01*
X0147000Y0328337D01*
X0147000Y0327569D01*
X0147767Y0326802D01*
X0149302Y0326802D01*
X0150069Y0326035D01*
X0150069Y0325267D01*
X0149302Y0324500D01*
X0147767Y0324500D01*
X0147000Y0325267D01*
X0147767Y0319104D02*
X0147000Y0318337D01*
X0147000Y0317569D01*
X0147767Y0316802D01*
X0149302Y0316802D01*
X0150069Y0316035D01*
X0150069Y0315267D01*
X0149302Y0314500D01*
X0147767Y0314500D01*
X0147000Y0315267D01*
X0147767Y0319104D02*
X0149302Y0319104D01*
X0150069Y0318337D01*
X0151604Y0318337D02*
X0151604Y0315267D01*
X0152371Y0314500D01*
X0153906Y0314500D01*
X0154673Y0315267D01*
X0156208Y0314500D02*
X0159277Y0314500D01*
X0156208Y0314500D02*
X0156208Y0319104D01*
X0154673Y0318337D02*
X0153906Y0319104D01*
X0152371Y0319104D01*
X0151604Y0318337D01*
X0050361Y0279725D02*
X0050361Y0276656D01*
X0047289Y0275788D02*
X0047289Y0272718D01*
X0047289Y0274253D02*
X0042685Y0274253D01*
X0044220Y0272718D01*
X0043452Y0271184D02*
X0042685Y0270417D01*
X0042685Y0268882D01*
X0043452Y0268115D01*
X0044220Y0268115D01*
X0044987Y0268882D01*
X0044987Y0270417D01*
X0045754Y0271184D01*
X0046522Y0271184D01*
X0047289Y0270417D01*
X0047289Y0268882D01*
X0046522Y0268115D01*
X0046522Y0266580D02*
X0042685Y0266580D01*
X0042685Y0263511D02*
X0046522Y0263511D01*
X0047289Y0264278D01*
X0047289Y0265813D01*
X0046522Y0266580D01*
X0048826Y0266379D02*
X0051896Y0266379D01*
X0050361Y0264844D02*
X0050361Y0267914D01*
X0048056Y0269649D02*
X0041918Y0269649D01*
X0043452Y0277322D02*
X0042685Y0278090D01*
X0042685Y0279624D01*
X0043452Y0280392D01*
X0046522Y0277322D01*
X0047289Y0278090D01*
X0047289Y0279624D01*
X0046522Y0280392D01*
X0043452Y0280392D01*
X0043452Y0277322D02*
X0046522Y0277322D01*
X0265129Y0497954D02*
X0265129Y0501024D01*
X0265330Y0502561D02*
X0266865Y0502561D01*
X0267632Y0503328D01*
X0267632Y0507165D01*
X0269167Y0506398D02*
X0269934Y0507165D01*
X0271468Y0507165D01*
X0272236Y0506398D01*
X0273770Y0506398D02*
X0273770Y0505630D01*
X0274538Y0504863D01*
X0276840Y0504863D01*
X0276840Y0503328D02*
X0276840Y0506398D01*
X0276072Y0507165D01*
X0274538Y0507165D01*
X0273770Y0506398D01*
X0271468Y0504863D02*
X0269934Y0504863D01*
X0269167Y0505630D01*
X0269167Y0506398D01*
X0270701Y0507932D02*
X0270701Y0501794D01*
X0269934Y0502561D02*
X0271468Y0502561D01*
X0272236Y0503328D01*
X0272236Y0504096D01*
X0271468Y0504863D01*
X0269167Y0503328D02*
X0269934Y0502561D01*
X0273770Y0503328D02*
X0274538Y0502561D01*
X0276072Y0502561D01*
X0276840Y0503328D01*
X0275406Y0499489D02*
X0278475Y0499489D01*
X0266664Y0499489D02*
X0263594Y0499489D01*
X0265330Y0502561D02*
X0264563Y0503328D01*
X0264563Y0507165D01*
X0496700Y0277336D02*
X0499770Y0277336D01*
X0501307Y0278670D02*
X0502842Y0277135D01*
X0501307Y0278670D02*
X0505911Y0278670D01*
X0505911Y0277135D02*
X0505911Y0280205D01*
X0505911Y0275601D02*
X0505911Y0272531D01*
X0505911Y0274066D02*
X0501307Y0274066D01*
X0502842Y0272531D01*
X0502074Y0270997D02*
X0501307Y0270230D01*
X0501307Y0268695D01*
X0502074Y0267928D01*
X0502842Y0267928D01*
X0503609Y0268695D01*
X0503609Y0270230D01*
X0504376Y0270997D01*
X0505144Y0270997D01*
X0505911Y0270230D01*
X0505911Y0268695D01*
X0505144Y0267928D01*
X0505144Y0266393D02*
X0501307Y0266393D01*
X0501307Y0263324D02*
X0505144Y0263324D01*
X0505911Y0264091D01*
X0505911Y0265626D01*
X0505144Y0266393D01*
X0506678Y0269462D02*
X0500540Y0269462D01*
X0498235Y0267060D02*
X0498235Y0263991D01*
X0498235Y0275802D02*
X0498235Y0278871D01*
X0276086Y0046900D02*
X0276086Y0043830D01*
X0276653Y0042293D02*
X0275885Y0041526D01*
X0276653Y0042293D02*
X0278187Y0042293D01*
X0278955Y0041526D01*
X0278955Y0040758D01*
X0275885Y0037689D01*
X0278955Y0037689D01*
X0274351Y0037689D02*
X0271281Y0037689D01*
X0272816Y0037689D02*
X0272816Y0042293D01*
X0271281Y0040758D01*
X0269747Y0041526D02*
X0268980Y0042293D01*
X0267445Y0042293D01*
X0266678Y0041526D01*
X0266678Y0040758D01*
X0267445Y0039991D01*
X0268980Y0039991D01*
X0269747Y0039224D01*
X0269747Y0038456D01*
X0268980Y0037689D01*
X0267445Y0037689D01*
X0266678Y0038456D01*
X0265143Y0038456D02*
X0264376Y0037689D01*
X0262841Y0037689D01*
X0262074Y0038456D01*
X0262074Y0042293D01*
X0265143Y0042293D02*
X0265143Y0038456D01*
X0268212Y0036922D02*
X0268212Y0043060D01*
X0265810Y0045365D02*
X0262741Y0045365D01*
X0274552Y0045365D02*
X0277621Y0045365D01*
D12*
X0274950Y0001711D02*
X0275345Y0001793D01*
X0275739Y0001885D01*
X0276130Y0001986D01*
X0276519Y0002097D01*
X0276904Y0002217D01*
X0277287Y0002347D01*
X0277666Y0002486D01*
X0278042Y0002634D01*
X0278414Y0002791D01*
X0278783Y0002958D01*
X0279147Y0003133D01*
X0279506Y0003317D01*
X0279861Y0003510D01*
X0280211Y0003712D01*
X0280556Y0003922D01*
X0280896Y0004140D01*
X0281231Y0004367D01*
X0281560Y0004602D01*
X0281882Y0004845D01*
X0282199Y0005096D01*
X0282510Y0005354D01*
X0282814Y0005620D01*
X0283112Y0005893D01*
X0283403Y0006174D01*
X0283687Y0006461D01*
X0283963Y0006756D01*
X0284233Y0007057D01*
X0284495Y0007364D01*
X0284749Y0007678D01*
X0284996Y0007998D01*
X0285235Y0008324D01*
X0285466Y0008656D01*
X0285688Y0008993D01*
X0285902Y0009336D01*
X0286108Y0009683D01*
X0286305Y0010036D01*
X0286494Y0010393D01*
X0286673Y0010755D01*
X0286844Y0011121D01*
X0287006Y0011492D01*
X0287159Y0011866D01*
X0287302Y0012243D01*
X0287436Y0012625D01*
X0287561Y0013009D01*
X0287676Y0013396D01*
X0287782Y0013786D01*
X0287879Y0014178D01*
X0287965Y0014573D01*
X0288042Y0014970D01*
X0288109Y0015368D01*
X0288167Y0015768D01*
X0288214Y0016169D01*
X0288252Y0016572D01*
X0288280Y0016975D01*
X0288298Y0017378D01*
X0288306Y0017782D01*
X0288305Y0018186D01*
X0288293Y0018590D01*
X0288272Y0018994D01*
X0288240Y0019397D01*
X0288199Y0019798D01*
X0288148Y0020199D01*
X0288087Y0020599D01*
X0288017Y0020997D01*
X0287937Y0021393D01*
X0287847Y0021786D01*
X0287747Y0022178D01*
X0287638Y0022567D01*
X0287519Y0022953D01*
X0287391Y0023337D01*
X0287254Y0023717D01*
X0287107Y0024093D01*
X0286951Y0024466D01*
X0286787Y0024835D01*
X0286613Y0025200D01*
X0286430Y0025560D01*
X0286239Y0025916D01*
X0286038Y0026267D01*
X0285830Y0026613D01*
X0285613Y0026953D01*
X0285387Y0027289D01*
X0285154Y0027619D01*
X0284912Y0027942D01*
X0284663Y0028260D01*
X0284406Y0028572D01*
X0284141Y0028877D01*
X0283869Y0029176D01*
X0283590Y0029468D01*
X0283304Y0029753D01*
X0283010Y0030031D01*
X0282711Y0030302D01*
X0282404Y0030565D01*
X0282091Y0030821D01*
X0281772Y0031069D01*
X0281447Y0031309D01*
X0281117Y0031541D01*
X0280780Y0031765D01*
X0280439Y0031981D01*
X0280092Y0032188D01*
X0279740Y0032387D01*
X0279383Y0032577D01*
X0279022Y0032758D01*
X0278657Y0032931D01*
X0278287Y0033094D01*
X0277914Y0033248D01*
X0277537Y0033393D01*
X0277156Y0033529D01*
X0276772Y0033655D01*
X0276386Y0033772D01*
X0275996Y0033880D01*
X0275604Y0033978D01*
X0275210Y0034066D01*
X0274813Y0034145D01*
X0274415Y0034214D01*
X0274016Y0034273D01*
X0273615Y0034322D01*
X0273212Y0034361D01*
X0272810Y0034391D01*
X0272406Y0034411D01*
X0272002Y0034421D01*
X0271598Y0034421D01*
X0271194Y0034411D01*
X0270790Y0034391D01*
X0270388Y0034361D01*
X0269985Y0034322D01*
X0269584Y0034273D01*
X0269185Y0034214D01*
X0268787Y0034145D01*
X0268390Y0034066D01*
X0267996Y0033978D01*
X0267604Y0033880D01*
X0267214Y0033772D01*
X0266828Y0033655D01*
X0266444Y0033529D01*
X0266063Y0033393D01*
X0265686Y0033248D01*
X0265313Y0033094D01*
X0264943Y0032931D01*
X0264578Y0032758D01*
X0264217Y0032577D01*
X0263860Y0032387D01*
X0263508Y0032188D01*
X0263161Y0031981D01*
X0262820Y0031765D01*
X0262483Y0031541D01*
X0262153Y0031309D01*
X0261828Y0031069D01*
X0261509Y0030821D01*
X0261196Y0030565D01*
X0260889Y0030302D01*
X0260590Y0030031D01*
X0260296Y0029753D01*
X0260010Y0029468D01*
X0259731Y0029176D01*
X0259459Y0028877D01*
X0259194Y0028572D01*
X0258937Y0028260D01*
X0258688Y0027942D01*
X0258446Y0027619D01*
X0258213Y0027289D01*
X0257987Y0026953D01*
X0257770Y0026613D01*
X0257562Y0026267D01*
X0257361Y0025916D01*
X0257170Y0025560D01*
X0256987Y0025200D01*
X0256813Y0024835D01*
X0256649Y0024466D01*
X0256493Y0024093D01*
X0256346Y0023717D01*
X0256209Y0023337D01*
X0256081Y0022953D01*
X0255962Y0022567D01*
X0255853Y0022178D01*
X0255753Y0021786D01*
X0255663Y0021393D01*
X0255583Y0020997D01*
X0255513Y0020599D01*
X0255452Y0020199D01*
X0255401Y0019798D01*
X0255360Y0019397D01*
X0255328Y0018994D01*
X0255307Y0018590D01*
X0255295Y0018186D01*
X0255294Y0017782D01*
X0255302Y0017378D01*
X0255320Y0016975D01*
X0255348Y0016572D01*
X0255386Y0016169D01*
X0255433Y0015768D01*
X0255491Y0015368D01*
X0255558Y0014970D01*
X0255635Y0014573D01*
X0255721Y0014178D01*
X0255818Y0013786D01*
X0255924Y0013396D01*
X0256039Y0013009D01*
X0256164Y0012625D01*
X0256298Y0012243D01*
X0256441Y0011866D01*
X0256594Y0011492D01*
X0256756Y0011121D01*
X0256927Y0010755D01*
X0257106Y0010393D01*
X0257295Y0010036D01*
X0257492Y0009683D01*
X0257698Y0009336D01*
X0257912Y0008993D01*
X0258134Y0008656D01*
X0258365Y0008324D01*
X0258604Y0007998D01*
X0258851Y0007678D01*
X0259105Y0007364D01*
X0259367Y0007057D01*
X0259637Y0006756D01*
X0259913Y0006461D01*
X0260197Y0006174D01*
X0260488Y0005893D01*
X0260786Y0005620D01*
X0261090Y0005354D01*
X0261401Y0005096D01*
X0261718Y0004845D01*
X0262040Y0004602D01*
X0262369Y0004367D01*
X0262704Y0004140D01*
X0263044Y0003922D01*
X0263389Y0003712D01*
X0263739Y0003510D01*
X0264094Y0003317D01*
X0264453Y0003133D01*
X0264817Y0002958D01*
X0265186Y0002791D01*
X0265558Y0002634D01*
X0265934Y0002486D01*
X0266313Y0002347D01*
X0266696Y0002217D01*
X0267081Y0002097D01*
X0267470Y0001986D01*
X0267861Y0001885D01*
X0268255Y0001793D01*
X0268650Y0001711D01*
X0215042Y0212935D02*
X0212106Y0212935D01*
X0215042Y0215871D01*
X0215042Y0216605D01*
X0214308Y0217339D01*
X0212840Y0217339D01*
X0212106Y0216605D01*
X0210438Y0217339D02*
X0210438Y0213669D01*
X0209704Y0212935D01*
X0208236Y0212935D01*
X0207502Y0213669D01*
X0207502Y0217339D01*
X0001711Y0268650D02*
X0001793Y0268255D01*
X0001885Y0267861D01*
X0001986Y0267470D01*
X0002097Y0267081D01*
X0002217Y0266696D01*
X0002347Y0266313D01*
X0002486Y0265934D01*
X0002634Y0265558D01*
X0002791Y0265186D01*
X0002958Y0264817D01*
X0003133Y0264453D01*
X0003317Y0264094D01*
X0003510Y0263739D01*
X0003712Y0263389D01*
X0003922Y0263044D01*
X0004140Y0262704D01*
X0004367Y0262369D01*
X0004602Y0262040D01*
X0004845Y0261718D01*
X0005096Y0261401D01*
X0005354Y0261090D01*
X0005620Y0260786D01*
X0005893Y0260488D01*
X0006174Y0260197D01*
X0006461Y0259913D01*
X0006756Y0259637D01*
X0007057Y0259367D01*
X0007364Y0259105D01*
X0007678Y0258851D01*
X0007998Y0258604D01*
X0008324Y0258365D01*
X0008656Y0258134D01*
X0008993Y0257912D01*
X0009336Y0257698D01*
X0009683Y0257492D01*
X0010036Y0257295D01*
X0010393Y0257106D01*
X0010755Y0256927D01*
X0011121Y0256756D01*
X0011492Y0256594D01*
X0011866Y0256441D01*
X0012243Y0256298D01*
X0012625Y0256164D01*
X0013009Y0256039D01*
X0013396Y0255924D01*
X0013786Y0255818D01*
X0014178Y0255721D01*
X0014573Y0255635D01*
X0014970Y0255558D01*
X0015368Y0255491D01*
X0015768Y0255433D01*
X0016169Y0255386D01*
X0016572Y0255348D01*
X0016975Y0255320D01*
X0017378Y0255302D01*
X0017782Y0255294D01*
X0018186Y0255295D01*
X0018590Y0255307D01*
X0018994Y0255328D01*
X0019397Y0255360D01*
X0019798Y0255401D01*
X0020199Y0255452D01*
X0020599Y0255513D01*
X0020997Y0255583D01*
X0021393Y0255663D01*
X0021786Y0255753D01*
X0022178Y0255853D01*
X0022567Y0255962D01*
X0022953Y0256081D01*
X0023337Y0256209D01*
X0023717Y0256346D01*
X0024093Y0256493D01*
X0024466Y0256649D01*
X0024835Y0256813D01*
X0025200Y0256987D01*
X0025560Y0257170D01*
X0025916Y0257361D01*
X0026267Y0257562D01*
X0026613Y0257770D01*
X0026953Y0257987D01*
X0027289Y0258213D01*
X0027619Y0258446D01*
X0027942Y0258688D01*
X0028260Y0258937D01*
X0028572Y0259194D01*
X0028877Y0259459D01*
X0029176Y0259731D01*
X0029468Y0260010D01*
X0029753Y0260296D01*
X0030031Y0260590D01*
X0030302Y0260889D01*
X0030565Y0261196D01*
X0030821Y0261509D01*
X0031069Y0261828D01*
X0031309Y0262153D01*
X0031541Y0262483D01*
X0031765Y0262820D01*
X0031981Y0263161D01*
X0032188Y0263508D01*
X0032387Y0263860D01*
X0032577Y0264217D01*
X0032758Y0264578D01*
X0032931Y0264943D01*
X0033094Y0265313D01*
X0033248Y0265686D01*
X0033393Y0266063D01*
X0033529Y0266444D01*
X0033655Y0266828D01*
X0033772Y0267214D01*
X0033880Y0267604D01*
X0033978Y0267996D01*
X0034066Y0268390D01*
X0034145Y0268787D01*
X0034214Y0269185D01*
X0034273Y0269584D01*
X0034322Y0269985D01*
X0034361Y0270388D01*
X0034391Y0270790D01*
X0034411Y0271194D01*
X0034421Y0271598D01*
X0034421Y0272002D01*
X0034411Y0272406D01*
X0034391Y0272810D01*
X0034361Y0273212D01*
X0034322Y0273615D01*
X0034273Y0274016D01*
X0034214Y0274415D01*
X0034145Y0274813D01*
X0034066Y0275210D01*
X0033978Y0275604D01*
X0033880Y0275996D01*
X0033772Y0276386D01*
X0033655Y0276772D01*
X0033529Y0277156D01*
X0033393Y0277537D01*
X0033248Y0277914D01*
X0033094Y0278287D01*
X0032931Y0278657D01*
X0032758Y0279022D01*
X0032577Y0279383D01*
X0032387Y0279740D01*
X0032188Y0280092D01*
X0031981Y0280439D01*
X0031765Y0280780D01*
X0031541Y0281117D01*
X0031309Y0281447D01*
X0031069Y0281772D01*
X0030821Y0282091D01*
X0030565Y0282404D01*
X0030302Y0282711D01*
X0030031Y0283010D01*
X0029753Y0283304D01*
X0029468Y0283590D01*
X0029176Y0283869D01*
X0028877Y0284141D01*
X0028572Y0284406D01*
X0028260Y0284663D01*
X0027942Y0284912D01*
X0027619Y0285154D01*
X0027289Y0285387D01*
X0026953Y0285613D01*
X0026613Y0285830D01*
X0026267Y0286038D01*
X0025916Y0286239D01*
X0025560Y0286430D01*
X0025200Y0286613D01*
X0024835Y0286787D01*
X0024466Y0286951D01*
X0024093Y0287107D01*
X0023717Y0287254D01*
X0023337Y0287391D01*
X0022953Y0287519D01*
X0022567Y0287638D01*
X0022178Y0287747D01*
X0021786Y0287847D01*
X0021393Y0287937D01*
X0020997Y0288017D01*
X0020599Y0288087D01*
X0020199Y0288148D01*
X0019798Y0288199D01*
X0019397Y0288240D01*
X0018994Y0288272D01*
X0018590Y0288293D01*
X0018186Y0288305D01*
X0017782Y0288306D01*
X0017378Y0288298D01*
X0016975Y0288280D01*
X0016572Y0288252D01*
X0016169Y0288214D01*
X0015768Y0288167D01*
X0015368Y0288109D01*
X0014970Y0288042D01*
X0014573Y0287965D01*
X0014178Y0287879D01*
X0013786Y0287782D01*
X0013396Y0287676D01*
X0013009Y0287561D01*
X0012625Y0287436D01*
X0012243Y0287302D01*
X0011866Y0287159D01*
X0011492Y0287006D01*
X0011121Y0286844D01*
X0010755Y0286673D01*
X0010393Y0286494D01*
X0010036Y0286305D01*
X0009683Y0286108D01*
X0009336Y0285902D01*
X0008993Y0285688D01*
X0008656Y0285466D01*
X0008324Y0285235D01*
X0007998Y0284996D01*
X0007678Y0284749D01*
X0007364Y0284495D01*
X0007057Y0284233D01*
X0006756Y0283963D01*
X0006461Y0283687D01*
X0006174Y0283403D01*
X0005893Y0283112D01*
X0005620Y0282814D01*
X0005354Y0282510D01*
X0005096Y0282199D01*
X0004845Y0281882D01*
X0004602Y0281560D01*
X0004367Y0281231D01*
X0004140Y0280896D01*
X0003922Y0280556D01*
X0003712Y0280211D01*
X0003510Y0279861D01*
X0003317Y0279506D01*
X0003133Y0279147D01*
X0002958Y0278783D01*
X0002791Y0278414D01*
X0002634Y0278042D01*
X0002486Y0277666D01*
X0002347Y0277287D01*
X0002217Y0276904D01*
X0002097Y0276519D01*
X0001986Y0276130D01*
X0001885Y0275739D01*
X0001793Y0275345D01*
X0001711Y0274950D01*
X0268650Y0541889D02*
X0268255Y0541807D01*
X0267861Y0541715D01*
X0267470Y0541614D01*
X0267081Y0541503D01*
X0266696Y0541383D01*
X0266313Y0541253D01*
X0265934Y0541114D01*
X0265558Y0540966D01*
X0265186Y0540809D01*
X0264817Y0540642D01*
X0264453Y0540467D01*
X0264094Y0540283D01*
X0263739Y0540090D01*
X0263389Y0539888D01*
X0263044Y0539678D01*
X0262704Y0539460D01*
X0262369Y0539233D01*
X0262040Y0538998D01*
X0261718Y0538755D01*
X0261401Y0538504D01*
X0261090Y0538246D01*
X0260786Y0537980D01*
X0260488Y0537707D01*
X0260197Y0537426D01*
X0259913Y0537139D01*
X0259637Y0536844D01*
X0259367Y0536543D01*
X0259105Y0536236D01*
X0258851Y0535922D01*
X0258604Y0535602D01*
X0258365Y0535276D01*
X0258134Y0534944D01*
X0257912Y0534607D01*
X0257698Y0534264D01*
X0257492Y0533917D01*
X0257295Y0533564D01*
X0257106Y0533207D01*
X0256927Y0532845D01*
X0256756Y0532479D01*
X0256594Y0532108D01*
X0256441Y0531734D01*
X0256298Y0531357D01*
X0256164Y0530975D01*
X0256039Y0530591D01*
X0255924Y0530204D01*
X0255818Y0529814D01*
X0255721Y0529422D01*
X0255635Y0529027D01*
X0255558Y0528630D01*
X0255491Y0528232D01*
X0255433Y0527832D01*
X0255386Y0527431D01*
X0255348Y0527028D01*
X0255320Y0526625D01*
X0255302Y0526222D01*
X0255294Y0525818D01*
X0255295Y0525414D01*
X0255307Y0525010D01*
X0255328Y0524606D01*
X0255360Y0524203D01*
X0255401Y0523802D01*
X0255452Y0523401D01*
X0255513Y0523001D01*
X0255583Y0522603D01*
X0255663Y0522207D01*
X0255753Y0521814D01*
X0255853Y0521422D01*
X0255962Y0521033D01*
X0256081Y0520647D01*
X0256209Y0520263D01*
X0256346Y0519883D01*
X0256493Y0519507D01*
X0256649Y0519134D01*
X0256813Y0518765D01*
X0256987Y0518400D01*
X0257170Y0518040D01*
X0257361Y0517684D01*
X0257562Y0517333D01*
X0257770Y0516987D01*
X0257987Y0516647D01*
X0258213Y0516311D01*
X0258446Y0515981D01*
X0258688Y0515658D01*
X0258937Y0515340D01*
X0259194Y0515028D01*
X0259459Y0514723D01*
X0259731Y0514424D01*
X0260010Y0514132D01*
X0260296Y0513847D01*
X0260590Y0513569D01*
X0260889Y0513298D01*
X0261196Y0513035D01*
X0261509Y0512779D01*
X0261828Y0512531D01*
X0262153Y0512291D01*
X0262483Y0512059D01*
X0262820Y0511835D01*
X0263161Y0511619D01*
X0263508Y0511412D01*
X0263860Y0511213D01*
X0264217Y0511023D01*
X0264578Y0510842D01*
X0264943Y0510669D01*
X0265313Y0510506D01*
X0265686Y0510352D01*
X0266063Y0510207D01*
X0266444Y0510071D01*
X0266828Y0509945D01*
X0267214Y0509828D01*
X0267604Y0509720D01*
X0267996Y0509622D01*
X0268390Y0509534D01*
X0268787Y0509455D01*
X0269185Y0509386D01*
X0269584Y0509327D01*
X0269985Y0509278D01*
X0270388Y0509239D01*
X0270790Y0509209D01*
X0271194Y0509189D01*
X0271598Y0509179D01*
X0272002Y0509179D01*
X0272406Y0509189D01*
X0272810Y0509209D01*
X0273212Y0509239D01*
X0273615Y0509278D01*
X0274016Y0509327D01*
X0274415Y0509386D01*
X0274813Y0509455D01*
X0275210Y0509534D01*
X0275604Y0509622D01*
X0275996Y0509720D01*
X0276386Y0509828D01*
X0276772Y0509945D01*
X0277156Y0510071D01*
X0277537Y0510207D01*
X0277914Y0510352D01*
X0278287Y0510506D01*
X0278657Y0510669D01*
X0279022Y0510842D01*
X0279383Y0511023D01*
X0279740Y0511213D01*
X0280092Y0511412D01*
X0280439Y0511619D01*
X0280780Y0511835D01*
X0281117Y0512059D01*
X0281447Y0512291D01*
X0281772Y0512531D01*
X0282091Y0512779D01*
X0282404Y0513035D01*
X0282711Y0513298D01*
X0283010Y0513569D01*
X0283304Y0513847D01*
X0283590Y0514132D01*
X0283869Y0514424D01*
X0284141Y0514723D01*
X0284406Y0515028D01*
X0284663Y0515340D01*
X0284912Y0515658D01*
X0285154Y0515981D01*
X0285387Y0516311D01*
X0285613Y0516647D01*
X0285830Y0516987D01*
X0286038Y0517333D01*
X0286239Y0517684D01*
X0286430Y0518040D01*
X0286613Y0518400D01*
X0286787Y0518765D01*
X0286951Y0519134D01*
X0287107Y0519507D01*
X0287254Y0519883D01*
X0287391Y0520263D01*
X0287519Y0520647D01*
X0287638Y0521033D01*
X0287747Y0521422D01*
X0287847Y0521814D01*
X0287937Y0522207D01*
X0288017Y0522603D01*
X0288087Y0523001D01*
X0288148Y0523401D01*
X0288199Y0523802D01*
X0288240Y0524203D01*
X0288272Y0524606D01*
X0288293Y0525010D01*
X0288305Y0525414D01*
X0288306Y0525818D01*
X0288298Y0526222D01*
X0288280Y0526625D01*
X0288252Y0527028D01*
X0288214Y0527431D01*
X0288167Y0527832D01*
X0288109Y0528232D01*
X0288042Y0528630D01*
X0287965Y0529027D01*
X0287879Y0529422D01*
X0287782Y0529814D01*
X0287676Y0530204D01*
X0287561Y0530591D01*
X0287436Y0530975D01*
X0287302Y0531357D01*
X0287159Y0531734D01*
X0287006Y0532108D01*
X0286844Y0532479D01*
X0286673Y0532845D01*
X0286494Y0533207D01*
X0286305Y0533564D01*
X0286108Y0533917D01*
X0285902Y0534264D01*
X0285688Y0534607D01*
X0285466Y0534944D01*
X0285235Y0535276D01*
X0284996Y0535602D01*
X0284749Y0535922D01*
X0284495Y0536236D01*
X0284233Y0536543D01*
X0283963Y0536844D01*
X0283687Y0537139D01*
X0283403Y0537426D01*
X0283112Y0537707D01*
X0282814Y0537980D01*
X0282510Y0538246D01*
X0282199Y0538504D01*
X0281882Y0538755D01*
X0281560Y0538998D01*
X0281231Y0539233D01*
X0280896Y0539460D01*
X0280556Y0539678D01*
X0280211Y0539888D01*
X0279861Y0540090D01*
X0279506Y0540283D01*
X0279147Y0540467D01*
X0278783Y0540642D01*
X0278414Y0540809D01*
X0278042Y0540966D01*
X0277666Y0541114D01*
X0277287Y0541253D01*
X0276904Y0541383D01*
X0276519Y0541503D01*
X0276130Y0541614D01*
X0275739Y0541715D01*
X0275345Y0541807D01*
X0274950Y0541889D01*
X0541889Y0274950D02*
X0541807Y0275345D01*
X0541715Y0275739D01*
X0541614Y0276130D01*
X0541503Y0276519D01*
X0541383Y0276904D01*
X0541253Y0277287D01*
X0541114Y0277666D01*
X0540966Y0278042D01*
X0540809Y0278414D01*
X0540642Y0278783D01*
X0540467Y0279147D01*
X0540283Y0279506D01*
X0540090Y0279861D01*
X0539888Y0280211D01*
X0539678Y0280556D01*
X0539460Y0280896D01*
X0539233Y0281231D01*
X0538998Y0281560D01*
X0538755Y0281882D01*
X0538504Y0282199D01*
X0538246Y0282510D01*
X0537980Y0282814D01*
X0537707Y0283112D01*
X0537426Y0283403D01*
X0537139Y0283687D01*
X0536844Y0283963D01*
X0536543Y0284233D01*
X0536236Y0284495D01*
X0535922Y0284749D01*
X0535602Y0284996D01*
X0535276Y0285235D01*
X0534944Y0285466D01*
X0534607Y0285688D01*
X0534264Y0285902D01*
X0533917Y0286108D01*
X0533564Y0286305D01*
X0533207Y0286494D01*
X0532845Y0286673D01*
X0532479Y0286844D01*
X0532108Y0287006D01*
X0531734Y0287159D01*
X0531357Y0287302D01*
X0530975Y0287436D01*
X0530591Y0287561D01*
X0530204Y0287676D01*
X0529814Y0287782D01*
X0529422Y0287879D01*
X0529027Y0287965D01*
X0528630Y0288042D01*
X0528232Y0288109D01*
X0527832Y0288167D01*
X0527431Y0288214D01*
X0527028Y0288252D01*
X0526625Y0288280D01*
X0526222Y0288298D01*
X0525818Y0288306D01*
X0525414Y0288305D01*
X0525010Y0288293D01*
X0524606Y0288272D01*
X0524203Y0288240D01*
X0523802Y0288199D01*
X0523401Y0288148D01*
X0523001Y0288087D01*
X0522603Y0288017D01*
X0522207Y0287937D01*
X0521814Y0287847D01*
X0521422Y0287747D01*
X0521033Y0287638D01*
X0520647Y0287519D01*
X0520263Y0287391D01*
X0519883Y0287254D01*
X0519507Y0287107D01*
X0519134Y0286951D01*
X0518765Y0286787D01*
X0518400Y0286613D01*
X0518040Y0286430D01*
X0517684Y0286239D01*
X0517333Y0286038D01*
X0516987Y0285830D01*
X0516647Y0285613D01*
X0516311Y0285387D01*
X0515981Y0285154D01*
X0515658Y0284912D01*
X0515340Y0284663D01*
X0515028Y0284406D01*
X0514723Y0284141D01*
X0514424Y0283869D01*
X0514132Y0283590D01*
X0513847Y0283304D01*
X0513569Y0283010D01*
X0513298Y0282711D01*
X0513035Y0282404D01*
X0512779Y0282091D01*
X0512531Y0281772D01*
X0512291Y0281447D01*
X0512059Y0281117D01*
X0511835Y0280780D01*
X0511619Y0280439D01*
X0511412Y0280092D01*
X0511213Y0279740D01*
X0511023Y0279383D01*
X0510842Y0279022D01*
X0510669Y0278657D01*
X0510506Y0278287D01*
X0510352Y0277914D01*
X0510207Y0277537D01*
X0510071Y0277156D01*
X0509945Y0276772D01*
X0509828Y0276386D01*
X0509720Y0275996D01*
X0509622Y0275604D01*
X0509534Y0275210D01*
X0509455Y0274813D01*
X0509386Y0274415D01*
X0509327Y0274016D01*
X0509278Y0273615D01*
X0509239Y0273212D01*
X0509209Y0272810D01*
X0509189Y0272406D01*
X0509179Y0272002D01*
X0509179Y0271598D01*
X0509189Y0271194D01*
X0509209Y0270790D01*
X0509239Y0270388D01*
X0509278Y0269985D01*
X0509327Y0269584D01*
X0509386Y0269185D01*
X0509455Y0268787D01*
X0509534Y0268390D01*
X0509622Y0267996D01*
X0509720Y0267604D01*
X0509828Y0267214D01*
X0509945Y0266828D01*
X0510071Y0266444D01*
X0510207Y0266063D01*
X0510352Y0265686D01*
X0510506Y0265313D01*
X0510669Y0264943D01*
X0510842Y0264578D01*
X0511023Y0264217D01*
X0511213Y0263860D01*
X0511412Y0263508D01*
X0511619Y0263161D01*
X0511835Y0262820D01*
X0512059Y0262483D01*
X0512291Y0262153D01*
X0512531Y0261828D01*
X0512779Y0261509D01*
X0513035Y0261196D01*
X0513298Y0260889D01*
X0513569Y0260590D01*
X0513847Y0260296D01*
X0514132Y0260010D01*
X0514424Y0259731D01*
X0514723Y0259459D01*
X0515028Y0259194D01*
X0515340Y0258937D01*
X0515658Y0258688D01*
X0515981Y0258446D01*
X0516311Y0258213D01*
X0516647Y0257987D01*
X0516987Y0257770D01*
X0517333Y0257562D01*
X0517684Y0257361D01*
X0518040Y0257170D01*
X0518400Y0256987D01*
X0518765Y0256813D01*
X0519134Y0256649D01*
X0519507Y0256493D01*
X0519883Y0256346D01*
X0520263Y0256209D01*
X0520647Y0256081D01*
X0521033Y0255962D01*
X0521422Y0255853D01*
X0521814Y0255753D01*
X0522207Y0255663D01*
X0522603Y0255583D01*
X0523001Y0255513D01*
X0523401Y0255452D01*
X0523802Y0255401D01*
X0524203Y0255360D01*
X0524606Y0255328D01*
X0525010Y0255307D01*
X0525414Y0255295D01*
X0525818Y0255294D01*
X0526222Y0255302D01*
X0526625Y0255320D01*
X0527028Y0255348D01*
X0527431Y0255386D01*
X0527832Y0255433D01*
X0528232Y0255491D01*
X0528630Y0255558D01*
X0529027Y0255635D01*
X0529422Y0255721D01*
X0529814Y0255818D01*
X0530204Y0255924D01*
X0530591Y0256039D01*
X0530975Y0256164D01*
X0531357Y0256298D01*
X0531734Y0256441D01*
X0532108Y0256594D01*
X0532479Y0256756D01*
X0532845Y0256927D01*
X0533207Y0257106D01*
X0533564Y0257295D01*
X0533917Y0257492D01*
X0534264Y0257698D01*
X0534607Y0257912D01*
X0534944Y0258134D01*
X0535276Y0258365D01*
X0535602Y0258604D01*
X0535922Y0258851D01*
X0536236Y0259105D01*
X0536543Y0259367D01*
X0536844Y0259637D01*
X0537139Y0259913D01*
X0537426Y0260197D01*
X0537707Y0260488D01*
X0537980Y0260786D01*
X0538246Y0261090D01*
X0538504Y0261401D01*
X0538755Y0261718D01*
X0538998Y0262040D01*
X0539233Y0262369D01*
X0539460Y0262704D01*
X0539678Y0263044D01*
X0539888Y0263389D01*
X0540090Y0263739D01*
X0540283Y0264094D01*
X0540467Y0264453D01*
X0540642Y0264817D01*
X0540809Y0265186D01*
X0540966Y0265558D01*
X0541114Y0265934D01*
X0541253Y0266313D01*
X0541383Y0266696D01*
X0541503Y0267081D01*
X0541614Y0267470D01*
X0541715Y0267861D01*
X0541807Y0268255D01*
X0541889Y0268650D01*
D13*
X0500658Y0260520D02*
X0500658Y0284143D01*
X0484910Y0284143D01*
X0484910Y0260520D01*
X0500658Y0260520D01*
X0472312Y0257076D02*
X0472312Y0256288D01*
X0471524Y0256288D01*
X0462076Y0256288D02*
X0461288Y0256288D01*
X0461288Y0267312D02*
X0462076Y0267312D01*
X0462700Y0271076D02*
X0465519Y0271076D01*
X0464109Y0271076D02*
X0464109Y0275304D01*
X0462700Y0273894D01*
X0461168Y0274599D02*
X0461168Y0271780D01*
X0460464Y0271076D01*
X0458350Y0271076D01*
X0458350Y0275304D01*
X0460464Y0275304D01*
X0461168Y0274599D01*
X0454219Y0276823D02*
X0454219Y0277528D01*
X0451400Y0277528D01*
X0449869Y0276823D02*
X0449869Y0275414D01*
X0449164Y0274709D01*
X0447050Y0274709D01*
X0447050Y0273300D02*
X0447050Y0277528D01*
X0449164Y0277528D01*
X0449869Y0276823D01*
X0448459Y0274709D02*
X0449869Y0273300D01*
X0451400Y0273300D02*
X0451400Y0274005D01*
X0454219Y0276823D01*
X0448345Y0269219D02*
X0449050Y0268514D01*
X0449050Y0267105D01*
X0448345Y0266400D01*
X0447641Y0266400D01*
X0446936Y0267105D01*
X0446936Y0268514D01*
X0447641Y0269219D01*
X0448345Y0269219D01*
X0446936Y0268514D02*
X0446231Y0269219D01*
X0445527Y0269219D01*
X0444822Y0268514D01*
X0444822Y0267105D01*
X0445527Y0266400D01*
X0446231Y0266400D01*
X0446936Y0267105D01*
X0446936Y0264869D02*
X0445527Y0264869D01*
X0444822Y0264164D01*
X0444822Y0262050D01*
X0449050Y0262050D01*
X0447641Y0262050D02*
X0447641Y0264164D01*
X0446936Y0264869D01*
X0447641Y0263459D02*
X0449050Y0264869D01*
X0445024Y0260519D02*
X0445024Y0257700D01*
X0445024Y0259109D02*
X0440796Y0259109D01*
X0442206Y0257700D01*
X0445024Y0256168D02*
X0445024Y0253350D01*
X0445024Y0254759D02*
X0440796Y0254759D01*
X0442206Y0253350D01*
X0441501Y0251818D02*
X0440796Y0251113D01*
X0440796Y0249704D01*
X0441501Y0248999D01*
X0444320Y0248999D01*
X0445024Y0249704D01*
X0445024Y0251113D01*
X0444320Y0251818D01*
X0416274Y0257204D02*
X0416274Y0258613D01*
X0415570Y0259318D01*
X0416274Y0260850D02*
X0416274Y0263668D01*
X0416274Y0262259D02*
X0412046Y0262259D01*
X0413456Y0260850D01*
X0412751Y0259318D02*
X0412046Y0258613D01*
X0412046Y0257204D01*
X0412751Y0256499D01*
X0415570Y0256499D01*
X0416274Y0257204D01*
X0416274Y0265200D02*
X0415570Y0265200D01*
X0412751Y0268019D01*
X0412046Y0268019D01*
X0412046Y0265200D01*
X0421798Y0206699D02*
X0421798Y0203696D01*
X0419546Y0205948D01*
X0424050Y0205948D01*
X0423299Y0201344D02*
X0424050Y0200593D01*
X0424050Y0199843D01*
X0423299Y0199092D01*
X0423299Y0201344D02*
X0419546Y0201344D01*
X0419546Y0200593D02*
X0419546Y0202095D01*
X0361383Y0143222D02*
X0362133Y0142472D01*
X0362133Y0141721D01*
X0361383Y0140970D01*
X0362133Y0140220D01*
X0362133Y0139469D01*
X0361383Y0138719D01*
X0359881Y0138719D01*
X0359131Y0139469D01*
X0360632Y0140970D02*
X0361383Y0140970D01*
X0361383Y0143222D02*
X0359881Y0143222D01*
X0359131Y0142472D01*
X0357529Y0142472D02*
X0357529Y0140970D01*
X0356779Y0140220D01*
X0354527Y0140220D01*
X0354527Y0138719D02*
X0354527Y0143222D01*
X0356779Y0143222D01*
X0357529Y0142472D01*
X0352925Y0143222D02*
X0351424Y0143222D01*
X0352175Y0143222D02*
X0352175Y0139469D01*
X0351424Y0138719D01*
X0350673Y0138719D01*
X0349923Y0139469D01*
X0315519Y0174280D02*
X0315519Y0174985D01*
X0314814Y0175690D01*
X0312700Y0175690D01*
X0312700Y0174280D01*
X0313404Y0173576D01*
X0314814Y0173576D01*
X0315519Y0174280D01*
X0314109Y0177099D02*
X0315519Y0177804D01*
X0314109Y0177099D02*
X0312700Y0175690D01*
X0311168Y0173576D02*
X0308350Y0173576D01*
X0309759Y0173576D02*
X0309759Y0177804D01*
X0308350Y0176394D01*
X0306818Y0177099D02*
X0306113Y0177804D01*
X0304704Y0177804D01*
X0303999Y0177099D01*
X0303999Y0174280D01*
X0304704Y0173576D01*
X0306113Y0173576D01*
X0306818Y0174280D01*
X0315255Y0215800D02*
X0316664Y0215800D01*
X0317369Y0216505D01*
X0318900Y0215800D02*
X0321719Y0215800D01*
X0320310Y0215800D02*
X0320310Y0220028D01*
X0318900Y0218619D01*
X0317369Y0219323D02*
X0316664Y0220028D01*
X0315255Y0220028D01*
X0314550Y0219323D01*
X0314550Y0216505D01*
X0315255Y0215800D01*
X0323250Y0216505D02*
X0323250Y0217209D01*
X0323955Y0217914D01*
X0325364Y0217914D01*
X0326069Y0217209D01*
X0326069Y0216505D01*
X0325364Y0215800D01*
X0323955Y0215800D01*
X0323250Y0216505D01*
X0323955Y0217914D02*
X0323250Y0218619D01*
X0323250Y0219323D01*
X0323955Y0220028D01*
X0325364Y0220028D01*
X0326069Y0219323D01*
X0326069Y0218619D01*
X0325364Y0217914D01*
X0278690Y0265894D02*
X0278493Y0265894D01*
X0278690Y0265894D02*
X0278690Y0267469D01*
X0278690Y0276131D02*
X0278690Y0277706D01*
X0278493Y0277706D01*
X0265107Y0277706D02*
X0264910Y0277706D01*
X0264910Y0276131D01*
X0263335Y0277509D02*
X0263337Y0277536D01*
X0263343Y0277563D01*
X0263352Y0277589D01*
X0263365Y0277613D01*
X0263381Y0277636D01*
X0263400Y0277655D01*
X0263422Y0277672D01*
X0263446Y0277686D01*
X0263471Y0277696D01*
X0263498Y0277703D01*
X0263525Y0277706D01*
X0263553Y0277705D01*
X0263580Y0277700D01*
X0263606Y0277692D01*
X0263630Y0277680D01*
X0263653Y0277664D01*
X0263674Y0277646D01*
X0263691Y0277625D01*
X0263706Y0277601D01*
X0263717Y0277576D01*
X0263725Y0277550D01*
X0263729Y0277523D01*
X0263729Y0277495D01*
X0263725Y0277468D01*
X0263717Y0277442D01*
X0263706Y0277417D01*
X0263691Y0277393D01*
X0263674Y0277372D01*
X0263653Y0277354D01*
X0263631Y0277338D01*
X0263606Y0277326D01*
X0263580Y0277318D01*
X0263553Y0277313D01*
X0263525Y0277312D01*
X0263498Y0277315D01*
X0263471Y0277322D01*
X0263446Y0277332D01*
X0263422Y0277346D01*
X0263400Y0277363D01*
X0263381Y0277382D01*
X0263365Y0277405D01*
X0263352Y0277429D01*
X0263343Y0277455D01*
X0263337Y0277482D01*
X0263335Y0277509D01*
X0264910Y0267469D02*
X0264910Y0265894D01*
X0265107Y0265894D01*
X0264214Y0252804D02*
X0262804Y0252804D01*
X0262100Y0252099D01*
X0260568Y0252099D02*
X0259863Y0252804D01*
X0258454Y0252804D01*
X0257749Y0252099D01*
X0257749Y0249280D01*
X0258454Y0248576D01*
X0259863Y0248576D01*
X0260568Y0249280D01*
X0262100Y0248576D02*
X0264918Y0251394D01*
X0264918Y0252099D01*
X0264214Y0252804D01*
X0266450Y0252804D02*
X0269269Y0252804D01*
X0269269Y0252099D01*
X0266450Y0249280D01*
X0266450Y0248576D01*
X0264918Y0248576D02*
X0262100Y0248576D01*
X0247800Y0268300D02*
X0243572Y0268300D01*
X0243572Y0270414D01*
X0244277Y0271119D01*
X0245686Y0271119D01*
X0246391Y0270414D01*
X0246391Y0268300D01*
X0246391Y0269709D02*
X0247800Y0271119D01*
X0247095Y0272650D02*
X0247800Y0273355D01*
X0247800Y0274764D01*
X0247095Y0275469D01*
X0246391Y0275469D01*
X0245686Y0274764D01*
X0245686Y0274060D01*
X0245686Y0274764D02*
X0244981Y0275469D01*
X0244277Y0275469D01*
X0243572Y0274764D01*
X0243572Y0273355D01*
X0244277Y0272650D01*
X0244822Y0283300D02*
X0244822Y0285414D01*
X0245527Y0286119D01*
X0246936Y0286119D01*
X0247641Y0285414D01*
X0247641Y0283300D01*
X0249050Y0283300D02*
X0244822Y0283300D01*
X0247641Y0284709D02*
X0249050Y0286119D01*
X0249050Y0287650D02*
X0246231Y0290469D01*
X0245527Y0290469D01*
X0244822Y0289764D01*
X0244822Y0288355D01*
X0245527Y0287650D01*
X0249050Y0287650D02*
X0249050Y0290469D01*
X0248095Y0297050D02*
X0248800Y0297755D01*
X0248800Y0299164D01*
X0248095Y0299869D01*
X0248800Y0301400D02*
X0245981Y0304219D01*
X0245277Y0304219D01*
X0244572Y0303514D01*
X0244572Y0302105D01*
X0245277Y0301400D01*
X0245277Y0299869D02*
X0244572Y0299164D01*
X0244572Y0297755D01*
X0245277Y0297050D01*
X0248095Y0297050D01*
X0248800Y0301400D02*
X0248800Y0304219D01*
X0248095Y0305750D02*
X0247391Y0305750D01*
X0246686Y0306455D01*
X0246686Y0307864D01*
X0247391Y0308569D01*
X0248095Y0308569D01*
X0248800Y0307864D01*
X0248800Y0306455D01*
X0248095Y0305750D01*
X0246686Y0306455D02*
X0245981Y0305750D01*
X0245277Y0305750D01*
X0244572Y0306455D01*
X0244572Y0307864D01*
X0245277Y0308569D01*
X0245981Y0308569D01*
X0246686Y0307864D01*
X0252822Y0307160D02*
X0257050Y0307160D01*
X0257050Y0308569D02*
X0257050Y0305750D01*
X0256345Y0304219D02*
X0257050Y0303514D01*
X0257050Y0302105D01*
X0256345Y0301400D01*
X0256345Y0299869D02*
X0257050Y0299164D01*
X0257050Y0297755D01*
X0256345Y0297050D01*
X0253527Y0297050D01*
X0252822Y0297755D01*
X0252822Y0299164D01*
X0253527Y0299869D01*
X0253527Y0301400D02*
X0252822Y0302105D01*
X0252822Y0303514D01*
X0253527Y0304219D01*
X0254231Y0304219D01*
X0254936Y0303514D01*
X0255641Y0304219D01*
X0256345Y0304219D01*
X0254936Y0303514D02*
X0254936Y0302810D01*
X0254231Y0305750D02*
X0252822Y0307160D01*
X0261072Y0307864D02*
X0261072Y0306455D01*
X0261777Y0305750D01*
X0262481Y0305750D01*
X0263186Y0306455D01*
X0263186Y0308569D01*
X0264595Y0308569D02*
X0261777Y0308569D01*
X0261072Y0307864D01*
X0264595Y0308569D02*
X0265300Y0307864D01*
X0265300Y0306455D01*
X0264595Y0305750D01*
X0265300Y0304219D02*
X0265300Y0301400D01*
X0262481Y0304219D01*
X0261777Y0304219D01*
X0261072Y0303514D01*
X0261072Y0302105D01*
X0261777Y0301400D01*
X0261777Y0299869D02*
X0261072Y0299164D01*
X0261072Y0297755D01*
X0261777Y0297050D01*
X0264595Y0297050D01*
X0265300Y0297755D01*
X0265300Y0299164D01*
X0264595Y0299869D01*
X0269322Y0299164D02*
X0269322Y0297755D01*
X0270027Y0297050D01*
X0272845Y0297050D01*
X0273550Y0297755D01*
X0273550Y0299164D01*
X0272845Y0299869D01*
X0272845Y0301400D02*
X0273550Y0302105D01*
X0273550Y0303514D01*
X0272845Y0304219D01*
X0272141Y0304219D01*
X0271436Y0303514D01*
X0271436Y0302810D01*
X0271436Y0303514D02*
X0270731Y0304219D01*
X0270027Y0304219D01*
X0269322Y0303514D01*
X0269322Y0302105D01*
X0270027Y0301400D01*
X0270027Y0299869D02*
X0269322Y0299164D01*
X0270027Y0305750D02*
X0269322Y0306455D01*
X0269322Y0307864D01*
X0270027Y0308569D01*
X0272845Y0305750D01*
X0273550Y0306455D01*
X0273550Y0307864D01*
X0272845Y0308569D01*
X0270027Y0308569D01*
X0270027Y0305750D02*
X0272845Y0305750D01*
X0213269Y0241054D02*
X0210450Y0241054D01*
X0210450Y0238940D01*
X0211859Y0239644D01*
X0212564Y0239644D01*
X0213269Y0238940D01*
X0213269Y0237530D01*
X0212564Y0236826D01*
X0211154Y0236826D01*
X0210450Y0237530D01*
X0208918Y0236826D02*
X0206100Y0236826D01*
X0207509Y0236826D02*
X0207509Y0241054D01*
X0206100Y0239644D01*
X0204568Y0240349D02*
X0203863Y0241054D01*
X0202454Y0241054D01*
X0201749Y0240349D01*
X0201749Y0237530D01*
X0202454Y0236826D01*
X0203863Y0236826D01*
X0204568Y0237530D01*
X0203863Y0233054D02*
X0202454Y0233054D01*
X0201749Y0232349D01*
X0201749Y0229530D01*
X0202454Y0228826D01*
X0203863Y0228826D01*
X0204568Y0229530D01*
X0206100Y0228826D02*
X0208918Y0228826D01*
X0207509Y0228826D02*
X0207509Y0233054D01*
X0206100Y0231644D01*
X0204568Y0232349D02*
X0203863Y0233054D01*
X0210450Y0230940D02*
X0213269Y0230940D01*
X0212564Y0233054D02*
X0210450Y0230940D01*
X0212564Y0228826D02*
X0212564Y0233054D01*
X0190237Y0161511D02*
X0190237Y0156589D01*
X0188845Y0153219D02*
X0188141Y0153219D01*
X0187436Y0152514D01*
X0187436Y0150400D01*
X0188845Y0150400D01*
X0189550Y0151105D01*
X0189550Y0152514D01*
X0188845Y0153219D01*
X0186027Y0151810D02*
X0185322Y0153219D01*
X0186027Y0151810D02*
X0187436Y0150400D01*
X0188845Y0148869D02*
X0189550Y0148164D01*
X0189550Y0146755D01*
X0188845Y0146050D01*
X0186027Y0146050D01*
X0185322Y0146755D01*
X0185322Y0148164D01*
X0186027Y0148869D01*
X0185570Y0144519D02*
X0184160Y0144519D01*
X0183456Y0143814D01*
X0183456Y0143109D01*
X0184160Y0141700D01*
X0182046Y0141700D01*
X0182046Y0144519D01*
X0185570Y0144519D02*
X0186274Y0143814D01*
X0186274Y0142404D01*
X0185570Y0141700D01*
X0185570Y0140168D02*
X0186274Y0139464D01*
X0186274Y0138054D01*
X0185570Y0137350D01*
X0182751Y0137350D01*
X0182046Y0138054D01*
X0182046Y0139464D01*
X0182751Y0140168D01*
X0182363Y0156589D02*
X0182363Y0161511D01*
X0183132Y0158538D02*
X0183134Y0158564D01*
X0183140Y0158590D01*
X0183149Y0158614D01*
X0183163Y0158637D01*
X0183179Y0158658D01*
X0183198Y0158676D01*
X0183220Y0158690D01*
X0183244Y0158702D01*
X0183269Y0158710D01*
X0183295Y0158714D01*
X0183321Y0158714D01*
X0183347Y0158710D01*
X0183372Y0158702D01*
X0183396Y0158690D01*
X0183418Y0158676D01*
X0183437Y0158658D01*
X0183453Y0158637D01*
X0183467Y0158614D01*
X0183476Y0158590D01*
X0183482Y0158564D01*
X0183484Y0158538D01*
X0183482Y0158512D01*
X0183476Y0158486D01*
X0183467Y0158462D01*
X0183453Y0158439D01*
X0183437Y0158418D01*
X0183418Y0158400D01*
X0183396Y0158386D01*
X0183372Y0158374D01*
X0183347Y0158366D01*
X0183321Y0158362D01*
X0183295Y0158362D01*
X0183269Y0158366D01*
X0183244Y0158374D01*
X0183220Y0158386D01*
X0183198Y0158400D01*
X0183179Y0158418D01*
X0183163Y0158439D01*
X0183149Y0158462D01*
X0183140Y0158486D01*
X0183134Y0158512D01*
X0183132Y0158538D01*
X0250249Y0100849D02*
X0250249Y0098030D01*
X0250954Y0097326D01*
X0252363Y0097326D01*
X0253068Y0098030D01*
X0254600Y0097326D02*
X0257418Y0097326D01*
X0256009Y0097326D02*
X0256009Y0101554D01*
X0254600Y0100144D01*
X0253068Y0100849D02*
X0252363Y0101554D01*
X0250954Y0101554D01*
X0250249Y0100849D01*
X0258950Y0100849D02*
X0259654Y0101554D01*
X0261064Y0101554D01*
X0261769Y0100849D01*
X0258950Y0098030D01*
X0259654Y0097326D01*
X0261064Y0097326D01*
X0261769Y0098030D01*
X0261769Y0100849D01*
X0258950Y0100849D02*
X0258950Y0098030D01*
X0263300Y0097528D02*
X0265414Y0097528D01*
X0266119Y0096823D01*
X0266119Y0095414D01*
X0265414Y0094709D01*
X0263300Y0094709D01*
X0263300Y0093300D02*
X0263300Y0097528D01*
X0264709Y0094709D02*
X0266119Y0093300D01*
X0267650Y0093300D02*
X0270469Y0093300D01*
X0269060Y0093300D02*
X0269060Y0097528D01*
X0267650Y0096119D01*
X0272000Y0096823D02*
X0272705Y0097528D01*
X0274114Y0097528D01*
X0274819Y0096823D01*
X0274819Y0096119D01*
X0272000Y0093300D01*
X0274819Y0093300D01*
X0280796Y0095359D02*
X0285024Y0095359D01*
X0285024Y0093950D02*
X0285024Y0096769D01*
X0282206Y0093950D02*
X0280796Y0095359D01*
X0280796Y0091009D02*
X0285024Y0091009D01*
X0285024Y0089600D02*
X0285024Y0092418D01*
X0282206Y0089600D02*
X0280796Y0091009D01*
X0281501Y0088068D02*
X0282910Y0088068D01*
X0283615Y0087363D01*
X0283615Y0085249D01*
X0285024Y0085249D02*
X0280796Y0085249D01*
X0280796Y0087363D01*
X0281501Y0088068D01*
X0283615Y0086659D02*
X0285024Y0088068D01*
X0284320Y0074269D02*
X0285024Y0073564D01*
X0285024Y0072154D01*
X0284320Y0071450D01*
X0284320Y0069918D02*
X0281501Y0069918D01*
X0280796Y0069214D01*
X0280796Y0067100D01*
X0285024Y0067100D01*
X0285024Y0069214D01*
X0284320Y0069918D01*
X0281501Y0071450D02*
X0280796Y0072154D01*
X0280796Y0073564D01*
X0281501Y0074269D01*
X0282206Y0074269D01*
X0282910Y0073564D01*
X0283615Y0074269D01*
X0284320Y0074269D01*
X0282910Y0073564D02*
X0282910Y0072859D01*
X0282893Y0058690D02*
X0282893Y0042942D01*
X0259270Y0042942D01*
X0259270Y0058690D01*
X0282893Y0058690D01*
X0268562Y0070038D02*
X0268562Y0070826D01*
X0268562Y0070038D02*
X0267774Y0070038D01*
X0258326Y0070038D02*
X0257538Y0070038D01*
X0257538Y0070826D01*
X0257538Y0080274D02*
X0257538Y0081062D01*
X0268562Y0081062D02*
X0268562Y0080274D01*
X0267859Y0128576D02*
X0267859Y0132804D01*
X0266450Y0131394D01*
X0264918Y0131394D02*
X0262100Y0128576D01*
X0264918Y0128576D01*
X0266450Y0128576D02*
X0269269Y0128576D01*
X0264918Y0131394D02*
X0264918Y0132099D01*
X0264214Y0132804D01*
X0262804Y0132804D01*
X0262100Y0132099D01*
X0260568Y0132099D02*
X0259863Y0132804D01*
X0258454Y0132804D01*
X0257749Y0132099D01*
X0257749Y0129280D01*
X0258454Y0128576D01*
X0259863Y0128576D01*
X0260568Y0129280D01*
X0130845Y0273300D02*
X0128027Y0273300D01*
X0127322Y0274005D01*
X0127322Y0275414D01*
X0128027Y0276119D01*
X0128027Y0277650D02*
X0127322Y0278355D01*
X0127322Y0279764D01*
X0128027Y0280469D01*
X0128731Y0280469D01*
X0131550Y0277650D01*
X0131550Y0280469D01*
X0130845Y0282000D02*
X0131550Y0282705D01*
X0131550Y0284114D01*
X0130845Y0284819D01*
X0130141Y0284819D01*
X0129436Y0284114D01*
X0129436Y0283410D01*
X0129436Y0284114D02*
X0128731Y0284819D01*
X0128027Y0284819D01*
X0127322Y0284114D01*
X0127322Y0282705D01*
X0128027Y0282000D01*
X0130845Y0276119D02*
X0131550Y0275414D01*
X0131550Y0274005D01*
X0130845Y0273300D01*
X0110024Y0273350D02*
X0110024Y0276168D01*
X0110024Y0274759D02*
X0105796Y0274759D01*
X0107206Y0273350D01*
X0107910Y0271818D02*
X0108615Y0271113D01*
X0108615Y0268999D01*
X0110024Y0268999D02*
X0105796Y0268999D01*
X0105796Y0271113D01*
X0106501Y0271818D01*
X0107910Y0271818D01*
X0108615Y0270409D02*
X0110024Y0271818D01*
X0107910Y0277700D02*
X0107910Y0280519D01*
X0105796Y0279814D02*
X0107910Y0277700D01*
X0110024Y0279814D02*
X0105796Y0279814D01*
X0096550Y0282755D02*
X0095845Y0282050D01*
X0093027Y0282050D01*
X0092322Y0282755D01*
X0092322Y0284164D01*
X0093027Y0284869D01*
X0093027Y0286400D02*
X0093731Y0286400D01*
X0094436Y0287105D01*
X0094436Y0289219D01*
X0095845Y0289219D02*
X0093027Y0289219D01*
X0092322Y0288514D01*
X0092322Y0287105D01*
X0093027Y0286400D01*
X0095845Y0286400D02*
X0096550Y0287105D01*
X0096550Y0288514D01*
X0095845Y0289219D01*
X0095845Y0284869D02*
X0096550Y0284164D01*
X0096550Y0282755D01*
X0084812Y0287312D02*
X0084024Y0287312D01*
X0074576Y0287312D02*
X0073788Y0287312D01*
X0073788Y0286524D01*
X0073788Y0277076D02*
X0073788Y0276288D01*
X0074576Y0276288D01*
X0072800Y0271014D02*
X0068572Y0271014D01*
X0070686Y0268900D01*
X0070686Y0271719D01*
X0072095Y0267369D02*
X0069277Y0267369D01*
X0068572Y0266664D01*
X0068572Y0264550D01*
X0072800Y0264550D01*
X0072800Y0266664D01*
X0072095Y0267369D01*
X0063690Y0260707D02*
X0047942Y0260707D01*
X0047942Y0284330D01*
X0063690Y0284330D01*
X0063690Y0260707D01*
X0084024Y0276288D02*
X0084812Y0276288D01*
X0087749Y0266554D02*
X0089863Y0266554D01*
X0090568Y0265849D01*
X0090568Y0264440D01*
X0089863Y0263735D01*
X0087749Y0263735D01*
X0087749Y0262326D02*
X0087749Y0266554D01*
X0089159Y0263735D02*
X0090568Y0262326D01*
X0092100Y0262326D02*
X0094918Y0262326D01*
X0093509Y0262326D02*
X0093509Y0266554D01*
X0092100Y0265144D01*
X0096450Y0265849D02*
X0097154Y0266554D01*
X0098564Y0266554D01*
X0099269Y0265849D01*
X0099269Y0265144D01*
X0098564Y0264440D01*
X0099269Y0263735D01*
X0099269Y0263030D01*
X0098564Y0262326D01*
X0097154Y0262326D01*
X0096450Y0263030D01*
X0097859Y0264440D02*
X0098564Y0264440D01*
X0132322Y0362050D02*
X0132322Y0364164D01*
X0133027Y0364869D01*
X0135845Y0364869D01*
X0136550Y0364164D01*
X0136550Y0362050D01*
X0132322Y0362050D01*
X0132322Y0366400D02*
X0136550Y0366400D01*
X0136550Y0369219D01*
X0136550Y0370750D02*
X0132322Y0370750D01*
X0132322Y0372864D01*
X0133027Y0373569D01*
X0133731Y0373569D01*
X0134436Y0372864D01*
X0134436Y0370750D01*
X0136550Y0370750D02*
X0136550Y0372864D01*
X0135845Y0373569D01*
X0135141Y0373569D01*
X0134436Y0372864D01*
X0135845Y0375101D02*
X0136550Y0375805D01*
X0136550Y0377215D01*
X0135845Y0377919D01*
X0132322Y0377919D01*
X0133027Y0379451D02*
X0135845Y0379451D01*
X0136550Y0380155D01*
X0136550Y0381565D01*
X0135845Y0382269D01*
X0134436Y0382269D01*
X0134436Y0380860D01*
X0133027Y0379451D02*
X0132322Y0380155D01*
X0132322Y0381565D01*
X0133027Y0382269D01*
X0133027Y0383801D02*
X0135845Y0383801D01*
X0136550Y0384506D01*
X0136550Y0385915D01*
X0135845Y0386620D01*
X0134436Y0386620D01*
X0134436Y0385210D01*
X0133027Y0383801D02*
X0132322Y0384506D01*
X0132322Y0385915D01*
X0133027Y0386620D01*
X0132322Y0388151D02*
X0132322Y0389560D01*
X0132322Y0388856D02*
X0136550Y0388856D01*
X0136550Y0389560D02*
X0136550Y0388151D01*
X0136550Y0391051D02*
X0132322Y0391051D01*
X0136550Y0393870D01*
X0132322Y0393870D01*
X0133027Y0395401D02*
X0135845Y0395401D01*
X0136550Y0396106D01*
X0136550Y0397515D01*
X0135845Y0398220D01*
X0134436Y0398220D01*
X0134436Y0396811D01*
X0133027Y0398220D02*
X0132322Y0397515D01*
X0132322Y0396106D01*
X0133027Y0395401D01*
X0137255Y0399751D02*
X0137255Y0402570D01*
X0136550Y0404102D02*
X0132322Y0404102D01*
X0134436Y0404102D02*
X0134436Y0406920D01*
X0134436Y0408452D02*
X0134436Y0409861D01*
X0132322Y0408452D02*
X0136550Y0408452D01*
X0136550Y0411271D01*
X0136550Y0412802D02*
X0133731Y0412802D01*
X0132322Y0414211D01*
X0133731Y0415621D01*
X0136550Y0415621D01*
X0136550Y0417152D02*
X0136550Y0419266D01*
X0135845Y0419971D01*
X0133027Y0419971D01*
X0132322Y0419266D01*
X0132322Y0417152D01*
X0136550Y0417152D01*
X0134436Y0415621D02*
X0134436Y0412802D01*
X0132322Y0411271D02*
X0132322Y0408452D01*
X0132322Y0406920D02*
X0136550Y0406920D01*
X0136550Y0421502D02*
X0132322Y0421502D01*
X0132322Y0424321D01*
X0132322Y0425853D02*
X0132322Y0427967D01*
X0133027Y0428671D01*
X0134436Y0428671D01*
X0135141Y0427967D01*
X0135141Y0425853D01*
X0135141Y0427262D02*
X0136550Y0428671D01*
X0136550Y0425853D02*
X0132322Y0425853D01*
X0134436Y0422912D02*
X0134436Y0421502D01*
X0136550Y0421502D02*
X0136550Y0424321D01*
X0180749Y0418054D02*
X0182863Y0418054D01*
X0183568Y0417349D01*
X0183568Y0415940D01*
X0182863Y0415235D01*
X0180749Y0415235D01*
X0180749Y0413826D02*
X0180749Y0418054D01*
X0182159Y0415235D02*
X0183568Y0413826D01*
X0184900Y0413306D02*
X0184900Y0412519D01*
X0184900Y0413306D02*
X0185688Y0413306D01*
X0185100Y0413826D02*
X0187918Y0413826D01*
X0186509Y0413826D02*
X0186509Y0418054D01*
X0185100Y0416644D01*
X0189450Y0415940D02*
X0190859Y0416644D01*
X0191564Y0416644D01*
X0192269Y0415940D01*
X0192269Y0414530D01*
X0191564Y0413826D01*
X0190154Y0413826D01*
X0189450Y0414530D01*
X0189450Y0415940D02*
X0189450Y0418054D01*
X0192269Y0418054D01*
X0199467Y0413306D02*
X0200255Y0413306D01*
X0200255Y0412519D01*
X0200255Y0408975D02*
X0200255Y0407794D01*
X0199467Y0407794D01*
X0186081Y0407794D02*
X0184900Y0407794D01*
X0184900Y0408581D01*
X0135845Y0375101D02*
X0132322Y0375101D01*
X0132322Y0369219D02*
X0132322Y0366400D01*
X0134436Y0366400D02*
X0134436Y0367810D01*
X0258572Y0445800D02*
X0258572Y0447914D01*
X0259277Y0448619D01*
X0260686Y0448619D01*
X0261391Y0447914D01*
X0261391Y0445800D01*
X0262800Y0445800D02*
X0258572Y0445800D01*
X0261391Y0447209D02*
X0262800Y0448619D01*
X0262095Y0450150D02*
X0262800Y0450855D01*
X0262800Y0452264D01*
X0262095Y0452969D01*
X0259277Y0452969D01*
X0258572Y0452264D01*
X0258572Y0450855D01*
X0259277Y0450150D01*
X0259981Y0450150D01*
X0260686Y0450855D01*
X0260686Y0452969D01*
X0263296Y0459600D02*
X0263296Y0461714D01*
X0264001Y0462418D01*
X0266820Y0462418D01*
X0267524Y0461714D01*
X0267524Y0459600D01*
X0263296Y0459600D01*
X0264001Y0463950D02*
X0263296Y0464654D01*
X0263296Y0466064D01*
X0264001Y0466769D01*
X0264706Y0466769D01*
X0267524Y0463950D01*
X0267524Y0466769D01*
X0275038Y0462076D02*
X0275038Y0461288D01*
X0275038Y0471524D02*
X0275038Y0472312D01*
X0275826Y0472312D01*
X0285274Y0472312D02*
X0286062Y0472312D01*
X0286062Y0471524D01*
X0286062Y0462076D02*
X0286062Y0461288D01*
X0278564Y0450304D02*
X0277154Y0450304D01*
X0276450Y0449599D01*
X0276450Y0446780D01*
X0279269Y0449599D01*
X0279269Y0446780D01*
X0278564Y0446076D01*
X0277154Y0446076D01*
X0276450Y0446780D01*
X0274918Y0446076D02*
X0272100Y0446076D01*
X0273509Y0446076D02*
X0273509Y0450304D01*
X0272100Y0448894D01*
X0270568Y0448190D02*
X0269863Y0447485D01*
X0267749Y0447485D01*
X0267749Y0446076D02*
X0267749Y0450304D01*
X0269863Y0450304D01*
X0270568Y0449599D01*
X0270568Y0448190D01*
X0269159Y0447485D02*
X0270568Y0446076D01*
X0278564Y0450304D02*
X0279269Y0449599D01*
X0281505Y0446278D02*
X0280800Y0445573D01*
X0280800Y0442755D01*
X0281505Y0442050D01*
X0282914Y0442050D01*
X0283619Y0442755D01*
X0285150Y0442050D02*
X0287969Y0442050D01*
X0286560Y0442050D02*
X0286560Y0446278D01*
X0285150Y0444869D01*
X0283619Y0445573D02*
X0282914Y0446278D01*
X0281505Y0446278D01*
X0289500Y0445573D02*
X0290205Y0446278D01*
X0291614Y0446278D01*
X0292319Y0445573D01*
X0292319Y0444869D01*
X0289500Y0442050D01*
X0292319Y0442050D01*
X0283114Y0416278D02*
X0281705Y0416278D01*
X0281000Y0415573D01*
X0281000Y0414869D01*
X0281705Y0414164D01*
X0283819Y0414164D01*
X0283819Y0412755D02*
X0283819Y0415573D01*
X0283114Y0416278D01*
X0283819Y0412755D02*
X0283114Y0412050D01*
X0281705Y0412050D01*
X0281000Y0412755D01*
X0279469Y0412050D02*
X0276650Y0412050D01*
X0278060Y0412050D02*
X0278060Y0416278D01*
X0276650Y0414869D01*
X0275119Y0415573D02*
X0274414Y0416278D01*
X0273005Y0416278D01*
X0272300Y0415573D01*
X0272300Y0412755D01*
X0273005Y0412050D01*
X0274414Y0412050D01*
X0275119Y0412755D01*
X0288148Y0405304D02*
X0288148Y0401076D01*
X0288148Y0402485D02*
X0290262Y0402485D01*
X0290967Y0403190D01*
X0290967Y0404599D01*
X0290262Y0405304D01*
X0288148Y0405304D01*
X0292498Y0404599D02*
X0292498Y0401780D01*
X0293203Y0401076D01*
X0294612Y0401076D01*
X0295317Y0401780D01*
X0295317Y0404599D01*
X0294612Y0405304D01*
X0293203Y0405304D01*
X0292498Y0404599D01*
X0296848Y0405304D02*
X0296848Y0401076D01*
X0298258Y0402485D01*
X0299667Y0401076D01*
X0299667Y0405304D01*
X0301198Y0405304D02*
X0301198Y0401076D01*
X0304017Y0401076D01*
X0305549Y0401076D02*
X0305549Y0405304D01*
X0307663Y0405304D01*
X0308367Y0404599D01*
X0308367Y0403190D01*
X0307663Y0402485D01*
X0305549Y0402485D01*
X0306958Y0402485D02*
X0308367Y0401076D01*
X0309899Y0400371D02*
X0312718Y0400371D01*
X0314249Y0401780D02*
X0314954Y0401076D01*
X0316363Y0401076D01*
X0317068Y0401780D01*
X0317068Y0402485D01*
X0316363Y0403190D01*
X0314954Y0403190D01*
X0314249Y0403894D01*
X0314249Y0404599D01*
X0314954Y0405304D01*
X0316363Y0405304D01*
X0317068Y0404599D01*
X0318599Y0405304D02*
X0318599Y0401076D01*
X0320009Y0402485D01*
X0321418Y0401076D01*
X0321418Y0405304D01*
X0322949Y0405304D02*
X0324359Y0405304D01*
X0323654Y0405304D02*
X0323654Y0401076D01*
X0322949Y0401076D02*
X0324359Y0401076D01*
X0327259Y0401076D02*
X0327259Y0405304D01*
X0328668Y0405304D02*
X0325849Y0405304D01*
X0323883Y0408794D02*
X0323095Y0408794D01*
X0323095Y0409581D01*
X0323095Y0413125D02*
X0323095Y0414306D01*
X0323883Y0414306D01*
X0331050Y0419050D02*
X0331050Y0423278D01*
X0333164Y0423278D01*
X0333869Y0422573D01*
X0333869Y0421164D01*
X0333164Y0420459D01*
X0331050Y0420459D01*
X0332459Y0420459D02*
X0333869Y0419050D01*
X0335400Y0421164D02*
X0338219Y0421164D01*
X0337514Y0419050D02*
X0337514Y0423278D01*
X0335400Y0421164D01*
X0337269Y0414306D02*
X0338450Y0414306D01*
X0338450Y0413519D01*
X0338450Y0409581D02*
X0338450Y0408794D01*
X0337662Y0408794D01*
X0337368Y0405304D02*
X0337368Y0401076D01*
X0337368Y0403190D02*
X0334550Y0403190D01*
X0333018Y0404599D02*
X0332314Y0405304D01*
X0330904Y0405304D01*
X0330200Y0404599D01*
X0330200Y0401780D01*
X0330904Y0401076D01*
X0332314Y0401076D01*
X0333018Y0401780D01*
X0334550Y0401076D02*
X0334550Y0405304D01*
X0347322Y0375969D02*
X0348027Y0375969D01*
X0350845Y0373150D01*
X0351550Y0373150D01*
X0350845Y0371619D02*
X0351550Y0370914D01*
X0351550Y0369505D01*
X0350845Y0368800D01*
X0348027Y0368800D01*
X0347322Y0369505D01*
X0347322Y0370914D01*
X0348027Y0371619D01*
X0347322Y0373150D02*
X0347322Y0375969D01*
X0355572Y0375264D02*
X0355572Y0373855D01*
X0356277Y0373150D01*
X0356981Y0373150D01*
X0357686Y0373855D01*
X0357686Y0375264D01*
X0358391Y0375969D01*
X0359095Y0375969D01*
X0359800Y0375264D01*
X0359800Y0373855D01*
X0359095Y0373150D01*
X0358391Y0373150D01*
X0357686Y0373855D01*
X0357686Y0375264D02*
X0356981Y0375969D01*
X0356277Y0375969D01*
X0355572Y0375264D01*
X0356277Y0371619D02*
X0355572Y0370914D01*
X0355572Y0369505D01*
X0356277Y0368800D01*
X0359095Y0368800D01*
X0359800Y0369505D01*
X0359800Y0370914D01*
X0359095Y0371619D01*
X0402249Y0346304D02*
X0402249Y0342076D01*
X0402249Y0343485D02*
X0404363Y0343485D01*
X0405068Y0344190D01*
X0405068Y0345599D01*
X0404363Y0346304D01*
X0402249Y0346304D01*
X0403659Y0343485D02*
X0405068Y0342076D01*
X0406600Y0342076D02*
X0409418Y0342076D01*
X0408009Y0342076D02*
X0408009Y0346304D01*
X0406600Y0344894D01*
X0410950Y0344190D02*
X0413064Y0344190D01*
X0413769Y0343485D01*
X0413769Y0342780D01*
X0413064Y0342076D01*
X0411654Y0342076D01*
X0410950Y0342780D01*
X0410950Y0344190D01*
X0412359Y0345599D01*
X0413769Y0346304D01*
X0416255Y0354800D02*
X0417664Y0354800D01*
X0418369Y0355505D01*
X0419900Y0354800D02*
X0422719Y0354800D01*
X0421310Y0354800D02*
X0421310Y0359028D01*
X0419900Y0357619D01*
X0418369Y0358323D02*
X0417664Y0359028D01*
X0416255Y0359028D01*
X0415550Y0358323D01*
X0415550Y0355505D01*
X0416255Y0354800D01*
X0424250Y0355505D02*
X0424955Y0354800D01*
X0426364Y0354800D01*
X0427069Y0355505D01*
X0427069Y0356209D01*
X0426364Y0356914D01*
X0425660Y0356914D01*
X0426364Y0356914D02*
X0427069Y0357619D01*
X0427069Y0358323D01*
X0426364Y0359028D01*
X0424955Y0359028D01*
X0424250Y0358323D01*
X0407881Y0383673D02*
X0408631Y0384423D01*
X0408631Y0385174D01*
X0407881Y0385925D01*
X0404128Y0385925D01*
X0404128Y0386675D02*
X0404128Y0385174D01*
X0404128Y0388277D02*
X0404128Y0390529D01*
X0404878Y0391279D01*
X0406380Y0391279D01*
X0407130Y0390529D01*
X0407130Y0388277D01*
X0408631Y0388277D02*
X0404128Y0388277D01*
X0404878Y0392881D02*
X0404128Y0393631D01*
X0404128Y0395133D01*
X0404878Y0395883D01*
X0405629Y0395883D01*
X0408631Y0392881D01*
X0408631Y0395883D01*
X0304017Y0405304D02*
X0301198Y0405304D01*
X0301198Y0403190D02*
X0302608Y0403190D01*
X0283080Y0486160D02*
X0259457Y0486160D01*
X0259457Y0501908D01*
X0283080Y0501908D01*
X0283080Y0486160D01*
X0471524Y0267312D02*
X0472312Y0267312D01*
X0472312Y0266524D01*
D14*
X0287981Y0229359D02*
X0287983Y0229464D01*
X0287989Y0229569D01*
X0287999Y0229673D01*
X0288013Y0229777D01*
X0288031Y0229881D01*
X0288053Y0229983D01*
X0288078Y0230085D01*
X0288108Y0230186D01*
X0288141Y0230285D01*
X0288178Y0230383D01*
X0288219Y0230480D01*
X0288264Y0230575D01*
X0288312Y0230668D01*
X0288363Y0230760D01*
X0288419Y0230849D01*
X0288477Y0230936D01*
X0288539Y0231021D01*
X0288603Y0231104D01*
X0288671Y0231184D01*
X0288742Y0231261D01*
X0288816Y0231335D01*
X0288893Y0231407D01*
X0288972Y0231476D01*
X0289054Y0231541D01*
X0289138Y0231604D01*
X0289225Y0231663D01*
X0289314Y0231719D01*
X0289405Y0231772D01*
X0289498Y0231821D01*
X0289592Y0231866D01*
X0289688Y0231908D01*
X0289786Y0231946D01*
X0289885Y0231980D01*
X0289986Y0232011D01*
X0290087Y0232037D01*
X0290190Y0232060D01*
X0290293Y0232079D01*
X0290397Y0232094D01*
X0290501Y0232105D01*
X0290606Y0232112D01*
X0290711Y0232115D01*
X0290816Y0232114D01*
X0290921Y0232109D01*
X0291025Y0232100D01*
X0291129Y0232087D01*
X0291233Y0232070D01*
X0291336Y0232049D01*
X0291438Y0232024D01*
X0291539Y0231996D01*
X0291638Y0231963D01*
X0291737Y0231927D01*
X0291834Y0231887D01*
X0291929Y0231844D01*
X0292023Y0231796D01*
X0292115Y0231746D01*
X0292205Y0231692D01*
X0292293Y0231634D01*
X0292378Y0231573D01*
X0292461Y0231509D01*
X0292542Y0231442D01*
X0292620Y0231372D01*
X0292695Y0231298D01*
X0292767Y0231223D01*
X0292837Y0231144D01*
X0292903Y0231063D01*
X0292967Y0230979D01*
X0293027Y0230893D01*
X0293083Y0230805D01*
X0293137Y0230714D01*
X0293187Y0230622D01*
X0293233Y0230528D01*
X0293276Y0230432D01*
X0293315Y0230334D01*
X0293350Y0230236D01*
X0293381Y0230135D01*
X0293409Y0230034D01*
X0293433Y0229932D01*
X0293453Y0229829D01*
X0293469Y0229725D01*
X0293481Y0229621D01*
X0293489Y0229516D01*
X0293493Y0229411D01*
X0293493Y0229307D01*
X0293489Y0229202D01*
X0293481Y0229097D01*
X0293469Y0228993D01*
X0293453Y0228889D01*
X0293433Y0228786D01*
X0293409Y0228684D01*
X0293381Y0228583D01*
X0293350Y0228482D01*
X0293315Y0228384D01*
X0293276Y0228286D01*
X0293233Y0228190D01*
X0293187Y0228096D01*
X0293137Y0228004D01*
X0293083Y0227913D01*
X0293027Y0227825D01*
X0292967Y0227739D01*
X0292903Y0227655D01*
X0292837Y0227574D01*
X0292767Y0227495D01*
X0292695Y0227420D01*
X0292620Y0227346D01*
X0292542Y0227276D01*
X0292461Y0227209D01*
X0292378Y0227145D01*
X0292293Y0227084D01*
X0292205Y0227026D01*
X0292115Y0226972D01*
X0292023Y0226922D01*
X0291929Y0226874D01*
X0291834Y0226831D01*
X0291737Y0226791D01*
X0291638Y0226755D01*
X0291539Y0226722D01*
X0291438Y0226694D01*
X0291336Y0226669D01*
X0291233Y0226648D01*
X0291129Y0226631D01*
X0291025Y0226618D01*
X0290921Y0226609D01*
X0290816Y0226604D01*
X0290711Y0226603D01*
X0290606Y0226606D01*
X0290501Y0226613D01*
X0290397Y0226624D01*
X0290293Y0226639D01*
X0290190Y0226658D01*
X0290087Y0226681D01*
X0289986Y0226707D01*
X0289885Y0226738D01*
X0289786Y0226772D01*
X0289688Y0226810D01*
X0289592Y0226852D01*
X0289498Y0226897D01*
X0289405Y0226946D01*
X0289314Y0226999D01*
X0289225Y0227055D01*
X0289138Y0227114D01*
X0289054Y0227177D01*
X0288972Y0227242D01*
X0288893Y0227311D01*
X0288816Y0227383D01*
X0288742Y0227457D01*
X0288671Y0227534D01*
X0288603Y0227614D01*
X0288539Y0227697D01*
X0288477Y0227782D01*
X0288419Y0227869D01*
X0288363Y0227958D01*
X0288312Y0228050D01*
X0288264Y0228143D01*
X0288219Y0228238D01*
X0288178Y0228335D01*
X0288141Y0228433D01*
X0288108Y0228532D01*
X0288078Y0228633D01*
X0288053Y0228735D01*
X0288031Y0228837D01*
X0288013Y0228941D01*
X0287999Y0229045D01*
X0287989Y0229149D01*
X0287983Y0229254D01*
X0287981Y0229359D01*
X0230107Y0229359D02*
X0230109Y0229464D01*
X0230115Y0229569D01*
X0230125Y0229673D01*
X0230139Y0229777D01*
X0230157Y0229881D01*
X0230179Y0229983D01*
X0230204Y0230085D01*
X0230234Y0230186D01*
X0230267Y0230285D01*
X0230304Y0230383D01*
X0230345Y0230480D01*
X0230390Y0230575D01*
X0230438Y0230668D01*
X0230489Y0230760D01*
X0230545Y0230849D01*
X0230603Y0230936D01*
X0230665Y0231021D01*
X0230729Y0231104D01*
X0230797Y0231184D01*
X0230868Y0231261D01*
X0230942Y0231335D01*
X0231019Y0231407D01*
X0231098Y0231476D01*
X0231180Y0231541D01*
X0231264Y0231604D01*
X0231351Y0231663D01*
X0231440Y0231719D01*
X0231531Y0231772D01*
X0231624Y0231821D01*
X0231718Y0231866D01*
X0231814Y0231908D01*
X0231912Y0231946D01*
X0232011Y0231980D01*
X0232112Y0232011D01*
X0232213Y0232037D01*
X0232316Y0232060D01*
X0232419Y0232079D01*
X0232523Y0232094D01*
X0232627Y0232105D01*
X0232732Y0232112D01*
X0232837Y0232115D01*
X0232942Y0232114D01*
X0233047Y0232109D01*
X0233151Y0232100D01*
X0233255Y0232087D01*
X0233359Y0232070D01*
X0233462Y0232049D01*
X0233564Y0232024D01*
X0233665Y0231996D01*
X0233764Y0231963D01*
X0233863Y0231927D01*
X0233960Y0231887D01*
X0234055Y0231844D01*
X0234149Y0231796D01*
X0234241Y0231746D01*
X0234331Y0231692D01*
X0234419Y0231634D01*
X0234504Y0231573D01*
X0234587Y0231509D01*
X0234668Y0231442D01*
X0234746Y0231372D01*
X0234821Y0231298D01*
X0234893Y0231223D01*
X0234963Y0231144D01*
X0235029Y0231063D01*
X0235093Y0230979D01*
X0235153Y0230893D01*
X0235209Y0230805D01*
X0235263Y0230714D01*
X0235313Y0230622D01*
X0235359Y0230528D01*
X0235402Y0230432D01*
X0235441Y0230334D01*
X0235476Y0230236D01*
X0235507Y0230135D01*
X0235535Y0230034D01*
X0235559Y0229932D01*
X0235579Y0229829D01*
X0235595Y0229725D01*
X0235607Y0229621D01*
X0235615Y0229516D01*
X0235619Y0229411D01*
X0235619Y0229307D01*
X0235615Y0229202D01*
X0235607Y0229097D01*
X0235595Y0228993D01*
X0235579Y0228889D01*
X0235559Y0228786D01*
X0235535Y0228684D01*
X0235507Y0228583D01*
X0235476Y0228482D01*
X0235441Y0228384D01*
X0235402Y0228286D01*
X0235359Y0228190D01*
X0235313Y0228096D01*
X0235263Y0228004D01*
X0235209Y0227913D01*
X0235153Y0227825D01*
X0235093Y0227739D01*
X0235029Y0227655D01*
X0234963Y0227574D01*
X0234893Y0227495D01*
X0234821Y0227420D01*
X0234746Y0227346D01*
X0234668Y0227276D01*
X0234587Y0227209D01*
X0234504Y0227145D01*
X0234419Y0227084D01*
X0234331Y0227026D01*
X0234241Y0226972D01*
X0234149Y0226922D01*
X0234055Y0226874D01*
X0233960Y0226831D01*
X0233863Y0226791D01*
X0233764Y0226755D01*
X0233665Y0226722D01*
X0233564Y0226694D01*
X0233462Y0226669D01*
X0233359Y0226648D01*
X0233255Y0226631D01*
X0233151Y0226618D01*
X0233047Y0226609D01*
X0232942Y0226604D01*
X0232837Y0226603D01*
X0232732Y0226606D01*
X0232627Y0226613D01*
X0232523Y0226624D01*
X0232419Y0226639D01*
X0232316Y0226658D01*
X0232213Y0226681D01*
X0232112Y0226707D01*
X0232011Y0226738D01*
X0231912Y0226772D01*
X0231814Y0226810D01*
X0231718Y0226852D01*
X0231624Y0226897D01*
X0231531Y0226946D01*
X0231440Y0226999D01*
X0231351Y0227055D01*
X0231264Y0227114D01*
X0231180Y0227177D01*
X0231098Y0227242D01*
X0231019Y0227311D01*
X0230942Y0227383D01*
X0230868Y0227457D01*
X0230797Y0227534D01*
X0230729Y0227614D01*
X0230665Y0227697D01*
X0230603Y0227782D01*
X0230545Y0227869D01*
X0230489Y0227958D01*
X0230438Y0228050D01*
X0230390Y0228143D01*
X0230345Y0228238D01*
X0230304Y0228335D01*
X0230267Y0228433D01*
X0230234Y0228532D01*
X0230204Y0228633D01*
X0230179Y0228735D01*
X0230157Y0228837D01*
X0230139Y0228941D01*
X0230125Y0229045D01*
X0230115Y0229149D01*
X0230109Y0229254D01*
X0230107Y0229359D01*
X0230107Y0324241D02*
X0230109Y0324346D01*
X0230115Y0324451D01*
X0230125Y0324555D01*
X0230139Y0324659D01*
X0230157Y0324763D01*
X0230179Y0324865D01*
X0230204Y0324967D01*
X0230234Y0325068D01*
X0230267Y0325167D01*
X0230304Y0325265D01*
X0230345Y0325362D01*
X0230390Y0325457D01*
X0230438Y0325550D01*
X0230489Y0325642D01*
X0230545Y0325731D01*
X0230603Y0325818D01*
X0230665Y0325903D01*
X0230729Y0325986D01*
X0230797Y0326066D01*
X0230868Y0326143D01*
X0230942Y0326217D01*
X0231019Y0326289D01*
X0231098Y0326358D01*
X0231180Y0326423D01*
X0231264Y0326486D01*
X0231351Y0326545D01*
X0231440Y0326601D01*
X0231531Y0326654D01*
X0231624Y0326703D01*
X0231718Y0326748D01*
X0231814Y0326790D01*
X0231912Y0326828D01*
X0232011Y0326862D01*
X0232112Y0326893D01*
X0232213Y0326919D01*
X0232316Y0326942D01*
X0232419Y0326961D01*
X0232523Y0326976D01*
X0232627Y0326987D01*
X0232732Y0326994D01*
X0232837Y0326997D01*
X0232942Y0326996D01*
X0233047Y0326991D01*
X0233151Y0326982D01*
X0233255Y0326969D01*
X0233359Y0326952D01*
X0233462Y0326931D01*
X0233564Y0326906D01*
X0233665Y0326878D01*
X0233764Y0326845D01*
X0233863Y0326809D01*
X0233960Y0326769D01*
X0234055Y0326726D01*
X0234149Y0326678D01*
X0234241Y0326628D01*
X0234331Y0326574D01*
X0234419Y0326516D01*
X0234504Y0326455D01*
X0234587Y0326391D01*
X0234668Y0326324D01*
X0234746Y0326254D01*
X0234821Y0326180D01*
X0234893Y0326105D01*
X0234963Y0326026D01*
X0235029Y0325945D01*
X0235093Y0325861D01*
X0235153Y0325775D01*
X0235209Y0325687D01*
X0235263Y0325596D01*
X0235313Y0325504D01*
X0235359Y0325410D01*
X0235402Y0325314D01*
X0235441Y0325216D01*
X0235476Y0325118D01*
X0235507Y0325017D01*
X0235535Y0324916D01*
X0235559Y0324814D01*
X0235579Y0324711D01*
X0235595Y0324607D01*
X0235607Y0324503D01*
X0235615Y0324398D01*
X0235619Y0324293D01*
X0235619Y0324189D01*
X0235615Y0324084D01*
X0235607Y0323979D01*
X0235595Y0323875D01*
X0235579Y0323771D01*
X0235559Y0323668D01*
X0235535Y0323566D01*
X0235507Y0323465D01*
X0235476Y0323364D01*
X0235441Y0323266D01*
X0235402Y0323168D01*
X0235359Y0323072D01*
X0235313Y0322978D01*
X0235263Y0322886D01*
X0235209Y0322795D01*
X0235153Y0322707D01*
X0235093Y0322621D01*
X0235029Y0322537D01*
X0234963Y0322456D01*
X0234893Y0322377D01*
X0234821Y0322302D01*
X0234746Y0322228D01*
X0234668Y0322158D01*
X0234587Y0322091D01*
X0234504Y0322027D01*
X0234419Y0321966D01*
X0234331Y0321908D01*
X0234241Y0321854D01*
X0234149Y0321804D01*
X0234055Y0321756D01*
X0233960Y0321713D01*
X0233863Y0321673D01*
X0233764Y0321637D01*
X0233665Y0321604D01*
X0233564Y0321576D01*
X0233462Y0321551D01*
X0233359Y0321530D01*
X0233255Y0321513D01*
X0233151Y0321500D01*
X0233047Y0321491D01*
X0232942Y0321486D01*
X0232837Y0321485D01*
X0232732Y0321488D01*
X0232627Y0321495D01*
X0232523Y0321506D01*
X0232419Y0321521D01*
X0232316Y0321540D01*
X0232213Y0321563D01*
X0232112Y0321589D01*
X0232011Y0321620D01*
X0231912Y0321654D01*
X0231814Y0321692D01*
X0231718Y0321734D01*
X0231624Y0321779D01*
X0231531Y0321828D01*
X0231440Y0321881D01*
X0231351Y0321937D01*
X0231264Y0321996D01*
X0231180Y0322059D01*
X0231098Y0322124D01*
X0231019Y0322193D01*
X0230942Y0322265D01*
X0230868Y0322339D01*
X0230797Y0322416D01*
X0230729Y0322496D01*
X0230665Y0322579D01*
X0230603Y0322664D01*
X0230545Y0322751D01*
X0230489Y0322840D01*
X0230438Y0322932D01*
X0230390Y0323025D01*
X0230345Y0323120D01*
X0230304Y0323217D01*
X0230267Y0323315D01*
X0230234Y0323414D01*
X0230204Y0323515D01*
X0230179Y0323617D01*
X0230157Y0323719D01*
X0230139Y0323823D01*
X0230125Y0323927D01*
X0230115Y0324031D01*
X0230109Y0324136D01*
X0230107Y0324241D01*
X0287981Y0324241D02*
X0287983Y0324346D01*
X0287989Y0324451D01*
X0287999Y0324555D01*
X0288013Y0324659D01*
X0288031Y0324763D01*
X0288053Y0324865D01*
X0288078Y0324967D01*
X0288108Y0325068D01*
X0288141Y0325167D01*
X0288178Y0325265D01*
X0288219Y0325362D01*
X0288264Y0325457D01*
X0288312Y0325550D01*
X0288363Y0325642D01*
X0288419Y0325731D01*
X0288477Y0325818D01*
X0288539Y0325903D01*
X0288603Y0325986D01*
X0288671Y0326066D01*
X0288742Y0326143D01*
X0288816Y0326217D01*
X0288893Y0326289D01*
X0288972Y0326358D01*
X0289054Y0326423D01*
X0289138Y0326486D01*
X0289225Y0326545D01*
X0289314Y0326601D01*
X0289405Y0326654D01*
X0289498Y0326703D01*
X0289592Y0326748D01*
X0289688Y0326790D01*
X0289786Y0326828D01*
X0289885Y0326862D01*
X0289986Y0326893D01*
X0290087Y0326919D01*
X0290190Y0326942D01*
X0290293Y0326961D01*
X0290397Y0326976D01*
X0290501Y0326987D01*
X0290606Y0326994D01*
X0290711Y0326997D01*
X0290816Y0326996D01*
X0290921Y0326991D01*
X0291025Y0326982D01*
X0291129Y0326969D01*
X0291233Y0326952D01*
X0291336Y0326931D01*
X0291438Y0326906D01*
X0291539Y0326878D01*
X0291638Y0326845D01*
X0291737Y0326809D01*
X0291834Y0326769D01*
X0291929Y0326726D01*
X0292023Y0326678D01*
X0292115Y0326628D01*
X0292205Y0326574D01*
X0292293Y0326516D01*
X0292378Y0326455D01*
X0292461Y0326391D01*
X0292542Y0326324D01*
X0292620Y0326254D01*
X0292695Y0326180D01*
X0292767Y0326105D01*
X0292837Y0326026D01*
X0292903Y0325945D01*
X0292967Y0325861D01*
X0293027Y0325775D01*
X0293083Y0325687D01*
X0293137Y0325596D01*
X0293187Y0325504D01*
X0293233Y0325410D01*
X0293276Y0325314D01*
X0293315Y0325216D01*
X0293350Y0325118D01*
X0293381Y0325017D01*
X0293409Y0324916D01*
X0293433Y0324814D01*
X0293453Y0324711D01*
X0293469Y0324607D01*
X0293481Y0324503D01*
X0293489Y0324398D01*
X0293493Y0324293D01*
X0293493Y0324189D01*
X0293489Y0324084D01*
X0293481Y0323979D01*
X0293469Y0323875D01*
X0293453Y0323771D01*
X0293433Y0323668D01*
X0293409Y0323566D01*
X0293381Y0323465D01*
X0293350Y0323364D01*
X0293315Y0323266D01*
X0293276Y0323168D01*
X0293233Y0323072D01*
X0293187Y0322978D01*
X0293137Y0322886D01*
X0293083Y0322795D01*
X0293027Y0322707D01*
X0292967Y0322621D01*
X0292903Y0322537D01*
X0292837Y0322456D01*
X0292767Y0322377D01*
X0292695Y0322302D01*
X0292620Y0322228D01*
X0292542Y0322158D01*
X0292461Y0322091D01*
X0292378Y0322027D01*
X0292293Y0321966D01*
X0292205Y0321908D01*
X0292115Y0321854D01*
X0292023Y0321804D01*
X0291929Y0321756D01*
X0291834Y0321713D01*
X0291737Y0321673D01*
X0291638Y0321637D01*
X0291539Y0321604D01*
X0291438Y0321576D01*
X0291336Y0321551D01*
X0291233Y0321530D01*
X0291129Y0321513D01*
X0291025Y0321500D01*
X0290921Y0321491D01*
X0290816Y0321486D01*
X0290711Y0321485D01*
X0290606Y0321488D01*
X0290501Y0321495D01*
X0290397Y0321506D01*
X0290293Y0321521D01*
X0290190Y0321540D01*
X0290087Y0321563D01*
X0289986Y0321589D01*
X0289885Y0321620D01*
X0289786Y0321654D01*
X0289688Y0321692D01*
X0289592Y0321734D01*
X0289498Y0321779D01*
X0289405Y0321828D01*
X0289314Y0321881D01*
X0289225Y0321937D01*
X0289138Y0321996D01*
X0289054Y0322059D01*
X0288972Y0322124D01*
X0288893Y0322193D01*
X0288816Y0322265D01*
X0288742Y0322339D01*
X0288671Y0322416D01*
X0288603Y0322496D01*
X0288539Y0322579D01*
X0288477Y0322664D01*
X0288419Y0322751D01*
X0288363Y0322840D01*
X0288312Y0322932D01*
X0288264Y0323025D01*
X0288219Y0323120D01*
X0288178Y0323217D01*
X0288141Y0323315D01*
X0288108Y0323414D01*
X0288078Y0323515D01*
X0288053Y0323617D01*
X0288031Y0323719D01*
X0288013Y0323823D01*
X0287999Y0323927D01*
X0287989Y0324031D01*
X0287983Y0324136D01*
X0287981Y0324241D01*
D15*
X0277304Y0300737D02*
X0277304Y0292863D01*
X0270296Y0292863D02*
X0270296Y0300737D01*
X0269054Y0300737D02*
X0269054Y0292863D01*
X0262046Y0292863D02*
X0262046Y0300737D01*
X0260804Y0300737D02*
X0260804Y0292863D01*
X0253796Y0292863D02*
X0253796Y0300737D01*
X0252554Y0300737D02*
X0252554Y0292863D01*
X0252725Y0286987D02*
X0252725Y0279113D01*
X0245875Y0279113D02*
X0245875Y0286987D01*
X0245546Y0292863D02*
X0245546Y0300737D01*
X0244625Y0271987D02*
X0244625Y0264113D01*
X0251475Y0264113D02*
X0251475Y0271987D01*
X0266613Y0256554D02*
X0274487Y0256554D01*
X0274487Y0249546D02*
X0266613Y0249546D01*
X0310363Y0219054D02*
X0318237Y0219054D01*
X0318237Y0212046D02*
X0310363Y0212046D01*
X0312863Y0181554D02*
X0320737Y0181554D01*
X0320737Y0174546D02*
X0312863Y0174546D01*
X0288207Y0142105D02*
X0288207Y0123995D01*
X0256180Y0123995D01*
X0259113Y0105304D02*
X0266987Y0105304D01*
X0266987Y0098296D02*
X0259113Y0098296D01*
X0259113Y0096475D02*
X0266987Y0096475D01*
X0266987Y0089625D02*
X0259113Y0089625D01*
X0277007Y0085274D02*
X0284093Y0085274D01*
X0284093Y0070235D01*
X0277007Y0070235D02*
X0277007Y0085274D01*
X0277125Y0094113D02*
X0277125Y0101987D01*
X0283975Y0101987D02*
X0283975Y0094113D01*
X0288207Y0142105D02*
X0256180Y0142105D01*
X0193304Y0141863D02*
X0193304Y0149737D01*
X0186296Y0149737D02*
X0186296Y0141863D01*
X0185304Y0141863D02*
X0185304Y0149737D01*
X0178296Y0149737D02*
X0178296Y0141863D01*
X0210613Y0229796D02*
X0218487Y0229796D01*
X0218487Y0236804D02*
X0210613Y0236804D01*
X0210613Y0237796D02*
X0218487Y0237796D01*
X0218487Y0244804D02*
X0210613Y0244804D01*
X0141800Y0311800D02*
X0135133Y0311800D01*
X0131800Y0315133D02*
X0131800Y0411800D01*
X0141800Y0411800D01*
X0141800Y0311800D01*
X0140855Y0287420D02*
X0140855Y0255393D01*
X0122745Y0255393D01*
X0122745Y0287420D01*
X0108975Y0285737D02*
X0108975Y0277863D01*
X0102125Y0277863D02*
X0102125Y0285737D01*
X0100304Y0285737D02*
X0100304Y0277863D01*
X0093296Y0277863D02*
X0093296Y0285737D01*
X0096613Y0270225D02*
X0104487Y0270225D01*
X0104487Y0263375D02*
X0096613Y0263375D01*
X0076593Y0269615D02*
X0076593Y0254576D01*
X0069507Y0254576D01*
X0069507Y0269615D01*
X0189613Y0414875D02*
X0197487Y0414875D01*
X0197487Y0421725D02*
X0189613Y0421725D01*
X0254393Y0420855D02*
X0254393Y0402745D01*
X0286420Y0402745D01*
X0286420Y0420855D02*
X0254393Y0420855D01*
X0259625Y0441613D02*
X0259625Y0449487D01*
X0266475Y0449487D02*
X0266475Y0441613D01*
X0276613Y0438296D02*
X0284487Y0438296D01*
X0284487Y0445304D02*
X0276613Y0445304D01*
X0276613Y0447125D02*
X0284487Y0447125D01*
X0284487Y0453975D02*
X0276613Y0453975D01*
X0266593Y0462735D02*
X0266593Y0477774D01*
X0259507Y0477774D01*
X0259507Y0462735D01*
X0319050Y0398550D02*
X0319050Y0388550D01*
X0335717Y0388550D01*
X0339050Y0391883D02*
X0339050Y0398550D01*
X0319050Y0398550D01*
X0326863Y0415375D02*
X0334737Y0415375D01*
X0334737Y0422225D02*
X0326863Y0422225D01*
X0348296Y0372487D02*
X0348296Y0364613D01*
X0355304Y0364613D02*
X0355304Y0372487D01*
X0356546Y0372487D02*
X0356546Y0364613D01*
X0363554Y0364613D02*
X0363554Y0372487D01*
X0411363Y0358054D02*
X0419237Y0358054D01*
X0419237Y0351046D02*
X0411363Y0351046D01*
X0411113Y0349975D02*
X0418987Y0349975D01*
X0418987Y0343125D02*
X0411113Y0343125D01*
X0402745Y0286957D02*
X0420855Y0286957D01*
X0420855Y0254930D01*
X0437046Y0257863D02*
X0437046Y0265737D01*
X0442863Y0269625D02*
X0450737Y0269625D01*
X0452725Y0265737D02*
X0452725Y0257863D01*
X0445875Y0257863D02*
X0445875Y0265737D01*
X0444054Y0265737D02*
X0444054Y0257863D01*
X0442863Y0276475D02*
X0450737Y0276475D01*
X0461485Y0279093D02*
X0476524Y0279093D01*
X0476524Y0272007D01*
X0461485Y0272007D01*
X0402745Y0286957D02*
X0402745Y0254930D01*
D16*
X0411406Y0288217D02*
X0411408Y0288256D01*
X0411414Y0288295D01*
X0411424Y0288333D01*
X0411437Y0288370D01*
X0411454Y0288405D01*
X0411474Y0288439D01*
X0411498Y0288470D01*
X0411525Y0288499D01*
X0411554Y0288525D01*
X0411586Y0288548D01*
X0411620Y0288568D01*
X0411656Y0288584D01*
X0411693Y0288596D01*
X0411732Y0288605D01*
X0411771Y0288610D01*
X0411810Y0288611D01*
X0411849Y0288608D01*
X0411888Y0288601D01*
X0411925Y0288590D01*
X0411962Y0288576D01*
X0411997Y0288558D01*
X0412030Y0288537D01*
X0412061Y0288512D01*
X0412089Y0288485D01*
X0412114Y0288455D01*
X0412136Y0288422D01*
X0412155Y0288388D01*
X0412170Y0288352D01*
X0412182Y0288314D01*
X0412190Y0288276D01*
X0412194Y0288237D01*
X0412194Y0288197D01*
X0412190Y0288158D01*
X0412182Y0288120D01*
X0412170Y0288082D01*
X0412155Y0288046D01*
X0412136Y0288012D01*
X0412114Y0287979D01*
X0412089Y0287949D01*
X0412061Y0287922D01*
X0412030Y0287897D01*
X0411997Y0287876D01*
X0411962Y0287858D01*
X0411925Y0287844D01*
X0411888Y0287833D01*
X0411849Y0287826D01*
X0411810Y0287823D01*
X0411771Y0287824D01*
X0411732Y0287829D01*
X0411693Y0287838D01*
X0411656Y0287850D01*
X0411620Y0287866D01*
X0411586Y0287886D01*
X0411554Y0287909D01*
X0411525Y0287935D01*
X0411498Y0287964D01*
X0411474Y0287995D01*
X0411454Y0288029D01*
X0411437Y0288064D01*
X0411424Y0288101D01*
X0411414Y0288139D01*
X0411408Y0288178D01*
X0411406Y0288217D01*
X0477390Y0275550D02*
X0477392Y0275589D01*
X0477398Y0275628D01*
X0477408Y0275666D01*
X0477421Y0275703D01*
X0477438Y0275738D01*
X0477458Y0275772D01*
X0477482Y0275803D01*
X0477509Y0275832D01*
X0477538Y0275858D01*
X0477570Y0275881D01*
X0477604Y0275901D01*
X0477640Y0275917D01*
X0477677Y0275929D01*
X0477716Y0275938D01*
X0477755Y0275943D01*
X0477794Y0275944D01*
X0477833Y0275941D01*
X0477872Y0275934D01*
X0477909Y0275923D01*
X0477946Y0275909D01*
X0477981Y0275891D01*
X0478014Y0275870D01*
X0478045Y0275845D01*
X0478073Y0275818D01*
X0478098Y0275788D01*
X0478120Y0275755D01*
X0478139Y0275721D01*
X0478154Y0275685D01*
X0478166Y0275647D01*
X0478174Y0275609D01*
X0478178Y0275570D01*
X0478178Y0275530D01*
X0478174Y0275491D01*
X0478166Y0275453D01*
X0478154Y0275415D01*
X0478139Y0275379D01*
X0478120Y0275345D01*
X0478098Y0275312D01*
X0478073Y0275282D01*
X0478045Y0275255D01*
X0478014Y0275230D01*
X0477981Y0275209D01*
X0477946Y0275191D01*
X0477909Y0275177D01*
X0477872Y0275166D01*
X0477833Y0275159D01*
X0477794Y0275156D01*
X0477755Y0275157D01*
X0477716Y0275162D01*
X0477677Y0275171D01*
X0477640Y0275183D01*
X0477604Y0275199D01*
X0477570Y0275219D01*
X0477538Y0275242D01*
X0477509Y0275268D01*
X0477482Y0275297D01*
X0477458Y0275328D01*
X0477438Y0275362D01*
X0477421Y0275397D01*
X0477408Y0275434D01*
X0477398Y0275472D01*
X0477392Y0275511D01*
X0477390Y0275550D01*
X0339630Y0411156D02*
X0339632Y0411195D01*
X0339638Y0411234D01*
X0339648Y0411272D01*
X0339661Y0411309D01*
X0339678Y0411344D01*
X0339698Y0411378D01*
X0339722Y0411409D01*
X0339749Y0411438D01*
X0339778Y0411464D01*
X0339810Y0411487D01*
X0339844Y0411507D01*
X0339880Y0411523D01*
X0339917Y0411535D01*
X0339956Y0411544D01*
X0339995Y0411549D01*
X0340034Y0411550D01*
X0340073Y0411547D01*
X0340112Y0411540D01*
X0340149Y0411529D01*
X0340186Y0411515D01*
X0340221Y0411497D01*
X0340254Y0411476D01*
X0340285Y0411451D01*
X0340313Y0411424D01*
X0340338Y0411394D01*
X0340360Y0411361D01*
X0340379Y0411327D01*
X0340394Y0411291D01*
X0340406Y0411253D01*
X0340414Y0411215D01*
X0340418Y0411176D01*
X0340418Y0411136D01*
X0340414Y0411097D01*
X0340406Y0411059D01*
X0340394Y0411021D01*
X0340379Y0410985D01*
X0340360Y0410951D01*
X0340338Y0410918D01*
X0340313Y0410888D01*
X0340285Y0410861D01*
X0340254Y0410836D01*
X0340221Y0410815D01*
X0340186Y0410797D01*
X0340149Y0410783D01*
X0340112Y0410772D01*
X0340073Y0410765D01*
X0340034Y0410762D01*
X0339995Y0410763D01*
X0339956Y0410768D01*
X0339917Y0410777D01*
X0339880Y0410789D01*
X0339844Y0410805D01*
X0339810Y0410825D01*
X0339778Y0410848D01*
X0339749Y0410874D01*
X0339722Y0410903D01*
X0339698Y0410934D01*
X0339678Y0410968D01*
X0339661Y0411003D01*
X0339648Y0411040D01*
X0339638Y0411078D01*
X0339632Y0411117D01*
X0339630Y0411156D01*
X0262656Y0479034D02*
X0262658Y0479073D01*
X0262664Y0479112D01*
X0262674Y0479150D01*
X0262687Y0479187D01*
X0262704Y0479222D01*
X0262724Y0479256D01*
X0262748Y0479287D01*
X0262775Y0479316D01*
X0262804Y0479342D01*
X0262836Y0479365D01*
X0262870Y0479385D01*
X0262906Y0479401D01*
X0262943Y0479413D01*
X0262982Y0479422D01*
X0263021Y0479427D01*
X0263060Y0479428D01*
X0263099Y0479425D01*
X0263138Y0479418D01*
X0263175Y0479407D01*
X0263212Y0479393D01*
X0263247Y0479375D01*
X0263280Y0479354D01*
X0263311Y0479329D01*
X0263339Y0479302D01*
X0263364Y0479272D01*
X0263386Y0479239D01*
X0263405Y0479205D01*
X0263420Y0479169D01*
X0263432Y0479131D01*
X0263440Y0479093D01*
X0263444Y0479054D01*
X0263444Y0479014D01*
X0263440Y0478975D01*
X0263432Y0478937D01*
X0263420Y0478899D01*
X0263405Y0478863D01*
X0263386Y0478829D01*
X0263364Y0478796D01*
X0263339Y0478766D01*
X0263311Y0478739D01*
X0263280Y0478714D01*
X0263247Y0478693D01*
X0263212Y0478675D01*
X0263175Y0478661D01*
X0263138Y0478650D01*
X0263099Y0478643D01*
X0263060Y0478640D01*
X0263021Y0478641D01*
X0262982Y0478646D01*
X0262943Y0478655D01*
X0262906Y0478667D01*
X0262870Y0478683D01*
X0262836Y0478703D01*
X0262804Y0478726D01*
X0262775Y0478752D01*
X0262748Y0478781D01*
X0262724Y0478812D01*
X0262704Y0478846D01*
X0262687Y0478881D01*
X0262674Y0478918D01*
X0262664Y0478956D01*
X0262658Y0478995D01*
X0262656Y0479034D01*
X0252739Y0411800D02*
X0252741Y0411839D01*
X0252747Y0411878D01*
X0252757Y0411916D01*
X0252770Y0411953D01*
X0252787Y0411988D01*
X0252807Y0412022D01*
X0252831Y0412053D01*
X0252858Y0412082D01*
X0252887Y0412108D01*
X0252919Y0412131D01*
X0252953Y0412151D01*
X0252989Y0412167D01*
X0253026Y0412179D01*
X0253065Y0412188D01*
X0253104Y0412193D01*
X0253143Y0412194D01*
X0253182Y0412191D01*
X0253221Y0412184D01*
X0253258Y0412173D01*
X0253295Y0412159D01*
X0253330Y0412141D01*
X0253363Y0412120D01*
X0253394Y0412095D01*
X0253422Y0412068D01*
X0253447Y0412038D01*
X0253469Y0412005D01*
X0253488Y0411971D01*
X0253503Y0411935D01*
X0253515Y0411897D01*
X0253523Y0411859D01*
X0253527Y0411820D01*
X0253527Y0411780D01*
X0253523Y0411741D01*
X0253515Y0411703D01*
X0253503Y0411665D01*
X0253488Y0411629D01*
X0253469Y0411595D01*
X0253447Y0411562D01*
X0253422Y0411532D01*
X0253394Y0411505D01*
X0253363Y0411480D01*
X0253330Y0411459D01*
X0253295Y0411441D01*
X0253258Y0411427D01*
X0253221Y0411416D01*
X0253182Y0411409D01*
X0253143Y0411406D01*
X0253104Y0411407D01*
X0253065Y0411412D01*
X0253026Y0411421D01*
X0252989Y0411433D01*
X0252953Y0411449D01*
X0252919Y0411469D01*
X0252887Y0411492D01*
X0252858Y0411518D01*
X0252831Y0411547D01*
X0252807Y0411578D01*
X0252787Y0411612D01*
X0252770Y0411647D01*
X0252757Y0411684D01*
X0252747Y0411722D01*
X0252741Y0411761D01*
X0252739Y0411800D01*
X0182932Y0410944D02*
X0182934Y0410983D01*
X0182940Y0411022D01*
X0182950Y0411060D01*
X0182963Y0411097D01*
X0182980Y0411132D01*
X0183000Y0411166D01*
X0183024Y0411197D01*
X0183051Y0411226D01*
X0183080Y0411252D01*
X0183112Y0411275D01*
X0183146Y0411295D01*
X0183182Y0411311D01*
X0183219Y0411323D01*
X0183258Y0411332D01*
X0183297Y0411337D01*
X0183336Y0411338D01*
X0183375Y0411335D01*
X0183414Y0411328D01*
X0183451Y0411317D01*
X0183488Y0411303D01*
X0183523Y0411285D01*
X0183556Y0411264D01*
X0183587Y0411239D01*
X0183615Y0411212D01*
X0183640Y0411182D01*
X0183662Y0411149D01*
X0183681Y0411115D01*
X0183696Y0411079D01*
X0183708Y0411041D01*
X0183716Y0411003D01*
X0183720Y0410964D01*
X0183720Y0410924D01*
X0183716Y0410885D01*
X0183708Y0410847D01*
X0183696Y0410809D01*
X0183681Y0410773D01*
X0183662Y0410739D01*
X0183640Y0410706D01*
X0183615Y0410676D01*
X0183587Y0410649D01*
X0183556Y0410624D01*
X0183523Y0410603D01*
X0183488Y0410585D01*
X0183451Y0410571D01*
X0183414Y0410560D01*
X0183375Y0410553D01*
X0183336Y0410550D01*
X0183297Y0410551D01*
X0183258Y0410556D01*
X0183219Y0410565D01*
X0183182Y0410577D01*
X0183146Y0410593D01*
X0183112Y0410613D01*
X0183080Y0410636D01*
X0183051Y0410662D01*
X0183024Y0410691D01*
X0183000Y0410722D01*
X0182980Y0410756D01*
X0182963Y0410791D01*
X0182950Y0410828D01*
X0182940Y0410866D01*
X0182934Y0410905D01*
X0182932Y0410944D01*
X0131406Y0254133D02*
X0131408Y0254172D01*
X0131414Y0254211D01*
X0131424Y0254249D01*
X0131437Y0254286D01*
X0131454Y0254321D01*
X0131474Y0254355D01*
X0131498Y0254386D01*
X0131525Y0254415D01*
X0131554Y0254441D01*
X0131586Y0254464D01*
X0131620Y0254484D01*
X0131656Y0254500D01*
X0131693Y0254512D01*
X0131732Y0254521D01*
X0131771Y0254526D01*
X0131810Y0254527D01*
X0131849Y0254524D01*
X0131888Y0254517D01*
X0131925Y0254506D01*
X0131962Y0254492D01*
X0131997Y0254474D01*
X0132030Y0254453D01*
X0132061Y0254428D01*
X0132089Y0254401D01*
X0132114Y0254371D01*
X0132136Y0254338D01*
X0132155Y0254304D01*
X0132170Y0254268D01*
X0132182Y0254230D01*
X0132190Y0254192D01*
X0132194Y0254153D01*
X0132194Y0254113D01*
X0132190Y0254074D01*
X0132182Y0254036D01*
X0132170Y0253998D01*
X0132155Y0253962D01*
X0132136Y0253928D01*
X0132114Y0253895D01*
X0132089Y0253865D01*
X0132061Y0253838D01*
X0132030Y0253813D01*
X0131997Y0253792D01*
X0131962Y0253774D01*
X0131925Y0253760D01*
X0131888Y0253749D01*
X0131849Y0253742D01*
X0131810Y0253739D01*
X0131771Y0253740D01*
X0131732Y0253745D01*
X0131693Y0253754D01*
X0131656Y0253766D01*
X0131620Y0253782D01*
X0131586Y0253802D01*
X0131554Y0253825D01*
X0131525Y0253851D01*
X0131498Y0253880D01*
X0131474Y0253911D01*
X0131454Y0253945D01*
X0131437Y0253980D01*
X0131424Y0254017D01*
X0131414Y0254055D01*
X0131408Y0254094D01*
X0131406Y0254133D01*
X0072656Y0253316D02*
X0072658Y0253355D01*
X0072664Y0253394D01*
X0072674Y0253432D01*
X0072687Y0253469D01*
X0072704Y0253504D01*
X0072724Y0253538D01*
X0072748Y0253569D01*
X0072775Y0253598D01*
X0072804Y0253624D01*
X0072836Y0253647D01*
X0072870Y0253667D01*
X0072906Y0253683D01*
X0072943Y0253695D01*
X0072982Y0253704D01*
X0073021Y0253709D01*
X0073060Y0253710D01*
X0073099Y0253707D01*
X0073138Y0253700D01*
X0073175Y0253689D01*
X0073212Y0253675D01*
X0073247Y0253657D01*
X0073280Y0253636D01*
X0073311Y0253611D01*
X0073339Y0253584D01*
X0073364Y0253554D01*
X0073386Y0253521D01*
X0073405Y0253487D01*
X0073420Y0253451D01*
X0073432Y0253413D01*
X0073440Y0253375D01*
X0073444Y0253336D01*
X0073444Y0253296D01*
X0073440Y0253257D01*
X0073432Y0253219D01*
X0073420Y0253181D01*
X0073405Y0253145D01*
X0073386Y0253111D01*
X0073364Y0253078D01*
X0073339Y0253048D01*
X0073311Y0253021D01*
X0073280Y0252996D01*
X0073247Y0252975D01*
X0073212Y0252957D01*
X0073175Y0252943D01*
X0073138Y0252932D01*
X0073099Y0252925D01*
X0073060Y0252922D01*
X0073021Y0252923D01*
X0072982Y0252928D01*
X0072943Y0252937D01*
X0072906Y0252949D01*
X0072870Y0252965D01*
X0072836Y0252985D01*
X0072804Y0253008D01*
X0072775Y0253034D01*
X0072748Y0253063D01*
X0072724Y0253094D01*
X0072704Y0253128D01*
X0072687Y0253163D01*
X0072674Y0253200D01*
X0072664Y0253238D01*
X0072658Y0253277D01*
X0072656Y0253316D01*
X0280156Y0086534D02*
X0280158Y0086573D01*
X0280164Y0086612D01*
X0280174Y0086650D01*
X0280187Y0086687D01*
X0280204Y0086722D01*
X0280224Y0086756D01*
X0280248Y0086787D01*
X0280275Y0086816D01*
X0280304Y0086842D01*
X0280336Y0086865D01*
X0280370Y0086885D01*
X0280406Y0086901D01*
X0280443Y0086913D01*
X0280482Y0086922D01*
X0280521Y0086927D01*
X0280560Y0086928D01*
X0280599Y0086925D01*
X0280638Y0086918D01*
X0280675Y0086907D01*
X0280712Y0086893D01*
X0280747Y0086875D01*
X0280780Y0086854D01*
X0280811Y0086829D01*
X0280839Y0086802D01*
X0280864Y0086772D01*
X0280886Y0086739D01*
X0280905Y0086705D01*
X0280920Y0086669D01*
X0280932Y0086631D01*
X0280940Y0086593D01*
X0280944Y0086554D01*
X0280944Y0086514D01*
X0280940Y0086475D01*
X0280932Y0086437D01*
X0280920Y0086399D01*
X0280905Y0086363D01*
X0280886Y0086329D01*
X0280864Y0086296D01*
X0280839Y0086266D01*
X0280811Y0086239D01*
X0280780Y0086214D01*
X0280747Y0086193D01*
X0280712Y0086175D01*
X0280675Y0086161D01*
X0280638Y0086150D01*
X0280599Y0086143D01*
X0280560Y0086140D01*
X0280521Y0086141D01*
X0280482Y0086146D01*
X0280443Y0086155D01*
X0280406Y0086167D01*
X0280370Y0086183D01*
X0280336Y0086203D01*
X0280304Y0086226D01*
X0280275Y0086252D01*
X0280248Y0086281D01*
X0280224Y0086312D01*
X0280204Y0086346D01*
X0280187Y0086381D01*
X0280174Y0086418D01*
X0280164Y0086456D01*
X0280158Y0086495D01*
X0280156Y0086534D01*
X0289073Y0133050D02*
X0289075Y0133089D01*
X0289081Y0133128D01*
X0289091Y0133166D01*
X0289104Y0133203D01*
X0289121Y0133238D01*
X0289141Y0133272D01*
X0289165Y0133303D01*
X0289192Y0133332D01*
X0289221Y0133358D01*
X0289253Y0133381D01*
X0289287Y0133401D01*
X0289323Y0133417D01*
X0289360Y0133429D01*
X0289399Y0133438D01*
X0289438Y0133443D01*
X0289477Y0133444D01*
X0289516Y0133441D01*
X0289555Y0133434D01*
X0289592Y0133423D01*
X0289629Y0133409D01*
X0289664Y0133391D01*
X0289697Y0133370D01*
X0289728Y0133345D01*
X0289756Y0133318D01*
X0289781Y0133288D01*
X0289803Y0133255D01*
X0289822Y0133221D01*
X0289837Y0133185D01*
X0289849Y0133147D01*
X0289857Y0133109D01*
X0289861Y0133070D01*
X0289861Y0133030D01*
X0289857Y0132991D01*
X0289849Y0132953D01*
X0289837Y0132915D01*
X0289822Y0132879D01*
X0289803Y0132845D01*
X0289781Y0132812D01*
X0289756Y0132782D01*
X0289728Y0132755D01*
X0289697Y0132730D01*
X0289664Y0132709D01*
X0289629Y0132691D01*
X0289592Y0132677D01*
X0289555Y0132666D01*
X0289516Y0132659D01*
X0289477Y0132656D01*
X0289438Y0132657D01*
X0289399Y0132662D01*
X0289360Y0132671D01*
X0289323Y0132683D01*
X0289287Y0132699D01*
X0289253Y0132719D01*
X0289221Y0132742D01*
X0289192Y0132768D01*
X0289165Y0132797D01*
X0289141Y0132828D01*
X0289121Y0132862D01*
X0289104Y0132897D01*
X0289091Y0132934D01*
X0289081Y0132972D01*
X0289075Y0133011D01*
X0289073Y0133050D01*
D17*
X0254618Y0074418D02*
X0255102Y0073934D01*
X0255102Y0073451D01*
X0254618Y0072967D01*
X0255102Y0072483D01*
X0255102Y0071999D01*
X0254618Y0071516D01*
X0253651Y0071516D01*
X0253167Y0071999D01*
X0252155Y0071999D02*
X0252155Y0072483D01*
X0251672Y0072967D01*
X0250704Y0072967D01*
X0250220Y0073451D01*
X0250220Y0073934D01*
X0250704Y0074418D01*
X0251672Y0074418D01*
X0252155Y0073934D01*
X0253167Y0073934D02*
X0253651Y0074418D01*
X0254618Y0074418D01*
X0254618Y0072967D02*
X0254134Y0072967D01*
X0252155Y0071999D02*
X0251672Y0071516D01*
X0250704Y0071516D01*
X0250220Y0071999D01*
X0249209Y0071999D02*
X0249209Y0074418D01*
X0247274Y0074418D02*
X0247274Y0071999D01*
X0247758Y0071516D01*
X0248725Y0071516D01*
X0249209Y0071999D01*
X0251188Y0071032D02*
X0251188Y0074902D01*
X0467448Y0249938D02*
X0471318Y0249938D01*
X0470834Y0249454D02*
X0470834Y0250422D01*
X0470351Y0250905D01*
X0469867Y0250905D01*
X0469383Y0250422D01*
X0469383Y0249454D01*
X0468899Y0248970D01*
X0468416Y0248970D01*
X0467932Y0249454D01*
X0467932Y0250422D01*
X0468416Y0250905D01*
X0468899Y0251917D02*
X0467932Y0252884D01*
X0470834Y0252884D01*
X0470834Y0251917D02*
X0470834Y0253852D01*
X0470834Y0249454D02*
X0470351Y0248970D01*
X0470351Y0247959D02*
X0467932Y0247959D01*
X0467932Y0246024D02*
X0470351Y0246024D01*
X0470834Y0246508D01*
X0470834Y0247475D01*
X0470351Y0247959D01*
X0336734Y0403905D02*
X0334622Y0403905D01*
X0335678Y0403905D02*
X0335678Y0407072D01*
X0334622Y0406016D01*
X0333543Y0403377D02*
X0331432Y0403377D01*
X0330353Y0404433D02*
X0330353Y0406544D01*
X0329825Y0407072D01*
X0328242Y0407072D01*
X0328242Y0403905D01*
X0329825Y0403905D01*
X0330353Y0404433D01*
X0327163Y0403905D02*
X0325052Y0403905D01*
X0325052Y0407072D01*
X0327163Y0407072D01*
X0326107Y0405488D02*
X0325052Y0405488D01*
X0323973Y0403905D02*
X0321862Y0403905D01*
X0321862Y0407072D01*
X0320783Y0403377D02*
X0318671Y0403377D01*
X0316537Y0403905D02*
X0316537Y0407072D01*
X0315481Y0407072D02*
X0317593Y0407072D01*
X0314403Y0407072D02*
X0314403Y0403905D01*
X0312291Y0407072D01*
X0312291Y0403905D01*
X0311213Y0404433D02*
X0311213Y0406544D01*
X0310685Y0407072D01*
X0309629Y0407072D01*
X0309101Y0406544D01*
X0309101Y0404433D01*
X0309629Y0403905D01*
X0310685Y0403905D01*
X0311213Y0404433D01*
X0308022Y0403905D02*
X0306967Y0404960D01*
X0307495Y0404960D02*
X0305911Y0404960D01*
X0305911Y0403905D02*
X0305911Y0407072D01*
X0307495Y0407072D01*
X0308022Y0406544D01*
X0308022Y0405488D01*
X0307495Y0404960D01*
X0304832Y0407072D02*
X0302721Y0407072D01*
X0302721Y0403905D01*
X0302721Y0405488D02*
X0303777Y0405488D01*
X0291701Y0467451D02*
X0291701Y0471320D01*
X0292184Y0470837D02*
X0292668Y0470353D01*
X0292184Y0470837D02*
X0291217Y0470837D01*
X0290733Y0470353D01*
X0290733Y0469869D01*
X0291217Y0469385D01*
X0292184Y0469385D01*
X0292668Y0468902D01*
X0292668Y0468418D01*
X0292184Y0467934D01*
X0291217Y0467934D01*
X0290733Y0468418D01*
X0289722Y0468418D02*
X0289722Y0470837D01*
X0287787Y0470837D02*
X0287787Y0468418D01*
X0288270Y0467934D01*
X0289238Y0467934D01*
X0289722Y0468418D01*
X0293680Y0467934D02*
X0295615Y0469869D01*
X0295615Y0470353D01*
X0295131Y0470837D01*
X0294163Y0470837D01*
X0293680Y0470353D01*
X0293680Y0467934D02*
X0295615Y0467934D01*
X0219851Y0417670D02*
X0219323Y0418198D01*
X0218267Y0418198D01*
X0217739Y0417670D01*
X0219851Y0417670D02*
X0219851Y0417142D01*
X0217739Y0415031D01*
X0219851Y0415031D01*
X0216660Y0414503D02*
X0214549Y0414503D01*
X0213470Y0415559D02*
X0213470Y0417670D01*
X0212942Y0418198D01*
X0211359Y0418198D01*
X0211359Y0415031D01*
X0212942Y0415031D01*
X0213470Y0415559D01*
X0210280Y0415031D02*
X0208169Y0415031D01*
X0208169Y0418198D01*
X0210280Y0418198D01*
X0209224Y0416614D02*
X0208169Y0416614D01*
X0207090Y0415031D02*
X0204979Y0415031D01*
X0204979Y0418198D01*
X0203900Y0414503D02*
X0201788Y0414503D01*
X0199654Y0415031D02*
X0199654Y0418198D01*
X0198598Y0418198D02*
X0200710Y0418198D01*
X0197520Y0418198D02*
X0197520Y0415031D01*
X0195408Y0418198D01*
X0195408Y0415031D01*
X0194330Y0415559D02*
X0194330Y0417670D01*
X0193802Y0418198D01*
X0192746Y0418198D01*
X0192218Y0417670D01*
X0192218Y0415559D01*
X0192746Y0415031D01*
X0193802Y0415031D01*
X0194330Y0415559D01*
X0191139Y0415031D02*
X0190084Y0416086D01*
X0190612Y0416086D02*
X0189028Y0416086D01*
X0189028Y0415031D02*
X0189028Y0418198D01*
X0190612Y0418198D01*
X0191139Y0417670D01*
X0191139Y0416614D01*
X0190612Y0416086D01*
X0187949Y0418198D02*
X0185838Y0418198D01*
X0185838Y0415031D01*
X0185838Y0416614D02*
X0186894Y0416614D01*
X0078166Y0296381D02*
X0075263Y0296381D01*
X0076715Y0294930D01*
X0076715Y0296865D01*
X0077198Y0293918D02*
X0076715Y0293434D01*
X0076715Y0292467D01*
X0076231Y0291983D01*
X0075747Y0291983D01*
X0075263Y0292467D01*
X0075263Y0293434D01*
X0075747Y0293918D01*
X0074780Y0292951D02*
X0078649Y0292951D01*
X0078166Y0293434D02*
X0077682Y0293918D01*
X0077198Y0293918D01*
X0078166Y0293434D02*
X0078166Y0292467D01*
X0077682Y0291983D01*
X0077682Y0290972D02*
X0075263Y0290972D01*
X0075263Y0289037D02*
X0077682Y0289037D01*
X0078166Y0289520D01*
X0078166Y0290488D01*
X0077682Y0290972D01*
D18*
X0220333Y0210835D02*
X0221515Y0212017D01*
X0254585Y0212017D02*
X0255767Y0212017D01*
X0255767Y0210835D01*
X0255767Y0177765D02*
X0255767Y0176583D01*
X0254585Y0176583D01*
X0221515Y0176583D02*
X0220333Y0176583D01*
X0220333Y0177765D01*
X0171050Y0145050D02*
X0171050Y0126050D01*
X0168050Y0128550D02*
X0166550Y0127050D01*
X0165050Y0128550D01*
X0166550Y0127050D02*
X0166550Y0130550D01*
X0162050Y0126050D02*
X0162050Y0145050D01*
X0308001Y0194438D02*
X0308001Y0199162D01*
X0313119Y0206643D02*
X0315481Y0206643D01*
X0320599Y0199162D02*
X0320599Y0194438D01*
X0315481Y0186957D02*
X0313119Y0186957D01*
X0329300Y0136800D02*
X0334300Y0136800D01*
X0336800Y0134300D01*
X0339300Y0136800D01*
X0344300Y0136800D01*
X0346800Y0134300D01*
X0349300Y0136800D01*
X0354300Y0136800D01*
X0356800Y0134300D01*
X0359300Y0136800D01*
X0364300Y0136800D01*
X0366800Y0134300D01*
X0369300Y0136800D01*
X0374300Y0136800D01*
X0376800Y0134300D01*
X0379300Y0136800D01*
X0384300Y0136800D01*
X0386800Y0134300D01*
X0386800Y0129300D01*
X0384300Y0126800D01*
X0379300Y0126800D01*
X0376800Y0129300D01*
X0374300Y0126800D01*
X0369300Y0126800D01*
X0366800Y0129300D01*
X0364300Y0126800D01*
X0359300Y0126800D01*
X0356800Y0129300D01*
X0354300Y0126800D01*
X0349300Y0126800D01*
X0346800Y0129300D01*
X0344300Y0126800D01*
X0339300Y0126800D01*
X0336800Y0129300D01*
X0334300Y0126800D01*
X0329300Y0126800D01*
X0326800Y0129300D01*
X0326800Y0134300D01*
X0329300Y0136800D01*
X0396800Y0180550D02*
X0399300Y0178050D01*
X0414300Y0178050D01*
X0416800Y0180550D01*
X0416800Y0185550D01*
X0414300Y0188050D01*
X0399300Y0188050D01*
X0396800Y0185550D01*
X0396800Y0180550D01*
X0399300Y0188050D02*
X0396800Y0190550D01*
X0396800Y0195550D01*
X0399300Y0198050D01*
X0396800Y0200550D01*
X0396800Y0205550D01*
X0399300Y0208050D01*
X0414300Y0208050D01*
X0416800Y0205550D01*
X0416800Y0200550D01*
X0414300Y0198050D01*
X0399300Y0198050D01*
X0416800Y0195550D02*
X0416800Y0190550D01*
X0414300Y0188050D01*
X0413050Y0360550D02*
X0418050Y0360550D01*
X0420550Y0363050D01*
X0420550Y0368050D01*
X0418050Y0370550D01*
X0420550Y0373050D01*
X0420550Y0378050D01*
X0418050Y0380550D01*
X0420550Y0383050D01*
X0420550Y0388050D01*
X0418050Y0390550D01*
X0420550Y0393050D01*
X0420550Y0398050D01*
X0418050Y0400550D01*
X0420550Y0403050D01*
X0420550Y0408050D01*
X0418050Y0410550D01*
X0420550Y0413050D01*
X0420550Y0418050D01*
X0418050Y0420550D01*
X0413050Y0420550D01*
X0410550Y0418050D01*
X0410550Y0413050D01*
X0413050Y0410550D01*
X0410550Y0408050D01*
X0410550Y0403050D01*
X0413050Y0400550D01*
X0410550Y0398050D01*
X0410550Y0393050D01*
X0413050Y0390550D01*
X0410550Y0388050D01*
X0410550Y0383050D01*
X0413050Y0380550D01*
X0410550Y0378050D01*
X0410550Y0373050D01*
X0413050Y0370550D01*
X0410550Y0368050D01*
X0410550Y0363050D01*
X0413050Y0360550D01*
D19*
X0383050Y0401800D03*
X0368250Y0401800D03*
D20*
X0367250Y0402200D03*
X0367250Y0416600D03*
X0384050Y0402600D03*
D21*
X0383250Y0402200D03*
X0368050Y0417400D03*
D22*
X0366450Y0414200D03*
X0366450Y0402600D03*
X0384850Y0403400D03*
X0384850Y0415000D03*
X0384850Y0417000D03*
D23*
X0385850Y0409800D03*
X0385850Y0409400D03*
X0385850Y0408600D03*
X0385850Y0406600D03*
X0375450Y0402600D03*
X0365450Y0403800D03*
X0365450Y0411800D03*
X0365450Y0412200D03*
D24*
X0365850Y0413000D03*
X0365850Y0403000D03*
X0380250Y0406200D03*
X0385450Y0415400D03*
D25*
X0382850Y0413800D03*
X0382850Y0411800D03*
X0381650Y0411400D03*
X0379250Y0413400D03*
X0375250Y0413800D03*
X0376450Y0409000D03*
X0376450Y0406600D03*
X0376050Y0405800D03*
X0376450Y0404600D03*
X0372050Y0403000D03*
X0151450Y0186600D03*
X0151450Y0186200D03*
X0139050Y0189400D03*
X0138650Y0187000D03*
X0134650Y0190200D03*
X0134250Y0190600D03*
X0134250Y0191000D03*
X0133050Y0191800D03*
X0133850Y0192600D03*
X0135450Y0193800D03*
X0135850Y0192600D03*
X0136650Y0195000D03*
X0129850Y0191800D03*
X0129450Y0191400D03*
X0129450Y0191000D03*
X0129050Y0187400D03*
X0129050Y0186600D03*
D26*
X0367050Y0403400D03*
X0367050Y0416200D03*
X0384250Y0403000D03*
D27*
X0385250Y0403800D03*
X0380050Y0405400D03*
X0385250Y0415800D03*
X0385250Y0416200D03*
D28*
X0386050Y0414200D03*
X0386050Y0412200D03*
X0386050Y0408200D03*
X0386050Y0407800D03*
X0386050Y0405400D03*
X0386050Y0405000D03*
X0365250Y0404200D03*
X0365250Y0411000D03*
X0365250Y0411400D03*
X0131050Y0194200D03*
X0131050Y0193800D03*
D29*
X0132850Y0191000D03*
X0135650Y0190600D03*
X0134450Y0195000D03*
X0139250Y0193400D03*
X0139650Y0193000D03*
X0140050Y0192200D03*
X0140050Y0191800D03*
X0140850Y0190200D03*
X0141250Y0189000D03*
X0141250Y0188600D03*
X0141250Y0188200D03*
X0141250Y0187000D03*
X0141250Y0186600D03*
X0140850Y0185400D03*
X0140450Y0185000D03*
X0138450Y0183400D03*
X0144050Y0189800D03*
X0144050Y0190200D03*
X0144050Y0190600D03*
X0144050Y0191400D03*
X0144850Y0190600D03*
X0145650Y0190600D03*
X0145650Y0190200D03*
X0145650Y0189800D03*
X0146450Y0190200D03*
X0146450Y0190600D03*
X0146450Y0191000D03*
X0146450Y0191400D03*
X0145650Y0191400D03*
X0148050Y0191400D03*
X0148050Y0191000D03*
X0148050Y0190600D03*
X0148050Y0190200D03*
X0148850Y0190200D03*
X0148850Y0190600D03*
X0148850Y0191000D03*
X0151250Y0191000D03*
X0151250Y0191400D03*
X0151250Y0190200D03*
X0151250Y0189800D03*
X0152850Y0189800D03*
X0152850Y0190200D03*
X0152850Y0191000D03*
X0152850Y0191400D03*
X0129250Y0188600D03*
X0369050Y0411800D03*
X0369050Y0412200D03*
X0369450Y0412600D03*
X0369450Y0413000D03*
X0373050Y0411400D03*
X0375450Y0411800D03*
X0375450Y0411000D03*
X0376250Y0411000D03*
X0377850Y0409800D03*
X0377450Y0409400D03*
X0379050Y0410600D03*
X0379450Y0411400D03*
X0379450Y0411800D03*
X0379450Y0412200D03*
X0379850Y0409800D03*
X0382250Y0411000D03*
X0383450Y0411000D03*
X0383450Y0411400D03*
X0377850Y0414600D03*
X0372650Y0406600D03*
X0372250Y0406200D03*
X0371850Y0405800D03*
X0371050Y0405400D03*
X0371050Y0405000D03*
X0371450Y0404600D03*
X0371850Y0404200D03*
D30*
X0382850Y0404200D03*
D31*
X0386450Y0406200D03*
X0386450Y0411000D03*
X0386450Y0413000D03*
X0386450Y0413800D03*
X0364850Y0409400D03*
X0364850Y0409000D03*
X0364850Y0405000D03*
X0364850Y0404600D03*
D32*
X0365650Y0412600D03*
X0385650Y0414600D03*
X0385650Y0404600D03*
D33*
X0374050Y0405000D03*
X0364450Y0406600D03*
X0364450Y0407000D03*
X0364450Y0407400D03*
X0364450Y0407800D03*
X0364450Y0408200D03*
X0377650Y0415000D03*
X0143850Y0188600D03*
X0143850Y0188200D03*
X0147850Y0184200D03*
X0147850Y0183800D03*
X0130650Y0183800D03*
X0129850Y0184200D03*
X0129450Y0184600D03*
X0129450Y0185000D03*
X0130250Y0194600D03*
D34*
X0364650Y0405400D03*
X0364650Y0405800D03*
X0364650Y0406200D03*
X0364650Y0408600D03*
X0386650Y0411400D03*
X0386650Y0411800D03*
X0386650Y0412600D03*
X0386650Y0413400D03*
D35*
X0381250Y0411800D03*
X0381250Y0411000D03*
X0380050Y0410600D03*
X0380050Y0409400D03*
X0377650Y0411000D03*
X0377650Y0411400D03*
X0379250Y0413000D03*
X0377250Y0416600D03*
X0373650Y0413000D03*
X0372450Y0412200D03*
X0372050Y0414200D03*
X0374050Y0410600D03*
X0372050Y0405400D03*
X0153050Y0188600D03*
X0153050Y0188200D03*
X0152650Y0187800D03*
X0152250Y0187000D03*
X0151450Y0185800D03*
X0151450Y0185400D03*
X0151450Y0185000D03*
X0151450Y0184600D03*
X0151450Y0184200D03*
X0151450Y0183800D03*
X0150650Y0187000D03*
X0150250Y0187800D03*
X0149850Y0188200D03*
X0146650Y0188200D03*
X0146650Y0188600D03*
X0146650Y0187800D03*
X0146650Y0187400D03*
X0146650Y0187000D03*
X0146650Y0186600D03*
X0146650Y0186200D03*
X0146650Y0185800D03*
X0146650Y0185400D03*
X0146650Y0185000D03*
X0146650Y0184600D03*
X0142650Y0184600D03*
X0142650Y0184200D03*
X0142650Y0183800D03*
X0142650Y0185000D03*
X0142650Y0185400D03*
X0142650Y0185800D03*
X0142650Y0187000D03*
X0142650Y0187400D03*
X0142650Y0187800D03*
X0141450Y0187800D03*
X0141450Y0187400D03*
X0141050Y0186200D03*
X0141050Y0185800D03*
X0140250Y0184600D03*
X0139450Y0184200D03*
X0135850Y0186600D03*
X0138650Y0191000D03*
X0139850Y0192600D03*
X0139050Y0193800D03*
X0137450Y0194600D03*
X0137050Y0196200D03*
X0137050Y0196600D03*
X0133450Y0194600D03*
X0132650Y0191400D03*
X0129050Y0189800D03*
X0129050Y0188200D03*
X0129450Y0196200D03*
X0141050Y0189800D03*
X0141050Y0189400D03*
X0144250Y0191000D03*
X0145450Y0191000D03*
D36*
X0137650Y0186200D03*
X0365050Y0409800D03*
X0365050Y0410200D03*
X0365050Y0410600D03*
X0376650Y0410200D03*
X0386250Y0410600D03*
X0386250Y0407400D03*
X0386250Y0407000D03*
X0386250Y0405800D03*
D37*
X0382250Y0412200D03*
X0381450Y0414200D03*
X0377050Y0411800D03*
X0376650Y0412200D03*
X0374250Y0406200D03*
X0152050Y0190600D03*
X0149650Y0191400D03*
X0149650Y0189800D03*
X0147250Y0189800D03*
X0138850Y0187400D03*
X0128850Y0187000D03*
X0130050Y0195400D03*
D38*
X0130050Y0195000D03*
X0129250Y0185400D03*
X0138050Y0185800D03*
X0138850Y0186600D03*
X0143650Y0186600D03*
X0143650Y0186200D03*
X0374250Y0407000D03*
X0376650Y0410600D03*
X0377050Y0414200D03*
X0375050Y0415400D03*
X0377450Y0417000D03*
X0380250Y0415400D03*
X0382250Y0410600D03*
D39*
X0384450Y0410200D03*
X0384450Y0409000D03*
X0366850Y0415400D03*
X0366850Y0415800D03*
D40*
X0372650Y0414600D03*
X0373450Y0415000D03*
X0374250Y0413400D03*
X0374250Y0412200D03*
X0373050Y0412600D03*
X0373450Y0411000D03*
X0375850Y0411400D03*
X0378250Y0413800D03*
X0380250Y0413800D03*
X0379450Y0411000D03*
X0383850Y0413400D03*
X0152450Y0187400D03*
X0150450Y0187400D03*
X0149650Y0188600D03*
X0138450Y0191400D03*
X0138450Y0191800D03*
X0136450Y0191800D03*
X0136450Y0192200D03*
X0135650Y0194200D03*
X0136850Y0195400D03*
X0136850Y0195800D03*
X0133650Y0192200D03*
X0129250Y0190600D03*
X0129250Y0190200D03*
X0129250Y0187800D03*
X0131650Y0183400D03*
X0138850Y0183800D03*
X0129650Y0195800D03*
D41*
X0130250Y0192600D03*
X0130250Y0192200D03*
X0129050Y0186200D03*
X0129050Y0185800D03*
X0139050Y0187800D03*
X0139050Y0188200D03*
X0139050Y0188600D03*
X0139050Y0189000D03*
X0372850Y0411800D03*
D42*
X0379450Y0412600D03*
D43*
X0385050Y0416600D03*
X0366250Y0413800D03*
X0366250Y0413400D03*
D44*
X0366650Y0414600D03*
X0366650Y0415000D03*
X0132850Y0193400D03*
X0132850Y0193000D03*
D45*
X0367650Y0417000D03*
D46*
X0381650Y0417400D03*
M02*
