%
M48
M72
T01C0.0150
T02C0.0197
T03C0.0236
T04C0.0394
T05C0.0400
T06C0.0433
T07C0.0551
%
T01
X22064Y17939
X24564Y17814
X25189Y17689
X28314Y13689
X27689Y10689
X29439Y17939
X29189Y21314
X26814Y21814
X25189Y22314
X24314Y22689
X24064Y23189
X22064Y22064
X20314Y22439
X19689Y23939
X24439Y27564
X24814Y25439
X26314Y30439
X26439Y31189
X20564Y31939
X14189Y30814
X14564Y27564
X23189Y41439
X26439Y43189
X29189Y40064
X32314Y27314
X41814Y28814
T02
X24064Y23814
X17939Y22814
X17689Y21064
T03
X13314Y12689
X13064Y13314
X13064Y13939
X13439Y14689
X14189Y14814
X14564Y15189
X14564Y15814
X15189Y16314
X15814Y16439
X16064Y16939
X16814Y16939
X17564Y16939
X18314Y16814
X18939Y16564
X19564Y16564
X20439Y16939
X21689Y18314
X21689Y19189
X20689Y19564
X22439Y21814
X22439Y23814
X24064Y24814
X25189Y25814
X25939Y24814
X25939Y23439
X28189Y23439
X28564Y22689
X27939Y21314
X28314Y19939
X29189Y18439
X28314Y18189
X29939Y20564
X25689Y17439
X28064Y14439
X29314Y11939
X19564Y13564
X18814Y13564
X18064Y13564
X17439Y13314
X17064Y12689
X16314Y12564
X15564Y12564
X14814Y12564
X14064Y12564
X21814Y26689
X21564Y28689
X24064Y26939
X27814Y29189
X27814Y29939
X29564Y27564
X42189Y38314
X41439Y14439
T04
X27189Y33439
X26189Y33439
T05
X40189Y20314
X41189Y20314
X41189Y19314
X41189Y18314
X40189Y18314
X40189Y19314
X38189Y13189
X37189Y13189
X36189Y13189
X35189Y13189
X34189Y13189
X33189Y13189
X41564Y36564
X41564Y37564
X41564Y38564
X41564Y39564
X41564Y40564
X41564Y41564
T06
X35689Y36689
X34689Y36689
X13689Y36689
X13689Y37689
X13689Y38689
X13689Y39689
X13689Y40689
X13689Y35689
X13689Y34689
X13689Y33689
X13689Y32689
X13689Y31689
T07
X23295Y32433
X29083Y32433
X29083Y22945
X23295Y22945
M30
