%
M48
M72
T01C0.01500
T02C0.02362
T03C0.03937
T04C0.04000
T05C0.04331
T06C0.05512
%
T01
X232300Y182800
X245550Y181300
X238800Y167050
X263800Y195550
X264300Y203050
X273050Y207550
X279800Y199800
X249800Y201550
X249300Y207550
X238300Y207050
X233050Y200050
X233050Y219550
X239300Y220800
X226550Y236050
X241300Y302050
X236550Y309300
X266800Y305550
X205550Y376800
X263300Y435550
X417050Y297550
X271550Y118050
T02
X124800Y126800
X124800Y133050
X124800Y139550
X124800Y146050
X124800Y152300
X124800Y158800
X124800Y165300
X124800Y171550
X131800Y171550
X138800Y171550
X145800Y171550
X152550Y171550
X159050Y171550
X165550Y171550
X172300Y171550
X179050Y171550
X173800Y178800
X185550Y171550
X197050Y168800
X201800Y164300
X201800Y158050
X201800Y152050
X201800Y146050
X201800Y140050
X201800Y133800
X201800Y127550
X198800Y122300
X192050Y122300
X185050Y122300
X178050Y122300
X155800Y122300
X155800Y128550
X155800Y134800
X155800Y141050
X155550Y147050
X155550Y153050
X149300Y122300
X142800Y122300
X136050Y122300
X129300Y122300
X209800Y184050
X232800Y193050
X218800Y217800
X218800Y226050
X258550Y256050
X241550Y271800
X241550Y279300
X249300Y330300
X248300Y362050
X248050Y419300
X260050Y426800
X284300Y426800
X294300Y419300
X367550Y372550
X367300Y365300
X419300Y291800
X426800Y284300
X426800Y259300
X416800Y246800
X307800Y146050
X308050Y123050
X294300Y124300
X284300Y116800
X246800Y124300
X249800Y146550
X288300Y183800
X289050Y203050
X290300Y259050
X124300Y249300
X116800Y259300
X116800Y284300
X124300Y294300
T03
X261800Y334300
X271800Y334300
T04
X401800Y203050
X401800Y193050
X401800Y183050
X411800Y183050
X411800Y193050
X411800Y203050
X381800Y131800
X371800Y131800
X361800Y131800
X351800Y131800
X341800Y131800
X331800Y131800
X415550Y365550
X415550Y375550
X415550Y385550
X415550Y395550
X415550Y405550
X415550Y415550
T05
X334050Y393550
X324050Y393550
X136800Y396800
X136800Y386800
X136800Y376800
X136800Y366800
X136800Y356800
X136800Y346800
X136800Y336800
X136800Y326800
X136800Y316800
X136800Y406800
T06
X232863Y324241
X290737Y324241
X290737Y229359
X232863Y229359
M30
